<svg width="466" height="156" viewBox="0 0 466 156" fill="none" xmlns="http://www.w3.org/2000/svg">
<rect x="136.446" y="59.9688" width="169.851" height="63.9785" fill="#F9B8B8"/>
<rect x="0.297791" y="59.9688" width="137.579" height="52.1323" fill="#F9B8B8"/>
<rect x="0.297729" y="59.9688" width="137.579" height="11.5181" fill="#F97990"/>
<rect x="11.8157" y="70.0361" width="31.9982" height="11.5181" transform="rotate(90 11.8157 70.0361)" fill="#F97990"/>
<rect x="0.297791" y="100.583" width="137.579" height="11.5181" fill="#F97990"/>
<rect x="136.446" y="91.958" width="18.8871" height="63.9785" fill="#F9B8B8"/>
<rect x="166.665" y="91.958" width="18.8871" height="63.9785" fill="#F9B8B8"/>
<rect x="196.884" y="91.958" width="18.8871" height="63.9785" fill="#F9B8B8"/>
<rect x="227.103" y="91.958" width="18.8871" height="63.9785" fill="#F9B8B8"/>
<rect x="245.797" y="0.547852" width="156.402" height="123.394" fill="#FBCDCD"/>
<rect x="297.24" y="40.7104" width="16.6987" height="16.6987" transform="rotate(90 297.24 40.7104)" fill="#7B5C2D"/>
<rect x="380.54" y="40.7104" width="16.6987" height="16.6987" transform="rotate(90 380.54 40.7104)" fill="#7B5C2D"/>
<rect x="182.109" y="0.547852" width="63.6882" height="22.3123" fill="#F97990"/>
<rect x="402.199" y="0.547852" width="63.6882" height="22.3123" fill="#F97990"/>
<rect x="182.109" y="35.0967" width="63.6882" height="22.3123" fill="#F97990"/>
<rect x="402.199" y="35.0967" width="63.6882" height="22.3123" fill="#F97990"/>
<rect x="182.109" y="69.6455" width="63.6882" height="22.3123" fill="#F97990"/>
<rect x="402.199" y="69.6455" width="63.6882" height="22.3123" fill="#F97990"/>
</svg>
