<svg id="b24dc18d-b041-4a42-b6ce-eb0d36b50e84" data-name="Layer 1" xmlns="http://www.w3.org/2000/svg" viewBox="0 0 290 357.9"><title>baby</title><path d="M163.1238,75.9468q1.0221,0,1.9689.0848c-.8092-.3489-1.62-.71-2.4345-1.0766l-1.1473.1022a1.41,1.41,0,0,1-.13,1.0132A14.021,14.021,0,0,1,163.1238,75.9468Zm-62.9387,49.8247c-.1018-.3923-.1978-.77-.29-1.1206.0952.6481.2171,1.2891.373,1.9192Q100.2225,126.172,100.1851,125.7715ZM101.82,96.1169a1.41,1.41,0,0,1-.02-1.1123,15.9349,15.9349,0,0,1-4.6665,2.0882c.5546.0013,1.1027.0011,1.6354.01l1.4554-.57a1.49,1.49,0,0,1,1.3071.0791Q101.678,96.365,101.82,96.1169Zm-8.8836-.2487a1.4116,1.4116,0,0,1,.0252-.2658l-.0073.0118-.2373-.1395a3.8146,3.8146,0,0,1-.9647,1.1017,3.1786,3.1786,0,0,0,.5627.1974c.3641.0718.7379.1273,1.1184.17A1.4159,1.4159,0,0,1,92.9367,95.8682Zm.7321-1.2409L95.33,93.65l.2647.4324q.2141-.1406.4323-.275a1.4438,1.4438,0,0,1-.6515-.77q-.4845.1537-.98.262-.1131.0245-.2275.0468a1.4045,1.4045,0,0,1-.2155.6374l-.4709.769A1.4689,1.4689,0,0,1,93.6688,94.6273Zm19.7064-24.6507c1.5475-1.1783,2.8461-2.7707,4.38-3.9622,5.5013-4.274,12.7211-4.327,19.3674-4.2395a12.4342,12.4342,0,0,1,5.1105,3.1684l.8117-.5967.0243.0318.0842-.1043a20.1748,20.1748,0,0,1,5.9181-1.8452c8.9209-1.4366,15.5653,3.8863,21.7089,9.2136a23.0755,23.0755,0,0,0,3.7722,2.5773c1.3024.3455,2.5953.7224,3.8691,1.1441,3.7255,1.2335,7.1033,4.1408,10.4478,6.1093,5.0612,3.72,9.6413,7.7949,14.57,11.6158,1.0268.796,5.8909,1.8158,6.1842,2.577.3926,1.0192-.7365,2.1013-1.4306,2.9522-1.1762,1.4418-6.1865,2.536-9.0822,2.0645.132.1807.27.3553.4136.5266l1.2828.6286a1.43,1.43,0,0,1,.8357,1.2943,1.4462,1.4462,0,0,1-1.4606,1.4315h-1.6845v-.0555l-.1439.0485c-1.989-.39-4.0048-.6093-5.9109-1.06a27.5528,27.5528,0,0,1,2.12,7.7717c.5627,5.7822-.57,11.3563-1.938,16.8814a37.4966,37.4966,0,0,1-1.868,7.4929c-.221.9509-.4294,1.9025-.6175,2.8556-1.7622,5.2033-4.0249,9.2564-8.5983,12.6473-2.3562,1.7469-5.1747,2.72-6.3631-.7994-.6283-1.86.4376-4.0919,1.0607-5.7739.9625-2.5985,1.5268-5.2648,2.3407-7.8746.6516-2.0892,1.8965-3.7,2.3472-5.9085,1.7352-4.2514.7419-9.15-.3479-13.42-.7543-2.9554-.7517-6.2984-1.6675-9.1878-1.9583-6.1782-6.2038-9.8131-10.7083-14.2278-4.3361-3.6856-12.5171-3.4328-17.8825-2.3053-2.3807.5-3.8259,2.7618-5.8407,3.5613-4.1714,1.6552-8.4083-2.8008-11.601-4.309-1.02-.4-4.1754-2.5606-5.1289-2.5158-.9709.0456-1.7932.7726-2.7456.9627-6.36,1.27-10.8569,4.3467-13.8013,10.1284-1.2739,2.5013-1.9856,5.24-3.2833,7.7149-1.256,9.0987-.5354,18.4367.3962,27.4973a59.9682,59.9682,0,0,0,1.3079,6.2063l.0059.0078.2236-.11.6607,1.2949a1.4032,1.4032,0,0,1,.1673.666,1.4462,1.4462,0,0,1-1.4606,1.4315,1.4682,1.4682,0,0,1-1.1787-.586l-1.0005-1.3074c-2.2686-2.9645-4.3634-6.0045-6.724-8.897-5.35-7.006-3.6906-17.6662-3.6749-25.97.0026-1.3762.107-5.4181,1.1042-7.4953-3.4827.0029-6.71-.2283-9.5116-1.8877l-.2183.4278-1.3192-.6465a1.43,1.43,0,0,1-.8357-1.2942,1.4462,1.4462,0,0,1,1.4606-1.4315h1.42q.1025-.056.1981-.1129c-5.62-.0377-12.6625-.6241-14.3663-6.7061q-.031-.111-.0576-.2229l-.0343.0112-.663-1.9493a1.4035,1.4035,0,0,1-.0857-.4844,1.4462,1.4462,0,0,1,1.4606-1.4315,1.4829,1.4829,0,0,1,.5732.1144l1.6238.6366c5.4477,1.779,10.1757,1.7007,15.7487.92a21.9536,21.9536,0,0,0,2.4741-.63c2.4035-1.2351,4.5983-2.8981,7.0018-4.0638.547-.4983,1.94-1.9813,2.6164-2.5529,1.4109-4.0873,4.7753-6.0855,8.1429-8.65ZM181.021,80.6075q.1092.0446.22.0874l-.0948.3187.15-.2932.8628.4228.1891-.0926.0177.0348a2.0783,2.0783,0,0,1,.4524-.1717c-.4161-.28-.835-.5559-1.2571-.8215a1.455,1.455,0,0,1-.5394.5153Zm14.67,9.51a7.585,7.585,0,0,0,1.4587.8819c-.9468-.8049-1.9365-1.5619-2.948-2.294a14.4486,14.4486,0,0,0,1.4892,1.4121Zm2.8069,6.8521q-.5937.0078-1.1552-.0253l.6467.4754a12.8041,12.8041,0,0,0,5.8585.0373,7.68,7.68,0,0,0,.9462-.3366,10.351,10.351,0,0,1-2.0247-1.007C201.7489,97.18,199.5723,96.9556,198.4977,96.97ZM194,96.3465a5.7978,5.7978,0,0,0,.997.5039l.07.0272a1.4646,1.4646,0,0,1,.23-.1978q-.6677-.1368-1.2966-.3333Zm-.1224,3.5752.0134-.0789c-.1159-.0014-.2318-.0068-.3479-.0171-.6307-.0556-1.0022-.7626-1.5409-1.0889a26.4585,26.4585,0,0,1-3.1486-2.22c.0554.1291.1035.2352.1435.3136.5688.9291,1.1365,1.9174,1.68,2.9464a18.7629,18.7629,0,0,0,5.2527,1.4583c-.1516-.3757-.286-.7423-.4081-1.0447ZM180.468,92.01c.3306.43.6509.8674.9649,1.31a13.2435,13.2435,0,0,1,2.5033,3.68c.4838.7072.9774,1.4071,1.4958,2.0883-1.22-1.8089-3.2869-5.7694-2.4756-7.8854-.8625.3235-1.7788.6085-2.4885.8065Zm10.9554,20.1425c-.0466.7088-.0862,1.4005-.1272,2.08a1.4276,1.4276,0,0,1,.1.1737l.3653.716a32.71,32.71,0,0,0-.1094-3.6174q-.04-.4582-.1087-.9237C191.505,111.1189,191.4565,111.6475,191.4234,112.1527ZM179.5186,149.027a1.4035,1.4035,0,0,1,.1673-.666l.5948-1.1658c.7513-3.762,1.559-7.579,2.2691-11.4225-.9,2.6183-2.02,5.2357-2.88,7.7637a25.9605,25.9605,0,0,0-1.6166,4.9713c-.0631.5131-.665,1.5648-.138,1.5446a3.1726,3.1726,0,0,0,1.6052-.9551c-.0011-.0232-.0017-.0467-.0017-.07Zm4.9628-28.2021c-.1486-.53-.3073-1.0783-.4743-1.6334.164.7658.3124,1.5437.4348,2.3279q.0213-.3473.04-.6945ZM142.5,91.9934c-.6339.0363-1.42.3089-2.0675.3033a3.53,3.53,0,0,0,2.93.2679,12.1728,12.1728,0,0,0,1.5912-1.0165,10.8463,10.8463,0,0,1-2.4534.4453Zm42.0619,48.8117a13.5774,13.5774,0,0,0,1.5487-2.0606,33.0086,33.0086,0,0,0,1.9655-4.302c.3126-1.2813.6423-2.5627.9708-3.8459a1.4773,1.4773,0,0,1-2.3131-.4377l-.2076-.4068c-.5273,3.703-1.2235,7.3968-1.9643,11.053Zm5.5545-16.9436a1.4714,1.4714,0,0,1-.292.1219,27.41,27.41,0,0,0-.3095,3.9122v.8608q.1643-.6528.3243-1.3065a30.7985,30.7985,0,0,0,.2772-3.5884ZM176.785,86.7767a3.19,3.19,0,0,1-.7175.8069,9.4613,9.4613,0,0,0,.7758.7543c.212-.34.4145-.6365.5656-.8625a7.8069,7.8069,0,0,1,.5224-.8289c-.2068.0408-.3971.07-.5374.0826q-.3031.0275-.6089.0476Zm10.0307,18.247q1.11,3.5826,1.9983,7.2066a10.168,10.168,0,0,0-.4089-4.8819A10.6827,10.6827,0,0,0,186.8157,105.0237ZM160.2919,80.7012a1.95,1.95,0,0,1-.1667-.1059,8.8594,8.8594,0,0,1-.45.8168,12.9169,12.9169,0,0,1,.5785,2.054.9452.9452,0,0,0,.1364-.2671,4.6559,4.6559,0,0,0-.0749-1.1983c-.0035-.3372-.0288-.7975-.0238-1.2995Zm-19.6,6.8758c-.97.2417-1.94.5349-2.91.8018a1.7552,1.7552,0,0,0,.5167.6654.8914.8914,0,0,0,.5978.1511,1.4652,1.4652,0,0,1,.4069-.2565,6.7757,6.7757,0,0,1,1.3888-1.3618ZM136.57,64.5862c-1.2059.0222-2.4384.0295-3.6774.0616q.7981.1692,1.5954.4212v-.0181h.1873l.0528-.3107,1.9977.3263a1.4413,1.4413,0,0,1,1.2441,1.4159,1.4053,1.4053,0,0,1-.0809.4712c.674-.1214,1.3493-.2308,2.0261-.3222A9.68,9.68,0,0,0,136.57,64.5862Zm-7.8553,4.1792a2.2007,2.2007,0,0,0-.2737.1285q.342-.0845.6724-.176c1.0024-.1637,2.0059-.361,3.0111-.571A11.614,11.614,0,0,0,128.7145,68.7654Zm-5.4469,5.6289a28.6555,28.6555,0,0,1,4.6152-2.0085l.0592-.0276.5858-.3889-.0737-.1444c-1.1208.24-2.3243.4473-3.44.7645-.5548.5811-1.14,1.1939-1.7469,1.8049Zm16.6056-4.7209c.43-.0015.9716-.0086,1.5469-.0011a1.4238,1.4238,0,0,1-.1971-.3317c-.855.0866-1.7079.2109-2.559.3587q.5817-.0243,1.2092-.0259ZM111.5324,80.6227q.4616-.1743.9245-.3362l-.07-.0913,1.3357-.9818q.0408-.0306.0836-.0585l1.1979-1.3344q-.567.2763-1.1426.5334-.1953.0872-.3956.17a1.47,1.47,0,0,1-.6028.2612q-.08.0765-.1485.1539a10.3578,10.3578,0,0,0-1.1824,1.6841Zm4.356-3.1431q.0666-.0863.1337-.1715-.1039.0538-.2081.1073Zm47.2222-8.6832c1.3961,1.0664,2.7789,2.2187,4.433,3.3619a16.097,16.097,0,0,0-2.5287-2.17c-.6244-.4056-1.2592-.8059-1.9042-1.1923Zm9.71,10.5191q.1419.1319.2821.2695.31.0617.6189.1241l-.0606-.0266Q173.2382,79.5019,172.8208,79.3155Zm-59.9183-4.3841q.5032-.95,1.0916-1.8354a22.738,22.738,0,0,0-4.57,3.8c.6268-.1991,1.2546-.3971,1.863-.6119.4939-.46,1.04-.9108,1.6157-1.3527ZM83.5909,89.8148c.5254.1066,1.0645.2124,1.6112.3126a1.55,1.55,0,0,1-.0061-.5q-.3766.0335-.7616.0713c-.2949.0291-.5742.07-.8435.1161Zm14.905-2.1272q.3664-.4085.751-.8126a21.1928,21.1928,0,0,1-2.2287.9173C97.5119,87.7709,98.0047,87.738,98.4959,87.6876Zm33.95-7.1563c-.5941.4008-1.1906.7953-1.7914,1.1718-.0314.18-.0639.3589-.0995.5374-.059.2949-.35.9053-.3731,1.1544l.2006.0394c.4609-.3241.4249-1.1061.8075-1.5392.3866-.4376.8082-.8974,1.2559-1.3638Zm-4.91,2.8833q-.4923.2231-.991.4128c.3741.1822.744.3764,1.113.5724q.0091-.0522.022-.103a4.6506,4.6506,0,0,1-.144-.8822Zm44.841-.2547c-.8674-.066-1.7494-.0626-2.739-.0592a4.5737,4.5737,0,0,1-.7026,1.6957l.0791.0821c.4459-.3832.889-.818,1.4125-1.2693.6029.0621,1.2107.1224,1.8211.1739a2.714,2.714,0,0,1,.2942-.3924q-.0752-.1084-.1535-.2148Zm20.5713,8.6959q.2746.0924.538.1867a40.96,40.96,0,0,1-3.7672-3.999,18.7839,18.7839,0,0,0,1.1717,1.6618C191.5713,90.5613,192.328,91.1643,192.948,91.8558Zm-17.5043.9134c2.0592,2.2353,4.4686,4.4057,6.4647,6.8162-.1411-.3674-.2863-.7222-.44-1.065-.77-1.1339-1.519-2.2828-2.3088-3.3981a11.2449,11.2449,0,0,0-2.8767-1.9359q-.4275-.2094-.84-.4172Zm2.0164,6.275c.886,1.17,1.7956,2.3345,2.6827,3.5811a24.8243,24.8243,0,0,1,2.238,3.9253,16.1218,16.1218,0,0,0-4.1189-6.6986q-.4063-.3966-.8018-.8078Zm-84.1977-8.442c-1.0092.01-2.0159.0445-3.0167.1509A14.8442,14.8442,0,0,0,93.2624,90.6022Zm54.2863-3.1364-.102-.0121c-.5835.2087-1.1611.4254-1.7378.657q.008.0684.0092.1387C146.3292,88.0075,146.9392,87.7388,147.5487,87.4658Zm38.5114-.0129a2.0609,2.0609,0,0,1,.0595.59c.0257.0155.051.0317.0756.0486l.462.3074c-.19-.3256-.3879-.6426-.5971-.9455Zm-22.8227-5.4982v.01l.0037-.004-.0036-.0062Zm-.76,3.2256.0551-.0118-.0185-.0639Zm-5.0322.03a7.7892,7.7892,0,0,1-.2751-.8621q-.4431.4218-.9139.8435Q156.8508,85.1838,157.4456,85.21ZM150.33,70.3863a6.6358,6.6358,0,0,1,.11.7012c.3343-.23.6722-.4478,1.0087-.646q-.2264-.0666-.4532-.13Q150.6621,70.3436,150.33,70.3863ZM140.7588,83.51q.3331-.0406.6624-.0925-.0228-.1019-.0418-.2053C141.1877,83.3081,140.979,83.4091,140.7588,83.51Zm2.9958-9.72q-.6221-.0548-1.2439-.1124c-.3821.5228-.7535,1.0569-1.117,1.5876a17.0652,17.0652,0,0,1,2.331-1.39c.0106-.0281.02-.0564.03-.0849Zm-7.6007,7.7953a19.1411,19.1411,0,0,1-2.3956,2.022c.8218.0282,1.6549.059,2.4893.0748a2.9677,2.9677,0,0,1,.0333-1.7818A2.6733,2.6733,0,0,1,136.1539,81.5847ZM147.507,71.107q-.1473.0609-.2941.1232.1571.0113.3143.0222C147.5213,71.203,147.5146,71.1544,147.507,71.107Zm-47.2638,45.0067q.0233.1578.0483.3154.0165-.161.0339-.3218-.0406.0041-.0822.0064Zm79.6415-27.1288c.4023-.1317.8343-.2488,1.2509-.353a7.1847,7.1847,0,0,0-.3379-.9746c-.2914.45-.6061.91-.913,1.3276ZM78.03,88.132c.1114.1756.2159.3576.32.5418l.5038-.3292q-.41-.1-.8244-.2126Zm27.5357,47.3117q-.0611-.4233-.1006-.8571a1.4654,1.4654,0,0,1-.3673.23Q105.3326,135.13,105.5657,135.4437Zm83.0111-33.4115a9.7477,9.7477,0,0,1-2.0369-1.5852c.8524.97,1.87,2.0183,2.7593,3.0857Q188.9514,102.7724,188.5768,102.0322Z" fill="#010101"/><path d="M113.3046,83.6315a1.3932,1.3932,0,0,1,.6532-1.9206l.4506-.195c4.9265-3.6212,8.5279-7.0859,14.4394-7.9858-4.366.0276-8.1039.2809-12.1582,2.446-2.1388,1.1422-3.0361,3.1122-4.9081,4.5284l.0932.1554a1.44,1.44,0,0,1-1.96.64,1.3868,1.3868,0,0,1-.6532-1.9205l.767-1.1654c1.9755-1.3942,2.9125-3.4934,5.1987-4.7165,4.88-2.611,9.46-2.8337,14.8806-2.8337a1.4218,1.4218,0,0,1,1.4606,1.4315,1.2855,1.2855,0,0,1-.6949,1.2347q.45-.0217.9188-.0248a1.4318,1.4318,0,1,1,0,2.863c-7.0513-.0529-10.4963,3.8634-15.6315,7.638l-.8969.4654a1.4466,1.4466,0,0,1-1.96-.64Z" fill="#242424"/><path d="M148.0766,89.2647a1.4218,1.4218,0,0,1-1.4606,1.4315h-.3369c-3.144-.01-4.5-.74-7.1166-2.1647-1.3437-.7316-2.9883-.6746-3.9244-2.1935-1.28-2.0763.28-5.1921,1.5595-7.6695-.0688.034-.1125.05-.1125.05a48.6018,48.6018,0,0,0-8.1837,3.8493l-.21.5571a1.4452,1.4452,0,0,1-2.0255.397,1.3839,1.3839,0,0,1-.4051-1.9851l1.1376-1.424a51.703,51.703,0,0,1,8.661-4.075,1.4425,1.4425,0,0,1,1.88.8377,1.9276,1.9276,0,0,1,.0633.1949c.0911-.194.1736-.3791.2451-.5541a1.4354,1.4354,0,0,1,1.8985-.7974A1.39,1.39,0,0,1,140.56,77.58c-.4877,1.1949-3.6256,6.1528-2.78,7.3477.5759.8141,1.93.6272,2.8136,1.1083,2.2755,1.239,2.9318,1.8077,5.6854,1.7975h.3368a1.4218,1.4218,0,0,1,1.4606,1.4315Z" fill="#242424"/><path d="M170.3019,91.1019a1.2242,1.2242,0,0,1-1.75-.25l-.8092-1.0843c-1.1362-1.1361-2.6944-1.98-3.7451-3.1679-1.3179-1.49-1.5743-3.7383-2.8913-5.1992-2.5174-2.7922-6.9248-4.035-10.3743-5.0964a1.25,1.25,0,1,1,.7352-2.3894c3.9334,1.21,8.6824,2.6827,11.5379,5.86,1.326,1.4753,1.5673,3.7192,2.875,5.18,1.05,1.1731,2.619,2.0428,3.7512,3.175l.9207,1.2223a1.2242,1.2242,0,0,1-.25,1.75Z" fill="#242424"/><path d="M178.2015,108.9393a1.2242,1.2242,0,0,1-1.25-1.25l.0894-.1124a47.0981,47.0981,0,0,0-3.6594-7.3174,1.25,1.25,0,1,1,2.1437-1.2862,51.2885,51.2885,0,0,1,3.8369,7.6751l.0893,1.0409a1.2242,1.2242,0,0,1-1.25,1.25Z" fill="#242424"/></svg>