<svg id="6b9ced03-f380-442b-81ab-ca7a7eb9874f" data-name="Layer 1" xmlns="http://www.w3.org/2000/svg" viewBox="0 0 290 357.9"><title>baby</title><path d="M102.1767,111.6865c.0523-4.2156-1.6934-8.0327-.9677-12.4.0679-.4088,2.1807-6.6409,2.3411-6.9138.4775-.813,1.5149-1.1916,2-2,.5423-.9039.4576-2.0962,1-3,.4851-.8085,1.5058-1.1971,2-2,1.105-1.7954.8937-4.2054,2-6a17.8007,17.8007,0,0,1,6.4021-5.0784c2.0678-.7,4.243.2732,6.3241-.075,2.8472-.4765,5.96-2.0206,8.7014-2.9326,2.4531-.6133,4.8034-1.6578,7.2986-2.0674,6.964-1.1432,13.6965.9312,20.191,3.096,3.879,1.293,9.0155,2.1633,12.5238,4.2451.9049.537,1.4486,1.5362,2.2706,2.1932,5.292,4.23,10.7226,10.4364,10.8827,17.5329l.904,2.61a3.1241,3.1241,0,0,1,.116,1.1341l1.0123.6565a2.4644,2.4644,0,0,1-2.146,2.4821c-1.4681,2.0892-2.6324,4.5977-4.4206,6.1028q-.0949.08-.1921.1564l.0265.0264-2,2a2.5,2.5,0,0,1-4.2678-1.7677v-3c0-.278-.0055-1.5585,0-2.9294-1.1773,1.2278-2.3357,2.4493-3.4613,3.72l-.6484,1.9452a2.5016,2.5016,0,0,1-3.6015,1.4514,9.94,9.94,0,0,1-.3207,2.2131c-.5179,1.8039-.8661,4.4011-2.6564,4.9643-3.2287,1.0155-5.4479-2.8686-7.3963-4.4314a35.13,35.13,0,0,1-3.1331-2.1172,19.0484,19.0484,0,0,1-2.3772-2.8264c-.1385.4705-.2949.9292-.4048,1.3v3.7107a2.5,2.5,0,0,1-4.2677,1.7677l-2-2,.0581-.0581-.2237-.1247c-.82-1.2868-1.97-2.4152-2.4594-3.8605-.3981-1.1764-.0875-2.4826-.1073-3.7244-.0133-.8381-.0308-1.6769-.0139-2.5148-.0435.105-.0823.2071-.1144.3054-.6279,1.9253-.9749,3.5541-1.358,5.2094h.4863v3a2.5,2.5,0,0,1-4.89.7359l-.9818-2.9454.1609-.0536-.2569-.3365q-.0445-4.7-.0323-9.4c.0024-.83-.1717-1.87-.2191-2.8364a1.8244,1.8244,0,0,0-.2528.2982,21.636,21.636,0,0,0-1.7184,3.4949c-.8449,1.96-.1525,4.3244-.8284,6.3487q-.0486.1457-.1016.29l.0457.0114-.9874,3.9493a2.5008,2.5008,0,0,1-4.8279.18l-.9818-2.9454.1433-.0477-.2393-.3424a25.7868,25.7868,0,0,1,0-3.8009c.2256-1.5119,1.2386-2.88,1.2647-4.408.0048-.2809-.1468.5476-.2795.7952a17.4753,17.4753,0,0,0-1.2312,2.0247c-.4394,1.1853-.5429,2.4708-.886,3.6876a16.5543,16.5543,0,0,1-1.129,2.8688l.1541.0385-.9874,3.9493a2.5,2.5,0,0,1-4.938-.5556q0-.0838.0055-.1664l.1767-3.0464.0567.0033-.0454-.1368a13.8325,13.8325,0,0,0,.1447-1.3761c-3.2223,1.9353-6.4485,3.8238-9.07,6.49a2.4486,2.4486,0,0,1-3.5356,0,3.1361,3.1361,0,0,1-.4184-.5113A2.635,2.635,0,0,1,102.1767,111.6865Zm78.5611-12.5848-1.2749,1.9125c-.033.2115-.0622.421-.0881.63.5439-.6638,1.1337-1.3033,1.6979-1.8863l-.2533-.7833Q180.7806,99.04,180.7378,99.1017Z" fill="#f7ed51"/><path d="M116.1767,96.6865v3a2.4485,2.4485,0,0,1-2.5,2.5,2.4113,2.4113,0,0,1-2.4965-2.4132c-.05.799-.0141,1.7275-.0035,2.9132a2.5,2.5,0,0,1-5,0c.0352-4.7947.3289-7.171,3.5945-10.6234l-.5945.6234a2.5,2.5,0,0,1,5,0l-.3972,1.5014A2.45,2.45,0,0,1,116.1767,96.6865Z" fill="#d6d63c"/><path d="M135.1767,84.6865a2.4485,2.4485,0,0,1-2.5,2.5h-11a2.5,2.5,0,0,1,0-5h11A2.4485,2.4485,0,0,1,135.1767,84.6865ZM124.7568,100.3a2.8539,2.8539,0,0,1,.4175.9224,27.8681,27.8681,0,0,1,.9351-7.6863c-.98.791-2.0027,1.5305-3.046,2.2308a2.5,2.5,0,0,1-2.7735-4.16,28.8517,28.8517,0,0,0,4.619-3.6877l2.7678-.7322a2.4485,2.4485,0,0,1,2.5,2.5,2.5071,2.5071,0,0,1-.43,1.5025,2.4162,2.4162,0,0,1,2.43,2.4975,2.2591,2.2591,0,0,1-1.5678,2.322c-.6593,2.8636-.4322,5.63-.4322,8.678a2.5,2.5,0,1,1-5,0c0-.84-.0067-1.6569-.0068-2.46a2.9325,2.9325,0,0,1-1.1065,1.54l-2.4,1.4374a16.1573,16.1573,0,0,0-.4868,4.4825,2.5,2.5,0,0,1-5,0,23.1086,23.1086,0,0,1,1.5132-7.5175l3.6-2.5626a2.4484,2.4484,0,0,1,3.4669.6934Zm2.9208-8.1132-.0328.03.0607-.0307-.0278.0006Z" fill="#d6d63c"/><path d="M136.6767,94.1865a2.4485,2.4485,0,0,1,2.5,2.5v6a2.5,2.5,0,0,1-5,0v-6A2.4485,2.4485,0,0,1,136.6767,94.1865Z" fill="#d6d63c"/><path d="M133.1767,78.6865a2.4485,2.4485,0,0,1-2.5,2.5h-15a2.5,2.5,0,0,1,0-5h15A2.4485,2.4485,0,0,1,133.1767,78.6865Z" fill="#d6d63c"/><path d="M161.4445,112.4543a2.4486,2.4486,0,0,1-3.5356,0l-4-4a2.4486,2.4486,0,0,1,0-3.5356,2.3263,2.3263,0,0,1,1.8612-.78c-1.4459-1.8651-2.5475-4.02-4.0268-5.8675-.8433-1.0534-1.7341-2.0688-2.6153-3.0916l-.006.0292a2.7733,2.7733,0,0,1,.0547.4774v12a2.5,2.5,0,0,1-5,0v-12a2.7733,2.7733,0,0,1,.0547-.4774,2.5023,2.5023,0,0,1,2.4453-3.0226,2.5,2.5,0,1,1,4-3c1.5378,2.056,3.33,3.91,4.9333,5.915,1.65,2.0645,2.9018,4.8974,4.7847,6.7689,1.53,1.5208,3.5182,2.5289,5.05,4.0483l2,2a2.5,2.5,0,0,1-3.5356,3.5356l-2-2q-.0853-.0863-.1729-.17A2.3245,2.3245,0,0,1,161.4445,112.4543Z" fill="#d6d63c"/><path d="M179.6767,98.1865a2.2607,2.2607,0,0,1-2.0925-1.077,13.2032,13.2032,0,0,0,.4642,1.7864l.1283,1.7906a2.5,2.5,0,0,1-5,0l.1283-.2094c-1.0117-3.1293-1.1251-5.8822-2-9-.1857-.6616.1133-1.5617-.3961-2.0228-.6489-.5875-1.7916-.1982-2.5465-.6412-.7042-.4131-.8955-1.4873-1.6424-1.8169-.6258-.2762-1.36.1688-2.0433.19-.4913.0155-.9839.0391-1.4771.0639a2.3138,2.3138,0,0,1,1.9771,2.4361,2.4485,2.4485,0,0,1-2.5,2.5h-6a2.5,2.5,0,0,1,0-5h.81q-.1053-.0153-.2106-.0323a63.9443,63.9443,0,0,1-9.39-2.096,2.6691,2.6691,0,0,1-1.7094-1.8546v3.4829a2.4485,2.4485,0,0,1-2.5,2.5,2.4162,2.4162,0,0,1-2.4975-2.43,2.5071,2.5071,0,0,1-1.5025.43,2.4485,2.4485,0,0,1-2.5-2.5v-7a2.4485,2.4485,0,0,1,2.5-2.5,2.4109,2.4109,0,0,1,1.677.57,2.26,2.26,0,0,1,2.323-1.57,2.4485,2.4485,0,0,1,2.5,2.5v5.7257a3.2413,3.2413,0,0,1,.1283-.5163,2.4485,2.4485,0,0,1,3.1623-1.5811,55.4688,55.4688,0,0,0,8.61,1.904c3.2793.5667,7.39-1.0322,10.5562.158,1.0026.3768,1.4431,1.6257,2.3576,2.1831,1.0563.6438,2.6025.461,3.4535,1.3588a6.6434,6.6434,0,0,1,.7372.9368q-.0018-.0846-.005-.169a2.5,2.5,0,0,1,5,0c-.0634,1.0144-.5336,2.0866-.19,3.0433.3184.8874,1.3334,1.3333,2,2l.19,3.9567a2.4485,2.4485,0,0,1-2.5,2.5Zm-2.31-4.5433a4.1236,4.1236,0,0,0-.3174-.2829c.0676.5262.1308,1.0513.1976,1.5687Z" fill="#d6d63c"/><path d="M166.1767,77.6865a2.4485,2.4485,0,0,1-2.5,2.5l-2.118-.2639a14.5565,14.5565,0,0,0-6.882-1.7361,2.5,2.5,0,0,1,0-5c1.5248.0223,3.0944-.3006,4.5744.0669,1.6327.4054,3.0291,1.4647,4.5436,2.197l-.118-.2639a2.4485,2.4485,0,0,1,2.5,2.5Z" fill="#d6d63c"/><path d="M171.4445,100.4543a2.4486,2.4486,0,0,1-3.5356,0L166.72,98.9962l-3.0433.19a2.5,2.5,0,0,1,0-5l4.9567.19,2.8111,2.5419a2.4485,2.4485,0,0,1,0,3.5355Z" fill="#d6d63c"/></svg>