<svg id="d73dcd4e-6025-414d-b1af-01e813b9e157" data-name="Layer 1" xmlns="http://www.w3.org/2000/svg" viewBox="0 0 290 357.9"><title>baby</title><path d="M100.57,119.563c0-3.612-.5607-7.8315.0323-11.4005.7789-4.6873,3.3194-9.2706,5.158-13.5562,1.7578-4.0973,3.9307-9.6642,7.9954-12.17,2.7095-1.67,6.3852-1.7,9.216-3.1192,1.9569-.9808,4.37-3.4512,6.3739-4.1469.9447-.328,2.0513.3162,3,0a13.7647,13.7647,0,0,0,3-2c5.6621-.1631,12.5354-1.1246,18.1249-.075a12.7314,12.7314,0,0,1,3.9139,1.3411c.8209.4637,1.1915,1.5149,2,2,.9039.5423,2.0985.4537,3,1,.9.5452,1.448,1.537,2.2706,2.1932,6.066,4.8391,13.9779,8.5572,17.6609,15.835,1.6292,3.2195,1.6789,6.3311,2.2219,9.6979.1886,1.1695,1.0481,2.216,1.0323,3.4005-.0176,1.3182-.7522,2.527-1.1283,3.7906a15.4592,15.4592,0,0,0-.8717,5.2094l-1.7323,2.7678a2.9781,2.9781,0,0,1-1.6046.7733c-1.2479,4.34-3.3988,8.582-6.5782,10.3922-1.7947,1.0219-3.8209,2.9689-5.7646,2.2709-1.56-.56-.8216-3.2129-1.288-4.8038a48.6329,48.6329,0,0,1-1-6,42.9011,42.9011,0,0,0-1.3638-5.1323c-.5081,1.0133-1.4137,1.8113-1.9227,2.83-.471.943-.3324,2.1843-1,3q-.1059.1295-.216.2549l.05.0335-1.9785,2.9678a2.5,2.5,0,0,1-4.6016-1.3545v-3c0-3.9061.34-7.4948-.8717-11.21-.3686-1.13-.0148-3.3115-1.2027-3.3574-1.5264-.0589-2.6555,1.5364-3.8406,2.5a19.5072,19.5072,0,0,0-4.4954,5.5891l.3358.0839-.9874,3.9493a2.5,2.5,0,0,1-4.938-.5556v-3h.1795l-.1472-.4005c1.0157-3.1416,1.0795-3.3741,2.096-6.39a25.0282,25.0282,0,0,1,1.1259-3.3078,15.8589,15.8589,0,0,1,1.8531-2.6261c.1664-.21.8767-.6008.6249-.5077-2.1252.7855-4.5324-.0786-6.5077.6249-1.0093.36-1.67,1.37-2.6261,1.8531-.8688.439-1.9477.3828-2.7841.8808-1.7584,1.0471-3.0567,2.9424-4.5648,4.1923q-.1773.69-.3492,1.38l-.0637.08.0351.0117-.9817,2.9453a2.5,2.5,0,0,1-4.89-.7359v-3h.1194a4.715,4.715,0,0,1-.0121-.7245,4.9454,4.9454,0,0,1,1.9405-3.5017c.4082-1.4.8533-2.7739,1.36-4.1382-1.7217,1.492-3.6778,2.784-4.7813,4.6787-.49.8411-.4418,1.9153-.8808,2.7841-.4832.9562-1.4595,1.63-1.8531,2.6261-.85,2.1509,1.7468,5.9,2.075,7.875.483,2.9069.0472,6.4458.0323,9.4-.0057,1.1335.3993,2.3523-.0323,3.4005q-.0767.1864-.1627.3678l.0667.0223-.9817,2.9453a2.501,2.501,0,0,1-4.78,0l-.8438-2.5313c-1.3017-1.3668-1.9423-3.2538-2.8929-4.89-1.5665-2.6967-5.4165-5.322-7.6411-7.5466a2.9268,2.9268,0,0,1-.3722-.49,2.62,2.62,0,0,1-1.36-2.278Z" fill="#d14f3d"/><path d="M109.1876,116.7991a2.4485,2.4485,0,0,1-3.3541-1.1181l-1.264-3.118v-6a2.5,2.5,0,1,1,5,0v1.6095q.0572-.2025.1283-.4c.8983-2.4861,3.5162-4.88,5.4384-6.7944l1.8532-2.8018a2.5,2.5,0,0,1,4.16,2.7735l-2.1468,3.1983c-1.1212,1.1258-4.0489,3.9156-4.5617,5.2056-.553,1.3914.8036,5.623,1.0537,6.6031a2.5,2.5,0,1,1-4.8507,1.2126c-.1049-.4272-.2252-.8785-.35-1.3469a2.5526,2.5526,0,0,1-1.1069.9767Z" fill="#a13f2e"/><path d="M111.8458,127.77a3.104,3.104,0,0,1-.544-.4393,2.4485,2.4485,0,0,1,0-3.5356l5.2678.7678c-.0417,3.3536,1.104,6.1146,1.9253,9.3937a2.5,2.5,0,1,1-4.8507,1.2126C112.9859,132.531,112.2394,130.2438,111.8458,127.77Z" fill="#a13f2e"/><path d="M148.3056,86.445a2.4485,2.4485,0,0,1-1.118,3.3541l-1.35.5317c-3.85,3.85-7.34,7.798-10.9049,11.9-2.0783,2.3913-4.6777,2.9524-4.3629,6.3327a2.5,2.5,0,0,1-5,0c.0635-1.3189-.3815-2.7665.19-3.9567.6764-1.4077,4.1112-4.1688,5.4469-5.7106,3.6169-4.175,7.1822-8.1876,11.0951-12.1005l2.65-1.4683A2.4485,2.4485,0,0,1,148.3056,86.445Z" fill="#a13f2e"/><path d="M146.07,78.063a2.5,2.5,0,1,1-1.9634,4.0477,2.7832,2.7832,0,0,1-2.0366.9523l-1.2094-.1283q-1.0753.3583-2.1644.7264.0708.0633.1416.1341a2.4485,2.4485,0,0,1,0,3.5356l-1.6411,1.5465c-1.5922,4.7766-4.6481,7.4009-9.3361,9.0574a2.5,2.5,0,1,1-1.5811-4.7434c3.7436-1.1413,5.4423-3.2779,6.6639-6.9426l.8113-.8438a78.6849,78.6849,0,0,0-8.3786,3.6065c-1.6162.8266-2.8857,2.2966-4.5816,2.9443-1.8728.7153-4.04.3229-5.9339.979a2.5,2.5,0,0,1-1.5811-4.7434,24.5351,24.5351,0,0,1,3.39-1.096c.88-.1481,1.8458.4021,2.676.075,1.4128-.5567,2.3917-1.9019,3.7389-2.6027a112.6683,112.6683,0,0,1,16.195-6.3763l2.7906-.1283a2.783,2.783,0,0,1,2.0365.9523,2.4955,2.4955,0,0,1,1.9635-.9523Z" fill="#a13f2e"/><path d="M112.57,96.563a2.4272,2.4272,0,0,1-2.4635,2.4991l-2.2687,2.2687a2.5,2.5,0,0,1-3.5355-3.5356l3-3,2.7678-.7322a2.4485,2.4485,0,0,1,2.5,2.5Z" fill="#a13f2e"/><path d="M165.57,85.563a2.4485,2.4485,0,0,1-2.5,2.5l.3868-.42c-2.1866,1.4478-4.01,3.3819-6.0543,5.024a74.06,74.06,0,0,1-13.2144,8.132,2.5,2.5,0,0,1-2.2361-4.4722c7.0327-3.5061,12.3258-8.5479,18.7313-12.844l2.3867-.42A2.4485,2.4485,0,0,1,165.57,85.563Z" fill="#a13f2e"/><path d="M158.3056,100.445a2.4485,2.4485,0,0,1-1.118,3.3541l-2.3275,1.1356-3,1a2.5,2.5,0,0,1-1.5811-4.7434l3-1,1.6725-.8644a2.4485,2.4485,0,0,1,3.3541,1.1181Z" fill="#a13f2e"/><path d="M161.07,126.063a2.4485,2.4485,0,0,1-2.5-2.5v-16a2.4485,2.4485,0,0,1,2.5-2.5,3.1783,3.1783,0,0,1,.6094.0558,10.2628,10.2628,0,0,1,2.9089-3.8017,3.2139,3.2139,0,0,1,.2-.7937c-.7062.1491-1.42.278-2.1119.465a2.5,2.5,0,0,1-1.2127-4.8508,13.8481,13.8481,0,0,0,3.3746-.75c.8122-.4146,1.1312-1.4893,1.9174-1.9511.2524-.1483,3.0979-1.1054,4.9659-1.7277A2.2664,2.2664,0,0,1,174.07,90.063a2.4485,2.4485,0,0,1,2.5,2.5L174.86,95.9347c-1.8185.6062-3.8435.7507-5.4762,1.7549a7.5647,7.5647,0,0,0-1.4,1.5083,2.5556,2.5556,0,0,1,1.5852,2.3651l-1.1621,3.1119c-2.6791,1.45-2.8772,3.7366-2.8438,6.5l.1342-.4027a2.5,2.5,0,0,1,4.7435,1.5812q-.5,1.5-1,3l.1283,1.2094a2.5,2.5,0,1,1-5,0l.1283-2.7906.1134-.34a2.2073,2.2073,0,0,1-1.2417.5941v9.5367a2.4485,2.4485,0,0,1-2.5,2.5Z" fill="#a13f2e"/><path d="M181.57,128.5189a2.27,2.27,0,0,1,1,2.0441,2.4485,2.4485,0,0,1-2.5,2.5l-3.5-2.5V118.7787q-.0158.0926-.0322.1848c-.956,5.3317-3.3739,11.2137-5.0961,16.39l-1,3a2.5,2.5,0,0,1-4.7434-1.5812l1-3c1.65-4.94,3.9747-10.5231,4.904-15.61.8842-4.84-.0323-10.6442-.0323-15.5995a2.5,2.5,0,1,1,5,0c0,1.09.0385,2.2143.091,3.3581a2.2941,2.2941,0,0,1,2.409-1.8581,2.4485,2.4485,0,0,1,2.5,2.5v21.9559Z" fill="#a13f2e"/></svg>