<svg id="731eedd7-651f-467d-b1ee-6389102bd67a" data-name="Layer 1" xmlns="http://www.w3.org/2000/svg" viewBox="0 0 290 357.9"><title>baby</title><path d="M195.2258,125.9093a6.0516,6.0516,0,0,0,1.3334,1.4883l.0411-.0961,1.9918.8536a1.25,1.25,0,0,1-.4659,2.41h-1.4416a13.6681,13.6681,0,0,1-2.3054-.0334,3.81,3.81,0,0,1-1.28-.56c.19,1.4043.1977,4.1857.2176,4.43.2123,2.5958,1.9215,5.4594,1.7281,8.0528q-.0045.0618-.0109.1232h.017v2.0183a1.25,1.25,0,0,1-2.38.5348l-.5489-1.0978c-1.2306-2.0828-1.543-4.35-2.1221-6.57a1.2519,1.2519,0,0,1-.9954-.2354l-1.1432-.8574a52.1288,52.1288,0,0,1-5.3006-4.4185c-.3968-.3954-.9477-.8177-1.3446-1.2794-.0006.4465-.0049,1.0382-.0082,1.54a37.4338,37.4338,0,0,1,1.1938,3.8356,2.3451,2.3451,0,0,1,.2015.9492q.0147.0795.0286.1591l.2806,1.403a1.25,1.25,0,1,1-2.451.4928l-.2837-1.4188.0074-.0015-.0112-.0183q-.043-.273-.0969-.5463c-1.1033-.9814-1.5422-3.1613-1.5616-5.0555-.4382-1.1967-.877-2.39-1.2146-3.5749-1.1421-6.81-2.4289-13.8038-3.7561-20.509-.9775-4.9385-.94-10.7882-4.7813-14.5729a36.2046,36.2046,0,0,0-7.4777-3.84c-2.64-1.174-4.9889-2.81-7.9723-3.0679-4.8423-.4186-9.7654.2832-14.581.2944a44.8172,44.8172,0,0,0-7.2091.2549c-1.1549.2023-2.8227,1.9806-3.7417,2.4846-5.7168,3.1348-8.9859,9.5029-10.03,15.891a45.8213,45.8213,0,0,0-1.3338,14.0222,1.25,1.25,0,0,1,.0913.1606l.5645,1.1291-.043.0215a2.84,2.84,0,0,1,.1415.25c.4548.91.0335,3.5583.0335,4.612,0,1.19-.0009,2.3442.0258,3.4835.6932,2.267,2.1857,4.57,1.704,6.91q-.0194.0941-.0435.1865l.0266.0045-.285,1.71a1.25,1.25,0,0,1-2.3807.3185l-.5991-1.2823.0456-.0212-.0965-.1053a37.7613,37.7613,0,0,1-.8445-7.0949l-.0065-.0244q-.0575-.2137-.1-.4249a32.64,32.64,0,0,0-.0461,6.3208,23.1674,23.1674,0,0,1,.2576,4.435h.3239v1.4416a1.25,1.25,0,0,1-2.38.5348l-.5645-1.1291.071-.0355-.1417-.1369q-.015-.0861-.0332-.1739c-.3845,1.8791-.877,3.9374-1.5681,4.1492-.947.29-1.7966-.8978-2.52-1.5744-1.7418-1.6289-1.5071-4.8638-1.7021-7.0091-.0082-.09-.08-1.0016-.1125-1.8693-.02.055-.0385.1066-.0543.1536-.41,1.2187-.55,1.9854-.7973,2.7568v.2014l.2641.0528-.2838,1.4189a1.25,1.25,0,0,1-2.48-.2225V119.5126q0-2.067-.0011-4.1339c-.43,1.2653-.9266,2.4613-1.0455,2.9942a77.2858,77.2858,0,0,0-1.937,9.2321c-.05.5274-.0759,1.0508-.0844,1.5706l.0565.1409c.6912,1.7114.342,4.3563.2429,6.6529.0059.4394.0011.8778-.0194,1.3155a9.1146,9.1146,0,0,0,.07.9683h.3169v1.73a1.25,1.25,0,0,1-2.48.2225l-.2837-1.4189.0144-.0029-.0208-.0312c-.0968-.6838-.163-1.3575-.2083-2.0282-.4992-1.8734-.1786-4.5556-.11-6.2314a6.8256,6.8256,0,0,0-.82.3587c-.5175.397-.2924,1.325-.7056,1.8267q-.0044.2543-.0047.5083l-.0755.1105.0573.0114-.2837,1.4189a1.25,1.25,0,0,1-2.4647-.4205l.2843-1.99a104.81,104.81,0,0,1,1.2764-11.3148,1.3659,1.3659,0,0,1-.0027-1.1839l.29-.5794c.014-.0306.0294-.0617.0465-.093l.2548-.5091c2.02-3.4445,1.8642-8.0542,3.7335-11.7928.7735-1.51,2.3983-5.0586,2.1885-6.7514-.0642-.5177-.6462-.9332-.5855-1.4514.0663-.5654.7436-.8963.9241-1.4363.42-1.2578.2816-3.3492.5329-4.7314a71.668,71.668,0,0,1,2.3379-7.9155c1.1871-3.94,1.8153-5.7819,5.958-7.4488,4.1478-1.3782,8.3013-3.5077,12.4908-4.6431,4.3086-1.1678,9.7555-.69,14.6067-.4455l.7086-.1417c.6209-.2063,1.27-.3882,1.9419-.5458a18.6653,18.6653,0,0,1,5.7335-1.502c4.2953-.401,8.8483.68,12.8935,1.7806,3.6572.9951,6.6241,1.4769,9.8638,3.6326,3.6629,2.7664,6.5283,5.2975,8.9984,9.3135,3.8578,6.272,5.7133,13.2563,11.8575,17.8644a21.7234,21.7234,0,0,0,5.8936,4.3566l1.2944.2589a1.25,1.25,0,0,1-.2224,2.48H194.519c-.2383.0924-1.5233.628-2.4729.9146.3381.1541.6863.3608.9261.4938,1.7151.9511,3.2991,2.1809,5.3542,2.4507,1.05.1379,4.4482-.4375,5.1783.85.53.935-.1672,2.1609-.4837,3.1881-.8674,2.8155-5.2651,6.2366-7.6047,7.9988l.08.1356a1.5445,1.5445,0,0,1-.27.36Z" fill="#845d27"/><path d="M110.1893,119.7042a1.2242,1.2242,0,0,1,1.25,1.25V142.29a1.25,1.25,0,0,1-2.5,0V120.9542A1.2242,1.2242,0,0,1,110.1893,119.7042Z" fill="#62441c"/><path d="M105.8469,105.7086a1.2242,1.2242,0,0,1,.559,1.677l-.5123,1c-1.0462,5.4714-.7973,11.037-.7973,16.605a1.25,1.25,0,0,1-2.5,0c0-5.8491-.2553-11.6787.9326-17.4164l.6409-1.3066A1.2243,1.2243,0,0,1,105.8469,105.7086Z" fill="#62441c"/><path d="M97.215,114.2262a1.2242,1.2242,0,0,1,1.25,1.25v9.5144a1.25,1.25,0,0,1-2.5,0v-9.5144A1.2242,1.2242,0,0,1,97.215,114.2262Z" fill="#62441c"/><path d="M115.6673,106.4416a1.2242,1.2242,0,0,1,1.25,1.25l-.132,1.7123c-1.1433,2.2315-.733,4.7764-.733,7.2255v10.9561a1.25,1.25,0,0,1-2.5,0c0-5.6183-1.5393-14.1293.997-19.3l-.132-.5942a1.2242,1.2242,0,0,1,1.25-1.25Z" fill="#62441c"/><path d="M108.7477,93.7556a1.2242,1.2242,0,0,1,1.25,1.25V113.17a1.25,1.25,0,0,1-2.5,0V95.0056a1.2242,1.2242,0,0,1,1.25-1.25Z" fill="#62441c"/><path d="M103.558,88.2776a1.2242,1.2242,0,0,1,1.25,1.25l-.0126.7534a58.9521,58.9521,0,0,0-.2758,8.4727,1.25,1.25,0,1,1-2.5,0,62.6561,62.6561,0,0,1,.3009-8.8263l-.0125-.4A1.2242,1.2242,0,0,1,103.558,88.2776Z" fill="#62441c"/><path d="M119.9077,90.2444a1.18,1.18,0,0,1,1.2376-1.1019,1.2242,1.2242,0,0,1,1.25,1.25l-.25,1.0383c-2.4187,3.2113-6.4511,6.2752-6.3813,10.4944a1.25,1.25,0,0,1-2.5,0C113.3278,96.982,117.06,93.9486,119.9077,90.2444Z" fill="#62441c"/><path d="M116.5146,77.7418a1.2242,1.2242,0,0,1,.5591,1.677l-.5313,1.0513c-.4294,1.4661-1.1788,2.82-1.7046,4.2543-.6632,1.8091-.227,4.3648-.227,6.2447a1.25,1.25,0,0,1-2.5,0c0-2.2075-.3832-4.8916.35-7.0178.514-1.4915,1.3117-2.8813,1.7552-4.3953l.6221-1.2552a1.2242,1.2242,0,0,1,1.677-.559Z" fill="#62441c"/><path d="M108.171,80.493a1.2242,1.2242,0,0,1,1.25,1.25l-.1319.8473c-.75,1.3832-.4447,2.8031-.4447,4.3424a1.25,1.25,0,0,1-2.5,0c0-1.9974-.1608-3.6254.7086-5.46l-.132.2707a1.2242,1.2242,0,0,1,1.25-1.25Z" fill="#62441c"/><path d="M135.2377,71.67a1.2242,1.2242,0,0,1-.5591,1.677l-1.1532.5767c-4.4483,2.2241-13.5207,6.8658-13.4366,12.4329a1.25,1.25,0,0,1-2.5,0c.0789-6.8761,9.2659-11.8927,14.8185-14.669l1.1533-.5767A1.2243,1.2243,0,0,1,135.2377,71.67Z" fill="#62441c"/><path d="M141.4243,82.32a1.2242,1.2242,0,0,1-1.25,1.25l.0111-.0364c-4.8926,1.2068-9.8672,2.6987-14.8793,3.2017a1.25,1.25,0,0,1-.2487-2.4876c4.8906-.4872,9.7548-1.9631,14.5291-3.1413l.5878-.0364a1.2242,1.2242,0,0,1,1.25,1.25Z" fill="#62441c"/><path d="M142.5776,76.2649a1.2242,1.2242,0,0,1-1.25,1.25l-.1814-.0641a57.679,57.679,0,0,1-8.551,2.642,1.25,1.25,0,0,1-.411-2.466,52.55,52.55,0,0,0,8.1715-2.5477l.9719-.0642a1.2242,1.2242,0,0,1,1.25,1.25Z" fill="#62441c"/><path d="M166.7589,83.7761a1.2242,1.2242,0,0,1-1.5158.9095l-1.0953-.2753c-6.1085-1.2217-12.271-.8407-18.4955-.8407a1.25,1.25,0,0,1,0-2.5c6.3937,0,12.7085-.3662,18.9858.8892l1.2113.3014A1.2243,1.2243,0,0,1,166.7589,83.7761Z" fill="#62441c"/><path d="M166.1229,78.38a1.2061,1.2061,0,0,1-.8375-.2842c-6.6534.0641-13.2514.8608-19.9214.8608a1.25,1.25,0,0,1,0-2.5c6.95,0,13.8205-.8649,20.7589-.8649l1.25,1.5383A1.2242,1.2242,0,0,1,166.1229,78.38Z" fill="#62441c"/><path d="M156.6809,71.695a1.2243,1.2243,0,0,1-.9806,1.4709l-1.3306.2608a15.1427,15.1427,0,0,1-6.1225.9168,1.56,1.56,0,0,1-.5842-.1368,1.25,1.25,0,1,1,0-2.2265,1.5612,1.5612,0,0,1,.5842-.1367,13.01,13.01,0,0,0,5.41-.8132l1.5526-.3158A1.2242,1.2242,0,0,1,156.6809,71.695Z" fill="#62441c"/><path d="M179.0972,110.96a1.2242,1.2242,0,0,1-1.25-1.25v-1.7239a56.2752,56.2752,0,0,0-1.6947-12.9741c-.2058-.8233.0291-1.7907-.4194-2.5112-1.7506-2.8125-7.1744-2.588-9.8985-2.588a1.25,1.25,0,0,1,0-2.5c3.7,0,9.7008.0623,12.0135,3.755a31.2,31.2,0,0,1,.734,3.2552,59.2792,59.2792,0,0,1,1.7651,13.551v1.736a1.2242,1.2242,0,0,1-1.25,1.25Z" fill="#62441c"/><path d="M178.6275,124.4466a1.2242,1.2242,0,0,1-1.5811-.7906l-.3355-1.0547c-.5362-3.29-2.295-6.257-2.6076-9.6169-.3363-3.6158-.0043-7.4273-.0043-11.0592a1.25,1.25,0,0,1,2.5,0c0,3.5668-.3181,7.3011-.0042,10.853.2881,3.2609,2.0375,6.2063,2.5821,9.4121l.2412.6751A1.2243,1.2243,0,0,1,178.6275,124.4466Z" fill="#62441c"/><path d="M181.98,123.3575a1.2242,1.2242,0,0,1-1.25-1.25V118.071a1.25,1.25,0,0,1,2.5,0v4.0365A1.2242,1.2242,0,0,1,181.98,123.3575Z" fill="#62441c"/><path d="M192.9188,139.9479a1.2243,1.2243,0,0,1-1.6771-.559l-.3561-.74c-1.0426-3.1487-.9291-6.0508-.9291-9.3331a1.25,1.25,0,0,1,2.5,0c0,3.0028-.1625,5.6738.8008,8.5426l.2205.4129a1.2242,1.2242,0,0,1-.559,1.677Z" fill="#62441c"/><path d="M186.8818,132.007a1.2242,1.2242,0,0,1-1.25-1.25v-5.7664a1.25,1.25,0,1,1,2.5,0v5.7664A1.2242,1.2242,0,0,1,186.8818,132.007Z" fill="#62441c"/><path d="M184.5752,117.0145a1.2242,1.2242,0,0,1-1.25-1.25v-13.551a1.25,1.25,0,0,1,2.5,0v13.551A1.2242,1.2242,0,0,1,184.5752,117.0145Z" fill="#62441c"/><path d="M189.7649,120.186a1.2242,1.2242,0,0,1-1.25-1.25v-4.6131a1.25,1.25,0,0,1,2.5,0v4.6131A1.2242,1.2242,0,0,1,189.7649,120.186Z" fill="#62441c"/><path d="M193.8014,130.8537a1.2242,1.2242,0,0,1-1.25-1.25V118.3593a1.25,1.25,0,0,1,2.5,0v11.2444A1.2242,1.2242,0,0,1,193.8014,130.8537Z" fill="#62441c"/><path d="M198.9911,120.186a1.2242,1.2242,0,0,1-1.25-1.25v-1.73a1.25,1.25,0,0,1,2.5,0v1.73A1.2242,1.2242,0,0,1,198.9911,120.186Z" fill="#62441c"/><path d="M172.7366,84.0143a1.2243,1.2243,0,0,1-1.6771-.559l-.17-.3857-.865-1.1533a1.25,1.25,0,0,1,2-1.5l.865,1.1533.4063.7676A1.2243,1.2243,0,0,1,172.7366,84.0143Z" fill="#62441c"/></svg>