<svg id="25eaa7c5-e9be-47dd-9d5c-bfbcaea8ed2a" data-name="Layer 1" xmlns="http://www.w3.org/2000/svg" viewBox="0 0 290 357.9"><title>baby</title><path d="M142.7657,92.6878a2.5392,2.5392,0,0,1-.9877-1.1311c-2.9166,1.1628-4.8416,3.89-6.5455,6.4377a45.1963,45.1963,0,0,0-7.5734,19.7684c-.3507,3.1585-.0067,6.6564-.0067,9.8448v3a2.5,2.5,0,0,1-4.89.7359l-.7774-2.3321c-1.3782-1.5387-2.755-3.0638-4.0952-4.6188-.0713,2.2887-.245,4.5924-.2687,6.7155l.8845,2.6536a2.5007,2.5007,0,0,1-3.7685,2.9071l-2.9715-1.981.0231-.0348q-.1111-.0546-.2213-.112a8.5217,8.5217,0,0,1-2.9151-2.589v1.6556a2.5,2.5,0,0,1-4.89.7359l-.9818-2.9453.1609-.0536-.2569-.3365c-.0025-.265,0-.5362.0055-.8124a19.5453,19.5453,0,0,1-1.9381-4.8891c-.9711-3.3352-1.8875-6.6041-2.9714-9.9084-1.1414-3.48-1.1283-6.1666-1.1283-9.7906,0-13.156,4.7974-24.5215,15.9151-31.9333,2.0161-2.0162,4.8289-4.7979,7.2706-6.1933,2.323-1.3275,5.2652-.9627,7.9139-1.3411,1.0435-.149,1.9593-.8321,3-1,2.3036-.3715,4.6913.3386,7,0,1.0429-.1529,1.9593-.8321,3-1a37.7059,37.7059,0,0,1,9.8009,0c2.08.3456,3.9186,1.6646,6,2,3.21.5172,7.2878.3148,10.117,2.481.9543.7306,1.0615,2.2492,2,3,.8232.6585,2.182.3351,3,1,1.7411,1.415,2.6564,3.64,4.25,5.219,2.4171,2.417,4.89,4.5511,6.478,7.6694.4417.8673.3788,1.95.8809,2.784.4863.8077,1.5362,1.1791,2,2,1.1547,2.044.9551,4.5982,1.3411,6.9139.1732,1.04.8321,1.9593,1,3,.7041,4.3659-.3059,8.6363-1,12.8009-.6994,4.1962-.7629,8.2665-2.096,12.39l-.9818,2.9453a2.5009,2.5009,0,0,1-4.4916.6186l-1.9785-2.9677.0884-.0589q-.2142-.2912-.401-.6034a1.82,1.82,0,0,1-.2308-.946,2.501,2.501,0,0,1-4.7664-.0426l-.9818-2.9453.0694-.0231q-.087-.1812-.1654-.367c-.4131-.9814.0865-2.1352-.0238-3.1942-.3094-2.9708-.6078-5.9433-.99-8.9056a73.7562,73.7562,0,0,0-.9716-7.82c-1.5328-6.3862-8.82-17.6855-16.8221-15.0877l-.0207.0069a6.4269,6.4269,0,0,1,1.253.2907c.9742.3634,1.3489,1.6614,2.275,2.1342a13.8481,13.8481,0,0,0,3.3746.75,2.5,2.5,0,1,1-1.2127,4.8507,25.142,25.142,0,0,1-4.6254-1.25c-.76-.3731-.951-1.5217-1.725-1.8658-.625-.278-1.36.1645-2.0433.19-.7611.0287-1.5261-.0182-2.2906-.0646l-.6292.9513a2.4486,2.4486,0,0,1-3.4669.6934Z" fill="#010101"/><path d="M130.73,79.6318a2.4486,2.4486,0,0,1,1.5812,3.1623l-.3958,1.1873c-1.9745,5.8921-4.835,11.7609-5.4248,18.0574-.5984,6.3889.0122,13.13.0122,19.5426a2.5,2.5,0,0,1-5,0c0-4.3687-.2742-8.8915-.2721-13.3564a11.7494,11.7494,0,0,0-.2688,2.67,2.4485,2.4485,0,0,1-2.5,2.5,2.3318,2.3318,0,0,1-1.8536-.7488v17.2462a2.5,2.5,0,0,1-5,0V85.5655a2.5,2.5,0,0,1,5,0v20.973c1.16-4.424,3.6005-8.7878,5.0228-13.0564l1.6991-.2178c1.1639-3.6684,2.6446-7.2513,3.8418-10.864l.3958-1.1873a2.4486,2.4486,0,0,1,3.1623-1.5812Z" fill="#242424"/><path d="M108.5677,96.1262a2.4485,2.4485,0,0,1,2.5,2.5V128.31a2.5,2.5,0,0,1-5,0V98.6262A2.4485,2.4485,0,0,1,108.5677,96.1262Z" fill="#242424"/><path d="M103.4226,91.7727a2.4485,2.4485,0,0,1,2.5,2.5V115.249a2.5,2.5,0,0,1-5,0V94.2727A2.4485,2.4485,0,0,1,103.4226,91.7727Z" fill="#242424"/><path d="M121.4432,69.6837a2.4484,2.4484,0,0,1,1.819,3.0317l-.7356,2.8653c.029,5.0433.0187,10.0866.0187,15.13a2.5,2.5,0,0,1-5,0c0-5.247-.0067-10.4939.0187-15.7409l.8475-3.4671a2.4485,2.4485,0,0,1,3.0317-1.819Z" fill="#242424"/><path d="M113.29,76.484a2.4484,2.4484,0,0,1-.39,3.5139l-1.6732,1.2931c-1.8668,2.8371-1.3463,4.4518-1.3463,7.8365a2.5,2.5,0,0,1-5,0c0-.73-.0265-6.6439.0969-7.0216.5013-1.5346,1.6764-2.76,2.5146-4.1392l2.2845-1.8731a2.4485,2.4485,0,0,1,3.514.39Z" fill="#242424"/><path d="M145.292,72.088a2.4485,2.4485,0,0,1,.5,3.5l-1.08,1.4284c-2.3136,3.6234-4.4959,7.31-6.6838,11.0095-2.7059,4.5758-5.2279,7.971-5.1925,13.3708a2.5,2.5,0,1,1-5,0c.0535-9.925,7.4822-18.9572,12.6619-27.0709l1.2945-1.7378A2.4485,2.4485,0,0,1,145.292,72.088Z" fill="#242424"/><path d="M137.2484,71.5286a2.4485,2.4485,0,0,1,0,3.5356l-.4551-.5805v3.562a2.5,2.5,0,1,1-5,0v-3.562l1.92-2.9551a2.4486,2.4486,0,0,1,3.5356,0Z" fill="#242424"/><path d="M127.1693,69.6091a2.4485,2.4485,0,0,1,2.5,2.5v2.77a2.5,2.5,0,0,1-5,0v-2.77A2.4485,2.4485,0,0,1,127.1693,69.6091Z" fill="#242424"/><path d="M168.9107,75.8557a2.4484,2.4484,0,0,1-3.5355,0l.254.0725-2.3747-1.1873a2.8768,2.8768,0,0,1-1.3373-1.5285,2.0831,2.0831,0,0,1-.71.8831,2.452,2.452,0,0,1-1.447,3.1052l-1.892.7549c-2.72,1.1989-6.6617,1.5878-9.0522,3.3056-1.1845.8511-1.6988,2.3732-2.48,3.6047-.7828,1.2338-2.0194,2.1962-2.5744,3.5479-.4236,1.032-.1681,2.2248-.2521,3.3372a2.5,2.5,0,0,1-4.9752-.4976c.582-4.94,3.0968-10.9281,7.3583-14.0485a19.8231,19.8231,0,0,1,6.3759-2.5959h-3.331a2.5,2.5,0,0,1,0-5h10.686a2.4914,2.4914,0,0,1,2.4487,1.914q.03-.0675.0646-.1362a2.4484,2.4484,0,0,1,3.3541-1.118l2.3746,1.1873,1.0455.8641a2.4484,2.4484,0,0,1,0,3.5355Z" fill="#242424"/><path d="M183.0434,123.8175a2.4485,2.4485,0,0,1-1.118-3.3541l.6559-1.2557q.1128-.3346.2107-.6735-.1036.0063-.2137.0063h0a2.5047,2.5047,0,0,1-1.5069-.4333c-.15.7362-.2776,1.47-.3659,2.2012l-.6405,1.5995a2.4483,2.4483,0,0,1-3.354,1.118,2.381,2.381,0,0,1-1.2746-1.34,3.38,3.38,0,0,1-.3779.02,2.4485,2.4485,0,0,1-2.5-2.5V106.146a2.4485,2.4485,0,0,1,2.5-2.5,3.2126,3.2126,0,0,1,.5709.0486c-.9636-1.2495-2.0235-2.3951-2.62-3.2408-1.7135-2.4283-3.6027-5.0966-5.2016-7.6042-1.0073-1.58-2.4693-5.4779-4.3918-6.1617-1.8136-.645-3.8466.19-5.7715.19a2.5,2.5,0,0,1,0-5c.8868,0,7.07-.0547,7.685.19,3.1259,1.2453,5.0414,5.49,6.69,8.0864,1.5486,2.4386,3.3234,4.7707,5.0647,7.1126q-.102-1.0116-.1656-2.026c-.3215-5.1414,1.2307-11.562-5.6-13.18-1.7394-.4119-3.5747.0669-5.3623.0669a2.5,2.5,0,0,1,0-5c.8027,0,6.1885-.0165,6.5111.0668a14.283,14.283,0,0,1,3.96,1.924c7.7741,4.9248,4.7957,14.1015,6.23,21.7939.6563,3.5207,1.9209,6.5635,2.3072,10.0384a2.7939,2.7939,0,0,0,.2813-.78c.1425-.7965-.9286-3.5213-1.0972-4.0784a22.3634,22.3634,0,0,1-.9032-6.28,2.5,2.5,0,0,1,5,0c-.0376,3.7691,2.4063,7.269,1.9573,11.0138-.1326,1.1056-.9691,2.02-1.2528,3.0966-.5991,2.2739-.8876,4.6318-1.6244,6.8649l-.9272,1.9106a2.4484,2.4484,0,0,1-3.3541,1.118Zm-5.3258-15.825a3.9354,3.9354,0,0,0-.159-.9243V110.85A15.9654,15.9654,0,0,0,177.7176,107.9925Z" fill="#242424"/></svg>