<svg id="162a21f5-2da5-4eea-b4a0-01dfa430c8e1" data-name="Layer 1" xmlns="http://www.w3.org/2000/svg" viewBox="0 0 290 357.9"><title>baby</title><path d="M178.91,132.7231c0-5.4133.6262-11.3114.0187-16.6945-.1542-1.3657-.8389-2.6351-1-4-.0838-.71.6553-1.52.2771-2.1258-.4742-.76-1.6763-.6931-2.3808-1.2463a10.7857,10.7857,0,0,1-2.5417-2.6191c-.5621-.8917-.462-2.0935-1-3-.9909-1.67-2.5817-2.9194-3.6411-4.5465l-2.619-1.6877a2.7407,2.7407,0,0,1-1.17-2.0339,8.4824,8.4824,0,0,0-1.8437-.5785c-1.0946-.174-2.2721.274-3.324-.075-1.2652-.42-2.1807-1.5527-3.3739-2.1469a17.57,17.57,0,0,0-5.3021-1.7781c-1.4274-.2015-2.9371.318-4.324-.075-1.1564-.3276-1.8688-1.5941-3-2-3.043-1.0917-7.3652.94-10.1772,1.8531-3.3054,2.1849-6.6021,2.2737-10,4-1.0715.5444-1.9136,1.486-3,2-.72.34-1.7486-.0212-2.3306.522-.5023.4688-.2121,1.3608-.396,2.0228-.5646,2.0312-1.3334,4-2,6-.6245,1.8734-1.6,3.6586-1.904,5.61-.5627,3.6158,1.4167,5.7984,2,9.199.169.9857-.1591,2.0128,0,3,.3354,2.0814,1.6544,3.92,2,6,.0417.2514.0323,5.9271.0323,6.4a2.7818,2.7818,0,0,1-.9547,2.0383,2.7742,2.7742,0,0,1-.3093,1.08,2.4485,2.4485,0,0,1-3.3541,1.1181c-1.59-.866-3.51-1.2985-4.7706-2.5981a47.11,47.11,0,0,1-1.7928-4.743,20.75,20.75,0,0,1-.8185,3.4079v2.6971a2.5,2.5,0,0,1-4.6017,1.3545l-1.8679-2.8019a9.8569,9.8569,0,0,1-2.34-2.5959c-.53-1.5662-.1587-3.3035-.19-4.9567q-.0117-.6067-.0263-1.2036l-.3721.5581a2.5009,2.5009,0,0,1-4.4916-.6186l-.9817-2.9453.0539-.018q-.0793-.1839-.15-.3721c-.0418-.1118-.0323-6.05-.0323-6.4,0-4.7682.1469-9.8227,2.3245-14.2318.3751-.7594,1.6043-.9193,1.8658-1.7249.3878-1.1949-.4567-2.5684-.083-3.7678.6971-2.2378,3.0668-3.5759,4.266-5.59.4981-.8363.4392-1.9167.8809-2.7841,1.0466-2.0552,2.9156-3.5772,4.2753-5.44,2.2921-3.14,3.4406-7.4215,6.2027-10.2293a24.13,24.13,0,0,1,9.3673-5.7,38.2833,38.2833,0,0,0,6-1c3.2939-.5313,7.0594-.0323,10.4005-.0323,3.6831,0,7.5956-.4423,11.2463.0122a38.2535,38.2535,0,0,1,8.8478,2.24c3.1711,1.577,4.8858,4.4743,8.0042,6.002,1.0193.4993,2.2436.5337,3.216,1.1192,2.1909,1.319,3.9743,3.2587,6.1989,4.52,5.7288,3.2487,10.1421,6.07,13.7964,11.65a31.44,31.44,0,0,0,.9855,4.9147c.46,1.2291,1.7091,2.0773,2.1012,3.33.1884.6015.06,8.2255.0714,8.3118.1331,1.0456.8276,1.96,1,3,.7646,4.613,1.25,9.4146,2,14,.5477,3.3485,2.5082,6.6362,3,10,.3934,2.6908.354,5.4567,1.0135,8.095l-.07.3054h.0892v4a2.5,2.5,0,0,1-4.2678,1.7678l-2-2,.06-.06q-.2179-.186-.4187-.3936c-.7127-.7412-2.0583-6.8617-2.2736-7.6154-.7287-2.55-1.268-5.1856-2.07-7.6988-.013.625-.0292,1.2865-.0292,2v3a2.5,2.5,0,0,1-4.2678,1.7677l-2-2-1.4683-2.65a2.9829,2.9829,0,0,1-.2291-1.7535,2.5809,2.5809,0,0,1-.0348-.3645Zm9.58-8.3867q.2534.3876.4871.7805a4.5694,4.5694,0,0,0-.0357-.998c-.08-.4864-.1843-.9681-.3027-1.447-.1162.4641-.2271.9294-.3259,1.3987Zm-86.5647,2.748c.0011.5331-.0022,1.0782-.0154,1.6387-.0241,1.0161-.5042,2.0766-.19,3.0433a.6661.6661,0,0,0,.0826.1679,6.16,6.16,0,0,0,.14-.6116,26.9662,26.9662,0,0,0-.0168-4.2383Z" fill="#6e71b5"/><path d="M97.41,110.2231a2.4485,2.4485,0,0,1,2.5,2.5v4a2.4485,2.4485,0,0,1,2.5-2.5,2.509,2.509,0,0,1,1.5.4284v-.9284l1.2639-3.118a2.5,2.5,0,1,1,4.4721,2.2361l-.7361.8819v15a2.4485,2.4485,0,0,1-2.5,2.5,2.5088,2.5088,0,0,1-1.5-.4283v2.9283a2.5,2.5,0,0,1-5,0v-14a2.5,2.5,0,0,1-5,0v-7a2.4485,2.4485,0,0,1,2.5-2.5Zm2.5,8.5v0Z" fill="#5b5ca9"/><path d="M109.91,123.7231a2.5,2.5,0,1,1,4.3964,1.629,2.551,2.551,0,0,1,1.6036,2.371v3a2.5,2.5,0,0,1-5,0v-3a2.9817,2.9817,0,0,1,.5818-1.674A2.5008,2.5008,0,0,1,109.91,123.7231Z" fill="#5b5ca9"/><path d="M103.91,102.7231a2.2665,2.2665,0,0,1-1.6479,2.3491l-.48,1.4415a2.5,2.5,0,0,1-4.7435-1.5812l1-3,3.3717-1.7094a2.4485,2.4485,0,0,1,2.5,2.5Z" fill="#5b5ca9"/><path d="M110.41,81.2231a2.4485,2.4485,0,0,1,2.5,2.5v12a2.5,2.5,0,1,1-5,0v-12A2.4485,2.4485,0,0,1,110.41,81.2231Z" fill="#5b5ca9"/><path d="M104.91,105.7231a2.5,2.5,0,1,1,2.5,2.5A2.5,2.5,0,0,1,104.91,105.7231Z" fill="#5b5ca9"/><path d="M141.117,72.8964a2.4484,2.4484,0,0,1,.12,3.5335l-1.9092,2.0428c-6.2367,7.1268-11.607,15.9627-19.5307,21.3305a2.5,2.5,0,1,1-2.7735-4.16,29.2726,29.2726,0,0,0,5.6344-5.4769c2.1507-2.4468,4.7665-4.4731,6.8066-7.0128,2.1122-2.6294,3.9369-5.49,6.153-8.0324l1.9661-2.1046a2.4485,2.4485,0,0,1,3.5335-.12Z" fill="#5b5ca9"/><path d="M131.6462,68.6051a2.4485,2.4485,0,0,1-1.118,3.3541l-1.35.5317c-3.5419,3.5419-7.5248,6.4919-11,10a2.5,2.5,0,1,1-3.5355-3.5355c3.5252-3.4975,7.4469-6.447,11-10l2.65-1.4683A2.4484,2.4484,0,0,1,131.6462,68.6051Z" fill="#5b5ca9"/><path d="M121.91,82.7231a2.5,2.5,0,1,1,2.5,2.5A2.5,2.5,0,0,1,121.91,82.7231Z" fill="#5b5ca9"/><path d="M160.91,80.7231a2.4485,2.4485,0,0,1-2.5,2.5h-12a2.5,2.5,0,0,1,0-5h12A2.4485,2.4485,0,0,1,160.91,80.7231Z" fill="#5b5ca9"/><path d="M186.2007,107.0948a2.4485,2.4485,0,0,1-3.1623-1.5811l-1-3c-1.4789-4.5552-4.1608-8.0951-7.13-11.6852a2.45,2.45,0,0,1-2.4985,2.3946l-2.7905-.1283c-1.8734-.6244-3.6544-1.6294-5.61-1.904-3.9148-.5495-8.0714.548-12,0-1.044-.1456-1.9544-.8668-3-1a34.5735,34.5735,0,0,0-4.6.0323,2.5,2.5,0,0,1,0-5,46.584,46.584,0,0,1,5.4.0323c1.0462.1286,1.9571.8471,3,1,3.9076.573,8.0775-.5681,12,0,.2339.0339,5.955,1.951,6.39,2.096l1.2095-.1283a3.0923,3.0923,0,0,1,.8922.1641,4.9194,4.9194,0,0,0-.66-.8963c-2.0009-2.0845-4.5815-2.3007-7.2323-2.2678a2.5,2.5,0,0,1,0-5c4.1062.039,7.6417.6994,10.7678,3.7322.921.8936,1.3436,2.1975,2.1656,3.1828,3.5589,4.2664,6.6161,8.4409,8.4384,13.7944l1,3A2.4485,2.4485,0,0,1,186.2007,107.0948Z" fill="#5b5ca9"/><path d="M154.91,70.7231a2.4485,2.4485,0,0,1-2.5,2.5h-7a2.5,2.5,0,0,1,0-5h7A2.4485,2.4485,0,0,1,154.91,70.7231Z" fill="#5b5ca9"/><path d="M185.2007,130.0948a2.4485,2.4485,0,0,1-3.1623-1.5811l-1.096-3.39c0-5.0984-2.2949-9.3712-4.5846-13.8758-2.3391-4.6018-4.0327-8.1166-7.7155-11.7569a2.5,2.5,0,1,1,3.5356-3.5356c4.0216,4.0621,6.0657,7.9589,8.638,13.0286,2.4859,4.8993,5.0619,9.7689,5.0619,15.3387l.904,2.61a2.4485,2.4485,0,0,1-1.5811,3.1623Z" fill="#5b5ca9"/><path d="M195.2007,147.0948a2.4485,2.4485,0,0,1-3.1623-1.5811l-1.0286-3.0916c-1.2586-5.0251-3.35-10.2742-4.0809-15.3935-.4709-3.2966-.0188-6.9711-.0188-10.3055a2.5,2.5,0,1,1,5,0c0,3.1334-.4609,6.6-.0187,9.6945.6936,4.8544,2.7292,9.8381,3.919,14.6065l.9714,2.9084a2.4485,2.4485,0,0,1-1.5811,3.1623Z" fill="#5b5ca9"/></svg>