<svg id="2465ba15-3364-4224-bae3-a668b31084ec" data-name="Layer 1" xmlns="http://www.w3.org/2000/svg" viewBox="0 0 289.9976 357.9312"><title>bangs</title><path d="M102.5125,108.7722s-3.4453,9.2971,5.4816,10.3354,8.3183-11.7507,8.3183-11.7507,4.9041,7.8248,8.8758,0L129.16,99.532s2.38,4.2641,11.633,3.1978,5.9816-4.9667,5.9816-4.9667,3.9888,8.1656,10.623,8.8765,12.7691-2.8933,12.7691-2.8933-5.0049,8.8177,1.7079,13.4162-1.0811,1.1774,2.1275,9.1336,4.4619,7.7118,9.9435,3.802,5.275-6.7532,2.4339-12.0847c0,0,9.7073-11.0184,1.9609-17.7716,0,0-.575-20.615-12.6259-16.35,0,0-2.9113-14.9281-14.6581-11.3738,0,0-7.1683-5.6869-18.6588-3.1989s-10.757,10.663-10.757,10.663-9.1988-5.6869-14.3515-.7109-2.2662,12.0847-2.2662,12.0847-3.9907-3.4218-8.7753,1.8434,1.43,9.53,1.43,9.53-4.638-2.8434-6.5307,0S102.5125,108.7722,102.5125,108.7722Z" fill="#cacbcc"/></svg>