<svg id="18344fc4-f998-4454-85d5-2a59800f5705" data-name="Layer 1" xmlns="http://www.w3.org/2000/svg" viewBox="0 0 290 357.9"><title>baby</title><path d="M105.3627,111.1732a2.4485,2.4485,0,0,1-2.5-2.5c0-6.23,1.1169-13.7713,4.3733-19.3143.4776-.8129,1.515-1.1916,2-2,.5424-.9039.438-2.1083,1-3,1.6664-2.6437,3.2212-2.772,5.5417-4.619,1.1772-.9371,3.0927-3.483,4.2706-4.1933.3353-.2021,5.8809-2.0308,6.5238-2.2451,4.3194-1.44,8.2058-3.0848,12.7906-3.1283,4.5917.0436,8.7646,1.45,13.3054,2.0188,4.7148.59,9.3733.9988,13.793,3.2354,4.35,2.2013,6.8628,6.2531,10.4866,9.3125,1.0627.8971,2.5469,1.3188,3.4018,2.4158,2.7185,3.4887,2.532,9.006,2.4809,13.1171l.904,2.61a3.3577,3.3577,0,0,1,.1283.79v3c0,2.5132.8108,7.7172-.19,9.9567-1.9218,4.2993-5.3755,3.1146-8.5249,4.8731l-1.6831,2.5247a2.5,2.5,0,0,1-4.6017-1.3545v-13.459a23.6557,23.6557,0,0,1-2.7322,3.2268c-.6468.6468-3.8629,2.2721-4.6411,3.5465-.246.4029-.4681.818-.6735,1.2416l.0146.0437-.0432.0157q-.0919.1912-.18.3847h.255v3a2.5,2.5,0,0,1-5,0V117.98c-.6487-1.85-1.8952-3.44-2.7457-5.2083q-.1016-.2111-.1877-.427a11.7216,11.7216,0,0,0-2.0988,4.7291c-.01.077.0929,6.7981,0,7q-.0849.1842-.179.3625l.0829.0277-.9817,2.9453a2.5,2.5,0,0,1-4.89-.7359v-2.4244c-1.8917-2.5617-4.9692-3.4727-6.6266-6.2613a8.3944,8.3944,0,0,1-.9366-2.2263c-.3692,1.0981-.67,1.982-.691,2.01q-.0992.1336-.2027.2636l.0371.0247-1.9785,2.9678a2.5008,2.5008,0,0,1-4.4916-.6187l-.9818-2.9453.12-.04-.2162-.35c-.0135-1.426.1654-2.867.1458-4.2911q-.1249.3012-.2777.59l-.0463.0857.0177.0059-.9818,2.9454a2.5,2.5,0,0,1-4.89-.7359v-3h.1733l-.141-.4a21.6081,21.6081,0,0,0,1.35-7.3635c-.01-.278-.2246.51-.3645.7507a21.8112,21.8112,0,0,1-1.5842,2.5982c-.4966.6309-1.3877.9343-1.7578,1.6468-1.8631,3.5866-.0777,8.3763-.7078,12.1687a11.37,11.37,0,0,1-1.096,3.39l-.9818,2.9454a2.5008,2.5008,0,0,1-4.4915.6186l-1.8794-2.8191c-3.9969-4.1732-4.1364-8.8037-1.1456-13.85.4162-.7023,1.4873-.8954,1.8169-1.6423.2762-.6258-.3019-1.3685-.19-2.0433.078-.4714,1.07-.8944.7322-1.2323s-.7608.6543-1.2322.7323c-.6749.1116-1.4065-.44-2.0433-.19-.5838.229-.7926.972-1.1889,1.458a2.9775,2.9775,0,0,1-.5428.4042,2.2485,2.2485,0,0,1-2.225,1.3281Z" fill="#6e71b5"/><path d="M164.3627,94.1732a2.5092,2.5092,0,0,1-1.5-.4283v6.9283a2.5,2.5,0,0,1-5,0V93.4117a19.4662,19.4662,0,0,0-2.0634,4.821c-.392,1.9343-.3448,3.9687-.9689,5.841l.0323,2.5995a2.7609,2.7609,0,0,1-1,2.0717v5.9283a2.5,2.5,0,0,1-5,0V90.6625a2.74,2.74,0,0,1-.382.2468l-.618-1.2361v20a2.5,2.5,0,0,1-5,0v-7.618c-.3887.9181-.814,1.8292-1.2639,2.7361l-.7361,1.4721v1.41a2.5,2.5,0,0,1-5,0v-1.58a2.6227,2.6227,0,0,1,0-.5708v-.8492a2.6264,2.6264,0,0,1,1.34-2.2687c1.7375-3.4664,3.122-7.0157,2.8606-10.91a2.6525,2.6525,0,0,1-.3136.2588l-2.8017,1.8532a54.7747,54.7747,0,0,0-3.6517,4.6516,4.6991,4.6991,0,0,1-.6617.66c-.0819,3.2329.2284,6.5976.2284,9.7554a2.4485,2.4485,0,0,1-2.5,2.5,2.2741,2.2741,0,0,1-2.0306-.9794,2.5,2.5,0,0,1-2.3948-1.9142c-.4687-1.9093-1.3635-4.4945-1.2414-6.7787a23.5,23.5,0,0,0-2.0874,3.2707c-1.4269,2.8468-1.4928,6.4575-3.1192,9.216-.5083.8621-1.5412,1.3161-2.0985,2.1474a30.3085,30.3085,0,0,0-1.792,3.6563,2.5,2.5,0,0,1-4.4722-2.2361,42.3854,42.3854,0,0,1,2.208-4.3437c.4891-.7375,1.4386-1.0984,1.9015-1.8526,1.5282-2.49,1.5648-6.1468,2.8808-8.784.051-.1022,1.01-1.55,1.9956-3.0327-2.5487,1.0919-4.82,1.6782-6.982,3.8988a2.5,2.5,0,0,1-3.5356-3.5355c2.9734-2.9145,6.0924-3.6989,9.6694-5.478q.25-.1245.4977-.2542h-3.3993a2.5,2.5,0,0,1,0-5h11.5357c.4947-.2828.9963-.5543,1.5076-.81l1.2186-.4088,1.97-2.0493a2.4485,2.4485,0,0,1,3.5356,0,2.364,2.364,0,0,1,.7855,1.7279l.06-.04a2.7937,2.7937,0,0,1,2.1959-.3463c-.4189-1.32-.8986-2.626-1.2345-3.9672a2.5,2.5,0,1,1,4.8507-1.2127c.5021,2.0125,1.3005,3.9544,1.7882,5.9667l1.6684-1.5964a3,3,0,0,1,.6776-.2191,2.5,2.5,0,1,1,4.8963-1.0146,2.4746,2.4746,0,0,1,2.0441,2.47v1.46a26.7033,26.7033,0,0,0,2.0122-6.7066c.2188-1.6147-.2068-5.7821-1.9805-6.6827-1.2095-.6141-2.6813-.413-4.022-.62a2.5,2.5,0,0,1,.9806-4.9029c1.928.4472,4.094.3114,5.7839,1.3417,4.2391,2.5845,4.7429,7.7706,4.0178,12.6218a2.4212,2.4212,0,0,1,2.2055,2.4181,2.5071,2.5071,0,0,1,1.5025-.43,2.4485,2.4485,0,0,1,2.5,2.5v3a2.4485,2.4485,0,0,1-2.5,2.5Zm-36.4677,1.1a3.023,3.023,0,0,1,.09-.3624c-.4345.2769-.8659.5583-1.2963.84a3.1005,3.1005,0,0,1,.1745.9224l-.1942,1.1039c.3486-.3365.719-.6793,1.0766-1.0109Q127.8014,96.0121,127.895,95.2728Z" fill="#5b5ca9"/><path d="M140.8627,76.6732a2.4485,2.4485,0,0,1-2.5,2.5l-.2094-.1283c-3.74,1.2093-6.5291.4212-10.2311,1.0649-2.3963.4167-4.4152,2.0531-6.6922,2.9081-4.3564,1.636-7.6021,2.8041-11.3673,5.6553a2.5,2.5,0,0,1-3-4c4.17-3.1009,7.83-4.5463,12.6326-6.3447,2.477-.9275,4.7066-2.613,7.3079-3.0919,3.7186-.6845,6.201.3008,9.7689-.9351l1.7906-.1283A2.4485,2.4485,0,0,1,140.8627,76.6732Z" fill="#5b5ca9"/><path d="M176.1532,107.0449a2.4485,2.4485,0,0,1-3.1623-1.5811l-1-3q-.0912-.2739-.1825-.5481l.0543.7575a2.5,2.5,0,0,1-5,0l.1283-.2094-1-3a2.4485,2.4485,0,0,1,1.5811-3.1623,2.2551,2.2551,0,0,1,2.66.7045,47.425,47.425,0,0,1-2.37-13.3328,2.5,2.5,0,1,1,5,0c-.0526,5.8651,2.0158,11.6417,3.8717,17.21l1,3a2.4484,2.4484,0,0,1-1.5811,3.1622Z" fill="#5b5ca9"/></svg>