<svg id="bbc39cc5-8259-4be8-a4c3-de6d7eb56bf0" data-name="Layer 1" xmlns="http://www.w3.org/2000/svg" viewBox="0 0 290 357.9"><title>baby</title><path d="M176.8421,100.3026c-.7885,2.3451-8.8168,1.0223-10.8037,1.288-1.8468.247-2.6882,1.3383-3.6255,2.1756q-.2106.5682-.4033,1.1473l-.9817,2.9453a2.5,2.5,0,0,1-4.89-.7359v-3h.216a5.19,5.19,0,0,1-.0257-.9567,14.2175,14.2175,0,0,1,1.733-1.9778c.356-.8872.7341-1.76,1.1134-2.6323a2.8484,2.8484,0,0,1-.5367.0668l.0164-.2276q-.2567-.0158-.5138-.0278c-1.8505,2.73-3.936,5.5319-7.1158,6.8355l-2.9716,1.9811a2.5,2.5,0,0,1-3.4763-3.4764l1.8433-2.7649a19.1329,19.1329,0,0,1,.9045-2.8141,14.0912,14.0912,0,0,0-3,2.8059c-.46.7747-.9385,1.5386-1.4408,2.2867l-.239-.0441c-1.0823,1.5647-2.058,3.1591-3.0068,4.4457l-1.1562-6.1242a.6414.6414,0,0,1-.0895-.4742,5.0333,5.0333,0,0,1,.4662-1.2544,13.205,13.205,0,0,0-4.9061,1.4794,4.7469,4.7469,0,0,0-.9909.76q-.04.1061-.0777.2118a27.5747,27.5747,0,0,1-3,6l-3.6462,4.3693c-.6641-2.064-2.0627-4.025-1.9923-6.1922l.001-.0258c-.4992.6764-1,1.3979-1.5674,2.1942a78.4855,78.4855,0,0,0-5.6553,8.7658c-.2093,3.1869.7979,6.7085.1145,9.79v3a2.5023,2.5023,0,0,1-3.0863,2.4309c.0469.8964.0863,1.7644.0863,2.5691a2.4485,2.4485,0,0,1-2.5,2.5h-.0068a5.8172,5.8172,0,0,1-3.4189,2.9331c-5.3042,1.0583-5.7194-2.3488-6.946-5.6425a59.6123,59.6123,0,0,1-3.0961-10.39c-.48-2.922-.0322-6.4322-.0322-9.4,0-.4733-.01-6.149.0322-6.4005.5125-3.0842,2.5051-5.9286,3-9q.4839-3.0025,1-6c.6157-3.5621-.5236-6.15,1.222-9.6979,1.0268-2.0873,2.8592-3.67,4.3124-5.4866,1.8084-2.26,2.0145-3.9361,4.619-5.5416.3192-.1968,5.8944-2.0353,6.5238-2.2451.4616-.1539,6.1263-2.0522,6.39-2.096,2.9169-.4847,6.4361-.0323,9.4005-.0323,3.9447,0,8.5151-.6133,12.4.0323,5.807.9649,11.5738,3.6506,16.6979,6.2219,1.0145.5091,2.2485.5257,3.216,1.1192,4.0643,2.4933,8.59,8.0017,10.0574,12.336.7409,2.1883,2.74,6.7982.09,8.8187q-.0725.0554-.1475.1016A4.8116,4.8116,0,0,1,176.8421,100.3026Z" fill="#845d27"/><path d="M120.3879,65.3729h5.5076a36.2545,36.2545,0,0,1,3.7247-4.2677l1-1a2.5,2.5,0,0,1,3.5355,3.5355l-1,1c-.5978.5978-1.145,1.1693-1.6493,1.7322h6.2762q1.0948-.8257,2.2186-1.58l.6189-.6877a2.4486,2.4486,0,0,1,3.5356,0,2.2582,2.2582,0,0,1,.7112,2.2678h.521c4.7955,0,9.204-.3545,13.7906,1.1283l1.9772,1.6039a2.8025,2.8025,0,0,1,.7728,2.0634,27.3631,27.3631,0,0,0,3.2272,3.9366l1,1a2.4486,2.4486,0,0,1,0,3.5356,2.3039,2.3039,0,0,1-1.9587.77l.521.3253c2.1368,3.2305,4.7894,5.58,7.4345,8.3523a2.1111,2.1111,0,0,1,.6173.6236,6.9084,6.9084,0,0,1,2.1778,2.4541c.2286.65.19,6.5122.19,7.9567a2.5,2.5,0,1,1-5,0c0-1.94.7123-3.9561.25-5.8263-3.5147,4.3375-8.3214,8.05-8.25,13.8263a2.5,2.5,0,1,1-5,0c.0295-3.1107-.3159-4.3584,1.3733-7.3143.5222-.9137,1.5382-1.4472,2.1933-2.2707,2.0433-2.5682,4.21-5.0294,6.1045-7.7083-1.3513-1.3526-2.5635-2.608-3.706-3.9562l-.04.8559c-1.4065,5.6157-3.2852,11.4981-7.9636,15.4217-.896.7515-2.2858.6069-3.3015,1.1864a34.9537,34.9537,0,0,0-3.66,2.7855,2.5,2.5,0,0,1-3-4c1.3211-.9786,2.5457-2.105,3.9383-2.9742a2.79,2.79,0,0,1-.9383-2.0258c0-1.6429-.0418-3.2486-.0358-4.8349-2.218,2.7063-4.0539,5.5825-3.9642,8.8349a2.5,2.5,0,1,1-5,0c.1435-7.6708,6.0154-11.9987,10.0752-17.8771l-.0752-.1229a2.4485,2.4485,0,0,1,2.5-2.5,3.3189,3.3189,0,0,1,.4622.0311,2.2553,2.2553,0,0,1,2.3055.7011,2.4485,2.4485,0,0,1,0,3.5356l-.5509.4959c-1.1736,3.802-.7168,7.7494-.7168,11.7363,0,0,0,.0268-.0028.0748,2.9271-3.0858,4.1057-7.7867,5.0774-11.6811l-.0747-.3937a2.4485,2.4485,0,0,1,2.4962-2.5l-.0763-.1132L159.52,83.359a2.4485,2.4485,0,0,1-1.118-3.3541h0a2.4485,2.4485,0,0,1,3.3541-1.1181l.2938.1835-.43-.43a36.3794,36.3794,0,0,1-4.3124-5.3811,3.11,3.11,0,0,1-.4372-1.2458c-3.7279-1.08-7.5655-.6409-11.4826-.6409h-5.7287c-2.5091,2.235-4.6613,4.817-6.9347,7.2535a2.4354,2.4354,0,0,1,2.37,1.9555c1.1013-2.1466,2.208-4.307,3.2937-6.55l4.75,2.0907a2.6327,2.6327,0,0,1-1.3207,2.26c-2.71,5.416-5.46,10.4093-7.9119,16.1293-1.1872,2.7691-3.0913,5.2654-3.8343,8.1853-.61,2.3989.0669,4.95.0669,7.4256a2.5,2.5,0,1,1-5,0c0-.666-.02-8.2241.0669-8.5744.79-3.2032,2.8057-5.9735,4.1048-9.0061,1.3673-3.1917,2.8349-6.1739,4.3344-9.1247a3.1964,3.1964,0,0,1-.9533.2036c-3.7512,3.9332-6.7568,8.6541-9.88,13.0291-.5727.8023-1.2136,1.5983-1.8821,2.3924a2.5417,2.5417,0,0,1-.523,2.8479l-.9645.9638a30.77,30.77,0,0,0-4.6818,6.6979c-.1387,2.9732.3786,6.4518.3786,8.57a2.5,2.5,0,1,1-5,0c0-.4557-.0091-.9275-.0236-1.411a8.39,8.39,0,0,0-1.1047,2.2016,2.4485,2.4485,0,0,1-3.1623,1.5811,3.2539,3.2539,0,0,1-.4864-.2052,3.1191,3.1191,0,0,1,.6487,1.0429c.6181,1.8544,1.1289,3.4424,1.8195,4.9968l1.7286-2.593a2.5,2.5,0,0,1,4.16,2.7735l-2,3a2.8164,2.8164,0,0,1-1.836,1.1592l.2559,1.4541a2.4485,2.4485,0,0,1-2.5,2.5h0a2.4485,2.4485,0,0,1-2.5-2.5l.42.3868a37.3179,37.3179,0,0,1-4.2916-9.5962,2.4486,2.4486,0,0,1,1.5812-3.1623,2.3716,2.3716,0,0,1,1.8744.0588,2.67,2.67,0,0,1-.4555-2.4777,23.214,23.214,0,0,1,3.4011-5.7479c.8854-1.2137,1.6373-2.4249,2.347-3.6264.0388-.4234.09-.8362.1558-1.2356.6152-3.724,3.2989-6.1754,5.45-9.0751,3.2058-4.3222,6.3137-8.9778,9.7622-13.2449a2.2591,2.2591,0,0,1-2.0743-1.1427,2.4485,2.4485,0,0,1,.6934-3.4669,26.3323,26.3323,0,0,0,5.4981-5.5579c.8157-.9807,1.6818-1.9371,2.5883-2.862h-4.011a26.39,26.39,0,0,0-1.3169,3.2906,2.4485,2.4485,0,0,1-3.1623,1.5811,3.3169,3.3169,0,0,1-.4061-.1646,2.9011,2.9011,0,0,1-.7856,1.8107l-.396.0228c-3.0912,9.2155-11.0322,15.8591-14,25a2.5883,2.5883,0,0,1-2.1217,1.7394v3.22a2.5,2.5,0,1,1-5,0v-29a2.5,2.5,0,0,1,5,0V82.036a2.4006,2.4006,0,0,0,.361-.4573c.5007-.8436.4549-1.9265.8932-2.8042,1.2039-2.4108,2.8073-4.6081,4.01-7.02l3.2361-1.382a2.4485,2.4485,0,0,1,2.5,2.5,2.3123,2.3123,0,0,1-1.9685,2.4343c-1.0736,1.9-2.3088,3.7126-3.2857,5.6641-.5047,1.0081-.5331,2.2254-1.1069,3.1958-.4685.7922-1.5473,1.1307-1.9431,1.9617-1.2769,2.6807-.8519,3.3437-.0687,5.3179,3.2619-4.8541,6.8964-9.5107,8.7512-15.1144l1.6039-1.9772a2.5036,2.5036,0,0,1,3.02-.4214,3.0753,3.0753,0,0,1,.1263-.8514c.1993-.5944.4054-1.1629.62-1.7094h-4.2481a2.4485,2.4485,0,0,1-2.5-2.5,2.4151,2.4151,0,0,1,2.4264-2.4973,2.76,2.76,0,0,1,2.0736-1.0027Zm-14.5,30.2614q.0684-.12.1376-.24-.07-.0072-.1376-.0185Z" fill="#62441c"/><path d="M151.4057,76.3552a2.4484,2.4484,0,0,1,0,3.5355l-.7678.7322c-4.1908,5.5737-11.5933,9.9813-11.5,17.5a2.5,2.5,0,1,1-5,0c.0884-9.3048,7.3567-13.6235,12.5-20.5l1.2323-1.2678a2.4485,2.4485,0,0,1,3.5355,0Z" fill="#62441c"/></svg>