<svg id="6f282f8b-e1ae-41ff-b3dd-fac137c4d216" data-name="Layer 1" xmlns="http://www.w3.org/2000/svg" viewBox="0 0 290 357.9"><title>baby</title><path d="M99.8773,93.92a10.219,10.219,0,0,1,.9015-1.4243,12.5874,12.5874,0,0,1,2.82-3.6115c.7227-1.199,1.06-2.5261,1.8115-3.7119a20.6375,20.6375,0,0,1,12.24-8.6139c5.2486-2.1177,10.9518-4.7567,16.6872-5.2373A42.18,42.18,0,0,1,151.464,73.66c1.9413.3274,5.4033,1.1163,7.0386,2.2017a2.2975,2.2975,0,0,1,.7353.8413,20.0649,20.0649,0,0,1,5.8167,1.9915,62.4088,62.4088,0,0,1,12.5873,9.65l-.2065.33a13.5592,13.5592,0,0,1,3.0342,3.098,1.2822,1.2822,0,0,1,1.2194.7058h0c4.17,8.5015,4.3809,18.9344,6.18,28.1144.0194,4.9839.1262,9.9807-.2865,14.93-.0822.9869.3269,3.6171-.9386,4.1675-1.28.5566-2.2577-.1168-3.0667-1.0452-.6419.844-1.4489,1.7142-2.0347,2.4065a1.5131,1.5131,0,0,1-.3765.73l-.1577-.0529a2.3136,2.3136,0,0,0-.1848.3047l-.1563-.2215V145.8a46.9433,46.9433,0,0,1-.1427,6.0487q.0652.54.1395,1.0706l-.3374.0758-.0028.0128h.3434v1.4416a1.25,1.25,0,0,1-2.5,0v-1.3745c-.0769-.5217-.2316-1.21-.41-1.99q-.0348.0019-.07.0019a1.2446,1.2446,0,0,1-.76-.2576l-1.1431-.8573.06-.08-.2695-.1192c-1.5793-2.9979-3.1619-5.0512-3.1735-8.5855,0-10.8934,3.7984-21.095,3.7481-32.0033a40.674,40.674,0,0,0-.5432-7.4974c-.36-1.8643-2.3728-2.1968-3.7206-2.9456-2.2844-1.2691-4.4106-3.1523-6.9517-3.928-2.6957-.8228-5.7494.0448-8.4786.0476-6.5146,1.1026-13.0615-.0241-19.6056.5766-4.8641.4466-9.52,1.9124-14.2738,2.8632-1.2206.244-4.5553.1711-5.416,1.1-1.689,1.8225-1.1679,5.3789-1.368,7.5805a39.5471,39.5471,0,0,1-1.48,6.2744c-.8042,3.1451-.3176,6.9793.3065,10.1,1.2751,6.5061,2.5408,12.8137,4.0273,19.2752.7471,3.2478,2.0077,6.02,2.6395,9.1242l.1877-.0751.5661,1.4153a1.25,1.25,0,0,1-1.91,1.483l-1.1432-.8574a13.9926,13.9926,0,0,1-2.6846-2.6146q-.0057.0607-.012.1218l-1.1026-.5893-.3711.3711-1.1533-1.1532.0213-.0213-.0817-.0436a35.7537,35.7537,0,0,1-4.1319-6.53,1.31,1.31,0,0,1-1.2857-.3248l-.4428-.46c-1.6674-1.2848-3.9562-1.3958-5.3994-3.0822-1.1292-1.32-1.1509-3.1722-1.6642-4.72-.92-2.7739-2.3285-5.5258-3.4178-8.2548-2.7834-5.5667-3.0916-13.6433-1.8153-19.7862.4665-2.2456,2.3493-3.7829,2.2822-6.0978a1.2333,1.2333,0,0,1,1.06-1.24,36.1772,36.1772,0,0,1,1.8467-3.7294q-.1049.0351-.2156.0677ZM157.59,78.8173q-.4287-.0965-.854-.1965c.1926.185.3782.3614.5556.5256l-.16.0546q.2826.0941.5623.1875c-.0267-.18-.059-.3784-.1044-.5712Zm-34.5977,2.1855a6.3306,6.3306,0,0,1-1.9171.8732,4.182,4.182,0,0,1-1.7041-.6016c-2.706,1.25-5.7241,2.0342-8.13,3.8393-.8751.6566-1.7516,1.4064-2.6121,2.1912a11.86,11.86,0,0,1,2.7894-.9711,1.1978,1.1978,0,0,1,.1428-.0166q1.01-.6874,2.0957-1.295c3.1375-1.7475,6.6046-2.3746,9.9488-3.4769A1.1542,1.1542,0,0,1,122.9922,81.0028Zm24.1286-4.5919a21.17,21.17,0,0,0,2.9016.7093,9.6379,9.6379,0,0,0,1.5692.4052,4.5081,4.5081,0,0,0-1.2275-.9341,3.4686,3.4686,0,0,0-1.1789-.1909,4.0558,4.0558,0,0,1-.7066-.0051c-.3236.0049-.6058.0163-.7758.0166q-.29,0-.582-.001ZM160.36,79.4744a6.6121,6.6121,0,0,0,1.3377,1.3881c1.2376.3586,2.52.6772,3.7806,1.037q-.8269-.5264-1.682-1.0446a13.3385,13.3385,0,0,0-3.4363-1.38ZM113.579,80.8385c1.5288-.708,3.1806-1.2033,4.7211-1.8713A15.8013,15.8013,0,0,0,113.579,80.8385Zm23.733-4.16c-3.7968.2285-7.6883,2.2138-11.079,3.9636C129.9173,79.4713,133.63,77.5981,137.312,76.6789Z" fill="#f7ed51"/><path d="M100.7892,125.4034q-.2212-.1025-.4539-.1838.1437-.1851.27-.3836Q100.6975,125.12,100.7892,125.4034Z" fill="#010101"/><path d="M111.066,119.4662a1.2243,1.2243,0,0,1,1.27,1.2294l.0376,2.3618c.5729,5.7093,3.2941,10.0689,5.0846,15.417a67.288,67.288,0,0,1,1.7733,8.2334,1.25,1.25,0,1,1-2.4514.49,66.0855,66.0855,0,0,0-1.6865-7.9124c-1.8562-5.5969-4.6186-10.0924-5.2158-16.0833l-.0414-2.4659A1.2242,1.2242,0,0,1,111.066,119.4662Z" fill="#d6d63c"/><path d="M98.069,98.4431A1.2243,1.2243,0,0,1,99.05,99.914l-.3317,1.6021-.9008,1.8224a22.1841,22.1841,0,0,0-.2525,14.377c.5732,1.7151,1.8436,2.8887,2.8877,4.2067q-.04-.14-.0805-.28c-1.3223-4.5257-2.5543-8.8583-2.6446-13.6V106.3a1.25,1.25,0,0,1,2.5,0v1.7182c.0817,4.5026,1.2887,8.6265,2.5451,12.9248.704,2.4085,1.0872,5.0225,2.2193,7.2767,1.9549,3.8926,6.6539,7.3348,6.7684,11.8134a1.25,1.25,0,0,1-2.5,0c.0719-1.7567-.799-2.1887-1.7946-3.6111a59.0639,59.0639,0,0,1-4.7-7.0642l-.0483-.0978c.0822,1.1654.1027,2.2992.1047,3.2769a1.25,1.25,0,0,1-2.5,0c.0052-2.3276-.1025-5.6677-1.0444-7.851-.9445-2.1895-3.2566-3.6911-4.0777-6.1592a24.8717,24.8717,0,0,1,.3242-16.1846l.8291-1.6375.2449-1.2811a1.2243,1.2243,0,0,1,1.4709-.9806Z" fill="#d6d63c"/><path d="M179.5145,97.6506a1.2242,1.2242,0,0,1-1.25,1.25h-1.4452a20.63,20.63,0,0,1-7.3944-.96c-1.9111-.7431-3.0169-2.4339-4.5773-3.6006l-.0884-.0663.4958.8a1.25,1.25,0,0,1-2.2361,1.118l.0295-.1754c-5.2341-4.377-9.192-6.9182-16.21-6.9182a1.25,1.25,0,0,1,0-2.5c6.402,0,10.6023,1.9576,15.1449,5.376-3.74-3.32-7.1207-6.9327-12.3168-8.4021a1.25,1.25,0,1,1,.6867-2.4038,30.1534,30.1534,0,0,1,9.6521,5.118c3.4839,2.7372,6.0505,7.7047,10.3768,9.3449a18.4,18.4,0,0,0,6.4449.77h1.4379a1.2242,1.2242,0,0,1,1.25,1.25Z" fill="#d6d63c"/><path d="M171.3638,91.6149a1.2241,1.2241,0,0,1-1.7677,0l-.5767-.5766c-2.088-2.0927-3.0936-5.4752-6.3241-5.4a1.25,1.25,0,0,1,0-2.5c4.4221.0733,5.3036,3.351,8.0919,6.1325l.5766.5766A1.2243,1.2243,0,0,1,171.3638,91.6149Z" fill="#d6d63c"/><path d="M102.7932,93.0811a1.2243,1.2243,0,0,1,.4652-1.7055l1.9254-1.0947c1.3745-1.1466,2.7968-2.0252,4.2187-3.0891,3.9464-3.9464,8.9971-4.5381,14.2813-4.9156,5.3354-.3812,10.5808-.58,15.9461-.58a1.25,1.25,0,0,1,0,2.5c-5.307,0-10.4919.1967-15.7688.5735-4.7672.34-9.2556.7456-12.8206,4.3106-1.492,1.1212-2.9884,2.053-4.4308,3.2539l-2.111,1.2118a1.2242,1.2242,0,0,1-1.7055-.4651Z" fill="#d6d63c"/><path d="M115.6806,94.7864a1.2243,1.2243,0,0,1,0-1.7678l.3425-.2517c.7282-1.3824.72-1.8477,2.3377-2.6,1.961-.9122,4.3825-.185,6.4417-.3911,2.6317-.2634,4.2556-1.6875,6.611-2.524a15.19,15.19,0,0,1,5.0449-.3653,1.25,1.25,0,0,1,0,2.5c-1.2781,0-2.9529-.25-4.1812.2114-2.5219.9466-4.39,2.3822-7.2283,2.6657-2.3811.238-5.583-1.0074-6.79,1.6217l-.8108.9015a1.2243,1.2243,0,0,1-1.7678,0Z" fill="#d6d63c"/><path d="M109.9184,108.6661a1.2243,1.2243,0,0,1-.91-1.5158l.6316-2.4746.8366-1.459c1.5116-2.59,2.9023-5.5526,5.3427-7.4349,1.76-1.3571,4.15-1.3772,6.1743-1.93,5.017-1.37,10.9559-.6229,16.1943-.6229a1.25,1.25,0,0,1,0,2.5c-4.9859,0-10.759-.7668-15.5206.53-1.6561.4512-3.924.4015-5.3584,1.53-2.1328,1.6779-3.3381,4.3972-4.6729,6.6868l-.68,1.1417-.5217,2.1385a1.2243,1.2243,0,0,1-1.5159.9095Z" fill="#d6d63c"/><path d="M189.7305,145.5527a1.2242,1.2242,0,0,1-1.7045.4686l-1.6706-.95c-3.04-1.7289-5.5462-3.0155-7.4112-6.09-2.8887-4.4516-.4381-11.0263.3889-15.8439,1.0307-6.0043.0018-12.002-.0121-17.9906a1.25,1.25,0,1,1,2.5,0c-.0046,1.7751.4138,3.3319.5724,5.0866.5072,5.6094-.3634,11.89-1.4606,17.3541-.5416,2.697-1.653,7.7328.1118,10.0379,1.6131,2.7225,3.8659,3.7479,6.5468,5.2726l1.6705.95A1.2242,1.2242,0,0,1,189.7305,145.5527Z" fill="#d6d63c"/><path d="M194.6943,135.336a1.2242,1.2242,0,0,1-1.6413.6565l-2.0518-.88a24.5665,24.5665,0,0,1-3.3337-1.532c-6.0927-4.2993-1.6937-9.7944-1.7151-15.4594a1.25,1.25,0,1,1,2.5,0c-.0145,4.4066-4.0807,10.1376.5913,13.3723a23.3993,23.3993,0,0,0,3.0094,1.3512l1.9846.85a1.2242,1.2242,0,0,1,.6566,1.6413Z" fill="#d6d63c"/></svg>