<svg id="d837410d-2772-475d-afff-a06fb15a87d0" data-name="Layer 1" xmlns="http://www.w3.org/2000/svg" viewBox="0 0 290 357.9"><title>baby</title><path d="M173.1782,99.0477a4.4933,4.4933,0,0,1-.2641-1.5226,4.5412,4.5412,0,0,1,.0454-.6416c-.0535-1.1539.0123-2.3356-.0454-3.323-.02-.3422-4.25-.6558-4.7262-.7616-3.53-.7844-7.6293-.4168-10.8942-1.576-5.947-2.1114-12.344-9.7522-19.241-8.1893-2.1821.4946-3.5685,3.5716-5.3174,4.9875-5.2141,4.2215-9.0616,10.2888-15.0465,13.6919a47.7476,47.7476,0,0,1-5.237,2.8382,5.3742,5.3742,0,0,0-.9827,2.4055,1.4664,1.4664,0,0,1-.4751.82,62.6811,62.6811,0,0,0-.95,11.0834,75.7038,75.7038,0,0,0,1.647,15.5086,11.7406,11.7406,0,0,1,4.3286-3.6524,10.6439,10.6439,0,0,1,6.5327-.7966c.0268.0019.0537.0051.0809.01a7.565,7.565,0,0,1,3.9375,2.25c1.7862,1.7862,1.0737,3.7664-.0914,5.3658-.0005.1766-.001.2985-.0012.344-.026,7.2976-4.5752,16.5561-12.6176,16.5248a14.6729,14.6729,0,0,1-5.4762-2.2573,1.2428,1.2428,0,0,1-.5211.2254l-1.4189.2838-.006-.03c-3.6,2.1977-7.83,3.9719-11.9721,3.2095-1.9922-.3667-3.6893-1.5833-5.5016-2.4a9.7166,9.7166,0,0,1-4.28-3.3353,32.7846,32.7846,0,0,1-2.7551-6.1177c-1.8566-10.887-1.601-22.4088,4.78-31.8843,1.2412-1.8433,3.1917-3.2247,4.7665-4.7994a30.3642,30.3642,0,0,0,7.1978-12.2078c1.9244-5.702,1.3091-12.0472,7.1162-15.6242,3.7048-2.6774,8.0255-1.5284,12.0592-.7216l1.3066.6409a1.3126,1.3126,0,0,1,.1623.1022c1.4869-1.2929,2.3784-2.9658,4.1-4.0839A38.83,38.83,0,0,1,143.6809,69.75c4.92,0,10.8339-.9947,15.7425.0082a1.1146,1.1146,0,0,1,.115-.0082c2.4.04,4.0437.9446,6.2447,1.825a34.0562,34.0562,0,0,1,14.2987,10.9484q.1919.2194.3768.4489.0717.1191.1448.238,1.1,1.4813,2.0728,3.0732a34.71,34.71,0,0,1,4.5524,7.617q.7532,2.0268,1.5019,4.021c1.3822,1.6585,3.0337,3.2874,3.7052,5.2527.8859,2.5931,1.4412,5.1809,2.1647,7.7423,2.37,5.1946,7.9449,7.763,11.7119,12.012,2.3883,2.6938,3.4763,6.7906,3.49,10.3481,0,.2915.0016,3.2335-.0061,3.2947-.2446,1.9526-2.0378,4.6093-4.5549,3.6462-.7124-.2726-1.1222-1.0189-1.573-1.6592-1.3082,3.7932-5.2822,6.8753-9.1405,6.92a55.9221,55.9221,0,0,1-7.5562.88c-2.409,1.1928-5.4891,1.6285-7.3377-.45a2.6155,2.6155,0,0,1-.8561-1.7389c-.9289-1.1719-1.6166-3.4135-2.1935-4.5672-2.3806-4.7611-5.08-9.6816-1.4958-14.4172a16.9363,16.9363,0,0,1,6.5395-2.6058c-2.6546-7.9005-5.8463-15.72-8.45-23.5311Zm-49.5043,41.5681a6.5305,6.5305,0,0,0-.1466,1.1591c.1294-.4808.2426-.9569.3405-1.4229a.802.802,0,0,0-.1939.2638Zm51.6145-57.1539a17.2507,17.2507,0,0,0-1.8924-1.714A19.7048,19.7048,0,0,0,175.2884,83.4619Z" fill="#d14f3d"/><path d="M105.623,110.1143a1.2242,1.2242,0,0,1,1.25,1.25v3.7482a1.25,1.25,0,0,1-2.5,0v-3.7482a1.2859,1.2859,0,0,1,.0171-.18,1.3816,1.3816,0,0,1-.5024.4224,22.1386,22.1386,0,0,0-2.4928,10.1374c0,8.0574-.3025,14.2406,5.1724,20.5165,3.1053,3.5595,4.4693,6.1195,9.6061,5.1147a18.0522,18.0522,0,0,0,3.08-1.52c2.037-1.5876,2.4593-6.4923.3138-8.1269a8.6691,8.6691,0,0,0-2.6365-.6276c-.7844-.1422-2.6439-.6949-3.4329-.172-.5666.3756-1.8987,2.6273-1.171,3.305a1.3144,1.3144,0,0,0,2.0994-.4994l-.4742.28a1.25,1.25,0,1,1,2.3717-.7905l.1025,2.01c-.4353.5071-.7,1.2386-1.306,1.5213-5.3443,2.495-6.9514-5.5123-2.9553-7.9419,1.5072-.9164,3.6332-.46,5.2165-.172a8.2692,8.2692,0,0,1,3.7065,1.1023c3.5022,2.6044,2.9291,9.4554-.2628,12.0554-.1862.1517-3.58,1.8116-3.84,1.94a14.3643,14.3643,0,0,1-5.2551.3335c-2.7442-.5345-4.7284-3.016-6.25-5.1022-3.0683-4.2059-6.1221-7.4851-6.58-13.0329-.2761-3.3446-.0043-6.8368-.0043-10.1942a25.9356,25.9356,0,0,1,1.5616-8.6539c-1.0423.5956-2.0446,1.275-3.1142,1.9326-3.53,2.1705-7.9517,4.4967-9.2554,8.7848-.9332,3.07-.2413,7.3331-.2453,10.5448.4834,3.8651,1.9381,5.97,3.62,9.325.605,1.2065,1.2311,3.8927,2.7266,4.2681,2.4957.6264,4.0075.1651,4.7622-2.3522.2426-.8091,1.2389-1.7766.7075-2.4332a4.3139,4.3139,0,0,0-.58-.5728l-.1222,1.0513c-.4332.5933-.6025,1.5478-1.2994,1.78-3.1834,1.0611-7.34-5.1243-3.5492-7.2053.6691-.3674,1.5252-.0657,2.2878-.0985a15.2807,15.2807,0,0,1,3.9736,2.8517c.4146.37,1.1654.3832,1.4156.8792,1.5571,3.0855-1.4926,8.1508-4.575,8.8042-4.6462.9848-6.2818-2.44-7.9875-5.8617-1.8226-3.6559-3.3474-6.0508-3.8759-10.2806-.0012-1.0338-.06-2.15-.1168-3.296-.0351.0426-.0583.0658-.0583.0658l.0465-.3045,0-.0086a28.2513,28.2513,0,0,0-.5449,5.7722,1.25,1.25,0,0,1-2.5,0,30.8407,30.8407,0,0,1,.6009-6.3l.63-.927a1.2245,1.2245,0,0,1,1.75-.0173,20.4775,20.4775,0,0,1,.5239-6.3521c1.4788-4.978,6.2531-7.72,10.35-10.2442a34.7914,34.7914,0,0,1,5.85-3.23,49.9923,49.9923,0,0,1,3.5566-6.183c1.738-2.6095,4.1647-4.7909,5.7474-7.4657a1.25,1.25,0,0,1,2.1438,1.2862c-2.8114,4.6319-6.2919,8.5875-8.7666,13.0319a1.32,1.32,0,0,1,.0175.3172,1.13,1.13,0,0,1,1.0459-.538Zm-8.3489,31.2468c-.516-.3041-1.0269-.582-1.4528-.8134-2.2-.3641,1.2952,3.4.8991,1.9725l-.132-.0176a1.308,1.308,0,0,1,.6857-1.1415Z" fill="#a13f2e"/><path d="M92.937,134.2381a1.2242,1.2242,0,0,1-1.25-1.25l.0243-.3315c-.7258-4.047,2.0153-7.9386,1.994-12.0661a1.25,1.25,0,1,1,2.5,0c-.0166,3.7025-2.85,8.0861-2.0425,11.5758l.0242.8218a1.2242,1.2242,0,0,1-1.25,1.25Z" fill="#a13f2e"/><path d="M106.7763,133.6615a1.2242,1.2242,0,0,1-1.25-1.25v-.2883c0-3.4167-.2492-6.9221.3053-10.2966a1.25,1.25,0,1,1,2.466.411c-.5459,3.2239-.2713,6.6186-.2713,9.8856v.2883A1.2242,1.2242,0,0,1,106.7763,133.6615Z" fill="#a13f2e"/><path d="M93.1413,152.9932a1.2243,1.2243,0,0,1-1.757-.1952l-.963-1.25c-3.6034-1.7541-7.0378-6.2247-7.0955-10.1982a1.25,1.25,0,0,1,2.5,0c-.0633,3.2764,3.3453,6.8093,6.1672,8.254l1.3435,1.6328a1.2244,1.2244,0,0,1-.1952,1.757Z" fill="#a13f2e"/><path d="M96.2725,106.9064a1.2242,1.2242,0,0,1-.3191,1.7387l-.8814.6c-2.7394,2.3463-5.8948,4.1895-7.681,7.3528a1.25,1.25,0,0,1-2.1706-1.24c2-3.4648,5.2276-5.44,8.2246-8.0105l1.0887-.7594A1.2242,1.2242,0,0,1,96.2725,106.9064Z" fill="#a13f2e"/><path d="M110.2509,85.3563a1.2244,1.2244,0,0,1,.91,1.5159l-.34,1.3143c-.7826,1.9463-1.1492,3.9434-2.059,5.8576-2.4566,5.1681-6.5638,9.4134-9.5743,14.2346a1.25,1.25,0,0,1-2.12-1.325c2.9695-4.7471,7.0245-8.9376,9.4547-14.02.878-1.8365,1.229-3.7952,1.9775-5.6752l.2362-.9922a1.2243,1.2243,0,0,1,1.5159-.9095Z" fill="#a13f2e"/><path d="M119.4812,83.1281a1.1852,1.1852,0,0,1-1.6743.0805c-6.5594.0724-12.3078,1.6115-15.0714,8.1776a1.25,1.25,0,0,1-2.2979-.9848c3.329-7.6508,10.0611-9.6955,17.8714-9.6955l1.1722.6544A1.2243,1.2243,0,0,1,119.4812,83.1281Z" fill="#a13f2e"/><path d="M127.2649,81.1338a1.1254,1.1254,0,0,1,1.1352-.7162,1.2242,1.2242,0,0,1,1.25,1.25l-.691,1.4063c-5.3418,2.6587-9.6552,6.4806-15.4964,8.1568a1.25,1.25,0,0,1-.6868-2.4038c5.4487-1.5495,9.5717-5.1113,14.489-7.6931Z" fill="#a13f2e"/><path d="M129.66,85.3831a1.2243,1.2243,0,0,1,.7906,1.5812l-.3561,1.0287a22.9981,22.9981,0,0,1-14.3256,11.5989,1.25,1.25,0,0,1-.6868-2.4038,20.462,20.462,0,0,0,12.7763-10.3132l.22-.7012a1.2244,1.2244,0,0,1,1.5812-.7906Z" fill="#a13f2e"/><path d="M138.852,75.3678a1.2242,1.2242,0,0,1-.9806,1.4708l-1.5635.3066q-3.954.0106-7.9078.006a1.25,1.25,0,0,1,0-2.5q3.8307,0,7.6614.0061l1.32-.27a1.2241,1.2241,0,0,1,1.4708.9806Z" fill="#a13f2e"/><path d="M143.4894,82.5325a1.2242,1.2242,0,0,1-1.25,1.25H130.7066a1.25,1.25,0,0,1,0-2.5h11.5327a1.2242,1.2242,0,0,1,1.25,1.25Z" fill="#a13f2e"/><path d="M168.1976,89.9443a1.1972,1.1972,0,0,1,.8553-.3,1.2242,1.2242,0,0,1,1.25,1.25l-1.4952,1.8023c-3.5676-.754-6.7285-3.77-9.7613-5.7124-2.7063-1.7332-5.6778-3.0263-8.3029-4.8723-2.3517-1.6538-4.4627-3.8149-7.0449-5.0921a1.25,1.25,0,1,1,1.118-2.2361c2.7,1.3623,4.9066,3.5463,7.3709,5.2873,2.585,1.8264,5.5356,3.0978,8.2069,4.8078C162.73,86.3734,165.4318,88.96,168.1976,89.9443Z" fill="#a13f2e"/><path d="M166.7111,78.4785a1.2242,1.2242,0,0,1-1.677.559l-.7676-.4063c-3.6213-2.716-7.5147-4.8318-11.221-7.4791a1.25,1.25,0,0,1,1.4531-2.0344c3.722,2.6586,7.6276,4.7833,11.2679,7.5135l.3856.17A1.2243,1.2243,0,0,1,166.7111,78.4785Z" fill="#a13f2e"/><path d="M170.093,85.8208a1.2244,1.2244,0,0,1-1.7335.3467l-.7306-.4987c-4.3195-2.1862-7.9938-5.5848-12.3976-7.7846a1.25,1.25,0,1,1,1.118-2.236c4.3867,2.1953,8.079,5.6575,12.3977,7.7845l.9993.6546A1.2244,1.2244,0,0,1,170.093,85.8208Z" fill="#a13f2e"/><path d="M174.9262,91.7913a1.2242,1.2242,0,0,1-1.5811-.7906l-.2205-.7012c-2.3093-4.6278-2.465-10.3426-5.6483-14.5132a1.25,1.25,0,0,1,2-1.5c3.2638,4.4132,3.4754,10.0878,5.8844,14.8952l.3561,1.0287a1.2242,1.2242,0,0,1-.7905,1.5811Z" fill="#a13f2e"/><path d="M183.4172,97.4553a1.1613,1.1613,0,0,1,1.0132,1.223,1.2242,1.2242,0,0,1-1.25,1.25l-1.1722-.3661c-1.3471-1.3471-3.7792-3.0288-4.5957-4.73-.9274-1.9326-.0952-6.6956-.0952-8.84a1.25,1.25,0,0,1,2.5,0v5.19c0,.8982-.5206,1.902-.0951,2.6931.6805,1.2651,2.4969,2.4992,3.695,3.58Z" fill="#a13f2e"/><path d="M182.8745,116.8071a1.2242,1.2242,0,0,1-1.677-.559l-.3734-.7963c-.8913-3.2393-3.0559-6.0942-4.0607-9.3467-.8926-2.89-.5993-5.8873-.5993-8.8684a1.25,1.25,0,0,1,2.5,0c0,2.6893-.34,5.5193.4853,8.122,1.04,3.2759,3.139,6.1416,4.0808,9.4143l.2034.357a1.2243,1.2243,0,0,1-.5591,1.6771Z" fill="#a13f2e"/><path d="M183.078,144.7327a.4434.4434,0,0,0-.0326-.0385Zm.1718.4379a1.1649,1.1649,0,0,1-1.031-1.2264,1.2242,1.2242,0,0,1,1.25-1.25l1.5766.5c1.5113,2.268.7393,7.5663-3.3871,5.5615-.8554-.4157-1.6419-3.4364-1.734-4.0615a39.1887,39.1887,0,0,1,.2859-9.8429c.2005-1.6039-.2652-3.385.4654-4.8269.2946-.5814,1.105-.6916,1.6576-1.0375a1.4153,1.4153,0,0,1,.2447-.0874,56.3029,56.3029,0,0,1,1.6952-7.7453c-.5424-6.2784-.0361-12.7727-.0361-19.016a1.25,1.25,0,0,1,2.5,0c0,7.3325-.7765,15.1191.46,22.3921h.02a1.2242,1.2242,0,0,1,1.25,1.25c0,1.0579-.1226,2.2843-.128,3.48q.1617.5.3414.9957l.5738.4073a1.2243,1.2243,0,0,1,0,1.7678,1.5294,1.5294,0,0,1-.3022.238c2.38,5.1816,11.5692,9.2689,16.738,6.9847,1.3412-.5927,2.0439-2.2666,2.8645-3.4039.2738-1.5381.8343-3.4325.5114-4.9921-.6857-3.311-4.0411-5.3492-7.2916-6.1472a3.2472,3.2472,0,0,1,1.1034,2.8028c-.1614,4.1824-4.9647,6.6115-8.4516,6.58-.62-.3449-1.4265-.4727-1.8595-1.0345-.8276-1.0738-.9036-3.515-.4906-5.8245A1.3557,1.3557,0,0,1,191.0464,127l-.8888-1.4832c-1.4588-2.9807-1.0192-6.2968-1.0192-9.5394a1.25,1.25,0,1,1,2.5,0c0,2.6623-.5487,5.8931.7107,8.3364l.4344.723a4.9234,4.9234,0,0,1,1.5515-2.3323c1.0035-.6566,3.4108-.4808,4.4146-.4808,5.0015,0,11.5408,2.9471,12.7493,8.4591.4565,2.0821-.2053,4.5085-.642,6.5405-1.1058,1.6586-2.1494,3.7876-4.0551,4.6691-3.63,1.6789-8.7131.8756-12.9542-1.3166.8933,4.1888-2.3658,6.906-6.7422,3.8354a11.4335,11.4335,0,0,1-4.5843-7.9245c-.3912,3.0871-.9,7.8989.4516,10.1424.2614.4339.4311-.717.2771-1.4585Zm3.714-6.4337a1.2243,1.2243,0,0,1,.559-1.6771l1.2538-.2593a11.072,11.072,0,0,1-2.4493-3.9708,10.44,10.44,0,0,1-.4437-3.0482q-.3463-1.1094-.6139-2.2379c-.7953,4.1726-.9921,8.6766,1.01,12.0251,1.1843,1.9806,7.0369,6.2133,5.1347,1.0994a15.5467,15.5467,0,0,0-3.22-1.6179l.4466.2457a1.2243,1.2243,0,0,1-1.6771-.559Zm8.0553-10.3971a1.4077,1.4077,0,0,1-.43-.3185c-.2524,1.8665-.2022,3.8756.4111,4.0386a5.5493,5.5493,0,0,0,4.936-3.3754c.0484-.0912.7252-1.197.4147-1.5689-.9008-1.0789-2.9584-.3445-3.6008.4134l-.0541.2518A1.2243,1.2243,0,0,1,195.0191,128.34Zm.1266-2.72a5.8769,5.8769,0,0,1,2.014-1.034,2.6418,2.6418,0,0,0-1.4917.2336A1.5792,1.5792,0,0,0,195.1457,125.62Z" fill="#a13f2e"/><path d="M184.7388,95.6819a1.2242,1.2242,0,0,1-1.7334-.3466l-.6085-.9152q-.8649-1.4416-1.73-2.8832a1.25,1.25,0,0,1,2.1438-1.2863q.8649,1.4416,1.73,2.8832l.5448.8147a1.2242,1.2242,0,0,1-.3467,1.7334Z" fill="#a13f2e"/><path d="M193.8306,115.0772a1.2243,1.2243,0,0,1-1.6771-.559l-.53-1.0675c-2.1792-3.0409-3.0622-4.66-3.0622-8.4294a1.25,1.25,0,0,1,2.5,0c0,3.4226.6841,4.3033,2.704,7.14l.6238,1.239a1.2243,1.2243,0,0,1-.559,1.6771Z" fill="#a13f2e"/></svg>