<?xml version="1.0" encoding="utf-8"?>
<!-- Generator: Adobe Illustrator 22.0.1, SVG Export Plug-In . SVG Version: 6.00 Build 0)  -->
<svg version="1.1" xmlns="http://www.w3.org/2000/svg" xmlns:xlink="http://www.w3.org/1999/xlink" x="0px" y="0px"
	 viewBox="0 0 290 357.9" style="enable-background:new 0 0 290 357.9;" xml:space="preserve">
<style type="text/css">
	.st0{fill:#F05D97;}
	.st1{fill:#5473B8;}
	.st2{fill:#CACBCC;}
	.st3{fill:#FCEE21;}
	.st4{fill:#D1E9F9;}
	.st5{fill:#432A11;}
</style>
<g id="Layer_1">
	<g>
		<path class="st0" d="M880.5,81.5c0,0-17.9,33.3-32,36.5c-14.1,3.2-10.2,0-10.2,0s8.1-57.8,41.2-43.8
			C882.5,75.4,880.5,81.5,880.5,81.5z"/>
		<path class="st0" d="M925.8,127.4c0,0-43.2-26.5-45.3-45.8c-0.4-3.9,0.6-6.9,3.6-8.3C896,67.4,928.8,82.5,925.8,127.4z"/>
	</g>
	<g>
		<path class="st1" d="M1316.9,156.3c0,0-56.3-55.5-58.4-74.8c-0.4-3.9,0.6-6.9,3.6-8.3C1274,67.4,1321.1,101.5,1316.9,156.3z"/>
		<g>
			<path class="st1" d="M1205,156.3c0,0,56.3-55.5,58.4-74.8c0.4-3.9-0.6-6.9-3.6-8.3C1247.9,67.4,1200.8,101.5,1205,156.3z"/>
		</g>
	</g>
	<path class="st2" d="M2084.5,108.8c0,0-3.4,9.3,5.5,10.3c8.9,1,8.3-11.8,8.3-11.8s4.9,7.8,8.9,0c4-7.8,4-7.8,4-7.8
		s2.4,4.3,11.6,3.2c9.3-1.1,6-5,6-5s4,8.2,10.6,8.9c6.6,0.7,12.8-2.9,12.8-2.9s-5,8.8,1.7,13.4c6.7,4.6-1.1,1.2,2.1,9.1
		s4.5,7.7,9.9,3.8c5.5-3.9,5.3-6.8,2.4-12.1c0,0,9.7-11,2-17.8c0,0-0.6-20.6-12.6-16.3c0,0-2.9-14.9-14.7-11.4c0,0-7.2-5.7-18.7-3.2
		S2113.7,80,2113.7,80s-9.2-5.7-14.4-0.7c-5.2,5-2.3,12.1-2.3,12.1s-4-3.4-8.8,1.8c-4.8,5.3,1.4,9.5,1.4,9.5s-4.6-2.8-6.5,0
		C2081.3,105.6,2084.5,108.8,2084.5,108.8z"/>
	<path class="st3" d="M103.7,126c0,0,63-15.9,72.8-38.8C176.5,87.1,95.2,55.8,103.7,126z"/>
	<path class="st3" d="M188.2,121.8c0,0-35.1-13.1-11.8-34.6C176.5,87.1,191.3,94,188.2,121.8z"/>
	<path d="M2579.4,111.5c0,0-6.4-30.7,45.6-30.7c43.2,0,35.8,33.9,35.8,33.9L2579.4,111.5z"/>
	<path class="st4" d="M1637.9,87.7c0,0,27.3-0.5,30.3,24.1c3,24.6,1.9,33.7,1.9,33.7l11-45.1c0,0-4.1-18.4-32.9-14.7L1637.9,87.7z"
		/>
	<path class="st5" d="M495.4,81.6c0,0-34.8-6.1-40.2,28c-5.4,34.1,25.9,47.6,25.9,47.6s-23.2-28.6-13.9-38
		c9.3-9.4,24.7-13.7,30.9-27c0,0,18.2,18,30.5,19.4c17.7,2-4.8,44.6-4.8,44.6s26.4-6.7,18.2-52.5C535.9,69.6,495.4,81.6,495.4,81.6z
		"/>
</g>
<g id="Layer_2">
</g>
</svg>
