<svg id="59a25c4c-4010-4285-bedd-28e88e18e37f" data-name="Layer 1" xmlns="http://www.w3.org/2000/svg" viewBox="0 0 290 357.9"><title>baby</title><path d="M109.5653,223.1424c4.1183-1.3336,7.4282-.7109,11.6135-1.14,13.8905-1.4255,27.7007-.0122,41.7464-.0122,4.1666,0,8.3334-.01,12.5,0,1.86.0043,3.9349-.1533,5.7123.6037,1.455.62,3.4773.9518,4.0856,2.4115,1.3241,3.1782-3.3567,8.4125-6.0073,9.3565-.5061.18-7.1935.1283-7.2906.1283-7.5056,0-14.961-.5-22.5-.5-10.1678,0-20.6934-.8149-30.8228-.0063a37.8416,37.8416,0,0,0-5.8173,1.3538c-1.5.3643-3.171,1.5421-4.5507.8507-1.4969-.75-2.908-7.4787-3.2607-9.2079a2.4484,2.4484,0,0,1,1.9612-2.9417,3.2317,3.2317,0,0,1,.547-.0639l2.0148-.8059.0088.0221Z" fill="#d0d1d1"/><path d="M141.6108,223.3268a2.2622,2.2622,0,0,1,1.3144-.337,4.8624,4.8624,0,0,1,3.422,8.0988c-2.3038,2.6062-4.7612,2.3547-6.4646.936a2.9294,2.9294,0,0,1-.8859-.2136,2.4484,2.4484,0,0,1-1.3927-3.25l.1556-.36a3.98,3.98,0,0,1,3.8512-4.8746Z" fill="#b6b7b7"/><path d="M127.4252,235.49a2.4485,2.4485,0,0,1-2.5-2.5v-10a2.5,2.5,0,1,1,5,0v10A2.4485,2.4485,0,0,1,127.4252,235.49Z" fill="#b6b7b7"/><path d="M117.4252,235.99a2.4485,2.4485,0,0,1-2.5-2.5l.1788-.5715a21.1927,21.1927,0,0,1-1.6788-8.4285,2.5,2.5,0,0,1,5,0,15.1614,15.1614,0,0,0,1.3212,6.5716l.1788,2.4284A2.4485,2.4485,0,0,1,117.4252,235.99Z" fill="#b6b7b7"/><path d="M109.5432,237.2259a2.4485,2.4485,0,0,1-3.3541-1.118l-.5851-1.19c-1.26-3.18-2.5782-4.9164-2.6788-8.4285a2.5,2.5,0,0,1,5,0c-.1263,2.55,1.357,4.18,2.3212,6.5715l.4149.8105a2.4485,2.4485,0,0,1-1.1181,3.3541Z" fill="#b6b7b7"/><path d="M155.4252,231.5032a2.3447,2.3447,0,0,1-.2323,3.2544,2.4484,2.4484,0,0,1-3.5355,0l-1.2322-2.2678v-8a2.5,2.5,0,0,1,5,0v7.0134Z" fill="#b6b7b7"/><path d="M161.4252,235.99a2.4485,2.4485,0,0,1-2.5-2.5v-8.5a2.5,2.5,0,0,1,5,0v8.5A2.4485,2.4485,0,0,1,161.4252,235.99Z" fill="#b6b7b7"/><path d="M170.4252,238.49a2.4485,2.4485,0,0,1-2.5-2.5v-1c.0189-3.5083-.5-6.95-.5-10.5a2.5,2.5,0,0,1,5,0c0,3.561.4843,6.9681.5,10.5v1A2.4485,2.4485,0,0,1,170.4252,238.49Z" fill="#b6b7b7"/><path d="M179.4252,237.49a2.4485,2.4485,0,0,1-2.5-2.5v-.5c.0193-3.581-1.446-6.4409-1.5-10a2.5,2.5,0,0,1,5,0c-.0758,3.4055,1.4842,6.4447,1.5,10v.5A2.4485,2.4485,0,0,1,179.4252,237.49Z" fill="#b6b7b7"/></svg>