<svg id="b2d4ea23-92f9-4987-bf3c-c43b36cc847f" data-name="Layer 1" xmlns="http://www.w3.org/2000/svg" viewBox="0 0 289.9976 357.9312"><title>bottom</title><path d="M114.5832,228.7337s-10.8287,14.957,4.4784,25.7249C119.0616,254.4587,127.6533,239.1629,114.5832,228.7337Z" fill="#8cc63f"/><path d="M89.3576,237.3893s16.5853,8.1183,24.5833-8.8024C113.9409,228.5869,97.4035,222.7314,89.3576,237.3893Z" fill="#8cc63f"/><path d="M114.0293,228.303s-17.3589,6.2963-10.7387,23.8015C103.2906,252.1045,118.9885,244.2716,114.0293,228.303Z" fill="#3c6116"/><path d="M171.087,227.9508s4.9254,17.7964,22.8929,12.5593C193.98,240.51,187.3935,224.25,171.087,227.9508Z" fill="#8cc63f"/><path d="M162.1026,253.0612s16.6951-7.89,8.4688-24.7C170.5714,228.3609,155.6737,237.6256,162.1026,253.0612Z" fill="#8cc63f"/><path d="M107.53,239.6053s-13.2277,18.27,5.47,31.4237C113,271.029,123.4954,252.3448,107.53,239.6053Z" fill="#8cc63f"/><path d="M76.7161,250.1783s20.26,9.9167,30.0293-10.7524C106.7454,239.4259,86.5444,232.2733,76.7161,250.1783Z" fill="#8cc63f"/><path d="M106.8533,239.0791S85.6489,246.77,93.7357,268.1533C93.7357,268.1533,112.9111,258.5853,106.8533,239.0791Z" fill="#3c6116"/><path d="M176.551,238.6488s6.0166,21.739,27.9644,15.3417C204.5154,253.9905,196.47,234.1282,176.551,238.6488Z" fill="#8cc63f"/><path d="M165.5763,269.322s20.3936-9.6378,10.3449-30.1721C175.9212,239.15,157.7232,250.4669,165.5763,269.322Z" fill="#8cc63f"/><path d="M175.7175,238.8491s-7.2276,21.3668,14.5258,28.3968C190.2433,267.2459,194.7381,246.2926,175.7175,238.8491Z" fill="#3c6116"/><path d="M157.7526,241.6524s6.0164,21.7389,27.9644,15.3417C185.7169,256.9941,177.6711,237.1318,157.7526,241.6524Z" fill="#8cc63f"/><path d="M146.7777,272.3256s20.3936-9.6379,10.3449-30.1722C157.1226,242.1535,138.9246,253.4705,146.7777,272.3256Z" fill="#8cc63f"/><path d="M156.9189,241.8527S149.6913,263.22,171.4447,270.25C171.4447,270.25,175.94,249.2961,156.9189,241.8527Z" fill="#3c6116"/><path d="M124.1883,242.44s-4.8871,22.02,17.4964,26.6692C141.6847,269.11,143.8991,247.7943,124.1883,242.44Z" fill="#8cc63f"/><path d="M100.1043,264.3777s22.5314,1.0579,23.2927-21.7905C123.397,242.5871,102.0165,244.0423,100.1043,264.3777Z" fill="#8cc63f"/><path d="M123.3582,242.226s-16.4083,15.4774-.4967,31.8924C122.8615,274.1184,136.6624,257.724,123.3582,242.226Z" fill="#3c6116"/><path d="M143.3108,244.3558s-2.3566,22.4327,20.41,24.5115C163.7207,268.867,163.502,247.4384,143.3108,244.3558Z" fill="#8cc63f"/><path d="M121.8719,268.8845s22.5059-1.5057,20.6694-24.293C142.5413,244.5915,121.464,248.4634,121.8719,268.8845Z" fill="#8cc63f"/><path d="M142.4619,244.2371s-14.546,17.2393,3.1255,31.7427C145.5875,275.98,157.4388,258.1252,142.4619,244.2371Z" fill="#3c6116"/><path d="M170.4047,228.1147s-5.9169,17.4919,11.8914,23.2469C182.2961,251.3616,185.9757,234.2083,170.4047,228.1147Z" fill="#3c6116"/><path d="M155.6978,230.41s4.9253,17.7965,22.8928,12.5594C178.5906,242.969,172.004,226.7089,155.6978,230.41Z" fill="#8cc63f"/><path d="M146.7132,255.52s16.6952-7.89,8.4688-24.7C155.182,230.82,140.2843,240.0844,146.7132,255.52Z" fill="#8cc63f"/><path d="M155.0153,230.5736s-5.9169,17.4918,11.8914,23.2469C166.9067,253.8205,170.5866,236.6671,155.0153,230.5736Z" fill="#3c6116"/><path d="M128.22,231.0546s-4.0008,18.0268,14.3233,21.8326C142.5438,252.8872,144.3567,235.4376,128.22,231.0546Z" fill="#8cc63f"/><path d="M108.5042,249.0136s18.4453.866,19.0685-17.8388C127.5727,231.1748,110.07,232.3661,108.5042,249.0136Z" fill="#8cc63f"/><path d="M127.5409,230.8792s-13.4326,12.6705-.4066,26.1086C127.1343,256.9877,138.4323,243.5666,127.5409,230.8792Z" fill="#3c6116"/><path d="M143.8751,232.6227s-1.9293,18.3644,16.7084,20.0662C160.5835,252.6887,160.4045,235.1463,143.8751,232.6227Z" fill="#8cc63f"/><path d="M126.3242,252.703s18.4243-1.2326,16.9209-19.8873C143.2451,232.8157,125.99,235.9854,126.3242,252.703Z" fill="#8cc63f"/><path d="M143.18,232.5255s-11.908,14.113,2.5587,25.9861C145.7388,258.5116,155.4409,243.895,143.18,232.5255Z" fill="#3c6116"/></svg>