<svg id="7f4f3c9a-6c7f-4d8b-a12e-77ab4e90b78f" data-name="Layer 1" xmlns="http://www.w3.org/2000/svg" viewBox="0 0 290 357.9"><title>baby</title><path d="M103.5359,221.2874l-.5911-1.0995a2.6852,2.6852,0,0,1-.1468-.39,2.3867,2.3867,0,0,1-.6168-1.7273,2.4485,2.4485,0,0,1,2.5-2.5c12.5027,0,25.0425-.6177,37.5437-.2489,9.6917.2859,19.0141,1.9979,28.6674,1.9979,1.6725,0,6.7087-.1531,7.6.8225,1.0876,1.19.5082,3.2264.31,4.8264-.1226.9919-.9889,1.7619-1.244,2.7284a45.71,45.71,0,0,0-.6946,5.2252c-.9264,6.4606-.0222,13.2429.2732,19.7548.2955,6.5165.9965,12.819,1.0019,19.3632l-.2933.25c-.1079,2.9746-.3846,5.89-.4594,8.87-.0336,1.3387.6337,2.9422-.1694,4.0137-2.0778,2.7716-7.4356,1.859-10.3228,1.859-3.261,0-9.5364,1.0687-12.4424-.5562-3.31-1.8505-3.5178-5.5857-4.6385-8.5584-1.1352-3.011-2.9238-5.3308-3.6066-8.62a35.4838,35.4838,0,0,1-10.7689-1.1113,18.2794,18.2794,0,0,1-5.7728-2.4765c-.4045-.3009-.439-1.1607-.9427-1.1827-.3962-.0174-.19.7814-.3891,1.1244-1.4075,2.4246-2.7371,7.0309-4.0389,9.5281-1.3351,2.5612-1.8033,4.7622-3.3748,7.2164-.8764,1.3687-2.6478,1.3668-4.1487,1.99-1.9927.8279-7.8772-2.3307-9.7635-3.2764-1.8959-.5709-4.389-.0379-5.7548-1.4714-2.8345-2.975-.6168-7.4185.2753-10.5354,1.1507-4.02,1.7671-8.0637,3.3278-11.977.2155-.54,2.1723-4.5358,2.3488-5.9372.2244-1.7818.0592-3.5953.2357-5.3825l.8157-1.4838a152.2063,152.2063,0,0,0-4.72-21.0352Z" fill="#e5f5fd"/><path d="M124.7485,217.8536a2.5756,2.5756,0,0,1-.8749,1.1385c-1.7024,6.1105-5.8493,9.8367-11.4853,12.4919-1.3559.6387-6.1148,2.2906-7.1494,1.7959-1.2686-.6066-1.1884-2.549-1.8-3.8152a22.8459,22.8459,0,0,1-2.2764-8.1413c-.1442-1.3185-1.1137-2.8206-.428-3.956.9259-1.5331,2.9069-2.1426,4.5464-2.8633,4.1293-1.8152,10.575-1.0612,15.009-1.0612l3.1453,1.128a2.4485,2.4485,0,0,1,1.3131,3.2827Z" fill="#a3def9"/><path d="M161.5935,219.8236a10.02,10.02,0,0,0,5.1744,5.9148c1.5463.7665,3.3491.8542,4.9765,1.4289,1.2055.4257,2.2059,2.2345,3.3993,1.776.2943-.1131-.1986-.6124-.1857-.9274a12.0184,12.0184,0,0,1,.3425-2.9045c.247-.84.9427-1.4987,1.1991-2.3354.2405-.785.548-2.2747-.2541-2.45-1.48-.323-3.0234.3527-4.5361.274-1.9594-.102-3.916-.3089-5.878-.3094q-2.119-.2327-4.2379-.4673Zm-4.3033-4.9647a2.84,2.84,0,0,1,2.0709-.4415l1.329.2753q2.7091.3011,5.4178.6059c2.8411-.0007,5.6676.1866,8.5038.3048,1.3094.0546,2.7889-.3818,3.9218.2771,4.746,2.76,2.647,6.9582,1.5623,10.6471-.6555,2.2292.509,5.0889-2.3124,6.6621-3.41,1.9012-5.091-.386-7.7119-1.31-1.811-.6388-3.8019-.7945-5.5174-1.6576-5.2558-2.644-7.509-7.01-8.7411-12.5018a2.4727,2.4727,0,0,1,1.4772-2.8609Z" fill="#a3def9"/><path d="M161.3725,222.44a2.5,2.5,0,0,1,.5522-4.97,26.3931,26.3931,0,0,1,7.0565,1.8512,2.2989,2.2989,0,0,1,.9436-1.9043,2.4484,2.4484,0,0,1,3.521.32l.26.5041a2.5015,2.5015,0,0,1,3.4056,2.3309,2.5333,2.5333,0,0,1-.0193.3122l-.3047,2.7417-.05-.0056.0361.1131a5.3054,5.3054,0,0,0-.2359.6472l.2544,3.0535q.0111.1168.0111.2368a2.5,2.5,0,0,1-3.9768,2.0174l-2.1368-1.5263.0749-.1049a12.016,12.016,0,0,0-4.1416-.679l-.2484-.1394-.0211.0948-2.73-.6066a2.5,2.5,0,0,1-1.3264-4.1644c-.2959-.0514-.6035-.0928-.9246-.1231Z" fill="#a3def9"/><path d="M114.7669,227.6339c.1854-.3624.3494-.7128.4968-1.0021,1.002-1.0019,3.6215-2.0923,4.267-3.3135.4862-.92.4129-2.0644.876-2.9961.06-.1205,2.0155-3.86,2.8089-4.4391-.8554-.001-3.5234-.2339-3.8514-.2334-4.08.005-8.1206-1.0516-11.94.8582-1.1469.2356-3.4749.4428-4.4023,1.1829-.4348.347-.1462,1.1238-.0338,1.6686.1865.904.8364.9814,1.3407,1.7169.93,1.3553,1.1552,3.108,1.7016,4.6182a12.1645,12.1645,0,0,1,.3349,4.1719c1.2475-.3371,3.0622.1262,4.6482.1925.6722-.4364,1.2806-.8712,1.7366-1.227a12.9982,12.9982,0,0,1,2.0169-1.1979Zm-13.881-10.7592a4.2794,4.2794,0,0,1,2.3075-1.7969,13.1529,13.1529,0,0,1,3.4193-.9346c4.1681-2.084,9.9486-1.4894,14.4475-.9842.8957.1006,4.346.8559,4.6866,1.6443.4864,1.1257-.9171,3.0023-1.7775,4.2108l.0246,0a1.2242,1.2242,0,0,1,1.25,1.25l-.3661,1.1925c-1.7045,1.6958-2.2847,4.0607-4.0773,5.6161a18.1387,18.1387,0,0,1-4.2373,2.4062,6.243,6.243,0,0,1-2.1387,2.3669,4.7841,4.7841,0,0,1-2.52.5384,11.4926,11.4926,0,0,1-4.7338,1.775c-.6772.0392-1.4592.5058-2.03.14a3.0432,3.0432,0,0,1-1.1319-2.2419A19.5868,19.5868,0,0,1,102.56,230.18c-2.1354-3.4193-2.6375-8.1405-2.6559-12.077a1.2422,1.2422,0,0,1,.9818-1.2287Zm2.2214,8.0085a14.5584,14.5584,0,0,0,.7811,2.344A9.5309,9.5309,0,0,0,103.1073,224.8832Z" fill="#b3c9d1"/><path d="M177.2368,219.0354c-4.4125.03-8.74-.2878-13.119-.2993a29.18,29.18,0,0,1-3.9651-.2239c.6543,1.4546.9926,3.2072,2.2013,4.4159,1.4463,2.9919,6.319,4.3044,8.9762,6.1984.1571.112.3113.2288.4645.3471a9.0882,9.0882,0,0,1,2.566.6893c.1943-1.1346.6152-2.3171.89-3.412a29.38,29.38,0,0,1,2.6138-7.553Zm-21.6778.4378q-.1272-.2311-.2531-.46c-.4416-.8-1.446-2.6646-.9659-3.593.9809-1.8967,3.8325-1.3449,5.4567-1.3449,5.886,0,11.7127.3086,17.5928.3086,1.8859.0069,4.6053-.148,4.9137,2.2989a.772.772,0,0,1,.162.1458c.3636.4466-1.155,4.9337-1.3659,5.7483,0,3.1638-1.114,6.3465-1.88,9.41-.197.7877-.681,3.1343-1.4118,3.3439a2.2891,2.2891,0,0,1-2.0338-.6732c-1.6992.77-5.4748-2.3294-7.2716-2.6741-1.8236-.3652-4.3186-.7327-5.9264-1.6812-1.4541-.8579-2.0831-2.4875-2.9165-3.8257-1.5427-2.477-3.3163-4.4248-4.1-7.0035Z" fill="#b3c9d1"/><path d="M114.1172,275.2182a1.2242,1.2242,0,0,1-1.25-1.25l.0374-1.2291a18.1645,18.1645,0,0,0,.2835-4.9621c-.7214-.092-1.4433-.1575-2.166-.2035a1.3634,1.3634,0,0,1,.0241.2217q-.0046,1.0024-.0094,2.0046l-.3362,1.3837,0,.0014a16.4736,16.4736,0,0,1-1.3207,4.2827,7.201,7.201,0,0,0,3.38.3431,21.3709,21.3709,0,0,0,2.6138-.8986c.6822-.1534,1.6709.377,2.09-.1829.3987-.5326.0345-1.33.0337-1.9956-.0027-2.349-.0312-3.4514-1.8042-4.3552a19.5479,19.5479,0,0,1-.3628,4.967l.0373.6228a1.2242,1.2242,0,0,1-1.25,1.25Zm-5.8423-4.64.0006-.0022.28-1.0819-.0094-1.6992a1.472,1.472,0,0,1,.0437-.3136c-1.2711-.02-2.5459-.006-3.8259.0044a12.03,12.03,0,0,1,1.38,4.3876,13.415,13.415,0,0,0,1.2719,2.0565A18.2855,18.2855,0,0,0,108.2749,270.5785Zm-4.85-.6559q-.0144-.0537-.03-.1058c-.2114-.7031-1.2514-.7965-1.7557-1.33l-1.2229-.9172a1.25,1.25,0,0,1,.46-2.2278l1.2092-.3023.0125.05.138-.0778c4.55-.0213,9.0071-.2477,13.472.66,1.27.5121,2.5942.8476,3.463,2.05,1.1178,1.547,1.5431,7.0533.2423,8.5724-.7852.917-2.2864.7932-3.4656,1.0517-2.5379.5564-6.0454,1.8988-8.6334.342a1.1657,1.1657,0,0,1-1.2153-1.04,15.4189,15.4189,0,0,1-1.9152-3.05l-.23.0571a7.5851,7.5851,0,0,1-.151-.8224c-.2417-.494-.4681-.9678-.68-1.3909a1.2468,1.2468,0,0,1,.302-1.5181Z" fill="#e8e7e7"/><path d="M118.3642,260.255c1.8351-2.4072,1.9112-5.0771,1.9106-8.025q-.1386-.0234-.28-.0434a1.5565,1.5565,0,0,1-.0869.6406c-1.1456,2.8454-3.2682,5.055-4.3919,7.8643l-.3405.46c1.0087-.12,2.0534-.2952,3.0655-.3731Zm-5.8642.3087.8362-1.097c1.0683-2.6709,3.09-4.75,4.1946-7.4307-.7-.004-1.3845.0134-2.0014.0247a30.6992,30.6992,0,0,0-5.066,5.8813c.0963,1.3841.4057,2.8775,1.3544,3.1428q.2091.0584.4279.0972a1.5541,1.5541,0,0,1,.2543-.6183Zm9.6746.9168a2.3669,2.3669,0,0,1,.2158.16c.0929-.6119.2289-1.2171.2546-1.6557.08-1.3657,1.0439-4.8509.113-6.507a14.1859,14.1859,0,0,1-1.8381,7.457,4.2312,4.2312,0,0,1,1.2547.5461Zm-15.2428.71a1.2242,1.2242,0,0,1-.7906-1.5811l.4226-1.1738q.3817-.6292.7711-1.2435a1.2606,1.2606,0,0,1-.9931-.4306c-1.4545-1.9417,2.158-4.7031,2.99-6.0263.3328-.5289.4264-1.2807.9558-1.6127,1.0536-.6606,3.0791-.56,4.3322-.5535a27.0488,27.0488,0,0,1,2.1986-1.6416,1.2243,1.2243,0,0,1,1.7335.3467,1.1243,1.1243,0,0,1,.0571,1.3059c2.5994.1234,5.2618.6725,6.4865,2.81.9638,1.6824.2964,3.605.12,5.323-.2657,2.58-.0574,4.5224-.68,6.5907l.3621.0905-.3023,1.2092a1.25,1.25,0,0,1-2.3492.257l-.5647-1.1294c-3.0967-4.1951-10.3211,1.7322-13.0032-3.9082l-.1656.577a1.2243,1.2243,0,0,1-1.5812.7906Zm4.8416-10.057a2.1164,2.1164,0,0,0-.7843,1.0356q.5069-.5936,1.0417-1.1628A1.5008,1.5008,0,0,0,111.7734,252.1339Z" fill="#e8e7e7"/><path d="M127.08,243.7363h-3.3992a6.1212,6.1212,0,0,0,.888,1.8785c.533.7049,1.9859-.4025,2.2914-.6616a2.4613,2.4613,0,0,0,.7795-1.3426,1.5629,1.5629,0,0,1-.56.1257Zm-4.321-2.5h4.321a1.55,1.55,0,0,1,.6646.1769c-.0258-.4612-.0594-.9037-.0584-1.2929a7.1166,7.1166,0,0,0-.29-1.17,1.2314,1.2314,0,0,1-1.242,1.0824l-.0055-.0373a23.4512,23.4512,0,0,1-4.0223.6087,3.5153,3.5153,0,0,1,.552.637c.0507-.0047.0807-.0047.0807-.0047Zm2.7833-3.6664.6118-.0373a1.5286,1.5286,0,0,1,.7421.2228,11.2962,11.2962,0,0,0-3.6612-4.2078l-1.1474.2859a44.3248,44.3248,0,0,1-7.3487.9521c-.2738.3742-.5459.7552-.8166,1.1348,2.7431-.3039,5.4217-1.5058,8.2415-1.7424a1.175,1.175,0,0,1,.9039-.3492,1.2242,1.2242,0,0,1,1.25,1.25l-1.25,1.5587c-2.685-.0115-5.1838.9864-7.75,1.5221,3.4223.05,6.9013.244,10.2246-.59Zm-14.53.7762a1.3326,1.3326,0,0,1-.6144-1.1067l.25-1.0587c1.3549-1.8061,3.344-5.3637,5.5761-6.002,6.5264-1.8662,12.87,3.5366,13.9537,9.7354.0036,1.6239.3432,3.7469-.4257,5.27-1.2132,2.4032-4.605,4.32-6.9508,2.1985-1.29-1.1662-.9845-4.2237-2.51-5.0431-2.1691-1.1652-7.3715,1.4562-9.0115-.9358a10.2448,10.2448,0,0,1-.2676-3.0576Z" fill="#e8e7e7"/><path d="M162.0738,239.7668l.6767-1.0583c.8783-.6583,1.7481-1.3213,2.6552-1.91-.5792-.1465-1.153-.2947-1.7193-.4811a49.6569,49.6569,0,0,1-6.4793,4.5619c1.5746-.1,3.1519-.3344,4.727-.4932A1.5578,1.5578,0,0,1,162.0738,239.7668Zm6.9878-4.666a1.2242,1.2242,0,0,1,1.5158.91c.0059.0234.0111.0464.0159.0691,1.42,1.3664,2.3181,5.7586.4666,7.0836-1.5182,1.0865-3.4273-.1967-4.9344-.3619a26.4237,26.4237,0,0,0-6.0441.2794,1.4589,1.4589,0,0,1-.902.3472l-.9314-.0373c-1.51.3762-3.888,1.2069-5.4112.5594-2.93-1.2456-2.0141-5.7963-2.0062-8.2536.0045-1.43-.9271-3.87.4807-4.9977.4013-.3214,3.1427-.266,3.8557-.2647,2.8367.0049,6.2875.2089,7.75,2.9182a4.7437,4.7437,0,0,0,.5225.3337l.6783-.1655a1.266,1.266,0,0,1,1.1983.8442c1.1684.276,2.41.4056,3.55.79q.0973-.0276.1957-.0531Zm-9.75-1.1825-1.1655.87c-1.385,1.3117-2.8722,1.5816-4.6281,1.9951a10.1841,10.1841,0,0,0,.2826,3.4427c2.4666-1.7872,5.0687-3.1163,7.4444-5.0923q-.1243-.0868-.248-.18a2.9459,2.9459,0,0,0-1.3732-1.3754,1.55,1.55,0,0,1-.3122.34Zm7.1189,6.4015c.4935.0554,2.6226,1.0223,3.09.8726.5717-.1829-.1931-1.1926-.1721-1.7925.0313-.8956.42-1.0431-.364-1.4256q-.1481-.0723-.2958-.1386a16.51,16.51,0,0,0-3.8061,2.3924,15.4224,15.4224,0,0,1,1.5476.0916Zm-9.9225-7.42.1259-.0948c-1.3761-.1417-2.7829-.1105-3.7846-.1362-.172-.0044-.1622.11-.0779.2795a1.2611,1.2611,0,0,1,.8673,1.2044v.0636a4.9359,4.9359,0,0,0,2.8694-1.3166Z" fill="#e8e7e7"/><path d="M167.8061,276.4373V275.82c.004-2.0844.3114-4.0789.3086-6.1729a1.444,1.444,0,0,1,.3741-.93c-.8191-.0761-1.6613-.11-2.5124-.1076a1.4694,1.4694,0,0,1-.0084.3167,31.3859,31.3859,0,0,1-2.8271,8.4978c.7557-.2669,1.4182-.5189,1.8552-.6421a4.5671,4.5671,0,0,1,2.8192-.2216,1.1414,1.1414,0,0,1-.0092-.1234Zm2.8086-6.79c-.0026,2.0948-.3131,4.0919-.3086,6.1729v.6173a1.3158,1.3158,0,0,1-.6619,1.1306c.4.3261.7985.591,1.2387.4426,1.869-.63,1.867-5.1579,1.8615-6.5115.1183-1.7082-.935-2.28-2.322-2.5439a1.5434,1.5434,0,0,1,.1923.692Zm-10.76,11.612a1.2639,1.2639,0,0,1-.566-.51,4.4867,4.4867,0,0,1-3.0556-.87,4.2982,4.2982,0,0,1-1.277-1.9765,1.465,1.465,0,0,1-.3646-.2725,1.2,1.2,0,0,1-.0413-1.7221,24.69,24.69,0,0,1-.062-3.201,1.2587,1.2587,0,0,1-.88-1.2077l.0373-.6118c.2611-1.0215.4888-2.41,1.3565-3.1411a4.8592,4.8592,0,0,1,2.2835-.87,1.0979,1.0979,0,0,1,.0107-.1272c-.9148-1.08-.2712-3.9688-.1631-5.7756a1.17,1.17,0,0,1-.9821-.0853,1.1915,1.1915,0,0,1-.5968-1.5874c-.5086-.0968-.9723-.1569-1.0806-.1931-3.41-1.14-7.6861-4.5579-3.8442-7.9851q.3183-.2838.6674-.5385a1.1413,1.1413,0,0,1-.4664-.9992,1.2242,1.2242,0,0,1,1.25-1.25l.0635.0242a67.1958,67.1958,0,0,1,13.4446-1.2362,14.43,14.43,0,0,1,7.2605,5.3419,1.1331,1.1331,0,0,1,1.4118.2486,1.2243,1.2243,0,0,1,0,1.7678q-.0891.0889-.1778.1772a28.3349,28.3349,0,0,1,1.418,3.83c.3416,1.1345,1.5015,2.856.7841,4.111-.6405,1.12-3.2012.89-4.1427.89-3.2179,0-6.3995,1.94-9.5735,2.74-.2815.07-.6938.1957-1.1668.3315q.0734-.0057.1432-.0121c4.7745-.4349,13.4276-1.6948,13.6989,4.95-.0093,2.5952-.3543,8.0046-3.6941,8.9208-2.1964.6025-3.5783-1.9742-5.8418-1.241-1.06.3432-2.522.8853-4.0332,1.2349l-.1432.2864a1.2243,1.2243,0,0,1-1.6771.559Zm-1.284-11.8571.0051-.0222a3.2254,3.2254,0,0,0-2.01.3164.802.802,0,0,0-.1053.102,1.3487,1.3487,0,0,1,.5731,1.0835c0,.5275-.0664,1.3687-.1012,2.2979a9.6377,9.6377,0,0,0,1.6379-3.7776Zm2.4515.49a14.2131,14.2131,0,0,1-3.8389,6.8981,2.4361,2.4361,0,0,0,.6208,1.1437,2.6368,2.6368,0,0,0,2.1317.3671,33.6063,33.6063,0,0,0,3.5316-9.5845c-.8654.07-1.7256.1708-2.5662.2981a1.4909,1.4909,0,0,1,.1209.8774Zm3.8291-7.5944.3087-.6173a29.3574,29.3574,0,0,1,6.1689-7.808,10.5738,10.5738,0,0,0-2.6955-2.5088c-.516,3.8581-2.4883,7.9355-4.3541,11.1831a6.1674,6.1674,0,0,1-.4466.6678c.2928-.108.5862-.2216.88-.338a1.5612,1.5612,0,0,1,.1388-.5788Zm-2.7475-.9828c1.8107-3.1936,4-7.4776,4.1508-11.2428-.3743-.1712-.7546-.3347-1.139-.4943q-.665.008-1.3342.0264a1.5483,1.5483,0,0,1-.2072.4221,50.966,50.966,0,0,0-4.69,8.1868,2.747,2.747,0,0,1,.5241.77,14.3761,14.3761,0,0,1,.1557,5.0693,12.3271,12.3271,0,0,0,2.54-2.7377Zm8.3425-.3161a13.7832,13.7832,0,0,1,1.6959-.0094,12.7558,12.7558,0,0,1,1.6991.0094c.14.0188.3909.3913.3311.2636-.6964-1.4863-1.0429-3.3737-1.6483-5.0607a27.5572,27.5572,0,0,0-4.4568,5.3735,12.31,12.31,0,0,1,2.379-.5764Zm-15.573-5.21a1.4664,1.4664,0,0,1-.0584.3985c.6718.2456,1.3531.4749,1.9367.7a61.59,61.59,0,0,1,3.9533-7.1372c-1.1493.0781-2.2991.1836-3.4424.32a1.5446,1.5446,0,0,1,.08.4406c-.0467,2.5523-1.1035,3.5748-2.4694,5.2779Zm-.3293-4.0652a3.4739,3.4739,0,0,0-.983.2161c-2.38,1.3363-2.2869,2.3009-1.2459,3.0678.9895-1.3139,2.0414-2.0273,2.4006-3.3446a1.2977,1.2977,0,0,1-.1717.0607Z" fill="#e8e7e7"/><path d="M-15.97,165.5273A38.873,38.873,0,0,1-5.236,172.38c5.7237,5.2677,9.7689,12.0985,14.7018,18.0439,2.3581,4.1055,5.004,8.2523,7.6173,12.1907l.9843,2.2739s.0074.0173.0192.0493a2.1044,2.1044,0,0,1,.6782,1.1307,2.1326,2.1326,0,0,1,1.5732,2.0578v.2729a1.9177,1.9177,0,0,1,2.04.9427,2.0878,2.0878,0,0,1-.5912,2.9561c-2.807,1.7408-7.9117,2.907-11.0386.912a6.4367,6.4367,0,0,1-1.687-1.7637,2.212,2.212,0,0,1-1.6288-1.6586,21.3961,21.3961,0,0,0-.5833-2.1195c-.9486-1.7309-1.7388-3.3946-2.5164-5.1476-.9983-1.56-2.1574-3.0913-3.43-4.82-3.2861-4.465-6.2171-9.4632-10.8907-12.7033-1.2522-.8681-2.797-1.2332-4.0947-2.0317-2.093-1.288-2.3208-2.2033-4.2872-2.5807a1.9852,1.9852,0,0,1-1.3144.2044,2.12,2.12,0,0,1-.2895.1417,8.4864,8.4864,0,0,0,1.3541-4.6125,8.5147,8.5147,0,0,0-3.4858-6.8777,8.53,8.53,0,0,0-8.144-5.9934,8.5336,8.5336,0,0,0-2.3162.3184,2.1325,2.1325,0,0,1,1.0712-.6672l2.053-.5865.0156.0548q.1353-.0616.2743-.1163c2.1029-.8232,5.3557.3981,7.8789,1.2948q.8763.2749,1.7455.58l2.7361.9115a2.6635,2.6635,0,0,1,.8209.49Zm9.1513,11.6475a2.2372,2.2372,0,0,1-.373.0812q1.23,1.1763,2.4655,2.3442c-.6992-.822-1.3884-1.6346-2.0925-2.4254Z" fill="none"/><path d="M-32.1178,162.0729l2.1317-3.0626a20.9053,20.9053,0,0,1,7.541,1.6748c7.47,2.6755,14.57,4.9538,20.3431,10.7416,2.8514,2.8587,4.77,6.46,7.3381,9.5414C10.1711,188.3516,15.75,195.06,19.7,202.9938c1.0591,2.1275,3.7521,4.6017,3.6479,7.1781-.2413,5.9626-8.1116,7.0882-12.3359,5.038a8.9286,8.9286,0,0,1-3.8063-4.3981c-1.536-2.679-3.6983-5.3463-4.9917-8.1237-.9774-2.099-1.1982-4.2286-2.6-6.1834-1.7895-2.4948-4.2776-4.438-6.5219-6.4808-3.4308-3.1227-7.6846-6.3618-12.5268-6.2694a2.1913,2.1913,0,0,1-2-1.3039,8.5489,8.5489,0,0,0,2.1225-2.9573c8.601.1853,17.573,7.7586,22.4115,14.5555,1.5565,2.1866,1.92,4.5144,2.9852,6.85,1.2448,2.7283,3.4385,5.38,4.9384,8.0128.9478,2.52,2.381,3.0143,5.078,2.858.6534-.0378,3.1659-.2294,2.9845-1.5975-.2282-1.7208-2.4241-3.73-3.1791-5.2345-3.8671-7.7041-9.2991-14.2193-14.0853-21.4186-2.4316-2.9179-4.232-6.3807-6.9366-9.0775-5.3182-5.3029-11.8879-7.2929-18.7567-9.7393a22.1732,22.1732,0,0,0-4.3908-1.3189q-.0284.0415-.0593.0824a8.55,8.55,0,0,0-1.9257-.2184,8.5876,8.5876,0,0,0-1.4662.1256,2.5949,2.5949,0,0,1-.4025-1.3Z" fill="none"/></svg>