<svg id="063335b5-f35f-43ab-a0ce-524997fb137e" data-name="Layer 1" xmlns="http://www.w3.org/2000/svg" viewBox="0 0 290 357.9"><title>skin02</title><path d="M84.1319,292.3945c-6.584-7.576-1.796-21.805,1.497-30.676,0,8.686,12.271,0,14.366,3.511s-2.843,14.784,10.925,9.425,10.924,1.848,15.564,2.033,10.775,1.293,11.972-3.327,10.176,7.947,13.319,4.62a74.1728,74.1728,0,0,1,8.081-7.022c6.106,9.018,15.115,3.758,18.856,0,18.108,6.653,12.571-3.696,17.958-4.989,4.31-1.035,8.281-4.62,9.728-6.283,3.641,5.235,11.044,17.962,8.53,24.762s-3.941,6.53-4.34,5.544h-7.034l-3.292,2.772-5.837,9.794-5.686-.924-6.286-1.293-6.884,3.88-5.088,1.663-8.829-4.25-4.789,4.25-6.285,1.294-9.728-5.544-11.822,5.544-13.02-5.544c-2.295.616-7.482,1.996-9.877,2.587-2.993.739-9.428-6.283-10.027-10.533S90.7169,299.9715,84.1319,292.3945Z" fill="#fbfcfc"/><path d="M99.988,229.2575l5.89-14.404c18.725,9.906,60.4531,8.2132,75.05,4.3372,17.064,15.101,24.9179,36.6448,27.3339,43.8928,1.933,5.799-5.436,8.658-9.362,9.363-2.266-.453-4.833,8.607-10.42,6.946a38.1974,38.1974,0,0,0-9.665-1.812c-.604,0-3.322,3.473-8.305,4.53s-6.796-4.53-11.175-4.53-4.077,7.4-9.816,4.53a24.1226,24.1226,0,0,0-10.268-2.718l-3.02,1.661-6.796,1.964-3.775-.907-3.775-2.718h-3.776l-7.55,1.661-4.681-1.661-1.963-1.812-4.682-5.134H91.23l-3.02-.755-2.266-1.057-2.114-6.343,6.343-15.101Z" fill="#c7423a"/></svg>