<svg id="75ddb8e6-cc2d-4b8e-ac41-151c9264af82" data-name="Layer 1" xmlns="http://www.w3.org/2000/svg" viewBox="0 0 289.9976 357.9312"><title>bottom</title><path d="M112.5152,229.1567S67.2028,298.9972,15.3823,297.38l185.732-4.222s-29.0034-47.1952-27.5382-64.71Z" fill="#231f20"/><path d="M102.4238,254.5457,52.6452,294.274s-12.3776-9.9269-.18-21.0235,10.2468,4.2706,21.8123-4.9941,3.7987-13.2619,10.7255-17.4762,3.4,3.1316,9.9437-.8236-2.5116-4.4024,1.9187-8.4915,6.37,4.8216,11.0924.7041S117.2211,248.549,102.4238,254.5457Z" fill="#f15f49"/><path d="M115.4938,254.9787,79.1679,292.4333s-14.3-6.7673-5.7611-17.0506S84.1951,277.78,92.6259,269.05s.0515-11.1642,5.4557-15.3093,4.0361,2.1875,9.148-1.7071-3.5368-3.3121-.4509-7.0948,7.2832,3.25,10.6364-.5867S127.8382,248.5646,115.4938,254.9787Z" fill="#ffdf60"/><path d="M135.2323,251.8946,105.5411,294.8s-15.2162-4.33-8.48-15.8748,11.0354.5955,17.92-9.399-1.78-11.0215,2.871-15.9968,4.34,1.4959,8.7441-3.1843-4.0321-2.6873-1.6084-6.9248,7.7175,2.011,10.3962-2.3232S146.3576,243.5428,135.2323,251.8946Z" fill="#f15f49"/><path d="M64.5,295.8438l-48.6336,1s-3.61,13.2315,8.89,13.8792,4.679-8.3661,15.9932-8.576,8.0932,6.63,14.2978,5.6292.8184-3.9,6.6685-4.8621.29,4.25,4.8558,4.524,1.9809-6.6214,6.7438-6.4876S76.4668,291.736,64.5,295.8438Z" fill="#231f20"/><path d="M123.8785,294.8438l-48.6335,1s-3.61,13.2315,8.89,13.8792,4.6791-8.3661,15.9932-8.576,8.0932,6.63,14.2978,5.6292.8185-3.9,6.6685-4.8621.29,4.25,4.8558,4.524,1.9809-6.6214,6.7438-6.4876S135.8456,290.736,123.8785,294.8438Z" fill="#231f20"/><path d="M189.1618,292.1933l-56.2362,1.8212s-4.3464,15.7157,10.096,16.3189,5.5188-9.9681,18.6013-10.3648,9.2693,7.7446,16.4554,6.4786.9972-4.6291,7.7728-5.8449.28,5.0293,5.5543,5.2936,2.3768-7.8668,7.8812-7.7708S203.05,287.1722,189.1618,292.1933Z" fill="#231f20"/><path d="M145.7384,244.71l-4.8405,49.2613s-15.2748,4.082-15.0563-8.55,9.8407-5.007,10.9409-16.4664-6.8987-7.9778-5.2917-14.2908,4.4837-.9546,6.02-6.9074-4.7962-.1565-4.7585-4.7689,7.6572-2.2194,7.8686-7.0362S151.3072,232.463,145.7384,244.71Z" fill="#ffdf60"/><path d="M151.6692,247.274,164.57,291.952s13.4347.2613,10.9769-11.4322-9.0836-2.3784-12.0632-12.7776,4.2979-9.0128,1.8243-14.51-3.9.15-6.25-5.0291,3.9592-1.255,3.0967-5.5344-6.7659-.2919-7.81-4.7212S144.8326,237.1768,151.6692,247.274Z" fill="#f15f49"/><path d="M178.0754,246.271l13.0012,46.8742s13.7133.2239,11.2483-12.0478-9.2637-2.4638-12.2662-13.3743,4.4212-9.4817,1.9168-15.2459-3.9813.1718-6.3608-5.2583,4.0464-1.333,3.182-5.8241-6.9056-.2812-7.9544-4.9291S171.1346,235.6922,178.0754,246.271Z" fill="#ffdf60"/></svg>