<?xml version="1.0" encoding="utf-8"?>
<!-- Generator: Adobe Illustrator 22.0.1, SVG Export Plug-In . SVG Version: 6.00 Build 0)  -->
<svg version="1.1" id="Layer_1" xmlns="http://www.w3.org/2000/svg" xmlns:xlink="http://www.w3.org/1999/xlink" x="0px" y="0px"
	 viewBox="0 0 290 357.9" style="enable-background:new 0 0 290 357.9;" xml:space="preserve">
<style type="text/css">
	.st0{fill:#6D3B13;}
	.st1{fill:#5D0000;}
	.st2{fill:#884A14;}
	.st3{fill:#882414;}
	.st4{fill:#FF2458;}
	.st5{fill:#D12657;}
	.st6{fill:#784B20;}
	.st7{fill:#884A05;}
	.st8{fill:#492300;}
	.st9{fill:#D0D0D0;}
	.st10{fill:#FFFFFF;}
	.st11{fill:#DCCBB2;}
	.st12{fill:#FFECCF;}
</style>
<path class="st2" d="M73.6,182.8l15.7,12.7c0,0,14.2-18.7,17.4-16.1c0,0-7.8,30.2,1.3,45.8l73.5,3.2c0,0,6.3-46.7,0-52.1
	c0,0,0.4,0.6,4.8,3.4c4.4,2.8,13.9,16.6,13.9,16.6l13.4-9.1c0,0-14.4-26.8-24.3-29.4c-9.9-2.7-14.6-5.4-14.6-5.4s-33.3,7.7-57.5-0.5
	C117,151.8,93,151.9,73.6,182.8z"/>
</svg>
