<?xml version="1.0" encoding="utf-8"?>
<!-- Generator: Adobe Illustrator 22.0.1, SVG Export Plug-In . SVG Version: 6.00 Build 0)  -->
<svg version="1.1" id="Layer_1" xmlns="http://www.w3.org/2000/svg" xmlns:xlink="http://www.w3.org/1999/xlink" x="0px" y="0px"
	 viewBox="0 0 290 357.9" style="enable-background:new 0 0 290 357.9;" xml:space="preserve">
<style type="text/css">
	.st0{fill:#6D3B13;}
	.st1{fill:#5D0000;}
	.st2{fill:#884A14;}
	.st3{fill:#882414;}
	.st4{fill:#FF2458;}
	.st5{fill:#D12657;}
	.st6{fill:#784B20;}
	.st7{fill:#884A05;}
	.st8{fill:#492300;}
	.st9{fill:#D0D0D0;}
	.st10{fill:#FFFFFF;}
	.st11{fill:#DCCBB2;}
	.st12{fill:#FFECCF;}
</style>
<g transform="translate(-157.40993,-80.01731)">
	<g>
		<g>
			<g>
				<path class="st9" d="M339.3,282.8c0,15.3-3.8,29.2-10.1,39.7c-0.6-1-1.6-1.9-3.6-1.9c-2,0-3.1,0.9-3.6,1.9
					c-0.5-0.2-1.1-0.3-1.7-0.3c-2.4,0-4.3,1.9-4.3,4.3c0,0.3,0,0.6,0.1,0.9l0.5,2.6l0.2,0l-0.1,0.3c-0.3,0.5,0,1.2,0.6,1.8
					c0,0,0,0,0,0c-0.9,0.1-1.9,0.2-2.8,0.2c0,0-4.3,0-4.3,4.3c0,1.3,0.4,2.2,1,2.8c-3.3,1.4-6.7,2.1-10.3,2.1
					c-21.2,0-38.4-26.3-38.4-58.8s17.2-58.8,38.4-58.8c9,0,17.3,4.7,23.8,12.6c-4.2,0.5-7.5,4.1-7.5,8.5c0,2.8,1.4,5.3,3.5,6.9
					c1.1,3.5,4.3,6,8.1,6c2.4,0,4.5-1,6.1-2.5C337.7,263.6,339.3,272.9,339.3,282.8L339.3,282.8z"/>
				<path class="st10" d="M336.7,283.1c-0.1,14.6-3.7,27.8-9.5,37.7c-0.4-0.1-1-0.2-1.6-0.2c-2,0-3.1,0.9-3.6,1.9
					c-0.5-0.2-1.1-0.3-1.7-0.3c-2.4,0-4.3,1.9-4.3,4.3c0,0.3,0,0.6,0.1,0.9l0.5,2.6l0.2,0l-0.1,0.3c-0.3,0.5,0,1.2,0.6,1.8
					c0,0,0,0,0,0c-0.9,0.1-1.9,0.2-2.8,0.2c0,0-4.3,0-4.3,4.3c0,0.1,0,0.2,0,0.3c-3,1.2-6.1,1.9-9.3,1.9
					c-19.6-0.1-35.4-25.2-35.3-56c0.1-30.8,16.2-55.7,35.8-55.6c7.6,0,14.7,3.9,20.5,10.4c-2.8,1.4-4.7,4.3-4.7,7.6
					c0,2.8,1.4,5.3,3.5,6.9c1.1,3.5,4.3,6,8.1,6c1.4,0,2.7-0.3,3.9-0.9C335.3,264.8,336.7,273.7,336.7,283.1L336.7,283.1z"/>
			</g>
			<path class="st10" d="M333.8,215.1c-0.5,2.7-0.1,4.8-0.5,7.2l-0.6,0.6c-0.3,0.2-0.5,0.4-0.7,0.7l-0.7,0.7c-1.8,1.7-4,4.7-6.2,6
				c-2.5,1.4-6.3,1.9-9,2.8c-10.1-0.1-20.3,1-30-2c-2-0.6-4.3-0.8-6.1-1.9c-2.2-1.2-4.4-4.3-6.2-6c-0.6-0.6-1.4-0.9-1.8-1.6
				c-0.6-1-0.5-2.2-1.1-3.2c-1-1.6-3.5-2.1-4.3-3.9c-0.3-0.7,0.2-1.4,0.2-2.2c0.1-2.1,0-4.2,0-6.3c0-3.9-0.7-8.5,0-12.3
				c0.2-1.1,0.9-2.1,1.1-3.2c0.7-3.7,0.8-8.3,3-11.7c1.7-2.8,4.4-3,6.9-4.4c2.9-1.6,4.2-4.4,7.9-4.9c3.6-0.5,8.3,0,11.9,0
				c0,0,2.5,0,2.8-2.3c2-0.1,4-0.2,5.7,0.1c5.6,0.9,11,3.8,16,6.1c1,0.5,2.2,0.4,3.1,0.9c2.2,1.2,6.7,5.5,8,7.6
				c1.7,2.7,1.3,5.7,1.9,8.6c0.1,0.6,1.9,5.4,2.2,6.3c0,2.7,0.5,6,0,8.7C336.5,208.8,334.3,211.8,333.8,215.1L333.8,215.1z"/>
			<path class="st10" d="M333.8,215.1c-0.5,2.7-0.1,4.8-0.5,7.2l-0.6,0.6c-0.3,0.2-0.5,0.4-0.7,0.7l-0.7,0.7c-1.8,1.7-4,4.7-6.2,6
				c-2.5,1.4-6.3,1.9-9,2.8c-10.1-0.1-20.3,1-30-2c-2-0.6-4.3-0.8-6.1-1.9c-2.2-1.2-4.4-4.3-6.2-6c-0.6-0.6-1.4-0.9-1.8-1.6
				c-0.6-1-0.5-2.2-1.1-3.2c-1-1.6-3.5-2.1-4.3-3.9c-0.3-0.7,0.2-1.4,0.2-2.2c0.1-2.1,0-4.2,0-6.3c0-3.9-0.7-8.5,0-12.3
				c0.2-1.1,0.9-2.1,1.1-3.2c0.7-3.7,0.8-8.3,3-11.7c1.7-2.8,4.4-3,6.9-4.4c2.9-1.6,4.2-4.4,7.9-4.9c3.6-0.5,8.3,0,11.9,0
				c0,0,2.5,0,2.8-2.3c2-0.1,4-0.2,5.7,0.1c5.6,0.9,11,3.8,16,6.1c1,0.5,2.2,0.4,3.1,0.9c2.2,1.2,6.7,5.5,8,7.6
				c1.7,2.7,1.3,5.7,1.9,8.6c0.1,0.6,1.9,5.4,2.2,6.3c0,2.7,0.5,6,0,8.7C336.5,208.8,334.3,211.8,333.8,215.1L333.8,215.1z"/>
			<path class="st10" d="M304.5,276.6c-0.5,0.4-1.4,0.8-2.5,0.1c-1.8-1.2-0.6-3-0.6-3l4.3-1.9c4.2,4.2,7.7,8.7,10.9,13.7
				c3.2,5.4,5.3,11,7.1,17c1.6,5,3.1,9.9,3.9,15c0.6-2,1.9-3.3,5.5,0.5c0.4,0.5,0.3,1.7,0.1,3.2c0.4,0.3,0.6,0.7,0.7,1.2l0.5,2.1
				l-0.1,0l0.2,0.2c0,0.3,0,0.6,0,0.8c1,0.4,1.6,1.2-0.2,2.6c-0.1,1.2-0.3,2.3-0.5,3.4l0.1,0.3l-0.1,0l0.2,0.2c0,2.7,0,5,1,7.5
				c0.3,0.8,1,1.4,1.1,2.2c0,0.1,0,0.1,0,0.2l0.1,0l1,4.1c0,0.2,0.1,0.4,0.1,0.6c0,1.2-1,2.1-2.1,2.1v3c0.3,0.7,0.5,1.4,0.5,2.1
				c0.5,4.9,0.6,10,0.5,14.9l-0.1,0.2l0.1,0l-0.5,2.1c-0.2,0.9-1.1,1.7-2.1,1.7c-0.5,0-1-0.2-1.4-0.5c-0.1,0-0.1,0-0.2,0
				c-0.6,0-1.2-0.3-1.6-0.7c-0.4,0.4-1,0.7-1.6,0.7h-2.5c-0.8,0.2-1.6,0.8-2.3,0.5c-0.2-0.1-0.3-0.1-0.5-0.2l0,0.1l-2.1-0.5
				c0,0-0.1,0-0.1,0l-2-0.5c-0.9-0.2-1.7-1.1-1.7-2.1c0-0.8,0.5-1.5,1.2-1.9c-0.3-0.2-0.7-0.6-1-1c-0.7-0.3-1.3-1.1-1.3-1.9v-0.2
				c-0.5-1.1-1-2.3-1.4-3.1c-0.4-0.9-1.3-1.6-1.2-2.6c0,0,0,0,0,0c0,0-0.1,0-0.1,0c-1.5-0.2-1.3-2.7-2-4.1c-0.7-1.6-1.1-3.1-1.4-4.5
				c-1.8-3-1.4-6.1-1.4-9.9c0,0,0-0.1,0-0.2c-0.5-0.5-1-1.3-1.5-2.4c-0.4-0.8,0.3-2.9,1-4.4c-2.7-5.9-5.3-11.8-7.6-17.8l-1.6-2.9
				c-0.2-0.3-0.3-0.7-0.3-1.1c0-1.2,1-2.1,2.1-2.1c0.7,0,1.3,0.3,1.7,0.9l2.5,3.4l0,0c0,0,0,0,0,0c1,0.9,3.5,5.5,4.4,6.7
				c0,0,0.1,0.1,0.1,0.1c0.1,0,0.2,0,0.3,0c0.7,0,1.4,0.4,1.7,0.9l2,2.7l0,0l0.1,0c0.4,0.6,0.8,1.2,1.1,1.8c0.3-0.1,0.6-0.2,0.9-0.2
				c0.1,0,0.3,0,0.4,0c-0.6-1.4-1.2-2.9-1.8-4.4l-0.3-0.8c-0.1-0.2-0.2-0.3-0.2-0.5l-1-2.5c-0.1-0.3-0.2-0.5-0.2-0.8
				c0-1.2,1-2.1,2.1-2.1c0.9,0,1.7,0.6,2,1.4l0.8,2.1l0,0l0.1,0.2c0.5,0.7,1,1.3,1.4,2.1c0.4-0.3,0.8-0.5,1.3-0.5c0,0,0.1,0,0.1,0
				c-0.1-0.5-0.1-1.1-0.1-1.6v-2.7c0-1.1,0.8-2,1.9-2.1c-0.8-3.4-1.8-6.6-2.9-10c-1.7-5.6-3.7-11-6.7-16
				C310.5,283.7,307.7,280,304.5,276.6L304.5,276.6z M310.9,339.1c-0.1,0-0.1,0-0.2-0.1c0.1,0.2,0.2,0.3,0.3,0.4
				C311.1,339.3,311,339.2,310.9,339.1L310.9,339.1z M310.2,335.6l0.9-0.9c-0.1-0.2-0.2-0.4-0.3-0.6
				C310.6,334.5,310.3,335,310.2,335.6C310.2,335.6,310.2,335.6,310.2,335.6z M322.8,327.4c0,0.2,0.1,0.3,0.1,0.5
				c0.1-0.6,0.2-1.3,0.2-1.9c-0.2,0.1-0.4,0.3-0.6,0.3L322.8,327.4z M323,367.5c0.3-0.3,0.6-0.5,1.1-0.6l2.1-0.5l0,0.1
				c0,0,0.1,0,0.1-0.1l-1-1.7c-0.1,0-0.1,0-0.2,0c-0.2,0-0.4,0-0.5-0.1v0.1c0,1.1-0.8,2-1.8,2.1C322.8,367.1,322.9,367.3,323,367.5
				L323,367.5z"/>
			<g>
				<path class="st10" d="M340,238.8c3.9,1.7,7.6,4,10.7,6.9c5.7,5.3,9.8,12.1,14.7,18c2.4,4.1,5,8.3,7.6,12.2l1,2.3c0,0,0,0,0,0
					c0.3,0.2,0.5,0.6,0.7,1.1c0.9,0.2,1.6,1.1,1.6,2.1v0.3c0.6-0.1,1.4,0,2,0.9c1.2,1.8-0.6,3-0.6,3c-2.8,1.7-7.9,2.9-11,0.9
					c-0.6-0.4-1.2-1-1.7-1.8c-1.3-0.2-1.6-1.7-1.6-1.7c-0.2-0.7-0.4-1.5-0.6-2.1c-0.9-1.7-1.7-3.4-2.5-5.1c-1-1.6-2.2-3.1-3.4-4.8
					c-3.3-4.5-6.2-9.5-10.9-12.7c-1.3-0.9-2.8-1.2-4.1-2c-2.1-1.3-2.3-2.2-4.3-2.6c-0.3,0.2-0.8,0.3-1.3,0.2
					c-0.1,0.1-0.2,0.1-0.3,0.1c0.9-1.3,1.4-2.9,1.4-4.6c0-2.8-1.4-5.3-3.5-6.9c-1.1-3.5-4.3-6-8.1-6c-0.8,0-1.6,0.1-2.3,0.3
					c0.3-0.3,0.6-0.6,1.1-0.7l2.1-0.6l0,0.1c0.1,0,0.2-0.1,0.3-0.1c2.1-0.8,5.4,0.4,7.9,1.3c0.6,0.2,1.2,0.4,1.7,0.6l2.7,0.9
					C339.2,238.4,339.6,238.5,340,238.8L340,238.8z M349.1,250.5c-0.1,0-0.3,0.1-0.4,0.1c0.8,0.8,1.6,1.6,2.5,2.3
					C350.5,252.1,349.8,251.3,349.1,250.5L349.1,250.5z"/>
				<path class="st9" d="M323.8,235.4l2.1-3.1c2.9,0,4.9,0.7,7.5,1.7c7.5,2.7,14.6,5,20.3,10.7c2.9,2.9,4.8,6.5,7.3,9.5
					c4.9,7.4,10.5,14.1,14.5,22c1.1,2.1,3.8,4.6,3.6,7.2c-0.2,6-8.1,7.1-12.3,5c-1.7-0.8-3-2.6-3.8-4.4c-1.5-2.7-3.7-5.3-5-8.1
					c-1-2.1-1.2-4.2-2.6-6.2c-1.8-2.5-4.3-4.4-6.5-6.5c-3.4-3.1-7.7-6.4-12.5-6.3c0,0-1.5,0-2-1.3c0.9-0.8,1.6-1.8,2.1-3
					c8.6,0.2,17.6,7.8,22.4,14.6c1.6,2.2,1.9,4.5,3,6.8c1.2,2.7,3.4,5.4,4.9,8c0.9,2.5,2.4,3,5.1,2.9c0.7,0,3.2-0.2,3-1.6
					c-0.2-1.7-2.4-3.7-3.2-5.2c-3.9-7.7-9.3-14.2-14.1-21.4c-2.4-2.9-4.2-6.4-6.9-9.1c-5.3-5.3-11.9-7.3-18.8-9.7
					c-1.7-0.6-2.9-1.1-4.4-1.3c0,0,0,0.1-0.1,0.1c-0.6-0.1-1.3-0.2-1.9-0.2c-0.5,0-1,0-1.5,0.1C323.8,236.1,323.8,235.4,323.8,235.4
					L323.8,235.4z"/>
			</g>
			<path class="st11" d="M296.2,282.2c0,0.2-0.1,0.3-0.3,0.3s-0.3-0.1-0.3-0.3s0.1-0.3,0.3-0.3S296.2,282,296.2,282.2z"/>
			<path d="M288.4,197.3c0,2.1-1.9,3.9-4.2,3.9c-2.3,0-4.2-1.7-4.2-3.9s1.9-3.9,4.2-3.9C286.5,193.4,288.4,195.1,288.4,197.3z"/>
			<path d="M320.1,197.9c0,2.1-1.9,3.9-4.2,3.9c-2.3,0-4.2-1.7-4.2-3.9s1.9-3.9,4.2-3.9C318.2,194.1,320.1,195.8,320.1,197.9z"/>
			<path d="M308.2,211.9c2.1,0,2.1,2.1,2.1,2.1l-0.1,1.4c-1.1,3.2-2.4,6.1-5.8,7.3c-2.5,0.9-5.3-0.3-7.6-0.7
				c-4.4-0.7-8.1-1.5-11.9-4c0,0-1.8-1.2-0.6-3s3-0.6,3-0.6c3.2,2.2,6.5,2.7,10.3,3.4c1.7,0.3,3.9,1.3,5.7,0.8c1.9-0.6,2.5-3,3-4.5
				L306,214C306,214,306,211.9,308.2,211.9L308.2,211.9z"/>
			<path class="st9" d="M333.7,215.1c0.6-3.3,2.8-6.3,3.3-9.5c0.5-2.7,0-5.9,0-8.7c-0.3-0.9-2.1-5.7-2.2-6.3
				c-0.5-2.8-0.2-5.9-1.9-8.5c-1.3-2.1-5.8-6.4-8-7.6c-0.9-0.5-2.1-0.5-3.1-0.9c-4.9-2.3-10.3-5.2-16-6.1c-1.8-0.3-3.8-0.2-5.7-0.1
				c-0.3,2.3-2.8,2.3-2.8,2.3c-3.5,0-8.2-0.6-11.8,0c-3.7,0.5-5,3.3-7.9,4.9c-2.6,1.5-5.2,1.7-6.9,4.4c-2.2,3.4-2.3,8-3,11.7
				c-0.2,1.1-0.9,2.1-1.1,3.2c-0.7,3.8,0,8.4,0,12.3c0,2.1,0.1,4.2,0,6.3c0,0.7-0.5,1.5-0.2,2.2c0.7,1.7,3.2,2.3,4.3,3.8
				c0.6,0.9,0.5,2.2,1.1,3.2c0.4,0.7,1.2,1.1,1.8,1.6c1.8,1.7,4,4.7,6.2,6c1.8,1,4.1,1.2,6.1,1.9c9.6,3,19.9,1.9,29.9,2
				c2.7-0.9,6.6-1.4,9-2.8c2.2-1.2,4.4-4.3,6.2-6l0.7-0.7c0.2-0.3,0.5-0.5,0.7-0.7l0.6-0.6C333.7,219.8,333.2,217.8,333.7,215.1z
				 M296.3,162.2c3.3,0,7.2-0.5,10.5,0c6.1,1,12.1,4,17.5,6.6c1.1,0.5,2.5,0.6,3.6,1.2c0.3,0.2,4.5,4.1,5,4.6
				c0.5,0.5,4.7,4.4,4.9,4.7c2.1,3.3,2,6.9,2.6,10.5c0.4,2.2,1.5,4.2,2.2,6.3c0,3.2,0.6,7.2,0,10.4c-0.6,3.3-2.8,6.3-3.3,9.5
				c-0.6,3.6,0,6.3-1.2,9.9l-1.4,0.7l-1.5,1.4c-2.1,2-4.6,5.3-7.2,6.7c-3,1.7-7.7,2.5-11.1,3.5c-10.9,0.1-22.1,1.1-32.6-2.2
				c-0.7-0.2-6.9-2.2-7.3-2.4c-2.8-1.6-8.1-6.6-9.8-9.3c-0.6-0.9-0.5-2.2-1.1-3.2c-1.1-1.8-3.8-2.6-4.7-4.6
				c-1.1-2.5-0.2-7.7-0.2-10.5c0-4.2-0.7-9,0-13.1c0.2-1.1,0.9-2.1,1.1-3.2c0.8-4.4,1.2-9.6,3.7-13.6c0.2-0.3,5-4.9,5.4-5.1
				c1-0.6,2.3-0.5,3.3-1.1c3.6-2,5.4-4.9,10-5.6c2.6-0.4,5.9-0.3,8.9-0.2C294,162.2,296.3,162.2,296.3,162.2L296.3,162.2z"/>
			<path class="st12" d="M263.8,253.1c1.1-0.4,2.3-0.7,3.5-0.9c0,0,2.1-0.3,2.4,1.8c0.3,2.1-1.8,2.4-1.8,2.4
				c-1.3,0.2-2.6,0.6-3.8,1.1l-2-3.8C262,253.8,262.8,253,263.8,253.1L263.8,253.1z"/>
			<g>
				<path class="st10" d="M265.7,237.8l2.7-0.9c0.6-0.2,1.2-0.4,1.7-0.6c2.5-0.9,5.8-2.1,7.9-1.3c0.1,0,0.2,0.1,0.3,0.1l0-0.1
					l2.1,0.6c0.9,0.2,1.6,1.1,1.6,2.1c0,0.9-0.5,1.6-1.2,1.9c0,0.1,0,0.3,0,0.5c0,1.2-1,2.1-2.1,2.1c-0.2,0-0.4,0-0.6-0.1
					c-0.2,0.9-1.1,1.6-2,1.6c0,0.1,0,0.2,0,0.3c0,0.9-0.5,1.6-1.2,1.9c-0.2,0.8-0.8,1.4-1.5,1.6c0.4,0.4,0.7,0.9,0.7,1.5
					c0,1.2-0.9,2.1-2.1,2.1c0,0.1,0,0.2,0,0.3c0,1.2-1,2.1-2.1,2.1c-0.4,0-0.8-0.1-1.1-0.3c-0.5,0.1-1,0-1.3-0.2
					c-2,0.4-2.2,1.3-4.3,2.6c-1.3,0.8-2.8,1.2-4.1,2c-4.7,3.2-7.6,8.2-10.9,12.7c-1.3,1.7-2.4,3.3-3.4,4.8c-0.8,1.8-1.6,3.4-2.5,5.1
					c-0.2,0.7-0.4,1.4-0.6,2.1c0,0-0.3,1.4-1.6,1.7c-0.5,0.7-1.1,1.4-1.7,1.8c-3.1,2-8.2,0.8-11-0.9c0,0-1.8-1.2-0.6-3
					c0.6-0.9,1.4-1.1,2-0.9v-0.3c0-1,0.7-1.8,1.6-2.1c0.1-0.5,0.4-0.9,0.7-1.1c0,0,0,0,0,0l1-2.3c2.6-3.9,5.3-8.1,7.6-12.2
					c4.9-5.9,9-12.8,14.7-18c3.1-2.9,6.8-5.1,10.7-6.9C265.2,238,265.7,237.8,265.7,237.8L265.7,237.8z M253.6,252.4
					c0.8-0.8,1.6-1.6,2.5-2.3c-0.1,0-0.2,0-0.4-0.1C255,250.7,254.3,251.6,253.6,252.4L253.6,252.4z"/>
				<path class="st9" d="M278.8,237c-0.9,0-1.4-0.4-1.7-0.8c-1.5,0.2-2.7,0.7-4.4,1.3c-6.9,2.4-13.4,4.4-18.8,9.7
					c-2.7,2.7-4.5,6.2-6.9,9.1c-4.8,7.2-10.2,13.7-14.1,21.4c-0.8,1.5-3,3.5-3.2,5.2c-0.2,1.4,2.3,1.6,3,1.6
					c2.7,0.2,4.1-0.3,5.1-2.9c1.5-2.6,3.7-5.3,4.9-8c1.1-2.3,1.4-4.7,3-6.8c4.9-6.8,13.9-14.4,22.5-14.6c0,0,2.1,0,2.1,2.1
					s-2.1,2.1-2.1,2.1c-4.8-0.1-9.1,3.1-12.5,6.3c-2.2,2-4.7,4-6.5,6.5c-1.4,2-1.6,4.1-2.6,6.2c-1.3,2.8-3.5,5.4-5,8.1
					c-0.8,1.8-2.1,3.6-3.8,4.4c-4.2,2.1-12.1,0.9-12.3-5c-0.1-2.6,2.6-5.1,3.6-7.2c3.9-7.9,9.5-14.6,14.5-22
					c2.6-3.1,4.5-6.7,7.3-9.5c5.8-5.8,12.9-8.1,20.3-10.7c2.7-1,4.7-1.7,7.5-1.7l2.1,3.1C281,234.8,281,237,278.8,237L278.8,237z"/>
			</g>
			<path class="st10" d="M319.5,253.3c-0.2,0.1-0.4,0.1-0.6,0.1c-1,0-1.8-0.7-2.1-1.6l-0.9-3.1l0,0c0,0,0-0.1-0.1-0.1
				c-0.6-1.2-0.4-2.6-0.7-3.9l0-0.1l0,0l-0.3-2.8c0-0.1,0-0.2,0-0.3c0-1.2,1-2.1,2.1-2.1c0.4,0,0.8,0.1,1.1,0.3
				c0.2-0.7,0.4-1.4,0.9-1.9c3-3.8,10.9-1.5,13.6,1.8c0.6,0.7,0.9,1.3,1.1,1.8c0.5-0.2,1-0.1,1.5,0.2c1.2,0.8,1.5,2.6,1.4,4.3
				c0.7,0.4,1.5,0.7,1.8,1.4c0.6,1.1,0.4,2.5,0.3,3.7c-0.3,4.1-2.6,4.7-6.1,5.9c-0.9,0.3-1.9,0.4-2.9,0.3v0.4h-2.2
				c-0.6,0-1.1-0.2-1.5-0.6c-0.4,0.2-0.9,0.4-1.3,0.6v0.7c0,1.2-1,2.1-2.1,2.1c-1.1,0-2-0.8-2.1-1.9l-0.3-2.1
				C320,255.5,319.7,254.4,319.5,253.3L319.5,253.3z M334.5,251.2c-0.4,0.5-0.9,0.9-1.3,1.4c0.6-0.1,1.1-0.3,1.4-0.7
				C334.7,251.7,334.6,251.4,334.5,251.2z M331.2,247C331.1,247,331.1,247,331.2,247C331.1,247.1,331.1,247,331.2,247
				C331.2,247,331.2,247,331.2,247z"/>
			<path class="st9" d="M334,255.9c0.3-0.3,0.6-0.5,0.6-0.5l1.6-1l2.1-1.2c0.3-0.2,0.7-0.3,1.1-0.3c1.2,0,2.1,1,2.1,2.1
				c0,0.8-0.4,1.4-1,1.8l-1.8,1.2l0,0l0,0.1c-0.7,0.4-1.5,0.9-2.2,1.3c0,0-1.9,1.1-2.9-0.8C332.7,257.2,333.5,256.3,334,255.9
				L334,255.9z"/>
			<path class="st9" d="M333,237c-0.6,2-2.6,1.5-2.6,1.5l-2-0.6c-3.3-0.5-6.8,0.8-10.1,1.3c0,0-2.1,0.3-2.4-1.8
				c-0.3-2.1,1.8-2.4,1.8-2.4c4-0.6,7.6-1.8,11.6-1.2l2.3,0.7C331.6,234.3,333.6,234.9,333,237z"/>
			<path class="st9" d="M329.8,333.9L329.8,333.9c-0.5-2.1-1.6-4.4-2.1-6.4c-0.1-0.3-0.1-5.2-0.1-5.8c0,0,0-0.9,0.6-1.5l0-1.1
				c0,0,0-2.1,2.1-2.1s2.1,2.1,2.1,2.1l-0.1,1.1c0.6,2.7,0.3,5,0.6,7.7c0.2,1.5,0.9,2.8,1.1,4.3c0.4,3.9,0,8,0,12
				c0,2.7,0.3,5.1,0.5,7.8c0.4,4-0.4,8.2,0,12.2c0.2,1.9,0.7,3.7,1,5.6c-1,1-1.7,2.5-3.1,3.1c-0.9,0.4-2-0.4-3-0.5
				c-1.8-0.2-3.6-0.1-5.3,0c-1.2,0-2.5,0.9-3.5,0.2c-1.1-0.7-1.1-2.3-1.5-3.4c-0.7-2-1.3-4.1-2.1-6.2c-1.3-3.5-3.8-6.2-5.3-9.4
				c-1.8-4-2-9.5-2.8-13.8c0,0-0.3-1.5,0.9-2.2c0.3-0.5,0.8-0.9,1.8-0.9c2.1,0,2.1,2.1,2.1,2.1c0,2.4,0.4,4.1,1,6.4l0-0.5
				c0,0,1.4,1.4,0.2,2.8c0.2,1.4,0.2,2.9,0.8,4.2c0.3,0.7,1,1.2,1.4,1.8c1.6,2.4,2.9,5.2,4,7.9c0.5,1.4,1.1,2.8,1.6,4.3
				c0.3,0.8,0.6,1.5,0.6,2.4c0,0.3-0.7,0.8-0.4,0.8c0.4,0,0.4-0.7,0.8-0.8c2.1-0.4,4.3-0.3,6.4,0c0.5,0.1,1.1,0.8,1.4,0.5
				c-2.5-4.9-0.6-11-1.1-16.2c-0.6-5.7,0-11.6-0.3-17.4C329.8,334.4,329.8,333.9,329.8,333.9L329.8,333.9z"/>
			<path class="st10" d="M274,318.5c1.2,0,2.1,1,2.1,2.1c0,0.2,0,0.4-0.1,0.6c2.8,3,5.1,6.1,8,9l0.6,2c0,0,0,0.9-0.6,1.5
				c0,0.3,0,0.6,0,0.9c0.1,0.8,0.6,1.6,0.5,2.4c0,1.7-0.7,3-1.4,4.2c0.2,0.3,0.3,0.7,0.3,1.2c0,0.2,0,0.4-0.1,0.6l-0.5,2.1l-0.1,0
				c0,0.2-0.1,0.4-0.1,0.6c-0.1,0.6-0.9,0.8-1.3,1.3c0,0.1,0,0.2-0.1,0.4l-0.5,2.1l-0.1,0c0,0.1,0,0.2,0,0.2c0,0.3-2,3.8-2.1,4.3
				c-0.8,2.2-1.5,3.9-2.7,5.8c0,0,0,0.1,0,0.1l-0.1,0.1c-0.1,0.2-0.3,0.4-0.4,0.5l0.1,0.1l-0.3,0.3l-0.9,1.8
				c-0.2,0.4-0.5,0.7-0.9,0.9c0,0.1,0,0.1,0,0.2l-0.5,2.6l-0.3-0.1c0,0.9-0.1,1.9-0.2,2.8l0,0l0,0l-0.5,2.1c-0.1,0.4-0.3,0.8-0.6,1
				c0,0.1-0.1,0.2-0.1,0.3c0.2,0.4,0.2,0.8,0,1.1c-0.2,0.3-0.5,0.6-0.7,0.8c-0.1,0.1-0.1,0.2-0.2,0.3c-1.8,2.2-6.4,1-8.8,1.2
				c-0.8,0.1-1.6,0.8-2.3,0.5v0.6h-2.7c-1.2,0-2.1-1-2.1-2.1c0-0.7,0.4-1.3,0.9-1.7c-0.5-0.3-1-0.6-1.2-1.1c-0.6-1.1,2.2-6.5,2.6-8
				c2.6-5.1,2.7-10.9,4.2-16.4c0.8-2.8,1.9-5.5,2.6-8.4c0.9-3.6,1.6-8,3.4-11.2c0.4-0.7,1.2-1.1,1.7-1.8c0.7-1,0.7-2.4,1.3-3.5
				l0.5-2.1c0.2-0.9,1.1-1.7,2.1-1.7c0.1,0,0.1,0,0.2,0C272.9,318.7,273.4,318.5,274,318.5L274,318.5z"/>
			<path class="st9" d="M286.2,336.5c-1.5,6.2-3.2,12.3-6,18c-2.2,4.4-5.2,8.4-7.4,12.7c-1.3,2.5,0.3,8.1-2.2,9.8
				c-2.6,1.8-5,0.3-7.3-1c-1.3-0.1-2.6-0.2-3.3-0.2c-1.3,0-3,0.8-3.9-0.1c-0.5-0.5-0.5-1.1-0.4-1.8c-0.8-0.6-1.5-1.4-1.8-2.3
				c-0.4-1.1,0.3-2.3,0.6-3.4c0.9-3,3-5.3,3.7-8.3c0.4-1.5,1.2-3,1.7-4.5c0.1-0.3,0.2-0.6,0.2-0.9c0.1-0.3,0.1-0.5,0.1-0.8
				c0.6-5.9-0.4-11.8,1.7-17.5c1.4-3.7,3-7.4,4.9-10.9c1.2-2.2,3.1-3.6,3.5-5.9c0,0,0.5-2.1,2.6-1.6c2.1,0.5,1.6,2.6,1.6,2.6
				c0,0.1,0,0.2-0.1,0.2c0.2,0.7,0.1,1.3,0.1,1.3c-0.9,3.5-1.4,7.4-2.7,10.9c-1.1,3-3.1,5.6-4.3,8.5c-2.4,6.3-2.3,13.5-5.3,19.6
				c0,0.1,0,0.1-0.1,0.2c-0.7,2.7-1.7,5.7-2,8.4c0,0.3,0,0.5,0,0.8c0.1,0,0.2,0,0.3,0c0.9,0.1,1.8,0.3,2.6,0.6
				c0.4,0.1,0.9,0.4,1.5,0.7c0.8,0.1,1.5,0.1,2.1-0.1c0.3-0.1,0.5-0.6,0.5-0.9c0.2-1.8,0-3.6,0.5-5.3c0.8-2.5,2.5-4.6,3.9-6.8
				c2-3.2,2.9-6.9,4.6-10.3c0.4-1.5,1.1-2.8,1.6-4.2c1-3.1,1.2-6.1,2.7-9.1l0.5-1.9c0,0,0.5-2.1,2.6-1.6c2.1,0.5,1.6,2.6,1.6,2.6
				l-0.2,0.8L286.2,336.5z"/>
			<path class="st9" d="M301.6,310.5c0-1.2,1-2.1,2.1-2.1c1.2,0,2.1,1,2.1,2.1c0,1.2-1,2.1-2.1,2.1
				C302.6,312.6,301.6,311.7,301.6,310.5z"/>
		</g>
	</g>
</g>
</svg>
