<?xml version="1.0" encoding="utf-8"?>
<!-- Generator: Adobe Illustrator 22.0.1, SVG Export Plug-In . SVG Version: 6.00 Build 0)  -->
<svg version="1.1" id="Layer_1" xmlns="http://www.w3.org/2000/svg" xmlns:xlink="http://www.w3.org/1999/xlink" x="0px" y="0px"
	 viewBox="0 0 290 357.9" style="enable-background:new 0 0 290 357.9;" xml:space="preserve">
<style type="text/css">
	.st0{fill:#6D3B13;}
	.st1{fill:#5D0000;}
	.st2{fill:#884A14;}
	.st3{fill:#882414;}
	.st4{fill:#FF2458;}
	.st5{fill:#D12657;}
	.st6{fill:#784B20;}
	.st7{fill:#884A05;}
	.st8{fill:#492300;}
	.st9{fill:#D0D0D0;}
	.st10{fill:#FFFFFF;}
	.st11{fill:#DCCBB2;}
	.st12{fill:#FFECCF;}
</style>
<g>
	<polygon class="st1" points="105,218.4 104.6,229.4 183.4,234.2 182.3,221.1 	"/>
	<polygon class="st2" points="110.2,221.7 110.2,226.3 114.5,227.2 114.5,221.7 	"/>
	<polygon class="st2" points="118.3,221.7 118.3,226.3 122.6,227.2 122.6,221.7 	"/>
	<polygon class="st2" points="128.7,222.4 128.7,227 133,228 133,222.4 	"/>
	<polygon class="st3" points="137.2,217.1 137.2,232.2 150.8,235.4 150.8,217.1 	"/>
	<polygon class="st2" points="155.3,224 155.3,228.6 159.6,229.5 159.6,224 	"/>
	<polygon class="st2" points="165.1,224.5 165.1,229 169.4,230 169.4,224.5 	"/>
	<polygon class="st2" points="174.9,224.5 174.9,229 179.2,230 179.2,224.5 	"/>
</g>
</svg>
