<?xml version="1.0" encoding="utf-8"?>
<!-- Generator: Adobe Illustrator 22.0.1, SVG Export Plug-In . SVG Version: 6.00 Build 0)  -->
<svg version="1.1" id="Layer_1" xmlns="http://www.w3.org/2000/svg" xmlns:xlink="http://www.w3.org/1999/xlink" x="0px" y="0px"
	 viewBox="0 0 290 357.9" style="enable-background:new 0 0 290 357.9;" xml:space="preserve">
<style type="text/css">
	.st0{fill:#6D3B13;}
	.st1{fill:#5D0000;}
	.st2{fill:#884A14;}
	.st3{fill:#882414;}
	.st4{fill:#FF2458;}
	.st5{fill:#D12657;}
	.st6{fill:#784B20;}
	.st7{fill:#884A05;}
	.st8{fill:#492300;}
	.st9{fill:#D0D0D0;}
	.st10{fill:#FFFFFF;}
	.st11{fill:#DCCBB2;}
	.st12{fill:#FFECCF;}
</style>
<g>
	<path class="st4" d="M115.9,153.4c0,0-12.1,23.5,28.9,56.1c0,0,24.8-18.8,29.9-56.3C174.7,153.2,155.1,159.3,115.9,153.4z"/>
	<path class="st4" d="M115.9,153.4c0,0-16.7,4-24.6-3.9C91.3,149.5,113.6,145.4,115.9,153.4"/>
	<path class="st4" d="M115.8,152.9c0,0-12.9,9-24.5,4.5C91.3,157.4,109.3,146.5,115.8,152.9"/>
	<path class="st5" d="M130,172.4c0,0,18.8-5.1,27.7-1.2C157.7,171.2,148.7,173.4,130,172.4z"/>
	<path class="st5" d="M132.6,164.1c0,0,18.8-5.1,27.7-1.2C160.2,162.9,151.3,165,132.6,164.1z"/>
</g>
</svg>
