<?xml version="1.0" encoding="utf-8"?>
<!-- Generator: Adobe Illustrator 22.0.1, SVG Export Plug-In . SVG Version: 6.00 Build 0)  -->
<svg version="1.1" id="Layer_1" xmlns="http://www.w3.org/2000/svg" xmlns:xlink="http://www.w3.org/1999/xlink" x="0px" y="0px"
	 viewBox="0 0 290 357.9" style="enable-background:new 0 0 290 357.9;" xml:space="preserve">
<style type="text/css">
	.st0{fill:#6D3B13;}
	.st1{fill:#5D0000;}
	.st2{fill:#884A14;}
	.st3{fill:#882414;}
	.st4{fill:#FF2458;}
	.st5{fill:#D12657;}
	.st6{fill:#784B20;}
	.st7{fill:#884A05;}
	.st8{fill:#492300;}
	.st9{fill:#D0D0D0;}
	.st10{fill:#FFFFFF;}
	.st11{fill:#DCCBB2;}
	.st12{fill:#FFECCF;}
</style>
<g>
	<path class="st6" d="M104.9,73.3c1.2,12.1,77.1,24.6,80.2,0C186.6,61.2,102.7,51,104.9,73.3z"/>
	<path class="st7" d="M121.6,76.8c0,0-0.3-29,12.1-29.8c12.5-0.8,8.5,8.6,15.6,7.4c7-1.2,8.6-10.9,15.2-9.3s5.7,31.7,5.7,31.7"/>
	<path class="st8" d="M122.1,69.6c0,0,42.6,6.3,48.1,0v9.5c0,0-43.4,1.1-46.5-1.3C120.6,75.4,122.1,69.6,122.1,69.6z"/>
</g>
</svg>
