<svg id="23385e2c-feab-47a2-9736-87f153b467ad" data-name="Layer 1" xmlns="http://www.w3.org/2000/svg" viewBox="0 0 290 357.9"><title>baby</title><path d="M189.1078,114.5115a2.2489,2.2489,0,0,1-2.2435,1.3692,2.4485,2.4485,0,0,1-2.5-2.5,36.8737,36.8737,0,0,0-.9-9.301c-.1483-.6383.1238-1.4976-.3674-1.9312-.6563-.5793-1.796-.1908-2.5466-.6412-2.3531-1.4118-3.67-4.6466-6-6-.9115-.5294-2.1186-.4218-3-1-3.282-2.1526-5.4524-7.215-3.9954-11.0833.4453-1.1822,1.6641-1.9026,2.542-2.8111a13.2423,13.2423,0,0,1,2.4534-2.3588c3.893-2.3473,8.4484-1.8335,12.5238-3.2451,2.5561-.8264,4.6835-1.92,7.515-1.021,3.6366,1.1541,3.4113,2.5,5.8605,4.4594,3.4337,2.7469,5.9833,3.7426,6.8827,8.5328.8049,4.2864-.2932,8.7114-1,12.801-.3672,2.1249.9422,5.6066-.7,7.3673-1.0056,1.0782-2.93.37-4.3673.7-.8973.2063-1.7235.6553-2.61.904-.6615.1857-1.5617-.1133-2.0228.3961-.5875.6489-.0406,1.91-.6412,2.5465-1.29,1.3682-3.134,2.0792-4.701,3.1188l-.1821-.3023Z" fill="#845d27"/><path d="M203.8987,91.0387a42.1384,42.1384,0,0,1-1.4051,5.881,46.0978,46.0978,0,0,1-.3586,7.1718c-.2035,1.3565.3043,2.597-.465,3.8885-.7349,1.2339-2.3241,1.7467-3.4888,2.4059-3.1953,1.8087-4.8648,1.8936-8.5793,1.8943q-.0109.5258-.0118,1.0429a.75.75,0,1,1-1.5,0q0-.1909.0019-.3831a.711.711,0,0,1-.5648.0189.7345.7345,0,0,1-.4744-.9487c.2485-.7442.5039-1.4972.7588-2.258a.82.82,0,0,1-.0009-.709q.1959-.3916.4063-.7886a15.9207,15.9207,0,0,0-1.4755-7.8511c-1.3093-2.4261-4.281-4.8657-6.0634-7.1156-1.6957-3.3725-4.2683-7.0011-5.44-10.5163l-.3365-.6687a.75.75,0,1,1,1.3417-.6709l.3806.7656c1.1462,3.4386,3.6718,6.9687,5.3177,10.2818,1.8564,2.293,4.7231,4.7353,6.1286,7.2279a12.587,12.587,0,0,1,1.44,4.5445,28.43,28.43,0,0,0,1.0954-10.56c-.1629-1.4129-1.2725-2.6879-1.7415-4.1074-1.8513-3.6906-6.318-8.6237-5.4158-13.01.27-1.3126,1.4309-1.6647,1.8521-2.6732l1.56.1637a.7345.7345,0,0,1,0,1.0606.6755.6755,0,0,1-.7938.1742,3.1729,3.1729,0,0,0-1.1581,1.6193c-.7441,3.8817,3.6985,8.7946,5.3418,12.0913.4013,1.1949,1.0831,2.1748,1.5115,3.2818-.0446-1.1348-.0858-2.2589-.0858-3.3534,0-2.38.4874-5.3825.02-7.7166-.5377-2.6856-1.2519-5.1327-.34-7.94l-.0385-.1215a.75.75,0,0,1,1.5,0l-.0384.5958c-.86,2.5-.0986,4.7414.377,7.1208.4929,2.4664.02,5.552.02,8.0613,0,3.6409.4363,7.5934-.0056,11.2078-.3524,2.8824-1.9172,5.5964-3.3019,8.19q-.0833.254-.167.5063-.0047.2225-.0105.4448c1.6712-1.1741,4.36-1.93,5.7579-3.2735.786-.7551.6781-2.6987.9111-3.6309.7635-3.0538.3123-6.32-.299-9.3751-.9552-4.0129-1.1395-9.6617.7144-13.3694l1.0294-.4146a.7345.7345,0,0,1,.75.75.7.7,0,0,1-.626.7371c-1.4936,3.4037-1.264,8.4435-.4029,11.9741a31.503,31.503,0,0,1-.0525,11.4058c-.1451,1.0183-.0887,2.08-.8985,2.9139a14.757,14.757,0,0,1-4.5791,3.0662c-.6868.3023-1.4754.2039-1.914.7084,3.1719-.0034,4.5056-.0777,7.3466-1.6914.8877-.5043,2.3871-.9445,2.9657-1.8972.5981-.9848.0994-2.2191.2522-3.2832a50.9379,50.9379,0,0,0,.3586-7.1717c.47-1.88,1.4483-4.4313,1.4287-6.363l1.1086-.75a.7345.7345,0,0,1,.75.75.6746.6746,0,0,1-.3934.6652Z" fill="#62441c"/><path d="M100.4141,137.6632a2.374,2.374,0,0,1,1.6386-2.9376,2.4484,2.4484,0,0,1,3.1622,1.5812c.511,1.6758,1.8675,2.9656,2.7549,4.4762,1.0679,1.8177.933,4.1818,2,6,1.8606,3.17,5.5566,3.4122.3352,8.3424-1.12,1.0572-5.4023.2042-7.0613.44-1.35.1916-2.664,1.34-3.9749.9653-3.6-1.03-4.0647-5.3224-6.1933-7.6653-.9324-1.0262-2.5041-1.8163-2.6654-3.1934a7.4676,7.4676,0,0,1,1.6654-5.3421c.9013-1.11,2.6155-1.1689,3.9772-1.604C97.4778,138.27,98.98,137.2381,100.4141,137.6632Z" fill="#ceebed"/><path d="M87.8339,143.5973a3.3715,3.3715,0,0,1,.2416-.2677,2.4484,2.4484,0,0,1,3.5355,0c2.2943,2.2943,5.605,4.83,6.6249,8.0433.7974,2.5122-.1335,5.4092-1.083,7.6811-.9989,2.39-1.9075,4.8237-3.0639,7.1417-1.3958,2.798-3.2382,5.0757-3.7781,8.3021-.4874,2.9128.0323,6.6751.0323,9.5995v16a37.3388,37.3388,0,0,0,1.9677,11.6l-.1059.4h.1382v3a2.5,2.5,0,0,1-4.2678,1.7678l-1.8567-1.8567a15.7072,15.7072,0,0,1-3.1433-2.1433,12.9409,12.9409,0,0,1-2.848-4.89c-.4487,2.209-1.796,5.1391-.9915,7.398.3595,1.0092,1.3724,1.6686,1.8531,2.626.09.18,2.0022,5.9368,2.1259,6.3078l.9816,2.9447a2.5007,2.5007,0,0,1-3.7685,2.9071l-2.9715-1.981.08-.12a6.869,6.869,0,0,1-.68-.4432c-.91-.6753-.5585-2.23-1.14-3.2031-.5494-.9194-1.7889-1.3618-2.1831-2.3577-.4367-1.1032.0434-2.3868-.158-3.5562-.3578-2.0776-1.6545-3.92-2-6-.5411-3.2568.477-6.747,0-10-.1529-1.0429-.8322-1.9594-1-3-.4715-2.9232.5015-6.0983,0-9-.18-1.0387-.8322-1.9594-1-3-1.0388-6.4408-.0323-13.8887-.0323-20.4005.0329-3.4666.72-8.11,2.3245-11.2317,1.2612-2.4542,4.5246-4.1955,6.2421-6.3532,1.503-1.8883,2.5049-4.6855,4.9767-5.7248,1.2172-.5117,2.6378-.1268,3.9567-.19Z" fill="#845d27"/><path d="M90.1162,197.4393a2.4269,2.4269,0,0,1-1.7286-.1276c-.0256,1.0208-.0444,2.0342-.0444,3.0356a3.1152,3.1152,0,0,1-.2.9912c1.6916,4.6014,3.6185,9.164,4.1842,14.0661a2.5,2.5,0,1,1-4.9694.5521c-.52-4.9077-2.4759-9.4769-4.1892-14.0936.0962,1.9029.1728,3.8344.1739,5.8176a2.571,2.571,0,0,1-4.0886,2.0046c2.3385,6.2569,5.0712,12.4539,5.0886,18.9954a2.5,2.5,0,0,1-5,0c.0208-6.7945-3.1264-11.6582-5.1939-17.8434a56.6043,56.6043,0,0,1-2.8012-14.0013,24.3318,24.3318,0,0,1,.0573-3.6488,2.8989,2.8989,0,0,1-.7288-1.84c0-8.4094-2.6281-16.21-2.9969-24.5421-.161-3.6353-1.3769-6.97.2272-10.506,2.0391-4.4947,6.9844-6.5089,9.483-10.61l.2172-.46a2.5,2.5,0,0,1,4.4722,2.2361l-.45.8736c-2.4358,3.8214-7.211,6.0315-9.1836,10.0564-1.1563,2.3593.1231,5.7215.2272,8.1607.0406.9526.1107,1.8985.2029,2.8394a78.3324,78.3324,0,0,1,.4862-9.6916l2.814-2.19a2.5708,2.5708,0,0,1,2.0019,4.092,104.3351,104.3351,0,0,0-.2545,12.5614,108.5653,108.5653,0,0,0,3.7713-17.1255c.5771-4.6072.3229-7.7815,3.1136-11.8143l1.8677-1.5469a2.4485,2.4485,0,0,1,3.5.5,2.3638,2.3638,0,0,1,.5332,1.8222,2.2652,2.2652,0,0,1,1.6335,2.3444,3.3618,3.3618,0,0,1-.0244.4114,2.3355,2.3355,0,0,1,1.9816-.1164,2.4485,2.4485,0,0,1,1.5811,3.1623l-.3333,1a22.1957,22.1957,0,0,0-1.205,7.8761,2.4485,2.4485,0,0,1-2.5,2.5,2.907,2.907,0,0,1-.9306-.14c-.9291,3.504-3.9082,6.142-4.6095,9.7529q-.0366.1884-.063.3784a2.5759,2.5759,0,0,1,2.0284,1.9025c.624,2.53,2.188,4.9367,2.69,7.4371.678,3.3753.2628,7.3745.6984,10.8592l.278,1.0371a2.4485,2.4485,0,0,1-1.819,3.0317ZM86.8037,156.113q.0316.0282.0632.0581c.0644-.9616.102-1.9243.1224-2.8672-.0862.8929-.116,1.8172-.1856,2.8091Zm-9.4574,38.0255a37.4757,37.4757,0,0,1,.5872-8.04,26.5527,26.5527,0,0,0-1.6226,5.3158c-.9692,5.4675.2622,10.6429,2.0294,15.7427-.0514-4.3821-.761-8.651-.994-13.0186Z" fill="#62441c"/></svg>