<svg id="5183490e-ed42-4692-822b-6f9da13cf07b" data-name="Layer 1" xmlns="http://www.w3.org/2000/svg" viewBox="0 0 289.9976 357.9312"><title>hair</title><path d="M143.06,81.5329s-17.8578,33.25-32.0073,36.4529-10.1871,0-10.1871,0,8.0658-57.8064,41.21-43.8492C145.0238,75.3782,143.06,81.5329,143.06,81.5329Z" fill="#f05d97"/><path d="M188.3667,127.3657S145.1358,100.8394,143.06,81.5329c-.4158-3.8677.6022-6.9013,3.5906-8.3464C158.58,67.4179,191.4023,82.4605,188.3667,127.3657Z" fill="#f05d97"/><path d="M188.6963,127.3657s-3.1809,18.692,22.65,26.5537C211.3465,153.9194,213.2158,132.82,188.6963,127.3657Z" fill="#f05d97"/><path d="M100.231,118.6011s3.1809,18.6921-22.65,26.5537C77.5808,145.1548,75.7115,124.0554,100.231,118.6011Z" fill="#f05d97"/><circle cx="102.1832" cy="120.0529" r="6.0196" fill="#7dcaae"/><circle cx="188.5721" cy="127.3657" r="6.0196" fill="#7dcaae"/></svg>