<svg id="5e80a0bd-8ec7-4d05-bc58-268da994d7f9" data-name="Layer 1" xmlns="http://www.w3.org/2000/svg" viewBox="0 0 290 357.9"><title>baby</title><path d="M178.1949,190.37a32,32,0,0,1-.5869-4.3323,3.6885,3.6885,0,0,1-.23-1.05q.0092-.201.03-.4h-.0618v-.7856c-.1967-.9676-.81-1.8356-.9677-2.814-.2032-1.26.1349-5.9306-.0136-7.095-.6629-5.1986-1.98-10.0382-2.0187-15.3054a2.542,2.542,0,0,1,1.643-2.3833,16.9439,16.9439,0,0,0-2.143-.1167,2.4485,2.4485,0,0,1-2.5-2.5,2.276,2.276,0,0,1,.9693-2.0238,2.5344,2.5344,0,0,1,1.74-2.348c3.718-1.1335,5.5919-3.8121,7.71-7.015l.4658-.6987c-.6139-9.1246.58-18.62-.8534-27.5141a29.4965,29.4965,0,0,0-2.6589-8.0861c-.9649-1.62-3.0112-2.3945-4-4-.5528-.8975-.4577-2.0961-1-3-.4851-.8085-1.515-1.1916-2-2a14.6137,14.6137,0,0,1-1-3c-1.8987-1.7893-3.58-3.8914-5.9718-5.0686-2.3637-1.1631-3.8007-.6859-6.2159-2.1191-1.6524-.98-2.461-3.1011-4.41-3.7339a7.023,7.023,0,0,0-2.2755.1072c-2.7131.0552-5.9309-.4934-8.6-.0322-1.0387.18-1.96.8267-3,1a114.044,114.044,0,0,0-17.61,3.904,3.055,3.055,0,0,1-.7867.1249,2.4513,2.4513,0,0,1-3.3907.5835l-.0922-.0614a37.9118,37.9118,0,0,0-4.2561,5.0924l-.8932,2.6794-.2276-.0758-.0175.6a11.0058,11.0058,0,0,0-2.7549,4.4762,2.49,2.49,0,0,1-2.6,1.7164,6.5927,6.5927,0,0,1-.6453,1.8074c-.4223.6987-1.5058.8876-1.8169,1.6424-.2992.7257.2765,1.5708.1715,2.3487-.3286,2.4364-1.6019,4.6713-2.0135,7.095a33.522,33.522,0,0,0,.0323,5.6c0,3.6554-.653,8.0078-.0323,11.5995.257,1.4873.5726,2.96.8915,4.4324a3.4351,3.4351,0,0,1,1.6408-.5319c1.7361-.0736,3.0252,1.8415,4.1266,3.1856.6369.7773.6319,1.9.9689,2.8546a4.0881,4.0881,0,0,1,1.218,2.1056,26.0777,26.0777,0,0,0,1.9934,2.3938l.08-.12,2.9677,1.9785a2.5007,2.5007,0,0,1-.0752,4.25,2.92,2.92,0,0,1-1.4887,1.2233c-.6743.1321-1.537-.09-2.0228.3961s-.21,1.3613-.396,2.0228c-1.0621,3.7845-.8717,7.2474-.8717,11.2094,0,.4774.0094,6.1445-.0323,6.4-.82,5.0227-3.15,9.9963-4,15a33.51,33.51,0,0,0,.0323,5.6v15a25.8312,25.8312,0,0,1-.765,4.8309c.6528,2.9152,1.3227,5.8295,1.7327,8.7687.0713.5114.1213,1.0177.1555,1.52a27.0844,27.0844,0,0,0,3.4305,9.4546,2.4886,2.4886,0,0,1,.4463,1.4259v3H113.27q.0279.1989.0431.4c.1935,2.6065-3.4641,7.3388-5.8919,8.6016a2.7913,2.7913,0,0,1,.66.88,2.4484,2.4484,0,0,1-1.118,3.3541l-2.3275,1.1356c-1.6485.55-3.7139.2529-5.0228,1.3961-.3918.3422-.1261,1.0317-.2677,1.5383v2.6939a2.5,2.5,0,0,1-5,0v-3c.0012-.1326.0026-.2718.0043-.4167-.7226-.4278-.8838-1.0544.09-2.4274.0423-.5916.1049-1.2025.1985-1.8051a12.8978,12.8978,0,0,0-1.3877,1.5567,24.23,24.23,0,0,1-.9051,8.3951v2.6974a2.5,2.5,0,0,1-5,0v-3c-.5812-.8137-.005-2,0-3a18.9724,18.9724,0,0,1,.0323-3.4,10.4586,10.4586,0,0,1,.9144-2.73,52.2408,52.2408,0,0,1,.0856-9.27c.4464-3.082,2.5805-5.9322,3-9,.3375-2.4674.33-5.0206,1.096-7.39,1.4592-4.3774,3.1842-8.94,3.8905-13.5149.6074-3.9348.5934-8.14,1.1863-12.1292.4437-2.9853,1.3777-5.8844,1.8137-8.8708.4758-3.2593-.4562-6.729,0-10,.19-1.3612.8261-2.6367,1-4,1.0534-8.26-.0187-17.35-.0187-25.6946,0-2.6809.4882-5.9614.0322-8.6-.58-3.356-1.4581-6.6405-2-10-.4724-2.9292-.0322-6.4265-.0322-9.4005,0-2.9682-.4474-6.4784.0322-9.4a16.5262,16.5262,0,0,1,.7563-2.7462c-3.4732-2.477-4.57-4.9642-7.2219-8.2684-2.9548-3.6822-6.88-7.6011-5.57-12.9016a15.3694,15.3694,0,0,1,7.3846-12.9863,8.2306,8.2306,0,0,1,2.8042-2.8237c3.2658-2.0131,10.5528-3.6841,14.2711-2.183a58.3531,58.3531,0,0,1,4.811,4.5419l1.0338,1.2678h2.1985a2.4894,2.4894,0,0,1,1.4821.4864,20.3109,20.3109,0,0,1,2.5612-2.2961c1.2244-.4944,2.6367-.1542,3.9567-.19,2.9937-.0819,6.0049,0,9,0,8.6508,0,17.3119-.1416,25.9567.19l.6583.5953a14.2641,14.2641,0,0,1,4.0706-4.4123c.9615-.6032,2.2015-.61,3.216-1.1191,1.0742-.5391,1.9231-1.4664,3-2,6.3852-3.1643,14.6108-3.7773,19.8661,1.478a14.1771,14.1771,0,0,1,2.3589,2.4534c3.5624,5.9084,3.4036,13.13,3.3411,19.7148-.43,1.3313-2.0982,6.9166-3.006,7.6276-1.072.84-2.7264.1708-4.0613.44a11.7144,11.7144,0,0,0-6.6327,3.3l-.5657.15a42.7,42.7,0,0,1,2.2657,7.6821c1.3674,7.9727,1.0323,16.2088,1.0323,24.4,0,.3214-.0068.6509-.018.9865a2.503,2.503,0,0,1,.8712,2.8595l-.9815,2.9446-.0785-.0261a14.3715,14.3715,0,0,0,.1745,1.8351c.3479,2.0792,1.3514,3.994,2,6,0,2.4294-.32,3.1709.778,5.3021.6107,1.1849,1.7273,2.1087,2.147,3.3739.3489,1.0519-.1108,2.2314.075,3.324.1766,1.0392.8321,1.9593,1,3,.3184,1.9745-.3406,4.0292,0,6,.1795,1.0387.8321,1.9593,1,3,.3108,1.9274-.31,3.9313-.0227,5.8589a5.7269,5.7269,0,0,1,.2612.9844,11.7737,11.7737,0,0,1,.7615,2.1567c.4724,2.9291.0323,6.4265.0323,9.4,0,7.4666.0386,14.9343-.0323,22.4-1.7384,5.215-.9677,11.1112-.9677,16.6,0,9.9188-.5413,19.7,1.894,29.2764l.9592,2.8777a2.5,2.5,0,0,1-4.121,2.6137l-2-2,.0788-.0788q-.2269-.176-.4376-.3747c-1.1221-1.0632-1.1662-4.6-2-6a6.8471,6.8471,0,0,0-.38-.57,7.06,7.06,0,0,1-.4652,4.7178,1.9411,1.9411,0,0,1-.5216.5415c.5409,3.884.2385,8.02-4.5065,8.4967-1.5436.155-2.5836-1.73-3.7677-2.7322a10.58,10.58,0,0,1-2.3589-2.4534,18.5993,18.5993,0,0,1-1.2451-3.5238l-.1283-1.7906a2.5643,2.5643,0,0,1,1.5508-2.3535c-1.29-1.1226-1.7139-3.0775-2.3605-4.69-1.2318-3.0715-2.316-6.2478,1.64-7.9878a6.4393,6.4393,0,0,1-.457-.6545,7.7279,7.7279,0,0,1-.7433-2.0965,13.0756,13.0756,0,0,1-1.2194-1.7743,3.8364,3.8364,0,0,1-1.22-1.4869c-1.1512-3.0629-.3508-6.9762.6483-10.4722a29.09,29.09,0,0,1,.1937-5.8849c.52-3.13,2.1959-6.2444,3.0674-9.2985.4749-1.6642,1.1012-3.2936,1.5485-4.9637a2.5,2.5,0,0,1-2.3962-2.3556l-.2468-3.8206.05-.0032q-.0284-.1611-.05-.3239c-.0113-.0866,1.9476-9.8471,2.0042-10.13Q177.7524,192.3072,178.1949,190.37Zm8.92-12.3335q-.1182-.2563-.2278-.5158-.2072.6654-.41,1.3294a3.8017,3.8017,0,0,1,.3969.2755,1.68,1.68,0,0,1,.5506.8053q.0555-.0016.11-.0022C187.4033,179.297,187.262,178.6663,187.1148,178.0369ZM91.2385,92.3122a3.0179,3.0179,0,0,0-.004,1.4883,1.6285,1.6285,0,0,0,.5524.4694c-.1966-.6138-.3453-1.0853-.4088-1.2817l.1411-.4h-.1734v-.5113c-.0393.0766-.0753.1551-.1073.2357Zm9.1307,14.7493.0233.0219-.0017-.0293-.0216.0074Zm24.4333-25.164a2.8314,2.8314,0,0,0-.7533.4464c.6312-.158,1.2539-.2982,1.8783-.4271A1.8752,1.8752,0,0,0,124.8025,81.8975ZM189.3057,233.066a3.2607,3.2607,0,0,1,.04.5218q0,.1422-.0105.2737.0075.2748.01.543.0006-.408.0007-.8167c0-2.1774-.1132-4.4185-.1549-6.66a46.5059,46.5059,0,0,0,.1148,6.1378Zm.0078,10.1213.0178.1c-.02-2.7859.0056-5.5888.0128-8.415C189.3127,237.498,188.8736,240.6417,189.3135,243.1873ZM187.3119,184.57c-.0216.4861-.0522.9647-.1023,1.4228l.2847.0344c.07-.5256.264-1.1149-.11-1.4115a.3878.3878,0,0,0-.0721-.0457Zm-8.924,68.0118c-.001-.2824.001-.5433.0027-.7709a.5243.5243,0,0,0-.1117.351A4.1777,4.1777,0,0,0,178.3879,252.582Zm.935-23.643c.213-.4514.4352-.8948.6727-1.3262a1.1192,1.1192,0,0,0-.7167.5493A.9033.9033,0,0,0,179.3229,228.939Zm-79.8852,13.33a2.56,2.56,0,0,1-.1818.3036l.1773-.0954q.0029-.1045.0045-.2082Zm-5.5489,3.63a2.131,2.131,0,0,1-.7754.2332q-.015.2943-.0243.5883.4255-.3987.8528-.8l-.0531-.0213Zm7.2213,3.961c.1482-.05.2925-.0976.4314-.1438q-.1839-.1188-.3485-.2436-.0369.1935-.0829.3874Z" fill="#010101"/><path d="M94.9483,79.4861c-2.31,1.2111-.9831,3.5139-1.8019,5.83-.8932,2.5264-4.0294,4.5769-4.5177,7.1175a9.0447,9.0447,0,0,0,.4734,4.3107,15.1144,15.1144,0,0,1,3.1-8.0282,20.1934,20.1934,0,0,0,2.7154-4.8127,36.4459,36.4459,0,0,0,.8656-4.393Zm-5.8838,22.8807c-1.7979-2.7059-3.5534-7.1663-2.8689-10.5078.58-2.83,3.6174-4.6789,4.5952-7.38.5908-1.6322-.1765-3.4856.4372-5.03.5464-1.3755,1.989-1.83,3.1459-2.3951l1.737-.0334a1.3661,1.3661,0,0,1,.2243.0246,6.009,6.009,0,0,1,3.9369-4.31l1.3685.275a1.2311,1.2311,0,0,1,.6257,1.5265,36.6218,36.6218,0,0,1,3.06-2.047l1.5549-.2328a1.2242,1.2242,0,0,1,1.25,1.25q0,.0865-.0077.1653l1.8718.6631A1.3871,1.3871,0,0,1,109.51,75.36c-1.1673,2.4793-.5362,4.537-.3474,7.3635a20.723,20.723,0,0,1-1.3473,8.4836c-.6671,1.1761-1.0037,2.6043-1.9791,3.5408-1.7287,1.66-5.9154,1.8567-8.0778,3.0455-.4878.2681-1.699.7837-1.9005,1.55-.3307,1.2581.4428,3.0937.818,4.2133a18.2163,18.2163,0,0,0,.9636,2.9347,10.0561,10.0561,0,0,0,1.1767,1.6723c.0782-2.5011.4007-5.2237,1.6548-6.9978,2.5013-3.5387,7.7177-4.5592,9.6077-8.8834a9.4682,9.4682,0,0,0,.3162-3.8641c0-2.7385-.2415-7.391,2.4814-9.1555.7885-.511,1.8323-.4292,2.7227-.7291l.9205-.2339a1.25,1.25,0,1,1,.6064,2.4253l-.7364.18a16.9535,16.9535,0,0,0-2.248.5136c-1.6544.8138-1.2466,5.647-1.2466,6.9993,0,4.8829-1.8463,7.6644-5.6521,10.7145-1.258,1.0082-3.816,2.146-4.7212,3.4628-1.4857,2.1615-1.2251,6.36-1.2251,8.8123a1.2242,1.2242,0,0,1-1.25,1.25,1.1311,1.1311,0,0,1-1.0428-.5328,1.2713,1.2713,0,0,1-.1246-.1241l-.08-.0957a1.4385,1.4385,0,0,1-1.0124.0671,12.802,12.802,0,0,1-8.1693-9.1319,1.5414,1.5414,0,0,1-.5529-.4735ZM100.61,75.2824c-2.9931,1.4152-2.4247,6.5336-3.3062,9.3662A23.3884,23.3884,0,0,1,94.22,90.1915a11.7149,11.7149,0,0,0-1.7926,3.2138c1.3383-1.8734,3.2935-2.9387,4.7861-4.7422,3.1342-3.8933,1.6992-8.7638,4.0055-12.842a4.8541,4.8541,0,0,1,.3269-.5034,1.3865,1.3865,0,0,1-.936-.0353Zm6.2706-.5264-.1019-.2329c-.9134.65-2.8124,1.3827-3.35,2.4669-.7971,1.6087-.6459,3.314-.9066,5.0007A17.505,17.505,0,0,1,99.15,90.2443c-1.5882,1.8947-3.8586,2.9882-5.0469,5.19a9.3609,9.3609,0,0,0,.4178,10.05c-1.505-3.0956-2.1659-6.4267.0976-8.643,1.6281-1.5942,4.1746-2.2815,6.2747-2.9816.6158-.2052,2.8913-.5545,3.3044-1.0011a13.6242,13.6242,0,0,0,1.3347-2.6726c1.6839-5.1077-.36-10.6528,1.539-15.449A1.3042,1.3042,0,0,1,106.8808,74.756Z" fill="#242424"/><path d="M195.5106,97.1317a1.2207,1.2207,0,0,1,.0018,1.7659,4.97,4.97,0,0,1-1.6691,2.868c-1.0317.6918-2.4467.4469-3.6466.7685a36.7933,36.7933,0,0,0-6.4812,2.2913,1.1281,1.1281,0,0,1,.5628,1.0605,1.2242,1.2242,0,0,1-1.25,1.25c-.08,0-.3249,0-.6564.0008-.2931.0012-.7394.0032-1.2076-.0008-1.0009-.0024-2.0456-.01-2.1512-.0334-1.7232-.3766-3.2454-2.031-4.3723-3.2825a10.7872,10.7872,0,0,1-2.2792-3.8151,1.5046,1.5046,0,0,1-.6-.6018c-1.061-2.1336-2.5153-4.18-3.4745-6.4049a1.2339,1.2339,0,0,1-1.4962-.637c-.82-1.6465-2.4257-3.4143-2.791-5.2425-.9071-4.54,2.3-10.2181,4.2408-14.1015l2.2091-.1178a1.2244,1.2244,0,0,1,0,1.7678,1.448,1.448,0,0,1-.39.2849c-1.6838,3.2588-4.33,8.0823-3.6271,11.5922a6.8347,6.8347,0,0,0,1.0092,2.1932c.2442-3.5137,2.6063-6.9151,4.0994-9.8947,1.045-2.0853,1.9365-4.3818,2.8621-6.5393l.3968-1.1937.198-.594a1.2438,1.2438,0,0,1,.2247-.42,1.1248,1.1248,0,0,1,1.3177-.4128q.049.0141.0963.0321a1.1245,1.1245,0,0,1,.8053,1.121l.0009.0479a1.25,1.25,0,0,1-.0733.423l-.1979.5937-.4317,1.2916c-1.493,3.4867-3.2081,6.8187-4.8016,10.2378-1.0322,2.2148-2.6181,4.84-1.7981,7.3888a20.5933,20.5933,0,0,0,1.8512,3.9218c.6755-4.5336,3.4673-9.1722,5.3281-13.3657,1.2091-3.0233,2.7221-6.3359,3.2523-9.55l.4415-1.3366a1.25,1.25,0,0,1,2.3717.79l-.3869,1.1487c-.5616,3.337-2.1193,6.7795-3.3753,9.9191-1.62,3.6392-4.74,8.3889-5.3052,12.8189q.024-.09.05-.18c1.0582-3.6312,4.5866-7.642,6.5051-10.99,1.8982-4.437,2.9172-9.1358,7.6018-11.5378l.487-.3363a1.25,1.25,0,1,1,1.3867,2.08l-.7557.4923c-4.0734,1.968-4.8641,6.6471-6.4819,10.4161-1.0675,1.8732-2.02,3.8938-3.1728,5.7086-1.4556,2.2927-3.7577,4.2378-3.3359,7.23a5.2107,5.2107,0,0,0,.5009,1.5642c1.0434-2.8243,3.1194-5.1219,5.44-7.4375.9678-.9658,3.0786-1.8672,3.7566-3.0789,1.7575-3.1414,1.2916-6.716,3.4244-9.893a40.1465,40.1465,0,0,0,2.8489-3.2486l.795-1.1926a1.25,1.25,0,0,1,2.2872.492l.2037,1.2224a1.2242,1.2242,0,0,1-1.0275,1.4385,1.3542,1.3542,0,0,1-.61-.0241,35.2094,35.2094,0,0,1-2.5636,2.8974c-1.9679,2.9778-1.4253,6.6032-3.2032,9.5758-.9268,1.55-2.87,2.3017-4.1138,3.5487-2.5653,2.5716-4.962,5.0632-5.3827,8.573q.083.1281.1624.2567a2.57,2.57,0,0,1,.2095.4487c2.24-1.03,6.06-2.2107,6.6988-3.8221.5478-1.3822.48-3.23.7395-4.6822.7324-4.1027,3.2758-6.6767,7.1725-7.9756l1.162-.5845a1.25,1.25,0,1,1,1.118,2.236l-1.3233.6582c-3.099,1.033-5.0935,2.8081-5.6686,6.1081-.2771,1.59-.2008,3.7821-.9173,5.2593q-.0283.0582-.0582.1154c1.4743-.2136,3.2683-.303,4.2566-.8541a7.2284,7.2284,0,0,0,.7233-1.8232l.5091-.6957a1.2243,1.2243,0,0,1,1.7678,0Zm.0522,1.6129.0426-.1266Q195.584,98.681,195.5628,98.7446Z" fill="#242424"/><path d="M134.0951,80.2784a1.2242,1.2242,0,0,1-1.677.559l.35-.0922c-3.9769.6626-8.021,1.89-10.92,4.8288a1.25,1.25,0,0,1-1.7678-1.7678c3.3309-3.293,7.7456-4.7714,12.2768-5.5269l1.1787.322a1.2243,1.2243,0,0,1,.559,1.6771Z" fill="#242424"/><path d="M139.8191,83.0332a1.2242,1.2242,0,0,1-1.25,1.25H129.87a1.25,1.25,0,0,1,0-2.5h8.6987a1.2242,1.2242,0,0,1,1.25,1.25Z" fill="#242424"/><path d="M147.2752,79.5123a1.2242,1.2242,0,0,1-1.25,1.25h-7.456a1.25,1.25,0,0,1,0-2.5h7.456A1.2242,1.2242,0,0,1,147.2752,79.5123Z" fill="#242424"/><path d="M156.5925,82.691a1.2242,1.2242,0,0,1-1.7334.3467L154.15,82.56a5.4976,5.4976,0,0,0-2.9455-1.6071,1.25,1.25,0,1,1,.411-2.466,8.42,8.42,0,0,1,4.0963,2.1209l.5338.35A1.2242,1.2242,0,0,1,156.5925,82.691Z" fill="#242424"/><path d="M161.5587,87.39a1.2242,1.2242,0,0,1-1.25-1.25V80.9621a1.25,1.25,0,0,1,2.5,0V86.14A1.2242,1.2242,0,0,1,161.5587,87.39Z" fill="#242424"/><path d="M116.8777,85.0489a1.2244,1.2244,0,0,1,0,1.7678l.027-.1178c-.6788,1.2606-.4894,2.1518-.4894,3.5833a1.25,1.25,0,0,1-2.5,0,9.3675,9.3675,0,0,1,.7533-4.7013l.4413-.532a1.2243,1.2243,0,0,1,1.7678,0Z" fill="#242424"/><path d="M102.3536,135.0257a1.2243,1.2243,0,0,1-1.279-1.22l-.0261-1.1747c-.387-5.4252-1.01-10.57-1.01-16.0451a1.25,1.25,0,0,1,2.5,0c0,5.4228.619,10.4924,1.0034,15.867l.0319,1.2941a1.2243,1.2243,0,0,1-1.22,1.279Z" fill="#242424"/><path d="M101.4958,155.7374a1.2242,1.2242,0,0,1-1.25-1.25V141.4392a1.25,1.25,0,0,1,2.5,0v13.0481a1.2242,1.2242,0,0,1-1.25,1.25Z" fill="#242424"/><path d="M106.4042,158.7121a1.2242,1.2242,0,0,1-1.677-.559l-.3189-.75c-.6957-3.8284-.3946-7.63-1.0388-11.4093a1.25,1.25,0,0,1,2.466-.411c.62,3.7919.3366,7.5483,1.0324,11.3731l.0953.0789a1.2241,1.2241,0,0,1-.559,1.677Z" fill="#242424"/><path d="M112.6176,150.8418a1.2242,1.2242,0,0,1-1.677-.559l-.3363-.6942c-.9326-1.434-2.1942-2.0854-3.2671-3.4555a16.88,16.88,0,0,1-2.2636-5.1271,1.25,1.25,0,0,1,2.3717-.7906c1.1868,3.567,3.2356,5.0376,5.2392,7.9865l.4922.9628a1.2242,1.2242,0,0,1-.559,1.677Z" fill="#242424"/><path d="M115.1653,153.0449a1.2242,1.2242,0,0,1-1.25-1.25V150.138a1.25,1.25,0,0,1,2.5,0v1.6569a1.2242,1.2242,0,0,1-1.25,1.25Z" fill="#242424"/><path d="M107.9353,161.68a1.2242,1.2242,0,0,1-.7906-1.5811l.143-.2261v-8.4917a1.25,1.25,0,0,1,2.5,0v8.4917l-.2713,1.0166A1.2242,1.2242,0,0,1,107.9353,161.68Z" fill="#242424"/><path d="M101.49,183.0035a1.2242,1.2242,0,0,1-.7567-1.5976l.1947-.5452c2.0193-5.514.768-12.8883.768-18.71a1.25,1.25,0,0,1,2.5,0c0,6.2055,1.15,13.6475-.9136,19.5509l-.1948.5453A1.2242,1.2242,0,0,1,101.49,183.0035Z" fill="#242424"/><path d="M105.4237,182.4477V167.95a1.25,1.25,0,0,1,2.5,0v14.9122l-1.25-.2071-1.25.2071v-.4142a1.25,1.25,0,0,1,2.5,0l-1.25.2071Z" fill="#242424"/><path d="M110.1643,170.43a1.2242,1.2242,0,0,1-1.4143-1.0606l-.2165-1.538q-.0027-1.7011-.0031-3.4024a1.25,1.25,0,0,1,2.5,0q0,1.6127-.0032,3.2252l.1977,1.3616A1.2242,1.2242,0,0,1,110.1643,170.43Z" fill="#242424"/><path d="M103.7741,225.3128a1.2242,1.2242,0,0,1,1.25,1.25l-.0642.019c2.3033,7.4756-8.4272,13.8235-9.48,20.8979a1.2243,1.2243,0,0,1-1.4385,1.0275,1.6758,1.6758,0,0,1-.2116-.0491q-.1194.4382-.2611.8683l-.35.3126v1.1561l-.2444,1.1316a1.2756,1.2756,0,0,1-1.065.9556,1.5273,1.5273,0,0,1,.0667.3981c0,4.052.6227,8.66-.4623,12.5631L91.0581,267a1.25,1.25,0,1,1-2.3212-.9284l.3729-.9148c1.0646-3.6022.3661-8.1144.3661-11.8763a1.2308,1.2308,0,0,1,1.0914-1.2429,1.5432,1.5432,0,0,1-.0185-.7171l.17-.5253V249.327a1.0826,1.0826,0,0,1,0-.4589v-8.0145a1.2242,1.2242,0,0,1,1.25-1.25,1.7014,1.7014,0,0,1,.1967.0111c-.0521-2.2685-.204-4.5275-.204-6.6314a1.25,1.25,0,0,1,2.5,0c0,1.0634.0319,2.1548.0692,3.2615a162.355,162.355,0,0,0,.33-16.31,1.25,1.25,0,0,1,2.5,0c0,4.0741.11,8.2382-.0636,12.3721l.0008-.0007.0854.1664c2.374-9.44.3769-20.3037.3769-29.9354a1.25,1.25,0,0,1,2.5,0c0,2.0265.0824,4.0991.1925,6.1973V187.4184a1.25,1.25,0,0,1,2.5,0v30.4457a1.4973,1.4973,0,0,1-.2793.8222c.0212-.0007.0429-.0011.0649-.0011a1.2242,1.2242,0,0,1,1.25,1.25c0,1.808-.07,3.6027-.2377,5.3778l.0233,0Zm-5.6755,11.4628a28.5292,28.5292,0,0,0,1.3827-3.2574l-.4154.5562a1.2243,1.2243,0,0,1-1.7678,0q-.047-.0471-.0875-.094c-.106,1.7-.2692,3.3919-.5171,5.0677.2975-.4516.6006-.8971.9044-1.335q.2616-.4623.5007-.9375Zm3.39-16.84a1.4973,1.4973,0,0,1,.2794-.8223q-.0319.0012-.0649.0012a1.265,1.265,0,0,1-.7318-.2015,58.1561,58.1561,0,0,1-.6964,11.9945,43.946,43.946,0,0,0,1.2137-10.9719Z" fill="#242424"/><path d="M105.2239,212.2793a1.2242,1.2242,0,0,1-1.25-1.25v-10.77a1.25,1.25,0,0,1,2.5,0v10.77A1.2242,1.2242,0,0,1,105.2239,212.2793Z" fill="#242424"/><path d="M105.431,190.5324a1.2242,1.2242,0,0,1-1.25-1.25v-2.4853a1.25,1.25,0,0,1,2.5,0v2.4853a1.2242,1.2242,0,0,1-1.25,1.25Z" fill="#242424"/><path d="M104.3954,196.5387a1.2242,1.2242,0,0,1-1.25-1.25v-1.45a1.25,1.25,0,1,1,2.5,0v1.45A1.2242,1.2242,0,0,1,104.3954,196.5387Z" fill="#242424"/><path d="M108.7666,237.2965a1.2243,1.2243,0,0,1,.4288,1.715l-.7442,1.2059a26.7388,26.7388,0,0,1-2.8281,2.828,1.2242,1.2242,0,0,1-1.7625-.1355,1.6576,1.6576,0,0,1-.1361-.1817c-.8632,1.4585-1.7256,2.9185-2.6112,4.3683-1.1741,1.9221-3.5321,4.1371-4.2066,6.29-.61,1.9473.04,5.26.04,7.35a1.25,1.25,0,0,1-2.5,0c0-2.3311-.6457-5.78.04-7.9768.7672-2.4586,3.1549-4.7776,4.4922-6.9648,2.2346-3.6549,4.3216-7.3749,6.6416-10.9773a1.304,1.304,0,0,1,.567-1.2175l.1674.0938.1073-.1613.1615.3119,1.9186,1.0748c-1.0548,1.5822-2.0544,3.1918-3.0325,4.8129q.5411-.5535,1.0434-1.1419l.4985-.8652a1.2243,1.2243,0,0,1,1.715-.4288Z" fill="#242424"/><path d="M103.07,248.2474a1.2242,1.2242,0,0,1,.559-1.677l1.2682-.6338c1.2475-.5544,3.8177-1.2139,4.8481-2.0518,1.3438-1.0928.8559-6.2469.8559-7.7947a1.25,1.25,0,0,1,2.5,0c0,2.6479.4763,7.5812-1.6294,9.6028a8.1568,8.1568,0,0,1-2.3375,1.28l-.5415.7706a20.2965,20.2965,0,0,1-8.1517,5.48,1.25,1.25,0,1,1-.7906-2.3717,14.3135,14.3135,0,0,0,3.9429-2.0313,1.2562,1.2562,0,0,1-.5234-.5732Z" fill="#242424"/><path d="M110.25,234.6957a1.2243,1.2243,0,0,1-1.7678,0l-.4412-.532c-2.9432-5.9392-3.0316-13.534-3.0316-20.0277a1.25,1.25,0,0,1,2.5,0c0,6.06-.0281,13.3765,2.7677,18.91l-.0271-.1178A1.2243,1.2243,0,0,1,110.25,234.6957Z" fill="#242424"/><path d="M194.7042,214.3431a1.25,1.25,0,0,1-2.5,0,76.9185,76.9185,0,0,0-1.6367-14.4814l-.0683.2461a1.3005,1.3005,0,0,1-.3126-1.3164,1.2251,1.2251,0,0,1-1.466-.9213,74.2606,74.2606,0,0,1-1.6817-7.3753l-.0125-1.2124a1.3374,1.3374,0,0,1,.6018-1.1q-.0619-.1842-.1235-.3688a51.3839,51.3839,0,0,1-2.2565-10.889,1.174,1.174,0,0,1-.907.3525,1.2242,1.2242,0,0,1-1.25-1.25c0-4.5746,1.3459-11.5542-1.7972-15.374l-.4437-1.3062a1.25,1.25,0,0,1,2.4254-.6063l-.03.3507a10.4374,10.4374,0,0,1,1.6073,2.9665c.0874-3.6862.2382-7.36.29-10.964-.0325.0289-.0527.0441-.0527.0441l-.46.18c-1.4082,2.814-2.1895,5.3228-5.6745,5.4546a1.25,1.25,0,0,1,0-2.5c2.0719.1409,2.6089-2.4122,3.4384-4.0726l.5665-.503a1.52,1.52,0,0,1-.349-.1762,1.2242,1.2242,0,0,1-.3466-1.7334l.3053-.42c1.7708-4.1281,1.5559-7.6545,1.5559-12.1415,0-3.1006.66-6.4843.2192-9.561-.8726-6.0916-3.74-11.2537-3.74-17.5709a1.25,1.25,0,0,1,2.5,0c0,6.1615,2.8658,11.26,3.716,17.2242.4577,3.2106-.195,6.6754-.195,9.9077,0,4.8182.1535,8.6618-1.758,13.1263l-.3334.5241a1.0911,1.0911,0,0,1,.6261.3083q.0008-.2486.0008-.4964a1.25,1.25,0,0,1,2.5,0c0,3.1825-.1146,6.4407-.221,9.7271h.0066a1.2242,1.2242,0,0,1,1.25,1.25l-.017.0016a38.6,38.6,0,0,0,1.2094,4.8249c1.6063,5.6607,1.7591,11.9352,2.5238,17.7841.4765,3.6447,2.083,6.4864,2.083,10.32a1.25,1.25,0,0,1-2.5,0c0-3.7116-1.5757-6.4138-2.0592-9.9767-.7766-5.7217-.8542-11.8933-2.4469-17.4252q-.1053-.3512-.2079-.7c-.1162,7.717.2255,15.4285,2.5934,22.5285,1.4724,4.417,3.0773,8.6358,4.3655,13.1l.0481.9648a1.286,1.286,0,0,1-.7606,1.1715,69.8185,69.8185,0,0,1,1.1748,12.0837Z" fill="#242424"/><path d="M182.27,140.8105a1.2242,1.2242,0,0,1,1.25,1.25l-.0641,1.4309c-1.4965,4.4894-3.303,7.7453-7.0327,10.7293a1.25,1.25,0,0,1-1.5617-1.9521c3.3492-2.6791,4.8775-5.5323,6.2227-9.5678l-.0642-.64A1.2242,1.2242,0,0,1,182.27,140.8105Z" fill="#242424"/><path d="M186.4948,242.78l.2723.6066c1.3936,1.8944.9483,3.2228,1.0992,5.4559.2533,3.7478.21,7.506.21,11.2727a1.25,1.25,0,0,1-2.5,0c0-3.7078.0387-7.4067-.204-11.0955-.1-1.5212.5287-2.91-.5577-4.0714l-.321-.6062a1.5436,1.5436,0,0,1-.36.04,1.2242,1.2242,0,0,1-1.25-1.25v-9.23c-1.6991,2.9841-1.4351,6.9494-1.4351,10.2658a1.25,1.25,0,0,1-2.5,0q0-.3531-.0006-.7085a1.1339,1.1339,0,0,1-1.0277.5087,1.2242,1.2242,0,0,1-1.25-1.25c0-.3515-.0149-.7267-.0344-1.1147a1.145,1.145,0,0,1-1.201.9149,1.2242,1.2242,0,0,1-1.25-1.25c0-4.3071-1.2737-9.2792-.3887-13.5066a100.3253,100.3253,0,0,1,3.1453-10.5l.44-1.1045a1.2243,1.2243,0,0,1,1.6248-.6964,1.5188,1.5188,0,0,1,.3406.186,25.4055,25.4055,0,0,0,.4348-3.2708c.3881-6.681.0187-13.509-.0032-20.2089-.3917,4.4084.0136,9.05.0136,13.4773a1.25,1.25,0,0,1-2.5,0c0-4.54-.4035-9.29.0062-13.8082.3625-3.9988,1.3752-7.8232,2.0484-11.73a1.1378,1.1378,0,0,1-1.0117.4845,1.2242,1.2242,0,0,1-1.25-1.25c0-6.0359.2679-11.8318-1.4017-17.6755l-.4913-.7359a1.2243,1.2243,0,0,1,.4287-1.715,1.1916,1.1916,0,0,1,1.66.3485,1.2412,1.2412,0,0,1,.6594-.4624,1.2241,1.2241,0,0,1,1.5811.7905l.2543.8112c.7059,4.323,2.691,8.4444,2.7095,12.8394,0,6.0387-1.89,11.5921-2.586,17.47a1.1249,1.1249,0,0,1,1.1289-.7011,1.2242,1.2242,0,0,1,1.25,1.25c0,6.3306.3776,12.8136.0978,19.1607a11.0709,11.0709,0,0,1,.9816-1.8073,1.5126,1.5126,0,0,1-.0585-.37V190.9393c0-2.7095.5346-5.8455-.571-8.3473l-.2405-1.3887a1.25,1.25,0,0,1,2.466-.4109l.1737,1.0967c1.1594,2.7809.6717,6.0645.6717,9.05v.8537l.6965.0371a22.0478,22.0478,0,0,1,1.8655,9.6138,1.1292,1.1292,0,0,1,1.1588-.7776,1.2242,1.2242,0,0,1,1.25,1.25c-.0039,7.2563,1.7313,14.6461.8829,21.846a1.382,1.382,0,0,1,.56-.1064,1.2242,1.2242,0,0,1,1.25,1.25v18.64a1.25,1.25,0,0,1-2.5,0V227.4643q-.2007.7659-.4542,1.5279l-.5668,1.171V240.735a1.26,1.26,0,0,1,.2072.74,1.2242,1.2242,0,0,1-1.25,1.25l-1.4572-1.25V230.08a1.595,1.595,0,0,1,.2164-.935l.5354-1.0961a28.4064,28.4064,0,0,0,1.2544-9.5966c-.8041.9326-1.62,1.8516-2.4358,2.77a1.32,1.32,0,0,1-.336,1.2544l-.051.0166c-1.6855,2.5077-1.24,4.8043-1.24,7.7837v11.7888a1.312,1.312,0,0,1,1.1107.7149Zm-3.6107-12.5037c0-1.5793-.0684-2.9818.0377-4.3215-1.0995,1.3465-2.1555,2.7347-3.1326,4.201a1.25,1.25,0,1,1-2.08-1.3867,65.9707,65.9707,0,0,1,5.1236-6.5692,1.2419,1.2419,0,0,1-.9841-1.2291c0-1.4065-.1161-2.9475-.1568-4.488a35.3184,35.3184,0,0,0-1.0713,7.18v.2072a1.25,1.25,0,1,1-2.5,0v-.2072a19.2672,19.2672,0,0,1,.1862-2.5847c-.7845,2.3923-1.551,4.8764-2.0611,7.1855-.7,3.1705-.0009,6.9812.3087,10.4584a7.582,7.582,0,0,1,.1365-1.1985c.3553-1.7218,1.4806-3.0363,2.1521-4.6187l.6793-.8057a1.2307,1.2307,0,0,1,1.65-.1076,10.5057,10.5057,0,0,1,1.249-1.5488l.4629.2365v-.4033Zm5.1925-18.8327a1.25,1.25,0,0,1-2.5,0c0-.4671.0089-.9448.0237-1.4313A7.2847,7.2847,0,0,0,184.508,212.2c-.6488,2.5145-.218,5.6368-.1647,8.2779,1.4252-1.6112,2.8622-3.2144,4.2464-4.8765a1.1248,1.1248,0,0,1-.2312-1.3081,1.1424,1.1424,0,0,1,.7953-.7523c-.2815-3.1364-.68-6.2766-.8272-9.3625C188.2491,206.6753,188.0766,209.149,188.0766,211.4436Zm-2.2782-5.7051.0075-.0078a49.7057,49.7057,0,0,0-.0075-6.7956Zm-5.8139-32.1967a18.2693,18.2693,0,0,0-.5422-4.2281c.1974,3.0616.1513,6.1446.1436,9.2913A35.1555,35.1555,0,0,0,179.9845,173.5418Z" fill="#242424"/><path d="M183.7919,252.8708a1.1494,1.1494,0,0,1-1.5291-.1156q-.0093.7192-.0209,1.4412a1.292,1.292,0,0,1,.6512-.2849,1.2241,1.2241,0,0,1,1.4384,1.0275,75.6618,75.6618,0,0,0,2.2364,10.3778,1.5052,1.5052,0,0,1,.266.8047l-2.4358.6024a66.7862,66.7862,0,0,1-2.1857-9.3365,36.364,36.364,0,0,0,1.478,11.5395l.2269,1.3385a1.25,1.25,0,0,1-2.466.411l-.1872-1.1469a25.48,25.48,0,0,1-.7079-2.5786q-.0718.0063-.15.0064a1.2242,1.2242,0,0,1-1.25-1.25l.017-.2088c-.6415-3.9287-2.59-7.6232-3.3072-11.5623-.5089-2.7955.6214-5.1656.5977-7.9047a1.25,1.25,0,0,1,2.5,0c-.0177,2.5-1.13,4.9293-.6449,7.4216a38.81,38.81,0,0,0,1.4058,4.9558c-.0309-2.5459.053-5.0994.053-7.6138a1.2283,1.2283,0,0,1,1.1287-1.246,12.2939,12.2939,0,0,1-.3-2.6892,1.25,1.25,0,0,1,2.5,0,10.9586,10.9586,0,0,0,.7643,3.9541l.2685.3232a1.2242,1.2242,0,0,1-.3467,1.7334Z" fill="#242424"/><path d="M180.0639,270.2683a1.2241,1.2241,0,0,1-1.7334-.3467l-.7975-1.1982a11.8678,11.8678,0,0,1-2.4711-4.33,1.25,1.25,0,1,1,2.4038-.6868,9.1352,9.1352,0,0,0,2.0854,3.5407l.8595,1.2871a1.2243,1.2243,0,0,1-.3467,1.7335Z" fill="#242424"/><path d="M194.4882,268.8043a1.2242,1.2242,0,0,1-1.4385-1.0275l-.2036-1.2228c-1.3639-6.8225-3.3832-13.6823-4.1552-20.5916a1.25,1.25,0,0,1,2.4848-.276c.7564,6.8482,2.7763,13.6547,4.1294,20.4169l.2106,1.2626A1.2241,1.2241,0,0,1,194.4882,268.8043Z" fill="#242424"/></svg>