<?xml version="1.0" encoding="utf-8"?>
<!-- Generator: Adobe Illustrator 22.0.1, SVG Export Plug-In . SVG Version: 6.00 Build 0)  -->
<svg version="1.1" xmlns="http://www.w3.org/2000/svg" xmlns:xlink="http://www.w3.org/1999/xlink" x="0px" y="0px"
	 viewBox="0 0 290 357.9" style="enable-background:new 0 0 290 357.9;" xml:space="preserve">
<style type="text/css">
	.st0{fill:#F2F2F2;}
	.st1{fill:#0071BC;}
	.st2{fill:#E6E6E6;}
	.st3{fill:#1A1A1A;}
	.st4{fill:#009245;}
	.st5{fill:#39B54A;}
	.st6{fill:#006837;}
	.st7{fill:none;}
	.st8{fill:#784B20;}
	.st9{fill:#884A05;}
	.st10{fill:#492300;}
	.st11{fill:#B3B3B3;}
	.st12{fill:#FFFFFF;}
	.st13{fill:#FAE849;}
	.st14{fill:#FBB03B;}
	.st15{fill:#F79239;}
	.st16{fill:#F15634;}
	.st17{fill:#F1F2F2;}
	.st18{fill:#F26135;}
	.st19{fill:#42190C;}
	.st20{fill:#C7B299;}
	.st21{fill:#F5D147;}
	.st22{fill:#CB3531;}
	.st23{fill:#11743B;}
	.st24{fill:#21B24B;}
	.st25{fill:#E53D25;}
	.st26{fill:#736357;}
	.st27{fill:#998675;}
</style>
<g id="Layer_1">
	<g>
		<path class="st0" d="M-622.6,76.8c0,0-3.5-26,7.1-32.5c7.8-4.8,12.6-5.3,22.9-4.9c7.1,0.3,7.8,1.1,12.8,5.7
			c5.8,5.3,5.7,31.7,5.7,31.7"/>
		<path class="st0" d="M-638,76l7.5,14.8c0,0,14.6-7.6,32.2-7.6c14.7,0,27.7,7.6,27.7,7.6l9.4-14.5c1.1-1.7,0.4-3.9-1.4-4.7
			c-6.3-2.8-20.5-8.4-35.7-8.4c-19.7,0-32.9,5.6-38.3,8.4C-638.1,72.5-638.8,74.5-638,76z"/>
		<path class="st1" d="M-599.4,42c0,0-14.5-1.5-19.5,7.7s-1.7,16.2-1.7,16.2s16.8-2.6,19.5-2.6L-599.4,42z"/>
		<path class="st1" d="M-598.2,63.3l1.3-22.1c0,0,11.3-1.9,17.2,5.5c3.8,4.8,2.4,19.7,2.4,19.7S-590.3,63.3-598.2,63.3z"/>
	</g>
	<g>
		<path class="st2" d="M-1014.5,171.1c0,0-4.3-106.2,24.6-108.8s19.1-6.8,35.4-10.8c16.3-4,20.2,8.8,35.6,14.1
			c15.3,5.3,22.7,115,22.7,115s-14.9-11.6-24.1-25.8c-7.7-11.8,1.3-53.6-31.2-55.5c-58-3.5-35.6,40.6-44.4,56.2
			C-997.9,159.1-1014.5,171.1-1014.5,171.1z"/>
		<path class="st3" d="M-1008.6,82.6c0,0,89.5,6.3,101.2,0v9.5c0,0-91.3,1.1-97.9-1.3S-1008.6,82.6-1008.6,82.6z"/>
	</g>
	<g>
		<path class="st4" d="M-1375.3,73.3c1.2,12.1,77.1,24.6,80.2,0C-1293.6,61.2-1377.5,51-1375.3,73.3z"/>
		<path class="st5" d="M-1358.6,76.8l-2.4-38.3c0,0,20.2-2.3,27.2-3.4c7-1.2,25.9,3.8,25.9,3.8l-2,37.9"/>
		<path class="st6" d="M-1358.1,69.6c0,0,42.6,6.3,48.1,0v9.5c0,0-43.4,1.1-46.5-1.3S-1358.1,69.6-1358.1,69.6z"/>
		<path class="st6" d="M-1322.6,52.4c0,0-1-5.1-4.6-3.1c-3.6,2,4.6,9.3,4.6,9.3s7.1-7.4,5.4-8.7
			C-1318.9,48.5-1322.6,52.4-1322.6,52.4z"/>
		<path class="st6" d="M-1328.7,58.7c0,0-5.1,1-3.1,4.6c2,3.6,9.3-4.6,9.3-4.6s-7.4-7.1-8.7-5.4C-1332.6,55-1328.7,58.7-1328.7,58.7
			z"/>
		<path class="st6" d="M-1316.3,58.5c0,0,5.1-1,3.1-4.6c-2-3.6-9.3,4.6-9.3,4.6s7.4,7.1,8.7,5.4
			C-1312.4,62.2-1316.3,58.5-1316.3,58.5z"/>
		<path class="st6" d="M-1322.4,64.8c0,0,1,5.1,4.6,3.1c3.6-2-4.6-9.3-4.6-9.3s-7.1,7.4-5.4,8.7
			C-1326.1,68.7-1322.4,64.8-1322.4,64.8z"/>
	</g>
	<g transform="translate(-157.40993,-80.01731)">
		<g>
			<g>
				<g>
					<path class="st7" d="M-1937,282.8c0,15.3-3.8,29.2-10.1,39.7c-0.6-1-1.6-1.9-3.6-1.9c-2,0-3.1,0.9-3.6,1.9
						c-0.5-0.2-1.1-0.3-1.7-0.3c-2.4,0-4.3,1.9-4.3,4.3c0,0.3,0,0.6,0.1,0.9l0.5,2.6l0.2,0l-0.1,0.3c-0.3,0.5,0,1.2,0.6,1.8
						c0,0,0,0,0,0c-0.9,0.1-1.9,0.2-2.8,0.2c0,0-4.3,0-4.3,4.3c0,1.3,0.4,2.2,1,2.8c-3.3,1.4-6.7,2.1-10.3,2.1
						c-21.2,0-38.4-26.3-38.4-58.8s17.2-58.8,38.4-58.8c9,0,17.3,4.7,23.8,12.6c-4.2,0.5-7.5,4.1-7.5,8.5c0,2.8,1.4,5.3,3.5,6.9
						c1.1,3.5,4.3,6,8.1,6c2.4,0,4.5-1,6.1-2.5C-1938.6,263.6-1937,272.9-1937,282.8L-1937,282.8z"/>
					<path class="st7" d="M-1939.6,283.1c-0.1,14.6-3.7,27.8-9.5,37.7c-0.4-0.1-1-0.2-1.6-0.2c-2,0-3.1,0.9-3.6,1.9
						c-0.5-0.2-1.1-0.3-1.7-0.3c-2.4,0-4.3,1.9-4.3,4.3c0,0.3,0,0.6,0.1,0.9l0.5,2.6l0.2,0l-0.1,0.3c-0.3,0.5,0,1.2,0.6,1.8
						c0,0,0,0,0,0c-0.9,0.1-1.9,0.2-2.8,0.2c0,0-4.3,0-4.3,4.3c0,0.1,0,0.2,0,0.3c-3,1.2-6.1,1.9-9.3,1.9
						c-19.6-0.1-35.4-25.2-35.3-56c0.1-30.8,16.2-55.7,35.8-55.6c7.6,0,14.7,3.9,20.5,10.4c-2.8,1.4-4.7,4.3-4.7,7.6
						c0,2.8,1.4,5.3,3.5,6.9c1.1,3.5,4.3,6,8.1,6c1.4,0,2.7-0.3,3.9-0.9C-1941,264.8-1939.5,273.7-1939.6,283.1L-1939.6,283.1z"/>
				</g>
				<path class="st7" d="M-1942.5,215.1c-0.5,2.7-0.1,4.8-0.5,7.2l-0.6,0.6c-0.3,0.2-0.5,0.4-0.7,0.7l-0.7,0.7c-1.8,1.7-4,4.7-6.2,6
					c-2.5,1.4-6.3,1.9-9,2.8c-10.1-0.1-20.3,1-30-2c-2-0.6-4.3-0.8-6.1-1.9c-2.2-1.2-4.4-4.3-6.2-6c-0.6-0.6-1.4-0.9-1.8-1.6
					c-0.6-1-0.5-2.2-1.1-3.2c-1-1.6-3.5-2.1-4.3-3.9c-0.3-0.7,0.2-1.4,0.2-2.2c0.1-2.1,0-4.2,0-6.3c0-3.9-0.7-8.5,0-12.3
					c0.2-1.1,0.9-2.1,1.1-3.2c0.7-3.7,0.8-8.3,3-11.7c1.7-2.8,4.4-3,6.9-4.4c2.9-1.6,4.2-4.4,7.9-4.9c3.6-0.5,8.3,0,11.9,0
					c0,0,2.5,0,2.8-2.3c2-0.1,4-0.2,5.7,0.1c5.6,0.9,11,3.8,16,6.1c1,0.5,2.2,0.4,3.1,0.9c2.2,1.2,6.7,5.5,8,7.6
					c1.7,2.7,1.3,5.7,1.9,8.6c0.1,0.6,1.9,5.4,2.2,6.3c0,2.7,0.5,6,0,8.7C-1939.7,208.8-1941.9,211.8-1942.5,215.1L-1942.5,215.1z"
					/>
				<path class="st7" d="M-1942.5,215.1c-0.5,2.7-0.1,4.8-0.5,7.2l-0.6,0.6c-0.3,0.2-0.5,0.4-0.7,0.7l-0.7,0.7c-1.8,1.7-4,4.7-6.2,6
					c-2.5,1.4-6.3,1.9-9,2.8c-10.1-0.1-20.3,1-30-2c-2-0.6-4.3-0.8-6.1-1.9c-2.2-1.2-4.4-4.3-6.2-6c-0.6-0.6-1.4-0.9-1.8-1.6
					c-0.6-1-0.5-2.2-1.1-3.2c-1-1.6-3.5-2.1-4.3-3.9c-0.3-0.7,0.2-1.4,0.2-2.2c0.1-2.1,0-4.2,0-6.3c0-3.9-0.7-8.5,0-12.3
					c0.2-1.1,0.9-2.1,1.1-3.2c0.7-3.7,0.8-8.3,3-11.7c1.7-2.8,4.4-3,6.9-4.4c2.9-1.6,4.2-4.4,7.9-4.9c3.6-0.5,8.3,0,11.9,0
					c0,0,2.5,0,2.8-2.3c2-0.1,4-0.2,5.7,0.1c5.6,0.9,11,3.8,16,6.1c1,0.5,2.2,0.4,3.1,0.9c2.2,1.2,6.7,5.5,8,7.6
					c1.7,2.7,1.3,5.7,1.9,8.6c0.1,0.6,1.9,5.4,2.2,6.3c0,2.7,0.5,6,0,8.7C-1939.7,208.8-1941.9,211.8-1942.5,215.1L-1942.5,215.1z"
					/>
				<path class="st7" d="M-1971.7,276.6c-0.5,0.4-1.4,0.8-2.5,0.1c-1.8-1.2-0.6-3-0.6-3l4.3-1.9c4.2,4.2,7.7,8.7,10.9,13.7
					c3.2,5.4,5.3,11,7.1,17c1.6,5,3.1,9.9,3.9,15c0.6-2,1.9-3.3,5.5,0.5c0.4,0.5,0.3,1.7,0.1,3.2c0.4,0.3,0.6,0.7,0.7,1.2l0.5,2.1
					l-0.1,0l0.2,0.2c0,0.3,0,0.6,0,0.8c1,0.4,1.6,1.2-0.2,2.6c-0.1,1.2-0.3,2.3-0.5,3.4l0.1,0.3l-0.1,0l0.2,0.2c0,2.7,0,5,1,7.5
					c0.3,0.8,1,1.4,1.1,2.2c0,0.1,0,0.1,0,0.2l0.1,0l1,4.1c0,0.2,0.1,0.4,0.1,0.6c0,1.2-1,2.1-2.1,2.1v3c0.3,0.7,0.5,1.4,0.5,2.1
					c0.5,4.9,0.6,10,0.5,14.9l-0.1,0.2l0.1,0l-0.5,2.1c-0.2,0.9-1.1,1.7-2.1,1.7c-0.5,0-1-0.2-1.4-0.5c-0.1,0-0.1,0-0.2,0
					c-0.6,0-1.2-0.3-1.6-0.7c-0.4,0.4-1,0.7-1.6,0.7h-2.5c-0.8,0.2-1.6,0.8-2.3,0.5c-0.2-0.1-0.3-0.1-0.5-0.2l0,0.1l-2.1-0.5
					c0,0-0.1,0-0.1,0l-2-0.5c-0.9-0.2-1.7-1.1-1.7-2.1c0-0.8,0.5-1.5,1.2-1.9c-0.3-0.2-0.7-0.6-1-1c-0.7-0.3-1.3-1.1-1.3-1.9v-0.2
					c-0.5-1.1-1-2.3-1.4-3.1c-0.4-0.9-1.3-1.6-1.2-2.6c0,0,0,0,0,0c0,0-0.1,0-0.1,0c-1.5-0.2-1.3-2.7-2-4.1
					c-0.7-1.6-1.1-3.1-1.4-4.5c-1.8-3-1.4-6.1-1.4-9.9c0,0,0-0.1,0-0.2c-0.5-0.5-1-1.3-1.5-2.4c-0.4-0.8,0.3-2.9,1-4.4
					c-2.7-5.9-5.3-11.8-7.6-17.8l-1.6-2.9c-0.2-0.3-0.3-0.7-0.3-1.1c0-1.2,1-2.1,2.1-2.1c0.7,0,1.3,0.3,1.7,0.9l2.5,3.4l0,0
					c0,0,0,0,0,0c1,0.9,3.5,5.5,4.4,6.7c0,0,0.1,0.1,0.1,0.1c0.1,0,0.2,0,0.3,0c0.7,0,1.4,0.4,1.7,0.9l2,2.7l0,0l0.1,0
					c0.4,0.6,0.8,1.2,1.1,1.8c0.3-0.1,0.6-0.2,0.9-0.2c0.1,0,0.3,0,0.4,0c-0.6-1.4-1.2-2.9-1.8-4.4l-0.3-0.8
					c-0.1-0.2-0.2-0.3-0.2-0.5l-1-2.5c-0.1-0.3-0.2-0.5-0.2-0.8c0-1.2,1-2.1,2.1-2.1c0.9,0,1.7,0.6,2,1.4l0.8,2.1l0,0l0.1,0.2
					c0.5,0.7,1,1.3,1.4,2.1c0.4-0.3,0.8-0.5,1.3-0.5c0,0,0.1,0,0.1,0c-0.1-0.5-0.1-1.1-0.1-1.6v-2.7c0-1.1,0.8-2,1.9-2.1
					c-0.8-3.4-1.8-6.6-2.9-10c-1.7-5.6-3.7-11-6.7-16C-1965.8,283.7-1968.5,280-1971.7,276.6L-1971.7,276.6z M-1965.3,339.1
					c-0.1,0-0.1,0-0.2-0.1c0.1,0.2,0.2,0.3,0.3,0.4C-1965.2,339.3-1965.3,339.2-1965.3,339.1L-1965.3,339.1z M-1966,335.6l0.9-0.9
					c-0.1-0.2-0.2-0.4-0.3-0.6C-1965.7,334.5-1965.9,335-1966,335.6C-1966,335.6-1966,335.6-1966,335.6z M-1953.4,327.4
					c0,0.2,0.1,0.3,0.1,0.5c0.1-0.6,0.2-1.3,0.2-1.9c-0.2,0.1-0.4,0.3-0.6,0.3L-1953.4,327.4z M-1953.3,367.5
					c0.3-0.3,0.6-0.5,1.1-0.6l2.1-0.5l0,0.1c0,0,0.1,0,0.1-0.1l-1-1.7c-0.1,0-0.1,0-0.2,0c-0.2,0-0.4,0-0.5-0.1v0.1
					c0,1.1-0.8,2-1.8,2.1C-1953.5,367.1-1953.4,367.3-1953.3,367.5L-1953.3,367.5z"/>
				<g>
					<path class="st7" d="M-1936.3,238.8c3.9,1.7,7.6,4,10.7,6.9c5.7,5.3,9.8,12.1,14.7,18c2.4,4.1,5,8.3,7.6,12.2l1,2.3
						c0,0,0,0,0,0c0.3,0.2,0.5,0.6,0.7,1.1c0.9,0.2,1.6,1.1,1.6,2.1v0.3c0.6-0.1,1.4,0,2,0.9c1.2,1.8-0.6,3-0.6,3
						c-2.8,1.7-7.9,2.9-11,0.9c-0.6-0.4-1.2-1-1.7-1.8c-1.3-0.2-1.6-1.7-1.6-1.7c-0.2-0.7-0.4-1.5-0.6-2.1c-0.9-1.7-1.7-3.4-2.5-5.1
						c-1-1.6-2.2-3.1-3.4-4.8c-3.3-4.5-6.2-9.5-10.9-12.7c-1.3-0.9-2.8-1.2-4.1-2c-2.1-1.3-2.3-2.2-4.3-2.6
						c-0.3,0.2-0.8,0.3-1.3,0.2c-0.1,0.1-0.2,0.1-0.3,0.1c0.9-1.3,1.4-2.9,1.4-4.6c0-2.8-1.4-5.3-3.5-6.9c-1.1-3.5-4.3-6-8.1-6
						c-0.8,0-1.6,0.1-2.3,0.3c0.3-0.3,0.6-0.6,1.1-0.7l2.1-0.6l0,0.1c0.1,0,0.2-0.1,0.3-0.1c2.1-0.8,5.4,0.4,7.9,1.3
						c0.6,0.2,1.2,0.4,1.7,0.6l2.7,0.9C-1937.1,238.4-1936.7,238.5-1936.3,238.8L-1936.3,238.8z M-1927.1,250.5
						c-0.1,0-0.3,0.1-0.4,0.1c0.8,0.8,1.6,1.6,2.5,2.3C-1925.7,252.1-1926.4,251.3-1927.1,250.5L-1927.1,250.5z"/>
					<path class="st7" d="M-1952.4,235.4l2.1-3.1c2.9,0,4.9,0.7,7.5,1.7c7.5,2.7,14.6,5,20.3,10.7c2.9,2.9,4.8,6.5,7.3,9.5
						c4.9,7.4,10.5,14.1,14.5,22c1.1,2.1,3.8,4.6,3.6,7.2c-0.2,6-8.1,7.1-12.3,5c-1.7-0.8-3-2.6-3.8-4.4c-1.5-2.7-3.7-5.3-5-8.1
						c-1-2.1-1.2-4.2-2.6-6.2c-1.8-2.5-4.3-4.4-6.5-6.5c-3.4-3.1-7.7-6.4-12.5-6.3c0,0-1.5,0-2-1.3c0.9-0.8,1.6-1.8,2.1-3
						c8.6,0.2,17.6,7.8,22.4,14.6c1.6,2.2,1.9,4.5,3,6.8c1.2,2.7,3.4,5.4,4.9,8c0.9,2.5,2.4,3,5.1,2.9c0.7,0,3.2-0.2,3-1.6
						c-0.2-1.7-2.4-3.7-3.2-5.2c-3.9-7.7-9.3-14.2-14.1-21.4c-2.4-2.9-4.2-6.4-6.9-9.1c-5.3-5.3-11.9-7.3-18.8-9.7
						c-1.7-0.6-2.9-1.1-4.4-1.3c0,0,0,0.1-0.1,0.1c-0.6-0.1-1.3-0.2-1.9-0.2c-0.5,0-1,0-1.5,0.1
						C-1952.4,236.1-1952.4,235.4-1952.4,235.4L-1952.4,235.4z"/>
				</g>
				<path class="st7" d="M-1980.1,282.2c0,0.2-0.1,0.3-0.3,0.3c-0.2,0-0.3-0.1-0.3-0.3s0.1-0.3,0.3-0.3
					C-1980.2,281.9-1980.1,282-1980.1,282.2z"/>
				<path class="st7" d="M-1987.8,197.3c0,2.1-1.9,3.9-4.2,3.9c-2.3,0-4.2-1.7-4.2-3.9s1.9-3.9,4.2-3.9
					C-1989.7,193.4-1987.8,195.1-1987.8,197.3z"/>
				<path class="st7" d="M-1956.2,197.9c0,2.1-1.9,3.9-4.2,3.9c-2.3,0-4.2-1.7-4.2-3.9s1.9-3.9,4.2-3.9
					C-1958.1,194.1-1956.2,195.8-1956.2,197.9z"/>
				<path class="st7" d="M-1968.1,211.9c2.1,0,2.1,2.1,2.1,2.1l-0.1,1.4c-1.1,3.2-2.4,6.1-5.8,7.3c-2.5,0.9-5.3-0.3-7.6-0.7
					c-4.4-0.7-8.1-1.5-11.9-4c0,0-1.8-1.2-0.6-3c1.2-1.8,3-0.6,3-0.6c3.2,2.2,6.5,2.7,10.3,3.4c1.7,0.3,3.9,1.3,5.7,0.8
					c1.9-0.6,2.5-3,3-4.5l-0.1-0.1C-1970.2,214-1970.2,211.9-1968.1,211.9L-1968.1,211.9z"/>
				<path class="st7" d="M-1942.5,215.1c0.6-3.3,2.8-6.3,3.3-9.5c0.5-2.7,0-5.9,0-8.7c-0.3-0.9-2.1-5.7-2.2-6.3
					c-0.5-2.8-0.2-5.9-1.9-8.5c-1.3-2.1-5.8-6.4-8-7.6c-0.9-0.5-2.1-0.5-3.1-0.9c-4.9-2.3-10.3-5.2-16-6.1c-1.8-0.3-3.8-0.2-5.7-0.1
					c-0.3,2.3-2.8,2.3-2.8,2.3c-3.5,0-8.2-0.6-11.8,0c-3.7,0.5-5,3.3-7.9,4.9c-2.6,1.5-5.2,1.7-6.9,4.4c-2.2,3.4-2.3,8-3,11.7
					c-0.2,1.1-0.9,2.1-1.1,3.2c-0.7,3.8,0,8.4,0,12.3c0,2.1,0.1,4.2,0,6.3c0,0.7-0.5,1.5-0.2,2.2c0.7,1.7,3.2,2.3,4.3,3.8
					c0.6,0.9,0.5,2.2,1.1,3.2c0.4,0.7,1.2,1.1,1.8,1.6c1.8,1.7,4,4.7,6.2,6c1.8,1,4.1,1.2,6.1,1.9c9.6,3,19.9,1.9,29.9,2
					c2.7-0.9,6.6-1.4,9-2.8c2.2-1.2,4.4-4.3,6.2-6l0.7-0.7c0.2-0.3,0.5-0.5,0.7-0.7l0.6-0.6C-1942.6,219.8-1943,217.8-1942.5,215.1z
					 M-1980,162.2c3.3,0,7.2-0.5,10.5,0c6.1,1,12.1,4,17.5,6.6c1.1,0.5,2.5,0.6,3.6,1.2c0.3,0.2,4.5,4.1,5,4.6
					c0.5,0.5,4.7,4.4,4.9,4.7c2.1,3.3,2,6.9,2.6,10.5c0.4,2.2,1.5,4.2,2.2,6.3c0,3.2,0.6,7.2,0,10.4c-0.6,3.3-2.8,6.3-3.3,9.5
					c-0.6,3.6,0,6.3-1.2,9.9l-1.4,0.7l-1.5,1.4c-2.1,2-4.6,5.3-7.2,6.7c-3,1.7-7.7,2.5-11.1,3.5c-10.9,0.1-22.1,1.1-32.6-2.2
					c-0.7-0.2-6.9-2.2-7.3-2.4c-2.8-1.6-8.1-6.6-9.8-9.3c-0.6-0.9-0.5-2.2-1.1-3.2c-1.1-1.8-3.8-2.6-4.7-4.6
					c-1.1-2.5-0.2-7.7-0.2-10.5c0-4.2-0.7-9,0-13.1c0.2-1.1,0.9-2.1,1.1-3.2c0.8-4.4,1.2-9.6,3.7-13.6c0.2-0.3,5-4.9,5.4-5.1
					c1-0.6,2.3-0.5,3.3-1.1c3.6-2,5.4-4.9,10-5.6c2.6-0.4,5.9-0.3,8.9-0.2C-1982.3,162.2-1980,162.2-1980,162.2L-1980,162.2z"/>
				<path class="st7" d="M-2012.5,253.1c1.1-0.4,2.3-0.7,3.5-0.9c0,0,2.1-0.3,2.4,1.8c0.3,2.1-1.8,2.4-1.8,2.4
					c-1.3,0.2-2.6,0.6-3.8,1.1l-2-3.8C-2014.2,253.8-2013.5,253-2012.5,253.1L-2012.5,253.1z"/>
				<g>
					<path class="st7" d="M-2010.6,237.8l2.7-0.9c0.6-0.2,1.2-0.4,1.7-0.6c2.5-0.9,5.8-2.1,7.9-1.3c0.1,0,0.2,0.1,0.3,0.1l0-0.1
						l2.1,0.6c0.9,0.2,1.6,1.1,1.6,2.1c0,0.9-0.5,1.6-1.2,1.9c0,0.1,0,0.3,0,0.5c0,1.2-1,2.1-2.1,2.1c-0.2,0-0.4,0-0.6-0.1
						c-0.2,0.9-1.1,1.6-2,1.6c0,0.1,0,0.2,0,0.3c0,0.9-0.5,1.6-1.2,1.9c-0.2,0.8-0.8,1.4-1.5,1.6c0.4,0.4,0.7,0.9,0.7,1.5
						c0,1.2-0.9,2.1-2.1,2.1c0,0.1,0,0.2,0,0.3c0,1.2-1,2.1-2.1,2.1c-0.4,0-0.8-0.1-1.1-0.3c-0.5,0.1-1,0-1.3-0.2
						c-2,0.4-2.2,1.3-4.3,2.6c-1.3,0.8-2.8,1.2-4.1,2c-4.7,3.2-7.6,8.2-10.9,12.7c-1.3,1.7-2.4,3.3-3.4,4.8
						c-0.8,1.8-1.6,3.4-2.5,5.1c-0.2,0.7-0.4,1.4-0.6,2.1c0,0-0.3,1.4-1.6,1.7c-0.5,0.7-1.1,1.4-1.7,1.8c-3.1,2-8.2,0.8-11-0.9
						c0,0-1.8-1.2-0.6-3c0.6-0.9,1.4-1.1,2-0.9v-0.3c0-1,0.7-1.8,1.6-2.1c0.1-0.5,0.4-0.9,0.7-1.1c0,0,0,0,0,0l1-2.3
						c2.6-3.9,5.3-8.1,7.6-12.2c4.9-5.9,9-12.8,14.7-18c3.1-2.9,6.8-5.1,10.7-6.9C-2011,238-2010.6,237.8-2010.6,237.8
						L-2010.6,237.8z M-2022.7,252.4c0.8-0.8,1.6-1.6,2.5-2.3c-0.1,0-0.2,0-0.4-0.1C-2021.3,250.7-2022,251.6-2022.7,252.4
						L-2022.7,252.4z"/>
					<path class="st7" d="M-1997.4,237c-0.9,0-1.4-0.4-1.7-0.8c-1.5,0.2-2.7,0.7-4.4,1.3c-6.9,2.4-13.4,4.4-18.8,9.7
						c-2.7,2.7-4.5,6.2-6.9,9.1c-4.8,7.2-10.2,13.7-14.1,21.4c-0.8,1.5-3,3.5-3.2,5.2c-0.2,1.4,2.3,1.6,3,1.6
						c2.7,0.2,4.1-0.3,5.1-2.9c1.5-2.6,3.7-5.3,4.9-8c1.1-2.3,1.4-4.7,3-6.8c4.9-6.8,13.9-14.4,22.5-14.6c0,0,2.1,0,2.1,2.1
						s-2.1,2.1-2.1,2.1c-4.8-0.1-9.1,3.1-12.5,6.3c-2.2,2-4.7,4-6.5,6.5c-1.4,2-1.6,4.1-2.6,6.2c-1.3,2.8-3.5,5.4-5,8.1
						c-0.8,1.8-2.1,3.6-3.8,4.4c-4.2,2.1-12.1,0.9-12.3-5c-0.1-2.6,2.6-5.1,3.6-7.2c3.9-7.9,9.5-14.6,14.5-22
						c2.6-3.1,4.5-6.7,7.3-9.5c5.8-5.8,12.9-8.1,20.3-10.7c2.7-1,4.7-1.7,7.5-1.7l2.1,3.1C-1995.3,234.8-1995.3,237-1997.4,237
						L-1997.4,237z"/>
				</g>
				<path class="st7" d="M-1956.8,253.3c-0.2,0.1-0.4,0.1-0.6,0.1c-1,0-1.8-0.7-2.1-1.6l-0.9-3.1l0,0c0,0,0-0.1-0.1-0.1
					c-0.6-1.2-0.4-2.6-0.7-3.9l0-0.1l0,0l-0.3-2.8c0-0.1,0-0.2,0-0.3c0-1.2,1-2.1,2.1-2.1c0.4,0,0.8,0.1,1.1,0.3
					c0.2-0.7,0.4-1.4,0.9-1.9c3-3.8,10.9-1.5,13.6,1.8c0.6,0.7,0.9,1.3,1.1,1.8c0.5-0.2,1-0.1,1.5,0.2c1.2,0.8,1.5,2.6,1.4,4.3
					c0.7,0.4,1.5,0.7,1.8,1.4c0.6,1.1,0.4,2.5,0.3,3.7c-0.3,4.1-2.6,4.7-6.1,5.9c-0.9,0.3-1.9,0.4-2.9,0.3v0.4h-2.2
					c-0.6,0-1.1-0.2-1.5-0.6c-0.4,0.2-0.9,0.4-1.3,0.6v0.7c0,1.2-1,2.1-2.1,2.1c-1.1,0-2-0.8-2.1-1.9l-0.3-2.1
					C-1956.3,255.5-1956.5,254.4-1956.8,253.3L-1956.8,253.3z M-1941.8,251.2c-0.4,0.5-0.9,0.9-1.3,1.4c0.6-0.1,1.1-0.3,1.4-0.7
					C-1941.5,251.7-1941.7,251.4-1941.8,251.2z M-1945.1,247C-1945.1,247-1945.2,247-1945.1,247
					C-1945.2,247.1-1945.1,247-1945.1,247C-1945.1,247-1945.1,247-1945.1,247z"/>
				<path class="st7" d="M-1942.3,255.9c0.3-0.3,0.6-0.5,0.6-0.5l1.6-1l2.1-1.2c0.3-0.2,0.7-0.3,1.1-0.3c1.2,0,2.1,1,2.1,2.1
					c0,0.8-0.4,1.4-1,1.8l-1.8,1.2l0,0l0,0.1c-0.7,0.4-1.5,0.9-2.2,1.3c0,0-1.9,1.1-2.9-0.8
					C-1943.6,257.2-1942.8,256.3-1942.3,255.9L-1942.3,255.9z"/>
				<path class="st7" d="M-1943.2,237c-0.6,2-2.6,1.5-2.6,1.5l-2-0.6c-3.3-0.5-6.8,0.8-10.1,1.3c0,0-2.1,0.3-2.4-1.8
					c-0.3-2.1,1.8-2.4,1.8-2.4c4-0.6,7.6-1.8,11.6-1.2l2.3,0.7C-1944.7,234.3-1942.6,234.9-1943.2,237z"/>
				<path class="st7" d="M-1946.4,333.9L-1946.4,333.9c-0.5-2.1-1.6-4.4-2.1-6.4c-0.1-0.3-0.1-5.2-0.1-5.8c0,0,0-0.9,0.6-1.5l0-1.1
					c0,0,0-2.1,2.1-2.1s2.1,2.1,2.1,2.1l-0.1,1.1c0.6,2.7,0.3,5,0.6,7.7c0.2,1.5,0.9,2.8,1.1,4.3c0.4,3.9,0,8,0,12
					c0,2.7,0.3,5.1,0.5,7.8c0.4,4-0.4,8.2,0,12.2c0.2,1.9,0.7,3.7,1,5.6c-1,1-1.7,2.5-3.1,3.1c-0.9,0.4-2-0.4-3-0.5
					c-1.8-0.2-3.6-0.1-5.3,0c-1.2,0-2.5,0.9-3.5,0.2c-1.1-0.7-1.1-2.3-1.5-3.4c-0.7-2-1.3-4.1-2.1-6.2c-1.3-3.5-3.8-6.2-5.3-9.4
					c-1.8-4-2-9.5-2.8-13.8c0,0-0.3-1.5,0.9-2.2c0.3-0.5,0.8-0.9,1.8-0.9c2.1,0,2.1,2.1,2.1,2.1c0,2.4,0.4,4.1,1,6.4l0-0.5
					c0,0,1.4,1.4,0.2,2.8c0.2,1.4,0.2,2.9,0.8,4.2c0.3,0.7,1,1.2,1.4,1.8c1.6,2.4,2.9,5.2,4,7.9c0.5,1.4,1.1,2.8,1.6,4.3
					c0.3,0.8,0.6,1.5,0.6,2.4c0,0.3-0.7,0.8-0.4,0.8c0.4,0,0.4-0.7,0.8-0.8c2.1-0.4,4.3-0.3,6.4,0c0.5,0.1,1.1,0.8,1.4,0.5
					c-2.5-4.9-0.6-11-1.1-16.2c-0.6-5.7,0-11.6-0.3-17.4C-1946.4,334.4-1946.4,333.9-1946.4,333.9L-1946.4,333.9z"/>
				<path class="st7" d="M-2002.3,318.5c1.2,0,2.1,1,2.1,2.1c0,0.2,0,0.4-0.1,0.6c2.8,3,5.1,6.1,8,9l0.6,2c0,0,0,0.9-0.6,1.5
					c0,0.3,0,0.6,0,0.9c0.1,0.8,0.6,1.6,0.5,2.4c0,1.7-0.7,3-1.4,4.2c0.2,0.3,0.3,0.7,0.3,1.2c0,0.2,0,0.4-0.1,0.6l-0.5,2.1l-0.1,0
					c0,0.2-0.1,0.4-0.1,0.6c-0.1,0.6-0.9,0.8-1.3,1.3c0,0.1,0,0.2-0.1,0.4l-0.5,2.1l-0.1,0c0,0.1,0,0.2,0,0.2c0,0.3-2,3.8-2.1,4.3
					c-0.8,2.2-1.5,3.9-2.7,5.8c0,0,0,0.1,0,0.1l-0.1,0.1c-0.1,0.2-0.3,0.4-0.4,0.5l0.1,0.1l-0.3,0.3l-0.9,1.8
					c-0.2,0.4-0.5,0.7-0.9,0.9c0,0.1,0,0.1,0,0.2l-0.5,2.6l-0.3-0.1c0,0.9-0.1,1.9-0.2,2.8l0,0l0,0l-0.5,2.1c-0.1,0.4-0.3,0.8-0.6,1
					c0,0.1-0.1,0.2-0.1,0.3c0.2,0.4,0.2,0.8,0,1.1c-0.2,0.3-0.5,0.6-0.7,0.8c-0.1,0.1-0.1,0.2-0.2,0.3c-1.8,2.2-6.4,1-8.8,1.2
					c-0.8,0.1-1.6,0.8-2.3,0.5v0.6h-2.7c-1.2,0-2.1-1-2.1-2.1c0-0.7,0.4-1.3,0.9-1.7c-0.5-0.3-1-0.6-1.2-1.1c-0.6-1.1,2.2-6.5,2.6-8
					c2.6-5.1,2.7-10.9,4.2-16.4c0.8-2.8,1.9-5.5,2.6-8.4c0.9-3.6,1.6-8,3.4-11.2c0.4-0.7,1.2-1.1,1.7-1.8c0.7-1,0.7-2.4,1.3-3.5
					l0.5-2.1c0.2-0.9,1.1-1.7,2.1-1.7c0.1,0,0.1,0,0.2,0C-2003.3,318.7-2002.8,318.5-2002.3,318.5L-2002.3,318.5z"/>
				<path class="st7" d="M-1990.1,336.5c-1.5,6.2-3.2,12.3-6,18c-2.2,4.4-5.2,8.4-7.4,12.7c-1.3,2.5,0.3,8.1-2.2,9.8
					c-2.6,1.8-5,0.3-7.3-1c-1.3-0.1-2.6-0.2-3.3-0.2c-1.3,0-3,0.8-3.9-0.1c-0.5-0.5-0.5-1.1-0.4-1.8c-0.8-0.6-1.5-1.4-1.8-2.3
					c-0.4-1.1,0.3-2.3,0.6-3.4c0.9-3,3-5.3,3.7-8.3c0.4-1.5,1.2-3,1.7-4.5c0.1-0.3,0.2-0.6,0.2-0.9c0.1-0.3,0.1-0.5,0.1-0.8
					c0.6-5.9-0.4-11.8,1.7-17.5c1.4-3.7,3-7.4,4.9-10.9c1.2-2.2,3.1-3.6,3.5-5.9c0,0,0.5-2.1,2.6-1.6c2.1,0.5,1.6,2.6,1.6,2.6
					c0,0.1,0,0.2-0.1,0.2c0.2,0.7,0.1,1.3,0.1,1.3c-0.9,3.5-1.4,7.4-2.7,10.9c-1.1,3-3.1,5.6-4.3,8.5c-2.4,6.3-2.3,13.5-5.3,19.6
					c0,0.1,0,0.1-0.1,0.2c-0.7,2.7-1.7,5.7-2,8.4c0,0.3,0,0.5,0,0.8c0.1,0,0.2,0,0.3,0c0.9,0.1,1.8,0.3,2.6,0.6
					c0.4,0.1,0.9,0.4,1.5,0.7c0.8,0.1,1.5,0.1,2.1-0.1c0.3-0.1,0.5-0.6,0.5-0.9c0.2-1.8,0-3.6,0.5-5.3c0.8-2.5,2.5-4.6,3.9-6.8
					c2-3.2,2.9-6.9,4.6-10.3c0.4-1.5,1.1-2.8,1.6-4.2c1-3.1,1.2-6.1,2.7-9.1l0.5-1.9c0,0,0.5-2.1,2.6-1.6c2.1,0.5,1.6,2.6,1.6,2.6
					l-0.2,0.8L-1990.1,336.5z"/>
				<path class="st7" d="M-1974.6,310.5c0-1.2,1-2.1,2.1-2.1c1.2,0,2.1,1,2.1,2.1c0,1.2-1,2.1-2.1,2.1
					C-1973.7,312.6-1974.6,311.7-1974.6,310.5z"/>
			</g>
		</g>
	</g>
	<g>
		<path class="st8" d="M-2171.3,73.3c1.2,12.1,77.1,24.6,80.2,0C-2089.6,61.2-2173.5,51-2171.3,73.3z"/>
		<path class="st9" d="M-2154.6,76.8c0,0-0.3-29,12.1-29.8c12.5-0.8,8.5,8.6,15.6,7.4s8.6-10.9,15.2-9.3s5.7,31.7,5.7,31.7"/>
		<path class="st10" d="M-2154.1,69.6c0,0,42.6,6.3,48.1,0v9.5c0,0-43.4,1.1-46.5-1.3C-2155.7,75.4-2154.1,69.6-2154.1,69.6z"/>
	</g>
	<path class="st11" d="M-993.3,137.5l12.6,16.1l-16.4,3.5C-997.1,157-991.6,142.6-993.3,137.5z"/>
	<path class="st11" d="M-925,133.4c0,0-5.9,17-10.7,18.9l18.1,6.1C-917.7,158.4-923.6,153-925,133.4z"/>
	<path class="st12" d="M-604.6,58.8c0,0-2.4,0.1-2.4-1.5c0,0,2.5,1,3.5-0.6c0.9-1.6,0.3-2.5-0.2-2.8c-0.5-0.4-1.4-0.7-2.2-0.1
		c-0.7,0.6-0.7,1.2-0.4,1.6c0.3,0.5,0.9,0.4,1,0.2c0.1-0.3-0.4-0.5-0.4-0.7c0-0.2,0.2-0.6,0.8-0.4c0.6,0.2,0.9,0.4,1,0.9
		c0.1,0.5-0.5,1.3-1.2,1.4c-0.7,0.1-1.5-0.2-1.8-0.5c-0.3-0.3-0.6-0.9-0.6-1.4c0.1-0.5,0.5-1.6,0.9-1.8s1.2-0.4,1.2-0.4
		s-1.8-0.8-2.1-2.2s0.3-2.4,0.3-2.4s0.8-1.6,1.8-1.4c1,0.2,1.4,0.2,2.1,0.7s0.8,0.7,0.8,1.3c0.1,0.5-0.1,1.7-1,1.9s-1.6,0.2-1.9-0.2
		c-0.4-0.4-0.6-0.7-0.5-1c0.1-0.4,0.5-0.5,0.7-0.5c0.2,0,0.5-0.1,0.4,0.4c-0.1,0.5,0.3,0.6,0.6,0.5c0.2-0.1,0.6-0.8,0.2-1.2
		s-1.1-0.7-1.6-0.4c-0.5,0.3-0.9,0.7-0.9,1.3s0.3,1.6,0.8,1.9c0.5,0.3,2.6,1.4,3.1,1.9c0.5,0.4,1.1,1.2,1.1,2.2s-1.5,2.9-1.6,3.2
		c-0.1,0.4-0.5,0.6-0.2,1.3c0.2,0.7,0.7,1.2,0.7,1.2S-604.6,61.1-604.6,58.8z"/>
	<path class="st12" d="M-593.1,58.7c0,0,2.4,0.1,2.4-1.5c0,0-2.5,1-3.5-0.6c-0.9-1.6-0.3-2.5,0.2-2.8c0.5-0.4,1.4-0.7,2.2-0.1
		c0.7,0.6,0.7,1.2,0.4,1.6c-0.3,0.5-0.9,0.4-1,0.2c-0.1-0.3,0.4-0.5,0.4-0.7c0-0.2-0.2-0.6-0.8-0.4c-0.6,0.2-0.9,0.4-1,0.9
		c-0.1,0.5,0.5,1.3,1.2,1.4c0.7,0.1,1.5-0.2,1.8-0.5c0.3-0.3,0.6-0.9,0.6-1.4c-0.1-0.5-0.5-1.6-0.9-1.8c-0.4-0.2-1.2-0.4-1.2-0.4
		s1.8-0.8,2.1-2.2c0.3-1.4-0.3-2.4-0.3-2.4s-0.8-1.6-1.8-1.4c-1,0.2-1.4,0.2-2.1,0.7c-0.7,0.5-0.8,0.7-0.8,1.3
		c-0.1,0.5,0.1,1.7,1,1.9c0.9,0.2,1.6,0.2,1.9-0.2c0.4-0.4,0.6-0.7,0.5-1c-0.1-0.4-0.5-0.5-0.7-0.5s-0.5-0.1-0.4,0.4
		s-0.3,0.6-0.6,0.5c-0.2-0.1-0.6-0.8-0.2-1.2s1.1-0.7,1.6-0.4c0.5,0.3,0.9,0.7,0.9,1.3c0,0.6-0.3,1.6-0.8,1.9
		c-0.5,0.3-2.6,1.4-3.1,1.9c-0.5,0.4-1.1,1.2-1.1,2.2c0,1,1.5,2.9,1.6,3.2c0.1,0.4,0.5,0.6,0.2,1.3c-0.2,0.7-0.7,1.2-0.7,1.2
		S-593,60.9-593.1,58.7z"/>
	<path class="st1" d="M-582.6,74.9c0,0,1-3-1-3.6c0,0,0.4,3.6-2.1,4.2c-2.4,0.6-3.2-0.6-3.6-1.3c-0.3-0.7-0.3-2.1,0.7-2.8
		s1.7-0.4,2.2,0.1c0.5,0.5,0.2,1.3-0.2,1.3s-0.4-0.7-0.8-0.8c-0.3,0-0.8,0-0.8,0.9c0,0.9,0.2,1.3,0.8,1.6c0.6,0.3,1.8-0.2,2.2-1
		c0.4-0.8,0.3-2,0-2.5c-0.3-0.5-0.9-1.1-1.6-1.2s-2.2,0-2.6,0.5s-1,1.4-1,1.4s-0.3-2.6-2-3.5s-3.2-0.6-3.2-0.6s-2.3,0.5-2.5,1.8
		c-0.2,1.3-0.3,1.9,0.1,3s0.7,1.3,1.4,1.5c0.7,0.3,2.3,0.6,2.8-0.5s0.8-1.9,0.5-2.6c-0.3-0.6-0.7-1-1.1-1c-0.5,0-0.9,0.4-0.9,0.7
		s-0.3,0.6,0.4,0.7s0.7,0.7,0.5,0.9c-0.2,0.2-1.2,0.5-1.6-0.2c-0.4-0.7-0.5-1.6,0.1-2.2c0.5-0.5,1.2-0.9,2-0.7s2,1,2.2,1.7
		c0.2,0.8,0.8,3.9,1.2,4.7c0.4,0.8,1.1,1.8,2.4,2.2s4.2-0.9,4.7-0.8c0.5,0,1-0.4,1.8,0.2c0.8,0.6,1.3,1.3,1.3,1.3
		S-579.7,75.6-582.6,74.9z"/>
	<path class="st1" d="M-616.5,74.9c0,0-1-3,1-3.6c0,0-0.4,3.6,2.1,4.2s3.2-0.6,3.6-1.3c0.3-0.7,0.3-2.1-0.7-2.8s-1.7-0.4-2.2,0.1
		c-0.5,0.5-0.2,1.3,0.2,1.3c0.4,0.1,0.4-0.7,0.8-0.8c0.3,0,0.8,0,0.8,0.9c0,0.9-0.2,1.3-0.8,1.6c-0.6,0.3-1.8-0.2-2.2-1
		c-0.4-0.8-0.3-2,0-2.5c0.3-0.5,0.9-1.1,1.6-1.2s2.2,0,2.6,0.5s1,1.4,1,1.4s0.3-2.6,2-3.5s3.2-0.6,3.2-0.6s2.3,0.5,2.5,1.8
		c0.2,1.3,0.3,1.9-0.1,3c-0.4,1.1-0.7,1.3-1.4,1.5c-0.7,0.3-2.3,0.6-2.8-0.5c-0.6-1.1-0.8-1.9-0.5-2.6c0.3-0.6,0.7-1,1.1-1
		c0.5,0,0.9,0.4,0.9,0.7c0.1,0.3,0.3,0.6-0.4,0.7c-0.7,0.1-0.7,0.7-0.5,0.9s1.2,0.5,1.6-0.2c0.4-0.7,0.5-1.6-0.1-2.2
		c-0.5-0.5-1.2-0.9-2-0.7c-0.8,0.2-2,1-2.2,1.7c-0.2,0.8-0.8,3.9-1.2,4.7c-0.4,0.8-1.1,1.8-2.4,2.2c-1.3,0.4-4.2-0.9-4.7-0.8
		c-0.5,0-1-0.4-1.8,0.2c-0.8,0.6-1.3,1.3-1.3,1.3S-619.4,75.6-616.5,74.9z"/>
	<polygon class="st1" points="-629.4,84.9 -635.4,74.4 -625.9,70.6 -633.1,74.8 	"/>
	<polygon class="st1" points="-569.8,84.2 -563.8,73.7 -573.3,69.9 -566.1,74.1 	"/>
	<path class="st13" d="M-200.6,102c0,0-27-17.1-63,1.2c0,0-7.4,10.4-3.4,22.8c0,0,65.3-2.3,68.9,3.8
		C-198.1,129.8-191.9,115.2-200.6,102z M-249.4,121.1c-2.3,0-4.2-1.7-4.2-3.9s1.9-3.9,4.2-3.9c2.3,0,4.2,1.7,4.2,3.9
		S-247.1,121.1-249.4,121.1z M-217.8,121.8c-2.3,0-4.2-1.7-4.2-3.9s1.9-3.9,4.2-3.9c2.3,0,4.2,1.7,4.2,3.9S-215.5,121.8-217.8,121.8
		z"/>
	<polygon class="st14" points="-255.3,77.5 -248.5,71.2 -245.1,68.6 -253.8,69.5 -252.4,67.5 -252.4,65.8 -261.8,66 -263,64.3 
		-261.5,62.2 -261.1,60.3 -248.3,57.4 -266.6,56.9 -250.2,54.5 -258.6,52.9 -249.1,51.5 -266.2,48.7 -258.1,47.6 -247.5,47.5 
		-254.5,44.7 -262.4,41.1 -259.5,39.8 -263.5,36.4 -257.3,36.7 -264.1,31.5 -261.1,30.6 -259.4,29.2 -249.2,34 -254.6,28 
		-260.5,20.3 -259,18.6 -242.3,34.8 -242.6,33.2 -253.2,16 -243.7,28.4 -249.7,14.6 -240,31.6 -249.2,7 -242.5,20.2 -244.9,8.1 
		-242.9,9.3 -240.2,13.9 -239.2,11.8 -235.5,26.1 -235.2,20.8 -233.2,29.6 -234.2,5.5 -232.7,5.4 -230.4,29.5 -229.7,7.4 -228.5,25 
		-226.5,0 -225.3,7.4 -223.9,8.1 -224.2,21.4 -223.9,26.2 -221.8,20.4 -218.6,12.5 -217.1,12.7 -215.2,11.8 -215.7,17.5 
		-211.8,12.5 -218,28 -206.9,11.5 -212.9,24 -210.2,22.8 -213.8,29.3 -203.2,20.2 -203.1,22.9 -198.4,21.7 -216.5,37.5 -217.5,39.3 
		-214.5,38.7 -212.9,39.2 -204.7,37 -214.2,42.6 -208.8,42.1 -200,41 -213.5,46.4 -195,43.7 -205.2,47.7 -194.7,47.8 -192.6,49.6 
		-203.1,52.5 -194.6,53.8 -197.5,55.8 -197.2,57.7 -213.2,59.3 -194.9,61.5 -200.6,63.1 -202.8,64.7 -212.1,65.3 -205.8,67.7 
		-210.1,68.7 -205.8,71.1 -196.2,74.9 -203.3,77.3 -205.6,70.3 -207.5,78 -207.8,64.3 -209.5,71.2 -211.4,80.7 -211.5,61 
		-212.7,59.6 -215.5,88.4 -215.5,64.3 -217.3,73.1 -217.9,57.9 -219.7,70.2 -220.7,64.7 -222.2,68 -223.2,61.5 -224.5,59.9 
		-225.9,63.1 -227.5,81.6 -228.7,77 -229.9,77.5 -231.2,82.8 -232.4,69.3 -233.8,60.6 -235,71.4 -236.2,75.4 -237.8,57.7 
		-238.5,83.7 -239.7,83.3 -241.1,78.6 -243,64.7 -243.1,87.5 -244.5,84.1 -245.6,86 -247.9,70.5 -247.6,89.1 -248.8,87.9 -249.8,89 
		-251.1,87.3 	"/>
	<polygon class="st15" points="-253.2,82.1 -246.9,76.1 -243.7,73.7 -251.8,74.5 -250.5,72.6 -250.4,71 -259.2,71.2 -260.3,69.6 
		-258.8,67.6 -258.6,65.8 -246.6,63 -263.6,62.5 -248.4,60.2 -256.2,58.7 -247.4,57.4 -263.2,54.8 -255.8,53.7 -245.9,53.6 
		-252.4,50.9 -259.7,47.5 -257,46.3 -260.7,43.1 -255,43.3 -261.3,38.4 -258.5,37.5 -256.9,36.3 -247.5,40.8 -252.5,35.1 
		-257.9,27.8 -256.6,26.2 -241.1,41.6 -241.4,40 -251.2,23.7 -242.4,35.4 -248,22.4 -239,38.5 -247.5,15.1 -241.3,27.7 -243.5,16.2 
		-241.6,17.3 -239.2,21.7 -238.3,19.7 -234.8,33.3 -234.6,28.2 -232.7,36.6 -233.6,13.7 -232.2,13.7 -230.1,36.5 -229.5,15.6 
		-228.4,32.3 -226.5,8.5 -225.4,15.6 -224.1,16.2 -224.3,28.8 -224.1,33.4 -222.1,27.8 -219.2,20.4 -217.8,20.6 -216,19.8 
		-216.4,25.1 -212.8,20.3 -218.6,35.1 -208.3,19.4 -213.9,31.3 -211.4,30.1 -214.7,36.3 -204.9,27.7 -204.8,30.3 -200.4,29.1 
		-217.2,44.1 -218.1,45.8 -215.4,45.3 -213.9,45.8 -206.3,43.6 -215.1,48.9 -210.1,48.4 -201.9,47.4 -214.5,52.6 -197.3,50 
		-206.8,53.8 -197,53.9 -195.1,55.6 -204.8,58.4 -197,59.6 -199.6,61.5 -199.4,63.3 -214.2,64.8 -197.2,66.9 -202.5,68.4 
		-204.6,69.9 -213.1,70.6 -207.3,72.8 -211.3,73.8 -207.3,76 -198.4,79.6 -205,81.9 -207.1,75.2 -208.8,82.6 -209.1,69.6 
		-210.7,76.1 -212.5,85.2 -212.5,66.4 -213.7,65.1 -216.3,92.4 -216.3,69.5 -217.9,77.9 -218.5,63.5 -220.2,75.2 -221.1,70 
		-222.4,73 -223.5,66.9 -224.6,65.4 -225.9,68.4 -227.4,86 -228.5,81.6 -229.7,82.1 -230.8,87.1 -232,74.3 -233.2,66.1 -234.3,76.3 
		-235.5,80.1 -236.9,63.3 -237.6,88 -238.7,87.6 -240,83.1 -241.7,70 -241.9,91.6 -243.1,88.4 -244.1,90.2 -246.3,75.5 -246,93.1 
		-247.2,91.9 -248.1,93 -249.3,91.4 	"/>
	<polygon class="st16" points="-251.8,84.7 -245.5,79.3 -242.4,77.1 -250.4,77.8 -249.1,76.1 -249.1,74.7 -257.8,74.8 -258.9,73.4 
		-257.5,71.5 -257.2,69.9 -245.3,67.4 -262.2,67 -247.1,64.9 -254.8,63.5 -246,62.3 -261.9,59.9 -254.4,58.9 -244.5,58.8 
		-251.1,56.4 -258.3,53.3 -255.7,52.2 -259.3,49.3 -253.6,49.5 -260,45 -257.2,44.2 -255.6,43.1 -246.1,47.2 -251.1,42 -256.6,35.4 
		-255.2,34 -239.7,47.9 -240,46.5 -249.8,31.7 -241,42.4 -246.6,30.5 -237.6,45.2 -246.1,23.9 -239.9,35.3 -242.2,24.9 -240.3,25.9 
		-237.8,29.9 -236.9,28 -233.4,40.4 -233.2,35.8 -231.3,43.4 -232.2,22.6 -230.8,22.6 -228.8,43.3 -228.1,24.3 -227,39.5 
		-225.1,17.9 -224,24.3 -222.7,24.8 -222.9,36.3 -222.7,40.5 -220.7,35.4 -217.8,28.7 -216.4,28.9 -214.6,28.1 -215.1,32.9 
		-211.5,28.6 -217.2,42 -206.9,27.8 -212.5,38.6 -210,37.5 -213.4,43.1 -203.5,35.3 -203.5,37.6 -199.1,36.6 -215.8,50.2 
		-216.8,51.8 -214,51.3 -212.5,51.7 -204.9,49.8 -213.7,54.6 -208.7,54.2 -200.6,53.2 -213.1,57.9 -195.9,55.6 -205.4,59 
		-195.7,59.1 -193.7,60.6 -203.4,63.2 -195.6,64.3 -198.2,66 -198,67.6 -212.8,69 -195.9,71 -201.1,72.3 -203.2,73.7 -211.7,74.2 
		-205.9,76.3 -209.9,77.2 -205.9,79.2 -197.1,82.5 -203.6,84.6 -205.7,78.5 -207.5,85.2 -207.7,73.4 -209.4,79.3 -211.1,87.5 
		-211.2,70.5 -212.3,69.3 -215,94.1 -215,73.3 -216.5,81 -217.1,67.8 -218.8,78.4 -219.8,73.7 -221.1,76.5 -222.1,70.9 -223.3,69.6 
		-224.5,72.3 -226.1,88.3 -227.1,84.3 -228.3,84.7 -229.5,89.3 -230.6,77.7 -231.8,70.2 -233,79.5 -234.1,82.9 -235.6,67.7 
		-236.2,90 -237.4,89.7 -238.6,85.6 -240.4,73.7 -240.5,93.4 -241.8,90.4 -242.8,92.1 -245,78.7 -244.6,94.7 -245.8,93.7 
		-246.7,94.6 -247.9,93.2 	"/>
	<g>
		<path class="st17" d="M-234.8,95.4c0,0-3.5,32.7,4.4,32.6c6.7-0.1,5.1-32.6,5.1-32.6H-234.8z"/>
		<circle class="st18" cx="-230.2" cy="100.1" r="2"/>
		<circle class="st18" cx="-230.4" cy="107" r="2"/>
		<circle class="st18" cx="-230.4" cy="114.4" r="2"/>
		<circle class="st18" cx="-230.4" cy="121.8" r="2"/>
	</g>
	<g>
		<path class="st19" d="M-193.8,106.2c0,0,15.6-20.1,7.2-35.3c-8.9-16-33.3-17.7-40.4-16.5c-7,1.2-31.6-1.5-44.3,11.1
			c-15.5,15.4,0,40.7,0,40.7s23.8-10.2,40-10.8C-213.6,94.9-193.8,106.2-193.8,106.2z"/>
		<path class="st20" d="M-185.6,92.1c0,0-79.9-6.3-90.3,0v-9.5c0,0,81.5-1.1,87.4,1.3C-182.7,86.3-185.6,92.1-185.6,92.1z"/>
	</g>
	<g>
		<g>
			<path class="st21" d="M-230.9,76.6c0,0-5.9-19.3,0.7-21.8C-230.2,54.8-223,62.7-230.9,76.6z"/>
			<path class="st22" d="M-230.5,85c0,0-5.9-19.3,0.7-21.8C-229.8,63.1-222.6,71-230.5,85z"/>
		</g>
		<g>
			<path class="st21" d="M-226.3,78.6c0,0,4.9-19.5,11.8-18.4C-214.6,60.2-212.4,70.7-226.3,78.6z"/>
			<path class="st22" d="M-230.3,85.9c0,0,4.9-19.5,11.8-18.4C-218.5,67.6-216.4,78-230.3,85.9z"/>
		</g>
		<g>
			<path class="st21" d="M-222.2,80.9c0,0,13.4-15,19-10.8C-203.2,70.1-206.2,80.4-222.2,80.9z"/>
			<path class="st22" d="M-229.1,85.6c0,0,13.4-15,19-10.8C-210.1,74.8-213.1,85-229.1,85.6z"/>
		</g>
		<g>
			<path class="st21" d="M-221.7,84.5c0,0,19.3-5.8,21.8,0.8C-199.9,85.3-207.7,92.5-221.7,84.5z"/>
			<path class="st22" d="M-230,84.8c0,0,19.3-5.8,21.8,0.8C-208.2,85.6-216.1,92.8-230,84.8z"/>
		</g>
		<g>
			<path class="st21" d="M-234.3,78.3c0,0-5.8-19.3-12.7-17.8C-247,60.5-248.6,71-234.3,78.3z"/>
			<path class="st22" d="M-230,85.4c0,0-5.8-19.3-12.7-17.8C-242.7,67.6-244.3,78.2-230,85.4z"/>
		</g>
		<g>
			<path class="st21" d="M-238.3,80.8c0,0-14.1-14.4-19.5-9.8C-257.8,71-254.4,81-238.3,80.8z"/>
			<path class="st22" d="M-231.2,85.1c0,0-14.1-14.4-19.5-9.8C-250.7,75.3-247.2,85.3-231.2,85.1z"/>
		</g>
		<g>
			<path class="st21" d="M-238.7,84.4c0,0-19.5-4.8-21.8,1.8C-260.4,86.3-252.2,93-238.7,84.4z"/>
			<path class="st22" d="M-230.4,84.3c0,0-19.5-4.8-21.8,1.8C-252.1,86.2-243.9,93-230.4,84.3z"/>
		</g>
	</g>
	<g>
		<path class="st23" d="M-228.3,91.9c0,0,6.5,14.6-0.8,16.5C-229.1,108.4-237.1,102.5-228.3,91.9z"/>
		<path class="st24" d="M-228.7,85.6c0,0,6.5,14.6-0.8,16.5C-229.5,102.1-237.5,96.2-228.7,85.6z"/>
		<path class="st23" d="M-233.4,90.4c0,0-5.4,14.8-13.2,13.9C-246.6,104.3-249,96.4-233.4,90.4z"/>
		<path class="st24" d="M-229,84.9c0,0-5.4,14.8-13.2,13.9C-242.1,98.8-244.6,90.9-229,84.9z"/>
		<path class="st23" d="M-238,88.7c0,0-15,11.4-21.2,8.1C-259.2,96.8-255.9,89.1-238,88.7z"/>
		<path class="st24" d="M-230.3,85.2c0,0-15,11.4-21.2,8.1C-251.5,93.3-248.2,85.6-230.3,85.2z"/>
		<path class="st23" d="M-238.6,86c0,0-21.6,4.4-24.4-0.6C-263,85.4-254.2,80-238.6,86z"/>
		<path class="st24" d="M-229.3,85.7c0,0-21.6,4.4-24.4-0.6C-253.7,85.1-244.9,79.7-229.3,85.7z"/>
		<path class="st23" d="M-224.5,90.6c0,0,6.5,14.6,14.2,13.4C-210.3,104.1-208.5,96.1-224.5,90.6z"/>
		<path class="st24" d="M-229.3,85.3c0,0,6.5,14.6,14.2,13.4C-215.1,98.7-213.3,90.8-229.3,85.3z"/>
		<path class="st23" d="M-220,88.8c0,0,15.8,10.8,21.8,7.4C-198.2,96.2-202.1,88.6-220,88.8z"/>
		<path class="st24" d="M-228,85.5c0,0,15.8,10.8,21.8,7.4C-206.2,92.9-210,85.3-228,85.5z"/>
		<path class="st23" d="M-219.6,86c0,0,21.8,3.7,24.3-1.4C-195.3,84.6-204.5,79.5-219.6,86z"/>
		<path class="st24" d="M-228.9,86.1c0,0,21.8,3.7,24.3-1.4C-204.6,84.7-213.8,79.6-228.9,86.1z"/>
	</g>
	<g>
		<path class="st21" d="M-185.6,83.4c0,0,2.4-20,9.4-19.7C-176.2,63.7-172.7,73.8-185.6,83.4z"/>
		<path class="st22" d="M-188.6,91.2c0,0,2.4-20,9.4-19.7C-179.2,71.5-175.8,81.6-188.6,91.2z"/>
	</g>
	<g>
		<path class="st21" d="M-183.1,86.1c0,0,12.5-15.8,18.4-11.8C-164.8,74.2-167.1,84.6-183.1,86.1z"/>
		<path class="st22" d="M-189.7,91.1c0,0,12.5-15.8,18.4-11.8C-171.4,79.3-173.8,89.6-189.7,91.1z"/>
	</g>
	<g>
		<path class="st21" d="M-282,85.2c0,0-17.8-9.4-15-15.9C-297,69.3-286.3,69.8-282,85.2z"/>
		<path class="st22" d="M-275.8,90.8c0,0-17.8-9.4-15-15.9C-290.8,74.9-280.2,75.4-275.8,90.8z"/>
	</g>
	<g>
		<path class="st21" d="M-278.6,83.8c0,0-10.2-17.4-4.5-21.4C-283.1,62.5-274.2,68.4-278.6,83.8z"/>
		<path class="st22" d="M-276.3,91.8c0,0-10.2-17.4-4.5-21.4C-280.8,70.5-271.9,76.4-276.3,91.8z"/>
	</g>
	<path class="st25" d="M-267,126.2c0,0,10.5,25,28.3,25.6c17.8,0.6,29.5,1.5,40.6-21.8C-198.1,130-198.3,124-267,126.2z
		 M-223.5,135.4c-1.1,3.2-2.4,6.1-5.8,7.3c-2.5,0.9-5.3-0.3-7.6-0.7c-4.4-0.7-8.1-1.5-11.9-4c0,0-1.8-1.2-0.6-3c1.2-1.8,3-0.6,3-0.6
		c3.2,2.2,6.5,2.7,10.3,3.4c1.7,0.3,3.9,1.3,5.7,0.8c1.9-0.6,2.5-3,3-4.5l-0.1-0.1c0,0,0-2.1,2.1-2.1v0c2.1,0,2.1,2.1,2.1,2.1
		L-223.5,135.4z"/>
</g>
<g id="Layer_2">
	<path class="st26" d="M-1775.9,156.5c0,0-11.4,3-20-20.1s-9.2-47.1,3.6-60.2c12.8-13,36.6-19.4,56.8-20s49.5,18.3,52.4,22.6
		c2.9,4.2,7.9,20.3,2.9,36.6s-13.3,40.1-18.5,43.1c-5.2,3-11.6-5.3-11.6-5.3s23.6-45.5,9.2-56.4s-28.2-12.1-34.4-12.3
		c-6.2-0.2-39.7,5.3-37.9,11.9c1.8,6.6-11.9,23.5-4.4,34.7c7.5,11.2,13.1,20.1,13.1,20.1L-1775.9,156.5z"/>
	<g>
		<polygon class="st27" points="-1773.2,157.1 -1774,157 -1774.7,157.7 -1775.5,157.6 -1776.1,156.8 -1776.8,156.4 -1777.6,156.6 
			-1778.5,157 -1778.9,155.9 -1780,156.4 -1780.5,155.9 -1780.5,154.5 -1781.8,155 -1781.5,153.6 -1781.7,152.7 -1782.4,152.4 
			-1783.7,152.8 -1783.4,151.5 -1784,151 -1784,150.1 -1785.9,150.7 -1786.4,150.2 -1786.1,149.1 -1786.4,148.4 -1786.5,147.6 
			-1787,147.1 -1787,146.3 -1788,146 -1787.4,144.9 -1787.9,144.3 -1788.1,143.7 -1788.3,143 -1790.2,143.1 -1789.8,142.1 
			-1790.3,141.6 -1789.8,140.6 -1790.7,140.1 -1790.1,139.2 -1790.6,138.6 -1792.5,138.5 -1792.1,137.6 -1792.6,137 -1791.3,135.8 
			-1792.3,135.4 -1791.8,134.4 -1792.3,133.9 -1793.8,133.6 -1792.7,132.5 -1793.2,131.9 -1793.1,131.1 -1793.9,130.6 
			-1793.4,129.7 -1795.2,129.5 -1793.4,128.2 -1794.4,127.8 -1794,126.9 -1794.1,126.2 -1795.2,125.7 -1796.2,125.2 -1795.6,124.4 
			-1796.3,123.8 -1795.7,122.9 -1796,122.2 -1796.6,121.6 -1797.1,121 -1796.4,120.1 -1795.9,119.3 -1797.1,118.8 -1797.2,118.1 
			-1795.8,117.1 -1796.9,116.6 -1796.8,115.8 -1798.1,115.3 -1796.9,114.4 -1798.3,113.8 -1797.5,113 -1796.3,112.2 -1798,111.6 
			-1798.4,110.9 -1797.8,110.2 -1798.2,109.5 -1798,108.7 -1798.1,108 -1796.7,107.3 -1798.2,106.6 -1798.4,105.8 -1797.2,105.1 
			-1798,104.4 -1798.2,103.7 -1798.2,102.9 -1798.4,102.2 -1796.6,101.6 -1796.6,100.9 -1796.7,100.2 -1797,99.4 -1797.8,98.6 
			-1797.3,97.9 -1796.6,97.3 -1796.4,96.6 -1797.4,95.7 -1796.1,95.2 -1797.1,94.3 -1796.8,93.6 -1794.8,93.4 -1795,92.6 
			-1794.4,92 -1795.3,91 -1794.4,90.6 -1793.8,90 -1795,88.8 -1793.9,88.5 -1794,87.7 -1793,87.3 -1794.2,86 -1793.1,85.7 
			-1792.1,85.4 -1792,84.7 -1792.7,83.4 -1791,83.6 -1792,82.1 -1790.1,82.6 -1790.8,81.1 -1790.5,80.4 -1790.1,79.9 -1789.7,79.3 
			-1789.2,78.7 -1788.2,78.6 -1788.2,77.6 -1787.1,77.7 -1787.1,76.6 -1785.8,76.9 -1785.8,75.9 -1784.1,76.7 -1784.7,75 
			-1783.3,75.5 -1783.2,74.5 -1781.9,75 -1781.5,74.4 -1781.6,73.1 -1780.1,73.9 -1780.6,71.8 -1779.8,71.8 -1779.1,71.6 
			-1777.8,72.4 -1777.7,71.1 -1776.8,71.2 -1776.5,70.4 -1775.5,70.6 -1775.5,69.2 -1774.2,70.1 -1773.7,69.6 -1773.4,68.5 
			-1772.8,68 -1771.5,69.1 -1771,68.6 -1770.8,67.2 -1770.3,66.6 -1769.1,67.6 -1768.6,66.9 -1768.2,66 -1767,67.2 -1766.4,66.6 
			-1765.7,66.4 -1765.6,64.9 -1764.7,65.2 -1764.2,64.4 -1763.1,65.4 -1762.7,64.4 -1762.1,63.8 -1761.3,64 -1760.4,64.3 
			-1759.6,64.7 -1759.2,63.5 -1758.7,62.6 -1757.9,62.8 -1756.8,64.1 -1756.2,63.4 -1755.6,63.1 -1754.9,63.1 -1754.1,63.2 
			-1753.6,62.3 -1752.8,62.3 -1752,62.8 -1751.3,62.6 -1750.8,61.4 -1749.9,62.2 -1749.2,62.2 -1748.8,60.5 -1748.1,60.2 
			-1747.3,60.7 -1746.5,61.2 -1745.8,61.1 -1745.2,59.8 -1744.3,61.5 -1743.5,61.7 -1743,60.2 -1742.3,59.8 -1741.5,60.8 
			-1740.8,59.7 -1740.1,59.9 -1739.3,60.2 -1738.7,59.1 -1737.9,60 -1737.2,59.1 -1736.5,60.8 -1735.7,61.1 -1735,60.9 
			-1734.3,60.3 -1733.6,61.3 -1732.8,59.5 -1732.2,60.4 -1731.4,60.3 -1730.8,61.2 -1730.1,61.6 -1729.4,61.3 -1728.7,61.6 
			-1727.7,59.9 -1727.3,61.5 -1726.4,61 -1725.9,62 -1724.9,60.8 -1724.3,61.6 -1723.9,62.8 -1723,62.2 -1722.4,62.7 -1721.7,62.9 
			-1720.6,61.9 -1720,62.4 -1719.6,63.5 -1718.7,62.9 -1718.1,63.6 -1717.7,64.4 -1717,64.6 -1716.2,64.7 -1715.5,64.8 
			-1714.6,64.5 -1714.1,65.1 -1713.1,64.6 -1713.2,66.7 -1712.5,67 -1711,65.3 -1710.7,66.6 -1710,66.7 -1709.7,67.7 -1708.5,67 
			-1708.6,68.8 -1707.8,68.7 -1706.5,68 -1706.3,69 -1705.9,70 -1704.6,69 -1704,69.4 -1703.1,69.3 -1703,70.6 -1702.9,71.8 
			-1701.2,70.4 -1701,71.5 -1700,71.3 -1700.3,73.2 -1699.2,72.8 -1698.4,72.9 -1697.7,73.1 -1697.4,74.1 -1696.6,74.2 -1696,74.5 
			-1695.2,74.7 -1694.4,74.8 -1694.4,76 -1694.1,76.8 -1693.3,77 -1691.9,76.3 -1692,77.7 -1691.9,78.6 -1690.7,78.3 -1690.1,78.7 
			-1689.3,78.9 -1688.9,79.5 -1689.1,80.9 -1687.8,80.5 -1687.6,81.3 -1686.7,81.6 -1687.6,83 -1686.5,83.2 -1686.8,84.1 
			-1686,84.5 -1686.3,85.5 -1684.6,85.6 -1685.9,86.8 -1685.3,87.3 -1684.4,87.8 -1684.1,88.5 -1685.3,89.6 -1683.7,89.9 -1685,91 
			-1684.3,91.5 -1682.6,91.9 -1684.3,93 -1683.3,93.5 -1684.1,94.4 -1683.9,95.1 -1682.9,95.7 -1683,96.4 -1683.8,97.2 
			-1683.1,97.9 -1682.9,98.6 -1683.5,99.3 -1683.5,100.1 -1682.1,100.7 -1682.8,101.5 -1681.8,102.2 -1682.9,102.9 -1682.5,103.6 
			-1683.2,104.3 -1682.7,105.1 -1683.2,105.8 -1682.9,106.5 -1682.6,107.3 -1682.4,108 -1683.1,108.7 -1683.9,109.3 -1682.7,110.2 
			-1683.6,110.8 -1683.8,111.5 -1682.5,112.5 -1683.1,113.1 -1683.1,113.8 -1684.6,114.3 -1683.9,115.2 -1685.1,115.6 
			-1685.3,116.3 -1685.1,117.1 -1683.7,118.3 -1684.3,118.8 -1685,119.4 -1686.4,119.7 -1686.1,120.5 -1686.3,121.2 -1685.8,122.1 
			-1685.3,123 -1686.9,123.3 -1686.1,124.3 -1687.9,124.4 -1686.5,125.7 -1686.5,126.4 -1688.5,126.5 -1687.1,127.7 -1687.4,128.4 
			-1687.5,129.1 -1687.8,129.8 -1687.8,130.5 -1689.9,130.6 -1688.7,131.7 -1689.1,132.4 -1688.9,133.2 -1689.4,133.8 
			-1689.4,134.5 -1691.1,134.7 -1690,135.9 -1690.2,136.6 -1691.3,137 -1691.3,137.7 -1690.3,138.8 -1691.7,139.1 -1692.2,139.7 
			-1691.9,140.6 -1691.6,141.5 -1693.6,141.5 -1693,142.5 -1694,142.9 -1693.8,143.7 -1693.1,144.8 -1693,145.6 -1693.5,146.2 
			-1694.9,146.4 -1694.2,147.5 -1695,147.9 -1696.3,148.2 -1695.3,149.4 -1695.7,150 -1697,150.2 -1695.7,151.6 -1697.6,151.4 
			-1696.7,152.7 -1696.9,153.4 -1697.2,154.1 -1698.9,154 -1698.3,155.1 -1698.1,156.1 -1699,156.4 -1699.9,156.7 -1700.6,157 
			-1700.9,157.7 -1701.8,157.7 -1702.3,157.9 -1702,160 -1703.1,159.1 -1703.8,158.3 -1704.3,158.5 -1705.3,160 -1705.7,158.8 
			-1706.1,157.9 -1706.7,157.7 -1707.8,158.1 -1708.7,158.2 -1708.3,156.6 -1709,156.2 -1710.7,157.1 -1710.5,155.8 -1710.4,154.7 
			-1712.4,155.5 -1712.2,154.4 -1712.7,153.7 -1711.2,153.5 -1712.1,152.2 -1710.6,152.2 -1710.5,151.4 -1711.8,150 -1711,149.6 
			-1709.3,149.6 -1709.2,148.8 -1709.6,147.8 -1708.5,147.5 -1709.1,146.5 -1708.6,145.9 -1708.7,145.1 -1707.3,144.9 
			-1708.7,143.5 -1707.5,143.3 -1706.8,142.7 -1707.7,141.6 -1707.2,141.1 -1705.9,140.8 -1705.6,140.1 -1706.6,139 -1704.8,138.9 
			-1704.6,138.2 -1704.7,137.3 -1705.2,136.4 -1704.4,135.9 -1704.7,135 -1704.7,134.3 -1704.6,133.6 -1703.8,133 -1704.3,132.1 
			-1703.8,131.6 -1702.6,131.2 -1704.1,129.9 -1703,129.5 -1702.1,129.1 -1703,128 -1702.8,127.3 -1701.7,126.9 -1702.6,125.9 
			-1701.6,125.4 -1701.9,124.6 -1700.8,124.1 -1700.8,123.3 -1700.2,122.7 -1700.8,121.9 -1699.9,121.3 -1701,120.3 -1701.4,119.5 
			-1699.7,119.1 -1701.1,118.1 -1700.9,117.4 -1699,117 -1699.1,116.2 -1699.8,115.4 -1698.8,114.7 -1698.6,114 -1699.1,113.2 
			-1699.3,112.5 -1700.4,111.7 -1700.5,111 -1700.5,110.3 -1699.9,109.6 -1699,108.8 -1698.8,108 -1698.8,107.3 -1699.8,106.7 
			-1700.7,106.1 -1701.1,105.5 -1700.9,104.7 -1699.8,103.6 -1700.4,103 -1700.4,102.1 -1701.9,102.2 -1702.3,101.5 -1702.4,100.8 
			-1702.8,100.2 -1702.8,99 -1704.5,100 -1704.2,98.4 -1704.9,98.1 -1706.3,98.8 -1706.5,97.9 -1707.4,97.8 -1707.2,96.3 
			-1708.5,96.9 -1708.5,95.7 -1708.7,94.6 -1710.4,96 -1709.9,93.8 -1711.3,94.7 -1712.2,94.8 -1712.8,94.5 -1713.3,93.9 
			-1713.8,93.3 -1714.6,93.3 -1715.1,92.6 -1715.5,91.9 -1716.1,91.5 -1717,91.6 -1717.9,91.9 -1718.5,91.7 -1718.7,90.1 
			-1719.8,91 -1719.9,89.2 -1721.2,90.7 -1721.4,88.9 -1722.1,88.6 -1723,89.2 -1723.5,88.2 -1724.3,88.4 -1724.9,87.9 
			-1725.9,88.7 -1726.7,89 -1727.3,88.3 -1727.9,88.1 -1728.8,88.7 -1729.2,86.9 -1730,87.3 -1730.8,87.8 -1731.5,87.2 
			-1732.2,86.9 -1733,88.4 -1733.7,87.7 -1734.3,86.7 -1735.1,88.3 -1735.8,87.4 -1736.5,87.5 -1737.2,87.1 -1737.9,87.7 
			-1738.6,87.9 -1739.4,86.6 -1740.1,87.3 -1740.9,86.7 -1741.6,86.7 -1742.2,87.7 -1743,87.1 -1743.4,89.2 -1744.4,87.5 
			-1744.9,88.9 -1745.6,88.7 -1746.3,89.2 -1747.2,87.9 -1747.8,88.7 -1748.5,88.8 -1749,90 -1750,88.3 -1750.5,89.5 -1751.1,90.3 
			-1751.8,90.2 -1752.8,89 -1753.4,89.7 -1754,90.5 -1754.6,91.1 -1755.4,90.5 -1756.1,90.8 -1757,90.4 -1757.8,90.2 -1758.2,91.2 
			-1759.2,90.4 -1759.4,92.2 -1760.1,92.5 -1760.9,92.3 -1761.4,93.1 -1762.3,92.6 -1763.1,92.5 -1764,92.3 -1764.2,93.6 
			-1764.8,93.9 -1765.6,93.8 -1766.6,93.4 -1767.5,93.4 -1767.5,94.8 -1768.2,95 -1769.4,94.6 -1768.7,96.7 -1769.4,96.9 
			-1770.8,96.6 -1771.3,97.2 -1772,98 -1771.7,99.1 -1769.8,99.5 -1771.2,100.3 -1770.4,101.1 -1771.5,101.6 -1770.5,102.6 
			-1770.3,103.4 -1772.1,103.6 -1772.7,104.2 -1772.1,105.2 -1772.6,105.7 -1773.3,106.2 -1771.6,107.6 -1772.2,108.2 -1773,108.7 
			-1774,109.1 -1773.4,110 -1772.9,111 -1773.4,111.6 -1774.7,111.9 -1775.6,112.3 -1774.8,113.4 -1775,114.1 -1775.8,114.6 
			-1776.1,115.3 -1775.2,116.3 -1775.2,117.1 -1775.8,117.6 -1777.1,118 -1776.4,119 -1776.3,119.7 -1776.5,120.4 -1777,121.1 
			-1776.4,121.9 -1776.6,122.6 -1776.3,123.3 -1778,124 -1778.1,124.7 -1777.4,125.5 -1776.6,126.1 -1777.5,127 -1776.6,127.6 
			-1776.1,128.2 -1776.3,129 -1776.2,129.7 -1775.7,130.3 -1775.8,131.1 -1774.4,131.2 -1774.5,132 -1774.3,132.8 -1774.4,133.7 
			-1774.2,134.4 -1773,134.5 -1773.5,135.7 -1773.1,136.3 -1772.4,136.7 -1771.9,137.2 -1770.8,137.4 -1770.9,138.3 -1770.6,139 
			-1770.7,139.9 -1770.1,140.4 -1769.1,140.6 -1769.1,141.4 -1768.7,142 -1769.2,143.2 -1768.2,143.4 -1767.8,144 -1766.8,144.2 
			-1766.9,145.1 -1765.7,145.2 -1765.3,145.8 -1766.6,147.4 -1765,147.3 -1765.2,148.2 -1765.6,149.3 -1763.4,148.8 -1764.6,150.4 
			-1763.8,150.7 -1764.1,151.7 -1762.8,151.8 -1763.3,152.5 -1763.8,153.1 -1764.3,153.6 -1765.7,152.6 -1765.7,154.2 
			-1766.6,153.9 -1767.4,153.9 -1767.9,154.6 -1768.8,154.4 -1769.7,154.2 -1770.2,154.9 -1771,154.9 -1771.3,156 -1772.4,155.4 
			-1773.2,155.7 		"/>
	</g>
	<polygon class="st20" points="-1767.8,153.5 -1769,151.6 -1769.9,154.7 -1770.7,153.6 -1771.7,153.9 -1771.6,150.9 -1773.6,153.7 
		-1772.8,150.3 -1773.9,150.6 -1775.9,152 -1774.3,148.7 -1776.1,149.6 -1777.9,150.4 -1777.9,149.1 -1776.5,146.9 -1779.1,148 
		-1778.6,146.6 -1778.5,145.5 -1780.4,145.8 -1781.5,145.5 -1781.6,144.6 -1781.3,143.5 -1780.7,142.2 -1781.8,141.9 -1782.7,141.4 
		-1782.2,140.3 -1782.3,139.5 -1783.8,139.2 -1783.7,138.3 -1783.4,137.3 -1782.2,136 -1782.9,135.4 -1786.2,135.7 -1784.1,134.1 
		-1783.5,133 -1783.5,132.2 -1783.9,131.5 -1784.4,130.8 -1787.4,130.8 -1785.5,129.4 -1787.2,129 -1787.1,128.2 -1786.4,127.1 
		-1787.3,126.5 -1786,125.4 -1786,124.6 -1787.1,124 -1788.8,123.5 -1789,122.7 -1786.3,121.4 -1790.2,121.2 -1789.1,120.2 
		-1789.8,119.5 -1790.5,118.7 -1786.8,117.4 -1787.1,116.6 -1790.8,116.2 -1789.4,115.3 -1791,114.6 -1787.3,113.5 -1790,112.8 
		-1790.8,112 -1787.5,111.1 -1788,110.3 -1788.6,109.5 -1787.8,108.7 -1789.8,107.9 -1790.3,107 -1788.1,106.3 -1789.9,105.4 
		-1790.2,104.5 -1788.5,103.9 -1789.5,102.9 -1790,102 -1789.4,101.3 -1788.1,100.7 -1789,99.7 -1788.1,99 -1788.8,98 -1789.5,96.9 
		-1786.2,97 -1788.9,95.4 -1787.9,94.8 -1785.9,94.6 -1786,93.7 -1787.7,92.1 -1787.6,91.2 -1785.5,91.3 -1784.5,90.9 -1784.9,89.8 
		-1784.2,89.2 -1784.5,88.1 -1782.2,88.7 -1781.4,88.4 -1783.4,85.7 -1783.2,84.8 -1782.3,84.5 -1781.8,83.7 -1780.4,84 -1780.1,83 
		-1779.3,82.6 -1779.4,81.3 -1777.2,82.7 -1778.2,80.1 -1776.3,81.2 -1776.4,79.6 -1774.1,81.6 -1774.2,80 -1772.8,80.7 
		-1773.3,78.3 -1773,77.2 -1771.1,78.8 -1770.5,78.2 -1770.2,77.2 -1769.1,77.5 -1769.5,74.8 -1768.4,75.2 -1766.8,76.7 
		-1766.4,75.7 -1765.4,75.9 -1764.6,75.8 -1764.4,74.1 -1764,72.7 -1762.2,75.2 -1761.5,74.9 -1761.8,71.6 -1760.1,73.9 
		-1759.8,72.1 -1759.4,70.8 -1758.3,71.5 -1757.6,71 -1756.7,71.1 -1755.9,70.7 -1754.8,72 -1753.8,72.4 -1753.2,71.4 -1752.9,69.4 
		-1752,69.3 -1750.8,71 -1749.8,71.7 -1749,71.6 -1748.8,68.5 -1747.9,68.8 -1746.8,70.5 -1746.1,69.3 -1745.3,69.5 -1744.7,67.7 
		-1743.5,70.5 -1742.8,69.9 -1741.9,70.2 -1741.3,68 -1740.4,68.8 -1739.6,68.1 -1738.9,67.1 -1738,66.9 -1737.2,66.7 -1736.4,66.9 
		-1735.5,70.1 -1734.7,68.8 -1733.9,69.4 -1733,67.7 -1732.2,68.1 -1731.3,67.7 -1730.5,67.7 -1729.6,67.6 -1728.7,67.2 -1728.2,69 
		-1727.3,69 -1726.9,70.7 -1726.2,71.1 -1725.3,71 -1724.5,71.1 -1723.3,69.8 -1722.2,69.1 -1721.6,69.9 -1721.4,71.8 -1720.1,70.6 
		-1719.8,72.3 -1718.8,71.7 -1717.9,71.9 -1717.3,72.6 -1716.5,72.8 -1715.5,72.5 -1715.8,75.2 -1714.7,74.6 -1713.3,73.7 
		-1713.3,75.6 -1712.9,76.5 -1710.8,74.1 -1710.7,75.8 -1709.3,74.8 -1709.4,76.8 -1707.9,75.8 -1707.3,76.3 -1706.1,75.9 
		-1707,79.1 -1705.7,78.6 -1705.5,79.8 -1703.5,78.1 -1704,80.5 -1703.2,80.6 -1701.5,79.5 -1702.1,82 -1700.3,80.8 -1700.1,81.9 
		-1698.7,81.2 -1698.8,82.9 -1698.5,83.9 -1698.2,84.8 -1696.6,83.9 -1697.2,86.1 -1696.7,86.7 -1694,84.8 -1694.8,86.9 
		-1694.1,87.3 -1693.7,87.9 -1693.7,88.7 -1691,88.3 -1693.7,90.3 -1692.6,90.7 -1692.5,91.5 -1692,92.2 -1692.1,93 -1691.6,93.7 
		-1691.6,94.5 -1688.9,94.7 -1690,95.8 -1691,96.8 -1691.8,97.8 -1688.6,98 -1689.1,98.9 -1688.9,99.7 -1688.9,100.6 -1688.2,101.3 
		-1689.6,102.3 -1689.4,103.1 -1689.3,103.9 -1690.5,104.7 -1688.3,105.5 -1688.1,106.3 -1688.2,107.1 -1689.1,107.9 -1687.5,108.8 
		-1690,109.5 -1688.5,110.4 -1687.6,111.3 -1691.5,111.7 -1689.7,112.8 -1691.4,113.3 -1689.7,114.4 -1689.6,115.3 -1689.1,116.2 
		-1690.6,116.7 -1691.4,117.3 -1690.7,118.4 -1689.9,119.5 -1690.4,120.2 -1690.2,121.1 -1691.9,121.4 -1692,122.3 -1694,122.5 
		-1690.8,124.3 -1691.1,125.1 -1692.2,125.6 -1695.1,125.5 -1695.3,126.3 -1692,128.3 -1693.2,128.7 -1694.3,129.2 -1693.3,130.5 
		-1694.3,131 -1693.4,132.1 -1693.8,132.9 -1696,133 -1695.9,133.9 -1695.6,134.9 -1695.6,135.8 -1696.9,136.2 -1698,136.7 
		-1698,137.5 -1699.3,137.9 -1697.9,139.3 -1697.1,140.5 -1697.2,141.4 -1697.1,142.3 -1698.5,142.7 -1700.8,142.6 -1699.4,144.1 
		-1700,144.7 -1700.8,145.2 -1700.9,146.1 -1700.4,147.2 -1702.9,147 -1702.5,148 -1700.3,150.1 -1704.1,149.1 -1701.4,151.4 
		-1704,150.9 -1703.3,152.3 -1703.2,153.4 -1704.8,153.2 -1706.2,153 -1705.5,154.9 -1706.3,155.7 -1707.3,155.3 -1708.1,154.4 
		-1709.3,156.4 -1709.3,153.6 -1710.1,153.7 -1710.1,152.2 -1712.7,154.6 -1711.5,151.8 -1713.8,153.2 -1713.4,151.6 -1713.3,150.5 
		-1715.6,151.4 -1713.3,149.8 -1715.9,148.7 -1714.3,148.6 -1714.9,147.4 -1712.6,147.6 -1715.2,145.5 -1714.6,144.9 -1712.7,144.9 
		-1713,143.9 -1713,143 -1710.8,143 -1712.9,141.3 -1710.4,141.4 -1710.1,140.7 -1712.1,139 -1709.2,139.3 -1709.1,138.5 
		-1711,136.9 -1709.3,136.7 -1709.8,135.6 -1708,135.4 -1708.5,134.4 -1710.2,132.9 -1707.9,132.8 -1706.6,132.4 -1707.2,131.4 
		-1705.8,130.9 -1705.7,130.1 -1707.2,128.8 -1705,128.6 -1706,127.5 -1705.2,126.8 -1705,126 -1706.6,124.8 -1705.2,124.3 
		-1704.1,123.7 -1703.3,123 -1704.1,122 -1703.8,121.2 -1706.5,119.9 -1703.9,119.5 -1705.3,118.5 -1704.3,117.8 -1702.8,117.1 
		-1704.7,116.1 -1704.6,115.3 -1702.8,114.6 -1704.3,113.7 -1705.7,112.9 -1702,112 -1702.3,111.2 -1705.9,110.7 -1705.9,109.9 
		-1705.1,109 -1704.4,108 -1706.3,107.8 -1706.2,107 -1706,106.1 -1705.2,104.8 -1707.7,105.5 -1705.7,102.9 -1708.4,104.4 
		-1707.9,102.8 -1709.5,103.5 -1708.1,100.2 -1710.3,101.9 -1709.6,99.5 -1711,100 -1712.5,100.9 -1712.6,99.6 -1713,98.6 
		-1713.3,97.5 -1715.1,99.1 -1714.5,96.3 -1716.6,98.5 -1716.5,96.5 -1718.3,98.4 -1718.8,97.5 -1719.2,96.5 -1720.1,96.5 
		-1720.4,95.1 -1720.9,94 -1722.3,95.5 -1722.7,94.2 -1723.1,92.9 -1724.8,95.5 -1725.4,94.9 -1725.7,92.8 -1727.1,95.1 
		-1727.4,92.8 -1728.1,92.4 -1728.8,91.4 -1730.1,94.4 -1730.7,92.8 -1731.6,93.5 -1732.4,93.4 -1733.3,94.4 -1733.9,92.7 
		-1734.6,90.5 -1735.5,93.1 -1736.3,93.9 -1737.2,91.6 -1738,91.9 -1738.7,92.9 -1739.5,93.2 -1740.6,91 -1741.1,93.2 -1741.8,94.2 
		-1742.6,94.8 -1743.7,92.5 -1744.6,92.1 -1745.2,93.9 -1745.8,95.1 -1746.9,93.5 -1747.3,95.7 -1748.3,94.5 -1748.8,96.1 
		-1749.7,95.8 -1751.1,93.4 -1751.7,94.7 -1752.7,93.7 -1753.3,95 -1754.5,93.4 -1754.8,95.7 -1755.6,95.9 -1756.7,95 -1756.9,97.1 
		-1757.8,97.1 -1758.6,97.2 -1759.6,96.8 -1759.9,98.4 -1760.6,98.7 -1762.5,96.4 -1762.3,98.8 -1762.9,99.3 -1763.9,99.3 
		-1764.3,100 -1765.9,99.4 -1765.9,100.6 -1766.7,101.3 -1765.9,102.2 -1766,103.1 -1766,103.9 -1766.7,104.6 -1767.2,105.3 
		-1764.5,106.8 -1766.2,107.2 -1766.2,108.1 -1768.9,108 -1768.2,109.1 -1767,110.4 -1767.9,110.9 -1769.2,111.3 -1769.7,112.1 
		-1768.1,113.5 -1771,113.3 -1769.5,114.7 -1770.3,115.3 -1771.2,115.9 -1768.4,117.6 -1770.4,117.9 -1769.3,119 -1771.3,119.4 
		-1772,120.1 -1770.2,121.3 -1770.3,122 -1770.3,122.8 -1770.8,123.6 -1771.7,124.4 -1770.7,125.2 -1772.2,126.1 -1771.2,126.8 
		-1771.2,127.6 -1771,128.4 -1772.4,129.8 -1771.5,130.5 -1769.3,130.3 -1769.1,131.1 -1768,131.4 -1768.8,132.9 -1768.5,133.6 
		-1766.9,133.7 -1768.7,135.8 -1766.7,135.5 -1765.2,135.5 -1766.4,137.3 -1764.2,136.9 -1763.9,137.7 -1764.3,138.9 -1762.6,138.8 
		-1764.3,140.9 -1762,140.4 -1763.8,142.5 -1761.7,142.2 -1760.4,142.3 -1762.8,144.8 -1760.3,144.2 -1760.3,145.2 -1759.2,145.5 
		-1759.2,146.5 -1758.5,147 -1758.1,149.2 -1760.1,148 -1760.6,149.1 -1760.6,150.8 -1762,149.9 -1763.5,148.9 -1763.4,150.9 
		-1764.6,150.4 -1765,151.6 -1765,153.4 -1766.8,151.7 -1766.2,153.4 	"/>
</g>
</svg>
