<svg id="5ce6fcdc-7e25-44e6-b17a-91af807a1501" data-name="Layer 1" xmlns="http://www.w3.org/2000/svg" viewBox="0 0 290 357.9"><title>baby</title><path d="M185.9675,110.6139a2.2489,2.2489,0,0,1-2.2435,1.3692,2.4485,2.4485,0,0,1-2.5-2.5,36.8737,36.8737,0,0,0-.9-9.301c-.1482-.6383.1238-1.4976-.3674-1.9312-.6563-.5793-1.796-.1908-2.5466-.6412-2.353-1.4118-3.67-4.6466-6-6-.9115-.5294-2.1186-.4218-3-1-3.282-2.1526-5.4524-7.215-3.9954-11.0833.4453-1.1822,1.6642-1.9026,2.542-2.8111a13.2423,13.2423,0,0,1,2.4534-2.3588c3.893-2.3473,8.4485-1.8335,12.5238-3.2451,2.5561-.8264,4.6835-1.92,7.515-1.021,3.6366,1.1541,3.4113,2.5,5.8605,4.4594,3.4337,2.7469,5.9833,3.7426,6.8828,8.5328.8048,4.2864-.2933,8.7114-1,12.801-.3673,2.1249.9421,5.6066-.7,7.3673-1.0056,1.0782-2.93.37-4.3673.7-.8973.2063-1.7235.6553-2.61.904-.6615.1857-1.5617-.1133-2.0228.3961-.5875.6489-.0406,1.91-.6411,2.5465-1.29,1.3682-3.134,2.0792-4.7011,3.1188l-.1821-.3023Z" fill="#845d27"/><path d="M200.7584,87.1411a42.1243,42.1243,0,0,1-1.4051,5.881,46.0978,46.0978,0,0,1-.3586,7.1718c-.2035,1.3565.3044,2.597-.4649,3.8885-.735,1.2339-2.3242,1.7467-3.4889,2.4059-3.1953,1.8087-4.8647,1.8936-8.5793,1.8943q-.011.5257-.0118,1.0429a.75.75,0,1,1-1.5,0q0-.191.0019-.3831a.711.711,0,0,1-.5648.0189.7346.7346,0,0,1-.4744-.9487c.2485-.7442.5039-1.4972.7588-2.258a.82.82,0,0,1-.0009-.709c.1306-.2611.2667-.524.4063-.7886a15.9184,15.9184,0,0,0-1.4755-7.8511c-1.3093-2.4261-4.281-4.8657-6.0634-7.1156-1.6956-3.3725-4.2683-7.0011-5.44-10.5163l-.3365-.6687a.75.75,0,0,1,1.3417-.6709l.3807.7656c1.1461,3.4386,3.6717,6.9687,5.3176,10.2818,1.8564,2.293,4.7231,4.7353,6.1286,7.2279a12.5851,12.5851,0,0,1,1.44,4.5445,28.43,28.43,0,0,0,1.0954-10.56c-.1629-1.4129-1.2724-2.6879-1.7414-4.1074-1.8514-3.6906-6.318-8.6237-5.4159-13.01.27-1.3126,1.4309-1.6647,1.8521-2.6732l1.56.1637a.7344.7344,0,0,1,0,1.0606.6755.6755,0,0,1-.7938.1742,3.1729,3.1729,0,0,0-1.1581,1.6193c-.7441,3.8817,3.6985,8.7946,5.3418,12.0913.4014,1.1949,1.0831,2.1748,1.5115,3.2818-.0446-1.1348-.0858-2.2589-.0858-3.3534,0-2.38.4874-5.3825.02-7.7166-.5377-2.6856-1.2519-5.1327-.34-7.94l-.0384-.1215a.75.75,0,0,1,1.5,0l-.0385.5958c-.86,2.5-.0985,4.7414.377,7.1208.4929,2.4664.02,5.552.02,8.0613,0,3.6409.4363,7.5934-.0056,11.2078-.3524,2.8824-1.9172,5.5964-3.3019,8.19q-.0832.2539-.167.5063-.0047.2225-.01.4448c1.6711-1.1741,4.36-1.93,5.7578-3.2735.786-.7551.6781-2.6987.9112-3.6309.7634-3.0538.3122-6.32-.299-9.3751-.9553-4.0129-1.14-9.6617.7143-13.3694l1.0294-.4146a.7345.7345,0,0,1,.75.75.7.7,0,0,1-.626.7371c-1.4935,3.4037-1.264,8.4435-.4029,11.9741a31.5007,31.5007,0,0,1-.0525,11.4058c-.145,1.0183-.0886,2.08-.8985,2.9139a14.7554,14.7554,0,0,1-4.579,3.0662c-.6869.3023-1.4755.2039-1.9141.7084,3.1719-.0034,4.5056-.0777,7.3466-1.6914.8877-.5043,2.3872-.9445,2.9657-1.8972.5981-.9848.0994-2.2191.2522-3.2832a50.9379,50.9379,0,0,0,.3586-7.1717c.47-1.88,1.4483-4.4313,1.4287-6.363l1.1086-.75a.7345.7345,0,0,1,.75.75.6746.6746,0,0,1-.3934.6652Z" fill="#62441c"/><path d="M183.35,136.0507c1.4339-.425,2.9362.6072,4.3614,1.0625,1.3617.4351,3.0759.4944,3.9772,1.6039a7.468,7.468,0,0,1,1.6654,5.3422c-.1614,1.3771-1.733,2.1672-2.6654,3.1934-2.1286,2.3429-2.5935,6.6355-6.1934,7.6653-1.3109.3751-2.6249-.7738-3.9748-.9654-1.6591-.2354-5.9418.6176-7.0614-.44-5.2214-4.93-1.5253-5.1724.3352-8.3424,1.0671-1.8182.9321-4.1823,2-6,.8874-1.5106,2.244-2.8,2.7549-4.4762a2.4485,2.4485,0,0,1,3.1623-1.5812A2.374,2.374,0,0,1,183.35,136.0507Z" fill="#ceebed"/><path d="M196.9207,141.9849c1.3189.0634,2.7395-.3214,3.9567.19,2.4718,1.0392,3.4736,3.8365,4.9766,5.7247,1.7175,2.1578,4.981,3.8991,6.2421,6.3533,1.6044,3.1219,2.2916,7.7651,2.3245,11.2317,0,6.5118,1.0065,13.96-.0323,20.4-.1678,1.0406-.82,1.9613-1,3-.5014,2.9017.4715,6.0768,0,9-.1678,1.0406-.847,1.957-1,3-.4769,3.2529.5412,6.7432,0,10-.3455,2.08-1.6421,3.9224-2,6-.2013,1.1693.2788,2.4529-.158,3.5562-.3942.9959-1.6336,1.4382-2.183,2.3576-.5814.9729-.23,2.5278-1.14,3.2032a6.8933,6.8933,0,0,1-.68.4432l.08.1194-2.9716,1.9811a2.501,2.501,0,0,1-3.7684-2.9071l.9815-2.9447c.1237-.3711,2.0356-6.1279,2.1259-6.3078.4807-.9575,1.4936-1.6168,1.8531-2.6261.8045-2.2588-.5428-5.1889-.9915-7.3979a12.94,12.94,0,0,1-2.848,4.89,15.7032,15.7032,0,0,1-3.1433,2.1432l-1.8567,1.8568a2.5,2.5,0,0,1-4.2678-1.7678v-3h.1382l-.1059-.4005a37.3364,37.3364,0,0,0,1.9677-11.5995v-16c0-2.9244.52-6.6867.0323-9.6-.54-3.2263-2.3822-5.5041-3.7781-8.302-1.1564-2.318-2.065-4.7517-3.0639-7.1417-.95-2.272-1.88-5.1689-1.083-7.6812,1.02-3.2137,4.3306-5.749,6.6249-8.0433a2.4485,2.4485,0,0,1,3.5356,0,3.39,3.39,0,0,1,.2415.2678Z" fill="#845d27"/><path d="M193.6477,195.827a2.4484,2.4484,0,0,1-1.819-3.0317l.2779-1.0371c.4356-3.4847.0205-7.4839.6985-10.8592.5022-2.5,2.0662-4.9072,2.69-7.437a2.5762,2.5762,0,0,1,2.0284-1.9026q-.0264-.19-.0629-.3784c-.7014-3.6109-3.68-6.2489-4.61-9.7528a2.91,2.91,0,0,1-.9306.14,2.4485,2.4485,0,0,1-2.5-2.5,22.1964,22.1964,0,0,0-1.205-7.8761l-.3334-1a2.4486,2.4486,0,0,1,1.5812-3.1623,2.3355,2.3355,0,0,1,1.9816.1164,3.36,3.36,0,0,1-.0244-.4113,2.2653,2.2653,0,0,1,1.6335-2.3445,2.3638,2.3638,0,0,1,.5332-1.8222,2.4485,2.4485,0,0,1,3.5-.5l1.8677,1.5469c2.7907,4.0328,2.5366,7.2071,3.1136,11.8143A108.5628,108.5628,0,0,0,205.84,172.555a104.3355,104.3355,0,0,0-.2545-12.5614,2.5708,2.5708,0,0,1,2.0019-4.092l2.814,2.19a78.3334,78.3334,0,0,1,.4862,9.6916c.0922-.9409.1623-1.8868.2029-2.8394.1041-2.4392,1.3835-5.8014.2272-8.1606-1.9726-4.025-6.7478-6.2351-9.1836-10.0565l-.4494-.8736a2.5,2.5,0,1,1,4.4721-2.2361l.2173.46c2.4986,4.1013,7.4438,6.1155,9.483,10.61,1.604,3.5356.3881,6.8707.2272,10.506-.3688,8.3316-2.9969,16.1328-2.9969,24.5421a2.8989,2.8989,0,0,1-.7288,1.84,24.3451,24.3451,0,0,1,.0573,3.6488,56.6044,56.6044,0,0,1-2.8013,14.0013c-2.0675,6.1852-5.2146,11.0489-5.1938,17.8434a2.5,2.5,0,1,1-5,0c.0174-6.5415,2.75-12.7385,5.0886-18.9954a2.571,2.571,0,0,1-4.0886-2.0046c.0012-1.9833.0777-3.9147.1739-5.8176-1.7133,4.6167-3.669,9.1859-4.1892,14.0936a2.5,2.5,0,1,1-4.9694-.5521c.5657-4.9021,2.4926-9.4647,4.1842-14.0662a3.1144,3.1144,0,0,1-.2-.9911c0-1.0014-.0188-2.0148-.0444-3.0356a2.4269,2.4269,0,0,1-1.7286.1276Zm3.1269-44.1355c.02.9429.058,1.9056.1224,2.8671q.0315-.03.0632-.0581C196.8905,153.5087,196.8608,152.5844,196.7746,151.6915Zm9.643,40.8346c-.233,4.3676-.9426,8.6365-.994,13.0186,1.7671-5.1,2.9986-10.2752,2.0294-15.7427a26.5555,26.5555,0,0,0-1.6226-5.3159,37.4767,37.4767,0,0,1,.5872,8.04Z" fill="#62441c"/></svg>