<svg id="c9057a67-4472-45a6-a96a-b0d81737ddfb" data-name="Layer 1" xmlns="http://www.w3.org/2000/svg" viewBox="0 0 290 357.9"><title>baby</title><path d="M104.5128,105.0489c-1.9116.922-4.2136-1.1479-5.8625-2.4841-.9008-.73-.7624-2.1922-1.2216-3.2569-1.4587-3.3817-3.9161-4.9039-4.6515-8.6445-1.0992-5.5907-1.9961-12.6548,1.24-17.8913,1.9194-3.1062,5.9642-4.7475,9.0451-6.288,1.106-.6646,2.5753-.2318,3.8658-.29,3.1243-.1407,6.5822-.4029,9.4026,1.272,2.454,1.4574,2.5061,2.98,4.2138,5.0352,1.7939,2.1592,4.1323,4.115,6.1253,6.108,2.3477,2.3478,3.9131,4.7248,7.111,5.687a2.4484,2.4484,0,0,1,1.5812,3.1622l-.019.0554a2.892,2.892,0,0,1,.1473.9515,2.4485,2.4485,0,0,1-2.5,2.5l-2.2956-.0323c-7.6392,2.6591-16.919,4.2206-20.6318,12.1307a3.0965,3.0965,0,0,1-.9214,1.0379,2.3054,2.3054,0,0,1-1.7231,1.1943,2.2555,2.2555,0,0,1-2.307-.6953,1.9226,1.9226,0,0,1-.5984.448Z" fill="#010101"/><path d="M173.6736,101.247c-.44-.44-.8237-.839-1.1112-1.128-4.1266-4.1474-8.6466-7.0787-11.9954-12.0641a2.4485,2.4485,0,0,1,.6933-3.4669l.0141-.0093a12.2686,12.2686,0,0,1-.754-4.617.9733.9733,0,0,1,.15-.1871l-.01-.0161.07-.05c.78-.85,3.4808-3.5337,3.7438-3.7955,4.8641-4.8419,10.3319-6.3256,17.0456-6.1244,1.2187.0365,2.5223-.2664,3.6528.19a52.4422,52.4422,0,0,1,4.5714,4.32c5.97,7.4917,5.9447,16.7656,2.8894,25.3667a87.7384,87.7384,0,0,1-6.65,6.7443c-1.1187.9337-2.11,2.4514-3.5652,2.53-1.2629.0679-1.9936-1.58-3.1117-2.1707a17.3751,17.3751,0,0,0-2.6961-.8987l-2.2508-2.1563a2.6542,2.6542,0,0,1-.6861-2.4667Z" fill="#010101"/><path d="M114.2568,74.3183a2.4485,2.4485,0,0,1,3.521.32l1.979,2.5326c.5913,3.8542,1.7222,10.7436-.0658,14.3386-1.1215,2.2549-6.0907,5.4216-8.099,6.9556-2.09,1.5959-3.8219,1.838-3.5152,4.4384a2.5,2.5,0,0,1-5,0c.0635-1.1756-.2809-2.4479.19-3.5268.6826-1.5629,2.3266-2.9657,4.0621-4.2213.0411,2.4615.1021,4.93.105,7.4269a2.5,2.5,0,0,1-5,0c.0091-7.12-.4552-14.0318.3366-21.1581l1.2124-2.77a2.5,2.5,0,1,1,4.4721,2.2361l-.7151,1.0856a102.7611,102.7611,0,0,0-.411,13.1791c1.4654-1.06,2.996-2.0153,4.0687-2.8732,1.275-1.02,3.1021-1.5856,3.8381-3.043.3775-.7476.0444-1.6746.0513-2.5121.0207-2.5235.0566-5.0477-.1171-7.5653l-1.2337-1.3226a2.4485,2.4485,0,0,1,.32-3.521Z" fill="#242424"/><path d="M100.1154,84.7523l2.5-.1606a97.98,97.98,0,0,0,.6272,10.9681,2.5891,2.5891,0,0,1-1.1952,2.4673c.48.5251.9648,1.0276,1.4421,1.5025a2.5,2.5,0,0,1-3.5356,3.5355C97.24,100.3394,93.91,96.5416,92.62,92.8179c-1.1491-3.3172.27-5.8419.862-9.0065.68-3.6348,1.7008-7.1432,2.6022-10.749l3.9982,1.2746.8525-.0619q-.0386.1547-.0776.309l.1523.0485a2.97,2.97,0,0,1-.6012,1.6979c-.7214,2.7686-1.4626,5.5051-1.9951,8.3124Zm-2.7846,6.3912c.1757.4127.373.8237.5887,1.2318-.1332-1.7191-.2238-3.4307-.2695-5.1593C97.215,88.5792,96.856,90.0282,97.3308,91.1435Z" fill="#242424"/><path d="M109.432,69.2412a2.4485,2.4485,0,0,1,2.5,2.5l-.0747,2.5339c-.689,2.6654-.3926,4.2393-.2514,6.9486.1789,3.4343.1218,6.9076.0636,10.3708,1.4486-.7205,3.0931-1.3827,4.0129-1.8394,2.6949-1.3381,4.9952-3.3065,7.6348-4.7787l.41-.5462a2.5,2.5,0,0,1,3.5355,3.5356l-1.5174,1.3814c-2.7045,1.4959-5.0283,3.4716-7.7858,4.8592-5.0039,2.5179-7.0665,3.5323-8.7032,9.0943a2.5,2.5,0,0,1-4.7891-1.4367,26.9873,26.9873,0,0,1,2.1439-5.4587c.0133-4.9367.2662-9.9484.0043-14.8709-.1666-3.1327-.3653-5.3626.3911-8.472l-.0747-1.3212a2.4485,2.4485,0,0,1,2.5-2.5Z" fill="#242424"/><path d="M170.9629,93.4943c.5534-1.6289.9934-3.3227.6921-4.1964-.5037-1.46-2.4509-1.92-3.4316-3.1136a11.9089,11.9089,0,0,1-2.8081-6.4532c-.4173.4318-.8609.8393-1.31,1.2379-.2328.2068-.8646.212-.7814.5121.1119.404.81.3117,1.0947.619a16.7432,16.7432,0,0,1,1.7327,2.4282c1.4922,2.3321,1.9852,5.0841,3.5114,7.3546a13.72,13.72,0,0,0,1.3,1.6114Zm-5.4652,1.1543c-1.5515-2.342-2.0359-5.0718-3.5563-7.4234-.546-.8443-3.5756-4.8163-3.5979-5.3056-.1208-2.6511,4.0751-6.7718,5.742-8.6038.8338-.9163,1.5056-2.28,2.7178-2.5353a4.9175,4.9175,0,0,1,.8052-.1l-.0169-.1354,2.5309-.3164a2.5021,2.5021,0,0,1,2.8493,2.4758,2.49,2.49,0,0,1-.59,1.6131l-1.5127,1.8152c-3.2011,4.879,4.2427,7.6786,5.4872,11.4625.9841,2.9921-.2121,6.32-1.8134,8.7859a30.37,30.37,0,0,1,3.0708,2.2254,27.3984,27.3984,0,0,1,4.262-4.86c.7648-.7308,2.478-1.5029,2.0131-2.453-.1963-.4013-.8711-.2245-1.2725-.4205a17.3513,17.3513,0,0,1-2.3263-1.3368,31.1777,31.1777,0,0,1-4.8113-4.4933,12.4282,12.4282,0,0,1-1.6328-3.6367c-2.0182-7.33,5.0551-10.4859,10.4472-12.9388l2.649-.9949a2.4484,2.4484,0,0,1,3.2186,1.463,2.3727,2.3727,0,0,1,.0119,1.8727,2.6783,2.6783,0,0,1,.7413,2.3868c-.9148,4.3212.1479,8.9332,1.7959,13.0344.8964,2.2309,2.49,2.8914,2.429,5.751a8.4192,8.4192,0,0,1-1.3618,3.9236c-1.6018,2.7421-5.754,5.63-8.2118,7.6348a10.4323,10.4323,0,0,1-2.3961,1.9149,10.9793,10.9793,0,0,1-3.1146.9012,2.26,2.26,0,0,1-2.5038,1.2779,2.4485,2.4485,0,0,1-2.1706-2.7907q.0486-.3543.1079-.6937c-4.373-1.5752-7.3347-5.4912-9.99-9.5Zm22.5639-.0163c.4139-.366,2.134-1.6914,2.0772-2.6516-.0866-1.4651-1.5253-2.5234-2.0685-3.8868a29.207,29.207,0,0,1-2.2316-14.8412c-.9978.4458-2.005.8716-2.9841,1.3567a15.6455,15.6455,0,0,0-1.9474,1.1029c-5.9894,4.1264.8881,8.3266,4.406,10.9506,1.14.85,2.8118,1.4316,3.2252,2.7922a5.8092,5.8092,0,0,1-.9475,5.595q.2349-.2091.4707-.4178Z" fill="#242424"/></svg>