<svg id="32202f55-fee9-4eef-93f7-b5f4ece97723" data-name="Layer 1" xmlns="http://www.w3.org/2000/svg" viewBox="0 0 290 357.9"><title>baby</title><path d="M187.2982,111.061a2.2488,2.2488,0,0,1-2.2434,1.3692,2.4485,2.4485,0,0,1-2.5-2.5,36.8788,36.8788,0,0,0-.9-9.301c-.1483-.6383.1237-1.4975-.3675-1.9312-.6563-.5793-1.796-.1908-2.5466-.6411-2.353-1.4119-3.67-4.6467-6-6-.9114-.5295-2.1186-.4219-3-1-3.282-2.1527-5.4524-7.2151-3.9953-11.0834.4452-1.1822,1.6641-1.9025,2.5419-2.811a13.24,13.24,0,0,1,2.4534-2.3589c3.8931-2.3473,8.4485-1.8335,12.5238-3.2451,2.5561-.8264,4.6836-1.92,7.515-1.021,3.6366,1.1542,3.4113,2.5,5.8605,4.4594,3.4337,2.7469,5.9833,3.7426,6.8828,8.5329.8048,4.2863-.2933,8.7113-1,12.8009-.3673,2.125.9421,5.6066-.7,7.3673-1.0056,1.0782-2.93.37-4.3673.7-.8973.2063-1.7234.6553-2.61.904-.6615.1857-1.5617-.1133-2.0228.3961-.5874.6489-.0406,1.91-.6411,2.5466-1.29,1.3681-3.134,2.0791-4.701,3.1187l-.1822-.3023Z" fill="#845d27"/><path d="M202.0891,87.5882a42.1291,42.1291,0,0,1-1.4051,5.8811,46.0971,46.0971,0,0,1-.3586,7.1717c-.2035,1.3566.3044,2.5971-.4649,3.8885-.735,1.2339-2.3242,1.7467-3.4889,2.4059-3.1953,1.8088-4.8647,1.8936-8.5793,1.8943q-.011.5259-.0118,1.0429a.75.75,0,0,1-1.5,0q0-.191.0019-.3831a.7106.7106,0,0,1-.5648.0189.7345.7345,0,0,1-.4743-.9487c.2484-.7441.5038-1.4972.7587-2.2579a.82.82,0,0,1-.0009-.709q.196-.3918.4063-.7886a15.9188,15.9188,0,0,0-1.4755-7.8512c-1.3092-2.4261-4.281-4.8656-6.0634-7.1156-1.6956-3.3725-4.2682-7.0011-5.44-10.5162l-.3365-.6688a.75.75,0,1,1,1.3417-.6708l.3807.7655c1.1461,3.4386,3.6717,6.9687,5.3176,10.2818,1.8564,2.293,4.7231,4.7353,6.1286,7.2279a12.5851,12.5851,0,0,1,1.44,4.5445,28.4291,28.4291,0,0,0,1.0954-10.56c-.1629-1.4129-1.2724-2.6879-1.7414-4.1074-1.8513-3.6906-6.318-8.6237-5.4159-13.01.27-1.3125,1.4309-1.6647,1.8521-2.6732l1.56.1637a.7345.7345,0,0,1,0,1.0607.6756.6756,0,0,1-.7938.1742,3.1721,3.1721,0,0,0-1.1581,1.6193c-.7441,3.8816,3.6985,8.7946,5.3418,12.0912.4014,1.1949,1.0831,2.1749,1.5115,3.2818-.0446-1.1348-.0857-2.2589-.0857-3.3534,0-2.38.4873-5.3825.02-7.7166-.5377-2.6856-1.2519-5.1327-.34-7.94l-.0385-.1214a.75.75,0,1,1,1.5,0l-.0385.5957c-.86,2.5-.0985,4.7414.377,7.1209.4929,2.4663.02,5.552.02,8.0612,0,3.6409.4362,7.5934-.0057,11.2078-.3523,2.8824-1.9172,5.5964-3.3019,8.19q-.0831.2538-.167.5062-.0045.2226-.01.4448c1.6711-1.174,4.36-1.93,5.7578-3.2735.7861-.7551.6781-2.6987.9112-3.6309.7634-3.0537.3122-6.32-.299-9.3751-.9553-4.0128-1.1395-9.6616.7143-13.3694l1.0294-.4146a.7345.7345,0,0,1,.75.75.7.7,0,0,1-.626.7371c-1.4935,3.4037-1.2639,8.4435-.4029,11.9742a31.5024,31.5024,0,0,1-.0524,11.4057c-.1451,1.0184-.0887,2.08-.8985,2.9139a14.757,14.757,0,0,1-4.5791,3.0662c-.6868.3023-1.4755.2039-1.9141.7084,3.172-.0033,4.5056-.0776,7.3466-1.6914.8877-.5043,2.3872-.9445,2.9657-1.8972.5981-.9848.0994-2.2191.2522-3.2832a50.9379,50.9379,0,0,0,.3586-7.1717c.47-1.88,1.4483-4.4313,1.4288-6.3629l1.1085-.75a.7345.7345,0,0,1,.75.75.6743.6743,0,0,1-.3934.6651Z" fill="#62441c"/><path d="M99.6054,134.6423a2.374,2.374,0,0,1,1.6386-2.9375,2.4485,2.4485,0,0,1,3.1623,1.5811c.5109,1.6759,1.8674,2.9656,2.7549,4.4762,1.0679,1.8177.9329,4.1818,2,6,1.8605,3.17,5.5566,3.4122.3351,8.3425-1.12,1.0572-5.4022.2041-7.0613.44-1.35.1916-2.6639,1.34-3.9748.9654-3.6-1.03-4.0648-5.3225-6.1934-7.6654-.9324-1.0262-2.504-1.8163-2.6654-3.1934a7.4677,7.4677,0,0,1,1.6654-5.3421c.9013-1.1095,2.6155-1.1689,3.9772-1.604,1.4252-.4553,2.9275-1.4875,4.3614-1.0624Z" fill="#ceebed"/><path d="M87.0252,140.5765a3.4117,3.4117,0,0,1,.2416-.2678,2.4484,2.4484,0,0,1,3.5355,0c2.2943,2.2943,5.6051,4.83,6.625,8.0433.7973,2.5123-.1335,5.4092-1.083,7.6812-.9989,2.39-1.9076,4.8237-3.0639,7.1416-1.3959,2.798-3.2382,5.0757-3.7781,8.3021-.4874,2.9129.0323,6.6752.0323,9.6v16a37.3364,37.3364,0,0,0,1.9677,11.5995l-.106.4005h.1383v3a2.5,2.5,0,0,1-4.2678,1.7677L85.41,211.9875a15.7,15.7,0,0,1-3.1433-2.1433,12.9392,12.9392,0,0,1-2.848-4.89c-.4487,2.209-1.796,5.1391-.9915,7.3979.3595,1.0092,1.3724,1.6686,1.8531,2.6261.09.18,2.0022,5.9367,2.1259,6.3078l.9815,2.9446a2.5006,2.5006,0,0,1-3.7684,2.9071l-2.9716-1.981.08-.1194a6.8933,6.8933,0,0,1-.68-.4432c-.91-.6754-.5585-2.23-1.14-3.2032-.5494-.9194-1.7888-1.3618-2.183-2.3576-.4368-1.1033.0433-2.3869-.1581-3.5562-.3578-2.0777-1.6544-3.92-2-6-.5411-3.2568.477-6.7471,0-10-.1529-1.043-.8321-1.9594-1-3-.4714-2.9232.5015-6.0984,0-9-.18-1.0387-.8321-1.9594-1-3-1.0387-6.4409-.0322-13.8888-.0322-20.4.0329-3.4667.72-8.11,2.3244-11.2318,1.2612-2.4542,4.5247-4.1955,6.2422-6.3532,1.503-1.8882,2.5048-4.6855,4.9766-5.7247,1.2173-.5118,2.6379-.1269,3.9568-.19Z" fill="#845d27"/><path d="M89.3076,194.4185a2.4277,2.4277,0,0,1-1.7287-.1276c-.0256,1.0207-.0443,2.0341-.0443,3.0356a3.1148,3.1148,0,0,1-.2.9911c1.6915,4.6014,3.6185,9.1641,4.1842,14.0661a2.5,2.5,0,0,1-4.9694.5522c-.52-4.9078-2.4759-9.4769-4.1893-14.0936.0963,1.9028.1728,3.8343.174,5.8175a2.571,2.571,0,0,1-4.0886,2.0046c2.3385,6.257,5.0712,12.4539,5.0886,18.9954a2.5,2.5,0,0,1-5,0c.0207-6.7944-3.1264-11.6581-5.1939-17.8434a56.6046,56.6046,0,0,1-2.8013-14.0012,24.36,24.36,0,0,1,.0573-3.6489,2.8987,2.8987,0,0,1-.7288-1.84c0-8.4094-2.6281-16.21-2.9969-24.5422-.1609-3.6352-1.3768-6.97.2272-10.5059,2.0392-4.4947,6.9844-6.5089,9.483-10.61l.2173-.46a2.5,2.5,0,1,1,4.4721,2.2361l-.4494.8736c-2.4358,3.8214-7.211,6.0316-9.1837,10.0565-1.1562,2.3592.1232,5.7215.2272,8.1607.0407.9526.1107,1.8984.203,2.8393a78.3512,78.3512,0,0,1,.4861-9.6915l2.814-2.19a2.5709,2.5709,0,0,1,2.0019,4.0921,104.3128,104.3128,0,0,0-.2544,12.5613,108.5715,108.5715,0,0,0,3.7713-17.1255c.577-4.6071.3229-7.7815,3.1136-11.8143l1.8676-1.5469a2.4485,2.4485,0,0,1,3.5.5,2.363,2.363,0,0,1,.5332,1.8222,2.2653,2.2653,0,0,1,1.6335,2.3445,3.34,3.34,0,0,1-.0244.4113,2.3355,2.3355,0,0,1,1.9816-.1164,2.4486,2.4486,0,0,1,1.5812,3.1623l-.3333,1a22.1987,22.1987,0,0,0-1.2051,7.8761,2.4485,2.4485,0,0,1-2.5,2.5,2.9089,2.9089,0,0,1-.93-.14c-.9291,3.5039-3.9082,6.1419-4.61,9.7528q-.0366.1884-.0629.3784a2.5763,2.5763,0,0,1,2.0284,1.9026c.624,2.53,2.188,4.9366,2.69,7.437.678,3.3753.2629,7.3745.6984,10.8592l.278,1.0371a2.4484,2.4484,0,0,1-1.819,3.0317Zm-3.3125-41.3264q.0315.0284.0632.0581c.0644-.9616.102-1.9242.1223-2.8671-.0861.8928-.1159,1.8171-.1855,2.809Zm-9.4574,38.0256a37.4766,37.4766,0,0,1,.5871-8.04,26.5486,26.5486,0,0,0-1.6225,5.3159c-.9693,5.4674.2622,10.6428,2.0293,15.7427C77.48,199.7542,76.7706,195.4852,76.5377,191.1177Z" fill="#62441c"/><path d="M184.4045,138.8679a22.918,22.918,0,0,1-.904,2.61c-.1531.3285-.9562.5756-.7.8318s.5545-.4666.8318-.7c.4575.002,1.1735.4179,1.3723.0059.288-.5968-.293-1.2924-.44-1.9387l.2569-.3365-.1609-.0536.8718-2.6151v-.4969a16.0432,16.0432,0,0,0-1.1283,2.6932Zm3.8058-5.2843a2.487,2.487,0,0,1,.6476.1332l.2416-.2417A2.7367,2.7367,0,0,0,188.21,133.5836Zm-1.57,12.2755c.3651.2865.729.5753,1.1172.8256.25.161.6524.6142.8138.3646.28-.4328.0377-1.02.0617-1.5444a2.5221,2.5221,0,0,1-1.0388.0341,9.6743,9.6743,0,0,1-.9539.32Zm-8.2682-4.2692a28.312,28.312,0,0,1,1.2892-4.3031c.9892-2.9213,3.1658-7.2953,6.415-8.5191,3.5385-1.3328,9.7935.5965,11.2664,4.353a7.807,7.807,0,0,1,.0831,4.6811c-.3309,1.2913-1.5527,2.1807-2.147,3.3739-1.16,2.33-1.5733,8.4961-3.784,9.93-4.0024,2.5957-5.6575-.3493-8.56-1.7823a57.0579,57.0579,0,0,1-6.2884-3.1657,2.4486,2.4486,0,0,1-.6934-3.4669,2.25,2.25,0,0,1,2.4192-1.1007Z" fill="#ceebed"/><path d="M188.5066,151.4635a2.8877,2.8877,0,0,1-2.502-.9244c-1.0069-1.4488.3092-3.5224.6564-5.2523.0871-.4338,2.1934-6.4357,2.2451-6.5238.4776-.8129,1.515-1.1915,2-2,.5424-.9038.438-2.1082,1-3,1.065-1.69,5.0655-4.8665,6.7948-5.1635a43.9723,43.9723,0,0,1,7.8494,2.4911c1.097.8549,1.5388,2.3224,2.4158,3.4018.6636.8167,1.648,1.3706,2.1933,2.2706.5462.9016.462,2.0935,1,3,1.4727,2.4815,4.4942,4.5146,6,7,.5462.9016.47,2.0886,1,3,1.3511,2.3259,4.568,3.6658,6,6a15.9833,15.9833,0,0,1,1.1192,3.216,44.1294,44.1294,0,0,1,6.2219,15.6979c1.01,6.0805.0323,13.2339.0323,19.4005,0,3.007,1.3349,11.4061-5.0744,10.4331-1.7632-.2677-1.9878-2.954-2.7665-4.5795-.0473.5257-.11,1.0422-.1914,1.5468-.1678,1.0407-.8267,1.96-1,3-.35,2.0979-.0773,4.408-1.0638,6.2916l-.9658,3.8636a2.5,2.5,0,0,1-4.9381-.5556v-9c0-1.8087.5857-3.693.0669-5.4256-1.0471-3.4968-3.4382-7.2522-4.8766-10.6177-1.443-3.3765-1.9053-7.3931-3.7774-10.58-.49-.8336-1.543-1.2324-2.0395-2.0619-.5829-.9739-.62-2.1967-1.1192-3.2159-.9033-1.8441-2.8245-3.0232-3.8808-4.7841-1.3177-2.1966-1.7694-4.8329-3.0356-7.0595a24.5371,24.5371,0,0,0-8.2245-8.1747,2.8716,2.8716,0,0,1-1.1394-1.694Z" fill="#845d27"/><path d="M198.646,128.9139a2.4486,2.4486,0,0,1,3.4669.6934l.8537,1.4662c4.482,3.7422,8.7034,8.0285,12.8339,12.1528a2.4484,2.4484,0,0,1,0,3.5355,2.417,2.417,0,0,1-3.4864.0458c.2264.3382.463.6767.7146,1.0143a31.6526,31.6526,0,0,0,7.6438,7.0406c2.47,1.5026,5.476,2.5221,7.515,4.7525,2.5,2.7349,3.2453,5.9292,3.6633,9.4363l.0153.9428a2.5,2.5,0,0,1-5,0l.0153-.3906c-.4613-4.5764-2.4241-6.4758-5.3546-8.3581,4.322,6.7818,7.1125,14.8684,8.9313,22.1423l-.3333,2.546a2.5,2.5,0,1,1-4.8507-1.2126l.3333-.1207a72.714,72.714,0,0,0-5.8107-15.155c-4.1024-8.2062-7.9984-15.1653-17.57-17.6631-4.3108-1.125-10.358.0451-14.8606.0451a2.5,2.5,0,1,1,0-5c4.8706,0,11.0919-1.128,15.8061.0451a25.9861,25.9861,0,0,1,4.2637,1.4622,12.8512,12.8512,0,0,0-4.0192-4.8615c-1.9533-1.2737-5.26-.6458-7.3839-.6458a2.5,2.5,0,0,1,0-5c2.5088,0,5.0167-.2872,7.3982.302-1.2035-1.1053-2.424-2.1825-3.6654-3.2148l-1.813-2.5338a2.4485,2.4485,0,0,1,.6934-3.4669Z" fill="#62441c"/><path d="M216.1786,172.2657a2.4485,2.4485,0,0,1-3.1623-1.5811l.2627-.0465c-1.9157-1.9278-4.145-3.3354-6.1342-5.145,1.49,2.5813,3.1137,5.0888,4.47,7.7425,1.8352,3.5919,2.79,7.7282,4.3829,11.44l.4071,1.1942a2.5,2.5,0,0,1-4.7434,1.5812l-.26-.8058c-1.5582-3.6395-2.4812-7.7263-4.2909-11.2381-1.5046-2.92-3.3346-5.6613-4.93-8.5326a2.4485,2.4485,0,0,1,.9713-3.3995,2.4241,2.4241,0,0,1,1.711-.3229c-1.8168-2.0024-2.4691-2.745-6.5364-2.7014a2.5,2.5,0,0,1,0-5c3.1716.0269,4.9729-.3672,7.8927,1.4588.7443.4655,2.9824,3.6013,3.7829,4.4042,2.125,2.1314,4.6659,3.6539,6.8123,5.7886l.9452,2.0008a2.4485,2.4485,0,0,1-1.5812,3.1623Z" fill="#62441c"/><path d="M219.9316,218.0951a2.3941,2.3941,0,0,1-.1-3.4238c2.9979-9.7578-1.1986-19.224-2.2867-29.0976a63.1549,63.1549,0,0,1-.0122-6.913,2.5,2.5,0,0,1,5,0c0,12.8217,6.0457,25.5783,1.8717,38.1239l-.9372,1.31A2.4485,2.4485,0,0,1,219.9316,218.0951Z" fill="#62441c"/><path d="M229.0328,195.494a2.4485,2.4485,0,0,1,2.5,2.5v3.3334a2.5,2.5,0,0,1-5,0V197.994A2.4485,2.4485,0,0,1,229.0328,195.494Z" fill="#62441c"/></svg>