<svg id="c069721b-4deb-4222-b364-6517b8cca431" data-name="Layer 1" xmlns="http://www.w3.org/2000/svg" viewBox="0 0 290 357.9"><title>baby</title><path d="M103.3271,137.8032a2.3741,2.3741,0,0,1,1.6386-2.9376,2.4484,2.4484,0,0,1,3.1622,1.5812c.511,1.6759,1.8675,2.9656,2.7549,4.4762,1.0679,1.8177.933,4.1818,2,6,1.8606,3.17,5.5566,3.4122.3352,8.3425-1.12,1.0571-5.4023.2041-7.0613.44-1.35.1916-2.664,1.34-3.9749.9654-3.6-1.03-4.0647-5.3225-6.1933-7.6654-.9324-1.0262-2.5041-1.8163-2.6654-3.1934a7.4677,7.4677,0,0,1,1.6654-5.3421c.9013-1.11,2.6155-1.1689,3.9772-1.604,1.4251-.4553,2.9275-1.4875,4.3614-1.0624Z" fill="#ceebed"/><path d="M90.7469,143.7374a3.3723,3.3723,0,0,1,.2416-.2678,2.4484,2.4484,0,0,1,3.5355,0c2.2943,2.2943,5.605,4.83,6.6249,8.0433.7974,2.5123-.1335,5.4092-1.083,7.6812-.9989,2.39-1.9075,4.8237-3.0639,7.1416-1.3958,2.798-3.2382,5.0757-3.7781,8.3021-.4874,2.9128.0323,6.6752.0323,9.6v16a37.3393,37.3393,0,0,0,1.9677,11.6l-.1059.4h.1382v3a2.5,2.5,0,0,1-4.2678,1.7677l-1.8567-1.8567a15.703,15.703,0,0,1-3.1433-2.1433,12.9405,12.9405,0,0,1-2.848-4.89c-.4487,2.209-1.796,5.1391-.9915,7.3979.3595,1.0092,1.3724,1.6686,1.8531,2.6261.09.18,2.0022,5.9367,2.1259,6.3078l.9816,2.9446a2.5006,2.5006,0,0,1-3.7685,2.9071l-2.9715-1.981.08-.1194a6.9052,6.9052,0,0,1-.68-.4432c-.91-.6754-.5585-2.23-1.14-3.2032-.5494-.9194-1.7889-1.3618-2.1831-2.3576-.4367-1.1033.0434-2.3869-.158-3.5563-.3578-2.0776-1.6545-3.92-2-6-.5411-3.2567.477-6.747,0-10-.1529-1.0429-.8322-1.9593-1-3-.4715-2.9231.5015-6.0983,0-9-.18-1.0386-.8322-1.9593-1-3-1.0388-6.4408-.0323-13.8887-.0323-20.4.0329-3.4667.72-8.11,2.3245-11.2318,1.2612-2.4542,4.5246-4.1955,6.2421-6.3532,1.503-1.8882,2.5049-4.6855,4.9767-5.7247,1.2172-.5118,2.6378-.1269,3.9567-.19Z" fill="#d14f3d"/><path d="M93.0292,197.5794a2.4275,2.4275,0,0,1-1.7286-.1276c-.0256,1.0207-.0444,2.0341-.0444,3.0356a3.1148,3.1148,0,0,1-.2.9911c1.6916,4.6014,3.6185,9.1641,4.1842,14.0661a2.5,2.5,0,0,1-4.9694.5522c-.52-4.9078-2.4759-9.4769-4.1892-14.0936.0962,1.9028.1728,3.8343.1739,5.8175a2.571,2.571,0,0,1-4.0886,2.0046c2.3385,6.257,5.0712,12.4539,5.0886,18.9954a2.5,2.5,0,0,1-5,0c.0208-6.7944-3.1264-11.6581-5.1939-17.8434a56.6043,56.6043,0,0,1-2.8012-14.0013,24.3323,24.3323,0,0,1,.0573-3.6488,2.8987,2.8987,0,0,1-.7288-1.84c0-8.4094-2.6281-16.21-2.9969-24.5422-.161-3.6352-1.3769-6.97.2272-10.5059,2.0391-4.4948,6.9844-6.5089,9.483-10.61l.2172-.46a2.5,2.5,0,0,1,4.4722,2.2361l-.45.8736c-2.4358,3.8214-7.211,6.0316-9.1836,10.0565-1.1563,2.3592.1231,5.7215.2272,8.1607.0406.9526.1107,1.8984.2029,2.8393a78.3343,78.3343,0,0,1,.4862-9.6916l2.814-2.19a2.5709,2.5709,0,0,1,2.0019,4.0921,104.3334,104.3334,0,0,0-.2545,12.5613,108.56,108.56,0,0,0,3.7713-17.1255c.5771-4.6071.3229-7.7815,3.1136-11.8143l1.8677-1.5469a2.4485,2.4485,0,0,1,3.5.5,2.3638,2.3638,0,0,1,.5332,1.8222,2.2653,2.2653,0,0,1,1.6335,2.3445,3.36,3.36,0,0,1-.0244.4113,2.3355,2.3355,0,0,1,1.9816-.1164,2.4485,2.4485,0,0,1,1.5811,3.1623l-.3333,1a22.1964,22.1964,0,0,0-1.205,7.8761,2.4485,2.4485,0,0,1-2.5,2.5,2.91,2.91,0,0,1-.9306-.14c-.9291,3.5039-3.9082,6.1419-4.6095,9.7528q-.0366.1884-.063.3784a2.576,2.576,0,0,1,2.0284,1.9026c.624,2.53,2.188,4.9366,2.69,7.437.678,3.3753.2628,7.3745.6984,10.8592l.278,1.0371a2.4485,2.4485,0,0,1-1.819,3.0317ZM89.7167,156.253q.0316.0283.0632.0581c.0644-.9616.102-1.9242.1224-2.8671-.0862.8928-.116,1.8171-.1856,2.809Zm-9.4574,38.0256a37.4767,37.4767,0,0,1,.5872-8.04,26.5555,26.5555,0,0,0-1.6226,5.3159c-.9692,5.4674.2622,10.6428,2.0294,15.7427C81.2019,202.9151,80.4923,198.6461,80.2593,194.2786Z" fill="#a13f2e"/></svg>