<svg id="e8bb797c-d410-4216-8ba8-2722a0661f17" data-name="Layer 1" xmlns="http://www.w3.org/2000/svg" viewBox="0 0 290 357.9"><title>baby</title><path d="M108.6751,99.1324a1.49,1.49,0,0,1-.8387.2923l-1.4528-.132A25.4014,25.4014,0,0,1,94.1065,87.14c-.088-6.115,4.4259-15.06,11.0592-16.4006,5.2436-1.06,11.8644.5274,16.3192,3.2677,1.1265,1.4607,2.4781,2.92,3.0373,4.7267a14.7169,14.7169,0,0,1,.3427,4.4192,11.0883,11.0883,0,0,1-3.1,6.4317c-3.7331,3.24-9.8915,3.8692-12.2143,8.8508a1.3938,1.3938,0,0,1-.8752.6966Z" fill="#010101"/><path d="M159.1691,88.9239c-1.5481-.7144-3.92-1.8224-4.19-2.4154-.5473-1.2035.3867-2.77.8987-3.79,1.9747-3.933,6.3624-5.4519,9.6969-7.9527,5.352-2.6511,14.6683-.4832,17.2855,5.3079,2.3777,5.2612.5825,13.9462-1.9092,18.8315-1.0476,1.0476-2.7786,2.7507-4.4234,2.8915-2.9456.2522-4.8272-2.6654-6.4731-4.591-2.9269-3.4243-7.4583-4.7725-10.6653-7.9794a1.511,1.511,0,0,1-.22-.3028Z" fill="#010101"/><path d="M174.2307,153.5027a1.3348,1.3348,0,0,1-.6086-1.1036v-.8938c.0147-5.5193,3.0877-7.7509,5.1531-12.3788.68-1.5246-.2678-2.3361,1.9913-3.1185,2.4946-.8641,6.6028.9721,8.8122,2.0995,1.0525.2062,2.96.4451,3.6088,1.3754.6546.9381.0805,2.89-.1035,3.9055-.4365,2.4069-1.1253,4.6687-1.4818,7.1019-.202,1.3787-.1734,2.7824-1.1715,3.9015-1.69,1.8947-3.4332,1.3651-5.62,1.03a60.5675,60.5675,0,0,0-9.3428-.8791,1.2353,1.2353,0,0,1-1.2373-1.04Z" fill="#5d5d5d"/><path d="M188.2977,152.662a39.0307,39.0307,0,0,0,2.3586-5.3861c.37-1.8856.1637-3.9084.55-5.7257.1769-.832.1369-1.9406.8485-2.4065,1.4594-.9558,3.8176.8239,5.0786,1.3894,1.9124.8577,4.1321.9292,5.88,2.2118,1.2946.95,1.59,2.3087,2.5969,3.4723,1.82,2.1043,3.9935,3.9866,5.9588,5.9588,1.8868,2.5158,4.3849,4.1962,5.8362,7.116,2.6953,5.4224,2.7572,12.0043,5.0738,17.5965,1.0121,2.4431,2.9707,4.4545,3.8159,7.0085.6353,2.1212,2.1673,4.5434,2.54,6.7a38.1681,38.1681,0,0,1,.0226,6.1951c0,8.3994-1.0922,15.5082-5.1654,22.5751l.0762.0153-.2934,1.4669a1.25,1.25,0,0,1-2.48-.2224v-1.7876h.0305l-.0281-.0777c.0364-.2933.0594-.62.078-.9691-.6846,1.0013-1.4526,1.9993-2.2465,3.21l-.008.0124a22.708,22.708,0,0,1-1.4166,3.7461l-.5837,1.1676a1.25,1.25,0,0,1-2.3508-.8053l.2928-1.4644.027.0054q.0058-.0829.0164-.1659a6.9063,6.9063,0,0,1,1.7194-3.4959,35.8492,35.8492,0,0,0,1.1984-9.0328c2.6572-13.286-3.0315-26.2753-8.79-37.7092-4.6443-7.7485-10.843-16.3338-20.6536-16.3338a1.2242,1.2242,0,0,1-1.25-1.25,1.2039,1.2039,0,0,1,1.2-1.2479l-.9024-.54a1.2437,1.2437,0,0,1,.9706-1.2268Zm35.6854,60.1717q.1341-.2184.2639-.4364l-.3169.0529Q223.961,212.6436,223.9831,212.8337Z" fill="#010101"/><path d="M219.0653,186.5622a1.1353,1.1353,0,0,1-1.13-.1525q.358,1.7219.7031,3.4347l.0243.5593a1.25,1.25,0,0,1-2.5,0l.0242-.069c-1.9591-9.9428-4.0222-20.4489-10.4441-28.6994a1.2242,1.2242,0,0,1,.2192-1.7541,1.3006,1.3006,0,0,1,.6352-.284c-2.6993-2.6824-6.3829-5.4727-9.4458-5.65-1.4173-.0822-2.8276.314-4.2472.3158a1.25,1.25,0,0,1,0-2.5c1.4983.002,2.9913-.4267,4.4847-.3045a12.19,12.19,0,0,1,4.6974,1.5515c-1.1382-1.809-2.5816-3.16-5.0974-3.146a1.25,1.25,0,0,1,0-2.5c4.6432.02,6.7626,3.1821,8.6591,6.9752l.6285,1.2568a1.551,1.551,0,0,1,.1269.4417,31.9349,31.9349,0,0,1,4.9316,5.2814l.398,2.1716a1.2324,1.2324,0,0,1-.8523,1.4,60.1942,60.1942,0,0,1,5.5813,14.9723c-.2581-3.6639.0149-7.4681.0149-11.1395a1.25,1.25,0,0,1,2.5,0c0,5.2631.6056,10.5262.6284,15.7106l.25.5474a1.2242,1.2242,0,0,1-.7906,1.5811Z" fill="#242424"/><path d="M194.4757,143.8936a1.2242,1.2242,0,0,1-1.25-1.25,1.1349,1.1349,0,0,1,.5043-1.0249,1.46,1.46,0,0,1,.8148-.515c2.4508-.3866,3.214.4449,5.4226,1.3219l.7338.591a1.5072,1.5072,0,0,1,.2164.2962c.4053.257.8106.5388,1.2208.8445l.4374.1962a1.38,1.38,0,0,1,.7032.9123c4.29,1.3495,7.2141,4.5212,9.3,9.11,1.4065,3.0944,2.6153,4.77,2.628,8.3639v.9564a1.25,1.25,0,1,1-2.5,0v-.9564c.0126-3.162-1.1363-4.5406-2.3993-7.3192-2.4-5.2807-5.8362-8.4164-12.0612-8.3845a1.2242,1.2242,0,0,1-1.25-1.25,1.158,1.158,0,0,1,.9949-1.2194,8.7008,8.7008,0,0,0-3.5155-.6727Z" fill="#242424"/><path d="M209.1743,178.0107a1.2243,1.2243,0,0,1-1.6771-.559l-.6827-1.3822c-1.1064-4.4254-2.7388-10.2616-5.742-13.7542-1.5607-1.815-2.7042-3.7421-5.34-3.6538a1.25,1.25,0,0,1,0-2.5c8.2456.1825,11.8049,12.5541,13.4266,19.0406l.5741,1.1315A1.2243,1.2243,0,0,1,209.1743,178.0107Z" fill="#242424"/><path d="M221.1026,205.7291a1.2242,1.2242,0,0,1-.7905-1.5811l.152-.4562c1.2608-3.6008.0506-7.2974-.2131-11.0419-.329-4.6719-.0031-9.5-.0031-14.1862a1.25,1.25,0,0,1,2.5,0c0,4.627-.3279,9.3981-.0031,14.0106.2945,4.1822,1.395,7.9345.0911,12.008l-.1521.4562A1.2243,1.2243,0,0,1,221.1026,205.7291Z" fill="#242424"/><path d="M221.8121,205.8069a1.2242,1.2242,0,0,1,1.25,1.25l-.0373.6174a61.2511,61.2511,0,0,1-3.2,9.9157c-1.3738,3.0743-3.0545,4.4565-3.047,8.0054a1.25,1.25,0,0,1-2.5,0c.0075-3.9574,1.7516-5.598,3.2373-8.9621A60.4185,60.4185,0,0,0,220.6,207.068l-.0374-.0111A1.2242,1.2242,0,0,1,221.8121,205.8069Z" fill="#242424"/><path d="M224.7378,185.8844a1.1257,1.1257,0,0,1-.7193-1.1365,1.2242,1.2242,0,0,1,1.25-1.25l1.4322.691a14.1319,14.1319,0,0,1,1.0321,2.7494c3.3936,12.1008-4.6706,22.611-4.6706,34.2581a1.25,1.25,0,0,1-2.5,0c0-11.3312,8.1578-21.9506,4.7557-33.6115A10.3105,10.3105,0,0,0,224.7378,185.8844Z" fill="#242424"/><path d="M111.2936,73.1464c-1.05,1.6629-2.3295,3.0339-3.5385,4.646-2.007,2.016-6.1637,4.3324-7.3305,6.8862-.3967.8682.1712,3.032.3789,3.9606.5441,2.4337,2.2788,5.7384,4.6858,7.2806-1.65-4.372-2.9027-10.4162-.6647-13.9787,2.4064-3.8307,8.3123-3.8719,9.5435-8.8909l-.0094-1.1042v-.6284a1.25,1.25,0,0,1,2.5,0v.6284l-.0094,1.41c-.7606,3.0094-2.4173,4.5479-4.4938,6.0945,2.1679-.8213,4.4227-1.4992,4.8684-3.7225l-.0373-.6395a1.25,1.25,0,0,1,2.5,0l-.0373,1.2458c-1.3814,4.9373-6.71,3.4775-8.9671,6.9834a4.9083,4.9083,0,0,0-.4861,2.8772,11.6334,11.6334,0,0,1,3.0723-3.6079c2.9378-2.2223,6.6453-2.07,8.0924-5.7632l.2889-.8737a1.25,1.25,0,1,1,2.3717.7906l-.0586.1748a1.1245,1.1245,0,0,1,1.3171-.1171,1.2243,1.2243,0,0,1,.559,1.6771l-.6832,1.355a12.1726,12.1726,0,0,0-2.6582,5.5183,1.1917,1.1917,0,0,1-.0351.1394l-.08.5284c-1.855,3.6792-4.9866,4.2158-7.84,6.6695-1.8452,1.5866-4.0793,2.7548-3.968,5.34a1.2242,1.2242,0,0,1-1.25,1.25,1.4266,1.4266,0,0,1-.4979-.0816,1.5454,1.5454,0,0,1-.4447.0816q-.184-.0043-.3658-.0175a1.0663,1.0663,0,0,1-.85-.11c-4.52-.8441-7.8512-5.6625-8.8014-9.96-.3218-1.4555-.85-4.0217-.2495-5.4658,1.2311-2.9605,5.5027-5.33,7.7516-7.5675,1.379-1.8386,2.8687-3.3016,3.911-5.3958l2.23,1.1182.0061,0-.0013.0026.1332.0668a1.2644,1.2644,0,0,1-.8519,1.2Zm8.7379,11.791a12.9759,12.9759,0,0,1,1.4905-4.1362c-1.88,1.5582-4.3105,1.9741-6.7151,3.7559-2.43,1.801-3.6909,4.99-4.225,8.0942,2.8915-2.6521,7.4925-3.9331,9.4368-7.5072v-.0089l-.0042.0077s0-.0388.0069-.1029c.0037-.0642.01-.1026.01-.1026ZM107.76,87.6566c0-2.0027-.2838-3.8312.7893-5.64a4.6244,4.6244,0,0,0-1.6379,1.3009c-1.6929,2.735-.53,7.93.8486,11.5951V87.6566Z" fill="#242424"/><path d="M107.7466,70.6892a1.1864,1.1864,0,0,1-1.132,1.2414c-3.2292,2.4965-5.7506,5.7522-8.242,8.9505-.8445,1.084-2.3549,2.2983-3.0016,3.5422-1.2224,2.351,2.1582,5.79,4.0487,6.4717a1.25,1.25,0,1,1-.9284,2.3212c-3.2584-1.3906-7.2612-6.0109-5.3776-9.8673.7092-1.4521,2.3-2.7329,3.2826-3.9989,2.71-3.49,5.48-6.9831,9.0361-9.6608l1.0642-.25a1.2242,1.2242,0,0,1,1.25,1.25Z" fill="#242424"/><path d="M157.3761,82.8476a9.5682,9.5682,0,0,0,.4964,3.905,4.7881,4.7881,0,0,0,2.1231,1.6387,2.6668,2.6668,0,0,1-.3451-.7152c-.5258-1.6655,1.1765-5.8837,1.9175-7.3658.4377-1.7787,1.5339-3.3919,1.4935-5.2222l.4461-1.1874a1.25,1.25,0,0,1,2.2361,1.118l-.1822.0694c-.0333,2.2047-1.1128,3.9764-1.6487,6.09-.6174,1.2347-2.0682,4.5368-1.853,5.8311.0555.3338,2.8134,1.3982,2.9826,1.5191.3618.2588.7125.5407,1.0549.84a7.35,7.35,0,0,1,.9707-4.6416c.4636-.681,1.488-.9435,1.7812-1.7134.6679-1.7534.5286-5.0013.5-7.0131a1.1271,1.1271,0,0,1-.8818-.8305,1.2242,1.2242,0,0,1,.7906-1.5811l2.5879.8716v1.2569c-.0156,2.3531.1206,6.2726-.76,8.4143-.9666,2.3494-3.19,2.2724-2.4152,5.438.4877,1.9927,2.2117,3.784,4.0878,5.4091-.6317-1.2078-1.2025-2.4474-1.7315-3.6672-.5052-1.1651-1.1476-2.3969-.6739-3.7353.7529-2.1275,3.4735-2.9806,4.4827-4.9077.7486-1.43.2735-4.8492-.1106-6.3339l.0253.5007a1.25,1.25,0,1,1,1.118-2.2361l1.2821,1.1291c.5317,2.187.9126,6.0177-.1106,8.12-.88,1.8076-3.5616,2.7658-4.3152,4.5186-.3469.807.8589,2.4708,1.189,3.13a48.6939,48.6939,0,0,0,2.7506,5.1715c.7-2.95,2.181-5.2366,3.4428-8.5025.6345-1.6422.2365-3.818.2365-5.5363l-.25-.5473a1.25,1.25,0,1,1,2.3717-.7906l.3783,1.3379c0,2.0758.3383,4.4149-.3918,6.4037-1.5392,4.193-3.6929,6.5466-3.6929,11.1922a1.2242,1.2242,0,0,1-1.25,1.25,1.1252,1.1252,0,0,1-1.0866-.6109,1.0792,1.0792,0,0,1-.4007-.0231c-5.5061-.2293-8.282-7.3195-12.44-10.2852-.0861-.0614-.1754-.1191-.267-.1739a1.1482,1.1482,0,0,1-.13,1.06,1.2243,1.2243,0,0,1-1.715.4288c-1.7793-1.0689-4.7807-2.0015-5.8006-3.9384-.9254-1.7575-.7763-4.3187-.7763-6.2456l2.4481-.57a1.2252,1.2252,0,0,1,.0361,1.7307Z" fill="#242424"/></svg>