<svg id="8ed2b068-1882-49ae-bcbf-ccfbd7065fcf" data-name="Layer 1" xmlns="http://www.w3.org/2000/svg" viewBox="0 0 290 357.9"><title>baby</title><path d="M101.8213,131.0031a2.3739,2.3739,0,0,1,1.6386-2.9375,2.4485,2.4485,0,0,1,3.1623,1.5811c.5109,1.6759,1.8674,2.9656,2.7549,4.4762,1.0678,1.8178.9329,4.1819,2,6,1.8605,3.17,5.5566,3.4122.3351,8.3425-1.12,1.0571-5.4022.2041-7.0613.44-1.35.1916-2.664,1.34-3.9748.9654-3.6-1.03-4.0648-5.3225-6.1934-7.6654-.9324-1.0262-2.504-1.8163-2.6654-3.1934a7.4677,7.4677,0,0,1,1.6654-5.3421c.9013-1.11,2.6155-1.1689,3.9772-1.604,1.4252-.4553,2.9275-1.4875,4.3614-1.0624Z" fill="#f283b4"/><path d="M89.2411,136.9373a3.4117,3.4117,0,0,1,.2416-.2678,2.4484,2.4484,0,0,1,3.5355,0c2.2943,2.2943,5.605,4.83,6.625,8.0433.7973,2.5123-.1335,5.4092-1.0831,7.6812-.9988,2.39-1.9075,4.8237-3.0639,7.1416-1.3958,2.798-3.2381,5.0757-3.778,8.3021-.4874,2.9128.0323,6.6752.0323,9.5995v16a37.3336,37.3336,0,0,0,1.9677,11.6l-.106.4H93.75v3a2.5,2.5,0,0,1-4.2677,1.7678l-1.8568-1.8567a15.6988,15.6988,0,0,1-3.1432-2.1433,12.9379,12.9379,0,0,1-2.848-4.89c-.4487,2.209-1.7961,5.1391-.9915,7.3979.3594,1.0092,1.3723,1.6686,1.853,2.6261.09.18,2.0022,5.9367,2.1259,6.3078l.9816,2.9446a2.5006,2.5006,0,0,1-3.7685,2.9071l-2.9715-1.981.08-.1194a6.892,6.892,0,0,1-.68-.4432c-.91-.6754-.5586-2.23-1.14-3.2032-.5494-.9194-1.7888-1.3618-2.1831-2.3576-.4367-1.1033.0434-2.3869-.158-3.5563-.3578-2.0776-1.6544-3.92-2-6-.5411-3.2567.477-6.747,0-10-.1529-1.0429-.8321-1.9593-1-3-.4715-2.9231.5015-6.0983,0-9-.18-1.0386-.8321-1.9593-1-3-1.0388-6.4408-.0323-13.8887-.0323-20.4.0329-3.4667.72-8.11,2.3245-11.2318,1.2612-2.4542,4.5246-4.1955,6.2422-6.3532,1.5029-1.8882,2.5048-4.6855,4.9766-5.7247,1.2172-.5118,2.6378-.1269,3.9567-.19Z" fill="#6e71b5"/><path d="M91.5235,190.7793a2.4271,2.4271,0,0,1-1.7287-.1276c-.0256,1.0207-.0443,2.0341-.0443,3.0356a3.1148,3.1148,0,0,1-.2.9911c1.6915,4.6014,3.6184,9.1641,4.1842,14.0661a2.5,2.5,0,0,1-4.97.5522c-.52-4.9077-2.4759-9.4769-4.1892-14.0936.0963,1.9028.1728,3.8343.174,5.8175a2.571,2.571,0,0,1-4.0886,2.0046c2.3384,6.257,5.0712,12.4539,5.0886,18.9954a2.5,2.5,0,0,1-5,0c.0207-6.7944-3.1264-11.6581-5.1939-17.8434a56.6044,56.6044,0,0,1-2.8013-14.0013,24.3456,24.3456,0,0,1,.0573-3.6488,2.8987,2.8987,0,0,1-.7288-1.84c0-8.4094-2.6281-16.21-2.9969-24.5422-.1609-3.6352-1.3769-6.97.2272-10.5059,2.0391-4.4948,6.9844-6.5089,9.483-10.61l.2173-.46a2.5,2.5,0,0,1,4.4721,2.2361l-.4494.8736c-2.4358,3.8214-7.2111,6.0316-9.1837,10.0565-1.1563,2.3592.1231,5.7215.2272,8.1607.0407.9526.1107,1.8984.203,2.8393a78.3149,78.3149,0,0,1,.4861-9.6916l2.814-2.19a2.5709,2.5709,0,0,1,2.0019,4.0921,104.3128,104.3128,0,0,0-.2544,12.5613,108.5712,108.5712,0,0,0,3.7712-17.1255c.5771-4.6071.323-7.7815,3.1136-11.8143l1.8677-1.5469a2.4485,2.4485,0,0,1,3.5.5,2.3634,2.3634,0,0,1,.5332,1.8222,2.2653,2.2653,0,0,1,1.6335,2.3445,3.36,3.36,0,0,1-.0244.4113,2.3355,2.3355,0,0,1,1.9816-.1164,2.4486,2.4486,0,0,1,1.5812,3.1623l-.3334,1a22.1986,22.1986,0,0,0-1.205,7.8761,2.4485,2.4485,0,0,1-2.5,2.5,2.91,2.91,0,0,1-.9306-.14c-.929,3.5039-3.9082,6.1419-4.6095,9.7528q-.0366.1884-.063.3784a2.576,2.576,0,0,1,2.0284,1.9026c.6241,2.53,2.1881,4.9366,2.69,7.437.678,3.3753.2628,7.3745.6984,10.8592l.278,1.0371a2.4485,2.4485,0,0,1-1.819,3.0317ZM88.211,149.4529q.0315.0283.0631.0581c.0645-.9616.102-1.9242.1224-2.8671-.0861.8928-.1159,1.8171-.1855,2.809Zm-9.4574,38.0256a37.47,37.47,0,0,1,.5871-8.04,26.5486,26.5486,0,0,0-1.6225,5.3159c-.9693,5.4674.2622,10.6428,2.0293,15.7427C79.6961,196.115,78.9865,191.846,78.7536,187.4785Z" fill="#5b5ca9"/><path d="M187.9581,131.73c1.4339-.425,2.9362.6072,4.3614,1.0625,1.3617.4351,3.0759.4944,3.9772,1.604a7.4676,7.4676,0,0,1,1.6654,5.3421c-.1614,1.3771-1.733,2.1672-2.6654,3.1934-2.1286,2.3429-2.5935,6.6355-6.1934,7.6653-1.3109.3751-2.6249-.7738-3.9748-.9653-1.6591-.2355-5.9417.6175-7.0613-.44-5.2215-4.93-1.5254-5.1724.3351-8.3424,1.0671-1.8182.9321-4.1823,2-6,.8875-1.5106,2.244-2.8,2.7549-4.4762a2.4486,2.4486,0,0,1,3.1623-1.5812,2.3741,2.3741,0,0,1,1.6386,2.9376Z" fill="#f283b4"/><path d="M201.529,137.6644c1.3189.0635,2.7395-.3214,3.9567.19,2.4718,1.0393,3.4736,3.8365,4.9766,5.7248,1.7175,2.1577,4.981,3.899,6.2421,6.3532,1.6043,3.1219,2.2916,7.7651,2.3245,11.2317,0,6.5118,1.0065,13.96-.0323,20.4-.1678,1.0406-.8205,1.9613-1,3-.5014,2.9017.4715,6.0768,0,9-.1678,1.0406-.847,1.9571-1,3-.477,3.253.5412,6.7432,0,10-.3455,2.08-1.6421,3.9224-2,6-.2013,1.1694.2788,2.453-.158,3.5562-.3942.9959-1.6336,1.4383-2.1831,2.3577-.5813.9728-.23,2.5278-1.14,3.2031a6.8574,6.8574,0,0,1-.68.4432l.08.1195-2.9715,1.981a2.501,2.501,0,0,1-3.7684-2.9071l.9815-2.9447c.1237-.371,2.0356-6.1278,2.1259-6.3078.4807-.9574,1.4936-1.6168,1.8531-2.626.8045-2.2589-.5429-5.189-.9915-7.398a12.9409,12.9409,0,0,1-2.848,4.89,15.7072,15.7072,0,0,1-3.1433,2.1433l-1.8567,1.8567a2.5,2.5,0,0,1-4.2678-1.7678v-3h.1382l-.1059-.4a37.3359,37.3359,0,0,0,1.9677-11.6v-16c0-2.9244.52-6.6867.0323-9.6-.54-3.2264-2.3822-5.5041-3.7781-8.3021-1.1564-2.318-2.065-4.7516-3.0639-7.1417-.95-2.2719-1.88-5.1689-1.083-7.6811,1.02-3.2137,4.3306-5.7491,6.6249-8.0434a2.4486,2.4486,0,0,1,3.5356,0,3.4078,3.4078,0,0,1,.2415.2678Z" fill="#6e71b5"/><path d="M198.256,191.5065a2.4485,2.4485,0,0,1-1.819-3.0317l.278-1.0371c.4355-3.4847.02-7.4839.6984-10.8592.5022-2.5,2.0662-4.9072,2.69-7.437a2.5762,2.5762,0,0,1,2.0284-1.9026q-.0264-.19-.0629-.3784c-.7014-3.6109-3.68-6.2489-4.61-9.7528a2.91,2.91,0,0,1-.93.14,2.4485,2.4485,0,0,1-2.5-2.5,22.1987,22.1987,0,0,0-1.2051-7.8761l-.3333-1a2.4485,2.4485,0,0,1,1.5811-3.1623,2.3355,2.3355,0,0,1,1.9816.1164,3.3608,3.3608,0,0,1-.0243-.4113,2.2652,2.2652,0,0,1,1.6335-2.3445,2.3633,2.3633,0,0,1,.5331-1.8222,2.4485,2.4485,0,0,1,3.5-.5l1.8677,1.5469c2.7907,4.0328,2.5366,7.2071,3.1136,11.8143a108.56,108.56,0,0,0,3.7713,17.1255,104.3335,104.3335,0,0,0-.2544-12.5613,2.5708,2.5708,0,0,1,2.0018-4.0921l2.8141,2.19a78.3528,78.3528,0,0,1,.4861,9.6916c.0922-.9409.1623-1.8868.203-2.8393.1041-2.4392,1.3834-5.8015.2272-8.1607-1.9727-4.025-6.7479-6.2351-9.1837-10.0565l-.4494-.8736a2.5,2.5,0,1,1,4.4721-2.2361l.2173.46c2.4986,4.1014,7.4438,6.1156,9.483,10.61,1.6041,3.5357.3881,6.8708.2272,10.506-.3688,8.3317-2.9969,16.1328-2.9969,24.5422a2.8987,2.8987,0,0,1-.7288,1.84,24.3453,24.3453,0,0,1,.0573,3.6488,56.6089,56.6089,0,0,1-2.8012,14.0013c-2.0675,6.1853-5.2146,11.049-5.1939,17.8434a2.5,2.5,0,0,1-5,0c.0174-6.5415,2.75-12.7384,5.0886-18.9954a2.571,2.571,0,0,1-4.0886-2.0046c.0012-1.9832.0777-3.9147.1739-5.8176-1.7133,4.6168-3.669,9.1859-4.1892,14.0937a2.5,2.5,0,0,1-4.9694-.5522c.5657-4.902,2.4926-9.4647,4.1842-14.0661a3.1148,3.1148,0,0,1-.2-.9911c0-1.0015-.0188-2.0149-.0444-3.0357a2.4267,2.4267,0,0,1-1.7286.1277Zm3.127-44.1354c.02.9429.0579,1.9055.1223,2.8671q.0316-.03.0632-.0581C201.4989,149.1882,201.4691,148.2639,201.383,147.3711Zm9.6429,40.8345c-.233,4.3676-.9426,8.6365-.994,13.0187,1.7672-5.1,2.9986-10.2753,2.0294-15.7427a26.5451,26.5451,0,0,0-1.6226-5.3159,37.4767,37.4767,0,0,1,.5872,8.04Z" fill="#5b5ca9"/></svg>