<svg id="f07d1e93-5af3-4226-9bdc-0c77ff7633d1" data-name="Layer 1" xmlns="http://www.w3.org/2000/svg" viewBox="0 0 290 357.9"><title>baby</title><path d="M102.5978,153.0445c-.0592-4.5086-.4674-9.2446.0163-13.6866a74.1113,74.1113,0,0,0,.7178-8.21,1.25,1.25,0,0,1,2.5,0l-.001.2084a1.2468,1.2468,0,0,1,.3336.6045l.3572,1.429q.3378,1.3509.6577,2.7061c1.4468,2.1123,3.0944,3.7591,4.0286,6.253a52.3725,52.3725,0,0,0,2.46,6.3623c.6272,1.1843,3.51,1.661,3.7562,2.84.5914,2.8283-2.3343,2.9732-4.5048,2.9788l-.036.009a6.9352,6.9352,0,0,1-1.0292.148,3.2273,3.2273,0,0,1-1.7179.3244,3.3454,3.3454,0,0,1-1.6319.6223c-.0964-.0018-.1921-.0083-.2872-.0189v.0523h-.968c-.7.9241-.1436,2.9175-2.8941,1.67a.9265.9265,0,0,1-.486-.5793h-.0149a1.25,1.25,0,0,1-1.219-.9722l-.3573-1.429.0862-.0215a1.3844,1.3844,0,0,1-.0394-.7324,1.4241,1.4241,0,0,1,.2726-.5587Z" fill="#845d27"/><path d="M184.6307,129.2083a1.2242,1.2242,0,0,1,1.5158.9095c1.5934,6.4288,2.7285,14.6961,1.0908,21.3306-.3466,1.404-.7458,2.802-1.0628,4.2126-.1707.7594.1811,1.8626-.4714,2.2868-.7649.4974-1.82-.1371-2.7293-.2057-1.342-.9547-2.3375-.48-3.9274-1.0615a45.4307,45.4307,0,0,0-4.435-1.8471l-.14-.1751-.048.072-1.0746-.7164a1.25,1.25,0,0,1,.6773-2.3008h1.4029a1.0455,1.0455,0,0,0,.12-.1973c.3907-.8335.2419-1.8488.6058-2.6943,1.416-3.29,4.6952-5.432,5.7641-8.9461.6514-2.1416-.2112-4.9236.3472-7.2126l.3573-1.429a1.2509,1.2509,0,0,1,1.0686-.9632,1.1312,1.1312,0,0,1,.938-1.0624Z" fill="#845d27"/><path d="M102.4342,179.5555a46.8961,46.8961,0,0,1,4.9657-2.8186l1.0247-1.0247a1.2505,1.2505,0,0,1,2.09,1.2143l-.3568,1.4271c-.9612,3.734.16,7.9077-.7233,11.6187-.6636,2.7881-1.22,5.7384-1.805,8.6641-1.0947,6.49.3953,12.9234.3841,19.4082-.0048,2.7813.4509,7.72,2.5426,9.66a1.2246,1.2246,0,0,1,.0169,1.7506c.1484,2.27,1.4062,3.7944,2.6843,5.7116l.4416.8615a1.25,1.25,0,0,1-2.2361,1.1181l-.2856-.5928a27.6493,27.6493,0,0,1-2.253-3.7326,23.1956,23.1956,0,0,0,.2737,5.0978q.2249.4691.456.9324l.6853,1.028a1.25,1.25,0,1,1-2.0815,1.3848l-.7164-1.0746.0168-.0112-.0578-.0548q-.0944-.1885-.19-.376c-.5028-.1928-.7216-.7764-.8613-1.6415a53.98,53.98,0,0,1-2.6641-5.4173c-.2089-.5229-.5429-1.1113-.7767-1.6945-.4079.9127-.7936,1.8375-1.1757,2.7633v1.7392a1.25,1.25,0,0,1-2.5,0v-1.4543c0-5.9731-.7272-11.8892-.7272-17.9058,0-7.61.4856-15.0151,1.0939-22.5406.2964-3.6669.49-8.54,2.1989-11.9884Z" fill="#845d27"/><path d="M185.6951,179.7911c.8716,2.67,2.4571,5.1641,3.0113,7.84,1.665,8.0387,1.1888,16.5835,2.5506,24.7546.755,4.5321,2.2754,10.8324,1.0743,15.4a69.5527,69.5527,0,0,1-2.928,7.7132l-.3417,1.367a1.25,1.25,0,0,1-2.27.3994l-.7164-1.0746.0156-.01q-.0307-.0393-.06-.08a19.6436,19.6436,0,0,1-1.6439,3.9661c-.3923.7363-.5273,2.0142-1.3568,2.1033a2.2866,2.2866,0,0,1-2.0066-1.1572,2.8913,2.8913,0,0,1-2.6327.4076c-2.5789-.6535-2.7023-4.1873-2.7057-6.2865-.0063-3.94,1.71-7.2606,2.1909-11.06.3452-2.73.6489-5.3489,1.1076-8.1007a89.9937,89.9937,0,0,0,2.5189-21.924c0-3.5987.2693-6.8182-1.3767-10.11-.5042-2.0169-2.7464-6.8675-.3241-8.6906,3.3073-2.4892,5.38,1.7746,5.8936,4.5438Z" fill="#845d27"/><path d="M107.3661,141.2116a1.2242,1.2242,0,0,1-1.5811-.7905l-.2747-1.0269V138.51a9.1924,9.1924,0,0,0-.549,2.6779,1.4007,1.4007,0,0,1,.536-.0963,1.2242,1.2242,0,0,1,1.25,1.25V153.159l.236-.3541.421-.6315a1.24,1.24,0,0,1,1.5131-.4711l-.0016-.0059-.0379-.4518c-1.5412-2.4611-1.052-5.2066-1.052-8.0612a1.25,1.25,0,0,1,2.5,0c0,2.103-.6333,4.9547.6321,6.6744l.3832,1.2323a1.2243,1.2243,0,0,1-.91,1.5158,1.2753,1.2753,0,0,1-.74-.0111,1.45,1.45,0,0,1-.2075.9654l-1.2631,1.8945a1.2458,1.2458,0,0,1-1.4741.4884v.0813a1.25,1.25,0,0,1-2.5,0V153.606a1.1977,1.1977,0,0,1-.8551.3,1.2242,1.2242,0,0,1-1.25-1.25c0-4.9287-1.1633-12.45,1.958-16.569l.0007-.246a1.25,1.25,0,0,1,2.3717.7906l-.1252.3031a1.4974,1.4974,0,0,1,.4129-.0538,1.2242,1.2242,0,0,1,1.25,1.25v1.263l.1464.2363a1.2242,1.2242,0,0,1-.7906,1.5811Z" fill="#62441c"/><path d="M114.1862,151.6111q.0356.1154.0753.2289Zm-.0145-.0474a1.25,1.25,0,0,1-1.77,1.766l-.5125-.6991a9.9616,9.9616,0,0,1-.4851-2.9214,1.25,1.25,0,0,1,2.5,0A6.1606,6.1606,0,0,0,114.1717,151.5637Z" fill="#62441c"/><path d="M186.4776,146.203a1.25,1.25,0,1,1,2.2361,1.1181,51.6627,51.6627,0,0,1-3.0251,5.6075l-.343.7077a1.4175,1.4175,0,0,1-.8164.6835c.0481.8057.1063,1.6016.1063,2.3361a1.25,1.25,0,0,1-2.5,0c0-2.0076-.3429-4.3864.0255-6.356q.0541-.2894.1211-.5751c-1.2273,1.3657-.8042,4.1259-.8042,5.8786a1.25,1.25,0,0,1-2.5,0v-.0275a1.6715,1.6715,0,0,1-.2236.0145,1.2242,1.2242,0,0,1-1.25-1.25v-.21c0-2.4651.4822-4.7766.6335-7.2265.064-1.0378-.1746-2.5538.3732-3.498.5637-.9715,1.956-1.1054,2.919-1.6837,1.909-1.1463,1.5476-3.62,1.5476-5.4851a1.5306,1.5306,0,0,1,.2194-.7368,1.53,1.53,0,0,1-.2194-.7367V132.237a1.25,1.25,0,0,1,2.5,0v2.5261a1.53,1.53,0,0,1-.2194.7367,1.5306,1.5306,0,0,1,.2194.7368c0,2.8272.0285,5.7855-2.6626,7.5664-.6375.4219-1.8161.1468-2.1332.8424-.3313.727.0026,1.599-.0478,2.3963-.02.3209-.0464.6393-.0763.9559a5.2554,5.2554,0,0,1,.8618-.743,1.1245,1.1245,0,0,1,1.1241-.69,1.28,1.28,0,0,1,.7087.1862,30.8628,30.8628,0,0,0,2.2849-6.8017l.4517-1.3712a1.25,1.25,0,0,1,2.3717.7906l-.39,1.155c-.4258,3.0316-2.0062,5.687-2.9089,8.5221.4871-.9372.9414-1.8928,1.4163-2.8426Z" fill="#62441c"/><path d="M177.1121,150.72a1.2242,1.2242,0,0,1,0,1.7677l-.0549-.4628v1.4735a1.25,1.25,0,0,1-2.5,0v-1.4735l.7871-1.3049A1.2243,1.2243,0,0,1,177.1121,150.72Z" fill="#62441c"/><path d="M100.8661,229.0579a1.2242,1.2242,0,0,1-1.25-1.25v-.6316a11.52,11.52,0,0,1,.535-3.18,1.2492,1.2492,0,0,1-.7586.22,1.2242,1.2242,0,0,1-1.25-1.25V211.7831a85.7154,85.7154,0,0,1,1.9252-18.9841c.76-3.2965,2.3165-6.8676,2.285-10.2505a1.25,1.25,0,0,1,2.5,0c-.0265,3.6165-1.5337,7.2839-2.3462,10.8a82.2532,82.2532,0,0,0-1.864,18.4343v10.6421c.1716-.5388.34-1.0855.4834-1.6526,1.0559-4.1792.3848-9.1218.3848-13.3841a1.25,1.25,0,0,1,2.5,0,102.7416,102.7416,0,0,1-.2192,12.1455c-.3113,2.6036-1.7046,5.0108-1.6754,7.6423v.6315a1.2242,1.2242,0,0,1-1.25,1.25Z" fill="#62441c"/><path d="M106.76,198.3236a1.2242,1.2242,0,0,1-1.25-1.25V194.758l.0006-.0217c-.0486.2437-.0944.4895-.141.733a30.6225,30.6225,0,0,0-.3563,6.2984,1.1285,1.1285,0,0,1,1.2111-.6777,1.2242,1.2242,0,0,1,1.15,1.3422,124.9314,124.9314,0,0,0,1.25,31.0644l.017.416a1.25,1.25,0,0,1-2.5,0l.017-.005a126.7235,126.7235,0,0,1-1.5071-28.08,1.2055,1.2055,0,0,1-.8386.2852,1.2242,1.2242,0,0,1-1.25-1.25c0-5.0072-1.3751-15.829,5.8812-15.9856h.21a1.25,1.25,0,0,1,0,2.5h-.21c-1.8843-.0645-2.4746,1.3016-2.8318,2.8791a1.1271,1.1271,0,0,1,1.1477-.7479,1.2242,1.2242,0,0,1,1.25,1.25v2.3156a1.2242,1.2242,0,0,1-1.25,1.25Z" fill="#62441c"/><path d="M107.3919,186.3246a1.2242,1.2242,0,0,1-1.25-1.25v-5.2627a1.25,1.25,0,0,1,2.5,0v5.2627a1.2242,1.2242,0,0,1-1.25,1.25Z" fill="#62441c"/><path d="M182.3329,209.06a1.2242,1.2242,0,0,1-1.25-1.25v-9.0518a1.25,1.25,0,0,1,2.5,0v7.7957a45.2673,45.2673,0,0,0-.3779-11.1689l-.2032-1.0129a1.25,1.25,0,0,1,2.4514-.49l.2178,1.0922a47.861,47.861,0,0,1,.0051,14.9024c-.19,1.7156-.41,3.4743-.6672,5.241.489-2.2775.9665-4.56,1.3536-6.8808.5354-3.2088.1936-6.6517.1936-9.8995a1.25,1.25,0,0,1,2.5,0c0,3.39.3305,6.9586-.2274,10.3094-1.0435,6.2672-2.7615,12.2565-3.5641,18.608a26.5347,26.5347,0,0,1-1.49,8.1791c2.0272-3.1695,4.2037-6.5809,4.6837-10.2878.42-3.2448-.0075-6.9011-.0075-10.1785a1.25,1.25,0,0,1,2.5,0c0,3.3625.4461,7.1245-.0074,10.4513-.6415,4.7053-3.5366,8.9067-6.0059,12.8162l-.366,1.1258A1.25,1.25,0,0,1,182.2,238.57l.4761-1.4.0085-.0139a1.1378,1.1378,0,0,1-1.1208-.0195,1.2243,1.2243,0,0,1-.559-1.6771l.3532-.6783a24.1038,24.1038,0,0,0,1.4118-7.6817q.1039-.839.2279-1.67c-.63,2.21-1.7482,4.3624-2.1671,6.579-.4609,2.4391.0161,5.5033.0161,8.01a1.25,1.25,0,0,1-2.5,0c0-1.6926-.19-3.5886-.2023-5.4126a24.074,24.074,0,0,0-.2448,3.3075,1.25,1.25,0,1,1-2.5,0c0-4.6676,1.5925-8.7721,1.897-13.34.2318-3.4764-.61-6.9318.9716-10.1647l.8657-.9564a1.25,1.25,0,0,1,1.7678,1.7678l-.3974.3067c-1.4218,2.7648-.511,6.18-.7125,9.202a32.3994,32.3994,0,0,1-.4945,3.7194,40.8427,40.8427,0,0,0,1.4035-4.1045,114.7771,114.7771,0,0,0,2.5-14.8105q.081-.4768.15-.9655a1.1367,1.1367,0,0,1-1.0173.4928Z" fill="#62441c"/><path d="M186.5431,189.0612a1.1932,1.1932,0,0,1-1.2445-1.16c-.7857-1.6307-1.2305-3.0337-2.0217-4.5091.4858,3.1416,1.44,5.913,4.5911,8.01l1.0325.9982a1.25,1.25,0,0,1-1.7677,1.7678l-.6516-.6859c-5.3132-3.5479-5.4979-8.5656-6.2307-14.3576a1.25,1.25,0,1,1,2.4807-.31c.068.55.1274,1.0947.1855,1.6318a1.2243,1.2243,0,0,1,1.7193.356c1.4016,2.1061,1.9092,4.0206,3.0251,6.2391l.132.77a1.2242,1.2242,0,0,1-1.25,1.25Z" fill="#62441c"/><path d="M162.339,84.1369l-.14-.1419c1.5261-2.6629,4.9716-3.0515,7.2342-5.3249,3.1927-3.1794,9.811-3.5169,13.6148-.7968a19.9737,19.9737,0,0,1,3.2134,3.5283c1.0355,1.2114,1.49,1.081,1.9389,2.8652.8882,3.53-1.705,7.4583-3.2568,10.4214-2.0408,1.5831-3.7463,3.5858-6.5756,1.9535-.9792-.5649-1.4137-1.7661-2.0648-2.69-3.0365-4.3087-8.2121-7.4809-13.3193-7.4809a1.2242,1.2242,0,0,1-1.25-1.25,1.1253,1.1253,0,0,1,.6053-1.0837Z" fill="#845d27"/><path d="M185.5342,91.0034a1.2243,1.2243,0,0,1,0,1.7678l-.3334.3333a7.3707,7.3707,0,0,1-10.0181.7425c-1.5391-1.2857-1.9838-3.8712-3.5966-4.9457-1.9954-1.3292-4.6378-.764-6.9358-.764a1.2242,1.2242,0,0,1-1.25-1.25,1.589,1.589,0,0,1,.0277-.3038c-.2909.0582-.5614.12-.8079.1831a1.4431,1.4431,0,0,1-.9943-.1385,1.1291,1.1291,0,0,1-1.3922-.0741,1.2242,1.2242,0,0,1-.25-1.75,8.6646,8.6646,0,0,1,3.6928-2.7733c1.9361-2.7977,4.4415-6.6123,7.2453-7.6626,4.0937-1.5334,9.7,1.2216,12.3444,4.0981l1.0207.2084a1.25,1.25,0,0,1-.6063,2.4254l-1.6461-.4583c-2.36-2.2408-6.7088-5.26-10.3221-3.9019-1.5443.58-3.1,2.4812-4.455,4.41a29.3035,29.3035,0,0,1,6.8791.1634c4.6613.5766,6.4792,2.8359,10.7639-.426l1.0566-.7067a1.25,1.25,0,0,1,1.3868,2.08l-.9434.6266c-1.9855,1.4709-4.35,2.8329-6.9028,2.5739a14.159,14.159,0,0,1-2.92-1.0582,21.0576,21.0576,0,0,0-9.7342-.7335c3.5694-.226,7.5981.0209,9.9853,1.0775,1.7686.7828,6.6295,6.7471,7.6607,3.0094l.308-.9311a1.25,1.25,0,1,1,2.3717.7906l-.3585,1.0689a6.7374,6.7374,0,0,1-1.44,2.1749,1.6741,1.6741,0,0,1,.163.1437Zm-12.4863-4.13c2.83,1.8876,3.7,7.6038,8.5405,6.1615a10.1382,10.1382,0,0,0,1.5748-1.4217,5.637,5.637,0,0,1-1.1334-.1759c-2.139-.5382-3.4251-2.6461-5.11-3.8692a11.0743,11.0743,0,0,0-5.3563-1.4534A7.139,7.139,0,0,1,173.0479,86.8733Z" fill="#62441c"/></svg>