<svg id="56550b5c-a58d-40e1-afdc-f067a49ba2dd" data-name="Layer 1" xmlns="http://www.w3.org/2000/svg" viewBox="0 0 290 357.9"><title>baby</title><path d="M101.1955,136.2311a2.3741,2.3741,0,0,1,1.6386-2.9376,2.4486,2.4486,0,0,1,3.1623,1.5812c.5109,1.6758,1.8674,2.9656,2.7549,4.4762,1.0679,1.8177.9329,4.1818,2,6,1.8605,3.17,5.5566,3.4122.3351,8.3424-1.12,1.0572-5.4022.2042-7.0613.44-1.35.1916-2.6639,1.34-3.9748.9654-3.6-1.03-4.0648-5.3224-6.1934-7.6653-.9324-1.0262-2.504-1.8163-2.6654-3.1934a7.468,7.468,0,0,1,1.6654-5.3422c.9013-1.1095,2.6155-1.1688,3.9772-1.6039,1.4252-.4554,2.9275-1.4875,4.3614-1.0625Z" fill="#ceebed"/><path d="M88.6153,142.1652a3.4109,3.4109,0,0,1,.2416-.2677,2.4484,2.4484,0,0,1,3.5355,0c2.2943,2.2943,5.6051,4.83,6.625,8.0433.7973,2.5122-.1335,5.4092-1.083,7.6811-.9989,2.39-1.9076,4.8237-3.0639,7.1417-1.3959,2.798-3.2382,5.0757-3.7781,8.3021-.4874,2.9128.0323,6.6751.0323,9.6v16a37.3365,37.3365,0,0,0,1.9677,11.6l-.106.4h.1383v3a2.5,2.5,0,0,1-4.2678,1.7678L87,213.5763a15.7042,15.7042,0,0,1-3.1433-2.1433,12.9392,12.9392,0,0,1-2.848-4.89c-.4487,2.2089-1.796,5.139-.9915,7.3979.36,1.0092,1.3724,1.6686,1.8531,2.626.09.18,2.0022,5.9368,2.1259,6.3079l.9815,2.9446a2.5007,2.5007,0,0,1-3.7684,2.9071l-2.9716-1.981.08-.1195a6.8677,6.8677,0,0,1-.68-.4432c-.91-.6753-.5585-2.23-1.14-3.2031-.5494-.9194-1.7888-1.3618-2.183-2.3576-.4368-1.1033.0433-2.3869-.1581-3.5563-.3578-2.0776-1.6544-3.92-2-6-.5411-3.2568.477-6.747,0-10-.1529-1.0429-.8321-1.9593-1-3-.4714-2.9232.5015-6.0983,0-9-.1795-1.0387-.8321-1.9593-1-3-1.0388-6.4408-.0323-13.8887-.0323-20.4.033-3.4667.72-8.11,2.3245-11.2318,1.2612-2.4542,4.5247-4.1955,6.2422-6.3532,1.503-1.8882,2.5048-4.6855,4.9766-5.7248,1.2173-.5117,2.6379-.1268,3.9567-.19Z" fill="#d14f3d"/><path d="M90.8977,196.0073a2.4271,2.4271,0,0,1-1.7287-.1277c-.0256,1.0208-.0443,2.0342-.0443,3.0357a3.1148,3.1148,0,0,1-.2.9911c1.6915,4.6014,3.6185,9.164,4.1842,14.0661a2.5,2.5,0,0,1-4.9694.5522c-.52-4.9078-2.4759-9.4769-4.1893-14.0937.0963,1.9029.1728,3.8344.174,5.8176a2.571,2.571,0,0,1-4.0886,2.0046c2.3385,6.257,5.0712,12.4539,5.0886,18.9954a2.5,2.5,0,0,1-5,0c.0207-6.7944-3.1264-11.6582-5.1939-17.8434A56.6044,56.6044,0,0,1,72.13,195.4039a24.3586,24.3586,0,0,1,.0573-3.6488,2.8989,2.8989,0,0,1-.7288-1.84c0-8.4093-2.6281-16.21-2.9969-24.5421-.1609-3.6352-1.3768-6.97.2272-10.506,2.0392-4.4947,6.9844-6.5088,9.483-10.61l.2173-.46a2.5,2.5,0,1,1,4.4721,2.2361l-.4494.8736c-2.4358,3.8214-7.211,6.0315-9.1837,10.0564-1.1562,2.3593.1232,5.7215.2272,8.1607.0407.9526.1107,1.8985.203,2.8394a78.3528,78.3528,0,0,1,.4861-9.6916l2.814-2.19a2.5708,2.5708,0,0,1,2.0019,4.092,104.3149,104.3149,0,0,0-.2544,12.5614A108.574,108.574,0,0,0,82.4767,155.61c.577-4.6072.3229-7.7815,3.1136-11.8143l1.8676-1.5469a2.4485,2.4485,0,0,1,3.5.5,2.3634,2.3634,0,0,1,.5332,1.8222,2.2653,2.2653,0,0,1,1.6335,2.3445,3.36,3.36,0,0,1-.0244.4113,2.3355,2.3355,0,0,1,1.9816-.1164,2.4486,2.4486,0,0,1,1.5812,3.1623l-.3334,1a22.2009,22.2009,0,0,0-1.205,7.8761,2.4485,2.4485,0,0,1-2.5,2.5,2.9089,2.9089,0,0,1-.93-.14c-.9291,3.5039-3.9082,6.1419-4.61,9.7528q-.0366.1884-.0629.3784a2.5762,2.5762,0,0,1,2.0284,1.9026c.624,2.53,2.188,4.9366,2.69,7.437.678,3.3753.2628,7.3745.6984,10.8592l.278,1.0371a2.4484,2.4484,0,0,1-1.819,3.0317Zm-3.3125-41.3264q.0315.0283.0632.0581c.0644-.9616.102-1.9242.1223-2.8671-.0861.8928-.1159,1.8171-.1855,2.809Zm-9.4574,38.0255a37.4692,37.4692,0,0,1,.5871-8.04,26.5447,26.5447,0,0,0-1.6225,5.3159c-.9693,5.4674.2622,10.6428,2.0293,15.7427C79.07,201.3429,78.3607,197.074,78.1278,192.7064Z" fill="#a13f2e"/><path d="M187.3323,136.9582c1.4339-.425,2.9363.6071,4.3614,1.0625,1.3617.435,3.0759.4944,3.9772,1.6039a7.468,7.468,0,0,1,1.6654,5.3422c-.1613,1.3771-1.733,2.1672-2.6654,3.1934-2.1286,2.3429-2.5935,6.6354-6.1933,7.6653-1.3109.375-2.625-.7738-3.9749-.9654-1.6591-.2355-5.9417.6176-7.0613-.44-5.2214-4.93-1.5254-5.1724.3351-8.3424,1.0671-1.8182.9322-4.1823,2-6,.8875-1.5106,2.244-2.8,2.7549-4.4762a2.4485,2.4485,0,0,1,3.1623-1.5812,2.374,2.374,0,0,1,1.6386,2.9375Z" fill="#ceebed"/><path d="M200.9032,142.8924c1.3189.0634,2.7395-.3215,3.9567.19,2.4718,1.0392,3.4736,3.8365,4.9766,5.7247,1.7175,2.1578,4.981,3.8991,6.2422,6.3533,1.6043,3.1219,2.2916,7.765,2.3245,11.2317,0,6.5117,1.0065,13.96-.0323,20.4-.1679,1.0406-.8205,1.9613-1,3-.5015,2.9017.4714,6.0768,0,9-.1679,1.0406-.8471,1.957-1,3-.477,3.2529.5411,6.7432,0,10-.3456,2.08-1.6422,3.9224-2,6-.2014,1.1693.2787,2.4529-.1581,3.5562-.3942.9959-1.6336,1.4382-2.183,2.3576-.5814.9729-.23,2.5278-1.14,3.2032a6.8816,6.8816,0,0,1-.68.4432l.08.1194-2.9716,1.9811a2.501,2.501,0,0,1-3.7684-2.9071l.9815-2.9447c.1237-.3711,2.0356-6.1279,2.1259-6.3078.4807-.9575,1.4936-1.6168,1.8531-2.6261.8045-2.2588-.5428-5.1889-.9915-7.3979a12.94,12.94,0,0,1-2.848,4.89,15.7032,15.7032,0,0,1-3.1433,2.1432l-1.8567,1.8568a2.5,2.5,0,0,1-4.2678-1.7678v-3h.1383l-.106-.4005a37.3364,37.3364,0,0,0,1.9677-11.5995v-16c0-2.9244.52-6.6867.0323-9.6-.54-3.2263-2.3822-5.5041-3.7781-8.302-1.1563-2.318-2.065-4.7516-3.0639-7.1417-.95-2.272-1.88-5.1689-1.083-7.6812,1.02-3.2137,4.3306-5.749,6.625-8.0433a2.4484,2.4484,0,0,1,3.5355,0,3.4117,3.4117,0,0,1,.2416.2678Z" fill="#d14f3d"/><path d="M197.63,196.7345a2.4485,2.4485,0,0,1-1.819-3.0317l.278-1.0371c.4356-3.4847.02-7.4839.6984-10.8592.5022-2.5,2.0662-4.9073,2.69-7.4371a2.5759,2.5759,0,0,1,2.0283-1.9025q-.0264-.19-.0629-.3784c-.7013-3.6109-3.68-6.2489-4.6095-9.7529a2.907,2.907,0,0,1-.9306.14,2.4485,2.4485,0,0,1-2.5-2.5,22.198,22.198,0,0,0-1.2051-7.8761l-.3333-1a2.4485,2.4485,0,0,1,1.5811-3.1623,2.3357,2.3357,0,0,1,1.9817.1164,3.3421,3.3421,0,0,1-.0244-.4114,2.2652,2.2652,0,0,1,1.6335-2.3444,2.3634,2.3634,0,0,1,.5332-1.8222,2.4485,2.4485,0,0,1,3.5-.5l1.8676,1.5469c2.7907,4.0328,2.5366,7.2071,3.1136,11.8143a108.5764,108.5764,0,0,0,3.7713,17.1255,104.3145,104.3145,0,0,0-.2544-12.5614,2.5708,2.5708,0,0,1,2.0019-4.092l2.814,2.19a78.3518,78.3518,0,0,1,.4861,9.6916c.0923-.9409.1623-1.8868.203-2.8394.1041-2.4392,1.3835-5.8014.2272-8.1607-1.9726-4.0249-6.7479-6.235-9.1837-10.0564l-.4494-.8736a2.5,2.5,0,0,1,4.4722-2.2361l.2172.46c2.4986,4.1013,7.4439,6.1155,9.4831,10.61,1.604,3.5356.3881,6.8707.2272,10.506-.3688,8.3316-2.9969,16.1328-2.9969,24.5421a2.8986,2.8986,0,0,1-.7289,1.84,24.3449,24.3449,0,0,1,.0574,3.6488,56.6044,56.6044,0,0,1-2.8013,14.0013c-2.0675,6.1852-5.2146,11.0489-5.1939,17.8434a2.5,2.5,0,0,1-5,0c.0174-6.5415,2.75-12.7385,5.0886-18.9954a2.571,2.571,0,0,1-4.0886-2.0046c.0012-1.9833.0777-3.9147.174-5.8176-1.7134,4.6167-3.669,9.1859-4.1893,14.0936a2.5,2.5,0,1,1-4.9694-.5521c.5657-4.9021,2.4926-9.4647,4.1842-14.0662a3.1144,3.1144,0,0,1-.2-.9911c0-1.0014-.0187-2.0148-.0443-3.0356a2.4271,2.4271,0,0,1-1.7287.1276Zm3.127-44.1355c.02.9429.0579,1.9056.1223,2.8671q.0316-.03.0632-.0581C200.8731,154.4162,200.8433,153.4919,200.7572,152.599ZM210.4,193.4336c-.233,4.3676-.9426,8.6365-.994,13.0186,1.7672-5.1,2.9986-10.2752,2.0294-15.7427a26.5486,26.5486,0,0,0-1.6225-5.3159,37.483,37.483,0,0,1,.5871,8.04Z" fill="#a13f2e"/></svg>