<svg id="dada9ae5-ecf9-42ba-8153-085f622165f7" data-name="Layer 1" xmlns="http://www.w3.org/2000/svg" viewBox="0 0 290 357.9"><title>baby</title><path d="M102.1624,153.0713c-.0592-4.5085-.4674-9.2446.0163-13.6866a74.1092,74.1092,0,0,0,.7178-8.21,1.25,1.25,0,0,1,2.5,0l-.001.2085a1.2477,1.2477,0,0,1,.3336.6045l.3572,1.4289q.3378,1.3509.6577,2.7062c1.4468,2.1122,3.0944,3.7591,4.0286,6.2529a52.3661,52.3661,0,0,0,2.46,6.3623c.6272,1.1844,3.51,1.6611,3.7562,2.84.5914,2.8282-2.3343,2.9731-4.5048,2.9788l-.036.009a6.9484,6.9484,0,0,1-1.0292.148,3.2273,3.2273,0,0,1-1.7179.3243,3.3445,3.3445,0,0,1-1.6319.6223c-.0964-.0017-.1921-.0083-.2872-.0189v.0524h-.968c-.7.9241-.1437,2.9175-2.8941,1.67a.9265.9265,0,0,1-.486-.5794h-.0149a1.25,1.25,0,0,1-1.219-.9722l-.3573-1.429.0861-.0215a1.3853,1.3853,0,0,1-.0393-.7324,1.4259,1.4259,0,0,1,.2725-.5587Z" fill="#d14f3d"/><path d="M184.1953,129.2352a1.2242,1.2242,0,0,1,1.5158.91c1.5934,6.4288,2.7285,14.6961,1.0908,21.3306-.3466,1.4039-.7458,2.8019-1.0628,4.2125-.1707.7594.1811,1.8626-.4714,2.2869-.7649.4974-1.8195-.1371-2.7293-.2057-1.342-.9548-2.3375-.48-3.9274-1.0615a45.4169,45.4169,0,0,0-4.435-1.8472l-.14-.175-.048.072-1.0746-.7165a1.25,1.25,0,0,1,.6773-2.3008h1.4029a1.0447,1.0447,0,0,0,.12-.1972c.3907-.8335.2419-1.8488.6058-2.6943,1.416-3.29,4.6952-5.4321,5.7641-8.9462.6514-2.1416-.2112-4.9235.3472-7.2126l.3573-1.4289a1.2511,1.2511,0,0,1,1.0686-.9633,1.1312,1.1312,0,0,1,.938-1.0624Z" fill="#d14f3d"/><path d="M101.9988,179.5823a46.9128,46.9128,0,0,1,4.9657-2.8185l1.0247-1.0247a1.25,1.25,0,0,1,2.09,1.2142l-.3568,1.4272c-.9612,3.734.16,7.9076-.7233,11.6187-.6636,2.7881-1.22,5.7383-1.805,8.6641-1.0947,6.49.3953,12.9234.3841,19.4082-.0048,2.7813.4509,7.72,2.5425,9.66a1.2245,1.2245,0,0,1,.017,1.7506c.1484,2.27,1.4062,3.7944,2.6843,5.7116l.4416.8615a1.25,1.25,0,0,1-2.2361,1.118l-.2856-.5928a27.6266,27.6266,0,0,1-2.253-3.7326,23.19,23.19,0,0,0,.2737,5.0979q.2249.4691.4559.9324l.6853,1.0279a1.25,1.25,0,1,1-2.0814,1.3849l-.7164-1.0746.0168-.0112-.0579-.0548q-.0942-.1887-.19-.376c-.5028-.1928-.7216-.7764-.8613-1.6415a54.0037,54.0037,0,0,1-2.6642-5.4174c-.2088-.5229-.5428-1.1112-.7766-1.6945-.4079.9128-.7936,1.8376-1.1757,2.7633v1.7393a1.25,1.25,0,0,1-2.5,0v-1.4544c0-5.9731-.7272-11.8891-.7272-17.9057,0-7.6095.4855-15.0152,1.0939-22.5407.2964-3.6668.49-8.54,2.1989-11.9883Z" fill="#d14f3d"/><path d="M185.26,179.8179c.8715,2.6705,2.4571,5.1642,3.0113,7.84,1.665,8.0387,1.1888,16.5835,2.5506,24.7545.755,4.5322,2.2754,10.8325,1.0743,15.4a69.5512,69.5512,0,0,1-2.928,7.7131l-.3418,1.3671a1.25,1.25,0,0,1-2.27.3994l-.7164-1.0746.0156-.01q-.0307-.0393-.06-.08a19.6426,19.6426,0,0,1-1.6439,3.966c-.3923.7364-.5273,2.0142-1.3568,2.1034a2.2866,2.2866,0,0,1-2.0066-1.1572,2.8916,2.8916,0,0,1-2.6327.4076c-2.5789-.6535-2.7023-4.1873-2.7057-6.2865-.0063-3.94,1.71-7.2607,2.1909-11.06.3452-2.73.6489-5.3489,1.1076-8.1006a89.9938,89.9938,0,0,0,2.5188-21.9241c0-3.5987.2694-6.8182-1.3766-10.11-.5042-2.0169-2.7464-6.8675-.3241-8.6906,3.3073-2.4893,5.38,1.7746,5.8936,4.5438Z" fill="#d14f3d"/><path d="M106.9307,141.2385a1.2242,1.2242,0,0,1-1.5811-.7906l-.2747-1.0268v-.8845a9.1938,9.1938,0,0,0-.549,2.678,1.4,1.4,0,0,1,.536-.0964,1.2242,1.2242,0,0,1,1.25,1.25v10.8177l.236-.3541.421-.6315a1.24,1.24,0,0,1,1.5131-.4712l-.0016-.0058-.0379-.4519c-1.5412-2.461-1.052-5.2066-1.052-8.0611a1.25,1.25,0,0,1,2.5,0c0,2.103-.6333,4.9547.6321,6.6744l.3832,1.2322a1.2244,1.2244,0,0,1-.91,1.5159,1.2765,1.2765,0,0,1-.74-.0111,1.45,1.45,0,0,1-.2074.9653l-1.2631,1.8946a1.2458,1.2458,0,0,1-1.4741.4884v.0813a1.25,1.25,0,0,1-2.5,0v-2.4185a1.1972,1.1972,0,0,1-.8551.3,1.2242,1.2242,0,0,1-1.25-1.25c0-4.9286-1.1633-12.45,1.958-16.569l.0007-.2459a1.25,1.25,0,1,1,2.3717.7906l-.1252.3031a1.4937,1.4937,0,0,1,.4129-.0538,1.2242,1.2242,0,0,1,1.25,1.25v1.2631l.1464.2362a1.2243,1.2243,0,0,1-.7906,1.5812Z" fill="#a13f2e"/><path d="M113.7508,151.6379q.0356.1153.0753.229Zm-.0145-.0474a1.25,1.25,0,0,1-1.7695,1.766l-.5125-.6991a9.96,9.96,0,0,1-.4851-2.9214,1.25,1.25,0,0,1,2.5,0A6.16,6.16,0,0,0,113.7363,151.5905Z" fill="#a13f2e"/><path d="M186.0422,146.23a1.25,1.25,0,0,1,2.2361,1.118,51.6641,51.6641,0,0,1-3.0251,5.6076l-.3431.7077a1.4172,1.4172,0,0,1-.8163.6834c.0481.8057.1063,1.6017.1063,2.3362a1.25,1.25,0,0,1-2.5,0c0-2.0077-.3429-4.3864.0255-6.3561q.0541-.2893.1211-.5751c-1.2274,1.3657-.8042,4.1259-.8042,5.8787a1.25,1.25,0,0,1-2.5,0v-.0276a1.655,1.655,0,0,1-.2236.0145,1.2242,1.2242,0,0,1-1.25-1.25v-.21c0-2.4651.4822-4.7766.6335-7.2264.064-1.0378-.1746-2.5538.3732-3.498.5637-.9716,1.956-1.1054,2.919-1.6837,1.909-1.1464,1.5476-3.62,1.5476-5.4851a1.53,1.53,0,0,1,.2194-.7368,1.53,1.53,0,0,1-.2194-.7368v-2.5261a1.25,1.25,0,0,1,2.5,0V134.79a1.53,1.53,0,0,1-.2194.7368,1.53,1.53,0,0,1,.2194.7368c0,2.8271.0285,5.7855-2.6626,7.5664-.6375.4219-1.8161.1467-2.1332.8424-.3313.7269.0026,1.5989-.0478,2.3962-.02.321-.0464.6394-.0763.956a5.2558,5.2558,0,0,1,.8618-.7431,1.1243,1.1243,0,0,1,1.124-.69,1.28,1.28,0,0,1,.7088.1862,30.867,30.867,0,0,0,2.2849-6.8018l.4517-1.3711a1.25,1.25,0,1,1,2.3717.7906l-.39,1.1549c-.4258,3.0317-2.0062,5.6871-2.9089,8.5221.4871-.9372.9414-1.8928,1.4163-2.8425Z" fill="#a13f2e"/><path d="M176.6767,150.7467a1.2244,1.2244,0,0,1,0,1.7678l-.0549-.4629v1.4736a1.25,1.25,0,1,1-2.5,0v-1.4736l.7871-1.3049A1.2243,1.2243,0,0,1,176.6767,150.7467Z" fill="#a13f2e"/><path d="M100.4307,229.0847a1.2242,1.2242,0,0,1-1.25-1.25v-.6315a11.5228,11.5228,0,0,1,.5349-3.1805,1.25,1.25,0,0,1-.7585.22,1.2242,1.2242,0,0,1-1.25-1.25V211.81a85.7148,85.7148,0,0,1,1.9252-18.9841c.76-3.2966,2.3164-6.8677,2.285-10.25a1.25,1.25,0,0,1,2.5,0c-.0265,3.6164-1.5337,7.2838-2.3462,10.8a82.2532,82.2532,0,0,0-1.864,18.4343v10.642c.1716-.5388.34-1.0855.4834-1.6526,1.0559-4.1791.3848-9.1217.3848-13.384a1.25,1.25,0,0,1,2.5,0,102.742,102.742,0,0,1-.2192,12.1455c-.3113,2.6036-1.7046,5.0107-1.6754,7.6423v.6315a1.2242,1.2242,0,0,1-1.25,1.25Z" fill="#a13f2e"/><path d="M106.3249,198.3505a1.2242,1.2242,0,0,1-1.25-1.25v-2.3156l.0006-.0217c-.0487.2437-.0944.4894-.141.733a30.615,30.615,0,0,0-.3563,6.2983,1.1283,1.1283,0,0,1,1.2111-.6776,1.2242,1.2242,0,0,1,1.15,1.3422,124.9365,124.9365,0,0,0,1.25,31.0644l.0171.416a1.25,1.25,0,0,1-2.5,0l.017-.005a126.7174,126.7174,0,0,1-1.5071-28.08,1.2055,1.2055,0,0,1-.8386.2852,1.2242,1.2242,0,0,1-1.25-1.25c0-5.0072-1.3751-15.8291,5.8812-15.9856h.21a1.25,1.25,0,1,1,0,2.5h-.21c-1.8843-.0646-2.4746,1.3016-2.8318,2.8791a1.127,1.127,0,0,1,1.1477-.7479,1.2242,1.2242,0,0,1,1.25,1.25v2.3156a1.2242,1.2242,0,0,1-1.25,1.25Z" fill="#a13f2e"/><path d="M106.9565,186.3515a1.2242,1.2242,0,0,1-1.25-1.25v-5.2627a1.25,1.25,0,0,1,2.5,0v5.2627a1.2242,1.2242,0,0,1-1.25,1.25Z" fill="#a13f2e"/><path d="M181.8975,209.0864a1.2242,1.2242,0,0,1-1.25-1.25v-9.0519a1.25,1.25,0,0,1,2.5,0V206.58a45.2716,45.2716,0,0,0-.3779-11.1688l-.2032-1.0129a1.25,1.25,0,1,1,2.4514-.49L185.2356,195a47.861,47.861,0,0,1,.0051,14.9024c-.19,1.7155-.4105,3.4743-.6672,5.2409.489-2.2775.9665-4.56,1.3536-6.8807.5354-3.2088.1936-6.6517.1936-9.9a1.25,1.25,0,0,1,2.5,0c0,3.39.3305,6.9586-.2274,10.3093-1.0435,6.2672-2.7615,12.2565-3.5641,18.608a26.5354,26.5354,0,0,1-1.49,8.1792c2.0272-3.17,4.2037-6.5809,4.6837-10.2878.42-3.2448-.0075-6.9011-.0075-10.1785a1.25,1.25,0,0,1,2.5,0c0,3.3625.4461,7.1244-.0074,10.4513-.6415,4.7053-3.5366,8.9067-6.006,12.8162l-.366,1.1257a1.25,1.25,0,0,1-2.3717-.7905l.4761-1.4.0085-.0139a1.1378,1.1378,0,0,1-1.1208-.02,1.2242,1.2242,0,0,1-.559-1.677l.3532-.6783a24.1038,24.1038,0,0,0,1.4118-7.6817q.1039-.8389.2279-1.67c-.63,2.21-1.7482,4.3625-2.1671,6.5791-.4609,2.4391.0161,5.5033.0161,8.01a1.25,1.25,0,0,1-2.5,0c0-1.6926-.19-3.5886-.2023-5.4127a24.0766,24.0766,0,0,0-.2448,3.3076,1.25,1.25,0,0,1-2.5,0c0-4.6677,1.5925-8.7721,1.897-13.34.2318-3.4765-.61-6.9319.9716-10.1647l.8657-.9564a1.25,1.25,0,0,1,1.7678,1.7678l-.3974.3066c-1.4218,2.7649-.511,6.18-.7125,9.2021a32.4024,32.4024,0,0,1-.4945,3.7194,40.8254,40.8254,0,0,0,1.4034-4.1045,114.7773,114.7773,0,0,0,2.5-14.81q.081-.477.15-.9655a1.1364,1.1364,0,0,1-1.0173.4927Z" fill="#a13f2e"/><path d="M186.1077,189.0881a1.1932,1.1932,0,0,1-1.2445-1.16c-.7857-1.6308-1.2305-3.0337-2.0217-4.5091.4858,3.1416,1.44,5.913,4.5911,8.01l1.0325.9982a1.25,1.25,0,1,1-1.7678,1.7678l-.6515-.6858c-5.3132-3.5479-5.4979-8.5656-6.2307-14.3576a1.25,1.25,0,1,1,2.4807-.31c.068.55.1274,1.0946.1855,1.6318a1.2243,1.2243,0,0,1,1.7193.356c1.4016,2.106,1.9092,4.02,3.0251,6.2391l.132.7695a1.2242,1.2242,0,0,1-1.25,1.25Z" fill="#a13f2e"/></svg>