<svg id="e0ca3aec-d5bb-42c6-b093-a226decbafde" data-name="Layer 1" xmlns="http://www.w3.org/2000/svg" viewBox="0 0 289.9976 357.9312"><title>hair</title><path d="M143.06,81.5329s-17.8578,33.25-32.0073,36.4529-10.1871,0-10.1871,0,8.0658-57.8064,41.21-43.8492C145.0238,75.3782,143.06,81.5329,143.06,81.5329Z" fill="#5473b8"/><path d="M188.3667,127.3657S145.1358,100.8394,143.06,81.5329c-.4158-3.8677.6022-6.9013,3.5906-8.3464C158.58,67.4179,191.4023,82.4605,188.3667,127.3657Z" fill="#5473b8"/><path d="M173.6961,85.571s7.2854-8.6312,19.614,2.5738-8.5442.6892-8.5442.6892-6.6792-2.4906-9.2658-.44Z" fill="#5473b8"/><path d="M177.9609,97.6363s7.2854-8.6312,19.614,2.5738-8.5442.6892-8.5442.6892-6.6792-2.49-9.2658-.44Z" fill="#5473b8"/><path d="M182.1526,109.2943s7.2854-8.6311,19.614,2.5738-8.5443.6892-8.5443.6892-6.6791-2.49-9.2658-.44Z" fill="#5473b8"/><path d="M145.09,74.7154s-2.39-11.0391,14.01-13.966-4.6691,7.1888-4.6691,7.1888-6.0495,3.7707-6.004,7.0712Z" fill="#5473b8"/><path d="M157.2507,78.7011s-2.39-11.039,14.01-13.9659-4.6691,7.1888-4.6691,7.1888-6.0494,3.7707-6.0039,7.0712Z" fill="#5473b8"/><path d="M169.0438,82.4963s-2.39-11.0391,14.01-13.966-4.6691,7.1888-4.6691,7.1888-6.0495,3.7707-6.004,7.0712Z" fill="#5473b8"/><path d="M113.8715,87.1235s-7.2854-8.6312-19.614,2.5738,8.5443.6892,8.5443.6892,6.6792-2.49,9.2658-.44Z" fill="#5473b8"/><path d="M109.6067,99.1889s-7.2853-8.6312-19.614,2.5738,8.5443.6891,8.5443.6891,6.6792-2.4905,9.2658-.44Z" fill="#5473b8"/><path d="M105.4151,110.8469s-7.2854-8.6312-19.614,2.5738,8.5442.6891,8.5442.6891,6.6792-2.4905,9.2658-.44Z" fill="#5473b8"/><path d="M142.4773,76.2679s2.39-11.039-14.01-13.966,4.6691,7.1888,4.6691,7.1888,6.0494,3.7707,6.0039,7.0712Z" fill="#5473b8"/><path d="M130.3169,80.2537s2.39-11.039-14.01-13.966,4.669,7.1888,4.669,7.1888,6.0495,3.7707,6.004,7.0712Z" fill="#5473b8"/><path d="M118.5239,84.0488s2.39-11.039-14.01-13.9659,4.6691,7.1887,4.6691,7.1887,6.0494,3.7707,6.0039,7.0712Z" fill="#5473b8"/></svg>