<svg id="d69cc8c3-8dde-4d20-8f74-ca2cf48cc0f2" data-name="Layer 1" xmlns="http://www.w3.org/2000/svg" viewBox="0 0 289.9976 357.9312"><title>hair</title><path d="M97.3963,100.5369s-3.9746,11.1061,6.3236,12.3465,9.5962-14.0372,9.5962-14.0372,5.6575,9.3473,10.2394,0l4.5818-9.3474s2.746,5.0938,13.42,3.82,6.9006-5.9332,6.9006-5.9332S153.06,97.14,160.7128,97.9893s14.7307-3.4563,14.7307-3.4563-5.7737,10.5335,1.97,16.0268-1.2472,1.4065,2.4543,10.9108,5.1474,9.2123,11.4711,4.5418,6.0853-8.0672,2.8078-14.4361c0,0,11.1985-13.1624,2.2621-21.23,0,0-.6633-24.6264-14.5655-19.5313,0,0-3.3586-17.8329-16.91-13.587,0,0-8.2695-6.7934-21.5252-3.8213s-12.41,12.7378-12.41,12.7378-10.6119-6.7935-16.5562-.8492-2.6144,14.4361-2.6144,14.4361-4.6037-4.0876-10.1234,2.2022,1.65,11.3848,1.65,11.3848-5.3506-3.3967-7.5341,0S97.3963,100.5369,97.3963,100.5369Z" fill="#e9e9ea"/></svg>