<svg id="1aa37cb9-63e5-44b7-ae82-6be806d38a4a" data-name="Layer 1" xmlns="http://www.w3.org/2000/svg" viewBox="0 0 290 357.9"><title>baby</title><path d="M186.14,138.1267c1.4339-.4251,2.9362.6071,4.3614,1.0624,1.3617.4351,3.0759.4944,3.9772,1.604a7.4676,7.4676,0,0,1,1.6654,5.3421c-.1614,1.3771-1.733,2.1672-2.6654,3.1934-2.1286,2.3429-2.5935,6.6355-6.1934,7.6654-1.3109.375-2.6249-.7739-3.9748-.9654-1.6591-.2355-5.9417.6175-7.0613-.44-5.2215-4.93-1.5254-5.1725.3351-8.3425,1.0671-1.8181.9321-4.1822,2-6,.8874-1.5106,2.244-2.8,2.7549-4.4762a2.4485,2.4485,0,0,1,3.1623-1.5811,2.374,2.374,0,0,1,1.6386,2.9375Z" fill="#ceebed"/><path d="M199.7106,144.0608c1.319.0635,2.7395-.3214,3.9567.19,2.4718,1.0392,3.4737,3.8365,4.9767,5.7247,1.7175,2.1577,4.981,3.899,6.2421,6.3532,1.6043,3.1219,2.2916,7.7651,2.3245,11.2318,0,6.5117,1.0065,13.96-.0323,20.4-.1678,1.0406-.8205,1.9613-1,3-.5014,2.9017.4715,6.0768,0,9-.1678,1.0406-.847,1.9571-1,3-.477,3.253.5412,6.7432,0,10-.3455,2.08-1.6422,3.9224-2,6-.2014,1.1694.2787,2.453-.158,3.5563-.3942.9958-1.6337,1.4382-2.1831,2.3576-.5813.9728-.23,2.5278-1.14,3.2031a6.869,6.869,0,0,1-.68.4432l.08.1195-2.9715,1.981a2.5012,2.5012,0,0,1-3.7685-2.9071l.9816-2.9446c.1237-.3711,2.0356-6.1279,2.1259-6.3079.4807-.9574,1.4936-1.6168,1.8531-2.626.8045-2.2589-.5429-5.189-.9915-7.3979a12.94,12.94,0,0,1-2.8481,4.89,15.703,15.703,0,0,1-3.1432,2.1433l-1.8568,1.8567a2.5,2.5,0,0,1-4.2677-1.7678v-3h.1382l-.1059-.4a37.3354,37.3354,0,0,0,1.9677-11.6v-16c0-2.9244.52-6.6867.0323-9.6-.54-3.2264-2.3823-5.5041-3.7781-8.3021-1.1564-2.318-2.065-4.7516-3.0639-7.1417-.95-2.2719-1.88-5.1689-1.083-7.6811,1.02-3.2137,4.3306-5.749,6.6249-8.0433a2.4484,2.4484,0,0,1,3.5355,0,3.3715,3.3715,0,0,1,.2416.2677Z" fill="#d14f3d"/><path d="M196.4377,197.9029a2.4485,2.4485,0,0,1-1.8191-3.0317l.278-1.0371c.4356-3.4847.02-7.4839.6984-10.8592.5023-2.5,2.0663-4.9072,2.69-7.437a2.576,2.576,0,0,1,2.0284-1.9026q-.0264-.19-.063-.3784c-.7013-3.6109-3.68-6.2489-4.6095-9.7528a2.91,2.91,0,0,1-.9306.14,2.4485,2.4485,0,0,1-2.5-2.5,22.2009,22.2009,0,0,0-1.205-7.8761l-.3334-1a2.4486,2.4486,0,0,1,1.5812-3.1623,2.3355,2.3355,0,0,1,1.9816.1164,3.36,3.36,0,0,1-.0244-.4113,2.2653,2.2653,0,0,1,1.6335-2.3445,2.3634,2.3634,0,0,1,.5332-1.8222,2.4485,2.4485,0,0,1,3.5-.5l1.8677,1.5469c2.7907,4.0328,2.5365,7.2071,3.1136,11.8143a108.5712,108.5712,0,0,0,3.7712,17.1255,104.3128,104.3128,0,0,0-.2544-12.5613,2.5709,2.5709,0,0,1,2.0019-4.0921l2.814,2.19a78.3149,78.3149,0,0,1,.4861,9.6916c.0923-.9409.1624-1.8867.203-2.8393.1041-2.4392,1.3835-5.8015.2272-8.1607-1.9726-4.0249-6.7478-6.2351-9.1836-10.0565l-.4494-.8736a2.5,2.5,0,1,1,4.4721-2.2361l.2173.46c2.4986,4.1014,7.4438,6.1156,9.483,10.61,1.604,3.5356.3881,6.8707.2272,10.5059-.3688,8.3317-2.9969,16.1328-2.9969,24.5422a2.8987,2.8987,0,0,1-.7288,1.84,24.3589,24.3589,0,0,1,.0573,3.6488,56.6044,56.6044,0,0,1-2.8013,14.0013c-2.0675,6.1853-5.2146,11.049-5.1939,17.8434a2.5,2.5,0,0,1-5,0c.0174-6.5415,2.75-12.7384,5.0886-18.9954a2.571,2.571,0,0,1-4.0886-2.0046c.0012-1.9832.0777-3.9147.174-5.8175-1.7133,4.6167-3.669,9.1859-4.1892,14.0936a2.5,2.5,0,0,1-4.97-.5522c.5658-4.902,2.4927-9.4647,4.1842-14.0661a3.1148,3.1148,0,0,1-.2-.9911c0-1.0015-.0187-2.0149-.0443-3.0357a2.4271,2.4271,0,0,1-1.7287.1277Zm3.1269-44.1354c.02.9429.0579,1.9055.1224,2.8671q.0315-.03.0631-.0581C199.6805,155.5846,199.6507,154.66,199.5646,153.7675Zm9.6429,40.8345c-.2329,4.3676-.9425,8.6365-.9939,13.0187,1.7671-5.1,2.9986-10.2753,2.0293-15.7427a26.5447,26.5447,0,0,0-1.6225-5.3159,37.4767,37.4767,0,0,1,.5872,8.04Z" fill="#a13f2e"/></svg>