<svg id="53a4567c-b5e1-4ef2-b3af-a53674f1a612" data-name="Layer 1" xmlns="http://www.w3.org/2000/svg" viewBox="0 0 290 357.9"><title>baby</title><path d="M102.0235,135.6329a2.374,2.374,0,0,1,1.6386-2.9375,2.4485,2.4485,0,0,1,3.1623,1.5811c.5109,1.6759,1.8674,2.9657,2.7549,4.4763,1.0679,1.8177.9329,4.1818,2,6,1.8605,3.17,5.5566,3.4122.3351,8.3424-1.12,1.0572-5.4022.2042-7.0613.44-1.35.1916-2.6639,1.34-3.9748.9654-3.6-1.03-4.0648-5.3224-6.1934-7.6653-.9324-1.0263-2.504-1.8163-2.6654-3.1934a7.468,7.468,0,0,1,1.6654-5.3422c.9013-1.1095,2.6155-1.1688,3.9772-1.6039,1.4252-.4554,2.9275-1.4875,4.3614-1.0625Z" fill="#f283b4"/><path d="M89.4433,141.5671a3.4109,3.4109,0,0,1,.2416-.2677,2.4484,2.4484,0,0,1,3.5355,0c2.2943,2.2942,5.6051,4.83,6.625,8.0433.7973,2.5122-.1335,5.4092-1.083,7.6811-.9989,2.39-1.9076,4.8237-3.0639,7.1417-1.3959,2.798-3.2382,5.0757-3.7781,8.3021-.4874,2.9128.0323,6.6751.0323,9.6v16A37.3354,37.3354,0,0,0,93.92,209.6666l-.106.4005h.1383v3a2.5,2.5,0,0,1-4.2678,1.7678l-1.8567-1.8567a15.7042,15.7042,0,0,1-3.1433-2.1433,12.94,12.94,0,0,1-2.848-4.89c-.4487,2.2089-1.796,5.139-.9915,7.3979.3595,1.0092,1.3724,1.6686,1.8531,2.626.09.18,2.0022,5.9368,2.1259,6.3079l.9815,2.9446a2.5007,2.5007,0,0,1-3.7684,2.9071l-2.9716-1.981.08-.1195a6.8574,6.8574,0,0,1-.68-.4432c-.91-.6753-.5585-2.23-1.14-3.2031-.5494-.9194-1.7888-1.3618-2.183-2.3576-.4368-1.1033.0433-2.3869-.1581-3.5563-.3578-2.0776-1.6544-3.92-2-6-.5411-3.2568.477-6.747,0-10-.1529-1.0429-.8321-1.9594-1-3-.4714-2.9232.5015-6.0983,0-9-.1795-1.0387-.8321-1.9594-1-3-1.0387-6.4408-.0322-13.8887-.0322-20.4.0329-3.4666.72-8.11,2.3244-11.2317,1.2612-2.4542,4.5247-4.1955,6.2422-6.3532,1.503-1.8882,2.5048-4.6855,4.9766-5.7248,1.2173-.5117,2.6379-.1268,3.9568-.19Z" fill="#6e71b5"/><path d="M91.7257,195.4091a2.4271,2.4271,0,0,1-1.7287-.1276c-.0256,1.0208-.0443,2.0342-.0443,3.0356a3.1144,3.1144,0,0,1-.1995.9911c1.6915,4.6015,3.6185,9.1641,4.1842,14.0662a2.5,2.5,0,1,1-4.9694.5521c-.52-4.9077-2.4759-9.4769-4.1893-14.0936.0963,1.9029.1728,3.8344.174,5.8176a2.571,2.571,0,0,1-4.0886,2.0046c2.3385,6.257,5.0712,12.4539,5.0886,18.9954a2.5,2.5,0,1,1-5,0c.0207-6.7944-3.1264-11.6582-5.1939-17.8434a56.6044,56.6044,0,0,1-2.8013-14.0013,24.3586,24.3586,0,0,1,.0573-3.6488,2.8989,2.8989,0,0,1-.7288-1.84c0-8.4093-2.6281-16.2105-2.9969-24.5421-.1609-3.6353-1.3768-6.97.2272-10.506,2.0392-4.4947,6.9844-6.5088,9.483-10.61l.2173-.46a2.5,2.5,0,1,1,4.4721,2.2361l-.4494.8736c-2.4358,3.8214-7.211,6.0315-9.1837,10.0564-1.1562,2.3593.1232,5.7215.2272,8.1607.0407.9526.1107,1.8985.203,2.8394a78.3518,78.3518,0,0,1,.4861-9.6916l2.814-2.19a2.5708,2.5708,0,0,1,2.0019,4.092,104.3145,104.3145,0,0,0-.2544,12.5614,108.5764,108.5764,0,0,0,3.7713-17.1255c.577-4.6072.3229-7.7815,3.1136-11.8143l1.8676-1.5469a2.4485,2.4485,0,0,1,3.5.5,2.3634,2.3634,0,0,1,.5332,1.8222,2.2652,2.2652,0,0,1,1.6335,2.3444,3.3421,3.3421,0,0,1-.0244.4114,2.3355,2.3355,0,0,1,1.9816-.1164,2.4486,2.4486,0,0,1,1.5812,3.1623l-.3333,1a22.1984,22.1984,0,0,0-1.2051,7.8761,2.4485,2.4485,0,0,1-2.5,2.5,2.9089,2.9089,0,0,1-.9305-.14c-.9291,3.5039-3.9082,6.1419-4.61,9.7528q-.0366.1884-.0629.3784a2.5761,2.5761,0,0,1,2.0284,1.9025c.624,2.53,2.188,4.9367,2.69,7.4371.678,3.3753.2629,7.3745.6984,10.8592l.278,1.0371a2.4484,2.4484,0,0,1-1.819,3.0317Zm-3.3125-41.3263q.0315.0282.0632.058c.0644-.9615.102-1.9242.1223-2.8671-.0861.8929-.1159,1.8172-.1855,2.8091Zm-9.4574,38.0255a37.4756,37.4756,0,0,1,.5871-8.04,26.5447,26.5447,0,0,0-1.6225,5.3159c-.9693,5.4674.2622,10.6428,2.0293,15.7426C79.8984,200.7448,79.1887,196.4759,78.9558,192.1083Z" fill="#5b5ca9"/></svg>