<svg id="5fee26de-4c1d-41b9-9633-cdf9805af19f" data-name="Layer 1" xmlns="http://www.w3.org/2000/svg" viewBox="0 0 290 357.9"><title>baby</title><path d="M106.7412,101.9776a2.32,2.32,0,0,1-2.1245,1.7342c-1.1292.1178-1.88-1.2838-2.8923-1.7986-.7908-.4023-1.7784-.2625-2.586-.63-2.0668-.94-2.5135-3.6679-3.9705-4.8464-.422-.3414-1.2307-.0907-1.5364-.5391-.398-.5837-.1765-1.4018-.2648-2.1026.0074-2.4852-.2337-6.23.3668-8.6206A20.487,20.487,0,0,1,95.521,81.86c4.3487-7.7837,13.7514-6.3026,19.8458-1.7318,2.6435,1.99,5.6909,6.966,2.4672,10.2172-1.2113,1.2216-4.1635.8829-5.68,1.5781-.7463.3422-1.0468,1.2669-1.5232,1.9356-1.4113,1.9811-3.1795,4.3671-3.0974,6.9358a1.2779,1.2779,0,0,1-.7921,1.1824Z" fill="#010101"/><path d="M166.0147,88.6182l-.2773.1468c-.0133-2.2-4.742,1.1206-5.0373-3.3032-.1569-2.3486,3.7073-4.2394,5.26-5.3966,4.0281-2.0071,8.2844-1.8248,12.3961-.4524,2.3.7677,4.1464.6743,5.872,2.6967,3.2184,3.7718,3.8667,9.7272,2.9419,14.4265-.3682,1.4743-.6054,3.4977-1.5093,4.7472-1.9053,2.6337-4.72,1.1786-6.7936-.3547-4.4279-3.2734-7-9.0572-12.1423-11.5487a1.3614,1.3614,0,0,1-.71-.9616Z" fill="#010101"/><path d="M182.6787,146.6477a1.2244,1.2244,0,0,1-1.5812-.7906l-.3732-1.15c-.123-.6261-.2232-1.26-.2859-1.8958l-.0717-.016q.0024-.3789.0149-.7589-.0135-.2871-.0149-.5744a1.5238,1.5238,0,0,1,.0641-.3895,18.3355,18.3355,0,0,1,2.6636-8.7462c3.3859.4387,4.6525,2.54,7.6227,3.63,1.5223.5587,2.0937.0965,3.2743,1.8142,2,2.91-1.3855,5.6217-3.097,7.5105-.4792.5288-.7569,1.2941-1.3853,1.6323-1.6.8611-4.6278.1654-6.6349-.3441a1.679,1.679,0,0,1-.1955.0786Z" fill="#989898"/><path d="M107.2894,138.7208a1.5261,1.5261,0,0,1,.4879.61,10.2929,10.2929,0,0,0,2.39,3.9137c.4657.4625,2.2965,2.2286,2.35,2.6837.2863,2.4383-2.1356,3.0446-3.4329,4.16-1.6951,1.4572-4.9748,5.1721-7.7914,3.437-2.0438-1.2591-2.61-5.81-3.5594-7.7762-.0213-1.2974-.9089-3.9286-.1021-5.0564.3925-.5486,1.2666-.4669,1.8849-.7365,1.76-.7671,3.4765-1.4132,5.208-2.279l2.2524.7447a1.537,1.537,0,0,1,.3126.299Z" fill="#989898"/><path d="M98.8667,142.1285a14.107,14.107,0,0,0,3.0834,9.25l.25,1.4167a1.225,1.225,0,0,1-1.2041,1.2494l-.4094.2966c-1.482.166-2.12,2.5233-2.9066,3.7778-1.7956,2.8642-3.53,4.9615-4.1984,8.3657-2.6907,6.7266-3.7038,14.9871-4.6242,22.13-.3335,2.5875.3174,4.6064.209,6.8472h.467v1.3334a1.25,1.25,0,0,1-2.38.5348l-.6546-1.3091.0476-.0239-.1019-.1015c-.5454-2.3154-1.4749-3.7727-1.6961-6.0734-.3373,2.07-.2145,4.1829-.427,6.2647q.0954.4477.2027.889l-.3327.1527h.3421v1.6667a1.25,1.25,0,0,1-2.5,0v-1.55c-2.2981-8.95-.6037-20.3182.6846-29.3274,1.4217-7.1185,2.8438-15.0782,7.0862-21.1352,1.8776-2.6806,3.98-6.1072,7.4792-6.2371a1.8678,1.8678,0,0,1,1.5833,1.5833Z" fill="#010101"/><path d="M193.6167,137.2118a1.1848,1.1848,0,0,1,.882.3265,1.548,1.548,0,0,1,.677.1388l.4109.2387c3.7268.9317,6.3891,3.1545,9.5557,5.2675,5.3178,3.5484,9.92,6.6759,13.8282,11.89,6.9354,10.5565,1.3442,24.4148-2.77,35.5173q0,.4351,0,.8713v1.3334a1.25,1.25,0,0,1-2.5,0v-1.3334a138.4553,138.4553,0,0,0-.6573-14.1806,15.914,15.914,0,0,0-1.5236-4.0925,16.0676,16.0676,0,0,1-2.9045,4.2052l.0739.0444-.9882,1.647a1.25,1.25,0,0,1-2.3337-.6235v-1.3333a41.8178,41.8178,0,0,0-.3272-8.21c.0227-2.139-.8675-3.7332-1.5951-5.6895-2.33-6.2648-6.5851-15.2234-14.4943-15.1836a1.2242,1.2242,0,0,1-1.25-1.25q0-.043.0019-.0842a1.3033,1.3033,0,0,1,.4981-1.2492c2.9277-2.1867,2.8659-3.5537,4.2986-6.559l-.132-.441a1.2242,1.2242,0,0,1,1.25-1.25Z" fill="#010101"/><path d="M98.92,151.2491a1.2243,1.2243,0,0,1,.91,1.5159l-.3737,1.4638C96.79,159.6124,92.18,164.5033,92.2,170.7952a1.2242,1.2242,0,0,1-1.25,1.25,1.1269,1.1269,0,0,1-1.0689-.5777c-.3352,3.8967-.3478,7.8352-.3478,11.661a1.25,1.25,0,0,1-2.5,0,114.2571,114.2571,0,0,1,.6783-14.6378c-1.0984,2.854-.845,5.9048-.845,8.9711,0,6.1091.2724,12.1348,2.5773,17.8691a1.25,1.25,0,0,1-2.3212.9285c-2.4092-6.05-2.7561-12.3584-2.7561-18.7976,0-.4693-.0045-.9383-.0088-1.4064q-.1552,2.0035-.1579,4.0731a1.25,1.25,0,0,1-2.5,0c0-12.1483,4.0367-22.4467,8.7526-33.4569L92.19,145.62a1.25,1.25,0,1,1,.8536,2.35l-.2931-.3137a129.5752,129.5752,0,0,0-6.562,17.8538l1.9357.2985a39.0462,39.0462,0,0,1,3.3745-10.5725l2.5694.6667a1.2241,1.2241,0,0,1-.559,1.677,1.4793,1.4793,0,0,1-.4193.1412,36.2745,36.2745,0,0,0-2.3086,7.3684c1.5143-4.109,4.308-7.7343,6.33-11.7279l.293-1.2029a1.2243,1.2243,0,0,1,1.5159-.91Z" fill="#242424"/><path d="M83.8424,183.01a1.2243,1.2243,0,0,1,.559,1.6771l-.2013.1076c0,4.02-.6667,7.9168-.6667,12a1.25,1.25,0,0,1-2.5,0c0-4.0783.6667-7.9912.6667-12l.4653-1.2256A1.2242,1.2242,0,0,1,83.8424,183.01Z" fill="#242424"/><path d="M97.7347,147.57a1.2241,1.2241,0,0,1-.559,1.677l-1.1065.5207c-.8407,1.0817-2.3537,2.0029-2.2025,3.3613a1.25,1.25,0,0,1-2.5,0c.1323-2.5194,1.5605-3.3887,3.1308-5.3054l1.56-.8127a1.2242,1.2242,0,0,1,1.677.5591Z" fill="#242424"/><path d="M210.2834,166.7118a1.4366,1.4366,0,0,1-.4869-.0776c.2128,1.2631.4369,2.5643.7126,3.9158l.3552,1.9895-.7284,2.3176a1.25,1.25,0,1,1-2.3717-.7906l.605-1.6824-.3115-1.3438c-1.3147-6.69-1.3085-12.1422-5.45-17.8407-2.176-2.994-4.0057-5.8534-7.991-5.8211a1.25,1.25,0,0,1,0-2.5c4.951.0325,7.3093,3.136,10.009,6.8455a25.6383,25.6383,0,0,1,4.4077,10.6294v-.2249a1.5584,1.5584,0,0,1,.1-.4967q-.0183-.0539-.036-.1081c-.0779-.24-.0641-2.8388-.0641-3.3952v-3l.8766-1.6934a1.25,1.25,0,1,1,2.08,1.3867l-.4567.3067v3c0,2.7771,1.3387,4.6923,2.8347,6.5926.255-5.0681.2282-10.3451-2.1566-14.2828a1.25,1.25,0,0,1,2.1437-1.2863c3.1381,5.273,2.62,12.2805,2.3114,18.6454a11.7517,11.7517,0,0,1,1.1324,2.2587c.6855,1.8742.401,4.1311.401,6.0724v11.3333a1.25,1.25,0,0,1-2.5,0V176.1285c0-.7567.067-1.6256.0776-2.4969a1.4311,1.4311,0,0,1-.4942.08,1.2242,1.2242,0,0,1-1.25-1.25v-.3333c0-1.1391.0511-2.3438.1186-3.5881-.7824-1.0765-1.7342-2.0752-2.6186-3.1084v.03a1.2242,1.2242,0,0,1-1.25,1.25Z" fill="#242424"/><path d="M207.1757,150.2465a1.2242,1.2242,0,0,1-1.677-.559l-.3334-.6667c-1.0559-2.1391-3.2587-5.1042-5.8819-4.9757a1.25,1.25,0,1,1,0-2.5c3.7353.1079,6.5179,3.1916,8.118,6.3577l.3333.6667A1.2241,1.2241,0,0,1,207.1757,150.2465Z" fill="#242424"/><path d="M219.3716,175.0209a1.2242,1.2242,0,0,1-.9806-1.4709l.3151-1.5447c-.0221-4.4032-.006-8.8069-.006-13.21a1.25,1.25,0,0,1,2.5,0c0,4.4855.0126,8.9712-.0061,13.4566l-.3516,1.7886a1.2242,1.2242,0,0,1-1.4708.9806Z" fill="#242424"/><path d="M96.6167,80.5451a1.2242,1.2242,0,0,1,1.25,1.25l-.0373.6365c-.4467,1.75-1.5388,3.33-1.3054,5.2108.1949,1.5705,1.22,2.277,1.8881,3.6155q.1335.2678.2526.5394a32.3112,32.3112,0,0,1,1.4185-6.685c.7143-2.3656,2.5747-5.3569.3163-7.4333l-.5675-.9915a1.25,1.25,0,1,1,2.2361-1.118l.0992.3418c4.4166,4.6519-.9751,10.8561-.9672,16.2172.0044,3.0049.7957,4.17,1.589,6.9.073.2513-.2917.6432-.07.7818a.8276.8276,0,0,0,.3486.12c-.59-2.37-1.78-4.7294-.97-7.1967.7082-2.1592,2.9258-3.9553,3.636-6.2252.501-1.6015-.4484-3.2125-.9558-4.6125a12.3921,12.3921,0,0,1-.411-4.4337l.4653-1.2257a1.25,1.25,0,1,1,2.2361,1.1181l-.2014.1076c0,3.1712,2.2056,6.5061,1.3,9.6205-.694,2.3866-2.9465,4.2457-3.6974,6.4415a5.0918,5.0918,0,0,0-.08,2.6,13.3957,13.3957,0,0,1,2.2611-4.4542c1.2108-1.5843,3.995-3.4357,4.4168-5.4947.498-2.4306-.54-4.5266-1.0091-6.801l-.481-.5518a1.25,1.25,0,1,1,2.08-1.3867l.8523,1.4482c.5016,2.6055,1.6417,5.0764.9909,7.8657-.6042,2.5893-3.3458,4.5281-4.9166,6.5053-2.0247,2.5484-2.3833,5.4017-2.3833,8.5408a1.3569,1.3569,0,0,1-.5538,1.0718,1.1339,1.1339,0,0,1-1.03.5116,1.2242,1.2242,0,0,1-1.25-1.25q0-.0435,0-.087a6.3346,6.3346,0,0,1-2.1863-.2611,1.6574,1.6574,0,0,1-.5092-.5656,1.4893,1.4893,0,0,1-.2721-.2025c-2.5141-2.5533-2.71-5.6165-4.2448-8.68-.79-1.5763-1.8737-2.4879-2.1119-4.3844-.2884-2.2962.8481-4.0162,1.3613-6.1226l-.0374-.03a1.2242,1.2242,0,0,1,1.25-1.25Z" fill="#242424"/><path d="M185.3728,88.9183c-.5066-2.4854-1.02-2.4315-2.4368-4.3923-.8-1.1067-1.2144-2.1945-2.3835-3.05-2.9633-2.1688-8.248-.5153-12.2578.7359h5.9887c2.1008,0,4.3788-.1623,6.1342,1.29,2.5733,2.1294,3.614,4.8671,4.8373,7.6543A9.6814,9.6814,0,0,0,185.3728,88.9183Zm-21.3021-6.82a1.2241,1.2241,0,0,1,.91-1.5158c4.9785-1.2447,12.3358-4.4348,17.0341-1.1347,1.3914.9773,2.0283,2.3087,2.95,3.6165,1.5381,2.1825,2.3438,2.7986,2.8965,5.6077a8.8238,8.8238,0,0,1-.7382,4.5568l-.293,1.2028a1.4958,1.4958,0,0,1-.1354.3251q.172.4137.3741.8128l.132.8923a1.25,1.25,0,1,1-2.5,0l.1319.2257a14.0093,14.0093,0,0,1-1.0543-2.792c-1.5549-3.11-2.207-5.9852-4.9619-8.474-1.135-1.0254-3.1728-.71-4.5324-.71h-.8785c4.1273,3.031,6.8384,7.9186,9.7624,11.8661l1.1994.8839.4673.45a1.25,1.25,0,1,1-1.7678,1.7677l-.2-.2172L181.4,98.3457c-1.719-2.2665-3.3323-4.9427-5.2147-7.3506a6.2594,6.2594,0,0,0,.271,1.033,22.4045,22.4045,0,0,0,4.8918,7.0863l1.1615.5627a1.25,1.25,0,1,1-1.1181,2.2361l-1.5052-.7707a25.4665,25.4665,0,0,1-5.7748-8.247c-.3882-1.0365-.3181-3.7757-1.4435-4.3459-1.5394-.78-4.6417-.5244-6.3007-.863-1.7755-.3624-3.3585-1.5427-5.1136-1.0121a1.2242,1.2242,0,0,1-1.5158-.9095,1.177,1.177,0,0,1,.1162-.9565,1.1374,1.1374,0,0,1-.4869-1.0134,1.2242,1.2242,0,0,1,1.25-1.25q.3873,0,.7932-.0119a1.4735,1.4735,0,0,1,.8735-.3214h1.82q-.0177-.0544-.0324-.1135Zm2.796,3.1388a32.03,32.03,0,0,0,3.1885.3412,10.4383,10.4383,0,0,0-4.739-.7473,15.8473,15.8473,0,0,0,1.55.4061Z" fill="#242424"/></svg>