<svg id="c8acf5b7-b4ed-4312-8ba9-e9c91a0793b6" data-name="Layer 1" xmlns="http://www.w3.org/2000/svg" viewBox="0 0 290 357.9"><title>baby</title><path d="M107.0212,98.5523l-.002,0a8.9052,8.9052,0,0,1-2.8486-2.4316c-.27-.3607-2.1593-2.85-2.2494-3.1062-.4353-1.2369.1506-2.4238.2859-3.6139.3074-2.7045-.5924-5.8709.844-8.4032a12.6319,12.6319,0,0,1,8.5016-5.44c3.6366-.4217,6.3116,1.8557,8.9444,3.8953,2.7406.6467,6.164,3,4.7449,6.4221-.7139,1.7212-2.8559,2.3327-4.2073,3.2871-.7946.5613-1.26,1.5149-2.0636,2.0637-1.7832,1.2181-4.1347.1114-5.5558,1.4674-1.2366,1.18-4.0294,4.1168-3.8992,5.773a1.2242,1.2242,0,0,1-1.25,1.25,1.194,1.194,0,0,1-1.2448-1.1636Z" fill="#010101"/><path d="M163.0776,88.1666l-1.72-1.3945c.0239-3.9123.9086-8.4593,4.84-10.415,6.6318-3.2991,15.3708,2.9654,16.911,9.23a40.1937,40.1937,0,0,1-.344,4.7767,7.84,7.84,0,0,1-1.1544,3.1577,19.1694,19.1694,0,0,1-1.8366,3.2558c-1.511.9323-4.0837-.2757-5.3859-.9994a51.59,51.59,0,0,1-5.6514-3.879c-1.5372-1.1516-2.406-2.563-4.4091-2.5015a1.2244,1.2244,0,0,1-1.25-1.2312Z" fill="#010101"/><path d="M103.2679,135.9138a1.3622,1.3622,0,0,1,.331-.4989,1.2243,1.2243,0,0,1,1.7678,0c2.45,2.45,3.8777,5.2414,5.6824,8.1372.45.7225,1.7316,3.4383,1.3757,4.0658-.5977,1.0541-4,.49-5.0673.5868-1.0343.094-1.8271,1.0244-2.8233,1.3177-3.9344,1.1581-5.0421-3.2455-6.3062-5.7434-.3738-.623-2.09-3.2291-1.84-3.9841.3063-.9255,1.3367-1.4721,2.1971-1.9305.4366-.2326,1.0014.0789,1.4838-.0307a11.615,11.615,0,0,0,3.2-1.92Z" fill="#4f4f4f"/><path d="M96.6942,139.1588a1.1243,1.1243,0,0,1,.56-1.1486,1.2243,1.2243,0,0,1,1.7335.3467l.5317.8413c2.4129,2.46,3.6156,7.33,2.3289,10.6619-.6133,1.5882-2.3407,2.6081-3.2011,3.98-1.6931,2.6992-2.2285,6.2034-3.6628,9.0548a129.4515,129.4515,0,0,0-4.0506,22.0519c-.3493,3.4315.026,6.8242-.1582,10.2387l.13-.0326.3372,1.3486a1.25,1.25,0,0,1-2.336.8651l-.6758-1.3515.0529-.0265-.1072-.0988c-.54-2.1329-1.1145-4.1584-1.5511-6.2463a35.7766,35.7766,0,0,0-.5038,9.4727c.3171,2.9738,1.6138,6.1337,2.2157,9.1131.1866.9237.76,1.8588.54,2.7752a3.2458,3.2458,0,0,1-.0926.3138l.03.01-.6788,2.0363a1.25,1.25,0,0,1-2.414-.09l-.3376-1.35a66.2094,66.2094,0,0,0-3.023-8.7334c-1.0868-2.17-2.5609-4.8027-2.8518-7.2381-.6586-5.5134.5778-10.9733,1.0256-16.4062a88.3584,88.3584,0,0,1,2.07-14.5094,26.86,26.86,0,0,1,1.7879-9.9112c1.9809-5.4415,2.4589-11.5679,7.66-15.3668,1.7924-1.3091,2.9212-.7139,4.64-.6Z" fill="#010101"/><path d="M95.1859,145.2011a1.1243,1.1243,0,0,1-.672,1.1161,60.9462,60.9462,0,0,0-2.6465,18.0579,1.2242,1.2242,0,0,1-1.25,1.25,1.1313,1.1313,0,0,1-1.0431-.5332c-.6278,3.2878-1.3167,6.5564-2.1411,9.76l.0094,1.3222-1.6187,1.25a1.2242,1.2242,0,0,1-1.25-1.25q0-.0544.0031-.1059c-1.4335,5.96-3.6519,11.8776-4.8838,17.9282-.0033,1.5015-.3733,2.8065-.3627,4.3016v1.1061a1.25,1.25,0,0,1-2.5,0v-1.1061c.0092-1.5865.3784-2.9678.3748-4.548,1.2869-6.5374,3.7675-12.9042,5.19-19.338.3838-1.7362.3226-3.74.7276-5.4851.7745-3.3364,1.8281-6.5637,1.82-10.0831a1.25,1.25,0,0,1,2.5,0c-.0074,3.6843-1.051,7.0717-1.8672,10.5659-.4131,1.7685-.352,3.8064-.7474,5.5767q-.0679.3043-.1389.6084a1.0348,1.0348,0,0,1,.2588-.3471l.0041-.7012c1.985-8.1334,3.29-16.5273,4.8046-24.7775.3251-1.77,1.1238-6.2338,2.6831-7.4052a6.3819,6.3819,0,0,1,2.3573-.6011,1.25,1.25,0,1,1,.49,2.4514,2.0174,2.0174,0,0,0-.4383.0944,1.18,1.18,0,0,1,.337.8923Z" fill="#242424"/><path d="M84.2834,211.679a1.2241,1.2241,0,0,1-1.5158-.91l-.3949-1.6111c-.1524-5.6474-1.1174-11.07-1.1174-16.76a1.25,1.25,0,0,1,2.5,0c0,5.57.992,10.9,1.095,16.4258l.3426,1.3388A1.2241,1.2241,0,0,1,84.2834,211.679Z" fill="#242424"/><path d="M100.8777,146.7919a30.8791,30.8791,0,0,0-2.7754,10.8645c-1.2964,2.5928-1.7874,5.5585-3.0261,8.3369-.8263,1.8534-2.2687,3.4871-2.9078,5.4246a51.1716,51.1716,0,0,0-2.5134,16.9246,1.25,1.25,0,0,1-2.5,0c0-1.2669.0259-2.501.0838-3.7132a1.13,1.13,0,0,1-1.0462.5385,1.2242,1.2242,0,0,1-1.25-1.25v-5.1623a1.25,1.25,0,0,1,2.5,0v2.998a48.8256,48.8256,0,0,1,2.3612-11.147c.6816-2.0267,2.1341-3.7006,2.9918-5.6373,1.1754-2.6537,1.6447-5.4295,2.8736-7.8872-.0269-3.5282,1.9721-10.01,3.8638-12.943l2.29,1.4308a1.2474,1.2474,0,0,1-.9454,1.2221Z" fill="#242424"/><path d="M93.9478,138.7424a1.2242,1.2242,0,0,1-.559,1.677l-.32.0316c-2.9271,3.6529-3.7822,6.2619-3.7822,11.0185a1.25,1.25,0,0,1-2.5,0c0-3.2019.1378-6.5327,1.6229-9.4394.6289-1.2308,1.8446-2.0608,2.7071-3.1408l1.1545-.7059A1.2242,1.2242,0,0,1,93.9478,138.7424Z" fill="#242424"/><path d="M112.3843,75.3207a1.2243,1.2243,0,0,1-.559,1.6771l-.0465-.7493c-.0234,4.06-2.2447,4.86-4.2374,7.66a12.6614,12.6614,0,0,0,3.6033-1.9306c1.7677-1.7612,3.4777-5.8156,4.0711-8.2447l1.5553.89.87-.2837c-.0554.2171-.1173.4428-.1854.6755l.2227.1275a1.33,1.33,0,0,1-.6215,1.11,21.9635,21.9635,0,0,1-4.1943,7.5409c-1.9636,1.9683-5.433,2.007-6.3,4.9851a13.1927,13.1927,0,0,0,.5584,5.9565c.3151-3.9055,2.0332-6.8154,6.32-8.2385.6327-.21,3.8709-.0644,4.417-.53.6974-.5948.44-1.78.68-2.6643.5-1.8363,1.0776-2.968,1.0643-4.8414l1.25.3687,1.25-.3687c-.0012.219-.0085.4645-.0223.7308l.0223.0066a1.4609,1.4609,0,0,1-.04.3c-.1769,2.6635-.9463,7.0189-2.64,8.418-1.3559,1.12-3.6071.4209-5.17.9448-3.8494,1.29-4.6866,3.7007-4.6866,7.2984a1.2887,1.2887,0,0,1-.7508,1.168,1.16,1.16,0,0,1-.1966,1,1.2242,1.2242,0,0,1-1.7334.3467,5.93,5.93,0,0,1-1.6527-2.0639,1.1493,1.1493,0,0,1-.9725.43,1.2242,1.2242,0,0,1-1.25-1.25,37.3186,37.3186,0,0,1,1.5122-9.89c.1224-.4914.7517-3.0931.9284-3.3667,1.59-2.4619,3.8519-2.8839,3.8278-6.2858l1.4285-1.4868A1.2242,1.2242,0,0,1,112.3843,75.3207Z" fill="#242424"/><path d="M177.759,80.4369c.3421,2.0017,2.38,3.1745,2.9188,5.0364.5795,2.003.0536,4.9093.0536,6.9993a1.2922,1.2922,0,0,1-.7384,1.1633,1.1126,1.1126,0,0,1-.65,1.0491,1.1243,1.1243,0,0,1,.6506,1.1062,1.2242,1.2242,0,0,1-1.25,1.25c-1.6656,0-3.8425.34-5.4494-.0334a8.7578,8.7578,0,0,1-5.89-5.2941,1.143,1.143,0,0,1-1.1977.9027,1.2242,1.2242,0,0,1-1.25-1.25c0-3.81.3944-5.3453-2.2978-8.057l-.8108-1.2053a1.25,1.25,0,0,1,2.08-1.3867l.6641,1.007a8.9489,8.9489,0,0,1,2.3938,3.6441c.3662-1.1643.8516-1.93.5678-3.3888a16.4077,16.4077,0,0,0-2.756-5.4065l-.2126-.1783a1.25,1.25,0,0,1,1.7678-1.7677l.5249.5592a19.24,19.24,0,0,1,3.1437,6.3929c.8829,4.3264-2.755,7.8346,1.4288,11.424a9.8458,9.8458,0,0,0,2.418,1.5714c.1727.0357.3519.0625.5361.082-2.2363-1.0523-1.7046-3.1759-1.7046-5.1339,0-3.7325.9261-9.1556-2.7619-11.4968l-.7934-1.2185a1.25,1.25,0,0,1,2.2361-1.118l-.056.2564c3.4188,2.3561,3.8752,6.0053,3.8752,9.89,0,1.7114.0659,3.4507,0,5.1622-.011.2872-.3938,1.3137.3346,1.4263a12.6928,12.6928,0,0,0,2.6972-.0782c.0233-1.8316.5279-4.448.0528-6.1481-.29-1.0371-1.6418-2.1141-2.1223-3.0988-1.0318-2.1147-.8812-3.8439-.8812-6.1129V75.5111a1.25,1.25,0,0,1,2.5,0V76.986a20.5315,20.5315,0,0,0-.0226,3.4509Z" fill="#242424"/></svg>