<svg id="bed3d71d-f100-41ad-bf95-f0552af9b9a9" data-name="Layer 1" xmlns="http://www.w3.org/2000/svg" viewBox="0 0 290 357.9"><title>baby</title><path d="M186.82,110.6608a2.2488,2.2488,0,0,1-2.2434,1.3692,2.4485,2.4485,0,0,1-2.5-2.5,36.8791,36.8791,0,0,0-.9-9.3011c-.1483-.6383.1237-1.4975-.3675-1.9312-.6563-.5793-1.796-.1908-2.5466-.6411-2.353-1.4119-3.67-4.6467-6-6-.9114-.5295-2.1186-.4219-3-1-3.282-2.1527-5.4524-7.215-3.9953-11.0834.4452-1.1822,1.6641-1.9025,2.5419-2.811a13.24,13.24,0,0,1,2.4534-2.3589c3.8931-2.3473,8.4485-1.8335,12.5238-3.2451,2.5562-.8263,4.6836-1.92,7.515-1.021,3.6366,1.1542,3.4113,2.5,5.8605,4.4594,3.4337,2.7469,5.9833,3.7427,6.8828,8.5329.8048,4.2864-.2933,8.7114-1,12.8009-.3673,2.125.9421,5.6067-.7,7.3673-1.0056,1.0782-2.93.37-4.3673.7-.8973.2062-1.7234.6552-2.61.904-.6615.1856-1.5617-.1133-2.0228.396-.5874.6489-.0406,1.91-.6411,2.5466-1.29,1.3681-3.134,2.0792-4.701,3.1188l-.1822-.3024Z" fill="#f7ed51"/><path d="M201.6107,87.188a42.142,42.142,0,0,1-1.4052,5.881,46.0965,46.0965,0,0,1-.3586,7.1717c-.2035,1.3566.3044,2.5971-.4649,3.8886-.735,1.2338-2.3242,1.7466-3.4888,2.4059-3.1954,1.8087-4.8648,1.8936-8.5794,1.8942q-.0109.5259-.0118,1.0429a.75.75,0,0,1-1.5,0q0-.1908.0019-.3831a.71.71,0,0,1-.5648.0189.7345.7345,0,0,1-.4743-.9487c.2484-.7441.5038-1.4972.7587-2.2579a.82.82,0,0,1-.0009-.709q.196-.3918.4063-.7886a15.9188,15.9188,0,0,0-1.4755-7.8512c-1.3092-2.426-4.281-4.8656-6.0634-7.1156-1.6956-3.3724-4.2682-7.0011-5.44-10.5162l-.3364-.6688a.75.75,0,0,1,1.3416-.6708l.3807.7656c1.1461,3.4385,3.6717,6.9686,5.3176,10.2818,1.8564,2.293,4.7231,4.7353,6.1286,7.2279a12.5846,12.5846,0,0,1,1.44,4.5444,28.427,28.427,0,0,0,1.0954-10.56c-.1629-1.4129-1.2724-2.6879-1.7414-4.1074-1.8513-3.6906-6.318-8.6237-5.4159-13.01.27-1.3126,1.4309-1.6648,1.8521-2.6733l1.56.1637a.7346.7346,0,0,1,0,1.0607.6758.6758,0,0,1-.7939.1742,3.1721,3.1721,0,0,0-1.1581,1.6193c-.7441,3.8817,3.6985,8.7946,5.3418,12.0912.4014,1.195,1.0831,2.1749,1.5115,3.2819-.0446-1.1348-.0857-2.2589-.0857-3.3535,0-2.38.4873-5.3824.02-7.7166-.5377-2.6856-1.2518-5.1326-.34-7.94l-.0385-.1214a.75.75,0,0,1,1.5,0l-.0385.5958c-.86,2.5-.0985,4.7413.377,7.1208.4929,2.4663.02,5.552.02,8.0612,0,3.641.4362,7.5934-.0057,11.2079-.3523,2.8823-1.9172,5.5964-3.3019,8.19q-.0831.2538-.167.5063-.0045.2224-.01.4447c1.6711-1.174,4.36-1.93,5.7578-3.2735.7861-.7551.6782-2.6987.9112-3.6309.7634-3.0537.3122-6.32-.299-9.3751-.9553-4.0128-1.1395-9.6616.7143-13.3694l1.0294-.4145a.7345.7345,0,0,1,.75.75.7.7,0,0,1-.626.7371c-1.4935,3.4036-1.2639,8.4434-.4029,11.9741a31.5024,31.5024,0,0,1-.0524,11.4057c-.1451,1.0184-.0887,2.08-.8985,2.914a14.755,14.755,0,0,1-4.5791,3.0661c-.6868.3023-1.4755.204-1.9141.7085,3.172-.0034,4.5056-.0777,7.3466-1.6915.8877-.5043,2.3872-.9445,2.9657-1.8971.5981-.9848.0994-2.2191.2522-3.2832a50.94,50.94,0,0,0,.3586-7.1718c.47-1.88,1.4483-4.4312,1.4288-6.3629l1.1085-.75a.7345.7345,0,0,1,.75.75.6746.6746,0,0,1-.3934.6652Z" fill="#d6d63c"/><path d="M99.1269,134.242a2.374,2.374,0,0,1,1.6386-2.9375,2.4485,2.4485,0,0,1,3.1623,1.5811c.5109,1.6759,1.8675,2.9656,2.7549,4.4763,1.0679,1.8177.9329,4.1818,2,6,1.8605,3.17,5.5566,3.4121.3351,8.3424-1.12,1.0572-5.4022.2041-7.0613.44-1.35.1916-2.6639,1.34-3.9748.9654-3.6-1.03-4.0648-5.3225-6.1934-7.6654-.9324-1.0262-2.504-1.8163-2.6654-3.1933a7.468,7.468,0,0,1,1.6654-5.3422c.9013-1.1095,2.6155-1.1689,3.9772-1.6039,1.4252-.4554,2.9275-1.4876,4.3614-1.0625Z" fill="#ceebed"/><path d="M86.5467,140.1762a3.43,3.43,0,0,1,.2416-.2678,2.4484,2.4484,0,0,1,3.5355,0c2.2943,2.2943,5.6051,4.83,6.625,8.0433.7973,2.5123-.1335,5.4093-1.083,7.6812-.9989,2.39-1.9076,4.8237-3.0639,7.1417-1.3959,2.7979-3.2382,5.0757-3.7781,8.302-.4874,2.9129.0323,6.6752.0323,9.6v16a37.3364,37.3364,0,0,0,1.9677,11.6l-.106.4h.1383v3a2.5,2.5,0,0,1-4.2678,1.7678l-1.8567-1.8568a15.7,15.7,0,0,1-3.1433-2.1432,12.94,12.94,0,0,1-2.848-4.89c-.4487,2.209-1.796,5.1391-.9915,7.3979.3595,1.0093,1.3724,1.6686,1.8531,2.6261.09.18,2.0022,5.9367,2.1259,6.3078l.9815,2.9447a2.5007,2.5007,0,0,1-3.7684,2.9071l-2.9716-1.9811.08-.1194a6.8753,6.8753,0,0,1-.68-.4432c-.91-.6754-.5585-2.23-1.14-3.2032-.5494-.9194-1.7888-1.3617-2.183-2.3576-.4368-1.1033.0433-2.3869-.1581-3.5562-.3578-2.0776-1.6544-3.92-2-6-.5411-3.2568.477-6.7471,0-10-.1529-1.043-.8321-1.9594-1-3-.4714-2.9232.5015-6.0983,0-9-.18-1.0387-.8321-1.9594-1-3-1.0387-6.4408-.0322-13.8888-.0322-20.4.0329-3.4666.72-8.11,2.3244-11.2317,1.2612-2.4542,4.5247-4.1955,6.2422-6.3533,1.503-1.8882,2.5048-4.6855,4.9766-5.7247,1.2173-.5118,2.6379-.1269,3.9568-.19Z" fill="#f7ed51"/><path d="M88.8291,194.0182a2.4271,2.4271,0,0,1-1.7287-.1276c-.0256,1.0208-.0443,2.0341-.0443,3.0356a3.1144,3.1144,0,0,1-.2.9911c1.6915,4.6014,3.6185,9.1641,4.1842,14.0661a2.5,2.5,0,0,1-4.9694.5522c-.52-4.9077-2.4759-9.4769-4.1892-14.0936.0962,1.9028.1727,3.8343.1739,5.8175a2.571,2.571,0,0,1-4.0886,2.0046c2.3385,6.257,5.0712,12.4539,5.0886,18.9954a2.5,2.5,0,0,1-5,0c.0207-6.7944-3.1264-11.6581-5.1939-17.8434a56.6046,56.6046,0,0,1-2.8013-14.0012,24.36,24.36,0,0,1,.0573-3.6489,2.8987,2.8987,0,0,1-.7288-1.84c0-8.4094-2.6281-16.21-2.9969-24.5421-.1609-3.6353-1.3768-6.97.2272-10.506,2.0392-4.4947,6.9844-6.5089,9.483-10.61l.2173-.46a2.5,2.5,0,1,1,4.4721,2.236l-.4494.8737c-2.4358,3.8213-7.211,6.0315-9.1837,10.0564-1.1562,2.3592.1232,5.7215.2272,8.1607.0407.9526.1107,1.8985.203,2.8393a78.3512,78.3512,0,0,1,.4861-9.6915l2.814-2.19a2.5708,2.5708,0,0,1,2.0019,4.092,104.3145,104.3145,0,0,0-.2544,12.5614,108.5752,108.5752,0,0,0,3.7713-17.1256c.577-4.6071.3229-7.7814,3.1136-11.8143l1.8676-1.5469a2.4485,2.4485,0,0,1,3.5.5,2.363,2.363,0,0,1,.5332,1.8222,2.2653,2.2653,0,0,1,1.6335,2.3445,3.34,3.34,0,0,1-.0244.4113,2.3359,2.3359,0,0,1,1.9816-.1163,2.4484,2.4484,0,0,1,1.5812,3.1622l-.3333,1A22.1987,22.1987,0,0,0,93.056,157.26a2.4485,2.4485,0,0,1-2.5,2.5,2.9061,2.9061,0,0,1-.93-.14c-.9291,3.5039-3.9082,6.142-4.61,9.7529q-.0366.1884-.0629.3784a2.5761,2.5761,0,0,1,2.0284,1.9025c.624,2.53,2.188,4.9367,2.69,7.437.678,3.3754.2629,7.3746.6985,10.8593l.2779,1.037a2.4484,2.4484,0,0,1-1.819,3.0317Zm-3.3125-41.3264q.0315.0283.0632.0581c.0644-.9615.102-1.9242.1223-2.8671-.0861.8928-.1159,1.8171-.1855,2.809Zm-9.4574,38.0256a37.4766,37.4766,0,0,1,.5871-8.04,26.5486,26.5486,0,0,0-1.6225,5.3159c-.9693,5.4675.2622,10.6428,2.0293,15.7427C77.0018,199.3539,76.2921,195.0849,76.0592,190.7174Z" fill="#d6d63c"/><path d="M183.926,138.4677a22.918,22.918,0,0,1-.904,2.61c-.1531.3284-.9562.5755-.7.8318s.5546-.4667.8318-.7c.4575.002,1.1735.4179,1.3723.0059.288-.5967-.293-1.2924-.44-1.9386l.2569-.3365-.1608-.0536.8717-2.6152v-.4969a16.0432,16.0432,0,0,0-1.1283,2.6932Zm3.8058-5.2844a2.487,2.487,0,0,1,.6476.1332l.2416-.2416A2.734,2.734,0,0,0,187.7318,133.1833Zm-1.57,12.2755c.3651.2865.729.5753,1.1172.8256.25.161.6524.6142.8138.3646.28-.4328.0377-1.02.0617-1.5443a2.524,2.524,0,0,1-1.0388.034,9.6746,9.6746,0,0,1-.9539.32Zm-8.2682-4.2692a28.312,28.312,0,0,1,1.2892-4.3031c.9892-2.9213,3.1658-7.2953,6.415-8.5191,3.5385-1.3328,9.7935.5965,11.2664,4.353a7.8073,7.8073,0,0,1,.0831,4.6812c-.3309,1.2913-1.5527,2.1806-2.147,3.3739-1.16,2.3295-1.5733,8.496-3.784,9.93-4.0024,2.5957-5.6575-.3492-8.56-1.7823a57.04,57.04,0,0,1-6.2884-3.1657,2.4485,2.4485,0,0,1-.6934-3.4669,2.25,2.25,0,0,1,2.4192-1.1007Z" fill="#ceebed"/><path d="M188.0281,151.0632a2.888,2.888,0,0,1-2.502-.9243c-1.0068-1.4489.3092-3.5225.6565-5.2524.087-.4338,2.1933-6.4356,2.245-6.5237.4776-.8129,1.515-1.1916,2-2,.5424-.9039.438-2.1083,1-3,1.065-1.69,5.0655-4.8666,6.7948-5.1636a43.9723,43.9723,0,0,1,7.8494,2.4911c1.097.8549,1.5388,2.3224,2.4158,3.4018.6636.8167,1.648,1.3706,2.1933,2.2707s.462,2.0935,1,3c1.4727,2.4814,4.4942,4.5145,6,7,.5462.9015.47,2.0885,1,3,1.3511,2.3258,4.568,3.6657,6,6a15.98,15.98,0,0,1,1.1192,3.2159,44.1294,44.1294,0,0,1,6.2219,15.6979c1.01,6.0805.0323,13.2339.0323,19.4,0,3.0071,1.3349,11.4061-5.0744,10.4331-1.7632-.2677-1.9878-2.954-2.7665-4.5794-.0473.5257-.11,1.0422-.1914,1.5468-.1678,1.0406-.8267,1.96-1,3-.35,2.0979-.0773,4.4079-1.0638,6.2915l-.9658,3.8636a2.5,2.5,0,0,1-4.9381-.5556v-9c0-1.8087.5857-3.693.0669-5.4256-1.0471-3.4968-3.4382-7.2522-4.8766-10.6177-1.443-3.3764-1.9053-7.393-3.7774-10.58-.49-.8335-1.543-1.2323-2.04-2.0619-.5829-.9739-.62-2.1966-1.1192-3.2159-.9033-1.844-2.8245-3.0232-3.8808-4.7841-1.3177-2.1965-1.7694-4.8329-3.0356-7.0595a24.5381,24.5381,0,0,0-8.2245-8.1747,2.8716,2.8716,0,0,1-1.1394-1.694Z" fill="#f7ed51"/><path d="M198.1675,128.5136a2.4486,2.4486,0,0,1,3.4669.6934l.8537,1.4662c4.482,3.7422,8.7034,8.0285,12.8339,12.1528a2.4484,2.4484,0,0,1,0,3.5355,2.417,2.417,0,0,1-3.4864.0458c.2264.3382.463.6768.7146,1.0143a31.6506,31.6506,0,0,0,7.6438,7.0406c2.47,1.5026,5.476,2.5221,7.515,4.7525,2.5,2.7349,3.2453,5.9293,3.6633,9.4364l.0153.9427a2.5,2.5,0,0,1-5,0l.0153-.3906c-.4613-4.5764-2.4241-6.4758-5.3546-8.3581,4.322,6.7818,7.1125,14.8685,8.9313,22.1424l-.3333,2.546a2.5,2.5,0,1,1-4.8507-1.2127l.3333-.1207a72.7131,72.7131,0,0,0-5.8107-15.1549c-4.1024-8.2063-7.9984-15.1654-17.57-17.6632-4.3108-1.1249-10.358.0451-14.8606.0451a2.5,2.5,0,0,1,0-5c4.8706,0,11.0919-1.1279,15.8061.0451a25.9955,25.9955,0,0,1,4.2637,1.4622,12.8519,12.8519,0,0,0-4.0192-4.8615c-1.9533-1.2737-5.26-.6458-7.3839-.6458a2.5,2.5,0,0,1,0-5c2.5088,0,5.0167-.2872,7.3982.302-1.2035-1.1053-2.424-2.1825-3.6654-3.2148l-1.813-2.5337a2.4485,2.4485,0,0,1,.6934-3.4669Z" fill="#d6d63c"/><path d="M215.7,171.8655a2.4486,2.4486,0,0,1-3.1623-1.5812l.2627-.0465c-1.9157-1.9278-4.145-3.3353-6.1342-5.1449,1.49,2.5812,3.1137,5.0887,4.47,7.7424,1.8352,3.592,2.79,7.7282,4.3829,11.44l.4071,1.1943a2.5,2.5,0,0,1-4.7434,1.5811l-.26-.8058c-1.5582-3.6395-2.4812-7.7263-4.2909-11.2381-1.5046-2.92-3.3346-5.6612-4.93-8.5326a2.4485,2.4485,0,0,1,.9713-3.4,2.4241,2.4241,0,0,1,1.711-.3229c-1.8168-2.0023-2.4691-2.7449-6.5364-2.7013a2.5,2.5,0,0,1,0-5c3.1716.0268,4.9729-.3673,7.8927,1.4588.7443.4654,2.9824,3.6012,3.7829,4.4041,2.125,2.1315,4.6659,3.6539,6.8123,5.7886l.9452,2.0009a2.4486,2.4486,0,0,1-1.5812,3.1623Z" fill="#d6d63c"/><path d="M219.4531,217.6949a2.3942,2.3942,0,0,1-.1-3.4239c2.9979-9.7578-1.1986-19.2239-2.2867-29.0975a63.1567,63.1567,0,0,1-.0122-6.9131,2.5,2.5,0,0,1,5,0c0,12.8218,6.0457,25.5783,1.8717,38.1239l-.9372,1.3106A2.4485,2.4485,0,0,1,219.4531,217.6949Z" fill="#d6d63c"/><path d="M228.5543,195.0938a2.4485,2.4485,0,0,1,2.5,2.5v3.3333a2.5,2.5,0,0,1-5,0v-3.3333A2.4485,2.4485,0,0,1,228.5543,195.0938Z" fill="#d6d63c"/></svg>