<svg id="f386f476-cbc4-4bc9-bdbb-1d61add8b7e5" data-name="Layer 1" xmlns="http://www.w3.org/2000/svg" viewBox="0 0 290 357.9"><title>baby</title><path d="M186.4943,116.3094a2.2487,2.2487,0,0,1-2.2434,1.3692,2.4485,2.4485,0,0,1-2.5-2.5,36.8788,36.8788,0,0,0-.9-9.301c-.1483-.6383.1237-1.4975-.3675-1.9312-.6562-.5793-1.796-.1908-2.5466-.6411-2.353-1.4119-3.67-4.6467-6-6-.9114-.5295-2.1186-.4219-3-1-3.282-2.1527-5.4524-7.2151-3.9953-11.0834.4453-1.1822,1.6641-1.9025,2.5419-2.811a13.24,13.24,0,0,1,2.4534-2.3589c3.8931-2.3473,8.4485-1.8335,12.5238-3.2451,2.5562-.8264,4.6836-1.92,7.515-1.021,3.6367,1.1542,3.4113,2.5,5.8605,4.4594,3.4337,2.7469,5.9833,3.7426,6.8828,8.5329.8048,4.2863-.2933,8.7113-1,12.8009-.3673,2.125.9421,5.6066-.7,7.3673-1.0056,1.0782-2.93.37-4.3673.7-.8973.2063-1.7234.6553-2.61.904-.6615.1857-1.5617-.1133-2.0228.3961-.5874.6489-.0406,1.91-.6411,2.5466-1.29,1.3681-3.134,2.0791-4.701,3.1187l-.1822-.3023Z" fill="#845d27"/><path d="M201.2853,92.8366a42.1434,42.1434,0,0,1-1.4052,5.8811,46.1094,46.1094,0,0,1-.3585,7.1717c-.2036,1.3566.3043,2.5971-.465,3.8885-.735,1.2339-2.3242,1.7467-3.4888,2.4059-3.1954,1.8088-4.8648,1.8936-8.5794,1.8943q-.011.5259-.0118,1.0429a.75.75,0,1,1-1.5,0q0-.1909.0019-.3831a.7105.7105,0,0,1-.5648.0189.7345.7345,0,0,1-.4743-.9487c.2484-.7441.5038-1.4972.7587-2.258a.82.82,0,0,1-.0009-.7089q.196-.3918.4064-.7886a15.92,15.92,0,0,0-1.4756-7.8512c-1.3092-2.4261-4.2809-4.8657-6.0634-7.1156-1.6956-3.3725-4.2682-7.0011-5.44-10.5162l-.3364-.6688A.75.75,0,1,1,173.63,83.23l.3807.7655c1.1462,3.4386,3.6717,6.9687,5.3176,10.2818,1.8564,2.293,4.7231,4.7353,6.1286,7.2279a12.5851,12.5851,0,0,1,1.44,4.5445,28.427,28.427,0,0,0,1.0954-10.56c-.1629-1.4129-1.2724-2.6879-1.7414-4.1074-1.8513-3.6906-6.318-8.6237-5.4158-13.01.27-1.3126,1.4308-1.6647,1.852-2.6732l1.56.1637a.7345.7345,0,0,1,0,1.0606.6758.6758,0,0,1-.7939.1743,3.1719,3.1719,0,0,0-1.158,1.6193c-.7442,3.8816,3.6984,8.7945,5.3417,12.0912.4014,1.1949,1.0831,2.1749,1.5116,3.2818-.0447-1.1348-.0858-2.2589-.0858-3.3534,0-2.38.4873-5.3825.02-7.7166-.5377-2.6856-1.2518-5.1327-.34-7.94l-.0385-.1214a.75.75,0,1,1,1.5,0l-.0385.5957c-.86,2.5-.0985,4.7414.377,7.1209.4929,2.4663.02,5.552.02,8.0612,0,3.6409.4363,7.5934-.0056,11.2078-.3524,2.8824-1.9173,5.5964-3.302,8.19q-.0831.2538-.167.5062-.0045.2226-.01.4448c1.6711-1.174,4.36-1.93,5.7578-3.2735.7861-.7551.6782-2.6987.9112-3.6309.7634-3.0537.3122-6.32-.299-9.3751-.9552-4.0128-1.1395-9.6616.7143-13.3694l1.0295-.4146a.7345.7345,0,0,1,.75.75.7.7,0,0,1-.626.7371c-1.4936,3.4037-1.264,8.4435-.403,11.9742a31.5024,31.5024,0,0,1-.0524,11.4057c-.1451,1.0184-.0887,2.08-.8985,2.9139a14.757,14.757,0,0,1-4.5791,3.0662c-.6868.3023-1.4755.2039-1.9141.7084,3.172-.0034,4.5056-.0776,7.3466-1.6914.8877-.5043,2.3872-.9445,2.9658-1.8972.598-.9848.0993-2.2191.2521-3.2832a50.9379,50.9379,0,0,0,.3586-7.1717c.47-1.88,1.4483-4.4313,1.4288-6.3629l1.1086-.75a.7345.7345,0,0,1,.75.75.6746.6746,0,0,1-.3935.6651Z" fill="#62441c"/></svg>