<svg id="881f647d-4bb1-4725-9c86-92610631e2e0" data-name="Layer 1" xmlns="http://www.w3.org/2000/svg" viewBox="0 0 290 357.9"><title>baby</title><path d="M104.9107,107.65l-.1822.3023c-1.567-1.04-3.4109-1.7506-4.701-3.1188-.6-.6368-.0536-1.8976-.6411-2.5465-.4611-.5094-1.3613-.21-2.0228-.3961-.8864-.2487-1.7126-.6977-2.61-.904-1.4369-.33-3.3617.3783-4.3673-.7-1.6421-1.7607-.3327-5.2424-.7-7.3673-.7067-4.09-1.8048-8.5146-1-12.8009.8995-4.79,3.4491-5.786,6.8828-8.5329,2.4492-1.9594,2.2239-3.3052,5.8605-4.4594,2.8315-.8986,4.9589.1946,7.515,1.021,4.0753,1.4116,8.6307.8978,12.5238,3.2451a13.2423,13.2423,0,0,1,2.4534,2.3588c.8778.9085,2.0967,1.6289,2.542,2.8111,1.457,3.8683-.7134,8.9307-3.9954,11.0833-.8814.5782-2.0886.4706-3,1-2.33,1.3534-3.647,4.5882-6,6-.7506.45-1.89.0619-2.5466.6412-.4912.4336-.2192,1.2929-.3675,1.9312a36.8787,36.8787,0,0,0-.9,9.301,2.4485,2.4485,0,0,1-2.5,2.5,2.2489,2.2489,0,0,1-2.2435-1.3692Z" fill="#f7ed51"/><path d="M90.12,84.1772a.6746.6746,0,0,1-.3934-.6652.7345.7345,0,0,1,.75-.75l1.1086.75c-.02,1.9317.9587,4.4831,1.4287,6.363a50.9379,50.9379,0,0,0,.3586,7.1717c.1528,1.0641-.3459,2.2984.2522,3.2832.5785.9527,2.078,1.3929,2.9657,1.8972,2.841,1.6138,4.1747,1.688,7.3466,1.6914-.4386-.5045-1.2272-.4061-1.9141-.7084a14.757,14.757,0,0,1-4.5791-3.0662c-.81-.8342-.7534-1.8955-.8985-2.9139a31.5024,31.5024,0,0,1-.0524-11.4057c.861-3.5307,1.0906-8.57-.403-11.9742a.7.7,0,0,1-.626-.7371.7345.7345,0,0,1,.75-.75l1.0294.4146c1.8539,3.7078,1.67,9.3566.7144,13.3694-.6113,3.0547-1.0624,6.3213-.299,9.3751.233.9322.1251,2.8758.9112,3.6309,1.3982,1.3431,4.0867,2.0994,5.7578,3.2735q-.0058-.2223-.01-.4448-.0838-.2523-.167-.5062c-1.3847-2.5936-2.95-5.3076-3.3019-8.19-.4419-3.6144-.0057-7.5669-.0057-11.2078,0-2.5093-.4728-5.5949.02-8.0613.4755-2.3794,1.237-4.6208.377-7.1208l-.0385-.5958a.75.75,0,0,1,1.5,0l-.0385.1215c.9117,2.8071.1976,5.2541-.34,7.94-.4673,2.3341.02,5.3366.02,7.7166,0,1.0945-.0412,2.2186-.0858,3.3534.4284-1.107,1.11-2.0869,1.5115-3.2818,1.6433-3.2967,6.0859-8.21,5.3418-12.0913a3.1729,3.1729,0,0,0-1.1581-1.6193.6755.6755,0,0,1-.7938-.1742.7345.7345,0,0,1,0-1.0606l1.56-.1637c.4212,1.0085,1.5821,1.3606,1.8521,2.6732.9022,4.3862-3.5645,9.3193-5.4158,13.01-.469,1.4195-1.5786,2.6945-1.7415,4.1074a28.43,28.43,0,0,0,1.0954,10.56,12.587,12.587,0,0,1,1.44-4.5445c1.4055-2.4926,4.2722-4.9349,6.1286-7.2279,1.6459-3.3132,4.1714-6.8432,5.3176-10.2818l.3807-.7656a.75.75,0,0,1,1.3416.6708l-.3365.6688c-1.1717,3.5152-3.7443,7.1438-5.44,10.5163-1.7825,2.25-4.7542,4.6895-6.0634,7.1156a15.92,15.92,0,0,0-1.4756,7.8511q.21.3969.4063.7886a.82.82,0,0,1-.0009.709c.2549.7607.51,1.5138.7588,2.258a.7345.7345,0,0,1-.4744.9486.71.71,0,0,1-.5648-.0189q.0018.1923.0019.3832a.75.75,0,0,1-1.5,0q0-.5168-.0118-1.0429c-3.7146-.0007-5.384-.0856-8.5793-1.8943-1.1647-.6592-2.7539-1.172-3.4889-2.4059-.7693-1.2915-.2614-2.532-.465-3.8885a46.1224,46.1224,0,0,1-.3586-7.1718,42.1525,42.1525,0,0,1-1.4051-5.881Z" fill="#d6d63c"/></svg>