<svg id="45b03d57-10bc-4bce-9c57-613f193e7cab" data-name="Layer 1" xmlns="http://www.w3.org/2000/svg" viewBox="0 0 290 357.9"><title>baby</title><path d="M103.2761,110.8633l-.1821.3023c-1.567-1.04-3.4109-1.7506-4.701-3.1188-.6006-.6368-.0537-1.8976-.6412-2.5465-.4611-.5094-1.3613-.21-2.0228-.3961-.8864-.2487-1.7126-.6977-2.61-.904-1.4369-.33-3.3617.3783-4.3673-.7-1.6421-1.7607-.3327-5.2423-.7-7.3673-.7068-4.09-1.8049-8.5145-1-12.8009.8994-4.79,3.449-5.786,6.8827-8.5329,2.4492-1.9594,2.2239-3.3052,5.8605-4.4594,2.8315-.8986,4.9589.1946,7.515,1.021,4.0753,1.4116,8.6307.8978,12.5238,3.2451a13.2392,13.2392,0,0,1,2.4534,2.3588c.8779.9086,2.0967,1.6289,2.542,2.8111,1.457,3.8683-.7134,8.9307-3.9954,11.0833-.8814.5782-2.0885.4706-3,1-2.33,1.3534-3.6469,4.5882-6,6-.7506.45-1.89.0619-2.5466.6412-.4912.4336-.2191,1.2929-.3674,1.9312a36.8742,36.8742,0,0,0-.9,9.301,2.4485,2.4485,0,0,1-2.5,2.5,2.2489,2.2489,0,0,1-2.2435-1.3692Z" fill="#f7ed51"/><path d="M180.8913,144.5231a22.918,22.918,0,0,1-.904,2.61c-.1531.3284-.9562.5755-.7.8317s.5546-.4666.8318-.7c.4575.002,1.1735.4179,1.3724.0059.288-.5967-.2931-1.2924-.44-1.9386l.2568-.3365-.1608-.0536.8717-2.6152V141.83a16.06,16.06,0,0,0-1.1283,2.6932Zm3.8058-5.2844a2.4862,2.4862,0,0,1,.6476.1332l.2416-.2416A2.734,2.734,0,0,0,184.6971,139.2387Zm-1.57,12.2755c.3651.2865.729.5753,1.1172.8256.25.161.6524.6142.8138.3646.28-.4328.0377-1.02.0617-1.5443a2.5236,2.5236,0,0,1-1.0387.034,9.6851,9.6851,0,0,1-.954.32Zm-8.2681-4.2692a28.3041,28.3041,0,0,1,1.2892-4.3031c.9892-2.9213,3.1657-7.2952,6.415-8.5191,3.5385-1.3328,9.7935.5965,11.2664,4.353a7.8065,7.8065,0,0,1,.083,4.6812c-.3308,1.2913-1.5527,2.1806-2.1469,3.3739-1.16,2.3295-1.5734,8.496-3.784,9.93-4.0024,2.5958-5.6576-.3492-8.56-1.7823a57.0477,57.0477,0,0,1-6.2883-3.1657,2.4483,2.4483,0,0,1-.6934-3.4668,2.25,2.25,0,0,1,2.4192-1.1008Z" fill="#ceebed"/><path d="M184.9934,157.1186a2.8877,2.8877,0,0,1-2.5019-.9243c-1.0069-1.4489.3091-3.5225.6564-5.2524.087-.4338,2.1933-6.4356,2.2451-6.5237.4775-.8129,1.5149-1.1916,2-2,.5423-.9039.4379-2.1083,1-3,1.065-1.69,5.0654-4.8666,6.7948-5.1636a43.982,43.982,0,0,1,7.8493,2.4911c1.097.8549,1.5388,2.3224,2.4158,3.4018.6637.8167,1.648,1.3707,2.1933,2.2707s.4621,2.0935,1,3c1.4727,2.4814,4.4942,4.5145,6,7,.5462.9015.4705,2.0885,1,3,1.3512,2.3258,4.568,3.6658,6,6a15.9741,15.9741,0,0,1,1.1192,3.2159,44.1294,44.1294,0,0,1,6.2219,15.6979c1.01,6.0805.0323,13.2339.0323,19.4,0,3.0071,1.335,11.4061-5.0744,10.4331-1.7632-.2677-1.9878-2.954-2.7665-4.5794-.0473.5257-.11,1.0422-.1914,1.5467-.1678,1.0407-.8267,1.96-1,3-.35,2.0979-.0773,4.408-1.0637,6.2916l-.9659,3.8636a2.5,2.5,0,0,1-4.9381-.5556v-9c0-1.8087.5858-3.693.0669-5.4256-1.0471-3.4968-3.4382-7.2522-4.8766-10.6177-1.443-3.3764-1.9052-7.393-3.7774-10.58-.49-.8335-1.543-1.2323-2.04-2.0619-.5829-.9739-.62-2.1966-1.1192-3.2159-.9033-1.844-2.8245-3.0232-3.8808-4.7841-1.3177-2.1966-1.7693-4.8329-3.0356-7.0595a24.5371,24.5371,0,0,0-8.2245-8.1747,2.8716,2.8716,0,0,1-1.1394-1.694Z" fill="#f7ed51"/><path d="M110.4946,73.6054A.717.717,0,0,1,110,73.37a.7346.7346,0,0,1,0-1.0607l1.5424-.1463c3.1552,6.6641-.6126,13.9306-5.2589,18.61-4.3084,4.2107-2.6159,9.3236-2.0087,14.5168.0542-3.2.4834-6.5191,2.5239-8.7035a16.51,16.51,0,0,1,3.8838-6.5327,21.9032,21.9032,0,0,0,2.9634-3.2763c.481-.7661.2292-2.2055.2292-3.018a66.5577,66.5577,0,0,0-.9715-8.5488c-.2562-2.0354-.4359-4.1633-1.958-5.6854l-.4036-.7856-.0792-.6766a.75.75,0,0,1,1.5,0l-.0792.0058.2788.5793c1.6928,1.6928,1.95,4.1257,2.2309,6.3869.4185,3.3722,2.4273,9.2738.5285,12.531a23.2056,23.2056,0,0,1-3.1787,3.5483,13.6627,13.6627,0,0,0-2.82,4.01c.6534-.2638,1.3419-.4672,1.9538-.7752a18.0527,18.0527,0,0,0,2.9679-1.3025c3.0666-2.3149,6.6025-8.5634,6.5131-12.3582a8.513,8.513,0,0,0-1.2857-4.4418l-.3413-.6824a.75.75,0,1,1,1.3417-.6709l.3412.6825a10.0589,10.0589,0,0,1,1.4441,5.1126c-.1046,6.2335-5.0314,12.3454-10.31,15.0024a15.3877,15.3877,0,0,0-3.53,1.8171c-1.239,4.1138-1.174,8.7627-1.174,12.8673a.7345.7345,0,0,1-.75.75.6747.6747,0,0,1-.6729-.41l-.02.0093a.75.75,0,0,1-1.3426.6689q-.1056-.2134-.2164-.4264a.8808.8808,0,0,1-.24.12.7345.7345,0,0,1-.9487-.4743,9.7556,9.7556,0,0,0-1.6926-2.959.8369.8369,0,0,1-.3257.0595.7345.7345,0,0,1-.75-.75q0-.2609-.0022-.5217a26.2525,26.2525,0,0,0-5.0839-3.948c-1.836-1.1043-3.9737-1.3847-5.0716-3.3843-1.82-3.6606-2.4763-10.71-.7125-14.5275.4464-.9662.9827-1.9562,1.5406-2.9436a10.4755,10.4755,0,0,1,.5369-1.2848c.5358-1.0718.9285-2.4313,1.9161-3.1061q.0365-.0717.0721-.1431l-.02-.8514V75.2281a.7345.7345,0,0,1,.75-.75.7189.7189,0,0,1,.5124.18c.275-.6049.5613-1.2065.8642-1.8123l.4817-.5362A.75.75,0,0,1,96.7289,73.37l-.2008.1463c-.7574,1.5149-1.3671,3.1144-2.1671,4.5927a4.6052,4.6052,0,0,1-.1994,1.16A19.98,19.98,0,0,1,91.68,83.1368c-.9813,4.1675.36,9.3127,2.0564,12.809a34.9723,34.9723,0,0,1,3.0711,4.0947,24.88,24.88,0,0,0,2.8495,3.0854c-1.7247-2.7991-3.815-5.4469-4.8333-8.502-1.1592-2.4429-.2624-5.9589,1.0786-8.1883.81-1.3467,2.6738-2.5442,2.9791-4.214a53.0382,53.0382,0,0,0,.3412-8.186l-.2821-.5194a.75.75,0,1,1,1.3416-.6708l.4.8455c.0492,2.9352.2609,6.0639-.3413,8.8754-.82,3.8283-6.59,6.895-4.1317,11.4836a27.3516,27.3516,0,0,0,3.3507,6.2073c-.2559-2.8552-.6346-5.7-1.03-8.53-.328-2.3445-1.9714-3.5739.1318-5.6771.6361-1.3216,2.3369-2.4087,2.6084-3.8285.5481-2.8671-.02-6.444-.02-9.382v-.6825a.75.75,0,0,1,1.5,0V72.84c0,3.0423.5909,6.76-.02,9.7266-.3461,1.6808-2.0786,2.857-2.8513,4.361-1.6834,1.6834-.1649,2.5175.1319,4.56q.124.8539.2434,1.7112a5.8256,5.8256,0,0,1,2.46-4.7681c1.4377-1.3861,3.2458-2.48,4.4789-4.0861.7277-.9479.5409-2.2147.5409-3.315a14.9623,14.9623,0,0,0-2.8174-9.3333l-.5215-.2327a.75.75,0,1,1,.6708-1.3416l.8434.45c2.4465,3.5446,5.5856,10.4675,2.5007,14.65-1.272,1.7243-3.2069,2.8854-4.723,4.3508-2.374,1.7563-1.96,3.7418-1.96,6.4712q0,.1224-.0013.2465a12.1654,12.1654,0,0,1,.2275-1.7838c.35-1.7011,2.1-3.6026,3.2706-4.794,1.8015-1.7867,5.1741-5.5383,5.5909-8.12a31.3587,31.3587,0,0,0-.01-4.657,13.8443,13.8443,0,0,0-.3092-3.3289Zm-8.4485,30.4319c.0881.2877.1878.5716.2969.8523q.1794.3688.3417.7443c.0623.1443.1183.2836.17.4181-.2951-2.9218-1.134-5.8939-1.1516-8.8542-.0784,2.2573-.2951,4.7542.3434,6.84Zm2.26,4.69-.0051-.2652a.6431.6431,0,0,1-.0894.1Zm-8.7157-7.81a37.0893,37.0893,0,0,0-3.0711-4.0948,24.6351,24.6351,0,0,1-2.6607-10.17,20.1379,20.1379,0,0,0,1.21,11.7845c.6561,1.5935,3.0992,1.93,4.4828,2.7578q.2517.1506.51.3125-.242-.2888-.4707-.59Z" fill="#d6d63c"/><path d="M201.9676,167.3539a.7346.7346,0,0,1-1.0063.3354l-.0323-.0178q.1325.2137.2652.4274a.8526.8526,0,0,1,.6257-.1019c3.0227.84,3.0016,2.6713,3.6144,5.3138.4262,1.8378.93,4.1413,1.6462,6.29q.5058,1.06,1.0292,2.0963l.2007.1463a.7448.7448,0,0,1,.1023.9414,10.5176,10.5176,0,0,0,.84,1.3283l.7768.8147a.75.75,0,1,1-1.0867,1.0339l-.8354-.88a17.3815,17.3815,0,0,1-2.34-4.7971,101.1317,101.1317,0,0,0-5.4518-10.7588c-3.24-5.1839-6.2279-10.4327-10.62-14.7253-1.4164-1.3844-3.3819-3.1188-5.461-3.07a.75.75,0,1,1,0-1.5c2.5486.0428,4.7439,1.7752,6.5089,3.4965a55.4272,55.4272,0,0,1,7.9749,10.3895c-1.3255-3.7163-1.8855-7.7256-3.6188-11.3691-.8363-1.7579-1.85-3.9625-3.6934-4.85a.75.75,0,0,1,.6708-1.3417c2.1713,1.1156,3.3648,3.4228,4.3769,5.5463,2.1806,4.5753,2.7877,9.4243,4.69,14.0442l.4875.2008a.7345.7345,0,0,1,.3355,1.0062Zm1.8134,5.3112c-.2151-1.3175-.3313-2.4514-1.6283-3C202.7271,170.6431,203.2652,171.6473,203.781,172.6651Z" fill="#d6d63c"/><path d="M220.4,204.2007a.7345.7345,0,0,1-1.0062-.3355l-.3412-.6824a12.6637,12.6637,0,0,1-1.7854-5.7951v-5.22c-.1009-.86-.1944-1.723-.3523-2.586q-.03-.1629-.0611-.3257a.7427.7427,0,0,1-.61-.74v-1.0237c0-.2672.0083-.5456.0219-.8322-.6111-2.3907-1.378-4.7634-2.03-7.1178-1.4134-3.541-2.8555-7.1991-4.5777-10.7055l.0223.0977c.98,4.2878.5566,8.9876.5566,13.4394a.75.75,0,0,1-1.5,0c0-4.3316.4341-8.94-.5189-13.1051-.2974-1.3-.7139-4.14-2.1376-4.65l-.0058.0792a.75.75,0,0,1,0-1.5l.4566.0534a36.2918,36.2918,0,0,0-4.1939-5.38c.208,1.8946.7691,3.5833,2.106,4.4286a.75.75,0,1,1-.8321,1.248c-3.084-2.1356-2.7226-6.7254-2.7226-10.1073,0-.5411.3749-4.6143-.3267-4.8927-.5729-.2274-1.1736.3808-1.7436.6154l-.3134.1254a.75.75,0,0,1-.5571-1.3928l.3134-.1253a5.7958,5.7958,0,0,1,1.92-.4581,12.4392,12.4392,0,0,0-8.78-3.7711.75.75,0,0,1,0-1.5c6.1688,0,10.0409,3.9269,13.4529,8.4319-.4258-1.3685-.8-2.7573-1.1673-4.1295-1.0732-1.1785-2.3845-2.1746-3.7549-2.12a.75.75,0,0,1,0-1.5,5.7346,5.7346,0,0,1,3.0657,1.0748l-.0379-.1352c-.2138-.7609-.2231-3.9921-.7365-4.3584a18.7972,18.7972,0,0,0-2.6326.1416.75.75,0,0,1,0-1.5c.7308,0,2.9508-.2838,3.51.1416,1.162.8844.943,3.8991,1.3108,5.196.2222.7833.4365,1.5791.6519,2.38a19.2117,19.2117,0,0,1,1.6383,2.1754,40.3742,40.3742,0,0,1,4.7633,11.4982,12.9858,12.9858,0,0,1,2.5052,4.7784q.0759.3573.1438.6987a45.06,45.06,0,0,0,4.7542,5.0654c3.1553,2.9092,6.9437,5.9091,9.064,9.6868,2.223,4.0216,3.1194,9.8453,3.1194,14.4082v1.0237a.75.75,0,0,1-1.5,0v-1.0237c0-4.3-.8132-9.8895-2.9306-13.68-1.9951-3.6337-5.7538-6.5314-8.772-9.3147q-1.6247-1.4983-3.0941-3.0974a15.0018,15.0018,0,0,0,1.2035,3.2354l.0792.6766a.7441.7441,0,0,1-.599.7389c.6526,1.9564,1.288,3.9131,1.8288,5.8813V173.843a.75.75,0,0,1,1.5,0v18.3638a15.8139,15.8139,0,0,0,.644,3.2376l-.644.456v1.4873a10.969,10.969,0,0,0,1.627,5.1242l.3412.6825a.7345.7345,0,0,1-.3354,1.0062Zm-12.2554-46.3794q-.5349-.7964-.99-1.6465c-1.5735-2.1584-3.1146-4.5-4.8423-6.5735a9.4643,9.4643,0,0,1,.0759,1.2444c.003,1.3279-.1815,3.2523-.1562,5.1737a.8409.8409,0,0,1,.619.2319c6.2347,6.25,9.6159,14.7788,12.8058,22.812.255.9155.5262,1.8339.7986,2.7551a7.3872,7.3872,0,0,0-.2028-1.34c-1.3945-5.3945-3.5085-10.7433-4.9943-16.1693q-.1874-.6868-.37-1.3743a32.7838,32.7838,0,0,1-2.7434-5.1136Zm.74-1.8275a34.2974,34.2974,0,0,0-2.5588-5.8856,31.5687,31.5687,0,0,0,2.1654,5.3592q.1962.2647.3934.5264Z" fill="#d6d63c"/><path d="M220.7467,171.1807a.7345.7345,0,0,1-.75-.75l.22.1891c-4.1937-4.2692-5.3087-9.4984-8.3022-14.476a.75.75,0,1,1,1.2862-.7717c2.9106,4.8616,3.9093,10.1141,8.0767,14.1871l.22.8715a.7345.7345,0,0,1-.75.75Z" fill="#d6d63c"/><path d="M223.6287,203.682a.9732.9732,0,0,1,.1216-.1039v-19.84a.75.75,0,0,1,1.5,0v20.8149l-1.6216.1891A.7345.7345,0,0,1,223.6287,203.682Z" fill="#d6d63c"/><path d="M221.4292,194.3842a.7345.7345,0,0,1-.75-.75v-3.7535a.75.75,0,0,1,1.5,0v3.7535a.7345.7345,0,0,1-.75.75Z" fill="#d6d63c"/><path d="M211.1248,189.8807V178.9614a.75.75,0,1,1,1.5,0v10.2708a.81.81,0,0,1,.3412.6485c0,6.659.3278,13.6744,5.0614,18.8218a22.8855,22.8855,0,0,1-2.07,10.518l-.3412.6825a.75.75,0,1,1-1.3416-.6709l.3412-.6824c1.3975-2.75,1.791-6.25,2.0252-9.2732-1.04-.9237-1.3109-2.1694-1.9924-3.305-2.9182-4.8631-3.1678-9.8773-3.1823-15.4418a.81.81,0,0,1-.342-.649Z" fill="#d6d63c"/><path d="M222.1117,176.1641a.7345.7345,0,0,1,.75.75l-.0792.6766c-1.3115,2.4144-.2621,8.1861-.2621,10.9251a.75.75,0,0,1-1.5,0c0-3.2373-.9721-8.6549.42-11.5959l-.0792-.0058a.7345.7345,0,0,1,.75-.75Z" fill="#d6d63c"/><path d="M223.1354,173.2281a.7345.7345,0,0,1-.75-.75l.0791-.3471a38.6921,38.6921,0,0,1-3.469-8.3429.75.75,0,1,1,1.4552-.3638,37.0032,37.0032,0,0,0,3.3555,8.0359l.0792,1.0179a.7345.7345,0,0,1-.75.75Z" fill="#d6d63c"/><path d="M227.23,200.1851a.7345.7345,0,0,1-.75-.75l.0385-.5784a19.7452,19.7452,0,0,0,.9852-2.1514c0-.4448-.9006-1.3936-1.0037-1.8751a33.2481,33.2481,0,0,1-.7025-6.9968.75.75,0,1,1,1.5,0,36.3053,36.3053,0,0,0,.6624,6.6522c.139.76,1.0438,1.3986,1.0438,2.22a14.952,14.952,0,0,1-1.0622,2.6257l.0385.1041a.7345.7345,0,0,1-.75.75Z" fill="#d6d63c"/></svg>