<svg id="fb340807-e581-482a-90da-9d7d746bb00e" data-name="Layer 1" xmlns="http://www.w3.org/2000/svg" viewBox="0 0 290 357.9"><title>baby</title><path d="M103.8,111.6586l-.1822.3024c-1.567-1.04-3.4109-1.7507-4.701-3.1188-.6005-.6369-.0537-1.8977-.6411-2.5466-.4611-.5093-1.3613-.21-2.0228-.396-.8865-.2488-1.7126-.6978-2.61-.904-1.4369-.33-3.3617.3782-4.3673-.7-1.6421-1.7607-.3327-5.2423-.7-7.3673-.7067-4.0895-1.8048-8.5145-1-12.8009.9-4.79,3.4491-5.786,6.8828-8.5329,2.4492-1.9594,2.2238-3.3052,5.8605-4.4594,2.8314-.8986,4.9589.1946,7.515,1.021,4.0753,1.4116,8.6307.8978,12.5238,3.2451a13.24,13.24,0,0,1,2.4534,2.3589c.8778.9085,2.0966,1.6288,2.5419,2.811,1.4571,3.8684-.7133,8.9307-3.9953,11.0834-.8814.5781-2.0886.4705-3,1-2.33,1.3533-3.647,4.5881-6,6-.7506.45-1.89.0618-2.5466.6411-.4913.4337-.2192,1.2929-.3675,1.9312a36.8788,36.8788,0,0,0-.9,9.301,2.4485,2.4485,0,0,1-2.5,2.5,2.2489,2.2489,0,0,1-2.2434-1.3691Z" fill="#f7ed51"/><path d="M104.6138,137.0936a2.374,2.374,0,0,1,1.6386-2.9375,2.4484,2.4484,0,0,1,3.1622,1.5812c.511,1.6758,1.8675,2.9656,2.7549,4.4762,1.0679,1.8177.933,4.1818,2,6,1.8606,3.17,5.5566,3.4122.3352,8.3424-1.12,1.0572-5.4023.2042-7.0613.44-1.35.1916-2.664,1.3405-3.9749.9654-3.6-1.03-4.0647-5.3224-6.1933-7.6653-.9324-1.0262-2.5041-1.8163-2.6654-3.1934a7.468,7.468,0,0,1,1.6654-5.3422c.9013-1.1095,2.6155-1.1688,3.9772-1.6039,1.4251-.4553,2.9275-1.4875,4.3614-1.0625Z" fill="#ceebed"/><path d="M92.0336,143.0278a3.39,3.39,0,0,1,.2416-.2678,2.4485,2.4485,0,0,1,3.5355,0c2.2943,2.2943,5.605,4.83,6.6249,8.0434.7974,2.5122-.1335,5.4092-1.083,7.6811-.9989,2.39-1.9075,4.8237-3.0639,7.1417-1.3958,2.798-3.2382,5.0757-3.7781,8.3021-.4874,2.9128.0323,6.6751.0323,9.6v16a37.3393,37.3393,0,0,0,1.9677,11.5995l-.1059.4005h.1382v3a2.5,2.5,0,0,1-4.2678,1.7678l-1.8567-1.8568a15.7032,15.7032,0,0,1-3.1433-2.1432,12.9416,12.9416,0,0,1-2.848-4.89c-.4487,2.209-1.796,5.1391-.9915,7.3979.36,1.0093,1.3724,1.6686,1.8531,2.6261.09.18,2.0022,5.9367,2.1259,6.3078l.9816,2.9447a2.5007,2.5007,0,0,1-3.7685,2.9071l-2.9715-1.9811.08-.1194a6.8871,6.8871,0,0,1-.68-.4432c-.91-.6753-.5585-2.23-1.14-3.2031-.5494-.9194-1.7889-1.3618-2.1831-2.3577-.4367-1.1033.0434-2.3869-.158-3.5562-.3578-2.0776-1.6545-3.92-2-6-.5411-3.2568.477-6.747,0-10-.1529-1.0429-.8322-1.9594-1-3-.4715-2.9232.5015-6.0983,0-9-.1795-1.0387-.8322-1.9594-1-3-1.0388-6.4408-.0323-13.8887-.0323-20.4.0329-3.4666.72-8.11,2.3245-11.2317,1.2612-2.4542,4.5246-4.1955,6.2421-6.3533,1.503-1.8882,2.5049-4.6855,4.9767-5.7247,1.2172-.5117,2.6378-.1269,3.9567-.19Z" fill="#f7ed51"/><path d="M95.71,149.7345a.7345.7345,0,0,1,1.0062-.3354l.8774.4817c.8961,1.6321,2.1174,2.2665,1.1525,4.3013-1.7093,3.4186-3.5869,6.9525-5.0668,10.591a27.1839,27.1839,0,0,1-2.1847,7.0145,24.9827,24.9827,0,0,0-.5059,4.8981.7345.7345,0,0,1-.75.75.91.91,0,0,1-.2308-.0277q.1893,2.0971.4477,4.18.1168.9414.2008,1.8925a.8836.8836,0,0,1,.2648-.0374.7345.7345,0,0,1,.75.75c0,6.8447.7042,14.0845-.0037,20.8888a18.3084,18.3084,0,0,1-.4564,2.2043c.9728,2.427,2.4292,4.9045,3.452,6.9408l.0791,1.0179a.75.75,0,0,1-1.5,0l.0792-.3471c-.5692-1.1442-1.2578-2.4043-1.9278-3.7128a.8218.8218,0,0,1-.1254-.0465l-.6068-.3034a12.7339,12.7339,0,0,0,.9306,2.7094.75.75,0,1,1-1.3417.6709c-.92-1.84-1.0456-3.702-1.74-5.5371a117.7669,117.7669,0,0,0-5.3826-11.4439c-.0056.31-.0119.6234-.0165.9395.0169.5781.0288,1.1511.0288,1.7157a.8328.8328,0,0,1-.017.1459,11.3171,11.3171,0,0,0,.6854,3.8047l.014,1.1678a.7345.7345,0,0,1-.75.75.6918.6918,0,0,1-.5763-.2489c.13,7.3937.6485,14.7464,2.994,21.7828a.75.75,0,0,1-1.4231.4743c-2.7276-8.1829-3.0507-16.7938-3.1067-25.3972-.0012-2.59.0806-5.1759.1879-7.7586a.8855.8855,0,0,1-.1907-.5217l.2171-.1034c.1992-4.6335.4654-9.2585.4654-13.8869l.3412.0776v-2.8889a69.36,69.36,0,0,0-1.9085,14.8005.6769.6769,0,0,1,.3374.6362.7345.7345,0,0,1-.75.75l-.9561-.6571v1.9545c0,8.3467,2.3886,16.5231,2.3886,24.91a.75.75,0,0,1-1.5,0c0-8.3845-2.3886-16.56-2.3886-24.91v-4.436l1.423-.1659a76.8436,76.8436,0,0,1,2.9709-17.3654q.1861-.6512.3833-1.3012V156.5532a.75.75,0,0,1,1.5,0v10.3384c1.9341-5.6489,4.1038-11.2851,5.2881-17.0582-1.0143.794-2.3337.96-3.1192,1.4493-.4915.3062.22,1.1441.22,1.7232v3.8886a.75.75,0,0,1-1.5,0c0-1.3579-.7141-5.6276.22-6.6724.3-.3355.9139-.0337,1.3367-.1875a7.1053,7.1053,0,0,0,2.0756-1.5187l.8716-.22a.7365.7365,0,0,1,.748.6839q.0394.0047.0815.0131a.7345.7345,0,0,1,.5884.8825c-.2782,1.3908-.6138,2.7733-.99,4.15l.2431.4863.0792.6767a.81.81,0,0,1-.3411.6484c.003,5.4139.047,10.8888.3477,16.3294q.2268-.4193.4332-.843a40.82,40.82,0,0,1,2.1793-6.9675,74.2192,74.2192,0,0,0,.6581-12.58.75.75,0,0,1,1.5,0c0,2.7127.01,5.4184-.1576,8.0812,1.03-2.1527,2.1221-4.2679,3.1611-6.346.6685-1.2349-.345-1.2908-.8716-2.57l-.4875-.2007a.7346.7346,0,0,1-.3354-1.0063Zm-6.5291,56.2629-.11.0105q.3048.7259.59,1.4657l.0092-.0445c-.1842-.48-.3494-.9584-.4893-1.4317Zm-5.1181-10.2382c1.1275,2.255,2.3044,4.4632,3.4018,6.7228a14.9231,14.9231,0,0,1-.7-4.2073c-1.4735-5.894-1.0247-12.69-.79-19.0481a89.6073,89.6073,0,0,0-2.6935,10.4246c-.0563,1.6392-.108,3.2816-.13,4.9264.3074.3866.6331.7651.9117,1.1816Zm4.7434,1.4a89.1155,89.1155,0,0,0-.6623-13.1356c-.0751-.5031-.58-.8667-.6825-1.3649q-.0589-.2865-.1008-.5743c-.2124,5.4387-.3475,11.0462.8927,16.0068a12.7625,12.7625,0,0,0,.4058,3.0992c.0368-1.37.1471-2.7587.1471-4.0312Zm-5.3245-15.7035q0,.4875-.0044.9756c.6861-2.3375,1.4048-4.6665,1.8923-7.0486l.4225-1.0311a.7414.7414,0,0,1,.8587-.4481.9621.9621,0,0,1,.1756-.0154.7345.7345,0,0,1,.75.75c0,.999-.02,2.0191-.0513,3.0542a25.4146,25.4146,0,0,1,.7643-2.9567c-.3691-5.2343-.4724-10.5134-.4986-15.753-1.4058,4.2593-3.0119,8.4842-4.3091,12.74v9.7326Z" fill="#d6d63c"/><path d="M75.6334,158.6006a.6764.6764,0,0,1-.3413.6383v1.75c0,7.6882-.3412,15.4573-.3412,23.2035a.75.75,0,0,1-1.5,0c0-7.7456.3412-15.5162.3412-23.2035v-2.3886l1.0913-.75A.7345.7345,0,0,1,75.6334,158.6006Z" fill="#d6d63c"/><path d="M77.9544,187.3313a.7345.7345,0,0,1-.75-.75v-.6825a20.1746,20.1746,0,0,1,.3442-3.6845c-.0168-8.2124-.003-16.425-.003-24.6374a.75.75,0,0,1,1.5,0q0,12.3848-.0029,24.77a19.4985,19.4985,0,0,0-.3383,3.5523v.6825a.7345.7345,0,0,1-.75.75Z" fill="#d6d63c"/><path d="M92.8007,79.1481a.7462.7462,0,0,1-.5823-.736l1.4209-.6767c.4973,1.208,1.4095.5341,2.346,1.0074,1.52.7684,1.1454,2.0635,1.1454,3.4228a15.3709,15.3709,0,0,1-1.8181,7.56c-.8472,1.42-2.5124,3.0752-3.0056,4.6431a15.5348,15.5348,0,0,0-.0105,9.3484c.9053,1.7988,3.1934,2.2594,5.0537,3.0064.99.3974,2.2158.8359,3.4627,1.3312A20.4066,20.4066,0,0,1,95.6836,98.19a23.4141,23.4141,0,0,1-.0432-3.5194c1.816-5.3136,8.5177-7.1891,6.1895-13.242a12.0013,12.0013,0,0,0-2.5672-3.169c-1.5138-1.5137-2.477-1.7541-4.2411-2.5893l-.4146-1.0121a.7345.7345,0,0,1,.75-.75.7018.7018,0,0,1,.7384.6334,13.6188,13.6188,0,0,1,4.2279,2.6574c2.5712,2.5711,5.6227,7.6172,2.3886,10.9562-1.945,2.0081-4.7086,3.9876-5.5909,6.7556.0105,1.3435-.2179,3.0859.2938,4.37,1.1617,2.915,3.9569,9.1468,7.5451,9.731-.9175-5.5145-4.1569-11.2115-.5449-16.49,1.63-.7773,3.654-4.0951,4.2289-5.84.2185-.6629,1.363-3.53.3622-3.0845h-.3412a.715.715,0,0,1-.75-.75v-.0071c.0115-4.5516-5.6951-8.4484-8.6523-11.4055l-.3412-.3413a.75.75,0,0,1,1.0606-1.0606l.3413.3412c3.15,3.15,8.56,6.9989,9.0551,11.79,1.9542.4348,1.617,1.8559,1.0136,3.6732-.8351,2.515-2.5534,6.543-4.9843,7.8091-2.3494,3.6792-.9564,7.9489.2048,12.0649a35.0942,35.0942,0,0,1,.2751-8.7047c.4214-2.0466,2.8078-4.6673,4.2446-6.1041,1.2885-1.9411,4.6088-4.5129,4.9685-6.8626.6-3.9223-.2835-7.5138-3.993-9.3716-1.7923-.5948-3.4853-.5463-5.1669-1.387l-.4145-1.0121a.7345.7345,0,0,1,.75-.75.6957.6957,0,0,1,.7325.6017c1.4919.6194,3.0685.6247,4.6729,1.1616,4.3358,2.1651,5.6984,6.4572,4.8789,11.102-.4747,2.6905-3.7893,5.2582-5.2684,7.469-1.2544,1.2544-3.6059,3.7249-3.9448,5.4977a28.3858,28.3858,0,0,0-.3358,6.1028c.7564-4.57,2.6813-8.8218,7.4011-10.3254,1.016-1.0606,2.4049-1.8827,3.1686-3.1686,1.8669-3.1436,2.6706-9.2185.9908-12.5782l-.2007-.1463a.75.75,0,0,1,1.0606-1.0606l.4817.5361c1.9,3.7993,1.0847,10.4989-1.0565,14.0376-.8967,1.4819-2.4342,2.4745-3.656,3.656a13.7666,13.7666,0,0,0-4.3,2.2809c-.8107.8107-1.2454,3.0262-1.5089,4.0875a35.8331,35.8331,0,0,0-1.3425,9.3725.7363.7363,0,0,1-.6876.7482q.0051.3114.0052.6167a.7345.7345,0,0,1-.75.75.9126.9126,0,0,0-.6825,0,.9955.9955,0,0,1-.1437-.01.8.8,0,0,1-.7278-.21c-1.07-1.126-2.86-1.2167-4.2352-1.904-3.0136-1.5061-8.4034-2.8-9.9178-5.8464a16.71,16.71,0,0,1-.01-10.4428c.5879-1.69,2.2192-3.3929,3.1365-4.9113a13.5978,13.5978,0,0,0,1.5941-6.7715,8.3745,8.3745,0,0,0,.0571-1.76c-.1134-.5235-1.0246-.2062-1.1855-.24a2.9526,2.9526,0,0,1-1.7016-1.0175Z" fill="#d6d63c"/></svg>