<svg id="958bc61f-be0f-4594-9b5c-f31852097495" data-name="Layer 1" xmlns="http://www.w3.org/2000/svg" viewBox="0 0 289.9976 357.9312"><title>hat</title><path d="M181.8436,202.7449c0,15.3046-3.8268,29.2427-10.0972,39.7a4.3706,4.3706,0,0,0-7.2165.0779,4.2666,4.2666,0,0,0-5.8524,4.8381l.5147,2.5736.1571-.0314-.0927.2764c-.3424.4908.0306,1.1967.5654,1.8435l.0117.0376c-.9469.0653-1.9087.2223-2.8449.2223,0,0-4.2633,0-4.2633,4.2633a4.1218,4.1218,0,0,0,.9552,2.8405,26.2228,26.2228,0,0,1-10.2722,2.1222c-21.2272,0-38.4352-26.3094-38.4352-58.7637s17.208-58.7636,38.4352-58.7636c8.9912,0,17.2614,4.72,23.8081,12.6284a8.5278,8.5278,0,0,0-3.9759,15.3386,8.5287,8.5287,0,0,0,14.202,3.467,84.353,84.353,0,0,1,4.4009,27.33Z" fill="none"/><path d="M179.2592,203.0943c-.067,14.564-3.6766,27.8065-9.5348,37.7157a4.9761,4.9761,0,0,0-1.5637-.2313,3.8452,3.8452,0,0,0-3.6307,1.9437,4.2665,4.2665,0,0,0-5.8525,4.838l.5147,2.5737.1571-.0315-.0927.2765c-.3424.4908.0306,1.1967.5655,1.8435l.0116.0376c-.9468.0653-1.9086.2223-2.8448.2223,0,0-4.2634,0-4.2634,4.2633q0,.1678.0087.327a23.62,23.62,0,0,1-9.26,1.8617c-19.6215-.1055-35.4128-25.1876-35.2709-56.0224s16.1633-55.7459,35.7847-55.64c7.6481.0411,14.7143,3.8769,20.4818,10.3691a8.5292,8.5292,0,0,0-1.23,14.5073,8.533,8.533,0,0,0,12.036,5.0552,82.16,82.16,0,0,1,3.9825,26.0908Z" fill="none"/><path d="M176.3425,135.0934c-.4784,2.7246-.0619,4.754-.4871,7.1554l-.6435.6092a2.3142,2.3142,0,0,0-.7471.7073l-.6971.66c-1.8055,1.7086-4.0167,4.737-6.2013,5.9684-2.4573,1.385-6.31,1.921-9.0395,2.8157-10.08-.1184-20.3288,1.0331-29.9768-2.0132-2.03-.641-4.2831-.8224-6.122-1.8589-2.2073-1.2441-4.3519-4.2637-6.2016-5.9687a9.2535,9.2535,0,0,1-1.8345-1.6367c-.5912-.963-.5018-2.2253-1.119-3.1736-1.03-1.5822-3.548-2.1251-4.2651-3.855-.2788-.6728.1828-1.4391.2116-2.1614.0842-2.1117-.0021-4.2346-.0021-6.3478,0-3.8624-.729-8.4783-.0359-12.2733.2005-1.0975.9242-2.0758,1.1177-3.1744.6566-3.7279.81-8.2876,2.9757-11.7284,1.7319-2.7516,4.3606-2.9679,6.9161-4.4329,2.87-1.6456,4.2318-4.3989,7.9229-4.93,3.5933-.5174,8.3019.0288,11.8515.0288,0,0,2.5228-.0005,2.7757-2.2638a28.7752,28.7752,0,0,1,5.723.1163c5.6283.8912,11.0467,3.7835,15.9932,6.1148.9729.4586,2.1729.416,3.112.9335a32.9982,32.9982,0,0,1,8.0354,7.6067c1.6748,2.6607,1.3445,5.727,1.8571,8.555.1078.5949,1.9018,5.4389,2.2349,6.349-.036,2.7409.4752,5.9864,0,8.6754-.574,3.2459-2.7811,6.2609-3.3539,9.5231Z" fill="none"/><path d="M176.3425,135.0934c-.4784,2.7246-.0619,4.754-.4871,7.1554l-.6435.6092a2.3142,2.3142,0,0,0-.7471.7073l-.6971.66c-1.8055,1.7086-4.0167,4.737-6.2013,5.9684-2.4573,1.385-6.31,1.921-9.0395,2.8157-10.08-.1184-20.3288,1.0331-29.9768-2.0132-2.03-.641-4.2831-.8224-6.122-1.8589-2.2073-1.2441-4.3519-4.2637-6.2016-5.9687a9.2535,9.2535,0,0,1-1.8345-1.6367c-.5912-.963-.5018-2.2253-1.119-3.1736-1.03-1.5822-3.548-2.1251-4.2651-3.855-.2788-.6728.1828-1.4391.2116-2.1614.0842-2.1117-.0021-4.2346-.0021-6.3478,0-3.8624-.729-8.4783-.0359-12.2733.2005-1.0975.9242-2.0758,1.1177-3.1744.6566-3.7279.81-8.2876,2.9757-11.7284,1.7319-2.7516,4.3606-2.9679,6.9161-4.4329,2.87-1.6456,4.2318-4.3989,7.9229-4.93,3.5933-.5174,8.3019.0288,11.8515.0288,0,0,2.5228-.0005,2.7757-2.2638a28.7752,28.7752,0,0,1,5.723.1163c5.6283.8912,11.0467,3.7835,15.9932,6.1148.9729.4586,2.1729.416,3.112.9335a32.9982,32.9982,0,0,1,8.0354,7.6067c1.6748,2.6607,1.3445,5.727,1.8571,8.555.1078.5949,1.9018,5.4389,2.2349,6.349-.036,2.7409.4752,5.9864,0,8.6754-.574,3.2459-2.7811,6.2609-3.3539,9.5231Z" fill="none"/><path d="M147.0975,196.5371a1.9348,1.9348,0,0,1-2.4629.0715,2.0877,2.0877,0,0,1-.5912-2.956l4.345-1.9209a87.8681,87.8681,0,0,1,10.9337,13.6672,76.6464,76.6464,0,0,1,7.1429,16.9759,104.9051,104.9051,0,0,1,3.8964,15.0145c.5912-2.0452,1.92-3.32,5.4524.461.4244.4543.3438,1.7438.0725,3.2073a2.1321,2.1321,0,0,1,.7371,1.1827l.5211,2.0847-.1048.0263.1525.23q0,.4242-.0123.8452c1.0229.4405,1.5655,1.2188-.1771,2.6222-.118,1.157-.281,2.3037-.459,3.449l.0688.2749-.1031.0258.1507.2308a20.2519,20.2519,0,0,0,.9515,7.5114c.2925.78,1.0381,1.4165,1.094,2.2479q.0075.1124.0131.2247l.0517-.0129,1.0224,4.09a2.1335,2.1335,0,0,1-2.0527,2.695v2.9718a8.8119,8.8119,0,0,1,.516,2.084,146.0078,146.0078,0,0,1,.532,14.8846l-.1324.2354.0847.0212-.5212,2.0847a2.1321,2.1321,0,0,1-3.4961,1.1185q-.0883.0074-.1787.0074a2.1264,2.1264,0,0,1-1.5959-.7185,2.1268,2.1268,0,0,1-1.596.7185h-2.4651c-.7752.2-1.5658.7729-2.3228.532-.1661-.0529-.3284-.114-.4875-.182l-.03.1184-2.0847-.5212q-.0453-.01-.09-.0224l-2.0383-.51a2.1323,2.1323,0,0,1-.5053-3.9728,4.62,4.62,0,0,1-.9651-.9519,2.1321,2.1321,0,0,1-1.2515-1.942v-.1844c-.5408-1.1372-.9772-2.3088-1.3709-3.1182-.4184-.86-1.2656-1.6357-1.232-2.5916l.0012-.0329q-.0694-.0036-.14-.0126c-1.5-.1908-1.3387-2.7128-1.9575-4.0927a17.761,17.761,0,0,1-1.3514-4.542c-1.8379-2.9564-1.397-6.0768-1.397-9.8972a1.9484,1.9484,0,0,1,.0162-.2141,8.654,8.654,0,0,1-1.5348-2.4088c-.3941-.8485.288-2.86.9964-4.3872q-4.0746-8.7769-7.6327-17.7676l-1.6482-2.8509a2.1319,2.1319,0,0,1,3.5472-2.358l2.5431,3.3908-.0067.005.0342.0324c.9875.94,3.5338,5.4624,4.388,6.74q.0494.0737.099.1471a2.1357,2.1357,0,0,1,2.0113.891l1.98,2.746-.0178.0129.0581.045c.4025.6437.7767,1.2474,1.1392,1.83a2.1422,2.1422,0,0,1,1.3758-.1782c-.6361-1.4311-1.216-2.888-1.7523-4.3577l-.3274-.85a1.8071,1.8071,0,0,1-.2061-.5354l-.9758-2.5338a2.1322,2.1322,0,1,1,3.9669-1.5636l.8426,2.0872-.034.0138.0885.23a11.7136,11.7136,0,0,1,1.41,2.094,2.1234,2.1234,0,0,1,1.3469-.4794q.0427,0,.085.0017a13.9682,13.9682,0,0,1-.0887-1.5939v-2.66a2.1319,2.1319,0,0,1,1.9205-2.1213c-.7941-3.3548-1.8414-6.6446-2.8811-9.9908a71.4133,71.4133,0,0,0-6.6888-16.0074,87.7113,87.7113,0,0,0-8.622-11.1416Zm6.4277,62.5157q-.077-.0315-.1508-.0685a3.4868,3.4868,0,0,0,.3371.4363,3.6607,3.6607,0,0,1-.1863-.3679Zm-.7036-3.4823.91-.91q-.1668-.3071-.319-.61a3.8948,3.8948,0,0,0-.6066,1.5361Zm12.5873-8.1695a2.1284,2.1284,0,0,1,.09.48c.0954-.6236.1759-1.2537.243-1.8852a2.1247,2.1247,0,0,1-.6377.34Zm.1539,40.116a2.1279,2.1279,0,0,1,1.06-.5986l2.0847-.5212.0132.0525q.074-.0324.149-.0629l-1.0324-1.6519q-.103.01-.2087.01a2.1341,2.1341,0,0,1-.5283-.066v.0623a2.1323,2.1323,0,0,1-1.82,2.109c.0956.2164.19.438.2819.6667Z" fill="none"/><path d="M182.5609,158.8239a38.8753,38.8753,0,0,1,10.7337,6.8523c5.7237,5.2677,9.7689,12.0986,14.7018,18.0439,2.358,4.1056,5.0039,8.2523,7.6173,12.1908l.9843,2.2739s.0074.0172.0192.0493a2.104,2.104,0,0,1,.6782,1.1307,2.1326,2.1326,0,0,1,1.5732,2.0577v.2729a1.9178,1.9178,0,0,1,2.04.9428,2.0877,2.0877,0,0,1-.5912,2.956c-2.807,1.7408-7.9118,2.907-11.0386.912a6.4348,6.4348,0,0,1-1.687-1.7636,2.2119,2.2119,0,0,1-1.6288-1.6586,21.4058,21.4058,0,0,0-.5833-2.12c-.9486-1.7308-1.7388-3.3945-2.5164-5.1476-.9983-1.56-2.1574-3.0912-3.43-4.82-3.2861-4.465-6.2171-9.4632-10.8908-12.7032-1.2522-.8681-2.797-1.2332-4.0946-2.0318-2.093-1.288-2.3208-2.2033-4.2872-2.5807a1.9852,1.9852,0,0,1-1.3144.2045,2.12,2.12,0,0,1-.29.1417,8.53,8.53,0,0,0-2.1317-11.49,8.5388,8.5388,0,0,0-10.46-5.675,2.1312,2.1312,0,0,1,1.0712-.6671l2.053-.5866.0156.0548q.1353-.0617.2743-.1162c2.1029-.8233,5.3556.3981,7.8789,1.2947q.8763.2751,1.7455.58l2.7361.9116a2.6619,2.6619,0,0,1,.8209.49Zm9.1513,11.6475a2.2394,2.2394,0,0,1-.373.0812q1.23,1.1765,2.4655,2.3442c-.6992-.822-1.3885-1.6345-2.0925-2.4253Z" fill="none"/><path d="M166.4128,155.37l2.1316-3.0626a20.9053,20.9053,0,0,1,7.5411,1.6748c7.47,2.6756,14.57,4.9539,20.3431,10.7416,2.8514,2.8587,4.77,6.46,7.338,9.5414,4.9351,7.3835,10.5139,14.0918,14.4638,22.0257,1.0591,2.1275,3.7521,4.6017,3.6479,7.1782-.2413,5.9625-8.1117,7.0881-12.3359,5.0379a8.9282,8.9282,0,0,1-3.8063-4.3981c-1.536-2.6789-3.6983-5.3462-4.9917-8.1237-.9775-2.099-1.1982-4.2285-2.6005-6.1834-1.79-2.4948-4.2776-4.438-6.5219-6.4808-3.4308-3.1227-7.6846-6.3618-12.5268-6.2694a2.1913,2.1913,0,0,1-2-1.3039,8.5489,8.5489,0,0,0,2.1225-2.9573c8.601.1854,17.573,7.7587,22.4115,14.5555,1.5565,2.1866,1.9195,4.5144,2.9852,6.85,1.2448,2.7282,3.4385,5.38,4.9384,8.0127.9478,2.52,2.381,3.0143,5.078,2.858.6534-.0378,3.1659-.2293,2.9845-1.5974-.2282-1.7209-2.4241-3.7305-3.1791-5.2345-3.8671-7.7041-9.2991-14.2194-14.0853-21.4187-2.4316-2.9179-4.232-6.3807-6.9366-9.0775-5.3182-5.3028-11.8879-7.2929-18.7567-9.7393a22.1732,22.1732,0,0,0-4.3908-1.3189q-.0283.0416-.0593.0824a8.6083,8.6083,0,0,0-3.3919-.0928,2.5944,2.5944,0,0,1-.4026-1.3Z" fill="none"/><path d="M138.7507,202.208a.323.323,0,1,1-.323-.323A.323.323,0,0,1,138.7507,202.208Z" fill="none"/><path d="M130.999,117.2632a4.2122,4.2122,0,1,1-4.1987-3.8758A4.047,4.047,0,0,1,130.999,117.2632Z" fill="none"/><path d="M162.6515,117.9091a4.2123,4.2123,0,1,1-4.1988-3.8758A4.047,4.047,0,0,1,162.6515,117.9091Z" fill="none"/><path d="M150.7316,131.878a2.0877,2.0877,0,0,1,2.1317,2.1316l-.1094,1.4136c-1.0774,3.1564-2.3736,6.0546-5.8412,7.2816-2.47.874-5.2707-.2849-7.6142-.6755-4.3534-.7256-8.1243-1.5239-11.9326-4.0277a2.1317,2.1317,0,0,1,2.3649-3.5473c3.2427,2.1991,6.5359,2.7476,10.2506,3.3667,1.7043.2841,3.8605,1.3388,5.6958.8034,1.9064-.5561,2.5212-2.9685,3.0321-4.5494L148.6,134.01a2.0877,2.0877,0,0,1,2.1316-2.1317Z" fill="none"/><path d="M176.2972,135.0722c.5728-3.2622,2.7757-6.2636,3.35-9.51.4755-2.689-.036-5.9224,0-8.6632-.3331-.91-2.1253-5.7448-2.2331-6.34-.5126-2.828-.1776-5.883-1.8523-8.5438a32.9107,32.9107,0,0,0-8.0256-7.5946c-.9392-.5175-2.1358-.4722-3.1086-.9307-4.9465-2.3314-10.3411-5.2139-15.9693-6.1051a28.6754,28.6754,0,0,0-5.7145-.116c-.2528,2.2633-2.771,2.2633-2.771,2.2633-3.55,0-8.2419-.5515-11.8352-.0341-3.6912.5314-5.042,3.2771-7.9121,4.9226-2.5555,1.4651-5.1772,1.6732-6.9091,4.4248-2.1657,3.4408-2.3123,7.9857-2.9688,11.7136-.1935,1.0987-.9162,2.0724-1.1166,3.17-.6931,3.795.036,8.3937.036,12.2561,0,2.1132.0842,4.228,0,6.34-.0288.7222-.4913,1.4861-.2125,2.1589.7171,1.73,3.2321,2.2664,4.2619,3.8486.6173.9483.5254,2.2067,1.1166,3.17a9.233,9.233,0,0,0,1.8325,1.6341c1.85,1.7049,3.9857,4.7163,6.1931,5.96,1.8388,1.0364,4.0844,1.2132,6.1146,1.8542,9.6481,3.0463,19.854,1.8933,29.9342,2.0118,2.73-.8947,6.5715-1.4244,9.0288-2.8094,2.1846-1.2313,4.3876-4.2519,6.1931-5.96l.6964-.659a2.3081,2.3081,0,0,1,.7463-.7062l.6428-.6083C176.24,139.8187,175.8188,137.7968,176.2972,135.0722ZM138.8559,82.1366c3.31,0,7.2394-.4779,10.4963.0342,6.1472.9665,12.1247,4.0084,17.5279,6.5741,1.1328.5379,2.5106.5554,3.5909,1.1825.3488.2025,4.461,4.1215,4.9725,4.6056.5039.4768,4.6623,4.3841,4.8671,4.7055,2.0965,3.29,2.0117,6.9385,2.614,10.4751.3744,2.1992,1.509,4.22,2.2331,6.34.0325,3.236.5611,7.16,0,10.3557-.5728,3.2622-2.7757,6.2636-3.35,9.5095-.6317,3.5723.0136,6.3-1.2238,9.9217l-1.4195.681-1.488,1.4081c-2.1294,2.015-4.6443,5.2573-7.2057,6.7188-2.9958,1.7093-7.7422,2.5123-11.07,3.53-10.9444.0984-22.12,1.0861-32.5939-2.2146-.717-.226-6.911-2.1592-7.2843-2.3722a40.4925,40.4925,0,0,1-9.84-9.3111c-.6173-.9484-.5254-2.2068-1.1166-3.17-1.1293-1.8395-3.8291-2.6315-4.6707-4.6042-1.0779-2.5267-.2125-7.7445-.2125-10.52,0-4.1793-.6661-8.9824.036-13.1024.1874-1.0995.9231-2.0712,1.1166-3.17.7726-4.3863,1.1688-9.6243,3.7306-13.6449.2182-.3425,5.0142-4.8754,5.3733-5.0847,1.0021-.5841,2.3375-.4882,3.35-1.0566,3.5741-2.0072,5.3505-4.8739,9.953-5.6434a45.5566,45.5566,0,0,1,8.8845-.1533c.4141-1.9941,2.7283-1.9941,2.7283-1.9941Z" fill="none"/><path d="M106.3375,173.1167a19.7782,19.7782,0,0,1,3.4735-.8594,2.1317,2.1317,0,0,1,.6029,4.2205,13.9743,13.9743,0,0,0-3.7534,1.0753l-2.04-3.7732a2.4061,2.4061,0,0,1,1.7175-.6632Z" fill="none"/><path d="M108.2282,157.7941l2.7362-.9116q.8686-.3054,1.7454-.58c2.5233-.8966,5.776-2.118,7.8789-1.2947q.1392.0545.2743.1162l.0157-.0548,2.053.5866a2.1324,2.1324,0,0,1,.3431,4.0031,2.1333,2.1333,0,0,1-2.7168,2.4932,2.1326,2.1326,0,0,1-2.0466,1.5947,2.1349,2.1349,0,0,1-1.228,2.2053,2.135,2.135,0,0,1-1.5146,1.6141,2.1317,2.1317,0,0,1-1.454,3.6745,2.1333,2.1333,0,0,1-2.1152,2.3981,2.1218,2.1218,0,0,1-1.0781-.2923,1.9854,1.9854,0,0,1-1.3145-.2045c-1.9664.3774-2.1941,1.2927-4.2872,2.5807-1.2976.7986-2.8424,1.1637-4.0946,2.0318-4.6737,3.24-7.6046,8.2382-10.8908,12.7032-1.2722,1.7287-2.4313,3.26-3.43,4.82-.7776,1.7531-1.5678,3.4167-2.5164,5.1476a21.4332,21.4332,0,0,0-.5833,2.12,2.2117,2.2117,0,0,1-1.6288,1.6585,6.4335,6.4335,0,0,1-1.6869,1.7637c-3.1269,1.995-8.2316.8288-11.0386-.912a2.0878,2.0878,0,0,1-.5912-2.9561,1.9176,1.9176,0,0,1,2.04-.9427v-.2729a2.1327,2.1327,0,0,1,1.5733-2.0578,2.1031,2.1031,0,0,1,.6782-1.1306c.0118-.0321.0192-.0494.0192-.0494l.9842-2.2739c2.6134-3.9384,5.2593-8.0852,7.6174-12.1907,4.9329-5.9454,8.9781-12.7762,14.7018-18.0439a38.873,38.873,0,0,1,10.7337-6.8523,2.6643,2.6643,0,0,1,.8209-.49ZM96.1636,172.3573q1.2327-1.17,2.4655-2.3442a2.2506,2.2506,0,0,1-.3731-.0812c-.704.7908-1.3932,1.6033-2.0924,2.4254Z" fill="none"/><path d="M121.4238,156.9617a1.9413,1.9413,0,0,1-1.7221-.8215,22.1752,22.1752,0,0,0-4.3908,1.3189c-6.8688,2.4464-13.4385,4.4364-18.7567,9.7393-2.7045,2.6968-4.5049,6.16-6.9365,9.0775-4.7862,7.1993-10.2183,13.7145-14.0854,21.4186-.7549,1.5041-2.9508,3.5137-3.179,5.2345-.1815,1.3682,2.3311,1.56,2.9845,1.5975,2.697.1563,4.13-.3378,5.078-2.858,1.5-2.6328,3.6935-5.2845,4.9384-8.0128,1.0656-2.3354,1.4286-4.6632,2.9852-6.85,4.8614-6.829,13.8955-14.4419,22.5336-14.5577a2.1317,2.1317,0,1,1,0,4.2634c-4.8422-.0924-9.096,3.1466-12.5267,6.2693-2.2444,2.0429-4.7324,3.9861-6.522,6.4809-1.4023,1.9548-1.623,4.0844-2.6,6.1834-1.2934,2.7774-3.4557,5.4447-4.9917,8.1237a8.9281,8.9281,0,0,1-3.8063,4.3981c-4.2242,2.05-12.0946.9246-12.3359-5.038-.1042-2.5764,2.5888-5.0506,3.6479-7.1781,3.95-7.9339,9.5287-14.6422,14.4638-22.0257,2.5677-3.0813,4.4866-6.6827,7.338-9.5414,5.7729-5.7878,12.873-8.0661,20.3432-10.7417a20.9072,20.9072,0,0,1,7.541-1.6747l2.1317,3.0626a2.0878,2.0878,0,0,1-2.1317,2.1317Z" fill="none"/><path d="M162.0488,173.3245a2.1345,2.1345,0,0,1-2.65-1.4811l-.9172-3.0573.0232-.0069q-.0294-.0614-.0578-.1231c-.5524-1.2018-.4371-2.6089-.6557-3.9133l.0133-.06-.02.0023-.3069-2.762a2.1331,2.1331,0,0,1,2.1152-2.3979,2.1221,2.1221,0,0,1,1.1491.3359,4.6,4.6,0,0,1,.8529-1.9436c3.0247-3.8131,10.859-1.5252,13.601,1.7555a5.1715,5.1715,0,0,1,1.0652,1.8382,1.678,1.678,0,0,1,1.5146.191c1.1791.84,1.4944,2.58,1.3691,4.2818a3.8763,3.8763,0,0,1,1.8417,1.43c.5879,1.09.3639,2.4681.2826,3.7036-.2682,4.0755-2.6353,4.6958-6.067,5.8915a7.2757,7.2757,0,0,1-2.8863.3323v.4115h-2.1722a2.1251,2.1251,0,0,1-1.4991-.6162c-.4355.1786-.8849.3852-1.3343.5559v.7214a2.1318,2.1318,0,0,1-4.2463.2705l-.3-2.1033c-.2089-1.09-.4427-2.1786-.7145-3.2567Zm15.0256-2.1907a18.6912,18.6912,0,0,1-1.3468,1.4141,2.6188,2.6188,0,0,0,1.4128-.7059C177.3056,171.6631,177.1636,171.3963,177.0744,171.1338Zm-3.3421-4.13q-.05.02-.0993.039.0537-.0143.1086-.0256Z" fill="none"/><path d="M176.5331,175.858a2.6363,2.6363,0,0,1,.5818-.5131l1.5907-.9539,2.14-1.2227a2.132,2.132,0,0,1,2.2451,3.6243l-1.8344,1.2229-.0195-.0294-.0422.069-2.2353,1.2788a2.0878,2.0878,0,0,1-2.9085-.7932,1.9848,1.9848,0,0,1,.4826-2.6827Z" fill="none"/><path d="M175.6066,156.9672a2.0878,2.0878,0,0,1-2.6353,1.464l-2.0311-.5855c-3.3341-.5084-6.7826.7907-10.1151,1.2668a2.1317,2.1317,0,1,1-.6029-4.2205c3.9621-.566,7.6-1.7628,11.6071-1.2158l2.3133.6557A2.0878,2.0878,0,0,1,175.6066,156.9672Z" fill="none"/><path d="M172.4128,253.8859l.0637-.015c-.5278-2.1113-1.6945-4.3781-2.1346-6.4112-.073-.3376-.057-5.2226-.057-5.81a2.5021,2.5021,0,0,1,.5666-1.5105l-.0346-1.1495a2.1317,2.1317,0,0,1,4.2634,0l-.0637,1.079c.6491,2.67.2864,5.03.58,7.7044.1594,1.4536.9008,2.8027,1.064,4.2559.4363,3.8865.0159,8.0453.0159,11.9642a76.2253,76.2253,0,0,0,.5216,7.77c.3964,4.041-.3994,8.1985,0,12.2358.1856,1.876.6991,3.7055.997,5.567-1.0271,1.0271-1.748,2.5049-3.0812,3.0812-.9163.3962-1.9628-.3862-2.9575-.4706a44.4525,44.4525,0,0,0-5.331,0c-1.1638.0414-2.5044.8723-3.4851.2442-1.0535-.6747-1.0713-2.2648-1.5033-3.4388-.7463-2.0284-1.3017-4.1354-2.0592-6.1614-1.29-3.4508-3.8332-6.1915-5.2666-9.4453-1.7508-3.9737-1.9556-9.5109-2.8043-13.7517a2.1986,2.1986,0,0,1,.8623-2.2026,1.9323,1.9323,0,0,1,1.76-.8791,2.0877,2.0877,0,0,1,2.1317,2.1316,23.58,23.58,0,0,0,1,6.3989l-.0287-.4583a2.0977,2.0977,0,0,1,.1727,2.8268,15.7687,15.7687,0,0,0,.798,4.1943,13.9444,13.9444,0,0,0,1.4189,1.8086,39.6637,39.6637,0,0,1,3.9542,7.8977q.8,2.1271,1.596,4.2559a8.0378,8.0378,0,0,1,.6007,2.3505c.0158.3089-.7485.82-.4393.8171.3751-.0031.4029-.747.7708-.82a19.0413,19.0413,0,0,1,6.3728,0c.4914.071,1.0581.8338,1.4092.4827-2.4967-4.888-.595-10.9938-1.131-16.2446-.585-5.7312.0068-11.6095-.3369-17.3642a2.6637,2.6637,0,0,1-.2055-.9335Z" fill="none"/><path d="M116.5576,238.4545a2.1332,2.1332,0,0,1,2.0313,2.78c2.7926,2.9775,5.098,6.1264,7.9879,9.0162l.6243,2.0393a2.4872,2.4872,0,0,1-.5938,1.54,4.7922,4.7922,0,0,0,.0459.8594,13.677,13.677,0,0,1,.5479,2.3884,7.649,7.649,0,0,1-1.4124,4.1515,2.1379,2.1379,0,0,1,.2732,1.7318l-.52,2.0815-.1049-.0262a5.4659,5.4659,0,0,1-.1081.56c-.1485.5949-.8639.8481-1.3282,1.2736a2.1224,2.1224,0,0,1-.0664.3675l-.52,2.0816-.0532-.0133q-.0055.1179-.0155.2358c-.0236.2776-1.9544,3.7891-2.128,4.256a26.2048,26.2048,0,0,1-2.686,5.7838q-.0014.0721-.0038.1442l-.1427.0744q-.1845.2712-.3874.5492l.068.068-.2874.2874-.8886,1.7772a2.1408,2.1408,0,0,1-.8751.9423q-.0125.1031-.0345.2029l-.5234,2.6168-.3032-.0606a13.3828,13.3828,0,0,1-.2393,2.77l-.0307.0446.019.0047-.5212,2.0847a2.13,2.13,0,0,1-.586,1.048q-.0395.1767-.0812.3479a1.207,1.207,0,0,1-.007,1.1491,3.5119,3.5119,0,0,1-.7173.8254,2.3308,2.3308,0,0,1-.185.2618c-1.82,2.2081-6.4355.9729-8.8041,1.2073-.79.0781-1.6105.7877-2.338.517v.5573h-2.66a2.1318,2.1318,0,0,1-1.2417-3.8645,2.5424,2.5424,0,0,1-1.2269-1.1c-.5764-1.1147,2.2123-6.4741,2.5973-8.0142,2.5649-5.13,2.7337-10.9448,4.2205-16.3877.76-2.782,1.9089-5.5223,2.6266-8.3933.8984-3.5933,1.5795-7.9521,3.405-11.173.4085-.7207,1.23-1.1253,1.7217-1.7922.74-1.0046.6971-2.4113,1.2572-3.5265l.5212-2.0847a2.1324,2.1324,0,0,1,2.0788-1.6579q.09,0,.1787.0074a2.1239,2.1239,0,0,1,1.4173-.5394Z" fill="none"/><path d="M128.7335,256.5308c-1.55,6.1986-3.1512,12.2571-6.0133,17.992-2.2078,4.4155-5.2011,8.3853-7.43,12.7306-1.2989,2.5325.2942,8.1059-2.2088,9.8079-2.624,1.7843-4.9606.3064-7.29-.9529-1.3153-.08-2.5517-.196-3.3376-.2076-1.2987-.019-2.9773.842-3.8957-.0764a2.0266,2.0266,0,0,1-.3753-1.817,5.21,5.21,0,0,1-1.7677-2.3132c-.3833-1.0971.2565-2.3224.5871-3.4366.882-2.9727,2.9925-5.3421,3.6551-8.2892.3861-1.5106,1.21-2.9659,1.7057-4.462q.1251-.4233.24-.85a6.5992,6.5992,0,0,0,.1347-.8153c.58-5.8758-.4033-11.811,1.7124-17.5029a77.5918,77.5918,0,0,1,4.9186-10.926c1.2067-2.1515,3.061-3.5577,3.5245-5.8751a2.1317,2.1317,0,0,1,4.1361,1.0341q-.0351.1252-.072.2465a2.5976,2.5976,0,0,1,.072,1.3494c-.886,3.5441-1.4484,7.4438-2.7287,10.8624-1.1072,2.9561-3.1476,5.5606-4.256,8.5118-2.3818,6.3418-2.2519,13.52-5.3028,19.65q-.028.1-.0572.1977a66.218,66.218,0,0,0-1.9714,8.4012,3.8333,3.8333,0,0,0,.0185.8141,1.4661,1.4661,0,0,1,.2542.0017,11.1014,11.1014,0,0,1,2.6071.6484,14.1442,14.1442,0,0,1,1.489.7014,5.2818,5.2818,0,0,0,2.1381-.0768c.3317-.0995.48-.5523.5269-.8954.2453-1.7713-.0183-3.6381.538-5.3376.8334-2.5458,2.5392-4.6021,3.9269-6.8128,2.0295-3.2329,2.9255-6.9057,4.602-10.2587.3634-1.4534,1.1023-2.7878,1.5789-4.2081,1.0386-3.0948,1.1849-6.1075,2.677-9.0916l.4632-1.9054a2.1317,2.1317,0,1,1,4.1361,1.034l-.2117.8284Z" fill="none"/><path d="M144.2174,230.4783a2.1317,2.1317,0,1,1,2.1317,2.1317A2.1316,2.1316,0,0,1,144.2174,230.4783Z" fill="none"/><path d="M104.9112,73.3075c1.1816,12.1249,77.144,24.6494,80.1968,0C186.608,61.1955,102.7382,51.0107,104.9112,73.3075Z" fill="#784b20"/><path d="M121.5991,76.77s-.3371-28.9753,12.1207-29.754,8.5279,8.5648,15.5538,7.3968,8.5831-10.9005,15.2012-9.3433,5.7415,31.7,5.7415,31.7" fill="#884a05"/><path d="M122.1424,69.5952s42.5769,6.261,48.1124,0v9.5364s-43.4139,1.1357-46.5443-1.2833S122.1424,69.5952,122.1424,69.5952Z" fill="#492300"/></svg>