<svg id="a0b9c94c-818d-41e5-90e4-34d9bfe64806" data-name="Layer 1" xmlns="http://www.w3.org/2000/svg" viewBox="0 0 290 357.9"><title>baby</title><path d="M175.1848,97.3192c2.4329-3.0521,5.3879-1.71,4.7833,2.1757-.3188,2.0492-2.359,3.1753-3.5193,4.7866l-.55,1.0994a1.25,1.25,0,1,1-2.2369-1.1164l.0541-.1081c-.9623-.1719-1.9987-.4163-2.2549-.4849a11.6364,11.6364,0,0,1-6.5128-4.9252,7.6633,7.6633,0,0,1-4.063,5.6157,22.2788,22.2788,0,0,1-2.4727,1.6313,11.9869,11.9869,0,0,1-4.1721.328,3.57,3.57,0,0,1-1.5617.5624c-2.7446.3644-4.9257-1.345-6.5094-3.6747a4.5585,4.5585,0,0,1-1.1324,2.3985c-.0191.0163-2.7106.614-3.1027.7918a38.302,38.302,0,0,1-3.475,1.6236c-1.65.4587-3.765.8235-4.2089-.3605-4.4485,1.337-8.8052-2.7341-11.566-5.9778-.91,1.342-2.5957,2.6234-3.2688,3.5729-3.2365,3.2292-7.2358,4.209-11.66,4.209H106.368a1.2508,1.2508,0,0,1-1.2326-1.4587,1.49,1.49,0,0,1-.0077-.3428c.7413-5.182,6.2677-9.8126,11.4614-10.212,1.6919-.13,4.2369-.5555,5.6577.4629a1.2475,1.2475,0,0,1,.9736-.466h1.5861a34.6729,34.6729,0,0,1,4.7241.2519c2.1234,1.0309,4.8891,2.231,6.3595,4.1775q.0311.0413.0614.083a25.7287,25.7287,0,0,1,4.7186-4.8254,16.8865,16.8865,0,0,1,2.5221-1.8993,1.156,1.156,0,0,1,1.0657-1.1456,1.13,1.13,0,0,1,1.1119.3852c.0186-.0009.0373-.0013.0562-.0013a1.2453,1.2453,0,0,1,.5815.1432l1.1671.5836A24.3665,24.3665,0,0,1,149.7325,96.7a30.0827,30.0827,0,0,1,3.6792,3.4573A12.37,12.37,0,0,1,160.05,94.161c.977-.3768,1.9311-1.2855,2.955-1.066.0445.01.0879.0193.1305.0294a1.2445,1.2445,0,0,1,.7292-.2346,1.258,1.258,0,0,1,.1746.0121l1.51.1888a10.6864,10.6864,0,0,1,3.2744.5459c1.7574,1.38,4.3029,2.6169,5.8493,4.4373a5.9492,5.9492,0,0,1,.5118-.7547Zm-1.5743,4.4541c-.0694-.1647-.1393-.3569-.2091-.5545a1.2573,1.2573,0,0,1-.35.3261c.2092.0774.4.1542.559.2284ZM160.8621,101.4a4.87,4.87,0,0,0,.4825-.4845,1.2635,1.2635,0,0,1-.1912.0246c-.0949.1514-.1921.3053-.2912.46Z" fill="#deedc6"/><path d="M104.92,108.2165a1.25,1.25,0,1,1,1.25,1.25A1.25,1.25,0,0,1,104.92,108.2165Z" fill="#fff"/><path d="M108.092,105.8374a1.25,1.25,0,1,1,1.25,1.25A1.25,1.25,0,0,1,108.092,105.8374Z" fill="#fff"/><path d="M110.6694,103.6565a1.25,1.25,0,1,1,1.25,1.25A1.25,1.25,0,0,1,110.6694,103.6565Z" fill="#fff"/><path d="M113.0486,102.2686a1.25,1.25,0,1,1,1.25,1.25A1.25,1.25,0,0,1,113.0486,102.2686Z" fill="#fff"/><path d="M114.4364,98.8982A1.25,1.25,0,1,1,116.87,99.3a1.249,1.249,0,1,1-.7816.7816,1.2508,1.2508,0,0,1-1.6523-1.1838Z" fill="#fff"/><path d="M118.9965,99.4929a1.25,1.25,0,1,1,1.25,1.25A1.25,1.25,0,0,1,118.9965,99.4929Z" fill="#fff"/><path d="M109.2816,108.4148a1.25,1.25,0,1,1,1.25,1.25A1.25,1.25,0,0,1,109.2816,108.4148Z" fill="#fff"/><path d="M111.859,106.63a1.25,1.25,0,1,1,1.25,1.25A1.25,1.25,0,0,1,111.859,106.63Z" fill="#fff"/><path d="M114.4364,105.2426a1.25,1.25,0,1,1,1.25,1.25A1.25,1.25,0,0,1,114.4364,105.2426Z" fill="#fff"/><path d="M117.6087,102.8634a1.25,1.25,0,1,1,1.25,1.25A1.25,1.25,0,0,1,117.6087,102.8634Z" fill="#fff"/><path d="M120.7809,101.2773a1.25,1.25,0,1,1,1.25,1.25A1.25,1.25,0,0,1,120.7809,101.2773Z" fill="#fff"/><path d="M106.9024,102.6652a1.25,1.25,0,1,1,1.25,1.25A1.25,1.25,0,0,1,106.9024,102.6652Z" fill="#fff"/><path d="M110.2729,100.8808a1.25,1.25,0,1,1,1.25,1.25A1.25,1.25,0,0,1,110.2729,100.8808Z" fill="#fff"/><path d="M123.7548,101.2773a1.245,1.245,0,0,1,.2988-.811,1.251,1.251,0,1,1,.5146-.3606,1.25,1.25,0,1,1-.8134,1.1716Z" fill="#fff"/><path d="M127.1253,105.0443a1.2447,1.2447,0,0,1,.2473-.7465,1.25,1.25,0,1,1,.8158-.49,1.266,1.266,0,0,1,.1869-.0139,1.25,1.25,0,1,1-1.25,1.25Z" fill="#fff"/><path d="M124.9444,98.8982a1.25,1.25,0,1,1,2.4086.47,1.2434,1.2434,0,1,1-.1363.2493,1.25,1.25,0,0,1-2.2723-.7194Z" fill="#fff"/><path d="M138.2885,104.5874a1.25,1.25,0,1,1-.84,2.1756,1.2511,1.2511,0,0,1-1.3588-.1727,1.2508,1.2508,0,1,1-.3606-.5146,1.2465,1.2465,0,0,1-.0784-.4366q0-.0613.0059-.1213a1.2491,1.2491,0,0,1-.6-1.0155,1.2565,1.2565,0,0,1-.703-.1266,1.25,1.25,0,0,1-2.2869.9243,1.2506,1.2506,0,0,1-.5311.3391,1.25,1.25,0,1,1-.77,0,1.2516,1.2516,0,0,1-.8153-1.54,1.25,1.25,0,1,1-.1876-2.4861q.03,0,.06.0014a1.25,1.25,0,0,1,2.2069-1.17,1.25,1.25,0,1,1-.37,1.6653,1.2441,1.2441,0,0,1-.7071.2191q-.03,0-.06-.0015a1.2561,1.2561,0,0,1,.0707.8859,1.2518,1.2518,0,0,1,1.2541.5838,1.2509,1.2509,0,0,1,1.48-.2653,1.25,1.25,0,1,1,2.4692-.3248,1.25,1.25,0,0,1,1.389,1.2423q0,.0615-.0059.1213a1.2453,1.2453,0,0,1,.1907.1427A1.2445,1.2445,0,0,1,138.2885,104.5874Z" fill="#fff"/><path d="M139.6159,103.8547a1.2461,1.2461,0,0,1,.3745-.8921,1.2466,1.2466,0,0,1-.374-.8585,1.2423,1.2423,0,0,1-.387-.1525,1.25,1.25,0,1,1-.494-.5556,1.25,1.25,0,1,1,2.3888-.5489,1.25,1.25,0,0,1,.6172,2.1155,1.25,1.25,0,1,1-2.1255.8921Z" fill="#fff"/><path d="M142.3916,103.4582a1.25,1.25,0,1,1,1.25,1.25A1.25,1.25,0,0,1,142.3916,103.4582Z" fill="#fff"/><path d="M144.7708,101.4756a1.2845,1.2845,0,0,1,.0084-.1463,1.2525,1.2525,0,0,1-1.3393-.8673,1.25,1.25,0,0,1-2.04-.9691l0-.0256a1.25,1.25,0,1,1,1.7067-1.1639l0,.0256a1.253,1.253,0,0,1,.7363.79,1.25,1.25,0,0,1,2.04.969,1.2637,1.2637,0,0,1-.0084.1464,1.2619,1.2619,0,0,1,.1463-.0085,1.2488,1.2488,0,0,1,.35.05,1.2609,1.2609,0,0,1-.014-.1876,1.2452,1.2452,0,0,1,.2988-.811,1.251,1.251,0,0,1-1.6695-.9644,1.25,1.25,0,1,1,.4831-1.2075,1.2526,1.2526,0,0,1,1.1-.2,1.25,1.25,0,1,1,2.4861-.1875,1.2449,1.2449,0,0,1-.1342.564,1.25,1.25,0,1,1-.13,2.4042,1.251,1.251,0,0,1-1.534,1.6025,1.25,1.25,0,1,1-2.486.1876Zm2.8361-2.6379a1.2475,1.2475,0,0,1,.4022.0662,1.2543,1.2543,0,0,1,.0681-.9663,1.259,1.259,0,0,1-.6221-.02,1.26,1.26,0,0,1,.0139.1875,1.245,1.245,0,0,1-.2987.811,1.2465,1.2465,0,0,1,.4366-.0784Z" fill="#fff"/><path d="M147.5465,104.053a1.25,1.25,0,1,1,1.25,1.25A1.25,1.25,0,0,1,147.5465,104.053Z" fill="#fff"/><path d="M149.5291,101.6738a1.25,1.25,0,1,1,1.25,1.25A1.25,1.25,0,0,1,149.5291,101.6738Z" fill="#fff"/><path d="M150.917,99.4929a1.25,1.25,0,1,1,1.25,1.25A1.25,1.25,0,0,1,150.917,99.4929Z" fill="#fff"/><path d="M149.9256,105.4409a1.25,1.25,0,1,1,1.25,1.25A1.25,1.25,0,0,1,149.9256,105.4409Z" fill="#fff"/><path d="M151.71,103.4582a1.25,1.25,0,1,1,1.25,1.25A1.25,1.25,0,0,1,151.71,103.4582Z" fill="#fff"/><path d="M153.2961,101.0791a1.25,1.25,0,1,1,1.25,1.25A1.25,1.25,0,0,1,153.2961,101.0791Z" fill="#fff"/><path d="M155.8735,98.7a1.25,1.25,0,1,1,1.25,1.25A1.25,1.25,0,0,1,155.8735,98.7Z" fill="#fff"/><path d="M158.6492,96.9155a1.25,1.25,0,1,1,1.25,1.25A1.25,1.25,0,0,1,158.6492,96.9155Z" fill="#fff"/><path d="M162.1406,102.07a1.25,1.25,0,0,1-2.3273.6344,1.25,1.25,0,1,1-.9152-2.2637,1.25,1.25,0,1,1,2.2.3964,1.25,1.25,0,0,1,1.0427,1.2329Z" fill="#fff"/><path d="M153.6926,105.4409a1.2508,1.2508,0,0,1,1.72-1.1586,1.2454,1.2454,0,1,1,.2493.1362,1.25,1.25,0,1,1-1.97,1.0224Z" fill="#fff"/><path d="M157.6579,104.45a1.25,1.25,0,1,1,1.25,1.25A1.25,1.25,0,0,1,157.6579,104.45Z" fill="#fff"/><path d="M161.6232,99.4929a1.25,1.25,0,1,1,1.25,1.25A1.25,1.25,0,0,1,161.6232,99.4929Z" fill="#fff"/><path d="M161.4249,96.519a1.25,1.25,0,1,1,1.25,1.25A1.25,1.25,0,0,1,161.4249,96.519Z" fill="#fff"/><path d="M162.8128,94.14a1.25,1.25,0,1,1,1.25,1.25A1.25,1.25,0,0,1,162.8128,94.14Z" fill="#fff"/><path d="M165.39,99.2947a1.245,1.245,0,0,1,.2988-.811,1.251,1.251,0,1,1,.5146-.3606,1.25,1.25,0,1,1-.8134,1.1716Z" fill="#fff"/><path d="M165.39,93.545a1.25,1.25,0,1,1,1.25,1.25A1.25,1.25,0,0,1,165.39,93.545Z" fill="#fff"/><path d="M168.3642,95.3294a1.249,1.249,0,1,1,.7142,1.13q.0014.03.0014.06a1.249,1.249,0,1,1-.7142-1.13C168.3646,95.37,168.3642,95.35,168.3642,95.3294Z" fill="#fff"/><path d="M167.9676,99.4929a1.25,1.25,0,1,1,1.25,1.25,1.25,1.25,0,0,1-1.25-1.25Z" fill="#fff"/><path d="M169.5537,101.6738a1.25,1.25,0,1,1,1.25,1.25A1.25,1.25,0,0,1,169.5537,101.6738Z" fill="#fff"/><path d="M172.3294,101.8721a1.25,1.25,0,1,1,1.25,1.25A1.25,1.25,0,0,1,172.3294,101.8721Z" fill="#fff"/><path d="M169.95,97.312a1.25,1.25,0,1,1,2.45.35,1.2488,1.2488,0,1,1-1.0128.886A1.2515,1.2515,0,0,1,169.95,97.312Z" fill="#fff"/><path d="M174.3121,104.2513a1.25,1.25,0,1,1,1.25,1.25A1.25,1.25,0,0,1,174.3121,104.2513Z" fill="#fff"/><path d="M174.7086,100.4843a1.25,1.25,0,0,1,2.061-.9513,1.2509,1.2509,0,0,1,1.0361-1.6793,1.25,1.25,0,1,1,1.2624.7011,1.25,1.25,0,0,1-1.9379,1.4928,1.254,1.254,0,0,1-.0419.9724q.03-.0014.06-.0014a1.249,1.249,0,1,1-1.13.7142q-.03.0015-.06.0015A1.25,1.25,0,0,1,174.7086,100.4843Z" fill="#fff"/><path d="M174.51,97.51a1.25,1.25,0,1,1,1.25,1.25A1.25,1.25,0,0,1,174.51,97.51Z" fill="#fff"/></svg>