<svg id="a150c025-e376-4123-9214-ba643786bbe5" data-name="Layer 1" xmlns="http://www.w3.org/2000/svg" viewBox="0 0 289.9976 357.9312"><title>hat</title><path d="M175.6049,101.9908s-27.021-17.1119-62.9585,1.2354c0,0-7.386,10.3872-3.38,22.76,0,0,65.315-2.2906,68.928,3.821C178.1947,129.8068,184.33,115.2368,175.6049,101.9908ZM126.8,121.139a3.8882,3.8882,0,1,1,4.1987-3.8758A4.0471,4.0471,0,0,1,126.8,121.139Zm31.6526.6459a3.8882,3.8882,0,1,1,4.1987-3.8758A4.0471,4.0471,0,0,1,158.4528,121.7849Z" fill="#fae849"/><polygon points="120.928 77.521 127.699 71.191 131.099 68.622 122.433 69.522 123.843 67.481 123.85 65.834 114.401 66.014 113.256 64.326 114.78 62.209 115.098 60.311 127.972 57.384 109.647 56.901 126.033 54.494 117.678 52.909 127.13 51.528 110.047 48.733 118.106 47.579 128.792 47.455 121.713 44.68 113.873 41.067 116.752 39.834 112.765 36.442 118.94 36.694 112.102 31.466 115.106 30.568 116.863 29.218 127.039 33.998 121.621 27.99 115.767 20.331 117.232 18.628 133.983 34.811 133.659 33.181 123.052 15.972 132.59 28.374 126.521 14.645 136.224 31.631 127.053 6.952 133.735 20.174 131.325 8.106 133.379 9.278 136.036 13.879 137.023 11.751 140.734 26.119 141.008 20.755 143.04 29.601 142.072 5.45 143.554 5.418 145.8 29.525 146.52 7.42 147.701 25.044 149.736 0 150.908 7.44 152.354 8.05 152.095 21.364 152.354 26.227 154.486 20.351 157.606 12.549 159.107 12.747 161.058 11.84 160.579 17.451 164.485 12.455 158.265 27.989 169.361 11.49 163.312 24.024 166.01 22.783 162.421 29.282 173.048 20.187 173.126 22.898 177.849 21.654 159.742 37.485 158.763 39.313 161.744 38.738 163.363 39.242 171.55 36.986 162.061 42.572 167.417 42.055 176.24 40.981 162.708 46.435 181.274 43.721 171.001 47.686 181.523 47.792 183.677 49.555 173.194 52.539 181.611 53.777 178.789 55.829 179.007 57.703 163.015 59.258 181.307 61.548 175.681 63.088 173.405 64.672 164.179 65.349 170.449 67.744 166.164 68.723 170.476 71.105 180.039 74.883 172.92 77.307 170.649 70.277 168.778 78.037 168.495 64.322 166.733 71.228 164.854 80.749 164.794 60.983 163.563 59.575 160.711 88.395 160.698 64.286 158.985 73.133 158.375 57.909 156.571 70.194 155.497 64.728 154.096 67.967 153.004 61.465 151.735 59.912 150.348 63.098 148.709 81.636 147.548 76.979 146.297 77.517 145.024 82.806 143.813 69.324 142.492 60.607 141.259 71.441 140.037 75.365 138.429 57.713 137.733 83.678 136.514 83.308 135.126 78.56 133.259 64.748 133.117 87.513 131.743 84.099 130.687 86.001 128.31 70.517 128.642 89.118 127.398 87.885 126.403 89.007 125.102 87.291 120.928 77.521" fill="#fbb03b"/><polygon points="123.092 82.108 129.362 76.099 132.511 73.66 124.486 74.514 125.792 72.576 125.798 71.013 117.049 71.184 115.989 69.581 117.4 67.571 117.695 65.77 129.615 62.991 112.647 62.533 127.82 60.247 120.083 58.743 128.835 57.431 113.017 54.778 120.479 53.682 130.374 53.565 123.82 50.93 116.56 47.5 119.226 46.329 115.534 43.109 121.251 43.348 114.92 38.385 117.702 37.533 119.329 36.251 128.751 40.789 123.734 35.085 118.313 27.814 119.671 26.198 135.181 41.561 134.881 40.013 125.059 23.676 133.891 35.449 128.271 22.416 137.256 38.542 128.764 15.112 134.951 27.665 132.719 16.208 134.622 17.32 137.082 21.689 137.996 19.668 141.432 33.309 141.686 28.216 143.567 36.614 142.67 13.686 144.043 13.656 146.122 36.543 146.789 15.557 147.883 32.288 149.767 8.512 150.853 15.575 152.191 16.155 151.951 28.795 152.191 33.412 154.165 27.833 157.055 20.426 158.444 20.614 160.25 19.753 159.807 25.079 163.424 20.337 157.664 35.084 167.939 19.42 162.338 31.32 164.836 30.142 161.513 36.312 171.353 27.677 171.425 30.25 175.798 29.07 159.032 44.099 158.125 45.835 160.886 45.289 162.385 45.767 169.966 43.625 161.179 48.929 166.139 48.438 174.308 47.419 161.778 52.596 178.97 50.019 169.458 53.784 179.2 53.884 181.195 55.559 171.488 58.391 179.282 59.567 176.669 61.515 176.87 63.293 162.062 64.77 179.001 66.944 173.791 68.406 171.683 69.91 163.14 70.552 168.946 72.826 164.978 73.756 168.971 76.017 177.826 79.604 171.235 81.905 169.131 75.231 167.399 82.598 167.137 69.577 165.505 76.134 163.766 85.172 163.71 66.408 162.571 65.07 159.929 92.432 159.917 69.543 158.331 77.943 157.767 63.489 156.096 75.152 155.102 69.963 153.805 73.038 152.793 66.865 151.618 65.391 150.334 68.415 148.816 86.015 147.741 81.594 146.583 82.104 145.405 87.125 144.283 74.326 143.06 66.05 141.918 76.336 140.786 80.062 139.297 63.303 138.653 87.953 137.525 87.603 136.239 83.095 134.511 69.982 134.379 91.595 133.107 88.353 132.129 90.159 129.927 75.458 130.235 93.118 129.083 91.948 128.162 93.013 126.957 91.384 123.092 82.108" fill="#f79239"/><polygon points="124.459 84.738 130.729 79.28 133.878 77.064 125.853 77.84 127.159 76.08 127.165 74.659 118.416 74.815 117.356 73.359 118.767 71.533 119.062 69.897 130.982 67.372 114.014 66.956 129.187 64.88 121.45 63.514 130.202 62.323 114.384 59.913 121.846 58.917 131.741 58.811 125.186 56.417 117.927 53.302 120.593 52.238 116.901 49.313 122.618 49.53 116.287 45.022 119.069 44.248 120.696 43.083 130.118 47.205 125.101 42.024 119.68 35.419 121.038 33.951 136.548 47.906 136.248 46.501 126.426 31.66 135.258 42.355 129.638 30.516 138.623 45.164 130.131 23.881 136.318 35.284 134.086 24.877 135.989 25.887 138.449 29.855 139.363 28.02 142.799 40.411 143.053 35.785 144.934 43.413 144.037 22.586 145.41 22.559 147.489 43.348 148.156 24.285 149.25 39.484 151.134 17.886 152.22 24.302 153.558 24.828 153.318 36.31 153.558 40.504 155.532 35.436 158.422 28.708 159.811 28.879 161.617 28.097 161.174 32.935 164.791 28.627 159.031 42.023 169.306 27.795 163.705 38.604 166.203 37.534 162.88 43.138 172.72 35.295 172.792 37.632 177.165 36.56 160.399 50.212 159.492 51.789 162.253 51.293 163.752 51.728 171.333 49.782 162.546 54.599 167.506 54.153 175.675 53.227 163.145 57.93 180.337 55.59 170.825 59.009 180.567 59.1 182.562 60.622 172.855 63.194 180.649 64.262 178.036 66.032 178.237 67.648 163.429 68.989 180.368 70.964 175.158 72.292 173.05 73.657 164.507 74.241 170.313 76.307 166.345 77.151 170.338 79.205 179.193 82.464 172.602 84.553 170.498 78.492 168.766 85.183 168.504 73.356 166.872 79.311 165.133 87.522 165.077 70.477 163.938 69.262 161.296 94.116 161.284 73.325 159.698 80.954 159.134 67.825 157.463 78.42 156.469 73.706 155.172 76.499 154.16 70.892 152.985 69.552 151.701 72.3 150.183 88.287 149.108 84.271 147.95 84.735 146.772 89.296 145.65 77.669 144.427 70.152 143.285 79.495 142.153 82.879 140.664 67.656 140.02 90.048 138.892 89.729 137.606 85.634 135.878 73.723 135.746 93.355 134.474 90.411 133.496 92.051 131.294 78.698 131.602 94.739 130.45 93.676 129.529 94.643 128.324 93.164 124.459 84.738" fill="#f15634"/><path d="M141.4253,95.3892s-3.4984,32.7322,4.38,32.649c6.6817-.07,5.0815-32.649,5.0815-32.649Z" fill="#f1f2f2"/><circle cx="146.0132" cy="100.1476" r="1.9514" fill="#f26135"/><circle cx="145.8056" cy="107.0242" r="1.9514" fill="#f26135"/><circle cx="145.8056" cy="114.4401" r="1.9514" fill="#f26135"/><circle cx="145.8056" cy="121.7849" r="1.9514" fill="#f26135"/><path d="M182.4538,106.2291s15.6489-20.1167,7.1948-35.2886c-8.8948-15.9629-33.3492-17.6961-40.375-16.5282s-31.5958-1.5029-44.3,11.106c-15.5406,15.4238,0,40.7108,0,40.7108s23.76-10.213,40.0255-10.752C162.65,94.8923,182.4538,106.2291,182.4538,106.2291Z" fill="#42190c"/><path d="M190.6072,92.0864s-79.9419-6.2609-90.3353,0V82.55s81.5133-1.1357,87.3911,1.2833S190.6072,92.0864,190.6072,92.0864Z" fill="#c7b299"/><path d="M145.3752,76.6444s-5.86-19.2635.683-21.8256C146.0582,54.8188,153.2572,62.6631,145.3752,76.6444Z" fill="#f5d147"/><path d="M145.7432,84.9516s-5.86-19.2635.683-21.8256C146.4262,63.126,153.6252,70.97,145.7432,84.9516Z" fill="#cb3531"/><path d="M149.9033,78.6237s4.85-19.5424,11.7813-18.3854C161.6846,60.2383,163.8409,70.6647,149.9033,78.6237Z" fill="#f5d147"/><path d="M145.9581,85.9436s4.85-19.5424,11.7813-18.3854C157.7394,67.5582,159.8957,77.9846,145.9581,85.9436Z" fill="#cb3531"/><path d="M154.02,80.9235s13.3971-15.0315,18.9908-10.7782C173.0105,70.1453,170.06,80.3754,154.02,80.9235Z" fill="#f5d147"/><path d="M147.1183,85.562s13.3971-15.0314,18.9908-10.7782C166.1091,74.7838,163.159,85.0139,147.1183,85.562Z" fill="#cb3531"/><path d="M154.5546,84.5142s19.2865-5.7844,21.8227.769C176.3773,85.2832,168.5048,92.4513,154.5546,84.5142Z" fill="#f5d147"/><path d="M146.2461,84.85s19.2864-5.7844,21.8226.7689C168.0687,85.6184,160.1962,92.7865,146.2461,84.85Z" fill="#cb3531"/><path d="M141.9259,78.31s-5.8006-19.2816-12.6668-17.7869C129.2591,60.523,127.6155,71.0424,141.9259,78.31Z" fill="#f5d147"/><path d="M146.2245,85.4279s-5.8006-19.2815-12.6668-17.7868C133.5577,67.6411,131.9142,78.1605,146.2245,85.4279Z" fill="#cb3531"/><path d="M137.9269,80.8084S123.81,66.4505,118.4315,70.9723C118.4315,70.9723,121.8787,81.0458,137.9269,80.8084Z" fill="#f5d147"/><path d="M145.047,85.1036s-14.1165-14.3579-19.4954-9.836C125.5516,75.2676,128.9988,85.3411,145.047,85.1036Z" fill="#cb3531"/><path d="M137.5684,84.421s-19.5464-4.8338-21.759,1.8359C115.8094,86.2569,124.0233,93.0311,137.5684,84.421Z" fill="#f5d147"/><path d="M145.8834,84.3493s-19.5464-4.8338-21.7589,1.8358C124.1245,86.1851,132.3384,92.9594,145.8834,84.3493Z" fill="#cb3531"/><path d="M147.9209,91.9035s6.5492,14.5527-.7632,16.4883C147.1577,108.3918,139.1125,102.4658,147.9209,91.9035Z" fill="#11743b"/><path d="M147.51,85.6277s6.5492,14.5528-.7633,16.4883C146.7464,102.116,138.7012,96.19,147.51,85.6277Z" fill="#21b24b"/><path d="M142.8606,90.4082s-5.42,14.7634-13.166,13.8894C129.6946,104.2976,127.2848,96.4209,142.8606,90.4082Z" fill="#11743b"/><path d="M147.27,84.8783s-5.42,14.7634-13.1661,13.8894C134.1034,98.7677,131.6937,90.891,147.27,84.8783Z" fill="#21b24b"/><path d="M138.26,88.6708s-14.9718,11.3556-21.2229,8.1425C117.0375,96.8133,120.3344,89.0848,138.26,88.6708Z" fill="#11743b"/><path d="M145.9729,85.1666S131.0012,96.5222,124.75,93.3091C124.75,93.3091,128.0469,85.5806,145.9729,85.1666Z" fill="#21b24b"/><path d="M137.6626,85.9581s-21.5534,4.37-24.3877-.5809C113.2749,85.3772,122.0728,79.962,137.6626,85.9581Z" fill="#11743b"/><path d="M146.9477,85.7048s-21.5533,4.37-24.3876-.5809C122.56,85.1239,131.3579,79.7087,146.9477,85.7048Z" fill="#21b24b"/><path d="M151.7756,90.6452s6.4824,14.5665,14.1557,13.4373C165.9313,104.0825,167.768,96.1355,151.7756,90.6452Z" fill="#11743b"/><path d="M146.9718,85.2678s6.4824,14.5665,14.1556,13.4373C161.1274,98.7051,162.9641,90.7581,146.9718,85.2678Z" fill="#21b24b"/><path d="M156.2446,88.7577s15.7758,10.8468,21.7869,7.4308C178.0315,96.1885,174.1791,88.5784,156.2446,88.7577Z" fill="#11743b"/><path d="M148.2877,85.5128s15.7758,10.8468,21.7868,7.4308C170.0745,92.9436,166.2222,85.3335,148.2877,85.5128Z" fill="#21b24b"/><path d="M156.6454,86.0285s21.8438,3.6517,24.3163-1.3869C180.9617,84.6416,171.7824,79.5239,156.6454,86.0285Z" fill="#11743b"/><path d="M147.353,86.0827s21.8438,3.6517,24.3164-1.3869C171.6694,84.6958,162.49,79.5781,147.353,86.0827Z" fill="#21b24b"/><path d="M190.647,83.4237s2.4238-19.9888,9.4444-19.6882C200.0914,63.7355,203.5066,73.82,190.647,83.4237Z" fill="#f5d147"/><path d="M187.6267,91.1711s2.4238-19.9888,9.4444-19.6882C197.0711,71.4829,200.4863,81.5673,187.6267,91.1711Z" fill="#cb3531"/><path d="M193.1354,86.0671s12.5369-15.756,18.3593-11.8218C211.4947,74.2453,209.12,84.6242,193.1354,86.0671Z" fill="#f5d147"/><path d="M186.5038,91.0838s12.5369-15.7561,18.3593-11.8218C204.8631,79.262,202.4888,89.6408,186.5038,91.0838Z" fill="#cb3531"/><path d="M94.2623,85.2245S76.4713,75.7954,79.269,69.3493C79.269,69.3493,89.9074,69.7766,94.2623,85.2245Z" fill="#f5d147"/><path d="M100.4118,90.8217s-17.791-9.4291-14.9933-15.8752C85.4185,74.9465,96.0569,75.3738,100.4118,90.8217Z" fill="#cb3531"/><path d="M97.6221,83.8493S87.4083,66.4969,93.1685,62.4721C93.1685,62.4721,102.0061,68.41,97.6221,83.8493Z" fill="#f5d147"/><path d="M99.9277,91.8386S89.7138,74.4863,95.474,70.4614C95.474,70.4614,104.3117,76.399,99.9277,91.8386Z" fill="#cb3531"/><path d="M109.2667,126.1676s10.4943,25.04,28.3017,25.6,29.48,1.4963,40.6263-21.7788C178.1947,129.9886,177.9684,124.0454,109.2667,126.1676Zm43.4871,9.2555c-1.0774,3.1565-2.3736,6.0547-5.8411,7.2817-2.47.874-5.2707-.2849-7.6142-.6755-4.3533-.7256-8.1243-1.5239-11.9327-4.0277a2.1317,2.1317,0,0,1,2.365-3.5473c3.2427,2.1991,6.5359,2.7476,10.2505,3.3667,1.7044.2841,3.8606,1.3388,5.6958.8034,1.9065-.5561,2.5213-2.9685,3.0323-4.5495L148.6,134.01a2.0877,2.0877,0,0,1,2.1316-2.1317h0a2.0877,2.0877,0,0,1,2.1316,2.1316Z" fill="#e53d25"/></svg>