<svg id="b533ea70-3ddb-4200-8594-5cddd669d53c" data-name="Layer 1" xmlns="http://www.w3.org/2000/svg" viewBox="0 0 289.9976 357.9312"><title>hat</title><path d="M121.5991,76.77s-3.5277-26.0107,7.1344-32.5009c7.8376-4.7709,12.563-5.2554,22.939-4.8577,7.1171.2729,7.779,1.0765,12.8023,5.6581,5.78,5.2718,5.7415,31.7,5.7415,31.7" fill="#f2f2f2"/><path d="M106.2947,76.0352l7.504,14.7946a77.7335,77.7335,0,0,1,32.2049-7.5906c14.7092,0,27.738,7.5906,27.738,7.5906l9.3755-14.4532a3.22,3.22,0,0,0-1.3821-4.6917c-6.2846-2.8317-20.5327-8.3774-35.7313-8.3774-19.6524,0-32.877,5.582-38.3085,8.4051A3.2254,3.2254,0,0,0,106.2947,76.0352Z" fill="#f2f2f2"/><path d="M144.8648,42.0025s-14.4924-1.5185-19.5,7.7265-1.6868,16.1691-1.6868,16.1691,16.7687-2.5906,19.5473-2.5906Z" fill="#0071bc"/><path d="M146.0037,63.3075l1.2661-22.083s11.3391-1.9232,17.2448,5.4665c3.8025,4.7579,2.4267,19.67,2.4267,19.67S153.973,63.3075,146.0037,63.3075Z" fill="#0071bc"/><path d="M139.6961,58.8337s-2.3663.0668-2.3717-1.4525c0,0,2.5309,1.0283,3.46-.611s.2543-2.4551-.2-2.8479a1.77,1.77,0,0,0-2.1632-.0886,1.1141,1.1141,0,0,0-.38,1.6178c.2851.4634.8579.4191.9716.1594s-.4419-.4629-.3945-.7043.1729-.5615.8007-.4069.8639.389.98.9133-.5165,1.2776-1.19,1.396a2.3156,2.3156,0,0,1-1.8343-.5168,1.8965,1.8965,0,0,1-.5718-1.3973c.07-.519.4687-1.5889.8793-1.7647s1.1817-.4319,1.1817-.4319-1.7939-.76-2.1427-2.1759a3.4188,3.4188,0,0,1,.2569-2.4255s.8389-1.559,1.8407-1.3937a4.2546,4.2546,0,0,1,2.1253.6681,1.4317,1.4317,0,0,1,.8128,1.2878c.05.5427-.06,1.7433-.9763,1.9395s-1.5676.1624-1.9368-.1922-.5874-.6795-.5163-1.0416a.6954.6954,0,0,1,.6676-.5271c.2172.0113.4883-.0922.4236.3966s.346.6321.5567.5168.6186-.7561.2009-1.1829a1.3936,1.3936,0,0,0-1.5816-.4046,1.63,1.63,0,0,0-.9483,1.3182,2.3963,2.3963,0,0,0,.7847,1.9092,29.1524,29.1524,0,0,1,3.1139,1.8589,3.0234,3.0234,0,0,1,1.0741,2.1915c-.0086,1.0013-1.5,2.85-1.57,3.2073s-.4673.6238-.23,1.3286a4.1724,4.1724,0,0,0,.6882,1.232A2.0757,2.0757,0,0,1,139.6961,58.8337Z" fill="#fff"/><path d="M151.1705,58.6551s2.3663.0667,2.3716-1.4525c0,0-2.5308,1.0283-3.46-.6111s-.2543-2.4551.2-2.8479a1.77,1.77,0,0,1,2.1632-.0885,1.114,1.114,0,0,1,.38,1.6177c-.2851.4634-.8579.4192-.9716.1594s.4419-.4628.3945-.7042-.1729-.5616-.8008-.407-.8638.389-.98.9134.5164,1.2776,1.19,1.396a2.3154,2.3154,0,0,0,1.8342-.5169,1.8968,1.8968,0,0,0,.5719-1.3973c-.0706-.5189-.4687-1.5888-.8793-1.7647s-1.1818-.4319-1.1818-.4319,1.794-.76,2.1428-2.1758a3.4192,3.4192,0,0,0-.2569-2.4255s-.8389-1.5591-1.8407-1.3937a4.2539,4.2539,0,0,0-2.1254.668,1.4316,1.4316,0,0,0-.8127,1.2879c-.05.5426.06,1.7433.9763,1.94s1.5676.1623,1.9367-.1922.5875-.68.5164-1.0417a.6954.6954,0,0,0-.6677-.527c-.2171.0113-.4882-.0922-.4236.3966s-.346.632-.5567.5167-.6185-.7561-.2009-1.1829a1.3939,1.3939,0,0,1,1.5817-.4045,1.6294,1.6294,0,0,1,.9483,1.3181,2.3959,2.3959,0,0,1-.7848,1.9092,29.1677,29.1677,0,0,0-3.1138,1.8589,3.0233,3.0233,0,0,0-1.0741,2.1916c.0086,1.0012,1.5,2.85,1.57,3.2072s.4672.6238.23,1.3286a4.1731,4.1731,0,0,1-.6881,1.2321A2.0757,2.0757,0,0,0,151.1705,58.6551Z" fill="#fff"/><path d="M161.6567,74.8807s.9568-3.0088-.9887-3.5751c0,0,.3863,3.6229-2.0574,4.21s-3.2408-.578-3.5771-1.3049a2.3607,2.3607,0,0,1,.683-2.8056,1.4858,1.4858,0,0,1,2.2139.1081c.489.5361.2214,1.2541-.1534,1.3042s-.4306-.7369-.7576-.765-.7835.0149-.8164.8766a1.4392,1.4392,0,0,0,.81,1.593,1.9374,1.9374,0,0,0,2.2279-1.0121,3.0884,3.0884,0,0,0,.0128-2.5416,2.53,2.53,0,0,0-1.5806-1.2475c-.6912-.1007-2.2094.0157-2.586.4774s-.9888,1.3558-.9888,1.3558-.3133-2.5794-2-3.5479a4.56,4.56,0,0,0-3.2039-.5639s-2.3074.5014-2.4643,1.8465a5.6746,5.6746,0,0,0,.0738,2.9705c.3616,1.06.6745,1.2519,1.3517,1.516s2.2568.5647,2.8457-.5373.7853-1.95.4667-2.5535-.6547-1.0033-1.1451-1.0455a.9276.9276,0,0,0-.9215.6618c-.0655.2826-.298.5919.3524.689s.6828.6763.4574.9039-1.197.5146-1.59-.1779a1.8591,1.8591,0,0,1,.0638-2.1765,2.1732,2.1732,0,0,1,2.0389-.73,3.1958,3.1958,0,0,1,2.1585,1.7089,38.8953,38.8953,0,0,0,1.2363,4.6762,4.0325,4.0325,0,0,0,2.4139,2.1838c1.2866.3577,4.206-.8732,4.6894-.8316s.9717-.3693,1.7878.1949a5.5658,5.5658,0,0,1,1.3259,1.3358S164.5614,75.6484,161.6567,74.8807Z" fill="#0071bc"/><path d="M127.78,74.8807s-.9569-3.0088.9887-3.5751c0,0-.3863,3.6229,2.0573,4.21s3.2408-.578,3.5771-1.3049a2.3605,2.3605,0,0,0-.683-2.8056,1.4857,1.4857,0,0,0-2.2138.1081c-.4891.5361-.2215,1.2541.1534,1.3042s.4306-.7369.7575-.765.7835.0149.8165.8766a1.4394,1.4394,0,0,1-.81,1.593,1.9373,1.9373,0,0,1-2.2279-1.0121,3.0884,3.0884,0,0,1-.0128-2.5416,2.53,2.53,0,0,1,1.5806-1.2475c.6912-.1007,2.2093.0157,2.586.4774s.9887,1.3558.9887,1.3558.3133-2.5794,2-3.5479a4.56,4.56,0,0,1,3.2038-.5639s2.3074.5014,2.4643,1.8465a5.6746,5.6746,0,0,1-.0737,2.9705c-.3617,1.06-.6745,1.2519-1.3517,1.516s-2.2569.5647-2.8457-.5373-.7853-1.95-.4667-2.5535.6547-1.0033,1.1451-1.0455a.9276.9276,0,0,1,.9215.6618c.0655.2826.2979.5919-.3524.689s-.6829.6763-.4575.9039,1.197.5146,1.59-.1779a1.859,1.859,0,0,0-.0637-2.1765,2.1734,2.1734,0,0,0-2.039-.73,3.1957,3.1957,0,0,0-2.1584,1.7089,38.896,38.896,0,0,1-1.2364,4.6762,4.0323,4.0323,0,0,1-2.4138,2.1838c-1.2867.3577-4.206-.8732-4.6895-.8316s-.9717-.3693-1.7877.1949a5.5674,5.5674,0,0,0-1.326,1.3358S124.8755,75.6484,127.78,74.8807Z" fill="#0071bc"/><polygon points="114.885 84.925 108.883 74.371 118.356 70.621 111.135 74.787 114.885 84.925" fill="#0071bc"/><polygon points="174.447 84.22 180.449 73.666 170.975 69.917 178.196 74.083 174.447 84.22" fill="#0071bc"/></svg>