<svg xmlns="http://www.w3.org/2000/svg" viewBox="0 0 289.9976 357.9312"><title>hat</title><g id="2cd091e0-b2b4-4a3e-92bc-0ac81baa385a" data-name="Layer 2"><path d="M108.3363,156.47s-11.3816,2.9712-19.9519-20.1382-9.206-47.1482,3.61-60.1631,36.5609-19.3714,56.8272-19.9654S198.37,74.5492,201.2267,78.7964s7.8562,20.2829,2.8568,36.6135-13.32,40.0885-18.4843,43.0716-11.5809-5.3349-11.5809-5.3349,23.6459-45.5415,9.1525-56.4166a59.176,59.176,0,0,0-34.3736-12.2838c-6.1693-.172-39.7159,5.2667-37.9231,11.8772s-11.88,23.4591-4.37,34.6963,13.1193,20.1487,13.1193,20.1487Z" fill="#736357"/><polygon points="111.048 157.078 110.256 157.02 109.52 157.653 108.75 157.582 108.118 156.809 107.473 156.449 106.674 156.608 105.699 157.045 105.386 155.932 104.288 156.415 103.732 155.855 103.77 154.486 102.482 155.007 102.721 153.554 102.54 152.713 101.884 152.408 100.499 152.774 100.857 151.464 100.273 151.042 100.267 150.142 98.385 150.7 97.866 150.164 98.146 149.076 97.861 148.403 97.75 147.627 97.238 147.106 97.255 146.272 96.231 146.035 96.832 144.903 96.393 144.338 96.166 143.663 95.901 143.006 94.091 143.059 94.497 142.081 93.907 141.556 94.414 140.564 93.573 140.132 94.098 139.15 93.599 138.579 91.755 138.489 92.164 137.562 91.612 136.992 92.982 135.76 91.958 135.353 92.437 134.441 91.903 133.865 90.464 133.568 91.5 132.495 91.039 131.887 91.104 131.123 90.326 130.603 90.824 129.719 89.041 129.464 90.806 128.249 89.881 127.753 90.231 126.928 90.173 126.21 89.093 125.733 88.064 125.231 88.607 124.371 87.971 123.771 88.578 122.91 88.285 122.237 87.635 121.629 87.138 120.986 87.868 120.125 88.302 119.326 87.153 118.783 87.091 118.063 88.432 117.148 87.349 116.574 87.496 115.834 86.127 115.268 87.37 114.409 85.916 113.828 86.706 113.031 87.989 112.212 86.261 111.618 85.861 110.917 86.453 110.162 86.022 109.457 86.225 108.727 86.185 108.006 87.5 107.277 86.057 106.561 85.818 105.833 87.032 105.141 86.256 104.394 86.082 103.66 86.093 102.932 85.826 102.182 87.687 101.614 87.674 100.901 87.528 100.171 87.235 99.415 86.491 98.584 86.983 97.925 87.68 97.313 87.886 96.626 86.804 95.676 88.128 95.222 87.193 94.265 87.433 93.572 89.465 93.376 89.197 92.571 89.872 92.046 88.955 91.005 89.859 90.567 90.473 90.048 89.293 88.825 90.354 88.486 90.242 87.658 91.211 87.325 90.072 85.968 91.195 85.73 92.103 85.417 92.27 84.701 91.551 83.422 93.215 83.633 92.204 82.082 94.106 82.551 93.4 81.131 93.711 80.441 94.161 79.858 94.589 79.251 95.083 78.7 95.999 78.57 96.029 77.569 97.147 77.678 97.121 76.584 98.423 76.947 98.474 75.908 100.101 76.732 99.57 74.951 100.922 75.506 101.083 74.544 102.34 75.047 102.707 74.352 102.687 73.078 104.128 73.934 103.598 71.833 104.456 71.828 105.164 71.602 106.487 72.413 106.56 71.138 107.41 71.189 107.765 70.358 108.724 70.632 108.76 69.165 110.027 70.065 110.584 69.591 110.855 68.514 111.402 67.985 112.706 69.108 113.256 68.609 113.4 67.159 113.952 66.615 115.134 67.591 115.622 66.898 116.052 66.03 117.274 67.224 117.816 66.648 118.499 66.446 118.696 64.855 119.573 65.191 120.069 64.405 121.144 65.387 121.567 64.351 122.138 63.756 122.952 63.962 123.801 64.311 124.653 64.705 125.066 63.51 125.565 62.581 126.359 62.763 127.435 64.111 128 63.421 128.661 63.11 129.39 63.09 130.155 63.248 130.692 62.333 131.419 62.306 132.247 62.811 132.934 62.607 133.447 61.428 134.312 62.203 135.03 62.166 135.489 60.5 136.174 60.178 136.984 60.712 137.774 61.165 138.496 61.148 139.047 59.759 139.979 61.481 140.719 61.677 141.281 60.171 141.97 59.787 142.789 60.837 143.418 59.747 144.154 59.905 144.897 60.192 145.556 59.15 146.328 60.035 147.004 59.063 147.792 60.77 148.509 61.065 149.208 60.9 149.924 60.281 150.603 61.267 151.413 59.533 152.076 60.442 152.814 60.299 153.432 61.206 154.097 61.566 154.852 61.303 155.516 61.642 156.572 59.881 156.983 61.549 157.834 60.998 158.343 61.994 159.37 60.812 159.906 61.647 160.33 62.834 161.246 62.215 161.86 62.675 162.528 62.944 163.604 61.939 164.224 62.39 164.616 63.493 165.593 62.887 166.112 63.589 166.593 64.372 167.286 64.574 168.007 64.707 168.74 64.815 169.646 64.514 170.195 65.086 171.175 64.641 171.081 66.681 171.708 67.04 173.279 65.324 173.51 66.57 174.271 66.664 174.571 67.724 175.745 66.968 175.646 68.814 176.496 68.731 177.699 67.97 177.977 69.021 178.307 69.954 179.658 68.963 180.279 69.354 181.139 69.309 181.243 70.628 181.393 71.837 183.027 70.446 183.273 71.481 184.214 71.322 183.954 73.177 185.025 72.806 185.805 72.925 186.579 73.061 186.808 74.062 187.602 74.168 188.281 74.456 189.021 74.656 189.799 74.804 189.886 75.966 190.192 76.786 190.942 76.968 192.314 76.299 192.201 77.68 192.374 78.642 193.52 78.332 194.143 78.716 194.9 78.938 195.348 79.542 195.14 80.851 196.414 80.549 196.66 81.327 197.505 81.635 196.607 82.999 197.722 83.205 197.417 84.129 198.296 84.526 197.901 85.45 199.675 85.567 198.325 86.802 198.95 87.348 199.802 87.845 200.143 88.506 198.967 89.571 200.526 89.918 199.239 90.966 199.915 91.546 201.647 91.921 199.954 92.987 200.901 93.542 200.126 94.398 200.394 95.077 201.306 95.674 201.199 96.417 200.416 97.228 201.143 97.874 201.297 98.584 200.757 99.345 200.747 100.062 202.107 100.718 201.399 101.472 202.461 102.176 201.393 102.913 201.716 103.635 200.999 104.343 201.586 105.08 201.037 105.778 201.384 106.519 201.68 107.268 201.895 108.019 201.124 108.675 200.32 109.307 201.582 110.197 200.608 110.793 200.455 111.496 201.71 112.452 201.157 113.098 201.125 113.843 199.611 114.255 200.362 115.173 199.155 115.615 198.968 116.303 199.19 117.116 200.536 118.258 199.913 118.819 199.267 119.373 197.888 119.705 198.112 120.519 197.976 121.225 198.427 122.112 198.963 123.027 197.314 123.269 198.145 124.274 196.308 124.448 197.775 125.659 197.769 126.409 195.701 126.503 197.171 127.726 196.844 128.376 196.788 129.115 196.487 129.774 196.443 130.519 194.389 130.598 195.558 131.745 195.135 132.365 195.327 133.192 194.798 133.775 194.809 134.543 193.165 134.74 194.232 135.875 194.037 136.574 192.985 136.969 192.949 137.724 193.911 138.839 192.504 139.1 192.059 139.707 192.331 140.579 192.614 141.459 190.602 141.474 191.251 142.493 190.24 142.877 190.461 143.736 191.102 144.767 191.249 145.608 190.721 146.179 189.361 146.402 190.061 147.477 189.268 147.927 187.979 148.153 188.975 149.375 188.543 149.973 187.259 150.174 188.538 151.567 186.63 151.446 187.573 152.709 187.308 153.388 187.042 154.07 185.376 153.976 185.907 155.1 186.196 156.13 185.289 156.425 184.394 156.685 183.65 156.997 183.367 157.651 182.473 157.652 181.993 157.88 182.258 160 181.169 159.073 180.468 158.306 179.897 158.516 178.923 159.99 178.517 158.776 178.147 157.941 177.543 157.699 176.477 158.129 175.544 158.19 175.898 156.552 175.259 156.248 173.532 157.077 173.718 155.829 173.879 154.688 171.884 155.525 172.077 154.389 171.585 153.701 173.056 153.473 172.15 152.238 173.68 152.163 173.721 151.386 172.475 150.021 173.258 149.589 174.965 149.566 175.045 148.807 174.598 147.819 175.729 147.522 175.177 146.495 175.638 145.905 175.549 145.082 176.931 144.873 175.582 143.532 176.791 143.254 177.437 142.739 176.497 141.589 177.085 141.051 178.37 140.779 178.694 140.129 177.684 138.972 179.415 138.853 179.627 138.157 179.502 137.338 179.039 136.402 179.875 135.932 179.503 135.034 179.579 134.296 179.636 133.553 180.397 133.049 179.899 132.127 180.493 131.563 181.682 131.179 180.105 129.933 181.264 129.532 182.194 129.052 181.213 128.011 181.408 127.316 182.504 126.867 181.688 125.897 182.611 125.39 182.322 124.568 183.41 124.086 183.457 123.346 184.057 122.731 183.492 121.858 184.326 121.284 183.231 120.322 182.833 119.515 184.557 119.083 183.121 118.109 183.3 117.412 185.28 116.955 185.178 116.196 184.404 115.371 185.447 114.736 185.676 114.009 185.192 113.234 184.957 112.488 183.859 111.737 183.759 111.029 183.755 110.326 184.303 109.595 185.282 108.801 185.402 108.04 185.433 107.277 184.459 106.679 183.525 106.136 183.145 105.514 183.35 104.735 184.472 103.579 183.822 103.016 183.888 102.138 182.314 102.15 181.99 101.531 181.835 100.765 181.419 100.17 181.486 99.024 179.754 99.951 180.017 98.428 179.335 98.122 177.927 98.821 177.698 97.915 176.872 97.848 177.029 96.338 175.776 96.921 175.706 95.704 175.56 94.565 173.826 96.011 174.3 93.802 172.968 94.652 172.041 94.844 171.405 94.528 170.934 93.897 170.454 93.263 169.648 93.28 169.186 92.59 168.725 91.872 168.115 91.461 167.287 91.557 166.383 91.87 165.705 91.653 165.53 90.092 164.437 90.957 164.303 89.158 163.026 90.664 162.829 88.924 162.162 88.595 161.211 89.245 160.738 88.233 159.949 88.358 159.313 87.892 158.39 88.658 157.582 89.008 156.993 88.331 156.304 88.068 155.464 88.696 155.018 86.912 154.217 87.348 153.432 87.793 152.782 87.185 152.087 86.865 151.235 88.37 150.576 87.698 149.919 86.696 149.13 88.304 148.458 87.368 147.752 87.531 147.015 87.065 146.345 87.702 145.648 87.858 144.806 86.621 144.161 87.319 143.369 86.747 142.648 86.747 142.055 87.685 141.251 87.093 140.847 89.209 139.865 87.496 139.369 88.905 138.615 88.693 137.979 89.185 137.034 87.926 136.45 88.715 135.744 88.8 135.245 89.96 134.2 88.328 133.71 89.514 133.154 90.334 132.406 90.23 131.402 88.983 130.83 89.721 130.264 90.456 129.693 91.141 128.804 90.507 128.132 90.779 127.286 90.376 126.496 90.217 126.016 91.2 125.049 90.429 124.815 92.215 124.172 92.549 123.361 92.34 122.854 93.089 121.926 92.557 121.153 92.52 120.288 92.262 120.015 93.563 119.401 93.932 118.597 93.849 117.598 93.387 116.771 93.38 116.699 94.816 115.998 95.027 114.85 94.613 115.506 96.696 114.816 96.853 113.473 96.588 112.902 97.21 112.264 98.034 112.529 99.051 114.471 99.458 113.045 100.275 113.865 101.05 112.789 101.635 113.771 102.561 113.944 103.375 112.126 103.64 111.561 104.208 112.19 105.156 111.601 105.718 110.947 106.25 112.646 107.624 112.042 108.173 111.29 108.665 110.278 109.058 110.828 110.031 111.371 111 110.857 111.579 109.526 111.868 108.659 112.334 109.459 113.384 109.198 114.062 108.419 114.574 108.151 115.26 109.035 116.288 109.094 117.053 108.438 117.62 107.145 118.047 107.829 118.964 107.913 119.723 107.767 120.43 107.235 121.078 107.836 121.892 107.661 122.591 107.971 123.326 106.257 123.975 106.155 124.736 106.803 125.474 107.598 126.148 106.763 126.978 107.671 127.575 108.108 128.204 107.932 128.983 108.091 129.686 108.525 130.285 108.423 131.124 109.841 131.167 109.7 132.047 109.945 132.751 109.816 133.693 110.038 134.41 111.262 134.488 110.773 135.657 111.128 136.288 111.823 136.702 112.392 137.198 113.414 137.406 113.386 138.279 113.654 138.963 113.571 139.867 114.099 140.386 115.121 140.595 115.117 141.447 115.528 142.038 115.071 143.17 115.998 143.436 116.479 143.98 117.415 144.24 117.364 145.111 118.568 145.203 118.99 145.779 117.673 147.426 119.27 147.274 119.084 148.224 118.616 149.345 120.884 148.785 119.634 150.38 120.402 150.746 120.154 151.724 121.463 151.807 120.953 152.454 120.45 153.08 119.913 153.632 118.578 152.551 118.564 154.17 117.645 153.95 116.806 153.887 116.329 154.566 115.414 154.355 114.507 154.156 114.057 154.891 113.247 154.889 112.974 155.991 111.866 155.39 111.035 155.697 111.048 157.078" fill="#998675"/><polygon points="116.397 153.462 115.251 151.581 114.351 154.677 113.543 153.581 112.525 153.926 112.674 150.927 110.611 153.671 111.446 150.281 110.393 150.6 108.387 152.018 109.985 148.703 108.171 149.63 106.305 150.351 106.331 149.138 107.723 146.866 105.119 147.96 105.612 146.555 105.719 145.509 103.809 145.815 102.782 145.471 102.655 144.571 102.921 143.471 103.591 142.196 102.478 141.863 101.562 141.401 102.091 140.257 101.904 139.464 100.409 139.218 100.532 138.28 100.824 137.296 102.066 135.97 101.345 135.386 98.001 135.694 100.107 134.104 100.727 133.046 100.788 132.183 100.367 131.475 99.819 130.802 96.883 130.82 98.742 129.434 97.08 129.047 97.112 128.187 97.877 127.145 96.994 126.525 98.218 125.397 98.248 124.565 97.149 123.98 95.494 123.49 95.237 122.698 97.898 121.367 94.051 121.223 95.195 120.189 94.404 119.476 93.743 118.73 97.493 117.399 97.142 116.641 93.403 116.239 94.836 115.26 93.238 114.569 96.982 113.463 94.236 112.828 93.484 112.034 96.795 111.094 96.23 110.312 95.607 109.517 96.402 108.716 94.463 107.87 93.926 107.022 96.18 106.313 94.364 105.38 94.05 104.519 95.753 103.86 94.781 102.926 94.282 102.019 94.828 101.259 96.139 100.654 95.275 99.656 96.133 99.001 95.402 97.982 94.772 96.948 98.026 97.022 95.397 95.355 96.345 94.784 98.355 94.648 98.229 93.744 96.589 92.149 96.659 91.232 98.795 91.345 99.731 90.931 99.356 89.793 100 89.23 99.795 88.115 102.029 88.693 102.839 88.351 100.823 85.715 101.084 84.802 101.982 84.451 102.449 83.719 103.863 83.962 104.141 83.046 104.9 82.648 104.885 81.34 107.077 82.706 106.052 80.073 107.972 81.229 107.837 79.641 110.165 81.552 110.058 79.964 111.495 80.714 110.948 78.314 111.221 77.153 113.127 78.803 113.698 78.177 114.072 77.16 115.176 77.522 114.74 74.826 115.857 75.216 117.446 76.684 117.889 75.707 118.866 75.922 119.671 75.764 119.871 74.103 120.201 72.684 122.041 75.217 122.791 74.935 122.461 71.554 124.147 73.937 124.41 72.131 124.858 70.8 125.956 71.544 126.661 71.009 127.537 71.061 128.299 70.711 129.48 71.973 130.422 72.397 131.02 71.423 131.39 69.373 132.216 69.251 133.429 70.995 134.408 71.75 135.197 71.581 135.461 68.483 136.353 68.759 137.47 70.482 138.109 69.278 138.978 69.548 139.557 67.69 140.746 70.491 141.493 69.899 142.337 70.155 142.946 68.023 143.847 68.831 144.61 68.076 145.374 67.113 146.199 66.945 147.022 66.698 147.867 66.894 148.794 70.055 149.563 68.782 150.35 69.435 151.247 67.692 152.055 68.091 152.933 67.701 153.773 67.75 154.644 67.616 155.572 67.197 156.078 68.999 156.913 69.007 157.347 70.731 158.068 71.117 158.929 70.966 159.712 71.132 160.95 69.803 162.025 69.137 162.666 69.858 162.872 71.798 164.163 70.591 164.415 72.282 165.492 71.734 166.297 71.925 166.922 72.563 167.72 72.771 168.73 72.498 168.42 75.232 169.589 74.594 170.922 73.651 170.897 75.622 171.348 76.543 173.482 74.053 173.542 75.771 174.983 74.766 174.874 76.752 176.315 75.795 176.962 76.338 178.131 75.939 177.277 79.128 178.525 78.585 178.736 79.836 180.708 78.121 180.245 80.466 181.095 80.63 182.791 79.471 182.144 81.992 183.918 80.762 184.165 81.864 185.592 81.222 185.446 82.868 185.7 83.904 186.017 84.827 187.694 83.941 187.041 86.083 187.5 86.749 190.237 84.777 189.422 86.891 190.144 87.261 190.525 87.861 190.517 88.718 193.288 88.258 190.579 90.329 191.688 90.713 191.756 91.52 192.221 92.193 192.187 93.028 192.619 93.724 192.672 94.528 195.344 94.713 194.273 95.795 193.212 96.831 192.44 97.771 195.652 98.036 195.137 98.947 195.31 99.75 195.36 100.569 196.088 101.323 194.668 102.266 194.8 103.066 194.959 103.867 193.757 104.706 195.915 105.467 196.115 106.291 196.067 107.117 195.123 107.906 196.729 108.813 194.261 109.47 195.765 110.414 196.664 111.349 192.739 111.689 194.593 112.753 192.807 113.273 194.563 114.399 194.672 115.258 195.167 116.217 193.678 116.707 192.893 117.335 193.564 118.366 194.356 119.453 193.883 120.168 194.026 121.068 192.33 121.412 192.273 122.251 190.236 122.481 193.444 124.326 193.169 125.099 192.033 125.602 189.139 125.544 188.926 126.331 192.253 128.261 191.001 128.722 189.909 129.23 190.982 130.451 189.904 130.963 190.842 132.149 190.461 132.895 188.225 133.004 188.381 133.93 188.672 134.906 188.621 135.765 187.334 136.184 186.22 136.658 186.217 137.532 184.949 137.938 186.375 139.348 187.185 140.541 187.058 141.383 187.101 142.294 185.769 142.66 183.435 142.602 184.811 144.055 184.247 144.712 183.405 145.242 183.333 146.103 183.826 147.228 181.382 146.988 181.712 148.038 183.897 150.055 180.186 149.05 182.863 151.448 180.285 150.912 180.91 152.262 181.081 153.422 179.406 153.199 178.086 152.95 178.7 154.947 177.983 155.684 176.937 155.338 176.145 154.408 174.908 156.371 174.949 153.595 174.118 153.686 174.169 152.227 171.563 154.589 172.741 151.803 170.434 153.209 170.816 151.623 170.918 150.45 168.665 151.358 170.926 149.786 168.301 148.717 169.961 148.617 169.304 147.416 171.651 147.603 169.023 145.525 169.606 144.909 171.569 144.894 171.258 143.876 171.287 143.011 173.411 143.029 171.338 141.291 173.831 141.447 174.143 140.697 172.178 139.042 175.014 139.292 175.14 138.467 173.286 136.891 174.966 136.661 174.45 135.607 176.265 135.402 175.769 134.36 174.052 132.905 176.309 132.83 177.65 132.421 177.078 131.374 178.409 130.941 178.573 130.129 177.063 128.815 179.288 128.62 178.258 127.467 179.028 126.829 179.256 126.037 177.602 124.767 178.998 124.275 180.154 123.701 180.906 123.015 180.19 122.01 180.468 121.22 177.785 119.893 180.312 119.508 178.899 118.462 179.953 117.793 181.492 117.146 179.567 116.117 179.676 115.319 181.425 114.603 179.905 113.72 178.556 112.918 182.215 112.039 181.986 111.174 178.354 110.661 178.332 109.917 179.172 109.008 179.855 108.041 177.953 107.77 178.013 106.991 178.283 106.074 179.062 104.761 176.526 105.474 178.578 102.912 175.846 104.401 176.319 102.773 174.757 103.487 176.189 100.2 173.932 101.92 174.622 99.503 173.294 99.987 171.738 100.893 171.599 99.611 171.236 98.64 170.924 97.541 169.097 99.12 169.697 96.305 167.625 98.51 167.737 96.487 165.928 98.407 165.487 97.486 165.042 96.521 164.183 96.488 163.846 95.142 163.387 94.013 161.977 95.525 161.563 94.221 161.114 92.894 159.478 95.536 158.834 94.916 158.554 92.777 157.162 95.129 156.857 92.81 156.1 92.375 155.433 91.372 154.119 94.354 153.541 92.818 152.648 93.501 151.862 93.386 150.984 94.409 150.314 92.737 149.616 90.479 148.707 93.065 147.979 93.936 147.041 91.552 146.233 91.862 145.518 92.938 144.737 93.243 143.625 90.991 143.101 93.24 142.418 94.177 141.695 94.78 140.515 92.546 139.603 92.08 139.084 93.885 138.478 95.055 137.362 93.494 136.957 95.653 135.903 94.51 135.404 96.083 134.524 95.829 133.135 93.358 132.591 94.672 131.51 93.702 130.974 94.979 129.72 93.441 129.472 95.729 128.676 95.928 127.54 94.982 127.338 97.149 126.478 97.117 125.645 97.184 124.644 96.804 124.375 98.39 123.653 98.714 121.771 96.447 121.956 98.806 121.309 99.276 120.391 99.276 119.935 99.996 118.299 99.402 118.323 100.63 117.579 101.336 118.387 102.203 118.212 103.077 118.252 103.886 117.547 104.597 117.078 105.289 119.726 106.801 118.067 107.218 118.061 108.089 115.308 108.017 116.041 109.119 117.27 110.428 116.303 110.943 115.042 111.346 114.594 112.054 116.106 113.479 113.271 113.335 114.796 114.748 113.91 115.317 113.03 115.908 115.8 117.622 113.823 117.885 114.946 119.026 112.901 119.357 112.226 120.071 114.075 121.263 113.951 122.042 113.931 122.83 113.476 123.581 112.507 124.354 113.574 125.156 112.018 126.071 113.028 126.802 113.044 127.631 113.289 128.416 111.88 129.799 112.739 130.453 114.958 130.286 115.136 131.071 116.213 131.379 115.402 132.894 115.782 133.646 117.32 133.661 115.535 135.787 117.575 135.484 119.082 135.522 117.803 137.319 120.051 136.891 120.316 137.711 119.958 138.921 121.65 138.845 119.971 140.875 122.29 140.407 120.424 142.544 122.548 142.196 123.881 142.346 121.433 144.833 123.958 144.249 123.972 145.212 125.009 145.544 125.036 146.504 125.758 147.031 126.106 149.219 124.103 147.985 123.689 149.058 123.601 150.794 122.24 149.929 120.784 148.874 120.845 150.918 119.662 150.419 119.286 151.565 119.23 153.375 117.487 151.739 118.008 153.378 116.397 153.462" fill="#c7b299"/></g></svg>