<svg id="1ca32fc5-0ccc-4a41-800c-4edba8f051e2" data-name="Layer 1" xmlns="http://www.w3.org/2000/svg" viewBox="0 0 289.9976 357.9312"><title>hat</title><path d="M104.9112,73.3075c1.1816,12.1249,77.144,24.6494,80.1968,0C186.608,61.1955,102.7382,51.0107,104.9112,73.3075Z" fill="#009245"/><path d="M121.5991,76.77,119.171,38.5172s20.1522-2.2683,27.1781-3.4363,25.9062,3.7743,25.9062,3.7743L170.2163,76.77" fill="#39b54a"/><path d="M122.1424,69.5952s42.5769,6.261,48.1124,0v9.5364s-43.4139,1.1357-46.5443-1.2833S122.1424,69.5952,122.1424,69.5952Z" fill="#006837"/><path d="M157.66,52.3935s-1.0356-5.063-4.6026-3.1068,4.6026,9.32,4.6026,9.32,7.1342-7.3643,5.4082-8.7451S157.66,52.3935,157.66,52.3935Z" fill="#006837"/><path d="M151.5332,58.6937s-5.063,1.0356-3.1068,4.6027,9.32-4.6027,9.32-4.6027-7.3643-7.1341-8.7451-5.4081S151.5332,58.6937,151.5332,58.6937Z" fill="#006837"/><path d="M163.98,58.4838s5.0629-1.0356,3.1068-4.6026-9.32,4.6026-9.32,4.6026,7.3643,7.1342,8.7451,5.4082S163.98,58.4838,163.98,58.4838Z" fill="#006837"/><path d="M157.8334,64.7841s1.0356,5.0629,4.6027,3.1068-4.6027-9.32-4.6027-9.32-7.1341,7.3643-5.4081,8.7451S157.8334,64.7841,157.8334,64.7841Z" fill="#006837"/></svg>