<svg id="53a7727c-d1ad-44bc-b37b-367b71ad09e7" data-name="Layer 1" xmlns="http://www.w3.org/2000/svg" viewBox="0 0 289.9976 357.9312"><title>hat</title><path d="M89.7834,171.1446S85.5285,64.9673,114.4158,62.3131s19.1488-6.8269,35.4405-10.8081,20.2118,8.7673,35.5582,14.0757,22.74,114.965,22.74,114.965-14.8879-11.6061-24.087-25.8107c-7.6666-11.8384,1.322-53.5673-31.2038-55.5164-58.0039-3.4758-35.6275,40.5934-44.4272,56.19C106.3476,159.11,89.7834,171.1446,89.7834,171.1446Z" fill="#e6e6e6"/><path d="M95.6794,82.5758s89.5385,6.261,101.18,0v9.5364S105.56,93.2479,98.977,90.8289,95.6794,82.5758,95.6794,82.5758Z" fill="#1a1a1a"/><path d="M110.9435,137.4507l12.612,16.0858-16.4076,3.49S112.6675,142.56,110.9435,137.4507Z" fill="#b3b3b3"/><path d="M179.26,133.3662s-5.8967,16.9719-10.7158,18.9407l18.0513,6.0851S180.615,153.0038,179.26,133.3662Z" fill="#b3b3b3"/></svg>