<?xml version="1.0" encoding="utf-8"?>
<!-- Generator: Adobe Illustrator 22.0.1, SVG Export Plug-In . SVG Version: 6.00 Build 0)  -->
<svg version="1.1" id="Layer_1" xmlns="http://www.w3.org/2000/svg" xmlns:xlink="http://www.w3.org/1999/xlink" x="0px" y="0px"
	 viewBox="0 0 290 357.9" style="enable-background:new 0 0 290 357.9;" xml:space="preserve">
<style type="text/css">
	.st0{fill:#6D3B13;}
	.st1{fill:#5D0000;}
	.st2{fill:#884A14;}
	.st3{fill:#882414;}
	.st4{fill:#FF2458;}
	.st5{fill:#D12657;}
	.st6{fill:#784B20;}
	.st7{fill:#884A05;}
	.st8{fill:#492300;}
	.st9{fill:#D0D0D0;}
	.st10{fill:#FFFFFF;}
	.st11{fill:#DCCBB2;}
	.st12{fill:#FFECCF;}
</style>
<image style="overflow:visible;" width="1292" height="1306" xlink:href="../../../../../Desktop/Screenshot 2020-10-25 at 4.15.17 PM.png"  transform="matrix(8.513932e-02 0 0 8.513932e-02 89.6988 -211.9772)">
</image>
<g>
	<path d="M484.3,1110.9l-6.4,19.5c0,0-9.8-7.9-15.4,0.8s-5.6,8.7-5.6,8.7l0,0l37.6,12.4l11.4-34.4L484.3,1110.9z"/>
	<path d="M555.8,1108.6l6.4,19.5c0,0,9.8-7.9,15.4,0.8c5.6,8.7,5.6,8.7,5.6,8.7l0,0l-37.6,12.4l-11.4-34.4L555.8,1108.6z"/>
</g>
<path class="st0" d="M107.9,1069.8c0,0-16.9,19.2-16.4,42.7c0,0,66.4,17.6,94.8,2.7c0,0,4.3-17.2-4.9-42.2"/>
<g>
	<polygon class="st1" points="-231,1063 -231.4,1074.1 -152.7,1078.8 -153.7,1065.7 	"/>
	<polygon class="st2" points="-225.8,1066.3 -225.8,1070.9 -221.5,1071.9 -221.5,1066.3 	"/>
	<polygon class="st2" points="-217.7,1066.3 -217.7,1070.9 -213.4,1071.9 -213.4,1066.3 	"/>
	<polygon class="st2" points="-207.3,1067.1 -207.3,1071.6 -203,1072.6 -203,1067.1 	"/>
	<polygon class="st3" points="-198.9,1061.8 -198.9,1076.9 -185.2,1080.1 -185.2,1061.8 	"/>
	<polygon class="st2" points="-180.7,1068.6 -180.7,1073.2 -176.4,1074.2 -176.4,1068.6 	"/>
	<polygon class="st2" points="-170.9,1069.1 -170.9,1073.7 -166.6,1074.6 -166.6,1069.1 	"/>
	<polygon class="st2" points="-161.1,1069.1 -161.1,1073.7 -156.8,1074.6 -156.8,1069.1 	"/>
</g>
<path class="st2" d="M454.1,598.3l15.7,12.7c0,0,14.2-18.7,17.4-16.1c0,0-7.8,30.2,1.3,45.8l73.5,3.2c0,0,6.3-46.7,0-52.1
	c0,0,0.4,0.6,4.8,3.4s13.9,16.6,13.9,16.6l13.4-9.1c0,0-14.4-26.8-24.3-29.4s-14.6-5.4-14.6-5.4s-33.3,7.7-57.5-0.5
	C497.5,567.4,473.6,567.5,454.1,598.3z"/>
<g>
	<path class="st4" d="M115.9,569c0,0-12.1,23.5,28.9,56.1c0,0,24.8-18.8,29.9-56.3C174.7,568.8,155.1,574.9,115.9,569z"/>
	<path class="st4" d="M115.9,569c0,0-16.7,4-24.6-3.9C91.3,565.1,113.6,561,115.9,569"/>
	<path class="st4" d="M115.8,568.5c0,0-12.9,9-24.5,4.5C91.3,573,109.3,562.1,115.8,568.5"/>
	<path class="st5" d="M130,588c0,0,18.8-5.1,27.7-1.2C157.7,586.8,148.7,589,130,588z"/>
	<path class="st5" d="M132.6,579.7c0,0,18.8-5.1,27.7-1.2C160.2,578.5,151.3,580.6,132.6,579.7z"/>
</g>
<path d="M-235.3,523.3c0,0,6.6-26.5,41-28.7s44.6,33.1,44.6,33.1L-235.3,523.3z"/>
<path d="M407.1,208.5c0,0,63.7-144.4,118.4-133.5c54.8,10.9,54.4,45.9,44.6,69.2s-71.9,74.2-71.9,74.2L407.1,208.5z"/>
<g>
	<path class="st6" d="M104.9,73.3c1.2,12.1,77.1,24.6,80.2,0C186.6,61.2,102.7,51,104.9,73.3z"/>
	<path class="st7" d="M121.6,76.8c0,0-0.3-29,12.1-29.8c12.5-0.8,8.5,8.6,15.6,7.4c7-1.2,8.6-10.9,15.2-9.3s5.7,31.7,5.7,31.7"/>
	<path class="st8" d="M122.1,69.6c0,0,42.6,6.3,48.1,0v9.5c0,0-43.4,1.1-46.5-1.3C120.6,75.4,122.1,69.6,122.1,69.6z"/>
</g>
<g transform="translate(-157.40993,-80.01731)">
	<g>
		<g>
			<g>
				<path class="st9" d="M3.3,282.8c0,15.3-3.8,29.2-10.1,39.7c-0.6-1-1.6-1.9-3.6-1.9c-2,0-3.1,0.9-3.6,1.9
					c-0.5-0.2-1.1-0.3-1.7-0.3c-2.4,0-4.3,1.9-4.3,4.3c0,0.3,0,0.6,0.1,0.9l0.5,2.6l0.2,0l-0.1,0.3c-0.3,0.5,0,1.2,0.6,1.8
					c0,0,0,0,0,0c-0.9,0.1-1.9,0.2-2.8,0.2c0,0-4.3,0-4.3,4.3c0,1.3,0.4,2.2,1,2.8c-3.3,1.4-6.7,2.1-10.3,2.1
					c-21.2,0-38.4-26.3-38.4-58.8S-56.4,224-35.2,224c9,0,17.3,4.7,23.8,12.6c-4.2,0.5-7.5,4.1-7.5,8.5c0,2.8,1.4,5.3,3.5,6.9
					c1.1,3.5,4.3,6,8.1,6c2.4,0,4.5-1,6.1-2.5C1.7,263.6,3.3,272.9,3.3,282.8L3.3,282.8z"/>
				<path class="st10" d="M0.7,283.1c-0.1,14.6-3.7,27.8-9.5,37.7c-0.4-0.1-1-0.2-1.6-0.2c-2,0-3.1,0.9-3.6,1.9
					c-0.5-0.2-1.1-0.3-1.7-0.3c-2.4,0-4.3,1.9-4.3,4.3c0,0.3,0,0.6,0.1,0.9l0.5,2.6l0.2,0l-0.1,0.3c-0.3,0.5,0,1.2,0.6,1.8
					c0,0,0,0,0,0c-0.9,0.1-1.9,0.2-2.8,0.2c0,0-4.3,0-4.3,4.3c0,0.1,0,0.2,0,0.3c-3,1.2-6.1,1.9-9.3,1.9
					c-19.6-0.1-35.4-25.2-35.3-56c0.1-30.8,16.2-55.7,35.8-55.6c7.6,0,14.7,3.9,20.5,10.4c-2.8,1.4-4.7,4.3-4.7,7.6
					c0,2.8,1.4,5.3,3.5,6.9c1.1,3.5,4.3,6,8.1,6c1.4,0,2.7-0.3,3.9-0.9C-0.7,264.8,0.7,273.7,0.7,283.1L0.7,283.1z"/>
			</g>
			<path class="st10" d="M-2.2,215.1c-0.5,2.7-0.1,4.8-0.5,7.2l-0.6,0.6c-0.3,0.2-0.5,0.4-0.7,0.7l-0.7,0.7c-1.8,1.7-4,4.7-6.2,6
				c-2.5,1.4-6.3,1.9-9,2.8c-10.1-0.1-20.3,1-30-2c-2-0.6-4.3-0.8-6.1-1.9c-2.2-1.2-4.4-4.3-6.2-6c-0.6-0.6-1.4-0.9-1.8-1.6
				c-0.6-1-0.5-2.2-1.1-3.2c-1-1.6-3.5-2.1-4.3-3.9c-0.3-0.7,0.2-1.4,0.2-2.2c0.1-2.1,0-4.2,0-6.3c0-3.9-0.7-8.5,0-12.3
				c0.2-1.1,0.9-2.1,1.1-3.2c0.7-3.7,0.8-8.3,3-11.7c1.7-2.8,4.4-3,6.9-4.4c2.9-1.6,4.2-4.4,7.9-4.9c3.6-0.5,8.3,0,11.9,0
				c0,0,2.5,0,2.8-2.3c2-0.1,4-0.2,5.7,0.1c5.6,0.9,11,3.8,16,6.1c1,0.5,2.2,0.4,3.1,0.9c2.2,1.2,6.7,5.5,8,7.6
				c1.7,2.7,1.3,5.7,1.9,8.6c0.1,0.6,1.9,5.4,2.2,6.3c0,2.7,0.5,6,0,8.7C0.5,208.8-1.7,211.8-2.2,215.1L-2.2,215.1z"/>
			<path class="st10" d="M-2.2,215.1c-0.5,2.7-0.1,4.8-0.5,7.2l-0.6,0.6c-0.3,0.2-0.5,0.4-0.7,0.7l-0.7,0.7c-1.8,1.7-4,4.7-6.2,6
				c-2.5,1.4-6.3,1.9-9,2.8c-10.1-0.1-20.3,1-30-2c-2-0.6-4.3-0.8-6.1-1.9c-2.2-1.2-4.4-4.3-6.2-6c-0.6-0.6-1.4-0.9-1.8-1.6
				c-0.6-1-0.5-2.2-1.1-3.2c-1-1.6-3.5-2.1-4.3-3.9c-0.3-0.7,0.2-1.4,0.2-2.2c0.1-2.1,0-4.2,0-6.3c0-3.9-0.7-8.5,0-12.3
				c0.2-1.1,0.9-2.1,1.1-3.2c0.7-3.7,0.8-8.3,3-11.7c1.7-2.8,4.4-3,6.9-4.4c2.9-1.6,4.2-4.4,7.9-4.9c3.6-0.5,8.3,0,11.9,0
				c0,0,2.5,0,2.8-2.3c2-0.1,4-0.2,5.7,0.1c5.6,0.9,11,3.8,16,6.1c1,0.5,2.2,0.4,3.1,0.9c2.2,1.2,6.7,5.5,8,7.6
				c1.7,2.7,1.3,5.7,1.9,8.6c0.1,0.6,1.9,5.4,2.2,6.3c0,2.7,0.5,6,0,8.7C0.5,208.8-1.7,211.8-2.2,215.1L-2.2,215.1z"/>
			<path class="st10" d="M-31.5,276.6c-0.5,0.4-1.4,0.8-2.5,0.1c-1.8-1.2-0.6-3-0.6-3l4.3-1.9c4.2,4.2,7.7,8.7,10.9,13.7
				c3.2,5.4,5.3,11,7.1,17c1.6,5,3.1,9.9,3.9,15c0.6-2,1.9-3.3,5.5,0.5c0.4,0.5,0.3,1.7,0.1,3.2c0.4,0.3,0.6,0.7,0.7,1.2l0.5,2.1
				l-0.1,0l0.2,0.2c0,0.3,0,0.6,0,0.8c1,0.4,1.6,1.2-0.2,2.6c-0.1,1.2-0.3,2.3-0.5,3.4l0.1,0.3l-0.1,0l0.2,0.2c0,2.7,0,5,1,7.5
				c0.3,0.8,1,1.4,1.1,2.2c0,0.1,0,0.1,0,0.2l0.1,0l1,4.1c0,0.2,0.1,0.4,0.1,0.6c0,1.2-1,2.1-2.1,2.1v3c0.3,0.7,0.5,1.4,0.5,2.1
				c0.5,4.9,0.6,10,0.5,14.9L0.1,369l0.1,0l-0.5,2.1c-0.2,0.9-1.1,1.7-2.1,1.7c-0.5,0-1-0.2-1.4-0.5c-0.1,0-0.1,0-0.2,0
				c-0.6,0-1.2-0.3-1.6-0.7c-0.4,0.4-1,0.7-1.6,0.7h-2.5c-0.8,0.2-1.6,0.8-2.3,0.5c-0.2-0.1-0.3-0.1-0.5-0.2l0,0.1l-2.1-0.5
				c0,0-0.1,0-0.1,0l-2-0.5c-0.9-0.2-1.7-1.1-1.7-2.1c0-0.8,0.5-1.5,1.2-1.9c-0.3-0.2-0.7-0.6-1-1c-0.7-0.3-1.3-1.1-1.3-1.9v-0.2
				c-0.5-1.1-1-2.3-1.4-3.1c-0.4-0.9-1.3-1.6-1.2-2.6c0,0,0,0,0,0c0,0-0.1,0-0.1,0c-1.5-0.2-1.3-2.7-2-4.1c-0.7-1.6-1.1-3.1-1.4-4.5
				c-1.8-3-1.4-6.1-1.4-9.9c0,0,0-0.1,0-0.2c-0.5-0.5-1-1.3-1.5-2.4c-0.4-0.8,0.3-2.9,1-4.4c-2.7-5.9-5.3-11.8-7.6-17.8l-1.6-2.9
				c-0.2-0.3-0.3-0.7-0.3-1.1c0-1.2,1-2.1,2.1-2.1c0.7,0,1.3,0.3,1.7,0.9l2.5,3.4l0,0c0,0,0,0,0,0c1,0.9,3.5,5.5,4.4,6.7
				c0,0,0.1,0.1,0.1,0.1c0.1,0,0.2,0,0.3,0c0.7,0,1.4,0.4,1.7,0.9l2,2.7l0,0l0.1,0c0.4,0.6,0.8,1.2,1.1,1.8c0.3-0.1,0.6-0.2,0.9-0.2
				c0.1,0,0.3,0,0.4,0c-0.6-1.4-1.2-2.9-1.8-4.4l-0.3-0.8c-0.1-0.2-0.2-0.3-0.2-0.5l-1-2.5c-0.1-0.3-0.2-0.5-0.2-0.8
				c0-1.2,1-2.1,2.1-2.1c0.9,0,1.7,0.6,2,1.4l0.8,2.1l0,0l0.1,0.2c0.5,0.7,1,1.3,1.4,2.1c0.4-0.3,0.8-0.5,1.3-0.5c0,0,0.1,0,0.1,0
				c-0.1-0.5-0.1-1.1-0.1-1.6v-2.7c0-1.1,0.8-2,1.9-2.1c-0.8-3.4-1.8-6.6-2.9-10c-1.7-5.6-3.7-11-6.7-16
				C-25.5,283.7-28.3,280-31.5,276.6L-31.5,276.6z M-25.1,339.1c-0.1,0-0.1,0-0.2-0.1c0.1,0.2,0.2,0.3,0.3,0.4
				C-24.9,339.3-25,339.2-25.1,339.1L-25.1,339.1z M-25.8,335.6l0.9-0.9c-0.1-0.2-0.2-0.4-0.3-0.6C-25.5,334.5-25.7,335-25.8,335.6
				C-25.8,335.6-25.8,335.6-25.8,335.6z M-13.2,327.4c0,0.2,0.1,0.3,0.1,0.5c0.1-0.6,0.2-1.3,0.2-1.9c-0.2,0.1-0.4,0.3-0.6,0.3
				L-13.2,327.4z M-13,367.5c0.3-0.3,0.6-0.5,1.1-0.6l2.1-0.5l0,0.1c0,0,0.1,0,0.1-0.1l-1-1.7c-0.1,0-0.1,0-0.2,0
				c-0.2,0-0.4,0-0.5-0.1v0.1c0,1.1-0.8,2-1.8,2.1C-13.2,367.1-13.1,367.3-13,367.5L-13,367.5z"/>
			<g>
				<path class="st10" d="M4,238.8c3.9,1.7,7.6,4,10.7,6.9c5.7,5.3,9.8,12.1,14.7,18c2.4,4.1,5,8.3,7.6,12.2l1,2.3c0,0,0,0,0,0
					c0.3,0.2,0.5,0.6,0.7,1.1c0.9,0.2,1.6,1.1,1.6,2.1v0.3c0.6-0.1,1.4,0,2,0.9c1.2,1.8-0.6,3-0.6,3c-2.8,1.7-7.9,2.9-11,0.9
					c-0.6-0.4-1.2-1-1.7-1.8c-1.3-0.2-1.6-1.7-1.6-1.7c-0.2-0.7-0.4-1.5-0.6-2.1c-0.9-1.7-1.7-3.4-2.5-5.1c-1-1.6-2.2-3.1-3.4-4.8
					c-3.3-4.5-6.2-9.5-10.9-12.7c-1.3-0.9-2.8-1.2-4.1-2c-2.1-1.3-2.3-2.2-4.3-2.6c-0.3,0.2-0.8,0.3-1.3,0.2C0.2,254,0.1,254,0,254
					c0.9-1.3,1.4-2.9,1.4-4.6c0-2.8-1.4-5.3-3.5-6.9c-1.1-3.5-4.3-6-8.1-6c-0.8,0-1.6,0.1-2.3,0.3c0.3-0.3,0.6-0.6,1.1-0.7l2.1-0.6
					l0,0.1c0.1,0,0.2-0.1,0.3-0.1c2.1-0.8,5.4,0.4,7.9,1.3c0.6,0.2,1.2,0.4,1.7,0.6l2.7,0.9C3.1,238.4,3.6,238.5,4,238.8L4,238.8z
					 M13.1,250.5c-0.1,0-0.3,0.1-0.4,0.1c0.8,0.8,1.6,1.6,2.5,2.3C14.5,252.1,13.8,251.3,13.1,250.5L13.1,250.5z"/>
				<path class="st9" d="M-12.2,235.4l2.1-3.1c2.9,0,4.9,0.7,7.5,1.7c7.5,2.7,14.6,5,20.3,10.7c2.9,2.9,4.8,6.5,7.3,9.5
					c4.9,7.4,10.5,14.1,14.5,22c1.1,2.1,3.8,4.6,3.6,7.2c-0.2,6-8.1,7.1-12.3,5c-1.7-0.8-3-2.6-3.8-4.4c-1.5-2.7-3.7-5.3-5-8.1
					c-1-2.1-1.2-4.2-2.6-6.2c-1.8-2.5-4.3-4.4-6.5-6.5c-3.4-3.1-7.7-6.4-12.5-6.3c0,0-1.5,0-2-1.3c0.9-0.8,1.6-1.8,2.1-3
					c8.6,0.2,17.6,7.8,22.4,14.6c1.6,2.2,1.9,4.5,3,6.8c1.2,2.7,3.4,5.4,4.9,8c0.9,2.5,2.4,3,5.1,2.9c0.7,0,3.2-0.2,3-1.6
					c-0.2-1.7-2.4-3.7-3.2-5.2c-3.9-7.7-9.3-14.2-14.1-21.4c-2.4-2.9-4.2-6.4-6.9-9.1c-5.3-5.3-11.9-7.3-18.8-9.7
					c-1.7-0.6-2.9-1.1-4.4-1.3c0,0,0,0.1-0.1,0.1c-0.6-0.1-1.3-0.2-1.9-0.2c-0.5,0-1,0-1.5,0.1C-12.2,236.1-12.2,235.4-12.2,235.4
					L-12.2,235.4z"/>
			</g>
			<path class="st11" d="M-39.8,282.2c0,0.2-0.1,0.3-0.3,0.3s-0.3-0.1-0.3-0.3s0.1-0.3,0.3-0.3S-39.8,282-39.8,282.2z"/>
			<path d="M-47.6,197.3c0,2.1-1.9,3.9-4.2,3.9s-4.2-1.7-4.2-3.9s1.9-3.9,4.2-3.9S-47.6,195.1-47.6,197.3z"/>
			<path d="M-15.9,197.9c0,2.1-1.9,3.9-4.2,3.9s-4.2-1.7-4.2-3.9s1.9-3.9,4.2-3.9S-15.9,195.8-15.9,197.9z"/>
			<path d="M-27.9,211.9c2.1,0,2.1,2.1,2.1,2.1l-0.1,1.4c-1.1,3.2-2.4,6.1-5.8,7.3c-2.5,0.9-5.3-0.3-7.6-0.7
				c-4.4-0.7-8.1-1.5-11.9-4c0,0-1.8-1.2-0.6-3s3-0.6,3-0.6c3.2,2.2,6.5,2.7,10.3,3.4c1.7,0.3,3.9,1.3,5.7,0.8c1.9-0.6,2.5-3,3-4.5
				L-30,214C-30,214-30,211.9-27.9,211.9L-27.9,211.9z"/>
			<path class="st9" d="M-2.3,215.1c0.6-3.3,2.8-6.3,3.3-9.5c0.5-2.7,0-5.9,0-8.7c-0.3-0.9-2.1-5.7-2.2-6.3
				c-0.5-2.8-0.2-5.9-1.9-8.5c-1.3-2.1-5.8-6.4-8-7.6c-0.9-0.5-2.1-0.5-3.1-0.9c-4.9-2.3-10.3-5.2-16-6.1c-1.8-0.3-3.8-0.2-5.7-0.1
				c-0.3,2.3-2.8,2.3-2.8,2.3c-3.5,0-8.2-0.6-11.8,0c-3.7,0.5-5,3.3-7.9,4.9c-2.6,1.5-5.2,1.7-6.9,4.4c-2.2,3.4-2.3,8-3,11.7
				c-0.2,1.1-0.9,2.1-1.1,3.2c-0.7,3.8,0,8.4,0,12.3c0,2.1,0.1,4.2,0,6.3c0,0.7-0.5,1.5-0.2,2.2c0.7,1.7,3.2,2.3,4.3,3.8
				c0.6,0.9,0.5,2.2,1.1,3.2c0.4,0.7,1.2,1.1,1.8,1.6c1.8,1.7,4,4.7,6.2,6c1.8,1,4.1,1.2,6.1,1.9c9.6,3,19.9,1.9,29.9,2
				c2.7-0.9,6.6-1.4,9-2.8c2.2-1.2,4.4-4.3,6.2-6l0.7-0.7c0.2-0.3,0.5-0.5,0.7-0.7l0.6-0.6C-2.4,219.8-2.8,217.8-2.3,215.1z
				 M-39.7,162.2c3.3,0,7.2-0.5,10.5,0c6.1,1,12.1,4,17.5,6.6c1.1,0.5,2.5,0.6,3.6,1.2c0.3,0.2,4.5,4.1,5,4.6
				c0.5,0.5,4.7,4.4,4.9,4.7c2.1,3.3,2,6.9,2.6,10.5c0.4,2.2,1.5,4.2,2.2,6.3c0,3.2,0.6,7.2,0,10.4c-0.6,3.3-2.8,6.3-3.3,9.5
				c-0.6,3.6,0,6.3-1.2,9.9l-1.4,0.7l-1.5,1.4c-2.1,2-4.6,5.3-7.2,6.7c-3,1.7-7.7,2.5-11.1,3.5c-10.9,0.1-22.1,1.1-32.6-2.2
				c-0.7-0.2-6.9-2.2-7.3-2.4c-2.8-1.6-8.1-6.6-9.8-9.3c-0.6-0.9-0.5-2.2-1.1-3.2c-1.1-1.8-3.8-2.6-4.7-4.6
				c-1.1-2.5-0.2-7.7-0.2-10.5c0-4.2-0.7-9,0-13.1c0.2-1.1,0.9-2.1,1.1-3.2c0.8-4.4,1.2-9.6,3.7-13.6c0.2-0.3,5-4.9,5.4-5.1
				c1-0.6,2.3-0.5,3.3-1.1c3.6-2,5.4-4.9,10-5.6c2.6-0.4,5.9-0.3,8.9-0.2C-42,162.2-39.7,162.2-39.7,162.2L-39.7,162.2z"/>
			<path class="st12" d="M-72.3,253.1c1.1-0.4,2.3-0.7,3.5-0.9c0,0,2.1-0.3,2.4,1.8c0.3,2.1-1.8,2.4-1.8,2.4
				c-1.3,0.2-2.6,0.6-3.8,1.1l-2-3.8C-74,253.8-73.2,253-72.3,253.1L-72.3,253.1z"/>
			<g>
				<path class="st10" d="M-70.4,237.8l2.7-0.9c0.6-0.2,1.2-0.4,1.7-0.6c2.5-0.9,5.8-2.1,7.9-1.3c0.1,0,0.2,0.1,0.3,0.1l0-0.1
					l2.1,0.6c0.9,0.2,1.6,1.1,1.6,2.1c0,0.9-0.5,1.6-1.2,1.9c0,0.1,0,0.3,0,0.5c0,1.2-1,2.1-2.1,2.1c-0.2,0-0.4,0-0.6-0.1
					c-0.2,0.9-1.1,1.6-2,1.6c0,0.1,0,0.2,0,0.3c0,0.9-0.5,1.6-1.2,1.9c-0.2,0.8-0.8,1.4-1.5,1.6c0.4,0.4,0.7,0.9,0.7,1.5
					c0,1.2-0.9,2.1-2.1,2.1c0,0.1,0,0.2,0,0.3c0,1.2-1,2.1-2.1,2.1c-0.4,0-0.8-0.1-1.1-0.3c-0.5,0.1-1,0-1.3-0.2
					c-2,0.4-2.2,1.3-4.3,2.6c-1.3,0.8-2.8,1.2-4.1,2c-4.7,3.2-7.6,8.2-10.9,12.7c-1.3,1.7-2.4,3.3-3.4,4.8c-0.8,1.8-1.6,3.4-2.5,5.1
					c-0.2,0.7-0.4,1.4-0.6,2.1c0,0-0.3,1.4-1.6,1.7c-0.5,0.7-1.1,1.4-1.7,1.8c-3.1,2-8.2,0.8-11-0.9c0,0-1.8-1.2-0.6-3
					c0.6-0.9,1.4-1.1,2-0.9v-0.3c0-1,0.7-1.8,1.6-2.1c0.1-0.5,0.4-0.9,0.7-1.1c0,0,0,0,0,0l1-2.3c2.6-3.9,5.3-8.1,7.6-12.2
					c4.9-5.9,9-12.8,14.7-18c3.1-2.9,6.8-5.1,10.7-6.9C-70.8,238-70.4,237.8-70.4,237.8L-70.4,237.8z M-82.4,252.4
					c0.8-0.8,1.6-1.6,2.5-2.3c-0.1,0-0.2,0-0.4-0.1C-81,250.7-81.7,251.6-82.4,252.4L-82.4,252.4z"/>
				<path class="st9" d="M-57.2,237c-0.9,0-1.4-0.4-1.7-0.8c-1.5,0.2-2.7,0.7-4.4,1.3c-6.9,2.4-13.4,4.4-18.8,9.7
					c-2.7,2.7-4.5,6.2-6.9,9.1c-4.8,7.2-10.2,13.7-14.1,21.4c-0.8,1.5-3,3.5-3.2,5.2c-0.2,1.4,2.3,1.6,3,1.6
					c2.7,0.2,4.1-0.3,5.1-2.9c1.5-2.6,3.7-5.3,4.9-8c1.1-2.3,1.4-4.7,3-6.8c4.9-6.8,13.9-14.4,22.5-14.6c0,0,2.1,0,2.1,2.1
					s-2.1,2.1-2.1,2.1c-4.8-0.1-9.1,3.1-12.5,6.3c-2.2,2-4.7,4-6.5,6.5c-1.4,2-1.6,4.1-2.6,6.2c-1.3,2.8-3.5,5.4-5,8.1
					c-0.8,1.8-2.1,3.6-3.8,4.4c-4.2,2.1-12.1,0.9-12.3-5c-0.1-2.6,2.6-5.1,3.6-7.2c3.9-7.9,9.5-14.6,14.5-22
					c2.6-3.1,4.5-6.7,7.3-9.5c5.8-5.8,12.9-8.1,20.3-10.7c2.7-1,4.7-1.7,7.5-1.7l2.1,3.1C-55,234.8-55,237-57.2,237L-57.2,237z"/>
			</g>
			<path class="st10" d="M-16.5,253.3c-0.2,0.1-0.4,0.1-0.6,0.1c-1,0-1.8-0.7-2.1-1.6l-0.9-3.1l0,0c0,0,0-0.1-0.1-0.1
				c-0.6-1.2-0.4-2.6-0.7-3.9l0-0.1l0,0l-0.3-2.8c0-0.1,0-0.2,0-0.3c0-1.2,1-2.1,2.1-2.1c0.4,0,0.8,0.1,1.1,0.3
				c0.2-0.7,0.4-1.4,0.9-1.9c3-3.8,10.9-1.5,13.6,1.8c0.6,0.7,0.9,1.3,1.1,1.8c0.5-0.2,1-0.1,1.5,0.2c1.2,0.8,1.5,2.6,1.4,4.3
				c0.7,0.4,1.5,0.7,1.8,1.4c0.6,1.1,0.4,2.5,0.3,3.7c-0.3,4.1-2.6,4.7-6.1,5.9c-0.9,0.3-1.9,0.4-2.9,0.3v0.4h-2.2
				c-0.6,0-1.1-0.2-1.5-0.6c-0.4,0.2-0.9,0.4-1.3,0.6v0.7c0,1.2-1,2.1-2.1,2.1c-1.1,0-2-0.8-2.1-1.9l-0.3-2.1
				C-16,255.5-16.3,254.4-16.5,253.3L-16.5,253.3z M-1.5,251.2c-0.4,0.5-0.9,0.9-1.3,1.4c0.6-0.1,1.1-0.3,1.4-0.7
				C-1.3,251.7-1.4,251.4-1.5,251.2z M-4.9,247C-4.9,247-4.9,247-4.9,247C-4.9,247.1-4.9,247-4.9,247C-4.9,247-4.9,247-4.9,247z"/>
			<path class="st9" d="M-2.1,255.9c0.3-0.3,0.6-0.5,0.6-0.5l1.6-1l2.1-1.2c0.3-0.2,0.7-0.3,1.1-0.3c1.2,0,2.1,1,2.1,2.1
				c0,0.8-0.4,1.4-1,1.8L2.7,258l0,0l0,0.1c-0.7,0.4-1.5,0.9-2.2,1.3c0,0-1.9,1.1-2.9-0.8C-3.3,257.2-2.5,256.3-2.1,255.9
				L-2.1,255.9z"/>
			<path class="st9" d="M-3,237c-0.6,2-2.6,1.5-2.6,1.5l-2-0.6c-3.3-0.5-6.8,0.8-10.1,1.3c0,0-2.1,0.3-2.4-1.8
				c-0.3-2.1,1.8-2.4,1.8-2.4c4-0.6,7.6-1.8,11.6-1.2l2.3,0.7C-4.4,234.3-2.4,234.9-3,237z"/>
			<path class="st9" d="M-6.2,333.9L-6.2,333.9c-0.5-2.1-1.6-4.4-2.1-6.4c-0.1-0.3-0.1-5.2-0.1-5.8c0,0,0-0.9,0.6-1.5l0-1.1
				c0,0,0-2.1,2.1-2.1s2.1,2.1,2.1,2.1l-0.1,1.1c0.6,2.7,0.3,5,0.6,7.7c0.2,1.5,0.9,2.8,1.1,4.3c0.4,3.9,0,8,0,12
				c0,2.7,0.3,5.1,0.5,7.8c0.4,4-0.4,8.2,0,12.2c0.2,1.9,0.7,3.7,1,5.6c-1,1-1.7,2.5-3.1,3.1c-0.9,0.4-2-0.4-3-0.5
				c-1.8-0.2-3.6-0.1-5.3,0c-1.2,0-2.5,0.9-3.5,0.2c-1.1-0.7-1.1-2.3-1.5-3.4c-0.7-2-1.3-4.1-2.1-6.2c-1.3-3.5-3.8-6.2-5.3-9.4
				c-1.8-4-2-9.5-2.8-13.8c0,0-0.3-1.5,0.9-2.2c0.3-0.5,0.8-0.9,1.8-0.9c2.1,0,2.1,2.1,2.1,2.1c0,2.4,0.4,4.1,1,6.4l0-0.5
				c0,0,1.4,1.4,0.2,2.8c0.2,1.4,0.2,2.9,0.8,4.2c0.3,0.7,1,1.2,1.4,1.8c1.6,2.4,2.9,5.2,4,7.9c0.5,1.4,1.1,2.8,1.6,4.3
				c0.3,0.8,0.6,1.5,0.6,2.4c0,0.3-0.7,0.8-0.4,0.8c0.4,0,0.4-0.7,0.8-0.8c2.1-0.4,4.3-0.3,6.4,0c0.5,0.1,1.1,0.8,1.4,0.5
				c-2.5-4.9-0.6-11-1.1-16.2c-0.6-5.7,0-11.6-0.3-17.4C-6.2,334.4-6.2,333.9-6.2,333.9L-6.2,333.9z"/>
			<path class="st10" d="M-62,318.5c1.2,0,2.1,1,2.1,2.1c0,0.2,0,0.4-0.1,0.6c2.8,3,5.1,6.1,8,9l0.6,2c0,0,0,0.9-0.6,1.5
				c0,0.3,0,0.6,0,0.9c0.1,0.8,0.6,1.6,0.5,2.4c0,1.7-0.7,3-1.4,4.2c0.2,0.3,0.3,0.7,0.3,1.2c0,0.2,0,0.4-0.1,0.6l-0.5,2.1l-0.1,0
				c0,0.2-0.1,0.4-0.1,0.6c-0.1,0.6-0.9,0.8-1.3,1.3c0,0.1,0,0.2-0.1,0.4l-0.5,2.1l-0.1,0c0,0.1,0,0.2,0,0.2c0,0.3-2,3.8-2.1,4.3
				c-0.8,2.2-1.5,3.9-2.7,5.8c0,0,0,0.1,0,0.1l-0.1,0.1c-0.1,0.2-0.3,0.4-0.4,0.5l0.1,0.1l-0.3,0.3l-0.9,1.8
				c-0.2,0.4-0.5,0.7-0.9,0.9c0,0.1,0,0.1,0,0.2l-0.5,2.6l-0.3-0.1c0,0.9-0.1,1.9-0.2,2.8l0,0l0,0l-0.5,2.1c-0.1,0.4-0.3,0.8-0.6,1
				c0,0.1-0.1,0.2-0.1,0.3c0.2,0.4,0.2,0.8,0,1.1c-0.2,0.3-0.5,0.6-0.7,0.8c-0.1,0.1-0.1,0.2-0.2,0.3c-1.8,2.2-6.4,1-8.8,1.2
				c-0.8,0.1-1.6,0.8-2.3,0.5v0.6h-2.7c-1.2,0-2.1-1-2.1-2.1c0-0.7,0.4-1.3,0.9-1.7c-0.5-0.3-1-0.6-1.2-1.1c-0.6-1.1,2.2-6.5,2.6-8
				c2.6-5.1,2.7-10.9,4.2-16.4c0.8-2.8,1.9-5.5,2.6-8.4c0.9-3.6,1.6-8,3.4-11.2c0.4-0.7,1.2-1.1,1.7-1.8c0.7-1,0.7-2.4,1.3-3.5
				l0.5-2.1c0.2-0.9,1.1-1.7,2.1-1.7c0.1,0,0.1,0,0.2,0C-63.1,318.7-62.6,318.5-62,318.5L-62,318.5z"/>
			<path class="st9" d="M-49.9,336.5c-1.5,6.2-3.2,12.3-6,18c-2.2,4.4-5.2,8.4-7.4,12.7c-1.3,2.5,0.3,8.1-2.2,9.8
				c-2.6,1.8-5,0.3-7.3-1c-1.3-0.1-2.6-0.2-3.3-0.2c-1.3,0-3,0.8-3.9-0.1c-0.5-0.5-0.5-1.1-0.4-1.8c-0.8-0.6-1.5-1.4-1.8-2.3
				c-0.4-1.1,0.3-2.3,0.6-3.4c0.9-3,3-5.3,3.7-8.3c0.4-1.5,1.2-3,1.7-4.5c0.1-0.3,0.2-0.6,0.2-0.9c0.1-0.3,0.1-0.5,0.1-0.8
				c0.6-5.9-0.4-11.8,1.7-17.5c1.4-3.7,3-7.4,4.9-10.9c1.2-2.2,3.1-3.6,3.5-5.9c0,0,0.5-2.1,2.6-1.6c2.1,0.5,1.6,2.6,1.6,2.6
				c0,0.1,0,0.2-0.1,0.2c0.2,0.7,0.1,1.3,0.1,1.3c-0.9,3.5-1.4,7.4-2.7,10.9c-1.1,3-3.1,5.6-4.3,8.5c-2.4,6.3-2.3,13.5-5.3,19.6
				c0,0.1,0,0.1-0.1,0.2c-0.7,2.7-1.7,5.7-2,8.4c0,0.3,0,0.5,0,0.8c0.1,0,0.2,0,0.3,0c0.9,0.1,1.8,0.3,2.6,0.6
				c0.4,0.1,0.9,0.4,1.5,0.7c0.8,0.1,1.5,0.1,2.1-0.1c0.3-0.1,0.5-0.6,0.5-0.9c0.2-1.8,0-3.6,0.5-5.3c0.8-2.5,2.5-4.6,3.9-6.8
				c2-3.2,2.9-6.9,4.6-10.3c0.4-1.5,1.1-2.8,1.6-4.2c1-3.1,1.2-6.1,2.7-9.1l0.5-1.9c0,0,0.5-2.1,2.6-1.6c2.1,0.5,1.6,2.6,1.6,2.6
				l-0.2,0.8L-49.9,336.5z"/>
			<path class="st9" d="M-34.4,310.5c0-1.2,1-2.1,2.1-2.1s2.1,1,2.1,2.1c0,1.2-1,2.1-2.1,2.1S-34.4,311.7-34.4,310.5z"/>
		</g>
	</g>
</g>
</svg>
