<svg id="63b542a3-428a-4610-9ad7-56124e33862b" data-name="Layer 1" xmlns="http://www.w3.org/2000/svg" viewBox="0 0 289.9976 357.9312"><title>Scarf</title><path d="M116.9576,151.7674s24.619,12.4354,54.8717,1.9088l2.74-2.5286s-11.4823,5.837-59.0421-.592Z" fill="#f89200"/><path d="M93.54,164.1838s45.4509,50.8127,102.889.54c0,0-12.7434-12.3186-23.7291-11.85,0,0-27.2873,9.7769-55.7419-1.1059C116.9576,151.7674,98.7963,154.3576,93.54,164.1838Z" fill="#d1e4f6"/><path d="M108.4144,153.158s29.1456,26.3351,73.8881,1.7381a12.1108,12.1108,0,0,0-10.0711-2.4012s-6.7341,2.4012-22.57,3.9342c-8.1936.7931-15.8672-.8755-33.1718-5.04A25.8286,25.8286,0,0,0,108.4144,153.158Z" fill="#8cc63f"/><path d="M102.6717,156s36.1307,28.0749,88.6675,3.478c0,0-3.6579-6.3688-11.0814-5.247,0,0-10.5591,3.5071-29.1539,5.04-9.6208.7931-22.37-1.9485-42.69-6.1131A9.0846,9.0846,0,0,0,102.6717,156Z" fill="#29abe2"/><path d="M94.4483,162.7383s42.167,26.582,101.98,1.985c0,0-3.91-7.9387-12.3615-6.8169,0,0-12.3859,2.9327-33.556,4.4656-10.9534.7932-24.706-2.2074-47.8394-6.372C102.6717,156,95.8212,159.1273,94.4483,162.7383Z" fill="#ed1c24"/><path d="M90.2186,163.6979S132.9034,190.033,198.43,165.436c0,0-5.4905-3.523-14.75-2.4012,0,0-9.8622,2.4012-33.0546,3.9342-12,.7931-23.238-.8755-48.5812-5.04A53.5447,53.5447,0,0,0,90.2186,163.6979Z" fill="#662d91"/></svg>