<svg id="032fd999-efc3-4d81-90af-bea66a8baa7c" data-name="Layer 1" xmlns="http://www.w3.org/2000/svg" viewBox="0 0 289.9976 357.9312"><title>Scarf</title><path d="M115.9,153.4s-12.1,23.5,28.9,56.1c0,0,24.8-18.8,29.9-56.3C174.7,153.2,155.1,159.3,115.9,153.4Z" fill="#ff2458"/><path d="M115.9,153.4s-16.7,4-24.6-3.9c0,0,22.3-4.1,24.6,3.9" fill="#ff2458"/><path d="M115.8,152.9s-12.9,9-24.5,4.5c0,0,18-10.9,24.5-4.5" fill="#ff2458"/><path d="M130,172.4s18.8-5.1,27.7-1.2C157.7,171.2,148.7,173.4,130,172.4Z" fill="#d12657"/><path d="M132.6,164.1s18.8-5.1,27.7-1.2C160.2,162.9,151.3,165,132.6,164.1Z" fill="#d12657"/></svg>