<svg id="e2ea9360-832b-4d9d-a7d8-1c7b27dc67de" data-name="Layer 1" xmlns="http://www.w3.org/2000/svg" viewBox="0 0 289.9976 357.9312"><title>Scarf</title><path d="M146.4411,201.425a33.1782,33.1782,0,0,1-4.3487-.2952c-11.1621-1.4716-19.2041-7.3547-23.9013-17.4827-6.0967-13.1441-4.294-28.49-4.2139-29.1378.0527-.44.3242-.7286.5879-.6366.2715.0874.4473.516.3926.9557-.0186.1524-1.7891,15.3063,4.04,27.8551,4.52,9.7327,12.3174,15.392,23.1748,16.8239,10.752,1.4224,18.7666-2.3352,23.8525-11.1471,7.7247-13.3871,5.9639-34.1542,5.9454-34.3621-.04-.4445.1494-.8573.4228-.9224.2686-.0762.5274.2429.5674.6874.0195.2159,1.8535,21.7339-6.2,35.7C162.1754,197.4151,155.3522,201.425,146.4411,201.425Z" fill="#45575f"/><path d="M147.4175,191.5754a40.2075,40.2075,0,0,1-4.3487-.243c-11.1621-1.2114-19.2041-6.0541-23.9013-14.3909-6.0967-10.82-4.294-23.4517-4.2139-23.9849.0527-.3619.3242-.6.5879-.524a.686.686,0,0,1,.3926.7867c-.0186.1254-1.7891,12.5994,4.04,22.929,4.5195,8.0115,12.3174,12.67,23.1748,13.8486,10.752,1.1708,18.7666-1.9222,23.8526-9.1758,7.7246-11.02,5.9638-28.114,5.9453-28.2852a.666.666,0,0,1,.4228-.7592c.2686-.0627.5274.2.5674.5658.0195.1777,1.8535,17.89-6.2,29.3868C163.1518,188.2746,156.3286,191.5754,147.4175,191.5754Z" fill="#45575f"/><path d="M147.717,181.5554q-2.0978.0015-4.3487-.1817c-11.1621-.9052-19.2041-4.5244-23.9013-10.7548-6.0967-8.086-4.294-17.5264-4.2139-17.9248a.5.5,0,0,1,.98.1962c-.0186.0938-1.7891,9.4161,4.04,17.1358,4.5195,5.9873,12.3174,9.4687,23.1748,10.35,10.752.875,18.7666-1.4365,23.8525-6.8574,7.7247-8.2354,5.9639-21.0108,5.9454-21.1387a.5.5,0,1,1,.99-.1445c.0195.1328,1.8535,13.37-6.2,21.9619C163.4513,179.0886,156.6281,181.5554,147.717,181.5554Z" fill="#45575f"/><rect x="113.9542" y="152.0672" width="2.9812" height="5.3953" rx="1.2785" ry="1.2785" transform="translate(8.2935 -5.8535) rotate(3.0127)" fill="#ffe0a2"/><rect x="115.2114" y="161.8246" width="2.9812" height="5.3953" rx="1.2785" ry="1.2785" transform="translate(-46.6751 46.2224) rotate(-18.7425)" fill="#ffe0a2"/><rect x="119.9062" y="169.5448" width="2.9812" height="5.3953" rx="1.2785" ry="1.2785" transform="translate(-80.286 111.1794) rotate(-37.9791)" fill="#ffe0a2"/><rect x="125.35" y="173.7417" width="2.9812" height="5.3953" rx="1.2785" ry="1.2785" transform="translate(-89.3807 198.0669) rotate(-60)" fill="#ffe0a2"/><rect x="132.6005" y="176.9371" width="2.9812" height="5.3953" rx="1.2785" ry="1.2785" transform="translate(-75.4242 259.3368) rotate(-74.0873)" fill="#ffe0a2"/><rect x="140.0668" y="177.8481" width="2.9812" height="5.3953" rx="1.2785" ry="1.2785" transform="translate(-53.9171 300.6497) rotate(-83.4692)" fill="#ffe0a2"/><rect x="146.9901" y="178.3322" width="2.9812" height="5.3953" rx="1.2785" ry="1.2785" transform="translate(-26.9313 336.1071) rotate(-92.1204)" fill="#ffe0a2"/><rect x="154.1839" y="177.641" width="2.9812" height="5.3953" rx="1.2785" ry="1.2785" transform="translate(14.0334 371.8964) rotate(-102.7183)" fill="#ffe0a2"/><rect x="161.8348" y="174.3709" width="2.9812" height="5.3953" rx="1.2785" ry="1.2785" transform="translate(91.6422 407.0468) rotate(-120)" fill="#ffe0a2"/><rect x="168.1581" y="168.4361" width="2.9812" height="5.3953" rx="1.2785" ry="1.2785" transform="translate(168.5986 412.1033) rotate(-135)" fill="#ffe0a2"/><rect x="171.6776" y="160.5161" width="2.9812" height="5.3953" rx="1.2785" ry="1.2785" transform="translate(326.6492 345.064) rotate(-173.4692)" fill="#ffe0a2"/><rect x="172.4531" y="152.0131" width="2.9812" height="5.3953" rx="1.2785" ry="1.2785" transform="translate(341.8015 316.0043) rotate(-177.7933)" fill="#ffe0a2"/><rect x="168.8814" y="173.5542" width="2.9812" height="5.3953" rx="1.2785" ry="1.2785" transform="translate(229.7927 414.0764) rotate(-150)" fill="#f69c88"/><rect x="164.4748" y="180.6423" width="2.9812" height="5.3953" rx="1.2785" ry="1.2785" transform="translate(175.3459 430.4636) rotate(-140.0214)" fill="#f69c88"/><rect x="158.4159" y="185.5485" width="2.9812" height="5.3953" rx="1.2785" ry="1.2785" transform="translate(76.8339 420.8523) rotate(-120)" fill="#f69c88"/><rect x="150.5691" y="188.302" width="2.9812" height="5.3953" rx="1.2785" ry="1.2785" transform="translate(-23.5313 360.6192) rotate(-95.4848)" fill="#f69c88"/><rect x="141.9178" y="188.302" width="2.9812" height="5.3953" rx="1.2785" ry="1.2785" transform="translate(-67.1737 303.7028) rotate(-81.2552)" fill="#f69c88"/><rect x="133.7212" y="186.2123" width="2.9812" height="5.3953" rx="1.2785" ry="1.2785" transform="translate(-83.5305 267.1467) rotate(-74.0873)" fill="#f69c88"/><rect x="127.0632" y="183.2306" width="2.9812" height="5.3953" rx="1.2785" ry="1.2785" transform="translate(-97.3485 193.9006) rotate(-57.3606)" fill="#f69c88"/><rect x="121.5253" y="178.8578" width="2.9812" height="5.3953" rx="1.2785" ry="1.2785" transform="translate(-85.6741 114.1479) rotate(-37.9791)" fill="#f69c88"/><rect x="117.529" y="172.5542" width="2.9812" height="5.3953" rx="1.2785" ry="1.2785" transform="translate(-71.6803 82.9891) rotate(-30)" fill="#f69c88"/><rect x="115.2114" y="175.6396" width="2.9812" height="5.3953" rx="1.2785" ry="1.2785" transform="translate(-51.114 46.955) rotate(-18.7425)" fill="#f79a51"/><rect x="118.4334" y="182.8582" width="2.9812" height="5.3953" rx="1.2785" ry="1.2785" transform="matrix(0.866, -0.5, 0.5, 0.866, -76.7111, 84.8218)" fill="#f79a51"/><rect x="123.478" y="189.6676" width="2.9812" height="5.3953" rx="1.2785" ry="1.2785" transform="translate(-102.7304 164.5318) rotate(-50.0214)" fill="#f79a51"/><rect x="129.38" y="193.9995" width="2.9812" height="5.3953" rx="1.2785" ry="1.2785" transform="translate(-101.1127 241.4254) rotate(-67.2757)" fill="#f79a51"/><rect x="136.6141" y="196.7056" width="2.9812" height="5.3953" rx="1.2785" ry="1.2785" transform="matrix(0.152, -0.9884, 0.9884, 0.152, -79.977, 305.5866)" fill="#f79a51"/><rect x="144.9543" y="197.4835" width="2.9812" height="5.3953" rx="1.2785" ry="1.2785" transform="translate(-53.7362 346.626) rotate(-90)" fill="#f79a51"/><rect x="154.1839" y="195.9928" width="2.9812" height="5.3953" rx="1.2785" ry="1.2785" transform="translate(41.7063 423.9097) rotate(-115.0803)" fill="#f79a51"/><rect x="161.069" y="191.1056" width="2.9812" height="5.3953" rx="1.2785" ry="1.2785" transform="translate(162.6076 446.7564) rotate(-140.0214)" fill="#f79a51"/><rect x="165.5573" y="185.0703" width="2.9812" height="5.3953" rx="1.2785" ry="1.2785" transform="translate(217.8316 433.9037) rotate(-150)" fill="#f79a51"/></svg>