<svg id="13b9a184-1965-4a71-abbb-59b779ddc1dc" data-name="Layer 1" xmlns="http://www.w3.org/2000/svg" viewBox="0 0 289.9976 357.9312"><title>Scarf</title><path d="M146.0355,166.6677c-.2344,0-.4668-.0029-.7022-.0078-16.372-.3721-28.2148-13.89-28.333-14.0254a.5006.5006,0,1,1,.7578-.6543c.1153.1338,11.6817,13.3213,27.6065,13.6787,9.7519.25,19.2177-4.3877,28.0136-13.6953a.5.5,0,0,1,.7266.6875C165.3138,161.9538,155.8734,166.6677,146.0355,166.6677Z" fill="#45575f"/><path d="M146.349,172.3405a.5.5,0,0,1-.5-.5v-5.6738a.5.5,0,0,1,1,0v5.6738A.5.5,0,0,1,146.349,172.3405Z" fill="#45575f"/><path d="M146.349,182.5456a.5.5,0,0,1-.5-.5v-5.6738a.5.5,0,0,1,1,0v5.6738A.5.5,0,0,1,146.349,182.5456Z" fill="#45575f"/><path d="M146.349,191.9343a.5.5,0,0,1-.5-.5v-5.6738a.5.5,0,0,1,1,0v5.6738A.5.5,0,0,1,146.349,191.9343Z" fill="#45575f"/><circle cx="146.4229" cy="193.6397" r="2.2055" fill="#ace0f0"/><circle cx="146.4229" cy="184.251" r="2.2055" fill="#ace0f0"/><circle cx="146.4229" cy="174.0463" r="2.2055" fill="#ace0f0"/></svg>