<svg id="1ba36b0c-da6f-4a44-bcec-91fdb4d6fcb6" data-name="Layer 1" xmlns="http://www.w3.org/2000/svg" viewBox="0 0 289.9976 357.9312"><title>Scarf</title><path d="M115.9584,153.5468s.1462,4.2733,4.4749,4.0662C120.4333,157.613,119.83,153.5957,115.9584,153.5468Z" fill="#8cc63f"/><path d="M112.5772,158.7143s4.1856-.8732,3.2429-5.103C115.82,153.6113,111.9648,154.8912,112.5772,158.7143Z" fill="#8cc63f"/><path d="M115.7617,153.5468s-1.6651,5.5506,1.8872,5.2176S115.7617,153.5468,115.7617,153.5468Z" fill="#fcee21"/><path d="M115.7052,153.6155s3.9859,4.2065,5.4648.9594S115.7052,153.6155,115.7052,153.6155Z" fill="#fcee21"/><path d="M115.9248,153.8s5.0119-2.9091,2.1932-5.0965S115.9248,153.8,115.9248,153.8Z" fill="#fcee21"/><path d="M115.9584,153.6065s-.8741-5.7286-3.941-3.9054S115.9584,153.6065,115.9584,153.6065Z" fill="#fcee21"/><path d="M115.9584,153.5189s-5.6773-1.1616-5.0276,2.3467S115.9584,153.5189,115.9584,153.5189Z" fill="#fcee21"/><path d="M115.812,153.1368s-1.0532.6634,0,1.2485S116.7872,152.8636,115.812,153.1368Z" fill="#fbb03b"/><path d="M120.2639,160.5272s.1462,4.2733,4.4749,4.0662C124.7388,164.5934,124.1354,160.5762,120.2639,160.5272Z" fill="#8cc63f"/><path d="M116.8826,165.6947s4.1857-.8732,3.243-5.103C120.1256,160.5917,116.27,161.8716,116.8826,165.6947Z" fill="#8cc63f"/><path d="M120.0672,160.5272s-1.6652,5.5506,1.8872,5.2176S120.0672,160.5272,120.0672,160.5272Z" fill="#fcee21"/><path d="M120.0107,160.596s3.9859,4.2064,5.4648.9594S120.0107,160.596,120.0107,160.596Z" fill="#fcee21"/><path d="M120.23,160.7808s5.0119-2.909,2.1932-5.0965S120.23,160.7808,120.23,160.7808Z" fill="#fcee21"/><path d="M120.2639,160.587s-.8741-5.7287-3.941-3.9055S120.2639,160.587,120.2639,160.587Z" fill="#fcee21"/><path d="M120.2639,160.4994s-5.6773-1.1617-5.0277,2.3466S120.2639,160.4994,120.2639,160.4994Z" fill="#fcee21"/><path d="M120.1175,160.1173s-1.0532.6633,0,1.2484S121.0927,159.844,120.1175,160.1173Z" fill="#fbb03b"/><path d="M126.7111,166.0316s1.7434,3.9041,5.676,2.0834C132.3871,168.115,130.3165,164.62,126.7111,166.0316Z" fill="#8cc63f"/><path d="M125.5228,172.0916s3.55-2.3841,1.0844-5.9483C126.6072,166.1433,123.5168,168.78,125.5228,172.0916Z" fill="#8cc63f"/><path d="M126.5288,166.1056s.5459,5.7692,3.7119,4.1239S126.5288,166.1056,126.5288,166.1056Z" fill="#fcee21"/><path d="M126.5023,166.1905s5.2758,2.3974,5.4242-1.1675S126.5023,166.1905,126.5023,166.1905Z" fill="#fcee21"/><path d="M126.7753,166.2791s3.5489-4.5812.1142-5.5472S126.7753,166.2791,126.7753,166.2791Z" fill="#fcee21"/><path d="M126.7335,166.0869s-2.9655-4.9787-5.1209-2.1354S126.7335,166.0869,126.7335,166.0869Z" fill="#fcee21"/><path d="M126.7006,166.0057s-5.6972,1.06-3.7751,4.0661S126.7006,166.0057,126.7006,166.0057Z" fill="#fcee21"/><path d="M126.4211,165.7068s-.7261,1.0109.47,1.1567S127.2218,165.0867,126.4211,165.7068Z" fill="#fbb03b"/><path d="M134.716,170.7891s.1462,4.2733,4.4748,4.0662C139.1908,174.8553,138.5875,170.838,134.716,170.7891Z" fill="#8cc63f"/><path d="M131.3347,175.9566s4.1857-.8732,3.243-5.1031C134.5777,170.8535,130.7223,172.1335,131.3347,175.9566Z" fill="#8cc63f"/><path d="M134.5193,170.7891s-1.6652,5.5506,1.8872,5.2175S134.5193,170.7891,134.5193,170.7891Z" fill="#fcee21"/><path d="M134.4627,170.8578s3.986,4.2064,5.4648.9594S134.4627,170.8578,134.4627,170.8578Z" fill="#fcee21"/><path d="M134.6823,171.0426s5.012-2.909,2.1932-5.0965S134.6823,171.0426,134.6823,171.0426Z" fill="#fcee21"/><path d="M134.716,170.8488s-.8741-5.7287-3.9411-3.9054S134.716,170.8488,134.716,170.8488Z" fill="#fcee21"/><path d="M134.716,170.7612s-5.6774-1.1616-5.0277,2.3467S134.716,170.7612,134.716,170.7612Z" fill="#fcee21"/><path d="M134.57,170.3791s-1.0532.6634,0,1.2485S135.5447,170.1058,134.57,170.3791Z" fill="#fbb03b"/><path d="M144.2219,172.005s.1462,4.2733,4.4748,4.0662C148.6967,176.0712,148.0934,172.0539,144.2219,172.005Z" fill="#8cc63f"/><path d="M140.8406,177.1725s4.1857-.8732,3.243-5.1031C144.0836,172.0694,140.2282,173.3494,140.8406,177.1725Z" fill="#8cc63f"/><path d="M144.0252,172.005s-1.6652,5.5506,1.8872,5.2175S144.0252,172.005,144.0252,172.005Z" fill="#fcee21"/><path d="M143.9687,172.0737s3.9859,4.2064,5.4648.9594S143.9687,172.0737,143.9687,172.0737Z" fill="#fcee21"/><path d="M144.1883,172.2585s5.0119-2.909,2.1932-5.0965S144.1883,172.2585,144.1883,172.2585Z" fill="#fcee21"/><path d="M144.2219,172.0647s-.8741-5.7287-3.9411-3.9054S144.2219,172.0647,144.2219,172.0647Z" fill="#fcee21"/><path d="M144.2219,171.9771s-5.6774-1.1616-5.0277,2.3467S144.2219,171.9771,144.2219,171.9771Z" fill="#fcee21"/><path d="M144.0755,171.595s-1.0532.6634,0,1.2485S145.0507,171.3217,144.0755,171.595Z" fill="#fbb03b"/><path d="M154.0846,171.5718s.1461,4.2733,4.4748,4.0662C158.5594,175.638,157.9561,171.6207,154.0846,171.5718Z" fill="#8cc63f"/><path d="M150.7033,176.7393s4.1857-.8732,3.243-5.1031C153.9463,171.6362,150.0909,172.9162,150.7033,176.7393Z" fill="#8cc63f"/><path d="M153.8879,171.5718s-1.6652,5.5506,1.8872,5.2175S153.8879,171.5718,153.8879,171.5718Z" fill="#fcee21"/><path d="M153.8313,171.6405s3.986,4.2064,5.4648.9594S153.8313,171.6405,153.8313,171.6405Z" fill="#fcee21"/><path d="M154.0509,171.8253s5.0119-2.909,2.1932-5.0965S154.0509,171.8253,154.0509,171.8253Z" fill="#fcee21"/><path d="M154.0846,171.6315s-.8742-5.7287-3.9411-3.9054S154.0846,171.6315,154.0846,171.6315Z" fill="#fcee21"/><path d="M154.0846,171.5439s-5.6774-1.1616-5.0277,2.3467S154.0846,171.5439,154.0846,171.5439Z" fill="#fcee21"/><path d="M153.9381,171.1618s-1.0532.6633,0,1.2485S154.9133,170.8885,153.9381,171.1618Z" fill="#fbb03b"/><path d="M162.4821,167.1577s.1462,4.2733,4.4749,4.0662C166.957,171.2239,166.3537,167.2066,162.4821,167.1577Z" fill="#8cc63f"/><path d="M159.1009,172.3252s4.1856-.8732,3.2429-5.1031C162.3438,167.2221,158.4885,168.5021,159.1009,172.3252Z" fill="#8cc63f"/><path d="M162.2854,167.1577s-1.6651,5.5506,1.8872,5.2175S162.2854,167.1577,162.2854,167.1577Z" fill="#fcee21"/><path d="M162.2289,167.2264s3.9859,4.2064,5.4648.9594S162.2289,167.2264,162.2289,167.2264Z" fill="#fcee21"/><path d="M162.4485,167.4112s5.0119-2.909,2.1932-5.0965S162.4485,167.4112,162.4485,167.4112Z" fill="#fcee21"/><path d="M162.4821,167.2174s-.8741-5.7287-3.941-3.9054S162.4821,167.2174,162.4821,167.2174Z" fill="#fcee21"/><path d="M162.4821,167.13s-5.6773-1.1616-5.0276,2.3467S162.4821,167.13,162.4821,167.13Z" fill="#fcee21"/><path d="M162.3357,166.7477s-1.0532.6634,0,1.2485S163.3109,166.4744,162.3357,166.7477Z" fill="#fbb03b"/><path d="M170.1441,162.9641s.1462,4.2733,4.4748,4.0661C174.6189,167.03,174.0156,163.013,170.1441,162.9641Z" fill="#8cc63f"/><path d="M166.7628,168.1316s4.1857-.8733,3.243-5.1031C170.0058,163.0285,166.15,164.3085,166.7628,168.1316Z" fill="#8cc63f"/><path d="M169.9474,162.9641s-1.6652,5.5505,1.8872,5.2175S169.9474,162.9641,169.9474,162.9641Z" fill="#fcee21"/><path d="M169.8908,163.0328s3.986,4.2064,5.4648.9594S169.8908,163.0328,169.8908,163.0328Z" fill="#fcee21"/><path d="M170.11,163.2176s5.012-2.909,2.1932-5.0965S170.11,163.2176,170.11,163.2176Z" fill="#fcee21"/><path d="M170.1441,163.0238s-.8741-5.7287-3.9411-3.9054S170.1441,163.0238,170.1441,163.0238Z" fill="#fcee21"/><path d="M170.1441,162.9362s-5.6774-1.1617-5.0277,2.3466S170.1441,162.9362,170.1441,162.9362Z" fill="#fcee21"/><path d="M169.9977,162.5541s-1.0532.6633,0,1.2484S170.9728,162.2808,169.9977,162.5541Z" fill="#fbb03b"/><path d="M174.45,156.9959s.1461,4.2733,4.4748,4.0662C178.9244,161.0621,178.3211,157.0448,174.45,156.9959Z" fill="#8cc63f"/><path d="M171.0683,162.1634s4.1857-.8732,3.243-5.103C174.3113,157.06,170.4559,158.34,171.0683,162.1634Z" fill="#8cc63f"/><path d="M174.2529,156.9959s-1.6652,5.5506,1.8872,5.2176S174.2529,156.9959,174.2529,156.9959Z" fill="#fcee21"/><path d="M174.1963,157.0646s3.986,4.2065,5.4648.9594S174.1963,157.0646,174.1963,157.0646Z" fill="#fcee21"/><path d="M174.4159,157.2494s5.0119-2.909,2.1932-5.0964S174.4159,157.2494,174.4159,157.2494Z" fill="#fcee21"/><path d="M174.45,157.0556s-.8742-5.7286-3.9411-3.9054S174.45,157.0556,174.45,157.0556Z" fill="#fcee21"/><path d="M174.45,156.968s-5.6774-1.1616-5.0277,2.3467S174.45,156.968,174.45,156.968Z" fill="#fcee21"/><path d="M174.3031,156.5859s-1.0532.6634,0,1.2485S175.2783,156.3126,174.3031,156.5859Z" fill="#fbb03b"/></svg>