<svg id="18381268-0f8a-431a-a9da-8ffb47c2ca41" data-name="Layer 1" xmlns="http://www.w3.org/2000/svg" viewBox="0 0 289.9976 357.9312"><title>Scarf</title><polygon points="139.875 166.134 145.027 160.928 152.367 166.841 153.254 208.026 147.481 217.359 139.875 207.517 139.875 166.134" fill="#5aba47"/><path d="M139.6157,154.2452s10.77-1.3917,13.2476.49c2.6111,1.9833,1.1616,4.1709-6.8362,11.1933C146.0271,165.9283,132.2031,155.7314,139.6157,154.2452Z" fill="#53ad42"/><path d="M140.8523,155.4067s-.2437-1.1913-1.0829-.731,1.0829,2.1928,1.0829,2.1928,1.6785-1.7327,1.2724-2.0575S140.8523,155.4067,140.8523,155.4067Z" fill="#006837"/><path d="M139.4108,156.889s-1.1913.2436-.731,1.0829,2.1928-1.0829,2.1928-1.0829-1.7327-1.6785-2.0575-1.2724S139.4108,156.889,139.4108,156.889Z" fill="#006837"/><path d="M142.3392,156.84s1.1912-.2437.731-1.0829-2.1928,1.0829-2.1928,1.0829,1.7327,1.6785,2.0576,1.2724S142.3392,156.84,142.3392,156.84Z" fill="#006837"/><path d="M142.3759,159.2888a1.6808,1.6808,0,0,1-1.3584-.5274,2.4,2.4,0,0,1-.2764-1.96.145.145,0,0,1,.1748-.0987.143.143,0,0,1,.0986.1748,2.1553,2.1553,0,0,0,.22,1.7012,1.6325,1.6325,0,0,0,1.4814.4082.1418.1418,0,0,1,.1553.126.14.14,0,0,1-.126.1553A3.5245,3.5245,0,0,1,142.3759,159.2888Z" fill="#006837"/><path d="M147.2481,159.8039s-1.2.1962-.7734,1.0531,2.2341-.9951,2.2341-.9951-1.6648-1.7459-2.0055-1.3531S147.2481,159.8039,147.2481,159.8039Z" fill="#006837"/><path d="M148.672,161.3031s.1962,1.2,1.0531.7734-.9951-2.2341-.9951-2.2341-1.7459,1.6647-1.353,2.0055S148.672,161.3031,148.672,161.3031Z" fill="#006837"/><path d="M148.7389,158.375s-.1962-1.2-1.0531-.7734.9951,2.2341.9951,2.2341,1.7459-1.6648,1.353-2.0055S148.7389,158.375,148.7389,158.375Z" fill="#006837"/><path d="M151.1876,158.4356a1.6808,1.6808,0,0,1-.5809,1.3364,2.4,2.4,0,0,1-1.9693.1984.1451.1451,0,0,1-.0917-.1786.1429.1429,0,0,1,.1786-.0916,2.1557,2.1557,0,0,0,1.7086-.1521,1.6327,1.6327,0,0,0,.4666-1.4641.1418.1418,0,0,1,.1321-.15.14.14,0,0,1,.15.132A3.5047,3.5047,0,0,1,151.1876,158.4356Z" fill="#006837"/><path d="M143.4132,171.1245s.2135-1.197-.7364-1.0792.1964,2.4377.1964,2.4377,2.2-.99,1.9425-1.4421S143.4132,171.1245,143.4132,171.1245Z" fill="#006837"/><path d="M141.5261,171.97s-1.197-.2136-1.0793.7364,2.4378-.1965,2.4378-.1965-.99-2.2-1.4421-1.9424S141.5261,171.97,141.5261,171.97Z" fill="#006837"/><path d="M144.2657,173.0053s1.197.2136,1.0793-.7363-2.4377.1964-2.4377.1964.99,2.2,1.442,1.9424S144.2657,173.0053,144.2657,173.0053Z" fill="#006837"/><path d="M143.3951,175.2949a1.6813,1.6813,0,0,1-1.0675-.9918,2.4,2.4,0,0,1,.4671-1.9235.1449.1449,0,0,1,.1988-.0271.1429.1429,0,0,1,.0271.1989,2.1551,2.1551,0,0,0-.4241,1.6621,1.6331,1.6331,0,0,0,1.2259.9265.1418.1418,0,0,1,.0978.1744.14.14,0,0,1-.1744.0977A3.5213,3.5213,0,0,1,143.3951,175.2949Z" fill="#006837"/><path d="M148.998,165.4012s.2135-1.197-.7364-1.0793.1964,2.4378.1964,2.4378,2.2-.99,1.9425-1.4421S148.998,165.4012,148.998,165.4012Z" fill="#006837"/><path d="M147.1109,166.2463s-1.197-.2136-1.0793.7363,2.4378-.1964,2.4378-.1964-.99-2.2-1.4421-1.9424S147.1109,166.2463,147.1109,166.2463Z" fill="#006837"/><path d="M149.8506,167.282s1.1969.2136,1.0792-.7363-2.4377.1964-2.4377.1964.99,2.2,1.4421,1.9424S149.8506,167.282,149.8506,167.282Z" fill="#006837"/><path d="M148.98,169.5715a1.6809,1.6809,0,0,1-1.0676-.9917,2.4,2.4,0,0,1,.4671-1.9235.1449.1449,0,0,1,.1989-.0271.1429.1429,0,0,1,.027.1989,2.1558,2.1558,0,0,0-.4241,1.662,1.6326,1.6326,0,0,0,1.2259.9265.1418.1418,0,0,1,.0978.1745.14.14,0,0,1-.1744.0977A3.4934,3.4934,0,0,1,148.98,169.5715Z" fill="#006837"/><path d="M148.5619,180.1552s-.8591-.86-1.3065-.0141,2.1112,1.2346,2.1112,1.2346.4476-2.37-.07-2.4182S148.5619,180.1552,148.5619,180.1552Z" fill="#006837"/><path d="M148.1743,182.1863s-.86.8591-.0141,1.3064,1.2346-2.1111,1.2346-2.1111-2.37-.4476-2.4182.07S148.1743,182.1863,148.1743,182.1863Z" fill="#006837"/><path d="M150.5921,180.533s.86-.8591.0141-1.3064-1.2346,2.1111-1.2346,2.1111,2.37.4476,2.4182-.07S150.5921,180.533,150.5921,180.533Z" fill="#006837"/><path d="M151.9708,182.5576a1.6808,1.6808,0,0,1-1.4244.3075c-.9092-.2684-1.2936-1.4351-1.31-1.4842a.145.145,0,0,1,.0917-.1786.1429.1429,0,0,1,.1785.0917c.0035.0106.3553,1.0747,1.12,1.2993a1.6328,1.6328,0,0,0,1.4615-.4747.1418.1418,0,0,1,.199.02.14.14,0,0,1-.02.199A3.5036,3.5036,0,0,1,151.9708,182.5576Z" fill="#006837"/><path d="M143.5473,189.3042s.3254-1.1715-.6314-1.1439-.0342,2.4454-.0342,2.4454,2.2834-.7784,2.07-1.2526S143.5473,189.3042,143.5473,189.3042Z" fill="#006837"/><path d="M141.589,189.9677s-1.1716-.3254-1.1439.6314,2.4454.0341,2.4454.0341-.7785-2.2833-1.2526-2.07S141.589,189.9677,141.589,189.9677Z" fill="#006837"/><path d="M144.2188,191.257s1.1715.3254,1.1439-.6314-2.4454-.0342-2.4454-.0342.7785,2.2834,1.2526,2.07S144.2188,191.257,144.2188,191.257Z" fill="#006837"/><path d="M143.1364,193.4543a1.6811,1.6811,0,0,1-.9694-1.088,2.4,2.4,0,0,1,.6463-1.8709.1449.1449,0,0,1,.2005-.0082.1429.1429,0,0,1,.0082.2005,2.1551,2.1551,0,0,0-.5788,1.6147c.1017.4359.4838.7827,1.1331,1.0379a.1418.1418,0,0,1,.0809.1829.14.14,0,0,1-.1828.0809A3.5094,3.5094,0,0,1,143.1364,193.4543Z" fill="#006837"/><path d="M147.9681,198.0573s-1.2076-.1415-1.0332.8,2.4216-.342,2.4216-.342-1.12-2.1366-1.5558-1.8526S147.9681,198.0573,147.9681,198.0573Z" fill="#006837"/><path d="M148.9247,199.89s-.1415,1.2076.8,1.0332-.3421-2.4216-.3421-2.4216-2.1365,1.12-1.8526,1.5558S148.9247,199.89,148.9247,199.89Z" fill="#006837"/><path d="M149.7946,197.0936s.1414-1.2076-.8-1.0332.342,2.4216.342,2.4216,2.1366-1.12,1.8526-1.5558S149.7946,197.0936,149.7946,197.0936Z" fill="#006837"/><path d="M152.1321,197.8256a1.6809,1.6809,0,0,1-.9261,1.125,2.4,2.4,0,0,1-1.948-.3511.1448.1448,0,0,1-.0389-.1969.143.143,0,0,1,.1969-.0389,2.1554,2.1554,0,0,0,1.6844.3239,1.6331,1.6331,0,0,0,.8515-1.2792.1417.1417,0,0,1,.1682-.1081.14.14,0,0,1,.1081.1683A3.5094,3.5094,0,0,1,152.1321,197.8256Z" fill="#006837"/><path d="M144.1942,204.1163s.423-1.14-.5327-1.193-.24,2.4338-.24,2.4338,2.3409-.5832,2.1679-1.0737S144.1942,204.1163,144.1942,204.1163Z" fill="#006837"/><path d="M142.187,204.6124s-1.14-.423-1.193.5327,2.4338.24,2.4338.24-.5833-2.3408-1.0738-2.1678S142.187,204.6124,142.187,204.6124Z" fill="#006837"/><path d="M144.6988,206.1187s1.14.423,1.193-.5327-2.4338-.24-2.4338-.24.5832,2.3408,1.0737,2.1679S144.6988,206.1187,144.6988,206.1187Z" fill="#006837"/><path d="M143.435,208.217a1.6808,1.6808,0,0,1-.8742-1.1658,2.4007,2.4007,0,0,1,.8016-1.81.1449.1449,0,0,1,.2005.0087.143.143,0,0,1-.0087.2006,2.1555,2.1555,0,0,0-.7129,1.56c.0647.4429.4162.8206,1.0417,1.13a.1418.1418,0,0,1,.0652.189.14.14,0,0,1-.1891.0652A3.5021,3.5021,0,0,1,143.435,208.217Z" fill="#006837"/></svg>