<svg id="e433494e-eb38-4ee4-a5e5-6bb7e097aa14" data-name="Layer 1" xmlns="http://www.w3.org/2000/svg" viewBox="0 0 290 357.9"><title>skin02</title><g id="b300c41f-e9f4-4c79-b9da-2a5c65b6cbf6" data-name="&lt;Group&gt;"><g id="723e85ac-b9c8-4dae-ba68-09f7dcbd662a" data-name="&lt;Group&gt;"><path d="M127.49,138c3.8,2.5,7.5,3.3,11.9,4,2.3.4,5.1,1.6,7.6.7,3.4-1.2,4.7-4.1,5.8-7.3l.1-1.4a2.06,2.06,0,0,0-2.1-2.1,2.09,2.09,0,0,0-2.2,2.1l.3.1c-.5,1.5-1.1,3.9-3,4.5s-4-.5-5.7-.8c-3.8-.7-7.1-1.2-10.3-3.4a2.16,2.16,0,0,0-2.4,3.6Zm31-16.2a4.11,4.11,0,0,0,4.2-3.9,4.18,4.18,0,0,0-4.2-3.9,3.91,3.91,0,1,0,0,7.8Zm9-27.3a32.14,32.14,0,0,1,8,7.6c1.7,2.6,1.4,5.7,1.9,8.5.1.6,1.9,5.4,2.2,6.3,0,2.8.5,6,0,8.7-.5,3.2-2.7,6.2-3.3,9.5-.5,2.7,0,4.7-.7,7.3l-.6.6a4.62,4.62,0,0,0-.7.7l-.7.7c-1.8,1.7-4,4.8-6.2,6a11.05,11.05,0,0,1-1.38.66l-.4.14A25.84,25.84,0,0,1,163,152l0,0c-1.22.31-2.44.59-3.53.91l-.75.23c-9.6-.1-19.29.89-28.55-1.58-.48-.13-1-.27-1.45-.42-.89-.27-1.85-.46-2.79-.68l-.07.05a13.68,13.68,0,0,1-3.44-1.17c-2.2-1.3-4.4-4.3-6.2-6a6.9,6.9,0,0,1-1.8-1.6c-.6-1-.5-2.3-1.1-3.2-1.1-1.5-3.6-2.1-4.3-3.8-.3-.7.2-1.5.2-2.2.1-2.1,0-4.2,0-6.3,0-3.9-.7-8.5,0-12.3.2-1.1.9-2.1,1.1-3.2.7-3.7.8-8.3,3-11.7A6.6,6.6,0,0,1,114,98c1.66-1.83,3.92-2.15,6.17-3.45,2.9-1.6,4.2-4.4,7.9-4.9s8.3,0,11.8,0a3.41,3.41,0,0,0,1.84-.61s0,0,0,0a2.43,2.43,0,0,0,.94-1.68H143a25.25,25.25,0,0,1,5.44.11c5.7.9,11.1,3.8,16,6.1A28,28,0,0,1,167.49,94.49Zm-41,25.76a4.11,4.11,0,0,0,4.2-3.9,4.21,4.21,0,1,0-4.2,3.9Z" fill="#292a2b"/><ellipse cx="126.48" cy="116.35" rx="4.2" ry="3.9"/><path d="M218.09,196.19c1.1,2.1,3.8,4.6,3.6,7.2,0,.23,0,.45-.06.67l-.34,0a2.07,2.07,0,0,0-.4-1.43,1.9,1.9,0,0,0-2-.9v-.3a2.16,2.16,0,0,0-1.6-2.1,2.33,2.33,0,0,0-.7-1.1l-1-2.3c-2.6-3.9-5.2-8.1-7.6-12.2-4.9-5.9-9-12.7-14.7-18a37.74,37.74,0,0,0-10.7-6.9c-.4-.3-.8-.4-.7-.5l-2.7-.9c-.5-.2-1.1-.4-1.7-.6l-1.79-.63c0-1.43-1.51-1.84-1.51-1.67l-2.26-.69c.35-.26.69-.55,1-.86,1,.28,1.95.64,3,1.05,7.5,2.7,14.6,5,20.3,10.7,2.9,2.9,4.8,6.5,7.3,9.5C208.49,181.59,214.09,188.29,218.09,196.19Z" fill="#151315"/><path d="M221.29,204l.34,0c-.74,5.41-8.2,6.35-12.24,4.33a8.69,8.69,0,0,1-3.8-4.4c-1.5-2.7-3.7-5.3-5-8.1-1-2.1-1.2-4.2-2.6-6.2l.38-.27c.37.53.74,1.05,1.12,1.57,1.2,1.7,2.4,3.2,3.4,4.8.8,1.7,1.6,3.4,2.5,5.1.2.6.4,1.4.6,2.1,0,0,.3,1.5,1.6,1.7a5.92,5.92,0,0,0,1.7,1.8c3.1,2,8.2.8,11-.9A2.43,2.43,0,0,0,221.29,204Z" fill="#151315"/><path d="M220.89,202.59a2.07,2.07,0,0,1,.4,1.43,2.43,2.43,0,0,1-1,1.57c-2.8,1.7-7.9,2.9-11,.9a5.92,5.92,0,0,1-1.7-1.8c-1.3-.2-1.6-1.7-1.6-1.7-.2-.7-.4-1.5-.6-2.1-.9-1.7-1.7-3.4-2.5-5.1-1-1.6-2.2-3.1-3.4-4.8-.38-.52-.75-1-1.12-1.57-2.87-4-5.62-8.3-9.78-11.13-1.3-.9-2.8-1.2-4.1-2-.22-.14-.42-.27-.6-.4a2,2,0,0,0,.2-.9,2.12,2.12,0,0,0-1.08-1.83c7.31,1.92,14.41,8.26,18.48,14,1.6,2.2,1.9,4.5,3,6.8,1.2,2.7,3.4,5.4,4.9,8,.9,2.5,2.4,3,5.1,2.9.7,0,3.2-.2,3-1.6-.2-1.7-2.4-3.7-3.2-5.2-3.9-7.7-9.3-14.2-14.1-21.4-2.4-2.9-4.2-6.4-6.9-9.1-5.18-5.18-11.61-7.21-18.34-9.54a2.26,2.26,0,0,0,.64-1.06,2.57,2.57,0,0,0,.11-.83l1.79.63c.6.2,1.2.4,1.7.6l2.7.9c-.1.1.3.2.7.5a37.74,37.74,0,0,1,10.7,6.9c5.7,5.3,9.8,12.1,14.7,18,2.4,4.1,5,8.3,7.6,12.2l1,2.3a2.33,2.33,0,0,1,.7,1.1,2.16,2.16,0,0,1,1.6,2.1v.3A1.9,1.9,0,0,1,220.89,202.59Z" fill="#151315"/><path d="M217.49,203.29c.2,1.4-2.3,1.6-3,1.6-2.7.1-4.2-.4-5.1-2.9-1.5-2.6-3.7-5.3-4.9-8-1.1-2.3-1.4-4.6-3-6.8-4.07-5.77-11.17-12.11-18.48-14a2.07,2.07,0,0,0-1-.27h-.14c-.32-.07-.64-.12-1-.16-.07.21-.14.4-.22.58s-.14.29-.21.43a5.34,5.34,0,0,1-2.78,2.21l-.39.15c-.41.16-.84.32-1.3.47a.16.16,0,0,1,0-.07l-.21.13a8.51,8.51,0,0,1-4.43,1.25,8.25,8.25,0,0,1-3.34-.69h0l-.21.09a8.18,8.18,0,0,0,3.56.8,8.6,8.6,0,0,0,3.9-.9,80.9,80.9,0,0,1,4,25.9,79.37,79.37,0,0,1-6.82,32.52c-.26.59-.53,1.16-.82,1.73a2.25,2.25,0,0,0-.86,1.66c-.32.61-.66,1.2-1,1.79a5.51,5.51,0,0,0-.58-.11,3.91,3.91,0,0,1,1.08.36,2.76,2.76,0,0,0-.1.65c0,.6,0,5.5.1,5.8.5,2,1.6,4.3,2.1,6.4a2.71,2.71,0,0,0,.3,1.1c.3,5.8-.3,11.7.3,17.4.5,5.2-1.4,11.3,1.1,16.2a.29.29,0,0,1-.31.05c-.32-.1-.73-.48-1.09-.55a19.64,19.64,0,0,0-6.4,0c-.4.1-.4.8-.8.8s.4-.5.4-.8a4,4,0,0,0-.08-.8,4.94,4.94,0,0,0-.15-.55c-.1-.35-.23-.69-.37-1.05-.5-1.5-1.1-2.9-1.6-4.3a45,45,0,0,0-4-7.9,12.38,12.38,0,0,1-1.4-1.8,14.88,14.88,0,0,1-.8-4.2,2.08,2.08,0,0,0-.2-2.8v.5a23.11,23.11,0,0,1-1-6.4,2.06,2.06,0,0,0-2.1-2.1,2.09,2.09,0,0,0-1.37.41,4.12,4.12,0,0,1,0-.51v.3a25.91,25.91,0,0,1-2.65.91,23.33,23.33,0,0,1-6.65,1,25.53,25.53,0,0,1-15.83-6,1.78,1.78,0,0,0-.56-1,2.28,2.28,0,0,0-1-.5l-.17,0a2.08,2.08,0,0,0-2.41,1.56l0,.07-.5,1.9c-1.5,3-1.7,6-2.7,9.1-.5,1.4-1.2,2.7-1.6,4.2-1.7,3.4-2.6,7.1-4.6,10.3-1.4,2.2-3.1,4.3-3.9,6.8-.5,1.7-.3,3.5-.5,5.3a1.05,1.05,0,0,1-.5.9,4.8,4.8,0,0,1-2.1.1,9.33,9.33,0,0,0-1.5-.7,11,11,0,0,0-2.6-.6h-.3v-.8a63.94,63.94,0,0,1,2-8.4c.1-.1.1-.1.1-.2,3-6.1,2.9-13.3,5.3-19.6,1.2-2.9,3.2-5.5,4.3-8.5a60.26,60.26,0,0,0,2.1-8.29c.19-.89.38-1.76.6-2.61a3.27,3.27,0,0,0-.1-1.3c.1,0,.1-.1.1-.2a1.8,1.8,0,0,0,0-.31,2.24,2.24,0,0,0-.43-1.59,2,2,0,0,0-.7-.53c-4.93-9.62-7.85-21.86-7.81-35.17A79.81,79.81,0,0,1,113.82,173a2.05,2.05,0,0,0,.77-1.61v-.19a.37.37,0,0,1,0-.11h0v.11c-.27.59-.52,1.19-.77,1.8a2,2,0,0,1-1.07.47,2.14,2.14,0,0,0-2-1.28h-.28a2.36,2.36,0,0,0-.62,0l-.54.1c-8.15.94-16.43,8.08-21.06,14.5-1.6,2.1-1.9,4.5-3,6.8-1.2,2.7-3.4,5.4-4.9,8-1,2.6-2.4,3.1-5.1,2.9-.7,0-3.2-.2-3-1.6.2-1.7,2.4-3.7,3.2-5.2,3.9-7.7,9.3-14.2,14.1-21.4,2.4-2.9,4.2-6.4,6.9-9.1,5.4-5.3,11.9-7.3,18.8-9.7a21.47,21.47,0,0,1,4.4-1.3,1.22,1.22,0,0,0,.15.17,2,2,0,0,0,1.55.63,1.89,1.89,0,0,0,2-1.27,2,2,0,0,1,.86.76c.33-.35.67-.69,1-1l1.66.53c10.26,3.22,21.19,2.34,31.85,2.21a2.11,2.11,0,0,0,2,1,3.39,3.39,0,0,1,.76-1.41,1.41,1.41,0,0,1,.17-.18,4.29,4.29,0,0,1,1.71-1.23,7.24,7.24,0,0,1,3-.56c0-.17,0-.31,0-.38l.35.39a6.64,6.64,0,0,1,1,.1h0a13,13,0,0,1,3,.77,12.17,12.17,0,0,1,3.24,1.81,2,2,0,0,0,1-.46c6.73,2.33,13.16,4.36,18.34,9.54,2.7,2.7,4.5,6.2,6.9,9.1,4.8,7.2,10.2,13.7,14.1,21.4C215.09,199.59,217.29,201.59,217.49,203.29ZM173.79,167c-.1,0-.1.1,0,0Zm-20.36,87.17a.25.25,0,0,1,0-.07,5.21,5.21,0,0,0-.6,1.5l.11-.1h0A3.85,3.85,0,0,1,153.43,254.16Zm-5-23.67a2.1,2.1,0,1,0-2.1,2.1,1.85,1.85,0,0,0,.7-.13A2.09,2.09,0,0,0,148.39,230.49Zm-9.6-28.3a.3.3,0,1,0-.3.3A.27.27,0,0,0,138.79,202.19Zm-22.55-34.42c.09-.18.19-.35.28-.52a1.7,1.7,0,0,1-.53.24A3.33,3.33,0,0,1,116.24,167.77Zm-17.55,2.32a.76.76,0,0,1-.4-.1c-.7.7-1.4,1.6-2.1,2.4A27.25,27.25,0,0,1,98.69,170.09Z" fill="#292a2b"/><path d="M198.37,189.42l-.38.27c-1.8-2.5-4.3-4.4-6.5-6.5-2.61-2.38-5.74-4.87-9.23-5.85l.83-.55a2.17,2.17,0,0,0,.8-.9c.18.13.38.26.6.4,1.3.8,2.8,1.1,4.1,2C192.75,181.12,195.5,185.37,198.37,189.42Z" fill="#151315"/><path d="M185.19,116.09c0,3.2.6,7.2,0,10.4s-2.8,6.3-3.3,9.5c-.6,3.6,0,6.3-1.2,9.9l-1.4.7-1.5,1.4c-1.45,1.38-3.09,3.38-4.82,4.95a15.23,15.23,0,0,0-4.48-.65l-1,1.46c-.78.08-1.55.21-2.33.35-.7-.74-1.43-1.45-2.17-2.12a25.84,25.84,0,0,0,2.61-.79l.4-.14a12.36,12.36,0,0,0,1.68-.76c2.2-1.3,4.4-4.3,6.2-6l.7-.7a2.34,2.34,0,0,1,.7-.7l.6-.6c.4-2.4,0-4.5.5-7.2.5-3.3,2.7-6.3,3.5-9.6.5-2.7,0-6,0-8.7-.3-.9-2.1-5.7-2.2-6.3-.6-2.9-.2-5.9-1.9-8.6a32.14,32.14,0,0,0-8-7.6c-.9-.5-2.1-.4-3.1-.9-5-2.3-10.4-5.2-16-6.1a26.77,26.77,0,0,0-5.7-.1,1.06,1.06,0,0,1,0,.19h-.26a2.43,2.43,0,0,1-.94,1.68s0,0,0,0a3.58,3.58,0,0,1-1.54.41c-3.6,0-8.3-.5-11.9,0s-5,3.3-7.9,4.9c-2.25,1.26-4.67,1.55-6.37,3.65a6.6,6.6,0,0,0-.73.95c-2.2,3.4-2.3,8-3,11.7-.2,1.1-.9,2.1-1.1,3.2-.7,3.8,0,8.4,0,12.3,0,2.1.1,4.2,0,6.3,0,.7-.5,1.5-.2,2.2.7,1.7,3.2,2.3,4.3,3.8.6.9.5,2.2,1.1,3.2a6.9,6.9,0,0,0,1.8,1.6c1.8,1.7,4,4.7,6.2,6a13.68,13.68,0,0,0,3.44,1.17,36.66,36.66,0,0,0-3.38,3l-1.16-1.71a15.13,15.13,0,0,0-3.67.44,39.85,39.85,0,0,1-7.83-7.94c-.6-.9-.5-2.2-1.1-3.2-1.1-1.8-3.8-2.6-4.7-4.6-1.1-2.5-.2-7.7-.2-10.5,0-4.2-.7-9,0-13.1.2-1.1.9-2.1,1.1-3.2.8-4.4,1.2-9.6,3.7-13.6.2-.3,5-4.9,5.4-5.1,1-.6,2.3-.5,3.3-1.1,3.6-2,5.4-4.9,10-5.6a52,52,0,0,1,8.9-.2c.4-1.9,2.7-1.9,2.7-1.9,3.3,0,7.2-.5,10.5,0,6.1,1,12.1,4,17.5,6.6,1.1.5,2.5.6,3.6,1.2.3.2,4.5,4.1,5,4.6s4.7,4.4,4.9,4.7c2.1,3.3,2,6.9,2.6,10.5C183.39,112,184.49,114,185.19,116.09Z" fill="#151315"/><path d="M184.09,175a2,2,0,0,1-.2.9c-1.48-1-1.87-1.76-3.43-2.14.07-.14.15-.28.21-.43l.22-.13a1.84,1.84,0,0,1,1-.29c.39.07.78.16,1.16.26A2.12,2.12,0,0,1,184.09,175Z" fill="#151315"/><path d="M183.89,175.89a2.17,2.17,0,0,1-.8.9l-.83.55a10.9,10.9,0,0,0-3.27-.45,2.55,2.55,0,0,1-1.1-.3l-.21-.63a5.34,5.34,0,0,0,2.78-2.21C182,174.13,182.41,174.86,183.89,175.89Z" fill="#151315"/><path d="M183,173.16c-.38-.1-.77-.19-1.16-.26H182A2.07,2.07,0,0,1,183,173.16Z" fill="#151315"/><path d="M182.26,177.34l-1,.65v.1c-.7.4-1.5.9-2.2,1.3a2,2,0,0,1-.32.14c-.27-1-.57-2-.88-2.94a2.55,2.55,0,0,0,1.1.3A10.9,10.9,0,0,1,182.26,177.34Z" fill="#151315"/><path d="M180.89,172.74c.32,0,.64.09,1,.16a1.84,1.84,0,0,0-1,.29l-.22.13C180.75,173.14,180.82,173,180.89,172.74Z" fill="#151315"/><path d="M178.77,179.53a86.43,86.43,0,0,1,3.12,23.26,80.83,80.83,0,0,1-7.2,34.22,5.87,5.87,0,0,0-2.22-1.4,79.37,79.37,0,0,0,6.82-32.52,80.9,80.9,0,0,0-4-25.9,8.6,8.6,0,0,1-3.9.9,8.18,8.18,0,0,1-3.56-.8l.21-.09h0a8.25,8.25,0,0,0,3.34.69,8.51,8.51,0,0,0,4.43-1.25l.17-.06a1.87,1.87,0,0,0,.2,2A1.93,1.93,0,0,0,178.77,179.53Z" fill="#151315"/><path d="M179.89,116.79c0,2.7.5,6,0,8.7-.8,3.3-3,6.3-3.5,9.6-.5,2.7-.1,4.8-.5,7.2l-.6.6a2.34,2.34,0,0,0-.7.7l-.7.7c-1.8,1.7-4,4.7-6.2,6a12.36,12.36,0,0,1-1.68.76,11.05,11.05,0,0,0,1.38-.66c2.2-1.2,4.4-4.3,6.2-6l.7-.7a4.62,4.62,0,0,1,.7-.7l.6-.6c.7-2.6.2-4.6.7-7.3.6-3.3,2.8-6.3,3.3-9.5.5-2.7,0-5.9,0-8.7-.3-.9-2.1-5.7-2.2-6.3-.5-2.8-.2-5.9-1.9-8.5a32.14,32.14,0,0,0-8-7.6,28,28,0,0,0-3.1-.9c-4.9-2.3-10.3-5.2-16-6.1a25.25,25.25,0,0,0-5.44-.11,1.06,1.06,0,0,0,0-.19,26.77,26.77,0,0,1,5.7.1c5.6.9,11,3.8,16,6.1,1,.5,2.2.4,3.1.9a32.14,32.14,0,0,1,8,7.6c1.7,2.7,1.3,5.7,1.9,8.6C177.79,111.09,179.59,115.89,179.89,116.79Z" fill="#151315"/><path d="M179.79,266c0,.2.1.4.1.6a2.11,2.11,0,0,1-2.1,2.1v3a5.37,5.37,0,0,1,.5,2.1,123.66,123.66,0,0,1,.5,14.9l-.1.2h.1l-.5,2.1a2.25,2.25,0,0,1-2.1,1.7,2,2,0,0,1-.64-.11c1-.71,1.68-1.93,2.54-2.79-.3-1.9-.8-3.7-1-5.6-.4-4,.4-8.2,0-12.2-.2-2.7-.5-5.1-.5-7.8s.17-5.29.18-7.91a13,13,0,0,0,.82,3.21c.3.8,1,1.4,1.1,2.2v.2h.1Z" fill="#fff"/><path d="M177.89,176.59c.31,1,.61,1.95.88,2.94a1.93,1.93,0,0,1-2.58-.94,1.87,1.87,0,0,1-.2-2c.46-.15.89-.31,1.3-.47A1.77,1.77,0,0,0,177.89,176.59Z" fill="#151315"/><path d="M177.68,176l.21.63a1.77,1.77,0,0,1-.6-.48Z" fill="#151315"/><path d="M177.09,245.49c1,.4,1.6,1.2-.2,2.6-.1,1.15-.28,2.2-.47,3.25a33,33,0,0,1-.93-3.45c-.3-2.7,0-5-.6-7.7l.1-1.1a2.44,2.44,0,0,0-.57-1.5c.1-.19.19-.39.27-.58.31.28.64.6,1,1s.3,1.7.1,3.2a1.85,1.85,0,0,1,.7,1.2l.5,2.1h-.1l.2.2Z" fill="#fff"/><path d="M177.09,272c.4,4-.4,8.2,0,12.2.2,1.9.7,3.7,1,5.6-.86.86-1.49,2.08-2.54,2.79a2.49,2.49,0,0,1-.76-.39h-.2a2.36,2.36,0,0,1-1.6-.7l.79-2.85a.29.29,0,0,0,.31-.05c-2.5-4.9-.6-11-1.1-16.2-.6-5.7,0-11.6-.3-17.4a2.71,2.71,0,0,1-.3-1.1c-.5-2.1-1.6-4.4-2.1-6.4-.1-.3-.1-5.2-.1-5.8a2.76,2.76,0,0,1,.1-.65,3.75,3.75,0,0,1,1.5,1.45c.94-1.56,1.82-3.2,2.63-4.9a2.44,2.44,0,0,1,.57,1.5l-.1,1.1c.6,2.7.3,5,.6,7.7a33,33,0,0,0,.93,3.45l0,.15.1.3h-.1l.16.16a2,2,0,0,1,0,.24v0a31.06,31.06,0,0,0,.18,4v0c0,2.62-.18,5.29-.18,7.91S176.89,269.29,177.09,272Z" fill="#151315"/><path d="M176.59,252.22a38.63,38.63,0,0,1,.18,4A31.06,31.06,0,0,1,176.59,252.22Z" fill="#151315"/><path d="M176.59,252v.2a2,2,0,0,0,0-.24Z" fill="#fff"/><path d="M176.55,252l-.16-.16h.1l-.1-.3,0-.15A6,6,0,0,1,176.55,252Z" fill="#151315"/><path d="M176,176.51a.16.16,0,0,0,0,.07l-.17.06Z" fill="#555556"/><path d="M175.7,156.16a2.57,2.57,0,0,1-.11.83,2.26,2.26,0,0,1-.64,1.06l-.46-.16a27.42,27.42,0,0,0-3.75-1.19,13,13,0,0,0-3-.77l1.54-.44v.1c.1,0,.2-.1.3-.1C171.22,154.87,173.56,155.45,175.7,156.16Z" fill="#151315"/><path d="M175.55,292.58a3.36,3.36,0,0,1-.56.31c-.9.4-2-.4-3-.5a23.23,23.23,0,0,0-3.43-.09,2.13,2.13,0,0,1,.33-.11h2.5a2.36,2.36,0,0,0,1.6-.7,2.36,2.36,0,0,0,1.6.7h.2A2.49,2.49,0,0,0,175.55,292.58Z" fill="#151315"/><path d="M174.49,157.89l.46.16a2,2,0,0,1-1,.46,12.17,12.17,0,0,0-3.24-1.81A27.42,27.42,0,0,1,174.49,157.89Z" fill="#151315"/><path d="M174.69,237c-.08.19-.17.39-.27.58a2,2,0,0,0-1.53-.6,2.08,2.08,0,0,0-1.24.35c.29-.57.56-1.14.82-1.73A5.87,5.87,0,0,1,174.69,237Z" fill="#fff"/><path d="M174.19,154.49c0-.17,1.46.24,1.51,1.67-2.14-.71-4.48-1.29-6.11-.67-.1,0-.2.1-.3.1v-.1l-1.54.44h0a16.19,16.19,0,0,0,2.85-1.23,8.89,8.89,0,0,0,1.34-.89Z" fill="#151315"/><path d="M173.78,288.64l-.79,2.85a2.36,2.36,0,0,1-1.6.7h-2.5a2.13,2.13,0,0,0-.33.11c-.64,0-1.26.05-1.87.09a4,4,0,0,0-.9.13l-1.8-.43h-.1l-1.45-.36a22.79,22.79,0,0,1-.75-2.54c-.17-.49-.33-1-.49-1.48l.19-.12a2.29,2.29,0,0,1-.32-.26c-.46-1.42-.92-2.88-1.48-4.34-1.3-3.5-3.8-6.2-5.3-9.4-1.72-3.82-2-9-2.7-13.22v-.16c.74-.24,1.47-.51,2.2-.82a3.5,3.5,0,0,1-1-2.29,2.09,2.09,0,0,1,1.37-.41,2.06,2.06,0,0,1,2.1,2.1,23.11,23.11,0,0,0,1,6.4v-.5a2.08,2.08,0,0,1,.2,2.8,14.88,14.88,0,0,0,.8,4.2,12.38,12.38,0,0,0,1.4,1.8,45,45,0,0,1,4,7.9c.5,1.4,1.1,2.8,1.6,4.3.14.36.27.7.37,1.05l-.27.05a1.45,1.45,0,0,0,.2.7,2.09,2.09,0,0,1,.22-.2,4,4,0,0,1,.08.8c0,.3-.7.8-.4.8s.4-.7.8-.8a19.64,19.64,0,0,1,6.4,0C173.05,288.16,173.46,288.54,173.78,288.64Z" fill="#151315"/><path d="M173.79,167c-.1.1-.1,0,0,0Z" fill="#555556"/><path d="M172.89,237a2,2,0,0,1,1.53.6c-.81,1.7-1.69,3.34-2.63,4.9a3.75,3.75,0,0,0-1.5-1.45,2.16,2.16,0,0,1,.5-.85V239c.3-.55.58-1.1.86-1.66A2.08,2.08,0,0,1,172.89,237Z" fill="#151315"/><path d="M173,152.94c-.35.31-.69.6-1,.86h0a16.57,16.57,0,0,0-4.39,0l1-1.46A15.23,15.23,0,0,1,173,152.94Z" fill="#151315"/><path d="M171.89,153.79h0a8.89,8.89,0,0,1-1.34.89,16.19,16.19,0,0,1-2.85,1.23h0a6.64,6.64,0,0,0-1-.1l-.35-.39v-.05l1.11-1.64A16.57,16.57,0,0,1,171.89,153.79Z" fill="#151315"/><path d="M171.65,237.34c-.28.56-.56,1.11-.86,1.66A2.25,2.25,0,0,1,171.65,237.34Z" fill="#151315"/><path d="M170.79,239.09v1.1a2.16,2.16,0,0,0-.5.85,3.91,3.91,0,0,0-1.08-.36,5.51,5.51,0,0,1,.58.11c.34-.59.68-1.18,1-1.79Z" fill="#fff"/><path d="M166.69,292.39c.61,0,1.23-.07,1.87-.09-.69.24-1.37.65-2,.39-.2-.1-.3-.1-.5-.2v.1l-.3-.07A4,4,0,0,1,166.69,292.39Z" fill="#fff"/><path d="M167.5,153.75l-1.11,1.64v.05c-.4-.46-.8-.91-1.22-1.34C166,154,166.72,153.83,167.5,153.75Z" fill="#151315"/><path d="M166.42,155.82a7.24,7.24,0,0,0-3,.56c-.55-.57-1.12-1.11-1.69-1.62,1.18-.22,2.34-.46,3.49-.66.42.43.82.88,1.22,1.34C166.39,155.51,166.4,155.65,166.42,155.82Z" fill="#151315"/><path d="M165.66,286.74a4.94,4.94,0,0,1,.15.55,2.09,2.09,0,0,0-.22.2,1.45,1.45,0,0,1-.2-.7Z" fill="#151315"/><path d="M164,292.09l1.8.43c-.93.22-1.85.6-2.6.07a2.15,2.15,0,0,1-.75-.86l1.45.36Z" fill="#151315"/><path d="M163,152c.74.67,1.47,1.38,2.17,2.12-1.15.2-2.31.44-3.49.66-.73-.68-1.47-1.31-2.23-1.89C160.56,152.56,161.79,152.29,163,152Z" fill="#151315"/><path d="M163,152l0,0c-1.21.31-2.44.58-3.55.89h0C160.53,152.54,161.75,152.26,163,152Z" fill="#151315"/><path d="M161.68,154.76c.57.51,1.14,1.05,1.69,1.62a4.29,4.29,0,0,0-1.71,1.23c-.76.19-1.49.38-2.17.58h-.75a2.67,2.67,0,0,1-.25-.81,2.08,2.08,0,0,1,1.8-2.4Z" fill="#151315"/><path d="M162.44,291.73l-.55-.14a2.25,2.25,0,0,1-1.7-2.1,2.2,2.2,0,0,1,1-1.78c.16.5.32,1,.49,1.48A22.79,22.79,0,0,0,162.44,291.73Z" fill="#fff"/><path d="M162.69,117.89a4.11,4.11,0,0,1-4.2,3.9,3.91,3.91,0,1,1,0-7.8A4.18,4.18,0,0,1,162.69,117.89Z"/><path d="M161.68,154.76l-1.39.23a2.08,2.08,0,0,0-1.8,2.4,2.67,2.67,0,0,0,.25.81c-10.66.13-21.59,1-31.85-2.21l-1.66-.53a33.78,33.78,0,0,1,4.74-3.84c9.17,2.46,18.93,1.48,28.42,1.57.34-.11.68-.22,1.05-.32h0C160.21,153.45,161,154.08,161.68,154.76Z" fill="#151315"/><path d="M161.66,157.61a1.41,1.41,0,0,0-.17.18,3.39,3.39,0,0,0-.76,1.41,2.11,2.11,0,0,1-2-1h.75C160.17,158,160.9,157.8,161.66,157.61Z" fill="#151315"/><path d="M161.39,287.59l-.19.12c0-.12-.09-.25-.13-.38A2.29,2.29,0,0,0,161.39,287.59Z" fill="#151315"/><path d="M161.07,287.33a4.86,4.86,0,0,1-.68-.74,2.22,2.22,0,0,1-1.3-1.9v-.2c-.5-1.1-1-2.3-1.4-3.1s-1.3-1.6-1.2-2.6h-.1c-1.5-.2-1.3-2.7-2-4.1a23,23,0,0,1-1.4-4.5c-1.79-3-1.41-6.06-1.4-9.82.72,4.2,1,9.4,2.7,13.22,1.5,3.2,4,5.9,5.3,9.4C160.15,284.45,160.61,285.91,161.07,287.33Z" fill="#fff"/><path d="M159.44,152.86h0c-.37.1-.71.21-1.05.32-9.49-.09-19.25.89-28.42-1.57l.17-.11c9.26,2.47,19,1.48,28.55,1.58Z" fill="#292a2b"/><path d="M153.49,259.09c.1.1.2.2.1.3a1.38,1.38,0,0,1-.3-.4C153.39,259.09,153.39,259.09,153.49,259.09Z" fill="#151315"/><path d="M153.39,254.09a.25.25,0,0,0,0,.07,3.85,3.85,0,0,0-.53,1.32h0l-.11.1A5.21,5.21,0,0,1,153.39,254.09Z" fill="#fff"/><path d="M152.89,134l-.1,1.4c-1.1,3.2-2.4,6.1-5.8,7.3-2.5.9-5.3-.3-7.6-.7-4.4-.7-8.1-1.5-11.9-4a2.16,2.16,0,0,1,2.4-3.6c3.2,2.2,6.5,2.7,10.3,3.4,1.7.3,3.9,1.3,5.7.8s2.5-3,3-4.5l-.3-.1a2.09,2.09,0,0,1,2.2-2.1A2.06,2.06,0,0,1,152.89,134Z"/><path d="M152.82,257.1a3.5,3.5,0,0,0,1,2.29c-.73.31-1.46.58-2.2.82v-.12l-.06-.06h0c0-.08,0-.15,0-.23a2.16,2.16,0,0,1,.9-2.2A1.81,1.81,0,0,1,152.82,257.1Zm.77,2.29c.1-.1,0-.2-.1-.3s-.1,0-.2-.1A1.38,1.38,0,0,0,153.59,259.39Z" fill="#151315"/><path d="M152.79,256.59a4.12,4.12,0,0,0,0,.51,1.81,1.81,0,0,0-.43.49,2.16,2.16,0,0,0-.9,2.2c0,.08,0,.15,0,.23a8.37,8.37,0,0,1-1.39-2.22,25.91,25.91,0,0,0,2.65-.91Z" fill="#fff"/><path d="M151.59,260.29v.08a.8.8,0,0,0,0-.15h0Z" fill="#151315"/><path d="M151.59,260.09v.12h0a1.08,1.08,0,0,0,0-.19Z" fill="#151315"/><path d="M151.53,260a1.08,1.08,0,0,1,0,.19,25.71,25.71,0,0,1-8.07,1.27A27.38,27.38,0,0,1,128.67,257l.12-.47-1.3-1.7.2-.8a2.62,2.62,0,0,0,0-1.15,25.53,25.53,0,0,0,15.83,6,23.33,23.33,0,0,0,6.65-1,8.37,8.37,0,0,0,1.39,2.22Z" fill="#151315"/><path d="M146.29,228.39a2.11,2.11,0,0,1,2.1,2.1,2.09,2.09,0,0,1-1.4,2l-1.6-2.17a2,2,0,0,0-1-.77A2.13,2.13,0,0,1,146.29,228.39Z" fill="#151315"/><path d="M145.39,230.29l1.6,2.17a1.85,1.85,0,0,1-.7.13,2.1,2.1,0,0,1-1.86-3.07A2,2,0,0,1,145.39,230.29Z" fill="#151315"/><path d="M141.73,89.08a3.41,3.41,0,0,1-1.84.61c-3.5,0-8.2-.6-11.8,0s-5,3.3-7.9,4.9c-2.25,1.3-4.51,1.62-6.17,3.45,1.7-2.1,4.12-2.39,6.37-3.65,2.9-1.6,4.2-4.4,7.9-4.9s8.3,0,11.9,0A3.58,3.58,0,0,0,141.73,89.08Z" fill="#151315"/><circle cx="138.49" cy="202.19" r="0.3" fill="#292a2b"/><path d="M130.14,151.51l-.17.11c-.5-.13-1-.28-1.48-.43-.85-.3-1.76-.51-2.66-.73l.07-.05c.94.22,1.9.41,2.79.68C129.17,151.24,129.66,151.38,130.14,151.51Z" fill="#151315"/><path d="M128.49,151.19c.49.15,1,.3,1.48.43a33.78,33.78,0,0,0-4.74,3.84c-.57-.17-1.21-.38-1.86-.59l-.92-1.37a36.66,36.66,0,0,1,3.38-3C126.73,150.68,127.64,150.89,128.49,151.19Z" fill="#151315"/><path d="M127.49,254.79l1.3,1.7-.12.47c-.61-.4-1.2-.8-1.78-1.23a8,8,0,0,1-.3-1.14v-.9a2.21,2.21,0,0,0,.58-1.25l.49.4a2.62,2.62,0,0,1,0,1.15Z" fill="#151315"/><path d="M126.89,255.73c.58.43,1.17.83,1.78,1.23a84.84,84.84,0,0,1-5.88,17.53c-2.2,4.4-5.2,8.4-7.4,12.7a5.45,5.45,0,0,0-.49,1.9h0a26.35,26.35,0,0,0,.2-2.8l.3.1.5-2.6v-.2a2,2,0,0,0,.9-.9l.9-1.8.3-.3-.1-.1a2.18,2.18,0,0,0,.4-.5l.1-.1v-.1a28,28,0,0,0,2.7-5.8c.1-.5,2.1-4,2.1-4.3v-.2h.1l.5-2.1a.76.76,0,0,0,.1-.4c.4-.5,1.2-.7,1.3-1.3,0-.2.1-.4.1-.6h.1l.5-2.1a1.27,1.27,0,0,0,.1-.6,2.13,2.13,0,0,0-.3-1.2,8.09,8.09,0,0,0,1.4-4.2A2.93,2.93,0,0,0,126.89,255.73Z" fill="#151315"/><path d="M127.66,252.84l-.49-.4a2.09,2.09,0,0,0,0-.25l-.09-.3A1.78,1.78,0,0,1,127.66,252.84Z" fill="#151315"/><path d="M127.1,251.89l.09.3a2.09,2.09,0,0,1,0,.25c-.42-.34-.84-.7-1.25-1.08l.17,0A2.28,2.28,0,0,1,127.1,251.89Z" fill="#151315"/><path d="M126.89,255.73a2.93,2.93,0,0,1,.2,1.26,8.09,8.09,0,0,1-1.4,4.2,2.13,2.13,0,0,1,.3,1.2,1.27,1.27,0,0,1-.1.6l-.5,2.1h-.1c0,.2-.1.4-.1.6-.1.6-.9.8-1.3,1.3a.76.76,0,0,1-.1.4l-.5,2.1h-.1v.2c0,.3-2,3.8-2.1,4.3a28,28,0,0,1-2.7,5.8v.1l-.1.1a2.18,2.18,0,0,1-.4.5l.1.1-.3.3-.9,1.8a2,2,0,0,1-.9.9v.2l-.5,2.6-.3-.1a26.35,26.35,0,0,1-.2,2.8l-.5,2.1a1.7,1.7,0,0,1-.6,1c0,.1-.1.2-.1.3a1.08,1.08,0,0,1,0,1.1,5.72,5.72,0,0,1-.7.8c-.1.1-.1.2-.2.3-1.68,2-5.79,1.15-8.28,1.19h-.1c-.74-.05-1.39-.09-1.82-.09-1.3,0-3,.8-3.9-.1a1.92,1.92,0,0,1-.4-1.8,5.81,5.81,0,0,1-.65-.56l.15-.14c-.23-.14-.46-.28-.66-.43a4,4,0,0,1-.62-1.12c0-1.68,2.32-6.2,2.68-7.55a21.11,21.11,0,0,0,1.22-2.93c.09-.25.17-.5.24-.76s.2-.65.28-1l0-.1c.43-1.31,1.09-2.63,1.53-3.94a2.92,2.92,0,0,0,.2-.9,2.2,2.2,0,0,0,.1-.8c.15-1.49.2-3,.22-4.48.12-.51.24-1,.38-1.52.8-2.8,1.9-5.5,2.6-8.4.9-3.6,1.6-8,3.4-11.2.4-.7,1.2-1.1,1.7-1.8.7-1,.7-2.4,1.3-3.5l.5-2.1a2.11,2.11,0,0,1,.69-1.13,53,53,0,0,0,2.91,4.94,60.26,60.26,0,0,1-2.1,8.29c-1.1,3-3.1,5.6-4.3,8.5-2.4,6.3-2.3,13.5-5.3,19.6,0,.1,0,.1-.1.2a63.94,63.94,0,0,0-2,8.4v.8h.3a11,11,0,0,1,2.6.6,9.33,9.33,0,0,1,1.5.7,4.8,4.8,0,0,0,2.1-.1,1.05,1.05,0,0,0,.5-.9c.2-1.8,0-3.6.5-5.3.8-2.5,2.5-4.6,3.9-6.8,2-3.2,2.9-6.9,4.6-10.3.4-1.5,1.1-2.8,1.6-4.2,1-3.1,1.2-6.1,2.7-9.1l.5-1.9,0-.07A38.41,38.41,0,0,0,126.89,255.73Z" fill="#151315"/><path d="M127.17,252.44a2.21,2.21,0,0,1-.58,1.25v.9a8,8,0,0,0,.3,1.14,38.41,38.41,0,0,1-3.38-2.81,2.08,2.08,0,0,1,2.41-1.56C126.33,251.74,126.75,252.1,127.17,252.44Z" fill="#151315"/><path d="M125.23,155.46c-.34.33-.68.67-1,1a2,2,0,0,0-.86-.76c.17-.47.12-.87,0-.83l0,0C124,155.08,124.66,155.29,125.23,155.46Z" fill="#151315"/><path d="M123.39,154.89c.09,0,.14.36,0,.83a1.63,1.63,0,0,0-.37-.13l-2-.57.66-.71,1.71.56Z" fill="#151315"/><path d="M122.45,153.5l.92,1.37-1.71-.56C121.92,154,122.18,153.76,122.45,153.5Z" fill="#151315"/><path d="M123,155.59a1.63,1.63,0,0,1,.37.13,1.89,1.89,0,0,1-2,1.27,2,2,0,0,1-1.55-.63c.38-.46.77-.9,1.16-1.34Z" fill="#151315"/><path d="M121.29,151.79l1.16,1.71c-.27.26-.53.53-.79.81-1.08-.36-1.93-.65-2.07-.72a17.81,17.81,0,0,1-2-1.36A15.13,15.13,0,0,1,121.29,151.79Z" fill="#151315"/><path d="M121.66,154.31,121,155l-.11,0v.1c-.1,0-.2-.1-.3-.1-2.1-.8-5.4.4-7.9,1.3-.5.2-1.1.4-1.7.6l-2.7.9a3.29,3.29,0,0,0-.6.3A40,40,0,0,0,97,165c-5.7,5.2-9.8,12.1-14.7,18-2.3,4.1-5,8.3-7.6,12.2l-1,2.3a1.77,1.77,0,0,0-.7,1.1,2.25,2.25,0,0,0-1.6,2.1v.3a1.76,1.76,0,0,0-2,.9,2.12,2.12,0,0,0,.6,3c2.8,1.7,7.9,2.9,11,.9a7.37,7.37,0,0,0,1.7-1.8,2.32,2.32,0,0,0,1.6-1.7l.6-2.1c.9-1.7,1.7-3.3,2.5-5.1,1-1.5,2.1-3.1,3.4-4.8l.86-1.2.14.1c-1.4,2-1.6,4.1-2.6,6.2-1.3,2.8-3.5,5.4-5,8.1a8.69,8.69,0,0,1-3.8,4.4c-4.2,2.1-12.1.9-12.3-5-.1-2.6,2.6-5.1,3.6-7.2,3.9-7.9,9.5-14.6,14.5-22,2.6-3.1,4.5-6.7,7.3-9.5,5.8-5.8,12.9-8.1,20.3-10.7a36.22,36.22,0,0,1,3.83-1.26,17.81,17.81,0,0,0,2,1.36C119.73,153.66,120.58,154,121.66,154.31Z" fill="#151315"/><path d="M120.89,155l.11,0c-.39.44-.78.88-1.16,1.34a1.22,1.22,0,0,1-.15-.17,21.47,21.47,0,0,0-4.4,1.3c-6.9,2.4-13.4,4.4-18.8,9.7-2.7,2.7-4.5,6.2-6.9,9.1-4.8,7.2-10.2,13.7-14.1,21.4-.8,1.5-3,3.5-3.2,5.2-.2,1.4,2.3,1.6,3,1.6,2.7.2,4.1-.3,5.1-2.9,1.5-2.6,3.7-5.3,4.9-8,1.1-2.3,1.4-4.7,3-6.8,4.63-6.42,12.91-13.56,21.06-14.5a18.65,18.65,0,0,0-3,.8,2.46,2.46,0,0,0-1.7.6l1,1.94c-1.28.78-2.75,1.18-4,2-4.29,2.92-7.07,7.33-10,11.5l-.86,1.2c-1.3,1.7-2.4,3.3-3.4,4.8-.8,1.8-1.6,3.4-2.5,5.1l-.6,2.1a2.32,2.32,0,0,1-1.6,1.7,7.37,7.37,0,0,1-1.7,1.8c-3.1,2-8.2.8-11-.9a2.12,2.12,0,0,1-.6-3,1.76,1.76,0,0,1,2-.9v-.3a2.25,2.25,0,0,1,1.6-2.1,1.77,1.77,0,0,1,.7-1.1l1-2.3c2.6-3.9,5.3-8.1,7.6-12.2,4.9-5.9,9-12.8,14.7-18a40,40,0,0,1,10.7-6.9,3.29,3.29,0,0,1,.6-.3l2.7-.9c.6-.2,1.2-.4,1.7-.6,2.5-.9,5.8-2.1,7.9-1.3.1,0,.2.1.3.1Z" fill="#151315"/><path d="M116.7,238.49a2.24,2.24,0,0,1,.43,1.59c-.29-.51-.57-1-.85-1.56a1.55,1.55,0,0,1,.31,0Z" fill="#151315"/><path d="M116.28,238.52c.28.53.56,1,.85,1.56a1.8,1.8,0,0,1,0,.31c0,.1,0,.2-.1.2a3.27,3.27,0,0,1,.1,1.3c-.22.85-.41,1.72-.6,2.61a53,53,0,0,1-2.91-4.94A2.1,2.1,0,0,1,115,239h.2A1.8,1.8,0,0,1,116.28,238.52Z" fill="#151315"/><path d="M116.7,238.49h-.11a1.55,1.55,0,0,0-.31,0A5.85,5.85,0,0,1,116,238,2,2,0,0,1,116.7,238.49Z" fill="#151315"/><path d="M116.52,167.25c-.09.17-.19.34-.28.52a3.33,3.33,0,0,0-.25-.28A1.7,1.7,0,0,0,116.52,167.25Z" fill="#151315"/><path d="M116,238a5.85,5.85,0,0,0,.28.56,1.8,1.8,0,0,0-1.09.47H115a2.1,2.1,0,0,0-1.41.57c-.15-.27-.29-.53-.42-.8a2,2,0,0,1,2.33-1A3,3,0,0,1,116,238Z" fill="#151315"/><path d="M116,238a3,3,0,0,0-.51-.17,2,2,0,0,0-2.33,1c-5.06-10-8.07-22.47-8.07-36.07a84.87,84.87,0,0,1,4-26,14,14,0,0,1,1.43-.31h.32a2.06,2.06,0,0,0,2.1-2.1,2.23,2.23,0,0,0-.14-.82,2,2,0,0,0,1.07-.47,79.81,79.81,0,0,0-5.63,29.79C108.15,216.1,111.07,228.34,116,238Z" fill="#151315"/><path d="M114.89,289.09h0c-.32,2.76.27,6.55-1.71,7.9-2.6,1.8-5,.3-7.3-1l-1.38-.11c2.49,0,6.6.85,8.28-1.19.1-.1.1-.2.2-.3a5.72,5.72,0,0,0,.7-.8,1.08,1.08,0,0,0,0-1.1c0-.1.1-.2.1-.3a1.7,1.7,0,0,0,.6-1Z" fill="#151315"/><path d="M114.64,171.09a.37.37,0,0,0,0,.11v-.11Z" fill="#151315"/><path d="M114.59,171.2v.19a2.05,2.05,0,0,1-.77,1.61C114.07,172.39,114.32,171.79,114.59,171.2Z" fill="#292a2b"/><path d="M113.16,238.76c.13.27.27.53.42.8a2.11,2.11,0,0,0-.69,1.13l-.5,2.1c-.6,1.1-.6,2.5-1.3,3.5-.5.7-1.3,1.1-1.7,1.8-1.8,3.2-2.5,7.6-3.4,11.2-.7,2.9-1.8,5.6-2.6,8.4-.14.51-.26,1-.38,1.52.07-4.4-.09-8.76,1.48-13a88.58,88.58,0,0,1,4.9-10.9c1.2-2.2,3.1-3.6,3.5-5.9A2.58,2.58,0,0,1,113.16,238.76Z" fill="#151315"/><path d="M112.89,174.29a2.06,2.06,0,0,1-2.1,2.1h-.3a2.08,2.08,0,0,0,1.8-2.4,3.62,3.62,0,0,0-.12-.52l.32,0,.26,0A2.23,2.23,0,0,1,112.89,174.29Z" fill="#151315"/><path d="M112.75,173.47l-.26,0-.32,0a1.87,1.87,0,0,0-1.53-1.25s0,0,0,0h.14A2.14,2.14,0,0,1,112.75,173.47Z" fill="#151315"/><path d="M112.29,174a2.08,2.08,0,0,1-1.8,2.4h0a8.94,8.94,0,0,0-1.37.11c.37-1.16.77-2.29,1.2-3.4a2,2,0,0,0,1.09.09,1.82,1.82,0,0,0,.78.28A3.62,3.62,0,0,1,112.29,174Z" fill="#151315"/><path d="M112.17,173.47a1.82,1.82,0,0,1-.78-.28,2,2,0,0,1-1.09-.09c.11-.3.22-.59.34-.88A1.87,1.87,0,0,1,112.17,173.47Z" fill="#151315"/><path d="M110.65,172.2s0,0,0,0l-.13,0Z" fill="#151315"/><path d="M110.64,172.22c-.12.29-.23.58-.34.88a1,1,0,0,1-.21-.11c-2,.4-2.2,1.3-4.3,2.6l-.08,0-1-1.94a2.46,2.46,0,0,1,1.7-.6,18.65,18.65,0,0,1,3-.8l1.16-.09Z" fill="#151315"/><path d="M110.51,172.2l-1.16.09.54-.1A2.36,2.36,0,0,1,110.51,172.2Z" fill="#fff"/><path d="M110.3,173.1c-.43,1.11-.83,2.24-1.2,3.4a11.05,11.05,0,0,0-2.59.65l-.8-1.52.08,0c2.1-1.3,2.3-2.2,4.3-2.6A1,1,0,0,0,110.3,173.1Z" fill="#151315"/><path d="M109.1,176.5a8.94,8.94,0,0,1,1.37-.11,14,14,0,0,0-1.43.31Z" fill="#ffecd0"/><path d="M109.1,176.5l-.06.2a16.63,16.63,0,0,0-2.35.79l-.18-.34A11.05,11.05,0,0,1,109.1,176.5Z" fill="#ffecd0"/><path d="M105.71,175.63l.8,1.52a25.06,25.06,0,0,0-8.22,5.54c-2.2,2-4.7,4-6.5,6.5l-.14-.1c3-4.17,5.75-8.58,10-11.5C103,176.81,104.43,176.41,105.71,175.63Z" fill="#151315"/><path d="M104.41,295.88a2.91,2.91,0,0,0-.42,0c-.8.1-1.6.8-2.3.5v.6H99a2.07,2.07,0,0,1-1.35-3.66,5.81,5.81,0,0,0,.65.56,1.92,1.92,0,0,0,.4,1.8c.9.9,2.6.1,3.9.1C103,295.79,103.67,295.83,104.41,295.88Z" fill="#fff"/><path d="M103,269.21c0,1.49-.07,3-.22,4.48a2.2,2.2,0,0,1-.1.8,2.92,2.92,0,0,1-.2.9c-.44,1.31-1.1,2.63-1.53,3.94C101.84,276,102.23,272.58,103,269.21Z" fill="#fff"/><path d="M100.79,279.89c0-.15.09-.31.14-.46-.08.32-.18.65-.28,1C100.7,280.24,100.75,280.06,100.79,279.89Z" fill="#151315"/><path d="M100.41,281.16a21.11,21.11,0,0,1-1.22,2.93c-.36,1.35-2.67,5.87-2.68,7.55l0-.05c-.4-1.1.3-2.3.6-3.4C97.86,285.63,99.5,283.57,100.41,281.16Z" fill="#151315"/><path d="M98.29,170a.76.76,0,0,0,.4.1,27.25,27.25,0,0,0-2.5,2.3C96.89,171.59,97.59,170.69,98.29,170Z" fill="#292a2b"/><path d="M97.79,293.19l-.15.14a6.91,6.91,0,0,1-.51-.57C97.33,292.91,97.56,293.05,97.79,293.19Z" fill="#151315"/><path d="M97.13,292.76a1.66,1.66,0,0,1-.54-.67.85.85,0,0,1-.08-.45A4,4,0,0,0,97.13,292.76Z" fill="#fff"/></g></g></svg>