<svg id="f54ef035-2fe2-40a8-a021-bf98bfceff79" data-name="Layer 1" xmlns="http://www.w3.org/2000/svg" viewBox="0 0 290 357.9"><title>skin02</title><path d="M127.49,137.986c3.8,2.5,7.5,3.3,11.9,4,2.3.4,5.1,1.6,7.6.7,3.4-1.2,4.7-4.1,5.8-7.3l.1-1.4a2.0567,2.0567,0,0,0-2.1-2.1,2.0891,2.0891,0,0,0-2.2,2.1l.3.1c-.5,1.5-1.1,3.9-3,4.5-1.8.5-4-.5-5.7-.8-3.8-.7-7.1-1.2-10.3-3.4a2.1633,2.1633,0,0,0-2.4,3.6Zm31-16.2a4.107,4.107,0,0,0,4.2-3.9,4.1766,4.1766,0,0,0-4.2-3.9,3.9107,3.9107,0,1,0,0,7.8Zm9-27.3a32.1368,32.1368,0,0,1,8,7.6c1.7,2.6,1.4,5.7,1.9,8.5.1.6,1.9,5.4,2.2,6.3,0,2.8.5,6,0,8.7-.5,3.2-2.7,6.2-3.3,9.5-.5,2.7,0,4.7-.7,7.3l-.6.6a4.62,4.62,0,0,0-.7.7l-.7.7c-1.8,1.7-4,4.8-6.2,6a11.0531,11.0531,0,0,1-1.38.66c-.13.05-.26.1-.4.14a25.8355,25.8355,0,0,1-2.61.79l-.03-.03c-1.22.31-2.44.59-3.53.91-.26.07-.51.15-.75.23-9.6-.1-19.29.89-28.55-1.58-.48-.13-.97-.27-1.45-.42-.89-.27-1.85-.46-2.79-.68a.3039.3039,0,0,0-.07.05,13.68,13.68,0,0,1-3.44-1.17c-2.2-1.3-4.4-4.3-6.2-6a6.9,6.9,0,0,1-1.8-1.6c-.6-1-.5-2.3-1.1-3.2-1.1-1.5-3.6-2.1-4.3-3.8-.3-.7.2-1.5.2-2.2.1-2.1,0-4.2,0-6.3,0-3.9-.7-8.5,0-12.3.2-1.1.9-2.1,1.1-3.2.7-3.7.8-8.3,3-11.7a6.6049,6.6049,0,0,1,.73-.95c1.66-1.83,3.92-2.15,6.17-3.45,2.9-1.6,4.2-4.4,7.9-4.9,3.6-.6,8.3,0,11.8,0a3.41,3.41,0,0,0,1.84-.61c.01,0,.02,0,.02-.01a2.4268,2.4268,0,0,0,.94-1.68c.09,0,.17-.01.26-.01a25.2481,25.2481,0,0,1,5.44.11c5.7.9,11.1,3.8,16,6.1A28.046,28.046,0,0,1,167.49,94.486Zm-41.01,25.76a4.107,4.107,0,0,0,4.2-3.9,4.2115,4.2115,0,1,0-4.2,3.9Z" fill="#333"/><ellipse cx="126.4797" cy="116.346" rx="4.2" ry="3.9"/><path d="M217.49,203.286c.2,1.4-2.3,1.6-3,1.6-2.7.1-4.2-.4-5.1-2.9-1.5-2.6-3.7-5.3-4.9-8-1.1-2.3-1.4-4.6-3-6.8-4.07-5.77-11.17-12.11-18.48-14.03a2.07,2.07,0,0,0-1.02-.27.66.66,0,0,0-.14.01c-.32-.07-.64-.12-.96-.16-.07.21-.14.4-.22.58-.06.15-.14.29-.21.43a5.3374,5.3374,0,0,1-2.78,2.21l-.39.15c-.41.16-.84.32-1.3.47a.1612.1612,0,0,1,.04-.07,2.3924,2.3924,0,0,1-.21.13,8.5059,8.5059,0,0,1-4.43,1.25,8.248,8.248,0,0,1-3.34-.69h-.01l-.21.09a8.1847,8.1847,0,0,0,3.56.8,8.5985,8.5985,0,0,0,3.9-.9,80.9,80.9,0,0,1,4,25.9,79.3711,79.3711,0,0,1-6.82,32.52c-.26.59-.53,1.16-.82,1.73a2.2486,2.2486,0,0,0-.86,1.66c-.32.61-.66,1.2-1,1.79a5.5054,5.5054,0,0,0-.58-.11,3.9134,3.9134,0,0,1,1.08.36,2.7588,2.7588,0,0,0-.1.65c0,.6,0,5.5.1,5.8.5,2,1.6,4.3,2.1,6.4a2.7131,2.7131,0,0,0,.3,1.1c.3,5.8-.3,11.7.3,17.4.5,5.2-1.4,11.3,1.1,16.2a.2862.2862,0,0,1-.31.05c-.32-.1-.73-.48-1.09-.55a19.636,19.636,0,0,0-6.4,0c-.4.1-.4.8-.8.8-.3,0,.4-.5.4-.8a4.0159,4.0159,0,0,0-.08-.8,4.9447,4.9447,0,0,0-.15-.55c-.1-.35-.23-.69-.37-1.05-.5-1.5-1.1-2.9-1.6-4.3a45.048,45.048,0,0,0-4-7.9,12.3778,12.3778,0,0,1-1.4-1.8,14.8793,14.8793,0,0,1-.8-4.2,2.0792,2.0792,0,0,0-.2-2.8v.5a23.1092,23.1092,0,0,1-1-6.4,2.0567,2.0567,0,0,0-2.1-2.1,2.0906,2.0906,0,0,0-1.37.41,4.1163,4.1163,0,0,1-.03-.51v.3a25.9091,25.9091,0,0,1-2.65.91,23.33,23.33,0,0,1-6.65.99,25.5307,25.5307,0,0,1-15.83-5.95,1.785,1.785,0,0,0-.56-.95,2.2788,2.2788,0,0,0-1.01-.5,1.2233,1.2233,0,0,0-.17-.03,2.08,2.08,0,0,0-2.41,1.56c-.01.04-.02.07-.02.07l-.5,1.9c-1.5,3-1.7,6-2.7,9.1-.5,1.4-1.2,2.7-1.6,4.2-1.7,3.4-2.6,7.1-4.6,10.3-1.4,2.2-3.1,4.3-3.9,6.8-.5,1.7-.3,3.5-.5,5.3a1.05,1.05,0,0,1-.5.9,4.803,4.803,0,0,1-2.1.1,9.3306,9.3306,0,0,0-1.5-.7,10.9571,10.9571,0,0,0-2.6-.6h-.3v-.8a63.939,63.939,0,0,1,2-8.4c.1-.1.1-.1.1-.2,3-6.1,2.9-13.3,5.3-19.6,1.2-2.9,3.2-5.5,4.3-8.5a60.2581,60.2581,0,0,0,2.1-8.29c.19-.89.38-1.76.6-2.61a3.2723,3.2723,0,0,0-.1-1.3c.1,0,.1-.1.1-.2a1.7974,1.7974,0,0,0,.04-.31,2.24,2.24,0,0,0-.43-1.59,1.9586,1.9586,0,0,0-.7-.53c-4.93-9.62-7.85-21.86-7.81-35.17a79.81,79.81,0,0,1,5.63-29.79,2.0506,2.0506,0,0,0,.77-1.61v-.19a.37.37,0,0,1,.05-.11h-.05v.11c-.27.59-.52,1.19-.77,1.8a2.0018,2.0018,0,0,1-1.07.47,2.1423,2.1423,0,0,0-1.96-1.28.66.66,0,0,0-.14.01h-.14a2.36,2.36,0,0,0-.62-.01c-.18.03-.36.06-.54.1-8.15.94-16.43,8.08-21.06,14.5-1.6,2.1-1.9,4.5-3,6.8-1.2,2.7-3.4,5.4-4.9,8-1,2.6-2.4,3.1-5.1,2.9-.7,0-3.2-.2-3-1.6.2-1.7,2.4-3.7,3.2-5.2,3.9-7.7,9.3-14.2,14.1-21.4,2.4-2.9,4.2-6.4,6.9-9.1,5.4-5.3,11.9-7.3,18.8-9.7a21.47,21.47,0,0,1,4.4-1.3,1.2165,1.2165,0,0,0,.15.17,1.972,1.972,0,0,0,1.55.63,1.8932,1.8932,0,0,0,1.97-1.27,1.9717,1.9717,0,0,1,.86.76c.33-.35.67-.69,1.01-1.02.82.27,1.46.47,1.66.53,10.26,3.22,21.19,2.34,31.85,2.21a2.1077,2.1077,0,0,0,1.99,1,3.3877,3.3877,0,0,1,.76-1.41,1.4056,1.4056,0,0,1,.17-.18,4.2921,4.2921,0,0,1,1.71-1.23,7.2432,7.2432,0,0,1,3.05-.56c-.02-.17-.03-.31-.03-.38.12.13.23.26.35.39a6.6435,6.6435,0,0,1,.99.1l.01-.01.01.01a13.0219,13.0219,0,0,1,2.99.77,12.1655,12.1655,0,0,1,3.24,1.81,1.97,1.97,0,0,0,.97-.46c6.73,2.33,13.16,4.36,18.34,9.54,2.7,2.7,4.5,6.2,6.9,9.1,4.8,7.2,10.2,13.7,14.1,21.4C215.09,199.586,217.29,201.586,217.49,203.286Zm-43.7-36.3c-.1,0-.1.1,0,0Zm-20.36,87.17a.2506.2506,0,0,1-.04-.07,5.2125,5.2125,0,0,0-.6,1.5l.11-.1v-.01A3.845,3.845,0,0,1,153.43,254.156Zm-5.04-23.67a2.1,2.1,0,1,0-2.1,2.1,1.8511,1.8511,0,0,0,.7-.13A2.0886,2.0886,0,0,0,148.39,230.486Zm-9.6-28.3a.3.3,0,1,0-.3.3A.2652.2652,0,0,0,138.79,202.186Zm-22.55-34.42c.09-.18.19-.35.28-.52a1.6958,1.6958,0,0,1-.53.24A3.329,3.329,0,0,1,116.24,167.766Zm-17.55,2.32a.7559.7559,0,0,1-.4-.1c-.7.7-1.4,1.6-2.1,2.4A27.25,27.25,0,0,1,98.69,170.086Z" fill="#333"/><path d="M179.79,265.986c0,.2.1.4.1.6a2.1123,2.1123,0,0,1-2.1,2.1v3a5.3742,5.3742,0,0,1,.5,2.1,123.66,123.66,0,0,1,.5,14.9l-.1.2h.1l-.5,2.1a2.2481,2.2481,0,0,1-2.1,1.7,2.002,2.002,0,0,1-.64-.11c1.05-.71,1.68-1.93,2.54-2.79-.3-1.9-.8-3.7-1-5.6-.4-4,.4-8.2,0-12.2-.2-2.7-.5-5.1-.5-7.8,0-2.62.17-5.29.18-7.91a12.9638,12.9638,0,0,0,.82,3.21c.3.8,1,1.4,1.1,2.2v.2h.1Z" fill="#fff"/><path d="M177.09,245.486c1,.4,1.6,1.2-.2,2.6-.1,1.15-.28,2.2-.47,3.25a33.0457,33.0457,0,0,1-.93-3.45c-.3-2.7,0-5-.6-7.7l.1-1.1a2.4374,2.4374,0,0,0-.57-1.5c.1-.19.19-.39.27-.58.31.28.64.6,1,.98.4.5.3,1.7.1,3.2a1.8548,1.8548,0,0,1,.7,1.2l.5,2.1h-.1l.2.2Z" fill="#fff"/><path d="M176.59,251.986v.2a2.0024,2.0024,0,0,0-.04-.24Z" fill="#fff"/><path d="M176.03,176.506a.1612.1612,0,0,0-.04.07c-.05.02-.11.04-.17.06A2.3924,2.3924,0,0,0,176.03,176.506Z" fill="#555556"/><path d="M174.69,237.006c-.08.19-.17.39-.27.58a1.9783,1.9783,0,0,0-1.53-.6,2.0778,2.0778,0,0,0-1.24.35c.29-.57.56-1.14.82-1.73A5.8683,5.8683,0,0,1,174.69,237.006Z" fill="#fff"/><path d="M173.79,166.986c-.1.1-.1,0,0,0Z" fill="#555556"/><path d="M170.79,239.086v1.1a2.16,2.16,0,0,0-.5.85,3.9134,3.9134,0,0,0-1.08-.36,5.5054,5.5054,0,0,1,.58.11c.34-.59.68-1.18,1-1.79Z" fill="#fff"/><path d="M166.69,292.386c.61-.04,1.23-.07,1.87-.09-.69.24-1.37.65-1.97.39-.2-.1-.3-.1-.5-.2v.1l-.3-.07A3.9912,3.9912,0,0,1,166.69,292.386Z" fill="#fff"/><path d="M162.44,291.726l-.55-.14a2.2481,2.2481,0,0,1-1.7-2.1,2.1953,2.1953,0,0,1,1.01-1.78c.16.5.32.99.49,1.48A22.79,22.79,0,0,0,162.44,291.726Z" fill="#fff"/><path d="M162.69,117.886a4.107,4.107,0,0,1-4.2,3.9,3.9107,3.9107,0,1,1,0-7.8A4.1766,4.1766,0,0,1,162.69,117.886Z"/><path d="M161.07,287.326a4.8578,4.8578,0,0,1-.68-.74,2.2153,2.2153,0,0,1-1.3-1.9v-.2c-.5-1.1-1-2.3-1.4-3.1-.4-.9-1.3-1.6-1.2-2.6h-.1c-1.5-.2-1.3-2.7-2-4.1a22.959,22.959,0,0,1-1.4-4.5c-1.79-2.98-1.41-6.06-1.4-9.82.72,4.2.98,9.4,2.7,13.22,1.5,3.2,4,5.9,5.3,9.4C160.15,284.446,160.61,285.906,161.07,287.326Z" fill="#fff"/><path d="M159.44,152.856v.01c-.37.1-.71.21-1.05.32-9.49-.09-19.25.89-28.42-1.57.05-.04.11-.07.17-.11,9.26,2.47,18.95,1.48,28.55,1.58C158.93,153.006,159.18,152.926,159.44,152.856Z" fill="#292a2b"/><path d="M153.39,254.086a.2506.2506,0,0,0,.04.07,3.845,3.845,0,0,0-.53,1.32v.01l-.11.1A5.2125,5.2125,0,0,1,153.39,254.086Z" fill="#fff"/><path d="M152.89,133.986l-.1,1.4c-1.1,3.2-2.4,6.1-5.8,7.3-2.5.9-5.3-.3-7.6-.7-4.4-.7-8.1-1.5-11.9-4a2.1633,2.1633,0,0,1,2.4-3.6c3.2,2.2,6.5,2.7,10.3,3.4,1.7.3,3.9,1.3,5.7.8,1.9-.6,2.5-3,3-4.5l-.3-.1a2.0891,2.0891,0,0,1,2.2-2.1A2.0567,2.0567,0,0,1,152.89,133.986Z"/><path d="M152.79,256.586a4.1163,4.1163,0,0,0,.03.51,1.8075,1.8075,0,0,0-.43.49,2.1563,2.1563,0,0,0-.9,2.2c.01.08.03.15.04.23a8.3723,8.3723,0,0,1-1.39-2.22,25.9091,25.9091,0,0,0,2.65-.91Z" fill="#fff"/><circle cx="138.4897" cy="202.186" r="0.3" fill="#292a2b"/><path d="M114.59,171.196v.19a2.0506,2.0506,0,0,1-.77,1.61C114.07,172.386,114.32,171.786,114.59,171.196Z" fill="#292a2b"/><path d="M110.51,172.196c-.38.02-.77.05-1.16.09.18-.04.36-.07.54-.1A2.36,2.36,0,0,1,110.51,172.196Z" fill="#fff"/><path d="M109.1,176.496a8.935,8.935,0,0,1,1.37-.11,14.0075,14.0075,0,0,0-1.43.31C109.06,176.626,109.08,176.556,109.1,176.496Z" fill="#ffecd0"/><path d="M109.1,176.496c-.02.06-.04.13-.06.2a16.6279,16.6279,0,0,0-2.35.79l-.18-.34A11.0519,11.0519,0,0,1,109.1,176.496Z" fill="#ffecd0"/><path d="M104.41,295.876a2.9108,2.9108,0,0,0-.42.01c-.8.1-1.6.8-2.3.5v.6h-2.7a2.067,2.067,0,0,1-1.35-3.66,5.8072,5.8072,0,0,0,.65.56,1.9184,1.9184,0,0,0,.4,1.8c.9.9,2.6.1,3.9.1C103.02,295.786,103.67,295.826,104.41,295.876Z" fill="#fff"/><path d="M103.01,269.206c-.02,1.49-.07,2.99-.22,4.48a2.2018,2.2018,0,0,1-.1.8,2.92,2.92,0,0,1-.2.9c-.44,1.31-1.1,2.63-1.53,3.94C101.84,276.026,102.23,272.576,103.01,269.206Z" fill="#fff"/><path d="M98.29,169.986a.7559.7559,0,0,0,.4.1,27.25,27.25,0,0,0-2.5,2.3C96.89,171.586,97.59,170.686,98.29,169.986Z" fill="#292a2b"/><path d="M218.09,196.186c1.1,2.1,3.8,4.6,3.6,7.2-.01.23-.03.45-.06.67l-.34-.04a2.0707,2.0707,0,0,0-.4-1.43,1.9008,1.9008,0,0,0-2-.9v-.3a2.1591,2.1591,0,0,0-1.6-2.1,2.3257,2.3257,0,0,0-.7-1.1l-1-2.3c-2.6-3.9-5.2-8.1-7.6-12.2-4.9-5.9-9-12.7-14.7-18a37.74,37.74,0,0,0-10.7-6.9c-.4-.3-.8-.4-.7-.5l-2.7-.9c-.5-.2-1.1-.4-1.7-.6-.56-.2-1.17-.42-1.79-.63-.05-1.43-1.51-1.84-1.51-1.67l-2.26-.69c.35-.26.69-.55,1.04-.86.98.28,1.95.64,3.02,1.05,7.5,2.7,14.6,5,20.3,10.7,2.9,2.9,4.8,6.5,7.3,9.5C208.49,181.586,214.09,188.286,218.09,196.186Z"/><path d="M221.29,204.016l.34.04c-.74,5.41-8.2,6.35-12.24,4.33a8.6875,8.6875,0,0,1-3.8-4.4c-1.5-2.7-3.7-5.3-5-8.1-1-2.1-1.2-4.2-2.6-6.2l.38-.27c.37.53.74,1.05,1.12,1.57,1.2,1.7,2.4,3.2,3.4,4.8.8,1.7,1.6,3.4,2.5,5.1.2.6.4,1.4.6,2.1,0,0,.3,1.5,1.6,1.7a5.9217,5.9217,0,0,0,1.7,1.8c3.1,2,8.2.8,11-.9A2.4281,2.4281,0,0,0,221.29,204.016Z"/><path d="M220.89,202.586a2.0707,2.0707,0,0,1,.4,1.43,2.4281,2.4281,0,0,1-1,1.57c-2.8,1.7-7.9,2.9-11,.9a5.9217,5.9217,0,0,1-1.7-1.8c-1.3-.2-1.6-1.7-1.6-1.7-.2-.7-.4-1.5-.6-2.1-.9-1.7-1.7-3.4-2.5-5.1-1-1.6-2.2-3.1-3.4-4.8-.38-.52-.75-1.04-1.12-1.57-2.87-4.05-5.62-8.3-9.78-11.13-1.3-.9-2.8-1.2-4.1-2-.22-.14-.42-.27-.6-.4a2.05,2.05,0,0,0,.2-.9,2.1154,2.1154,0,0,0-1.08-1.83c7.31,1.92,14.41,8.26,18.48,14.03,1.6,2.2,1.9,4.5,3,6.8,1.2,2.7,3.4,5.4,4.9,8,.9,2.5,2.4,3,5.1,2.9.7,0,3.2-.2,3-1.6-.2-1.7-2.4-3.7-3.2-5.2-3.9-7.7-9.3-14.2-14.1-21.4-2.4-2.9-4.2-6.4-6.9-9.1-5.18-5.18-11.61-7.21-18.34-9.54a2.2573,2.2573,0,0,0,.64-1.06,2.5671,2.5671,0,0,0,.11-.83c.62.21,1.23.43,1.79.63.6.2,1.2.4,1.7.6l2.7.9c-.1.1.3.2.7.5a37.74,37.74,0,0,1,10.7,6.9c5.7,5.3,9.8,12.1,14.7,18,2.4,4.1,5,8.3,7.6,12.2l1,2.3a2.3257,2.3257,0,0,1,.7,1.1,2.1591,2.1591,0,0,1,1.6,2.1v.3A1.9008,1.9008,0,0,1,220.89,202.586Z"/><path d="M198.37,189.416l-.38.27c-1.8-2.5-4.3-4.4-6.5-6.5-2.61-2.38-5.74-4.87-9.23-5.85l.83-.55a2.1666,2.1666,0,0,0,.8-.9c.18.13.38.26.6.4,1.3.8,2.8,1.1,4.1,2C192.75,181.116,195.5,185.366,198.37,189.416Z"/><path d="M185.19,116.086c0,3.2.6,7.2,0,10.4-.6,3.3-2.8,6.3-3.3,9.5-.6,3.6,0,6.3-1.2,9.9l-1.4.7-1.5,1.4c-1.45,1.38-3.09,3.38-4.82,4.95a15.23,15.23,0,0,0-4.48-.65l-.99,1.46c-.78.08-1.55.21-2.33.35-.7-.74-1.43-1.45-2.17-2.12a25.8355,25.8355,0,0,0,2.61-.79c.14-.04.27-.09.4-.14a12.3614,12.3614,0,0,0,1.68-.76c2.2-1.3,4.4-4.3,6.2-6l.7-.7a2.3364,2.3364,0,0,1,.7-.7l.6-.6c.4-2.4,0-4.5.5-7.2.5-3.3,2.7-6.3,3.5-9.6.5-2.7,0-6,0-8.7-.3-.9-2.1-5.7-2.2-6.3-.6-2.9-.2-5.9-1.9-8.6a32.1368,32.1368,0,0,0-8-7.6c-.9-.5-2.1-.4-3.1-.9-5-2.3-10.4-5.2-16-6.1a26.7722,26.7722,0,0,0-5.7-.1,1.0622,1.0622,0,0,1-.04.19c-.09,0-.17.01-.26.01a2.4268,2.4268,0,0,1-.94,1.68c0,.01-.01.01-.02.01a3.581,3.581,0,0,1-1.54.41c-3.6,0-8.3-.5-11.9,0-3.7.5-5,3.3-7.9,4.9-2.25,1.26-4.67,1.55-6.37,3.65a6.6049,6.6049,0,0,0-.73.95c-2.2,3.4-2.3,8-3,11.7-.2,1.1-.9,2.1-1.1,3.2-.7,3.8,0,8.4,0,12.3,0,2.1.1,4.2,0,6.3,0,.7-.5,1.5-.2,2.2.7,1.7,3.2,2.3,4.3,3.8.6.9.5,2.2,1.1,3.2a6.9,6.9,0,0,0,1.8,1.6c1.8,1.7,4,4.7,6.2,6a13.68,13.68,0,0,0,3.44,1.17,36.6563,36.6563,0,0,0-3.38,3.04l-1.16-1.71a15.1289,15.1289,0,0,0-3.67.44,39.8539,39.8539,0,0,1-7.83-7.94c-.6-.9-.5-2.2-1.1-3.2-1.1-1.8-3.8-2.6-4.7-4.6-1.1-2.5-.2-7.7-.2-10.5,0-4.2-.7-9,0-13.1.2-1.1.9-2.1,1.1-3.2.8-4.4,1.2-9.6,3.7-13.6.2-.3,5-4.9,5.4-5.1,1-.6,2.3-.5,3.3-1.1,3.6-2,5.4-4.9,10-5.6a51.9534,51.9534,0,0,1,8.9-.2c.4-1.9,2.7-1.9,2.7-1.9,3.3,0,7.2-.5,10.5,0,6.1,1,12.1,4,17.5,6.6,1.1.5,2.5.6,3.6,1.2.3.2,4.5,4.1,5,4.6s4.7,4.4,4.9,4.7c2.1,3.3,2,6.9,2.6,10.5C183.39,111.986,184.49,113.986,185.19,116.086Z"/><path d="M184.09,174.986a2.05,2.05,0,0,1-.2.9c-1.48-1.03-1.87-1.76-3.43-2.14.07-.14.15-.28.21-.43l.22-.13a1.8377,1.8377,0,0,1,.96-.29c.39.07.78.16,1.16.26A2.1154,2.1154,0,0,1,184.09,174.986Z"/><path d="M183.89,175.886a2.1666,2.1666,0,0,1-.8.9l-.83.55a10.9007,10.9007,0,0,0-3.27-.45,2.55,2.55,0,0,1-1.1-.3l-.21-.63a5.3374,5.3374,0,0,0,2.78-2.21C182.02,174.126,182.41,174.856,183.89,175.886Z"/><path d="M183.01,173.156c-.38-.1-.77-.19-1.16-.26a.66.66,0,0,1,.14-.01A2.07,2.07,0,0,1,183.01,173.156Z"/><path d="M182.26,177.336l-.97.65v.1c-.7.4-1.5.9-2.2,1.3a2.0189,2.0189,0,0,1-.32.14c-.27-.99-.57-1.97-.88-2.94a2.55,2.55,0,0,0,1.1.3A10.9007,10.9007,0,0,1,182.26,177.336Z"/><path d="M180.89,172.736c.32.04.64.09.96.16a1.8377,1.8377,0,0,0-.96.29l-.22.13C180.75,173.136,180.82,172.946,180.89,172.736Z"/><path d="M178.77,179.526a86.4275,86.4275,0,0,1,3.12,23.26,80.8324,80.8324,0,0,1-7.2,34.22,5.8683,5.8683,0,0,0-2.22-1.4,79.3711,79.3711,0,0,0,6.82-32.52,80.9,80.9,0,0,0-4-25.9,8.5985,8.5985,0,0,1-3.9.9,8.1847,8.1847,0,0,1-3.56-.8l.21-.09h.01a8.248,8.248,0,0,0,3.34.69,8.5059,8.5059,0,0,0,4.43-1.25c.06-.02.12-.04.17-.06a1.8707,1.8707,0,0,0,.2,2.01A1.9264,1.9264,0,0,0,178.77,179.526Z"/><path d="M179.89,116.786c0,2.7.5,6,0,8.7-.8,3.3-3,6.3-3.5,9.6-.5,2.7-.1,4.8-.5,7.2l-.6.6a2.3364,2.3364,0,0,0-.7.7l-.7.7c-1.8,1.7-4,4.7-6.2,6a12.3614,12.3614,0,0,1-1.68.76,11.0531,11.0531,0,0,0,1.38-.66c2.2-1.2,4.4-4.3,6.2-6l.7-.7a4.62,4.62,0,0,1,.7-.7l.6-.6c.7-2.6.2-4.6.7-7.3.6-3.3,2.8-6.3,3.3-9.5.5-2.7,0-5.9,0-8.7-.3-.9-2.1-5.7-2.2-6.3-.5-2.8-.2-5.9-1.9-8.5a32.1368,32.1368,0,0,0-8-7.6,28.046,28.046,0,0,0-3.1-.9c-4.9-2.3-10.3-5.2-16-6.1a25.2481,25.2481,0,0,0-5.44-.11,1.0622,1.0622,0,0,0,.04-.19,26.7722,26.7722,0,0,1,5.7.1c5.6.9,11,3.8,16,6.1,1,.5,2.2.4,3.1.9a32.1368,32.1368,0,0,1,8,7.6c1.7,2.7,1.3,5.7,1.9,8.6C177.79,111.086,179.59,115.886,179.89,116.786Z"/><path d="M177.89,176.586c.31.97.61,1.95.88,2.94a1.9264,1.9264,0,0,1-2.58-.94,1.8707,1.8707,0,0,1-.2-2.01c.46-.15.89-.31,1.3-.47A1.7669,1.7669,0,0,0,177.89,176.586Z"/><path d="M177.68,175.956l.21.63a1.7669,1.7669,0,0,1-.6-.48Z"/><path d="M177.09,271.986c.4,4-.4,8.2,0,12.2.2,1.9.7,3.7,1,5.6-.86.86-1.49,2.08-2.54,2.79a2.4919,2.4919,0,0,1-.76-.39h-.2a2.36,2.36,0,0,1-1.6-.7l.79-2.85a.2862.2862,0,0,0,.31-.05c-2.5-4.9-.6-11-1.1-16.2-.6-5.7,0-11.6-.3-17.4a2.7131,2.7131,0,0,1-.3-1.1c-.5-2.1-1.6-4.4-2.1-6.4-.1-.3-.1-5.2-.1-5.8a2.7588,2.7588,0,0,1,.1-.65,3.75,3.75,0,0,1,1.5,1.45c.94-1.56,1.82-3.2,2.63-4.9a2.4374,2.4374,0,0,1,.57,1.5l-.1,1.1c.6,2.7.3,5,.6,7.7a33.0457,33.0457,0,0,0,.93,3.45l-.03.15.1.3h-.1l.16.16a2.0024,2.0024,0,0,1,.04.24v.03a31.0579,31.0579,0,0,0,.18,4.04v.02c-.01,2.62-.18,5.29-.18,7.91C176.59,266.886,176.89,269.286,177.09,271.986Z"/><path d="M176.59,252.216a38.6338,38.6338,0,0,1,.18,4.04A31.0579,31.0579,0,0,1,176.59,252.216Z"/><path d="M176.55,251.946l-.16-.16h.1l-.1-.3.03-.15A5.9944,5.9944,0,0,1,176.55,251.946Z"/><path d="M175.7,156.156a2.5671,2.5671,0,0,1-.11.83,2.2573,2.2573,0,0,1-.64,1.06c-.15-.05-.31-.11-.46-.16a27.4208,27.4208,0,0,0-3.75-1.19,13.0219,13.0219,0,0,0-2.99-.77l1.54-.44v.1c.1,0,.2-.1.3-.1C171.22,154.866,173.56,155.446,175.7,156.156Z"/><path d="M175.55,292.576a3.3562,3.3562,0,0,1-.56.31c-.9.4-2-.4-3-.5a23.23,23.23,0,0,0-3.43-.09,2.1289,2.1289,0,0,1,.33-.11h2.5a2.36,2.36,0,0,0,1.6-.7,2.36,2.36,0,0,0,1.6.7h.2A2.4919,2.4919,0,0,0,175.55,292.576Z"/><path d="M174.49,157.886c.15.05.31.11.46.16a1.97,1.97,0,0,1-.97.46,12.1655,12.1655,0,0,0-3.24-1.81A27.4208,27.4208,0,0,1,174.49,157.886Z"/><path d="M174.19,154.486c0-.17,1.46.24,1.51,1.67-2.14-.71-4.48-1.29-6.11-.67-.1,0-.2.1-.3.1v-.1l-1.54.44-.01-.01a16.1923,16.1923,0,0,0,2.85-1.23,8.89,8.89,0,0,0,1.34-.89Z"/><path d="M173.78,288.636l-.79,2.85a2.36,2.36,0,0,1-1.6.7h-2.5a2.1289,2.1289,0,0,0-.33.11c-.64.02-1.26.05-1.87.09a3.9912,3.9912,0,0,0-.9.13l-1.8-.43h-.1l-1.45-.36a22.79,22.79,0,0,1-.75-2.54c-.17-.49-.33-.98-.49-1.48.06-.04.12-.08.19-.12a2.287,2.287,0,0,1-.32-.26c-.46-1.42-.92-2.88-1.48-4.34-1.3-3.5-3.8-6.2-5.3-9.4-1.72-3.82-1.98-9.02-2.7-13.22v-.16c.74-.24,1.47-.51,2.2-.82a3.5,3.5,0,0,1-.97-2.29,2.0906,2.0906,0,0,1,1.37-.41,2.0567,2.0567,0,0,1,2.1,2.1,23.1092,23.1092,0,0,0,1,6.4v-.5a2.0792,2.0792,0,0,1,.2,2.8,14.8793,14.8793,0,0,0,.8,4.2,12.3778,12.3778,0,0,0,1.4,1.8,45.048,45.048,0,0,1,4,7.9c.5,1.4,1.1,2.8,1.6,4.3.14.36.27.7.37,1.05a2.5578,2.5578,0,0,1-.27.05,1.4453,1.4453,0,0,0,.2.7,2.0886,2.0886,0,0,1,.22-.2,4.0159,4.0159,0,0,1,.08.8c0,.3-.7.8-.4.8.4,0,.4-.7.8-.8a19.636,19.636,0,0,1,6.4,0C173.05,288.156,173.46,288.536,173.78,288.636Z"/><path d="M172.89,236.986a1.9783,1.9783,0,0,1,1.53.6c-.81,1.7-1.69,3.34-2.63,4.9a3.75,3.75,0,0,0-1.5-1.45,2.16,2.16,0,0,1,.5-.85v-1.19c.3-.55.58-1.1.86-1.66A2.0778,2.0778,0,0,1,172.89,236.986Z"/><path d="M172.97,152.936c-.35.31-.69.6-1.04.86l-.04-.01a16.5744,16.5744,0,0,0-4.39-.04l.99-1.46A15.23,15.23,0,0,1,172.97,152.936Z"/><path d="M171.89,153.786l.04.01a8.89,8.89,0,0,1-1.34.89,16.1923,16.1923,0,0,1-2.85,1.23l-.01.01a6.6435,6.6435,0,0,0-.99-.1c-.12-.13-.23-.26-.35-.39v-.05l1.11-1.64A16.5744,16.5744,0,0,1,171.89,153.786Z"/><path d="M171.65,237.336c-.28.56-.56,1.11-.86,1.66A2.2486,2.2486,0,0,1,171.65,237.336Z"/><path d="M167.5,153.746l-1.11,1.64v.05c-.4-.46-.8-.91-1.22-1.34C165.95,153.956,166.72,153.826,167.5,153.746Z"/><path d="M166.42,155.816a7.2432,7.2432,0,0,0-3.05.56c-.55-.57-1.12-1.11-1.69-1.62,1.18-.22,2.34-.46,3.49-.66.42.43.82.88,1.22,1.34C166.39,155.506,166.4,155.646,166.42,155.816Z"/><path d="M165.66,286.736a4.9447,4.9447,0,0,1,.15.55,2.0886,2.0886,0,0,0-.22.2,1.4453,1.4453,0,0,1-.2-.7A2.5578,2.5578,0,0,0,165.66,286.736Z"/><path d="M163.99,292.086l1.8.43c-.93.22-1.85.6-2.6.07a2.1452,2.1452,0,0,1-.75-.86l1.45.36Z"/><path d="M163,151.976c.74.67,1.47,1.38,2.17,2.12-1.15.2-2.31.44-3.49.66-.73-.68-1.47-1.31-2.23-1.89C160.56,152.556,161.79,152.286,163,151.976Z"/><path d="M162.97,151.946l.03.03c-1.21.31-2.44.58-3.55.89h-.01v-.01C160.53,152.536,161.75,152.256,162.97,151.946Z"/><path d="M161.68,154.756c.57.51,1.14,1.05,1.69,1.62a4.2921,4.2921,0,0,0-1.71,1.23c-.76.19-1.49.38-2.17.58-.25,0-.5.01-.75.01a2.6693,2.6693,0,0,1-.25-.81,2.0776,2.0776,0,0,1,1.8-2.4C160.76,154.916,161.22,154.836,161.68,154.756Z"/><path d="M161.68,154.756c-.46.08-.92.16-1.39.23a2.0776,2.0776,0,0,0-1.8,2.4,2.6693,2.6693,0,0,0,.25.81c-10.66.13-21.59,1.01-31.85-2.21-.2-.06-.84-.26-1.66-.53a33.783,33.783,0,0,1,4.74-3.84c9.17,2.46,18.93,1.48,28.42,1.57.34-.11.68-.22,1.05-.32h.01C160.21,153.446,160.95,154.076,161.68,154.756Z"/><path d="M161.66,157.606a1.4056,1.4056,0,0,0-.17.18,3.3877,3.3877,0,0,0-.76,1.41,2.1077,2.1077,0,0,1-1.99-1c.25,0,.5-.01.75-.01C160.17,157.986,160.9,157.796,161.66,157.606Z"/><path d="M161.39,287.586c-.07.04-.13.08-.19.12-.05-.12-.09-.25-.13-.38A2.287,2.287,0,0,0,161.39,287.586Z"/><path d="M153.49,259.086c.1.1.2.2.1.3a1.38,1.38,0,0,1-.3-.4C153.39,259.086,153.39,259.086,153.49,259.086Z"/><path d="M152.82,257.096a3.5,3.5,0,0,0,.97,2.29c-.73.31-1.46.58-2.2.82v-.12l-.06-.06v-.01c-.01-.08-.03-.15-.04-.23a2.1563,2.1563,0,0,1,.9-2.2A1.8075,1.8075,0,0,1,152.82,257.096Zm.77,2.29c.1-.1,0-.2-.1-.3-.1,0-.1,0-.2-.1A1.38,1.38,0,0,0,153.59,259.386Z"/><path d="M151.59,260.286v.08a.7972.7972,0,0,0-.03-.15.0367.0367,0,0,0,.03-.01Z"/><path d="M151.59,260.086v.12a.0367.0367,0,0,1-.03.01,1.0794,1.0794,0,0,0-.03-.19Z"/><path d="M151.53,260.026a1.0794,1.0794,0,0,1,.03.19,25.71,25.71,0,0,1-8.07,1.27,27.3789,27.3789,0,0,1-14.82-4.53c.04-.16.08-.31.12-.47l-1.3-1.7.2-.8a2.62,2.62,0,0,0-.03-1.15,25.5307,25.5307,0,0,0,15.83,5.95,23.33,23.33,0,0,0,6.65-.99,8.3723,8.3723,0,0,0,1.39,2.22Z"/><path d="M146.29,228.386a2.1123,2.1123,0,0,1,2.1,2.1,2.0886,2.0886,0,0,1-1.4,1.97l-1.6-2.17a1.9837,1.9837,0,0,0-.96-.77A2.1253,2.1253,0,0,1,146.29,228.386Z"/><path d="M145.39,230.286l1.6,2.17a1.8511,1.8511,0,0,1-.7.13,2.0961,2.0961,0,0,1-1.86-3.07A1.9837,1.9837,0,0,1,145.39,230.286Z"/><path d="M141.73,89.076a3.41,3.41,0,0,1-1.84.61c-3.5,0-8.2-.6-11.8,0-3.7.5-5,3.3-7.9,4.9-2.25,1.3-4.51,1.62-6.17,3.45,1.7-2.1,4.12-2.39,6.37-3.65,2.9-1.6,4.2-4.4,7.9-4.9,3.6-.5,8.3,0,11.9,0A3.581,3.581,0,0,0,141.73,89.076Z"/><path d="M130.14,151.506c-.06.04-.12.07-.17.11-.5-.13-.99-.28-1.48-.43-.85-.3-1.76-.51-2.66-.73a.3039.3039,0,0,1,.07-.05c.94.22,1.9.41,2.79.68C129.17,151.236,129.66,151.376,130.14,151.506Z"/><path d="M128.49,151.186c.49.15.98.3,1.48.43a33.783,33.783,0,0,0-4.74,3.84c-.57-.17-1.21-.38-1.86-.59l-.92-1.37a36.6563,36.6563,0,0,1,3.38-3.04C126.73,150.676,127.64,150.886,128.49,151.186Z"/><path d="M127.49,254.786l1.3,1.7c-.04.16-.08.31-.12.47-.61-.4-1.2-.8-1.78-1.23a7.993,7.993,0,0,1-.3-1.14v-.9a2.2132,2.2132,0,0,0,.58-1.25c.16.14.33.27.49.4a2.62,2.62,0,0,1,.03,1.15Z"/><path d="M126.89,255.726c.58.43,1.17.83,1.78,1.23a84.8391,84.8391,0,0,1-5.88,17.53c-2.2,4.4-5.2,8.4-7.4,12.7a5.4536,5.4536,0,0,0-.49,1.9h-.01a26.3522,26.3522,0,0,0,.2-2.8l.3.1.5-2.6v-.2a1.9622,1.9622,0,0,0,.9-.9l.9-1.8.3-.3-.1-.1a2.1813,2.1813,0,0,0,.4-.5l.1-.1v-.1a27.9744,27.9744,0,0,0,2.7-5.8c.1-.5,2.1-4,2.1-4.3v-.2h.1l.5-2.1a.7559.7559,0,0,0,.1-.4c.4-.5,1.2-.7,1.3-1.3,0-.2.1-.4.1-.6h.1l.5-2.1a1.2683,1.2683,0,0,0,.1-.6,2.1326,2.1326,0,0,0-.3-1.2,8.0864,8.0864,0,0,0,1.4-4.2A2.9255,2.9255,0,0,0,126.89,255.726Z"/><path d="M127.66,252.836c-.16-.13-.33-.26-.49-.4a2.0945,2.0945,0,0,0,.02-.25l-.09-.3A1.785,1.785,0,0,1,127.66,252.836Z"/><path d="M127.1,251.886l.09.3a2.0945,2.0945,0,0,1-.02.25c-.42-.34-.84-.7-1.25-1.08a1.2233,1.2233,0,0,1,.17.03A2.2788,2.2788,0,0,1,127.1,251.886Z"/><path d="M126.89,255.726a2.9255,2.9255,0,0,1,.2,1.26,8.0864,8.0864,0,0,1-1.4,4.2,2.1326,2.1326,0,0,1,.3,1.2,1.2683,1.2683,0,0,1-.1.6l-.5,2.1h-.1c0,.2-.1.4-.1.6-.1.6-.9.8-1.3,1.3a.7559.7559,0,0,1-.1.4l-.5,2.1h-.1v.2c0,.3-2,3.8-2.1,4.3a27.9744,27.9744,0,0,1-2.7,5.8v.1l-.1.1a2.1813,2.1813,0,0,1-.4.5l.1.1-.3.3-.9,1.8a1.9622,1.9622,0,0,1-.9.9v.2l-.5,2.6-.3-.1a26.3522,26.3522,0,0,1-.2,2.8l-.5,2.1a1.7005,1.7005,0,0,1-.6,1c0,.1-.1.2-.1.3a1.0793,1.0793,0,0,1,0,1.1,5.7163,5.7163,0,0,1-.7.8c-.1.1-.1.2-.2.3-1.68,2.04-5.79,1.15-8.28,1.19h-.1c-.74-.05-1.39-.09-1.82-.09-1.3,0-3,.8-3.9-.1a1.9184,1.9184,0,0,1-.4-1.8,5.8072,5.8072,0,0,1-.65-.56,1.92,1.92,0,0,1,.15-.14c-.23-.14-.46-.28-.66-.43a3.9852,3.9852,0,0,1-.62-1.12c.01-1.68,2.32-6.2,2.68-7.55a21.1149,21.1149,0,0,0,1.22-2.93c.09-.25.17-.5.24-.76.1-.32.2-.65.28-.97.01-.04.02-.07.03-.1.43-1.31,1.09-2.63,1.53-3.94a2.92,2.92,0,0,0,.2-.9,2.2018,2.2018,0,0,0,.1-.8c.15-1.49.2-2.99.22-4.48.12-.51.24-1.01.38-1.52.8-2.8,1.9-5.5,2.6-8.4.9-3.6,1.6-8,3.4-11.2.4-.7,1.2-1.1,1.7-1.8.7-1,.7-2.4,1.3-3.5l.5-2.1a2.107,2.107,0,0,1,.69-1.13,52.99,52.99,0,0,0,2.91,4.94,60.2581,60.2581,0,0,1-2.1,8.29c-1.1,3-3.1,5.6-4.3,8.5-2.4,6.3-2.3,13.5-5.3,19.6,0,.1,0,.1-.1.2a63.939,63.939,0,0,0-2,8.4v.8h.3a10.9571,10.9571,0,0,1,2.6.6,9.3306,9.3306,0,0,1,1.5.7,4.803,4.803,0,0,0,2.1-.1,1.05,1.05,0,0,0,.5-.9c.2-1.8,0-3.6.5-5.3.8-2.5,2.5-4.6,3.9-6.8,2-3.2,2.9-6.9,4.6-10.3.4-1.5,1.1-2.8,1.6-4.2,1-3.1,1.2-6.1,2.7-9.1l.5-1.9s.01-.03.02-.07A38.4123,38.4123,0,0,0,126.89,255.726Z"/><path d="M127.17,252.436a2.2132,2.2132,0,0,1-.58,1.25v.9a7.993,7.993,0,0,0,.3,1.14,38.4123,38.4123,0,0,1-3.38-2.81,2.08,2.08,0,0,1,2.41-1.56C126.33,251.736,126.75,252.096,127.17,252.436Z"/><path d="M125.23,155.456c-.34.33-.68.67-1.01,1.02a1.9717,1.9717,0,0,0-.86-.76c.17-.47.12-.87.03-.83l-.02-.02C124.02,155.076,124.66,155.286,125.23,155.456Z"/><path d="M123.39,154.886c.09-.04.14.36-.03.83a1.6273,1.6273,0,0,0-.37-.13l-1.99-.57c.22-.24.44-.48.66-.71.53.17,1.12.37,1.71.56Z"/><path d="M122.45,153.496l.92,1.37c-.59-.19-1.18-.39-1.71-.56C121.92,154.026,122.18,153.756,122.45,153.496Z"/><path d="M122.99,155.586a1.6273,1.6273,0,0,1,.37.13,1.8932,1.8932,0,0,1-1.97,1.27,1.972,1.972,0,0,1-1.55-.63c.38-.46.77-.9,1.16-1.34Z"/><path d="M121.29,151.786l1.16,1.71c-.27.26-.53.53-.79.81-1.08-.36-1.93-.65-2.07-.72a17.8118,17.8118,0,0,1-1.97-1.36A15.1289,15.1289,0,0,1,121.29,151.786Z"/><path d="M121.66,154.306c-.22.23-.44.47-.66.71l-.11-.03v.1c-.1,0-.2-.1-.3-.1-2.1-.8-5.4.4-7.9,1.3-.5.2-1.1.4-1.7.6l-2.7.9a3.2874,3.2874,0,0,0-.6.3,40.0424,40.0424,0,0,0-10.7,6.9c-5.7,5.2-9.8,12.1-14.7,18-2.3,4.1-5,8.3-7.6,12.2l-1,2.3a1.7688,1.7688,0,0,0-.7,1.1,2.2516,2.2516,0,0,0-1.6,2.1v.3a1.7565,1.7565,0,0,0-2,.9,2.1187,2.1187,0,0,0,.6,3c2.8,1.7,7.9,2.9,11,.9a7.3694,7.3694,0,0,0,1.7-1.8,2.3167,2.3167,0,0,0,1.6-1.7l.6-2.1c.9-1.7,1.7-3.3,2.5-5.1,1-1.5,2.1-3.1,3.4-4.8.29-.4.58-.8.86-1.2l.14.1c-1.4,2-1.6,4.1-2.6,6.2-1.3,2.8-3.5,5.4-5,8.1a8.6875,8.6875,0,0,1-3.8,4.4c-4.2,2.1-12.1.9-12.3-5-.1-2.6,2.6-5.1,3.6-7.2,3.9-7.9,9.5-14.6,14.5-22,2.6-3.1,4.5-6.7,7.3-9.5,5.8-5.8,12.9-8.1,20.3-10.7a36.22,36.22,0,0,1,3.83-1.26,17.8118,17.8118,0,0,0,1.97,1.36C119.73,153.656,120.58,153.946,121.66,154.306Z"/><path d="M120.89,154.986l.11.03c-.39.44-.78.88-1.16,1.34a1.2165,1.2165,0,0,1-.15-.17,21.47,21.47,0,0,0-4.4,1.3c-6.9,2.4-13.4,4.4-18.8,9.7-2.7,2.7-4.5,6.2-6.9,9.1-4.8,7.2-10.2,13.7-14.1,21.4-.8,1.5-3,3.5-3.2,5.2-.2,1.4,2.3,1.6,3,1.6,2.7.2,4.1-.3,5.1-2.9,1.5-2.6,3.7-5.3,4.9-8,1.1-2.3,1.4-4.7,3-6.8,4.63-6.42,12.91-13.56,21.06-14.5a18.6513,18.6513,0,0,0-2.96.8,2.4633,2.4633,0,0,0-1.7.6l1.02,1.94c-1.28.78-2.75,1.18-4.02,1.96-4.29,2.92-7.07,7.33-10.04,11.5-.28.4-.57.8-.86,1.2-1.3,1.7-2.4,3.3-3.4,4.8-.8,1.8-1.6,3.4-2.5,5.1l-.6,2.1a2.3167,2.3167,0,0,1-1.6,1.7,7.3694,7.3694,0,0,1-1.7,1.8c-3.1,2-8.2.8-11-.9a2.1187,2.1187,0,0,1-.6-3,1.7565,1.7565,0,0,1,2-.9v-.3a2.2516,2.2516,0,0,1,1.6-2.1,1.7688,1.7688,0,0,1,.7-1.1l1-2.3c2.6-3.9,5.3-8.1,7.6-12.2,4.9-5.9,9-12.8,14.7-18a40.0424,40.0424,0,0,1,10.7-6.9,3.2874,3.2874,0,0,1,.6-.3l2.7-.9c.6-.2,1.2-.4,1.7-.6,2.5-.9,5.8-2.1,7.9-1.3.1,0,.2.1.3.1Z"/><path d="M116.7,238.486a2.24,2.24,0,0,1,.43,1.59c-.29-.51-.57-1.03-.85-1.56a1.5526,1.5526,0,0,1,.31-.03Z"/><path d="M116.28,238.516c.28.53.56,1.05.85,1.56a1.7974,1.7974,0,0,1-.04.31c0,.1,0,.2-.1.2a3.2723,3.2723,0,0,1,.1,1.3c-.22.85-.41,1.72-.6,2.61a52.99,52.99,0,0,1-2.91-4.94,2.0965,2.0965,0,0,1,1.41-.57h.2A1.8018,1.8018,0,0,1,116.28,238.516Z"/><path d="M116.7,238.486h-.11a1.5526,1.5526,0,0,0-.31.03,5.8478,5.8478,0,0,1-.28-.56A1.9586,1.9586,0,0,1,116.7,238.486Z"/><path d="M116.52,167.246c-.09.17-.19.34-.28.52a3.329,3.329,0,0,0-.25-.28A1.6958,1.6958,0,0,0,116.52,167.246Z"/><path d="M116,237.956a5.8478,5.8478,0,0,0,.28.56,1.8018,1.8018,0,0,0-1.09.47h-.2a2.0965,2.0965,0,0,0-1.41.57c-.15-.27-.29-.53-.42-.8a1.9573,1.9573,0,0,1,2.33-.97A3.0464,3.0464,0,0,1,116,237.956Z"/><path d="M116,237.956a3.0464,3.0464,0,0,0-.51-.17,1.9573,1.9573,0,0,0-2.33.97c-5.06-9.96-8.07-22.47-8.07-36.07a84.8655,84.8655,0,0,1,3.95-25.99,14.0075,14.0075,0,0,1,1.43-.31h.32a2.0567,2.0567,0,0,0,2.1-2.1,2.2307,2.2307,0,0,0-.14-.82,2.0018,2.0018,0,0,0,1.07-.47,79.81,79.81,0,0,0-5.63,29.79C108.15,216.096,111.07,228.336,116,237.956Z"/><path d="M114.89,289.086h.01c-.32,2.76.27,6.55-1.71,7.9-2.6,1.8-5,.3-7.3-1-.47-.04-.94-.07-1.38-.11,2.49-.04,6.6.85,8.28-1.19.1-.1.1-.2.2-.3a5.7163,5.7163,0,0,0,.7-.8,1.0793,1.0793,0,0,0,0-1.1c0-.1.1-.2.1-.3a1.7005,1.7005,0,0,0,.6-1Z"/><path d="M114.64,171.086a.37.37,0,0,0-.05.11v-.11Z"/><path d="M113.16,238.756c.13.27.27.53.42.8a2.107,2.107,0,0,0-.69,1.13l-.5,2.1c-.6,1.1-.6,2.5-1.3,3.5-.5.7-1.3,1.1-1.7,1.8-1.8,3.2-2.5,7.6-3.4,11.2-.7,2.9-1.8,5.6-2.6,8.4-.14.51-.26,1.01-.38,1.52.07-4.4-.09-8.76,1.48-13.02a88.582,88.582,0,0,1,4.9-10.9c1.2-2.2,3.1-3.6,3.5-5.9A2.5767,2.5767,0,0,1,113.16,238.756Z"/><path d="M112.89,174.286a2.0567,2.0567,0,0,1-2.1,2.1h-.3a2.0776,2.0776,0,0,0,1.8-2.4,3.6193,3.6193,0,0,0-.12-.52c.11.01.21.02.32.02a2.1115,2.1115,0,0,0,.26-.02A2.2307,2.2307,0,0,1,112.89,174.286Z"/><path d="M112.75,173.466a2.1115,2.1115,0,0,1-.26.02c-.11,0-.21-.01-.32-.02a1.8725,1.8725,0,0,0-1.53-1.25c0-.01,0-.02.01-.02a.66.66,0,0,1,.14-.01A2.1423,2.1423,0,0,1,112.75,173.466Z"/><path d="M112.29,173.986a2.0776,2.0776,0,0,1-1.8,2.4h-.02a8.935,8.935,0,0,0-1.37.11c.37-1.16.77-2.29,1.2-3.4a1.954,1.954,0,0,0,1.09.09,1.8227,1.8227,0,0,0,.78.28A3.6193,3.6193,0,0,1,112.29,173.986Z"/><path d="M112.17,173.466a1.8227,1.8227,0,0,1-.78-.28,1.954,1.954,0,0,1-1.09-.09c.11-.3.22-.59.34-.88A1.8725,1.8725,0,0,1,112.17,173.466Z"/><path d="M110.65,172.196c-.01,0-.01.01-.01.02-.05-.01-.09-.01-.13-.02Z"/><path d="M110.64,172.216c-.12.29-.23.58-.34.88a1.0344,1.0344,0,0,1-.21-.11c-2,.4-2.2,1.3-4.3,2.6a.2994.2994,0,0,1-.08.04l-1.02-1.94a2.4633,2.4633,0,0,1,1.7-.6,18.6513,18.6513,0,0,1,2.96-.8c.39-.04.78-.07,1.16-.09C110.55,172.206,110.59,172.206,110.64,172.216Z"/><path d="M110.3,173.096c-.43,1.11-.83,2.24-1.2,3.4a11.0519,11.0519,0,0,0-2.59.65l-.8-1.52a.2994.2994,0,0,0,.08-.04c2.1-1.3,2.3-2.2,4.3-2.6A1.0344,1.0344,0,0,0,110.3,173.096Z"/><path d="M105.71,175.626l.8,1.52a25.0577,25.0577,0,0,0-8.22,5.54c-2.2,2-4.7,4-6.5,6.5l-.14-.1c2.97-4.17,5.75-8.58,10.04-11.5C102.96,176.806,104.43,176.406,105.71,175.626Z"/><path d="M100.79,279.886c.04-.15.09-.31.14-.46-.08.32-.18.65-.28.97C100.7,280.236,100.75,280.056,100.79,279.886Z"/><path d="M100.41,281.156a21.1149,21.1149,0,0,1-1.22,2.93c-.36,1.35-2.67,5.87-2.68,7.55-.01-.02-.01-.03-.02-.05-.4-1.1.3-2.3.6-3.4C97.86,285.626,99.5,283.566,100.41,281.156Z"/><path d="M97.79,293.186a1.92,1.92,0,0,0-.15.14,6.91,6.91,0,0,1-.51-.57C97.33,292.906,97.56,293.046,97.79,293.186Z"/><path d="M97.13,292.756a1.6581,1.6581,0,0,1-.54-.67.8457.8457,0,0,1-.08-.45A3.9852,3.9852,0,0,0,97.13,292.756Z" fill="#fff"/></svg>