<svg id="382962b1-c37e-4668-8988-fe4363eb20b2" data-name="Layer 1" xmlns="http://www.w3.org/2000/svg" viewBox="0 0 290 357.9"><title>baby</title><path d="M146.5964,199.4594a2.0316,2.0316,0,0,1-2.5856.0756,2.1915,2.1915,0,0,1-.6214-3.103l4.5612-2.0166a92.1984,92.1984,0,0,1,11.4779,14.3469,80.4025,80.4025,0,0,1,7.4983,17.82,110.1427,110.1427,0,0,1,4.09,15.761c.6215-2.1467,2.0166-3.4852,5.7243.4839.4451.4777.3611,1.8308.0756,3.3676a2.23,2.23,0,0,1,.7736,1.2408l.548,2.1887-.11.0273.16.2425q0,.4442-.0126.8871c1.0739.4619,1.6429,1.28-.1858,2.7524-.1239,1.2146-.295,2.4186-.4819,3.6206l.0725.2887-.1092.0273.1585.2414a21.265,21.265,0,0,0,.9994,7.8857c.3066.8188,1.09,1.4865,1.1485,2.36.0052.0787.0094.1574.0136.2361l.0535-.0136,1.0739,4.2924a2.24,2.24,0,0,1-2.1551,2.8291v3.12a9.2252,9.2252,0,0,1,.5417,2.1877,153.0117,153.0117,0,0,1,.5584,15.6254l-.1386.2468.0893.022-.548,2.1887a2.2374,2.2374,0,0,1-3.67,1.1736c-.0619.0053-.1239.0084-.1869.0084a2.23,2.23,0,0,1-1.6754-.7547,2.2328,2.2328,0,0,1-1.6754.7547H169.47c-.8146.21-1.6439.8115-2.4385.5585-.1743-.0556-.3454-.12-.5124-.191l-.03.1238-2.1887-.5469c-.0315-.0073-.063-.0147-.0945-.0231l-2.1394-.5354a2.2384,2.2384,0,0,1-.53-4.1706,4.8467,4.8467,0,0,1-1.013-.9994,2.2362,2.2362,0,0,1-1.3143-2.0386v-.1932c-.5679-1.1935-1.0256-2.4238-1.4392-3.2731-.4388-.9028-1.3279-1.7174-1.2933-2.7209.0011-.0116.0011-.0231.0011-.0347-.0483-.0021-.0977-.0063-.147-.0125-1.5746-.2006-1.4056-2.848-2.0543-4.2967a18.6642,18.6642,0,0,1-1.4194-4.7679c-1.9293-3.1031-1.4664-6.3794-1.4664-10.3894a2.0677,2.0677,0,0,1,.0168-.2246,9.0676,9.0676,0,0,1-1.61-2.5289c-.4135-.8912.3024-3.0033,1.0456-4.6053q-4.2767-9.2147-8.0128-18.6519L141.1,237.36a2.2379,2.2379,0,0,1,3.7235-2.4753l2.6694,3.56-.0062.0052c.0115.0116.0241.0231.0356.0336,1.0362.9878,3.71,5.7348,4.6063,7.0764l.104.1543a2.2312,2.2312,0,0,1,2.111.9353l2.0785,2.8826-.0178.0137.0608.0472c.4221.675.8146,1.309,1.1957,1.921a2.2252,2.2252,0,0,1,.9941-.233,2.2744,2.2744,0,0,1,.45.0451c-.6687-1.5022-1.2765-3.0317-1.84-4.5737l-.3433-.8923a1.885,1.885,0,0,1-.2163-.5627l-1.0245-2.659a2.2384,2.2384,0,1,1,4.1644-1.6418l.8849,2.1908-.0357.0147.0924.2415a12.2515,12.2515,0,0,1,1.48,2.1982,2.2263,2.2263,0,0,1,1.414-.5039c.0295,0,.06.001.0892.0021a14.5275,14.5275,0,0,1-.0934-1.6733v-2.7924a2.2374,2.2374,0,0,1,2.0166-2.2265c-.8345-3.5219-1.9336-6.9756-3.0254-10.488a74.9841,74.9841,0,0,0-7.0207-16.8034,92.21,92.21,0,0,0-9.0509-11.6963Zm6.7467,65.6261c-.0535-.022-.106-.0461-.1585-.0724a3.7453,3.7453,0,0,0,.3538.4588,4.0339,4.0339,0,0,1-.1953-.3864Zm-.738-3.6552.9542-.9553c-.1164-.2151-.2277-.4282-.3348-.6413a4.0974,4.0974,0,0,0-.6362,1.6124l.0168-.0158Zm13.2132-8.5764a2.2715,2.2715,0,0,1,.0945.5038c.1-.655.1848-1.3163.2551-1.98a2.2215,2.2215,0,0,1-.67.3569Zm.1617,42.1117a2.242,2.242,0,0,1,1.1127-.6288l2.1887-.5469.0137.0556c.0514-.0231.1039-.0451.1564-.0661l-1.0844-1.7342a2.1278,2.1278,0,0,1-.2183.01,2.2464,2.2464,0,0,1-.5554-.0693v.0651a2.2373,2.2373,0,0,1-1.91,2.2139c.1.2278.1985.46.2961.7Z" fill="#fff"/><path d="M137.8341,205.4126a.3391.3391,0,1,1-.3391-.3391A.34.34,0,0,1,137.8341,205.4126Z" fill="#ddccb2"/><path d="M162.2911,175.0927a2.2644,2.2644,0,0,1-.6235.0881,2.2393,2.2393,0,0,1-2.1583-1.6439l-.9626-3.209.0242-.0074c-.02-.043-.041-.0861-.0609-.1291-.5795-1.2618-.4588-2.7388-.6876-4.1077l.0136-.063-.022.0021-.3223-2.8994a2.4452,2.4452,0,0,1-.0168-.2792,2.2383,2.2383,0,0,1,3.4443-1.8854,4.8248,4.8248,0,0,1,.8954-2.04c3.1744-4.0027,11.3992-1.602,14.2776,1.8423a5.4342,5.4342,0,0,1,1.118,1.9294,1.7648,1.7648,0,0,1,1.59.2005c1.2376.8818,1.5683,2.7084,1.4371,4.4951a4.0742,4.0742,0,0,1,1.9326,1.5011c.6172,1.1442.3821,2.5908.2971,3.8883-.2814,4.2777-2.7661,4.9285-6.3689,6.184a7.6407,7.6407,0,0,1-3.03.35v.4314h-2.281a2.23,2.23,0,0,1-1.5736-.6466c-.4567.1869-.9291.4042-1.4.5837v.7568a2.2377,2.2377,0,0,1-4.4573.2845l-.3159-2.2087c-.2194-1.1442-.464-2.2863-.75-3.4179Zm15.7725-2.3a19.77,19.77,0,0,1-1.4129,1.4843,2.7443,2.7443,0,0,0,1.4822-.7411C178.3072,173.348,178.1582,173.0677,178.0636,172.7927Zm-3.5082-4.3355-.1039.0409c.0377-.0094.0755-.0189.1144-.0262Z" fill="#fff"/><path d="M177.4957,177.7517a2.7584,2.7584,0,0,1,.611-.5386l1.67-1.0014,2.2453-1.2839a2.2384,2.2384,0,0,1,2.3567,3.8054l-1.9252,1.2838-.021-.0315-.0441.0725q-1.1731.6708-2.3462,1.3426a2.1908,2.1908,0,0,1-3.0527-.8325,2.0834,2.0834,0,0,1,.506-2.8164Z" fill="#d0d1d1"/><path d="M176.5237,157.9209a2.1922,2.1922,0,0,1-2.7672,1.5368l-2.132-.6141c-3.5-.5343-7.1194.8293-10.6183,1.33a2.238,2.238,0,0,1-.6329-4.431c4.1591-.5941,7.9781-1.8507,12.1844-1.2765l2.4292.6887a2.1922,2.1922,0,0,1,1.5368,2.7661Z" fill="#d0d1d1"/><path d="M173.1708,259.6615l.0672-.0157c-.5543-2.2161-1.7794-4.5959-2.2413-6.73-.0766-.3548-.06-5.4828-.06-6.099a2.6242,2.6242,0,0,1,.5952-1.5852l-.0368-1.2072a2.2376,2.2376,0,0,1,4.4751,0l-.0661,1.1327c.6813,2.8028.3,5.28.6078,8.0883.168,1.5253.9458,2.9414,1.1169,4.4678.4588,4.0793.0168,8.4452.0168,12.5592a79.9854,79.9854,0,0,0,.548,8.1565c.4157,4.2421-.42,8.6059,0,12.8437.1942,1.9693.7338,3.89,1.0466,5.8439-1.0781,1.0781-1.835,2.63-3.2343,3.2354-.9626.4157-2.0606-.4063-3.1052-.4944a46.7078,46.7078,0,0,0-5.5962,0c-1.2219.043-2.6285.9153-3.6583.2561-1.1054-.7086-1.1243-2.3777-1.5778-3.61-.7842-2.1289-1.3668-4.3407-2.1614-6.4675-1.3552-3.6227-4.0248-6.5-5.529-9.9149-1.8382-4.1717-2.0533-9.9842-2.9435-14.4361a2.3091,2.3091,0,0,1,.9048-2.3126,2.0286,2.0286,0,0,1,1.8476-.9228,2.192,2.192,0,0,1,2.2381,2.2381,24.73,24.73,0,0,0,1.05,6.7173l-.03-.4818a2.2021,2.2021,0,0,1,.1817,2.9676,16.5729,16.5729,0,0,0,.8377,4.4037,14.552,14.552,0,0,0,1.49,1.898,41.6534,41.6534,0,0,1,4.1507,8.2909q.8393,2.2327,1.6754,4.4677a8.433,8.433,0,0,1,.6309,2.467c.0168.3243-.7863.8608-.4619.8576.3947-.0031.423-.7841.8093-.86a19.9645,19.9645,0,0,1,6.69,0c.5154.0746,1.1106.8745,1.4791.506-2.62-5.1312-.6246-11.54-1.1873-17.0521-.6141-6.0161.0074-12.1876-.3537-18.2289a2.7987,2.7987,0,0,1-.2152-.9794Z" fill="#d0d1d1"/><path d="M143.572,235.089a2.2381,2.2381,0,1,1,2.2381,2.238A2.2379,2.2379,0,0,1,143.572,235.089Z" fill="#d0d1d1"/><path d="M93.65,185.086,80.876,175.931c.83.972-7.2086,12.51-13.3853,19.035-.4515,1.3479,3.4977,4.3114,5.529,5.6246l1.4507,3.081,3.6647.6782,1.94,3.17,3.1756.5879c.9037-2.6958,4.538-9.0436,6.2417-11.8811Z" fill="#fff"/><path d="M191.49,183.186l11.2477-10.45c-.675.8765,11.79,14.4052,16.4156,21.186.4681,1.1022-2.83,3.8715-4.5392,5.12l-1.1043,2.6926-3.1734.8283-1.5285,2.8028-2.75.718c-.9363-2.2034-4.4625-7.2884-6.1085-9.5548Z" fill="#fff"/><path d="M167.0549,152.6375c-15.6465,16.2375-42.1379,4.1412-48.2884-2.6244l-5.6687,1.7468s-14.2286,5.9117-18.2244,9.0619C89.9807,164.6792,78.876,179.931,78.876,179.931L91.65,189.086c4.54-2.9126,15.9329-11.6,15.9329-11.6l-3.3415,13.4673a101.8824,101.8824,0,0,1-2.2706,30.4427c-.7611,3.5713,2.2706,37.2661-9.9075,73.1791l6.2733,2.215,2.5834,1.8444,1.8455,1.8454h10.3326l5.9048,1.8455,8.1188,1.476,7.38-1.476V300.48h18.8209l1.4759,3.3215h9.9643l3.3214-3.3215,2.2139-1.8454h2.9529l3.32,1.8454h8.4883l2.9519-3.69,6.6428-4.7974s-6.8843-24.6082-9.5947-41.7286c-3.0181-19.06-2.7829-49.3382-2.7829-49.3382l-.4266-19.0836c10.3327.59,11.5449,6.6844,13.7589,3.8553,0-.3695,11.95-5.7277,9.293-10.1566-3.3214-5.5353-6.6166-11.9378-18.4263-18.2867C179.4976,153.5036,171.9751,153.8678,167.0549,152.6375Z" fill="#da3931"/><path d="M146.2825,220.03h-7.6653l-5.96,75.2828H154.798Z" fill="#fff"/><path d="M142.23,156.1877c-10.0377,0-18.7485-3.8379-20.84-6.1746-.6151,5.9048.3958,18.6488,1.2818,25.7336s6.0266,13.0389,8.4872,15.131l4.4289,6.6418,3.69,5.9048h6.2734c0-.3684.7379-2.3619,3.6909-7.3808,3.69-6.2732,5.5353-3.69,10.7022-20.2968,4.1328-13.2846,4.1412-18.4924,2.9109-22.06C159.904,158.1161,154.7781,156.1877,142.23,156.1877Z" fill="#fff"/><path d="M143.1637,156.131c-13.5806-.2949-19.8949-4.0268-21.248-6.1179a32.1944,32.1944,0,0,0-.5249,3.904c0,.59,6.8885,3.4442,10.3327,4.7974l-1.8444,8.8567v1.1064l1.8444-.3684,2.214-8.8568h2.2149l-.738,11.8087,1.476.3695,1.476-.3695.7379-11.8087,2.5835.3685,1.1074,9.9642v1.8455H144.64l1.1075-1.1075L144.64,159.4524h2.5834l2.214,8.8568,1.477.3684.738-1.1064-2.5834-8.8567c3.5429.8849,10.5237-.6152,12.7376-2.5835l.5438-4.0184C161.8062,153.9171,156.7443,156.426,143.1637,156.131Z" fill="#e3e3e7"/><path d="M115.3117,170.9493l1.8455-20.9362h4.7585l1.8843,23.15c0,4.1339,3.1976,9.8414,4.7974,12.1782L139.3,199.7345l2.5824,24.3562L135.24,303.4318h-18.083l-6.2733-2.2139h-3.3214l-7.3808-1.8454-5.9048,1.8454v-11.44h5.9048l4.0594,1.8455,3.3214,3.69h3.3214l4.4278-1.476h4.0594l4.4289,1.476,4.7974,1.8454,3.3214-48.343,1.8444-26.2017-1.8444-10.7012v-8.1188L123.8,191.2462l-6.6428-10.3327Z" fill="#ea9c3e"/><path d="M170.2976,170.9493l-1.8455-18.4514-6.121.14-2.1,18.3118a28.6658,28.6658,0,0,1-3.6742,12.6558l-10.2466,16.1294L143.7274,224.09l6.6428,79.3421h18.0819l6.2744-2.2139h3.3214l7.38-1.8454,5.9048,1.8454v-11.44h-5.9048l-4.0584,1.8455-3.3214,3.69h-3.3214l-4.4289-1.476h-4.0594l-4.4278,1.476-4.7974,1.8454-3.3214-48.343-1.8454-26.2017,1.8454-10.7012v-8.1188l8.1188-12.5476,6.6417-10.3327Z" fill="#ea9c3e"/><path d="M101.0036,203.5419l1.878-2.616,8.9229,1.1212,8.9229,1.4948h37.1013l9.8613-1.4948,14.559-1.1212v4.4835l2.8175,2.616,1.4088,3.3623-1.4088,3.3624,1.4088,3.7371-14.0887,2.9886-11.74.7474-11.2711.7475h-9.3922l-42.7363-4.4835v-1.8686l2.3483-2.9886V203.5419Z" fill="#ea953f"/></svg>