<svg id="213225d1-9096-4f2a-887d-4ae6d2d7afbd" data-name="Layer 1" xmlns="http://www.w3.org/2000/svg" viewBox="0 0 290 357.9"><title>baby</title><path d="M182.9468,265.902a46.2268,46.2268,0,0,0,.4773-7.5956c-.407-4.9713-3.4751-10.5324-5.28-15.13a98.2114,98.2114,0,0,1-4.6711-16.2037c-4.7953.2743-8.9821-1.3457-13.6076-2.0051-4.0382-.5757-9.0939.37-13.1578.7381-10.0664,2.0092-20.47,2.4074-30.5328,4.4286-2.7057.5435-6.1309,1.8634-9.06,1.3535-2.5125,3.3034-3.298,7.5583-4.6337,11.5639-2.35,7.0475-4.4751,14.1182-6.6631,21.2238-.79,2.5661-1.3024,4.9235-2.1956,7.1525,5.1035-.9236,10.1394-2.2992,15.29-2.9454,6.0234-.7555,12.0078-.5474,18.0516-.7636,7.1389-.2552,14.2109-.7437,21.3632-.7437q1.8358,0,3.68-.0489a39.8268,39.8268,0,0,1,13.6847-.5781,119.7448,119.7448,0,0,1,14.4968.1411l2.514.251a2.4018,2.4018,0,0,1,.2835.052c0-.2919-.063-.6069-.0389-.8907Zm-.1406-24.5319c2.4372,6.2,5.8949,12.7688,5.6068,19.5636-.1,2.3593-.0129,7.1906-1.3937,9.1675-2.8144,4.0292-8.8178,4.9931-13.0945,4.1938a27.1956,27.1956,0,0,0-8.9916-2.9353c-4.1068.1729-8.22.4271-12.3074.5477q-.4737.11-.9432.2334c-3.6.9459-6.9586,2.7546-10.6721,3.2724a34.6542,34.6542,0,0,1-6.4378.2395c-2.8216-.4738-5.0784-1.9314-8.0169-1.9461-1.9651-.01-3.7869,1.07-5.7165,1.4418-.2863.0552-5.3673.0408-6.055.04-4.0525.288-7.9581,1.3581-11.982,1.7226a79.4756,79.4756,0,0,1-11.5232-.0534c-.8537.12-1.71.2215-2.5706.3a2.5338,2.5338,0,0,1-.3393,0,2.3808,2.3808,0,0,1-1.7789-.535c-2.2258-.0844-4.4507-.1072-6.6714.03l-2.5638.4661a2.5006,2.5006,0,0,1-1.16-4.8615l2.4192-.7257.0027.0091.0275-.018c2.3858-1.5561,4.2232-.5807,6.0677-3.2468,3.6748-5.3114,4.2934-11.978,6.35-17.9092a187.6021,187.6021,0,0,1,9.2794-22.5659l.7156-.8971a3.05,3.05,0,0,1,1.39-.74,42.1763,42.1763,0,0,1-.144-5.9,2.8971,2.8971,0,0,1,.0766-.5811,3.3168,3.3168,0,0,1-.0663-.4291,2.4485,2.4485,0,0,1,2.2634-2.7161c8.8578-.793,17.5161-3.5909,26.3667-4.6882,9.07-1.1245,18.2427.16,27.2539.9789a130.3208,130.3208,0,0,0,19.0235.6806,2.5351,2.5351,0,0,1,2.8881-.427l.02,1.0859a3.0692,3.0692,0,0,1,.441.7163l.6631,2.3913c-.2243,2.0827-1.12,6.6535-2.8732,8.6508a92.8048,92.8048,0,0,0,4.4457,15.4434Zm-73.6484-15.3332a3.2431,3.2431,0,0,1,.3228.4341,6.4631,6.4631,0,0,1,.7676-.25c2.4689-.5555,5.0535-1.1639,7.56-1.5078,9.3454-1.2824,18.9306-2.1013,28.182-3.9553,4.54-.4143,10.0138-1.341,14.5391-.7457,1.81.2381,3.5368.9167,5.33,1.2587,2.6235.5,5.0769.4129,7.6919.6975a1.8944,1.8944,0,0,1,.6763.3262,2.9355,2.9355,0,0,1,.8166-.2786c.01-.3381-.158-.7768-.0413-1.0939.2871-.78.632-1.558.8888-2.3528a144.6581,144.6581,0,0,1-18.1462-.7609c-8.6325-.7852-17.4713-2.0957-26.1614-1-8.17,1.0306-16.1717,3.4365-24.3226,4.4644a23.8074,23.8074,0,0,0-.0275,3.8661,2.2993,2.2993,0,0,1,1.9242.8976Z" fill="#e9e8e9"/><path d="M191.13,272.2387a4.7957,4.7957,0,0,1-1.2209,2.4668c-2.0446,2.0446-5.1561.8172-7.4773,1.1817-2.6558.4171-5.2421,2.2789-8.12,2.013-1.8507-.171-3.4529-1.5067-5.2964-1.7427a43.8276,43.8276,0,0,0-5.6508.2614c-4.15.3458-8.0279.9548-12.1171,1.6987-.59.1074-5.6561,1.05-5.9722,1.0074-1.7035-.2279-3.1466-1.5909-4.86-1.7211a71.6188,71.6188,0,0,0-11.13.2473c-3.6781.3314-7.1332,1.757-10.8894,1.7432-3.9041-.0144-7.9726-1.1715-11.9524-1.7606a2.4781,2.4781,0,0,1-.5891.2149l-2.9168.7292-.0137-.055q-.1419.0588-.2872.1109c-1.4926.5349-3.1711.0148-4.7567.0188-1.0489.0026-2.0712-.0294-3.0838-.0826a38.221,38.221,0,0,1-7.5488.3177,10.9988,10.9988,0,0,1-2.8883-.5708,22.969,22.969,0,0,1-4.0141.0782c-1.7251-.1564-7.1976-1.2184-7.6095-3.0046-.7861-3.4086,1.9891-4.7688,4.4255-5.3472a5.0477,5.0477,0,0,0,.3012-.4291,8.9007,8.9007,0,0,0,2.3459-.9c.7194-.5511.9488-1.5865,1.6493-2.1614.9751-.8,3.1608-1.2272,3.9961-2.4791,2.704-4.0521,1.79-9.2642,2.8219-13.72.4426-1.9117,1.5854-3.6344,2.3781-5.3956,3.0582-6.7944,5.5778-12.7476,10.5382-18.4272a2.9793,2.9793,0,0,1,.5157-.44c-.5525-2.2823-.21-5.4613-.3821-7.3317a2.4484,2.4484,0,0,1,2.2634-2.7161,3.35,3.35,0,0,1,.3845-.0137,2.4789,2.4789,0,0,1,.6334-.2044l2.4006-.48c3.2909-.7587,6.4184-1.7,9.5944-2.4685q.9913-.2615,1.9926-.491a184.4132,184.4132,0,0,1,40.8617-4.5132,74.9957,74.9957,0,0,1,19.9467,2.561l1.6165.5348a2.4483,2.4483,0,0,1,1.5811,3.1622,2.2639,2.2639,0,0,1-1.6523,1.6374l-.2965.9885a29.3579,29.3579,0,0,0-1.1027,6.4643,2.4915,2.4915,0,0,1,.7,1.558l.2378,2.8531c.7814,4.2569,2.1123,8.3179,2.9578,12.5516a41.968,41.968,0,0,0,.8106,5.2165c1.0752,2.4977,2.1736,4.9844,3.1777,7.5054a2.4931,2.4931,0,0,1,.3317.6109l.9675,2.4188-.01.004.0242.033a12.8551,12.8551,0,0,1,.95,2.6239C191.3645,262.43,194.7984,268.3081,191.13,272.2387Zm-15.7312-55.0848a21.65,21.65,0,0,0-2.0444-.9167c-2.5533-.69-4.5794-.29-7.1106.0716-6.3916.912-13.4325,2.3488-19.894,1.7448-.7145-.0668-4.2142-.8809-5.0583-1.0029-5.5793-.8061-11.4583-.4657-17.0857-.4712-1.2314.1131-2.4368.2919-3.6264.5154-2.1545.4841-4.3035.995-6.4215,1.6131-.5456.1592-5.33,1.8651-5.9429,1.791q-.1118-.0135-.2229-.03l.0054.06-1.5375.14c.0463,1.0191.07,2.0395.09,3.0592.0116.6106-.0021,1.8215.6018,1.73,12.9567-1.9537,26.5338-4.9748,39.8261-4.9707,5.5512-.51,11.3481-1.2618,16.9282-.7323,3.67.3483,7.0963,1.5873,10.7511,1.928a34.5024,34.5024,0,0,1,.742-4.5289Z" fill="#b5dbaa"/><path d="M175.2549,220.1788v-.18l-.0053-.0116q-.075.0207-.1507.04A1.0125,1.0125,0,0,1,175.2549,220.1788Zm-74.0667-9.3814c1.6848-2.6568,6.792-2.5228,9.4388-2.8989,8.7379-1.2416,16.8884-2.6309,25.72-2.7393q1.4163-.4464,2.8372-.8854c6.0794-1.8212,12.7067-1.1,19.0349-1.1,4.8747,0,9.9837-.7209,14.8366-.2352,2.8137.2816,7.5017,1.4742,9.2006,3.9936a7.9983,7.9983,0,0,1,.9652,5.8906,7.5852,7.5852,0,0,1-.2561,1.3537c-.3891,1.7631-.9582,3.51-1.2749,5.0941l-1.1934,1.9989a2.578,2.578,0,0,1-.2505.2745l-.0308.1541a2.481,2.481,0,0,1-.2131.6515,2.5317,2.5317,0,0,1-.4915,1.1413c-2.1246,2.6768-7.7539,1.03-11.3156.7633l-.332.2409c-6.6861,0-13.1963.7116-19.8311,1.2285-4.0005.3305-7.7327,1.5563-11.7265,1.7372-7.5043.34-15.5575-.8129-22.9784.2227-3.0848.43-5.873,3.1757-9.2331,1.5672-4.8391-2.3164-3.2715-6.3469-3.2744-10.47a3.0607,3.0607,0,0,1,.4376-1.4715c-.1577-1.93-.5244-5.7937-.0691-6.5117Z" fill="#65bd5e"/><path d="M103.584,240.0706a59.9484,59.9484,0,0,1-1.0234,12.316c-.2115,1.0625.028,2.3291-.6323,3.1879q-.1559.2028-.3268.391l.089.0593-1.4623,2.1934a2.5108,2.5108,0,0,1-1.015.8976l-.3607.6494a2.5,2.5,0,0,1-4.71-1.17v-3.7094a32.883,32.883,0,0,1,2.3929-12.2678q.0544-.3636.1091-.7243l-.0291-.1145A2.7493,2.7493,0,0,1,97.64,239.69l-.1942-.053.7276-2.6678a2.5008,2.5008,0,0,1,4.8595.0292,2.7592,2.7592,0,0,1,.2916,1.5878l.2294,1.2614-.0888.0161Z" fill="#65bd5e"/><path d="M76.4205,275.6037a2.6786,2.6786,0,0,1-.6741-1.07,2.4484,2.4484,0,0,1,1.4951-3.2038c2.4865-.8976,9.2779-2.5784,11.5222.1182l-.4505-1.5016.143-.0429-.2219-.3124q-.0225-3.4642-.0264-6.9286l-.1879-.8055a2.5,2.5,0,0,1,4.881-1.0846l.1272.5946a3.2333,3.2333,0,0,1,.1732.8094l.2434,1.1376a15.6431,15.6431,0,0,0,.1885,2.363c.2357.9969,1.3,1.8933,1.0525,2.8872a6.5468,6.5468,0,0,1-.2312.7351l.1623.0405-.7292,2.9168a2.5005,2.5005,0,0,1-4.417.9722,7.1822,7.1822,0,0,1-.3828,2.8228c-.9009,2.8968-5.5681,3.1215-7.7772,2.848-1.6259-.2013-3.8631.2521-4.79-1.0984a2.462,2.462,0,0,1-.1-2.1978Z" fill="#65bd5e"/><path d="M102.5778,258.0731a2.4485,2.4485,0,0,1,2.5,2.5l-.0485.0043c.406,2.063,2.9206,7.0949,2.2592,8.9237a4.7718,4.7718,0,0,1-.37.7847l.121.06-1.2122,2.4245a2.5009,2.5009,0,0,1-4.6865-.4641l-.7276-2.6678.0722-.02-.1206-.1944c-.19-2.0372-.2852-4.0854-.2869-6.1315a3.108,3.108,0,0,1,.1912-.969c-.0473-.27-.0941-.5267-.1427-.7663l-.0485-.9849a2.4485,2.4485,0,0,1,2.5-2.5Z" fill="#65bd5e"/><path d="M124.2579,244.0537a2.3236,2.3236,0,0,1,2.7976-1.5115,2.4484,2.4484,0,0,1,1.9612,2.9417q-.4918,2.46-.9839,4.919l-.4839,2.6611a2.5,2.5,0,0,1-4.9674-.4043q0-.12.011-.2367l.2449-2.9384.2416.02a14.4575,14.4575,0,0,1-.2388-2.0215,95.5343,95.5343,0,0,1-5.3124,14.717,26.9116,26.9116,0,0,1-1.5861,3.6608,17.2155,17.2155,0,0,1,6.538-5.2983,2.8124,2.8124,0,0,1,.4875-.1744l1.83-1.83a2.5,2.5,0,0,1,4.2677,1.7678v2.9675h-.1615l.12.4564a33.24,33.24,0,0,1-7.8038,11.8852c-.6588.6958-1.07,1.6864-1.9083,2.15q-.1449.08-.2927.154l.031.0466-2.1971,1.4648a2.5,2.5,0,0,1-3.9152-2.0612,2.5161,2.5161,0,0,1,.0131-.2574l.2431-2.674.0043-.0544a2.6354,2.6354,0,0,1,.1593-2.6049l.2613-.3915a14.747,14.747,0,0,1,2.2306-5.4121c-.9052,1.2474-2.3611,1.697-5.547.0941-.6-.302-2.0432-4.9247-2.4428-6.6841-.7712-.2589-1.5523-.4887-1.8313-1.1792-.5593-1.3844.3032-2.9731.5553-4.4447a50.3478,50.3478,0,0,1,1.4456-5.9242c.619-4.5973,1.6025-9.1907,1.9483-13.6882a2.4494,2.4494,0,0,1,2.6186-2.3054,4.0523,4.0523,0,0,1,2.5612-2.6668c1.5484-.4341,2.9071,1.4119,4.214,2.3492,3.9272,2.8165,4.4892,7.04,4.4892,11.469q-.1869.9569-.396,1.893a2.74,2.74,0,0,1,.794-.8536Z" fill="#65bd5e"/><path d="M130.3633,245.3247a4.2083,4.2083,0,0,1,.83-3.2784c1.1277-1.1646,3.2342.2265,4.8513.34,1.1139.5032,2.4715.6512,3.3415,1.51,2.5,2.4669,2.0123,4.469,2.0437,7.5274a97.51,97.51,0,0,1-.5091,12.1392c-.1971,1.719-.5032,6.0506-2.0279,7.4884-1.2662,1.194-2.9353,2.6125-4.6573,2.36-3.2194-.4721-4.7384-7.1818-4.9671-9.6457-.2126-2.2907-.01-4.601-.01-6.9014v-9.3972a2.7145,2.7145,0,0,1,1.1049-2.1418Z" fill="#65bd5e"/><path d="M124.178,231.5418a2.3277,2.3277,0,0,1-.2854-1.9921,2.4484,2.4484,0,0,1,3.0317-1.819l.6092.1829c7.2522.6593,16.9533,1.84,21.9963,7.8429a15.6242,15.6242,0,0,1,1.67,2.4977l1.6384,1.3107a2.5008,2.5008,0,0,1-2.2567,4.3634l-2.665-.7268.0041-.0149-.0429.004c-7.5814-2.3323-14.7418-5.6595-22.2781-7.92a2.4484,2.4484,0,0,1-1.6762-3.1129,3.1293,3.1293,0,0,1,.2546-.6161Z" fill="#65bd5e"/><path d="M155.4894,271.2788a2.23,2.23,0,0,1-1.4983-2.1395,6.9855,6.9855,0,0,1-1.5279,1.4609c-1.8355,1.2678-4.1645,2.7128-6.3294,2.1743-1.6149-.4018-1.8013-2.8189-2.44-4.3557-2.353-5.6634.5072-12.6842.9029-18.41a2.4485,2.4485,0,0,1,2.6718-2.3156q.1527.011.2923.0331a3.7685,3.7685,0,0,1,2.8707-1.4951c.4243.0291,4.4048,5.8591,4.8672,6.8722a19.4629,19.4629,0,0,1,.0531,13.6364,3.1239,3.1239,0,0,1,1.1357-.2587l1.1757.1788c3.1653,1.283,4.4951,2.0282,5.4361,3.628l.3821-.2675,1.7134,2.4478a2.5005,2.5005,0,0,1-3.1935,3.6723l-2.4279-1.2139.0359-.0718-.2166-.028-2.892-2.0928a2.9818,2.9818,0,0,1-1.0116-1.4551Z" fill="#65bd5e"/><path d="M162.0815,232.8067c2.4058,5.8378,5.1807,11.7239,7.3363,17.6287a45.7628,45.7628,0,0,1,3.868,12.1391c.233,1.309.8753,2.6714.5251,3.9539-.5424,1.9862-1.1268,4.6761-3.0687,5.36-3.3848,1.1926-8.0832-6.412-9.4251-8.4673-6.1659-9.4441-7.0821-20.0674-7.0821-31.04a2.4485,2.4485,0,0,1,2.5-2.5,3.419,3.419,0,0,1,.3607.0185,2.5019,2.5019,0,0,1,3.0138.5986l1.7217,1.9677-.1294.1133Z" fill="#65bd5e"/><path d="M178.5111,237.7012c2.2736,4.3139,5.5706,8.1753,7.4825,12.751a45.534,45.534,0,0,1,3.4043,14.14,15.4737,15.4737,0,0,1,.2525,3.558l-.0146.0891h.0162v3.4621a2.5,2.5,0,0,1-4.6016,1.3545L183.6,270.88c-5.1531-7.362-10.5653-14.15-13.1884-22.9524-1.3469-4.5195-.5971-9.885-.5971-14.5568a2.8656,2.8656,0,0,1,.79-1.8991l-.2186-.9476a2.5007,2.5007,0,0,1,4.7536-1.5235l1.2107,2.9057c.81,1.8959,1.2,3.971,2.1614,5.7948Z" fill="#65bd5e"/><path d="M93.5333,254.9906a1.2244,1.2244,0,0,1,1.7678,0l-.1724-.0294a12.7705,12.7705,0,0,0,1.3.448c.1714-1.7754.2835-3.562.5521-5.3293l-2.3556-1.8845-.2728-.1054a1.25,1.25,0,1,1,1.1181-2.236l.7164.3892,1.3639,1.0911.0765-.3049a1.4376,1.4376,0,0,1,.2008-.9981l.0777-.1151c.3165-1.2743.6232-2.5606.872-3.8528a1.4487,1.4487,0,0,1-.87-.4735l-1.2365-1.4838-.4182-.4109a1.25,1.25,0,0,1,1.7678-1.7678l.5709.5782.6172.7407a23.1913,23.1913,0,0,0,.14-2.6606,1.25,1.25,0,0,1,2.5,0,31.8313,31.8313,0,0,1-.4951,5.1549q.2907-.3016.5868-.5984l.9324-.6508a1.25,1.25,0,1,1,1.3868,2.08l-.5514.3384a30.5574,30.5574,0,0,0-3.4865,4.047q-.1923.7781-.3882,1.5527a24.48,24.48,0,0,0-.4844,2.5285,13.73,13.73,0,0,1,1.3483-.9341l.5787-.2935a1.25,1.25,0,1,1,1.1181,2.2361l-.41.2011A9.7432,9.7432,0,0,0,100,253.7909a1.4179,1.4179,0,0,1-.9886.39,51.7028,51.7028,0,0,1-.6479,5.4005l.0243.0022a1.25,1.25,0,0,1-2.5,0l.0243-.4925q.1208-.5876.2123-1.18a16.4054,16.4054,0,0,1-1.9238-.6292l-.6669-.524a1.2243,1.2243,0,0,1,0-1.7678Z" fill="#d0e8ca"/><path d="M122.2193,256.0165a1.2241,1.2241,0,0,1,0-1.7677l.3066-.2538c2.045-3.3635,3.0834-5.26,2.4258-9.1669a1.5115,1.5115,0,0,1-.2228.3075l-.6669.5241a22.687,22.687,0,0,1-7.7949,1.5451,20.204,20.204,0,0,1-.8569,2.8506c.8079.0982,1.6043.24,2.458.3821l1.5337.9749a1.25,1.25,0,0,1-1.5,2l-.4447-.5089c-1.0237-.1707-1.9473-.3528-2.926-.4341a15.9331,15.9331,0,0,0-.5869,2.1577q-.03.1578-.05.3233a1.25,1.25,0,0,1-.009,2.3457c.016.2742.0334.5461.0481.8109a32.2658,32.2658,0,0,1,3.6872.4912l.2891-.017a1.25,1.25,0,1,1,0,2.5l-.7-.017a29.8922,29.8922,0,0,0-3.2679-.4581,28.4625,28.4625,0,0,0,.1468,5.096,1.5614,1.5614,0,0,1,.1254.5587l-2.4758.4925a40.08,40.08,0,0,1-.2715-7.664c0-.5538-.0322-1.1554-.06-1.7692a20.7353,20.7353,0,0,1-5.5145-1.0016l-.7359-.5493a1.25,1.25,0,0,1,1.7678-1.7677l-.2413-.0547a17.6155,17.6155,0,0,0,4.7215.8725c.02-.228.0473-.45.0854-.6649a15.8035,15.8035,0,0,1,.7565-2.63,1.5484,1.5484,0,0,1-.0372-.3484,1.1271,1.1271,0,0,1,.5722-1.0658c.1191-.3123.2369-.6249.3495-.9382a11.4061,11.4061,0,0,1-3.6892-.8329l-1.3242-.79a1.25,1.25,0,0,1,1.2863-2.1438l1.1488.694a8.1932,8.1932,0,0,0,3.0869.6038,1.2731,1.2731,0,0,1-.1938-.7205,1.1277,1.1277,0,0,1,.5688-1.0639c.0374-.6268.0595-1.2555.07-1.8855a10.0873,10.0873,0,0,1-3.8095-.5885l.2169.0894a1.25,1.25,0,0,1,0-2.5l.7115.0894a6.6518,6.6518,0,0,0,2.8679.4317c-.0295-1.2349-.0877-2.4725-.15-3.709a13.8042,13.8042,0,0,1-4.5668-.5586l-.3466.0641a1.25,1.25,0,0,1,0-2.5l1.1372.0642a10.0682,10.0682,0,0,0,3.6531.4338c-.06-1.3212-.1052-2.6383-.1052-3.9466a1.25,1.25,0,0,1,2.5,0c0,2.3208.147,4.675.2652,7.0319a14.5614,14.5614,0,0,0,3.2886-2.7226l.9324-.6508a1.25,1.25,0,1,1,1.3868,2.08l-.5514.3384a15.1347,15.1347,0,0,1-4.9431,3.6662q.0166.5554.0253,1.11a1.4094,1.4094,0,0,1,.0908.522,1.424,1.424,0,0,1-.0837.5036c-.0015.8067-.0207,1.6112-.0647,2.4122a19.1748,19.1748,0,0,0,6.5948-1.3561l-.1724.0294a1.2243,1.2243,0,0,1,1.7678,0,1.65,1.65,0,0,1,.1618.187,1.1269,1.1269,0,0,1,.9348-.7762,1.2243,1.2243,0,0,1,1.4709.9806c.9854,4.93-.22,7.4431-2.6268,11.5219l-.6826.7353a1.2243,1.2243,0,0,1-1.7678,0Z" fill="#d0e8ca"/><path d="M92.383,276.1288a1.2244,1.2244,0,0,1-.91-1.5159l.21-.686a12.19,12.19,0,0,0,.0952-2.9837c-.2338-.9174-2.6975-1.399-3.2395-2.7848-.8949-2.288.7116-5.3513.2011-7.8347a1.25,1.25,0,1,1,2.4514-.49c.4674,2.3913-.935,5.3535-.2934,7.4974.4087,1.3661,2.5092,1.0035,3.19,2.6557.12.2911.0951,3.425.0951,3.94l-.2846,1.2924a1.2242,1.2242,0,0,1-1.5158.91Z" fill="#d0e8ca"/><path d="M89.366,272.5484a1.2243,1.2243,0,0,1,0,1.7678l-1.1615,1.0186c-3.7654,1.2129-7.5325-2.822-10.8794,1.3706a1.25,1.25,0,1,1-1.9205-1.6,8.7459,8.7459,0,0,1,8.5792-2.9065c1.4.2443,2.1726,1.4965,3.2923.8151l.3222-.4651a1.2243,1.2243,0,0,1,1.7678,0Z" fill="#d0e8ca"/><path d="M103.6146,259.0564c.144,1.8277.7274,2.2742,1.3961,4.3693.8523,2.67-.6972,5.8029-.6883,8.5229a1.25,1.25,0,0,1-2.5,0c.0065-2.2355,1.5432-5.689.7956-7.7985-.8344-2.3542-1.5374-3.3572-1.5374-6.05l2.3812-.6366a1.2377,1.2377,0,0,1,.1528,1.5928Z" fill="#d0e8ca"/><path d="M123.364,275.9052a1.2242,1.2242,0,0,1-1.25,1.25l.148-.0641a14.4817,14.4817,0,0,1-4.8466.806,1.2288,1.2288,0,0,1-1.245-1.1168,8.6559,8.6559,0,0,0-1.2625,2.6831,1.25,1.25,0,1,1-2.4038-.6868c1.16-3.9255,4.0192-5.8167,6.7086-8.1128a3.782,3.782,0,0,1-.5676-2.3068c.383-2.7075,3.1554-5.3722,4.2535-7.9074l.2153-1.1108a1.25,1.25,0,1,1,2.4514.49l-.2792,1.3621c-.1153.2714-1.5139,3.5891-1.6425,3.7921-1.0822,1.7083-2.1252,2.4038-2.2017,3.5462q.3484-.39.676-.8123c1.7877-2.3157,2.8636-5.282,4.3647-7.7872l.93-.9827a1.25,1.25,0,1,1,1.7678,1.7678l-.5539.5011c-1.5576,2.5921-2.6693,5.6508-4.5379,8.0395a14.796,14.796,0,0,1-1.7646,1.8586,1.15,1.15,0,0,1-.5788,1.425,1.13,1.13,0,0,1-1.1821.0479,32.4408,32.4408,0,0,0-3.2582,2.8177,1.1023,1.1023,0,0,1,.1107-.0077,11.4548,11.4548,0,0,0,4.056-.6778l.6426-.0641a1.2242,1.2242,0,0,1,1.25,1.25Z" fill="#d0e8ca"/><path d="M140.9164,253.1435a1.2242,1.2242,0,0,1,.25,1.75l-.7658,1.02a10.6911,10.6911,0,0,1-1.9446,1.856c-.33.9843-.6126,1.9273-.8525,2.8515a1.5607,1.5607,0,0,1,.4792.3047,35.5461,35.5461,0,0,1,4.09,4.6086l.7247.9657a1.25,1.25,0,0,1-2,1.5l-.759-1.0126a27.5164,27.5164,0,0,0-3.1348-3.6042,39.1538,39.1538,0,0,0-.5331,6.8343,1.25,1.25,0,0,1-2.5,0,39.93,39.93,0,0,1,.9118-8.9685c-.6056,1.15-1.2295,2.2874-1.8814,3.39a1.1886,1.1886,0,0,1-1.2425,1.1408,1.2242,1.2242,0,0,1-1.25-1.25l.1781-.89c1.6911-2.8143,3.1907-5.8838,4.6524-8.8185a1.2243,1.2243,0,0,1,1.6771-.559q.0645.0323.1216.0669c.7012-1.6611,1.483-3.7267,1.0905-4.7689a16.04,16.04,0,0,0-2.2494-3.1623,1.1287,1.1287,0,0,1-.7718-1.1567,1.2242,1.2242,0,0,1,1.25-1.25l1.3192.6069c.7972,1.3349,2.3886,2.77,2.8447,4.2376a7.1764,7.1764,0,0,1-.3485,4.0349,1.2973,1.2973,0,0,1,.644.2732Z" fill="#d0e8ca"/><path d="M135.8631,252.6091a1.2243,1.2243,0,0,1-1.5812-.7906l-.2871-.892c.1759-1.1124-2.804-.4789-3.72-.4789a1.25,1.25,0,0,1,0-2.5c2.8873,0,5.1793-.67,6.1715,2.4886l.2075.5918a1.2242,1.2242,0,0,1-.7906,1.5811Z" fill="#d0e8ca"/><path d="M164.6592,274.6769a1.2242,1.2242,0,0,1-1.75.25l-1.1231-.858c-2.218-2.2295-5.0665-4.1266-8.2659-4.0852a1.25,1.25,0,0,1,0-2.5c3.9236.04,7.28,2.0761,10.0337,4.8174l.8553.6258A1.2242,1.2242,0,0,1,164.6592,274.6769Z" fill="#d0e8ca"/><path d="M146.1014,243.0288a1.2242,1.2242,0,0,1-1.25-1.25l.0243-.4924a13.1008,13.1008,0,0,0,.2232-2.6435c-1.3251-.5719-2.7159-1.0607-4.16-1.6385a14.49,14.49,0,0,1-1.8888-.9635c-.0564.7525-.1078,1.5063-.1064,2.2758v.9892a1.25,1.25,0,0,1-2.5,0v-.9892c.0022-1.2667.1446-2.49.2123-3.7336a11.0512,11.0512,0,0,0-4.1084-1.7094q-.14-.0155-.2807-.0281,0,3.4154-.0062,6.8308l-.07.1115.0522.01L132,241.0121a1.25,1.25,0,0,1-2.4605,0l-.2428-1.2137a1.2994,1.2994,0,0,1,.4738-1.2712q-.0069-2.8718-.0036-5.7436c-1.2446.0264-2.5008.1063-3.6957.1063a1.25,1.25,0,1,1,0-2.5c1.0772,0,2.2189-.0666,3.3589-.1006a1.5573,1.5573,0,0,1-.1576-.6278l1.8931-1.3191a13.5254,13.5254,0,0,1,2.3144,1.7713l.8163.4081c1.5509.8233,2.6354.61,4.3868.61a1.2242,1.2242,0,0,1,1.25,1.25,1.1267,1.1267,0,0,1-.7429,1.1459l-.0007.0581c1.0538.5162,2.1187.9524,3.1787,1.3658-.0233-.6653-.0833-1.33-.1687-1.99a1.1966,1.1966,0,0,1,.051-1.7107,1.2243,1.2243,0,0,1,1.7678,0l.6008.9544a24.6737,24.6737,0,0,1,.26,3.3916,1.4672,1.4672,0,0,1-.0427.3094,25.79,25.79,0,0,1,4.6955,2.31l-.4118-1.2351-.3488-.4438a1.25,1.25,0,1,1,2.08-1.3868l.64,1.04.4945,1.4837a1.2243,1.2243,0,0,1-.7905,1.5812,1.6677,1.6677,0,0,1-.19.0515q.4724.396.9255.8463l.4945.4946a1.25,1.25,0,1,1-1.7677,1.7677l-.4946-.4946a13.5181,13.5181,0,0,0-2.6044-2.0332,14.4282,14.4282,0,0,1-.2319,1.8891l.0243.0021a1.2242,1.2242,0,0,1-1.25,1.25Z" fill="#d0e8ca"/><path d="M164.8312,269.8518a1.2243,1.2243,0,0,1-.559-1.6771l.2935-.5787a6.45,6.45,0,0,1,4.2992-3.3263c-.8674-2.0572-1.79-4.0864-2.7318-6.1065a1.331,1.331,0,0,1-1.1957.428c-2.7194-.4537-5.9676-1.4964-7.2247,1.54a1.2742,1.2742,0,0,1,.5569.49,1.2243,1.2243,0,0,1-.3467,1.7335l-.7419.4946c-2.0727,1.3786-4.68,2.9671-6.31,4.9829a11.8973,11.8973,0,0,1-.8885,4.8275l.0894-.2169a1.25,1.25,0,0,1-2.5,0l.0894-.7115a10.0681,10.0681,0,0,0,.6372-2.3338,1.2955,1.2955,0,0,1-.7266-1.1587c.0664-2.0454-.5907-2.4451-2.4485-3.2238l-1.2474.0226a1.25,1.25,0,0,1,0-2.5l1.72.0225a13.0575,13.0575,0,0,1,2.1022.9969c-.1254-.5263-.2545-1.0639-.3749-1.62-1.2244-1.8552-2.3863-3.7616-3.53-5.667l-.3633-.0976a1.25,1.25,0,0,1,1.3867-2.08l1.12.8915q.5338.89,1.0746,1.7794c.2752-3.0625,1.1241-6.3532,1.5664-9.0079a1.25,1.25,0,0,1,2.466.411c-.41,2.4615-1.2925,5.6877-1.567,8.6085,1.1815-2.1071,3.196-3.8557,4.4871-5.798l-.21.1988a1.25,1.25,0,0,1,2.5,0l-.21,1.188c-1.5008,2.2451-4.6737,4.5488-5,7.3966a29.9652,29.9652,0,0,0-.0277,4.4543,43.3781,43.3781,0,0,1,4.0383-2.9518,1.5372,1.5372,0,0,1-.027-.7458l.2994-1.15c1.8785-4.4853,5.7551-3.95,9.8355-3.2726-1.1169-2.37-2.2423-4.7368-3.3168-7.1308a19.6313,19.6313,0,0,1-7.5534-1.0783l-.971-.6151a1.25,1.25,0,0,1,1.3867-2.08l.5128.374a14.5792,14.5792,0,0,0,5.527.8956q-.82-1.9207-1.5708-3.878c-.677-1.7772-1.5041-3.6693-2.1783-5.5955a12.3506,12.3506,0,0,1-3.0485-1.0135l-.5782-.1795a1.25,1.25,0,0,1,.7906-2.3717l.9056.3151a8.2193,8.2193,0,0,0,1.1.4658,15.0746,15.0746,0,0,1-.4361-3.3045,1.25,1.25,0,0,1,2.5,0c-.0315,2.5089,1.0063,5.2425,2.0595,7.7958-.0563-1.7719-.1082-3.5435-.1082-5.3228v-.7419a1.25,1.25,0,0,1,2.5,0v.7419c0,3.8818.2473,7.7294.2473,11.6227a1.2747,1.2747,0,0,1-.0166.1768q.6693,1.5837,1.3762,3.1473c.1173-1.7419.3112-3.4744.6087-5.2606l.6095-1.3427a1.25,1.25,0,0,1,2.2361,1.118l-.38.6357a57.3244,57.3244,0,0,0-.7249,9.6862,1.3157,1.3157,0,0,1-.02.1957c.713,1.5139,1.429,3.0259,2.1327,4.5441a14.48,14.48,0,0,1,.9167-3.72l.5372-1.0839a1.25,1.25,0,1,1,2.236,1.118l-.452.8944a16.1471,16.1471,0,0,0-.9,6.46,1.4836,1.4836,0,0,1-.3043.8536q.3484.8064.6863,1.6182a1.18,1.18,0,0,1,1.1018,1.2376,1.2158,1.2158,0,0,1-.2684.8194q.3367.842.6736,1.6839l-.7713,1.8427a1.2243,1.2243,0,0,1-1.7678,0,1.1839,1.1839,0,0,1-.0843-1.67q-.2716-.6793-.5434-1.3586a3.9079,3.9079,0,0,0-3.1043,2.2928l-.2011.4105a1.2243,1.2243,0,0,1-1.6771.559Z" fill="#d0e8ca"/><path d="M177.6069,264.2319a1.2243,1.2243,0,0,1-.7906-1.5812l.1832-.3466v-4.3523a16.6524,16.6524,0,0,1-.1769-1.9808,18.4975,18.4975,0,0,1-1.55-2.0589,1.3186,1.3186,0,0,1-1.2139-.4715,27.6225,27.6225,0,0,1-3.9335-6.6393,1.3606,1.3606,0,0,1-.5444-1.0658l2.2976-.9139a83.9111,83.9111,0,0,1-1.0612-15.902,1.25,1.25,0,0,1,2.5,0,84.6949,84.6949,0,0,0,.4032,8.6881,1.5775,1.5775,0,0,1,.2608-.1617,1.2242,1.2242,0,0,1,1.677.559l.29.5893c1.3778,3.465,2.979,8.0239,3.3,11.7366.1341,1.5514.0263,3.0963.0346,4.64a33.726,33.726,0,0,0,2.9368,2.7465c-.5035-1.1264-1.0217-2.253-1.4428-3.4155-1.9633-5.42-2.6273-11.1018-3.7527-16.7291L177,237.08a1.25,1.25,0,0,1,2.5,0l-.0243.0022c1.1033,5.5162,1.728,11.1013,3.666,16.4081,1.3851,3.7926,3.5186,7.1217,3.53,11.2865a1.4261,1.4261,0,0,1-.4078.9616,16.5272,16.5272,0,0,0,.813,6.24l.0894.7115a1.25,1.25,0,0,1-2.5,0l.0894.2169c-1.5049-3.8167.5113-8.5139-2.1874-11.6889-1.02-.8113-2.0646-1.6582-3.0681-2.5562v3.6419l-.3115,1.1372a1.2242,1.2242,0,0,1-1.5811.7905Zm-.85-13.6947a38.6171,38.6171,0,0,0-2.6311-9.7489c.2844,1.8591.6561,3.7263,1.1333,5.6351a27.7762,27.7762,0,0,0,1.5531,5.1235C176.8012,251.2109,176.7838,250.8744,176.7564,250.5372Z" fill="#d0e8ca"/><path d="M101.0681,213.6486l81.075-3.8055" fill="none" stroke="#d0e8ca" stroke-linecap="round" stroke-miterlimit="10" stroke-width="2.5"/><path d="M100.2408,218.9433l82.0677-4.6328" fill="none" stroke="#d0e8ca" stroke-linecap="round" stroke-miterlimit="10" stroke-width="2.5"/><path d="M100.2408,224.238,180.323,219.44" fill="none" stroke="#d0e8ca" stroke-linecap="round" stroke-miterlimit="10" stroke-width="2.5"/><path d="M179.1648,223.08l-9.9275.8273-65.1909,4.4674" fill="none" stroke="#d0e8ca" stroke-linecap="round" stroke-miterlimit="10" stroke-width="2.5"/><path d="M102.0609,209.1812l76.9385-3.971" fill="none" stroke="#d0e8ca" stroke-linecap="round" stroke-miterlimit="10" stroke-width="2.5"/><path d="M137.4691,204.8793l38.3866-2.151" fill="none" stroke="#d0e8ca" stroke-linecap="round" stroke-miterlimit="10" stroke-width="2.5"/></svg>