<svg id="88970b0e-9c72-48cb-bd13-351386400178" data-name="Layer 1" xmlns="http://www.w3.org/2000/svg" viewBox="0 0 290 357.9"><title>baby</title><path d="M103.37,206.7223c.0611-.9771-.11-4.9122.0621-5.62.4493-1.8466,1.8319-3.3786,2.2813-5.2252a64.9131,64.9131,0,0,0,1.5522-15.2263,12.974,12.974,0,0,0-6.335,2.3308c-1.8817,1.3919-1.22,3.9235-4.3835,4.4557-1.44.2424-2.751-1-4.06-1.6479a35.1154,35.1154,0,0,1-7.86-5.4617c-1.2174-1.175-3.281-2.12-3.3535-3.81-.061-1.4218,2.1515-1.8813,3.0624-2.9748,1.1643-1.3978,1.678-3.2447,2.753-4.7124a32.6147,32.6147,0,0,1,10.3445-8.9657c3.7276-2.4839,7.9771-5.5132,12.3663-6.6382a42.2572,42.2572,0,0,1,6.5328-1.0944,2.8139,2.8139,0,0,1,2.0812-.6355c.74.0929,1.4773.2246,2.2124.3747,1.4979-.0486,2.9938-.0607,4.4775-.0607l2.5952.8455a3.122,3.122,0,0,1,.9776.6818,142.5953,142.5953,0,0,0,22.6052.4775c6.4624-.3852,12.6928-2.3271,19.1554-2.3381l1.2094-.5384a2.628,2.628,0,0,1,2.5722.5495,2.6969,2.6969,0,0,1,.4274.0484,16.12,16.12,0,0,1,3.1421,1.0834,2.9037,2.9037,0,0,1,1.967.0592c2.6721,1.1739,4.18,3.1,6.6054,4.47,2.4584,1.3882,5.3929,2.27,7.9228,3.6236,1.5582.8334,5.5763,3.0281,5.9291,4.6691a4.2026,4.2026,0,0,1-.911,3.0358c.35.3149.5707.5521.5837.6593.2131,1.7668-1.5553,3.208-2.4872,4.7241-1.3566,2.2067-2.5,4.1151-3.693,6.5011l-.97,2.2663a2.4484,2.4484,0,0,1-3.2826,1.313,2.2949,2.2949,0,0,1-1.4532-1.5741c-.4628-.13-.921-.2652-1.36-.3546-2.146-.4365-4.3846-1.3552-6.5947-1.9719.2347,2.2025.8027,4.1965,1.1923,6.5263a155.2389,155.2389,0,0,1,2.029,16.5878c.1185,2.0147,1.5405,5.4507,1.16,7.9777.4237,2.2958,1.1938,4.2426,1.7721,6.58a132.8957,132.8957,0,0,1,2.724,16.9886c.42,3.8207-.0955,8.1082,1.2133,11.7981,1.5932,4.4916,3.6686,9.816,6.3792,13.7536,1.1072,1.6082,5.2889,5.603,3.2537,8.2277-1.7752,2.2893-6.3521.2481-8.2625-.5167-3.946-1.58-6.587-4.2165-9.1752-7.3751.6524,2.2949,1.5028,4.5227,2.2448,6.82l.4314-.2157,1.3108,2.6217a2.5011,2.5011,0,0,1-3.2492,3.4391l-2.2825-.9782.01-.0233-.0771-.0066a39.0965,39.0965,0,0,1-11.0492-7.8335,13.9734,13.9734,0,0,1-2.2887-2.9533,3.0844,3.0844,0,0,1-1.1366,1.077c-1.0259.4828-2.6357.0618-4.1341-.7285a27.4932,27.4932,0,0,1,.4677,3.81c.0774,2.0292,1.2611,4.5034-.0037,6.092-1.8483,2.3214-8.6029-.7392-10.4579-1.9423-3.3807-2.1926-6.0756-5.9277-8.2072-9.5741.2629.9408.5273,1.8825.7762,2.8277l.3215-.1607,1.3108,2.6217a2.5006,2.5006,0,0,1-3.492,3.3118l-2.2952-1.3115.041-.0718-.2266-.0453a54.4552,54.4552,0,0,1-6.8334-6.3349c-.0254,1.8274-.021,3.6531.0878,5.4594.1434,2.38,1.52,4.65,1.3349,7.0273-.1388,1.7862-.1083,4.4493-1.79,5.0679-1.906.7012-3.9073-1.257-5.6254-2.34-5.2607-3.3157-9.0241-10.6712-10.124-16.6623a31.6224,31.6224,0,0,1-8.06,8.6992l.3563.2969-1.6545,1.9853a2.5,2.5,0,0,1-4.1463-2.7488l1.2668-2.5337c.31-.8277.6218-1.6824.92-2.5507a18.9238,18.9238,0,0,1-10.0951,8.5882,32.59,32.59,0,0,1-4.45,1.5719q-.621.7337-1.2752,1.469l-.07.0343.0184.0184-2,2-.6974-.6973-2.2734,1.1211a21.0022,21.0022,0,0,0-.2374-2.5116l-1-.2222.6667-3,.2221.0494a4.9067,4.9067,0,0,1,.2938-1.1029l.0041-.01c-5.0064,1.326-12.3279-1.2672-13.8365-6.4473a5.9316,5.9316,0,0,1,.3357-3.8183l-.0193-.0043.656-2.9519a2.5007,2.5007,0,0,1,4.6458-.7039l.9926,1.737c1.6685.6113,1.9734.3009,3.2385-1.1548,5.3944-7.6035,8.68-16.5147,11.8967-25.2526,2.57-6.9813,4.4384-14.534,9.7886-19.87.2143-1.6115.3876-3.2273.489-4.8494Z" fill="#daeab7"/><path d="M117.4368,180.1843a1.2241,1.2241,0,0,1-.91-1.5158l.1267-.353c0-1.01-.0186-2.0137-.0469-3.0147h-2.73a40.0421,40.0421,0,0,1,.3558,4.8191v.164a1.25,1.25,0,0,1-2.5,0v-.164c.0086-4.3766-1.1482-8.6689-1.1482-13.1224a1.25,1.25,0,0,1,2.5,0,45.0488,45.0488,0,0,0,.4688,5.8033h2.9672c-.0909-2.3613-.195-4.72-.195-7.1155a1.25,1.25,0,0,1,2.5,0c0,4.2526.3281,8.3864.3281,12.63l-.2014.9593a1.2241,1.2241,0,0,1-1.5158.91Z" fill="#fff"/><path d="M133.4566,179.2026a1.2242,1.2242,0,0,1-1.677.559l-.981-.5622a21.9654,21.9654,0,0,1-1.795-1.987,5.4936,5.4936,0,0,1-2.0917,2.75c-1.5164.7213-4.5987.073-5.3959-1.4732-.692-1.3423.2747-3.7145,1.2366-5.358a1.3917,1.3917,0,0,1-.1294-1.1161l.9546-1.2827a8.3013,8.3013,0,0,1,3.9529-.535,1.28,1.28,0,0,1,.7072-.1852,1.2242,1.2242,0,0,1,1.25,1.25q0,.138.0029.2713a4.2451,4.2451,0,0,1,.3727,2.2242,9.9984,9.9984,0,0,0,2.7029,3.6739l.3312.0939a1.2242,1.2242,0,0,1,.559,1.677Zm-7.56-6.5692a1.5212,1.5212,0,0,1-.3071.7414c-1.1916,1.38-3.0977,5.3085.3657,4.278.3753-.1117,1.1191-2.3039,1.3492-3.7457a9.2628,9.2628,0,0,1-.2449-1.3252,2.4506,2.4506,0,0,0-1.1629.0515Z" fill="#fff"/><path d="M145.789,170.5044a1.2242,1.2242,0,0,1,1.25,1.25l-.0024,1.39c-.05.4093-.37,3.0944-.4491,3.2523a3.611,3.611,0,0,1-5.494,1.4361,6.5077,6.5077,0,0,1-.8383-.7261,3.7888,3.7888,0,0,1-.8733,1.3406c-2.24,1.58-4.1973.24-4.9513-2.0409-.483-1.4611-.2255-3.3-.2255-4.8159a1.25,1.25,0,0,1,2.5,0c0,2.5768.0455,7.6009,2.0016,2.6953l.4744-1.423a1.25,1.25,0,0,1,2.4373.2294l.162,1.2957-.1348.0169c.8393,1.4931,1.9539,2.7942,2.6887.9089a9.6953,9.6953,0,0,0,.2071-2.3247l-.0024-1.2345a1.2242,1.2242,0,0,1,1.25-1.25Z" fill="#fff"/><path d="M160.1613,179.1357a1.2242,1.2242,0,0,1-1.25,1.25l-1.0511-.132a8.1565,8.1565,0,0,1-2.36-2.1464c-.7094.91-1.8909,2.2384-3.0182,2.278-1.7375.0609-3.5072-3.1985-3.5142-4.5533-.0141-2.7264,2.6664-5.0167,5.0224-5.1636a1.25,1.25,0,0,1,0,2.5c-1.0675-.1546-2.5077,1.52-2.5228,2.71-.01.76.3588,2.2511,1.0786,2.0079.5851-.1977.7309-.9959,1.1109-1.4827a4.8709,4.8709,0,0,0,.8877-1.81v-1.3624a1.25,1.25,0,1,1,2.5,0v1.64h-.0123q-.0438.1692-.0926.3379c.4805,1.2678,1.0929,2.4309,2.0383,2.8089l-.0669-.132a1.2242,1.2242,0,0,1,1.25,1.25Z" fill="#fff"/><path d="M163.8322,178.9094a1.2242,1.2242,0,0,1-1.25-1.25v-5.4129a1.25,1.25,0,0,1,2.5,0v5.4129A1.2242,1.2242,0,0,1,163.8322,178.9094Z" fill="#fff"/><path d="M161.434,166.67a1.25,1.25,0,1,1,1.25,1.25A1.25,1.25,0,0,1,161.434,166.67Z" fill="#fff"/><path d="M170.9269,179.0565a1.2242,1.2242,0,0,1-1.4385-1.0275l-.181-1.19v-5.9051a1.25,1.25,0,0,1,2.5,0v5.9051l.147.7787a1.2242,1.2242,0,0,1-1.0275,1.4385Z" fill="#fff"/><path d="M169.3074,164.209a1.25,1.25,0,1,1,1.25,1.25A1.25,1.25,0,0,1,169.3074,164.209Z" fill="#fff"/><path d="M178.4311,188.8141a1.2242,1.2242,0,0,1-1.6413-.6565l-.5835-1.4855-.0466-.9181c-.5419-.8567-1.5784,4.0662-3.7873,3.6124-1.0844-.2228-.5365-2.5757-1.59-2.9159-.5263-.17-.5251.9758-.8365,1.4327-.7379,1.0823-1.7552,3.0241-3.31,3.1643-1.0883.0981-2.7293-1.6971-3.1939-3.0331a2.6292,2.6292,0,0,1-.6769,1.0092,4.2152,4.2152,0,0,1-2.0887,1.1976c-1.9643.24-3.9076-2.2433-4.8984-3.6155-1.36.9946-3.4889,2.6614-5.31,2.0778-1.4232-.4561-1.7334-3.07-3.5226-1.9279-1.2278.7839-1.3882,3.32-2.8212,3.8731-3.1816,1.2273-4.7015-3.3185-6.4955-4.5861-.3889-.2747-.8471.4544-1.2018.7721a30.958,30.958,0,0,0-3.0741,3.0789c-.6119.3811-1.119,1.0657-1.8356,1.1433-3.8279.4145-3.4224-4.9594-6.6081-5.2392-2.5649-.2252-4.42,3.8508-7.2539,3.6067-2.0723-.1785-2.7558-1.98-4.2659-2.528-.6189-.2245-2.7526.53-3.3838.6893a1.25,1.25,0,0,1-.6063-2.4254c1.2375-.3073,3.589-1.0162,4.8176-.623,1.3139.4205,2.0484,2.1351,3.6076,2.3929.5392.0891,1.4336-.7789,1.6905-.9465,1.5283-.9973,3.54-2.7522,5.49-2.6641a7.87,7.87,0,0,1,3.4845,1.5382c.6821.7109,1.85,4.6391,3.1625,3.2235,1.3675-1.6586,4.3238-5.2752,6.8781-4.35,1.0314.3734,2.4435,2.7213,3.3208,3.5022.4307.3834.9255,1.5008,1.3376,1.0974.9263-.9068,1.0726-2.8518,2.4278-3.6723,3.1068-1.881,3.58.657,5.663,1.6807.2687.1321,4.7352-2.1432,4.86-2.1869.4451.32,3.6727,3.686,4.2873,3.6018,1.625-.2226.3966-3.2375,2.9342-2.9586.9548.1049,1.4514,1.263,2.1138,1.9586a8.5652,8.5652,0,0,1,1.06,1.3749c.0784.1258-.0556.5171.0705.4391,1.5322-.9482,1.6545-4.9369,4.3829-4.5887a2.4157,2.4157,0,0,1,2.0125,1.4511c.28-.6528.46-1.4571,1.0518-1.8467,2.4228-1.5957,2.8131-.34,4.3526,1.0922q.1407.8532.2815,1.7064l.4007.8108a1.2242,1.2242,0,0,1-.6566,1.6413Z" fill="#fff"/><path d="M96.02,183.71c1.719-3.0083,3.8219-5.7435,7.3106-6.6075,1.13-.28,3.4007-1.0343,4.278.3294,1.9259,2.9934-1.2449,2.9512-2.35,3.5967-1.5.8765-2.2887,3.0067-3.6033,4.1434a41.7856,41.7856,0,0,1-5.0687,3.2248,1.44,1.44,0,0,1-.2623.12l-.0017.0012a1.2242,1.2242,0,0,1-1.7437-.2906,1.1466,1.1466,0,0,1-.2111-1.0547,1.25,1.25,0,0,1,.1092-1.4625l.7926-.9511.75-1.049Z" fill="#aad6a0"/><path d="M93.3388,182.5636c-.9951.443-2.2883,2.6967-3.2066,2.7378-.6663.03-1.7109-.809-2.693-1.8l-.0446.0007a1.2487,1.2487,0,0,1-1.03-.542,1.6511,1.6511,0,0,1-.2328-.1073,1.1631,1.1631,0,0,1-.5741-1.4884c-.2524-.32-.4477-.5841-.5609-.7525a16.8871,16.8871,0,0,1,4.2562-4.2978,29.7588,29.7588,0,0,1,5.4825-4.6676c1.3817-1.4558,2.8914-2.9906,4.8155-3.266a8.8821,8.8821,0,0,1,4.94.8966,1.55,1.55,0,0,1,.4549-.085l.231.5293a2.804,2.804,0,0,1,1.1973,2.1877,1.2259,1.2259,0,0,1-.0523,1.7132l-.5757.5685c-3.512,2.9267-7.4734,5.1863-10.9767,8.19a1.28,1.28,0,0,1-1.4069.1719l-.0236.0105Z" fill="#aad6a0"/><path d="M81.2237,177.1673c.0427-3.2713,1.84-4.4941,3.9747-6.6249,2.1284-2.1243,3.5233-4.8349,5.5447-7.02,2.1435-2.3167,5.1047-4.184,7.5336-6.2081a5.9967,5.9967,0,0,1,3.575-1.07,1.28,1.28,0,0,1,1.896,1.2719,3.4708,3.4708,0,0,1-.013,1.9242c-.0032.694-.0117,1.3625-.0329,1.4472A6.6206,6.6206,0,0,1,102.26,163.62a1.3582,1.3582,0,0,1-.3672,1.1452l-.3214.2973c-5.9811,4.2665-12.4366,8.61-17.3485,14.09a1.2243,1.2243,0,0,1-1.7654.0929,1.167,1.167,0,0,1-.4384-.8938,1.2771,1.2771,0,0,1-.7955-1.1835Z" fill="#aad6a0"/><path d="M104.5785,162.4978c-.3914-1.6742.8873-3.491,2.0086-4.482a25.8944,25.8944,0,0,1,2.627-2.08,4.5231,4.5231,0,0,1,1.2837-.7749,12.288,12.288,0,0,1,6.4148-1.3458c.6079.37,1.3942.5421,1.8237,1.1094,3.5584,4.699-5.4633,8.6462-8.3577,9.9326-1.2708.5648-3.7134,2.2152-5.1607,1.0353A2.3685,2.3685,0,0,1,104.5785,162.4978Z" fill="#aad6a0"/><path d="M144.9969,158.8981c1.3489,1.1243,5.186,4.4,3.1522,6.5229-.918.9581-4.6476.2449-5.87.0168-3.7731-.7041-7.8-1.7188-11.09-3.7741-1.64-1.0249-2.7678-2.5538-4.4947-3.39a1.25,1.25,0,1,1,1.1181-2.236q.0649.0331.1287.0674a1.2417,1.2417,0,0,1,.1578-.0278l1.2958-.162a27.611,27.611,0,0,1,15.6019,2.9828Z" fill="#aad6a0"/><path d="M166.25,156.2147c.27.7451.021,1.6843-1.0484,2.8152-2.541,2.9645-5.7419,4.8151-9.7353,4.6248-1.652-.0787-3.2006.1737-3.2159-2.4759a2.2,2.2,0,0,1,.4081-.8523,14.3285,14.3285,0,0,1,1.6543-2.6224,8.7167,8.7167,0,0,1,7.4557-3.6008c.3127.018.6258.05.9334.0973.8309-.0724,1.6976-.0991,2.6061-.0991a1.2242,1.2242,0,0,1,1.25,1.25,1.1936,1.1936,0,0,1-.308.8632Z" fill="#aad6a0"/><path d="M180.478,158.4343c4.515,2.0274,6.9511,6.4227,8.6369,10.9128.7239,1.9426,3.4995,7.683.342,8.726-.7672.2535-4.0083-3.0721-4.5538-3.6564-3.8029-4.0726-8.4928-10.0554-8.5425-15.7847a1.2242,1.2242,0,0,1,1.25-1.25,1.1241,1.1241,0,0,1,1.1091.6568l.0391-.0006a1.25,1.25,0,0,1,.33.0441l1.285.3212-.01.04Z" fill="#aad6a0"/><path d="M118.2059,193.5874c4.0259,4.7651.7063,13.1063-.5653,18.1645-.5383,2.1415-.4416,3.87-.8469,5.71l.3823.0478-.162,1.2958a1.25,1.25,0,0,1-2.423.273l-.4819-1.2849c-.3977-1.0607-.8823-2.1162-1.3441-3.1825a2.807,2.807,0,0,1-.8059-1.3029,1.2516,1.2516,0,0,1-.5231-.7607l-.3217-1.2868.0538-.0134-.0817-.1371c-.0043-.7515.0027-1.4833.0231-2.2005-.5835-5.2528.463-10.9427.46-16.1594a1.5392,1.5392,0,0,1,.2025-.7095l-.1128-.3009a1.25,1.25,0,0,1,2.1872-1.1789l.6888.9644c1.3193.6951,2.6364.8376,3.6711,2.0622Z" fill="#aad6a0"/><path d="M173.9368,193.3455c.003.0385.003.0607.003.0607l-.01.6472c-.1214.9392-.5322,1.8258-.6534,2.7651-.1746,1.3527.8912,2.6827.8262,4.017-.5141,10.5464-9.1681,17.1143-16.8171,22.877-5.9536,3.9708-11.7925,8.1487-18.3785,11.0267-3.8686,1.69-7.8625,2.0673-11.8585,3.0233-1.42.34-2.4535.72-3.5934,1.003l.0928.2785-1.4485.4829a1.2506,1.2506,0,0,1-1.53-1.7582l.6374-1.2747c3.3131-7.2629,8.3029-12.8178,13.2768-18.9424,3.1673-3.9,6.2178-8.1843,9.7649-11.7429,5.8284-5.82,11.8423-11.7411,20.2487-13.4935,2.6753-.5577,5.4771-.323,8.1921-.323a1.2242,1.2242,0,0,1,1.25,1.25c0,.0354-.001.07-.003.1033Z" fill="#aad6a0"/><path d="M107.5144,226.9962a1.127,1.127,0,0,1-.6975.99q-.0526.0264-.1038.0479a15.0656,15.0656,0,0,0-1.3794,2.9276c-.3039,1.0955.0423,2.9777.0419,4.108-.0015,3.3712.1364,6.5929-.17,9.9674-.7785,6.8966-4.4324,12.2107-9.2254,17.005-.8689.8692-4.3635,5.3941-5.8062,4.103-.8634-.7727-.3645-2.2934-.4167-3.4509-.127-2.8208.6816-5.9966,1-8.8182,2.7333-11.025,4.8893-21.8118,14.9715-28.54a1.2242,1.2242,0,0,1,1.7334.3467,1.1243,1.1243,0,0,1,.0524,1.3134Z" fill="#aad6a0"/><path d="M176.4565,222.219c3.5869-1.4253,5.1759,2.1161,4.5207,5.5034-.3,2.68.85,4.5181-.4307,7.2224-1.544,3.2607-5.4879,5.1076-8.3713,7a86.9457,86.9457,0,0,1-21.9,10.7163c-4.5394,1.51-9.2545,2.3643-13.8878,3.4747-1.3523.3241-4.4113,2.8418-5.813,1.4051-1.0192-1.0446.6877-3.244,1.1792-4.0793,2.7013-4.5914,6.49-8.675,10.1352-12.5453,9.1571-9.72,20.95-18.0151,34.5673-18.6978Z" fill="#aad6a0"/><path d="M130.11,195.8413a2.5834,2.5834,0,0,1,1.0906-2.0747c.8359-.4792,1.9988-1.0473,2.8344-.5676.74.4249.3587,1.6691.538,2.5036A34.7874,34.7874,0,0,1,132.2,208.4348c-.5452,1.356-1.0574,4.1373-3.873,2.5524-.5109-.2876-.5709-3.2067-.5165-4.0476.0331-.5106.0644-1.0152.0977-1.5144a11.4113,11.4113,0,0,1-.2443-4.8607,5.9384,5.9384,0,0,1,1.4261-2.5775,17.031,17.031,0,0,1,.63-1.6438,1.5584,1.5584,0,0,1,.39-.5019Z" fill="#aad6a0"/><path d="M113.3093,235.493a11.46,11.46,0,0,1,.7235-1.2231l-.3053-.1908.8086-1.2939a1.25,1.25,0,0,1,2.2971.397l.3122,1.4049c1.2546,3.7482,2.9882,6.7474,2.9928,10.8164-.0074,2.5671-.5314,7.6113-2.3711,9.5923-2.019,2.1739-2.5154,1.5529-3.7927-.5526-1.5337-2.528-1.8766-5.96-1.8657-9.4008a18.88,18.88,0,0,1,.2591-7.0431c.0134-.4445.0214-.8753.0214-1.2894a1.2515,1.2515,0,0,1,.92-1.2169Zm1.7284,12.1728.0232-.1144q-.02.0219-.04.0429l.0172.0715Z" fill="#aad6a0"/><path d="M175.9268,212.1949a1.235,1.235,0,0,1-1.0424-1.2375l.01-.8112c.3038-2.3921.5469-4.5773.9907-6.9344.2336-1.2406-.7079-2.6085-.5082-3.7365.1549-.875.2281-2.1244,1.0557-2.4479,2.6468-1.0342,3.1327,1.533,3.4923,3.2392l.4507.5409-.0545.0455.1748.1263a22.5392,22.5392,0,0,1,1.3161,8.7281c-.2006,2.0247-.49,4.049-.6565,6.0759-.0528.6448.27,1.418-.1161,1.9374-.5684.7652-1.4937,1.6438-2.4358,1.4984-1.1983-.185-1.8847-3.7979-2.186-4.7735a14.5121,14.5121,0,0,1-.49-2.2507Zm2.7147,1.2842c.0283-.2014.06-.404.0935-.6062l-.158.19q-.0306.0374-.064.0721C178.5523,213.2487,178.5956,213.3636,178.6415,213.4791Z" fill="#aad6a0"/><path d="M182.4213,240.9034c1.4279-.3156,4.03-1.8849,5.4229-.6486a.7094.7094,0,0,1,.1693.3117,1.25,1.25,0,0,1,.722,2.0349l-.5216.6259c-.0012.2179-.0036.4036-.0036.5359a1.2832,1.2832,0,0,1-.7716,1.1755,15.0211,15.0211,0,0,1-1.7246,2.9471c-3.4559,5.3413-7.3443,7.0561-13.2852,9.0374-1.9649.65-5.3465,3.3869-7.0789.7075-1.0349-1.6006,1.7088-5.4825,2.5866-6.6054a27.4884,27.4884,0,0,1,10.5245-8.5795,14.65,14.65,0,0,1,3.96-1.5424Z" fill="#aad6a0"/><path d="M81.2316,176.0191a.7345.7345,0,0,1,.75-.75l.4012.0385.9435.3145q.652-.8136,1.3487-1.5663l-.9866-.74a.7059.7059,0,0,1-.6525-.7414.7345.7345,0,0,1,.75-.75l.614.15,1.3123.9842.01.0079q.4581-.4575.9283-.8995a.765.765,0,0,1,.9518-.8749q.1695-.1526.34-.3039a.8887.8887,0,0,1-.0961-.1676,4.3179,4.3179,0,0,0-1.2781-1.6877c-.0209-.0176-.0321-.0289-.0321-.0289l.001-.0013q-.0808-.0788-.1651-.1627l.6124-.4483.4483-.6123a7.3878,7.3878,0,0,1,1.6755,2.0931c.9031-.7751,1.8182-1.5392,2.7291-2.3172a7.7909,7.7909,0,0,0-1.6122-1.7622l-.4084-.3977a.75.75,0,0,1,1.0606-1.0606l.2478.2583a9.4653,9.4653,0,0,1,1.8494,1.9789c.702-.6162,1.3974-1.2471,2.0785-1.9041a.8022.8022,0,0,1,.107-.7449q.0411-.0546.0829-.1086a7.5181,7.5181,0,0,0-1.9013-2.286l-.3-.764a.7345.7345,0,0,1,.75-.75.6834.6834,0,0,1,.7137.5235,8.9686,8.9686,0,0,1,1.7423,2.1181c.9459-.9939,1.98-1.8915,2.8586-2.9162a.9159.9159,0,0,1-.1735-.1657l-.5145-.6877-.5128-.8527a.75.75,0,1,1,1.2862-.7718l.4714.7876.3542.471a7.6541,7.6541,0,0,0,.8024-1.6782l.53-.8926a.75.75,0,1,1,1.2862.7717l-.4538.7477a11.283,11.283,0,0,1-3.0988,4.4281,10.4682,10.4682,0,0,0,2.9516-1.5688l.0837-.0944a.75.75,0,0,1,1.0606,1.0607l-.2443.2337a11.7258,11.7258,0,0,1-4.5677,2.1038.785.785,0,0,1-.7523-.2691q-.16.1673-.3175.3381c.0156.0181.0311.0373.0465.0578a.7345.7345,0,0,1-.15,1.05l-.6147.4587-.05.05a14.8467,14.8467,0,0,0,2.0025.616l.1809-.0146a.75.75,0,0,1,0,1.5l-.4751-.0146c-1.0243-.2085-1.938-.6571-2.9383-.9075-1.0667.9856-2.1645,1.9158-3.2619,2.8368a7.255,7.255,0,0,1,1.37,1.3141l.0635-.0568a.75.75,0,1,1-.6709,1.3416l-.5926-.3848a5.7327,5.7327,0,0,0-1.3485-1.2256c-.7353.6189-1.4652,1.241-2.18,1.88q.2408.282.4641.5777l.3081.154a.75.75,0,1,1-.832,1.248l-.6761-.5021q-.1767-.2369-.3678-.4629c-.6681.6336-1.3179,1.29-1.941,1.98q.408.3085.8147.6188l.5618.7364a.75.75,0,1,1-1.2.9l-.4224-.5758q-.3658-.2683-.73-.5392c-.4883.6033-.9554,1.2347-1.3966,1.9012a.75.75,0,1,1-1.248-.832q.1773-.2644.36-.5219l-.4649-.1549.0731.0384a.7345.7345,0,0,1-.75-.75Z" fill="#59b549"/><path d="M96.2352,188.5647a.7138.7138,0,0,1-.866-.5273.6829.6829,0,0,1-.8509-.2317.7346.7346,0,0,1,.1171-1.0542c1.166-.9083,1.8571-2.1837,3.1825-3q.2469-.1519.4971-.3021c-.0244.0081-.05.0156-.0766.0223a.7346.7346,0,0,1-.91-.5457l-.328-1.3123,1.422-.5482a.7792.7792,0,0,1,.1857.7943l.1755.7024a.8113.8113,0,0,1-.1717.71c.5931-.3517,1.1977-.6978,1.8064-1.0437a5.8284,5.8284,0,0,0-.4341-2.1583l-.1272-.3786a.8669.8669,0,0,1-.2027.2079.7345.7345,0,0,1-1.05-.15l-.546-.7386a13.9967,13.9967,0,0,1-1.392-4.97,31.3264,31.3264,0,0,0-3.1278,2.7781.89.89,0,0,1,.1826.5122,4.4815,4.4815,0,0,0,1.5847,3.4064l.3045.523a.75.75,0,0,1-1.3416.6708l-.0236-.1332a6.2379,6.2379,0,0,1-1.9688-3.6457c-.811.8974-1.5646,1.8118-2.238,2.6987a.851.851,0,0,1,.4871.4093,3.0407,3.0407,0,0,0,.9274,1.2117l.2135.0932a.75.75,0,0,1-.6708,1.3417l-.4427-.2349a5.2293,5.2293,0,0,1-1.3417-1.6887c-.4438.6326-.8382,1.2395-1.1738,1.8027a.75.75,0,0,1-1.2863-.7718q.2306-.3821.4907-.7835a3.1241,3.1241,0,0,1-1.362-.9248l-.5758-.4224a.75.75,0,1,1,.9-1.2l.7364.5618a1.3679,1.3679,0,0,0,.929.615.923.923,0,0,1,.2413.0943c.5229-.7337,1.1032-1.4924,1.73-2.2539a.8169.8169,0,0,1-.0934-.1,13.6589,13.6589,0,0,0-1.1743-1.3493l-.3983-.9545a.75.75,0,1,1,1.3927-.5571l.2578.6858a10.84,10.84,0,0,1,1.0017,1.1181c.7176-.812,1.4815-1.6141,2.2781-2.3787a.8462.8462,0,0,1-.0485-.1478l-.0631-.5673-.4716-.292a.75.75,0,0,1,.9-1.2l.8406.6922.0919.372a23.6267,23.6267,0,0,1,4.5034-3.1549,7.1578,7.1578,0,0,0-.3492-1.1315l-.2557-.3546a.75.75,0,0,1,1.2481-.832l.4.6295a9.1392,9.1392,0,0,1,.3422,1.0561,10.6453,10.6453,0,0,1,1.7669-.5288q.2165-.0423.4306-.0972a.7534.7534,0,0,1,.2815-.0775c.27-.08.5363-.173.7968-.2783l.7706-.0536a.75.75,0,0,1,0,1.5l-.2136-.0537q-.2535.1005-.5125.1886a6.1241,6.1241,0,0,0,1.162,4.242l.0944.0837a.7346.7346,0,0,1,0,1.0607.7623.7623,0,0,1-.389.2236l.2806.23c-.0047.9619.2188,1.88.2995,2.8306q.5085-.3333,1-.6816a.6492.6492,0,0,1,.2517-.4393,4.7594,4.7594,0,0,0-.3657-1.0862l-.3095-.6161a.75.75,0,1,1,1.3416-.6708l.3466.6961a6.5449,6.5449,0,0,1,.5528,3.0839.7345.7345,0,0,1-.75.75.6939.6939,0,0,1-.5713-.2426c-.9176.6271-1.8768,1.2183-2.85,1.7925a.9381.9381,0,0,1,.0706.3246v1.1482a.75.75,0,0,1-1.5,0v-.6434c-.6734.3862-1.3472.7688-2.0124,1.1539.01.02.0142.0311.0142.0311l.328.82.1792.5335a.75.75,0,1,1-1.423.4743l-.1489-.4507-.2556-.6389q-.1433.0863-.2857.173a5.2945,5.2945,0,0,0-.71.5221c.0136.0266.02.0429.02.0429l.328.82-.002-.0877a.75.75,0,0,1-1.0606,1.0606l-.33-.4158-.0963-.2408-.1153.1294.0031.0138.1641.82a.7345.7345,0,0,1-.5884.8825Zm4.0445-9.9765a.7345.7345,0,0,1,.9487.4743l.1489.4508a7.4475,7.4475,0,0,1,.4813,1.8967c.5817-.3327,1.1616-.6692,1.7331-1.014a.93.93,0,0,1-.0521-.2761c.0034-.9987-.2334-1.9435-.3067-2.9261a.7157.7157,0,0,1-.1854-.5185.6783.6783,0,0,1,.4774-.6991,7.3918,7.3918,0,0,1-1.4528-4.749,12.7764,12.7764,0,0,0-4.0029,1.8188.9367.9367,0,0,1,.0812.3487,11.2764,11.2764,0,0,0,1.216,4.8815l.4383.5735a.7287.7287,0,0,1,.0453.0718.7185.7185,0,0,1,.43-.3333Z" fill="#59b549"/><path d="M105.2625,158.7566a.7346.7346,0,0,1,1.02.2914l.38.6884c.2485.5388.4893,1.0815.7106,1.632a20.7622,20.7622,0,0,1,1.7176-1.4393,11.6676,11.6676,0,0,1-1.137-2.8024l.0514.1911a.75.75,0,0,1,1.0606-1.0606l.3351.4748a9.994,9.994,0,0,0,.9336,2.3551q.1564-.0951.3144-.1856a11.4861,11.4861,0,0,1,1.8429-.8045c-.3872-.7108-.7107-1.4423-1.08-2.18l-.14-.6377a.75.75,0,1,1,1.48-.2466l.002.2135c.3979.797.7349,1.588,1.1731,2.3486a8.4,8.4,0,0,0,2.4948-1.2873,4.9969,4.9969,0,0,0-.8163-1.6133l-.0368.0217a.75.75,0,0,1,.8321-1.2481l.3887.3055a6.1488,6.1488,0,0,1,.8014,1.4142.7708.7708,0,0,1,.8381,1.0842l-.15.2669q-.099.1263-.2031.2438a.6748.6748,0,0,1-.4914.57.9869.9869,0,0,1-.1442.04,6.9054,6.9054,0,0,1-1.21.7813c.1124.7863.4306.9373,1.0663,1.4274l.4245.4164a.75.75,0,1,1-1.0606,1.0606l-.2848-.293a3.5554,3.5554,0,0,1-1.5351-2.0052c-.1881.0717-.3776.1415-.5679.2107a.8658.8658,0,0,1-.2128.1949.69.69,0,0,1-.625.11q-.2729.1012-.544.2079a.9055.9055,0,0,1,.1551.4767,3.6341,3.6341,0,0,0,.6136,2.21.8245.8245,0,0,1,.3086.6276l-1.374.4869a5.3787,5.3787,0,0,1-1.0466-3.1859q-.08.0433-.159.0884a14.7411,14.7411,0,0,0-1.9428,1.34c.4138,1.0057.8,2.021,1.1994,3.032.0176.0153.0353.0318.0529.0494a.7345.7345,0,0,1,0,1.0607l-1.2976-.1809c-.3881-.97-.7582-1.9462-1.1484-2.9152-.4928.4657-.966.9544-1.4168,1.4518a7.2424,7.2424,0,0,1,.882,1.3461l.1851.3042a.75.75,0,0,1-1.2863.7717l-.24-.4051a5.0666,5.0666,0,0,0-.5352-.8655q-.2079.2517-.4074.502a.75.75,0,0,1-1.1713-.937c.6431-.8019,1.3437-1.6147,2.0941-2.3919a.89.89,0,0,1-.36-.4081c-.2153-.5386-.4508-1.0692-.694-1.5958l-.3294-.5885a.7346.7346,0,0,1,.2914-1.02Z" fill="#59b549"/><path d="M143.3358,166.0279a.7345.7345,0,0,1-.91-.5457l-.0832-.3424a11.1438,11.1438,0,0,1-.1517-1.6957c-.5029-.32-.9855-.6633-1.4774-.9956.0015.8539-.0055,1.7059-.0759,2.5593l.0026.2215a.75.75,0,0,1-1.5,0l.0026-.346c.0937-1.1147.0693-2.2281.0683-3.3461q-.1727-.0884-.351-.17c-.5729-.2617-1.2173-.55-1.9088-.8457v3.0052a.75.75,0,0,1-1.5,0v-3.6275c-.6484-.26-1.32-.5165-1.9979-.7577a8.47,8.47,0,0,1-.1265,1.7169l-.067.8152a.75.75,0,1,1-1.4949-.1245l.0749-.8874a7.6815,7.6815,0,0,0,.09-2.03,23.4584,23.4584,0,0,0-3.3748-.817,9.9385,9.9385,0,0,1-.1282,1.0226l-.1682.5286a.75.75,0,1,1-1.423-.4743l.1154-.3227a7.6977,7.6977,0,0,0,.1126-.8884q-.0781-.0012-.155-.0009a.75.75,0,0,1,0-1.5,16.561,16.561,0,0,1,3.9125.594q.3584-.5171.745-1.0138l.4164-.4246a.75.75,0,0,1,1.0607,1.0606l-.2931.2849q-.2029.2605-.3979.5273c.7766.24,1.5576.5086,2.3228.7912a6.1052,6.1052,0,0,1,.8836-2.0939l.714-.3642a.7345.7345,0,0,1,.75.75.6783.6783,0,0,1-.3226.6275,3.55,3.55,0,0,0-.5959,1.63c.8107.3238,1.5868.6532,2.3012.9684a.74.74,0,0,1,.0341-.0856c.4152-.8295.883-1.6141,1.2649-2.4579L140,156.55a.75.75,0,0,1,1.2.9l-.13.1441c-.3926.8606-.866,1.6611-1.2889,2.508,0,0-.0063.0126-.0189.0336a15.1972,15.1972,0,0,1,1.7209,1.0393,14.894,14.894,0,0,1,2.0783-3.0828l.1035-.16a.75.75,0,1,1,1.248.832l-.18.2653a12.04,12.04,0,0,0-1.9862,2.995,10.2443,10.2443,0,0,0,2.0068,1.038q.1494.0891.2965.1751a14.96,14.96,0,0,1,2.1507-2.6167l.1051-.1073a.75.75,0,0,1,1.0606,1.0606l-.0368.0345a13.4053,13.4053,0,0,0-1.9295,2.2865,4.2185,4.2185,0,0,0,1.0783.2325l.6043.3585a.7345.7345,0,0,1,0,1.0606.7137.7137,0,0,1-1.0133.0414,7.7219,7.7219,0,0,1-2.961-1.1715q-.1892-.0679-.371-.1445c.0217.208.0506.4152.0855.621l.0588.2252a.7345.7345,0,0,1-.5457.91Z" fill="#59b549"/><path d="M153.8961,163.243c0-.0269.001-.0528.0028-.0779q-.2755.1126-.5571.2152a.75.75,0,0,1-.5127-1.41,16.34,16.34,0,0,0,1.7544-.76.847.847,0,0,1-.2617-.5919,4.1922,4.1922,0,0,0-.685-2.3522.8244.8244,0,0,1-.3082-.6272l1.374-.487a6.1036,6.1036,0,0,1,1.1176,3.3815c.69-.4073,1.3586-.85,2.0166-1.3089l-.0059-.0172a10.6741,10.6741,0,0,0-1.326-2.9259l-.3319-.3113a.75.75,0,0,1,1.0607-1.0607l.5193.54a11.8383,11.8383,0,0,1,1.3634,2.8565c.7259-.5315,1.4466-1.07,2.1767-1.5924a.7674.7674,0,0,1-.0451-.0952,7.8851,7.8851,0,0,0-.8749-1.6965.676.676,0,0,1-.4471-.688.7345.7345,0,0,1,.75-.75l.7659.334a11.0067,11.0067,0,0,1,1.1134,2.0229,21.5417,21.5417,0,0,1,3.3-1.84.8612.8612,0,0,1,.5663-.2332l.42,1.4463c-.5127.2049-1.01.4358-1.4962.6874.1271.4462.2778.8862.4487,1.3174l.159.8536a.75.75,0,0,1-1.4758.2683l-.1247-.7071c-.1292-.32-.2434-.6455-.346-.9749-.94.5743-1.8447,1.21-2.7414,1.8632a.9316.9316,0,0,1,.1334.2676,9.4054,9.4054,0,0,0,.8856,1.9529.7247.7247,0,0,1-.0147,1.0448.7345.7345,0,0,1-1.0607,0l-.2114-.2658a15.2036,15.2036,0,0,1-.9708-2.09c-.5365.3945-1.0747.7872-1.62,1.1683a.8638.8638,0,0,1,.0362.1641,3.1294,3.1294,0,0,0,.7284,1.78l-.0227-.0434a.75.75,0,0,1-1.0607,1.0606l-.1647-.1852a5.2514,5.2514,0,0,1-.8774-1.8669c-.5686.36-1.15.7-1.75,1.01l.1439.5277-.7945.9473a.7345.7345,0,0,1-.75-.75Z" fill="#59b549"/><path d="M186.3459,176.2677a.7345.7345,0,0,1-.1744-1.0462l.2727-.3491.3547-.8513a.9161.9161,0,0,1,.2987-.3623q-.1152-.294-.2378-.583a2.7784,2.7784,0,0,0-1.8046,1.4511l-1.3644-.5011a.8078.8078,0,0,1,.3472-.652,4.1157,4.1157,0,0,1,2.165-1.6569q-.1-.18-.2062-.3556-.3517-.5865-.7043-1.1654c-.5579.5406-1.0371,1.166-1.63,1.6948l-.1111.1732a.75.75,0,1,1-1.2-.9l.3146-.3943c.6714-.5949,1.1966-1.27,1.8322-1.8616q-.61-.9766-1.2367-1.93c-.7743.5887-1.5646,1.1514-2.2991,1.7948l-.1054.1078a.75.75,0,0,1-1.0607-1.0607l.1783-.176c.7831-.6845,1.6265-1.2809,2.4485-1.9115q-.7745-1.1253-1.5957-2.2137a5.4024,5.4024,0,0,0-1.7808,1.5656l-.3709.2479a.75.75,0,1,1-.6708-1.3416l-.0871.106a7.561,7.561,0,0,1,1.9762-1.7736q-.65-.8068-1.3407-1.5913a6.94,6.94,0,0,0-1.0126.4151l-.3111.1116a.75.75,0,1,1-.4743-1.423l.1146-.03q.29-.1434.59-.2661-.351-.3687-.7143-.7318a.75.75,0,1,1,1.0606-1.0607c.8717.8723,1.69,1.7675,2.4672,2.6847q.4254-.4649.87-.9112l.3368-.2114a.75.75,0,0,1,.6708,1.3416l.053-.07q-.4982.4977-.9692,1.0223.1383.1739.2751.3488a.7145.7145,0,0,1,.2963.3826q.5592.7287,1.0936,1.474a18.1169,18.1169,0,0,0,1.5067-1.309l.2747-.4021a.75.75,0,1,1,1.2206.8718l-.4346.591a21.7327,21.7327,0,0,1-1.7048,1.4788q.6226.9095,1.2229,1.8415a16.6414,16.6414,0,0,1,1.2355-1.5113l.4467-.3711a.75.75,0,0,1,.937,1.1713l-.2626.1963a11.511,11.511,0,0,0-1.4072,1.803.79.79,0,0,1-.0717.096l.0115.0184a.7808.7808,0,0,1,.3153.2756.7363.7363,0,0,1,.1513.4786q.2532.412.505.828c.3706-.394.7069-.81,1.0733-1.2285l.4506-.3755a.75.75,0,1,1,.9371,1.1713l-.2588.192c-.4785.5465-.9145,1.0817-1.421,1.5834.1911.3657.3679.7429.5343,1.1276l.8216-.7189.4627-.2915a.75.75,0,1,1,.7717,1.2862l-.2467.1342-1.135.9931a.7892.7892,0,0,1-.0927.0664q.1723.4691.3358.94c.3177-.384.651-.7557,1.0028-1.1084l.2837-.2837a.75.75,0,0,1,1.0607,1.0606l-.2838.2838a14.324,14.324,0,0,0-1.08,1.2151.8841.8841,0,0,1-.4771.2886q.0822.2328.1655.4624l.2741.6853a.75.75,0,0,1-.9844.9843l-.6936-.2774a.7346.7346,0,0,1-.4178-.9749.7728.7728,0,0,1,.2543-.348c-.1381-.3941-.2739-.7961-.4121-1.2006l-.38.56a.7345.7345,0,0,1-1.0462.1744Z" fill="#59b549"/><path d="M114.028,216.4478a.75.75,0,0,1,.4349-.6808.7973.7973,0,0,1,.0675-.466c-.0514-.6938-.146-1.3931-.2347-2.0943-.5921.0179-.6059.2659-.9751,1.0227l-.7417.4146a.7345.7345,0,0,1-.75-.75.6822.6822,0,0,1,.2924-.6082,2.2346,2.2346,0,0,1,2.0174-1.5128,8.6868,8.6868,0,0,1,.4293-3.9474c.2183-.6549.1528-1.0311-.0712-1.2884-1.7548.3211-1.4751,2.0991-2.097,3.9033l-.8237.6014a.75.75,0,1,1-.832-1.248l.4532-.25c.4123-1.7179.6088-3.1492,1.6079-3.9268A2.3651,2.3651,0,0,1,111.9,204.57q-.04-.021-.0817-.0475a.7346.7346,0,0,1-.2253-1.0365l.0218-.0336c-.2028-1.8365.6574-3.7668,1.2047-5.5664a2.7265,2.7265,0,0,0-1.029.0042l.1215.1946a.75.75,0,1,1-1.2206-.8719l.8308-.7985a4.9713,4.9713,0,0,1,1.6447.02c.2271-1.7587-.6149-3.4459-1.158-5.0744a.75.75,0,0,1,1.423-.4744,26.8334,26.8334,0,0,1,1.1564,3.7663,5.6943,5.6943,0,0,1,2.8938-.9424l-.0816-.2372a.75.75,0,1,1,1.1389.9762l-.9328.7559c-1.7286.144-3.1232.7-3.0721,2.8a.7846.7846,0,0,1-.4121.6852,23.3766,23.3766,0,0,0-.8994,3.0222,3.1239,3.1239,0,0,1,.8876-.2654c.9038-.1424,2.2752.39,3.0364-.2681,1.2291-1.062.8424-2.2473,2.6042-2.7059l.8759.5444a.7345.7345,0,0,1-.3354,1.0062.693.693,0,0,1-.6224.0372c-.6016.4044-.9474,1.7919-1.5857,2.29-1.7973,1.4019-3.4819-.0882-4.88,1.48.2678,1.1338,1.1261.9966,1.9052,1.157h.0234a.8819.8819,0,0,1,.5285.1967,1.3094,1.3094,0,0,1,.3858.3377,1.76,1.76,0,0,1,.3292,1.4834,23.2464,23.2464,0,0,1,2.5969-1.9628l-.0662-.0048a.75.75,0,1,1,1.2481.8321l-.35.4208c-1.3137.8716-3.2744,2.178-3.8382,3.5661a.872.872,0,0,1-.4079.4227,18.6621,18.6621,0,0,0,.3085,3.649c.0287-.0025.0455-.0025.0455-.0025h1.1351a.75.75,0,0,1,0,1.5h-1.0067l.0043.0619.0315.5031c.2281.92.2376,1.6981.4318,2.6654l.0121.4179a.75.75,0,0,1-1.5,0l.0121-.15c-.1146-.6811-.1478-1.1923-.2295-1.7256l-.0257,0a.75.75,0,0,1-.75-.75Z" fill="#59b549"/><path d="M126.5989,208.852a.7345.7345,0,0,1,.8825-.5883l.2611.0582c.5341.0384,1.07.0656,1.605.0688a16.6148,16.6148,0,0,1,1.3333-2.6117,11.8236,11.8236,0,0,0-2.2824-.1444h-.4256a.75.75,0,1,1,0-1.5h.4256a12.957,12.957,0,0,1,2.8529.23s.0225.0048.0587.0167a6.63,6.63,0,0,0,.25-.9642c.1663-.9234-.3978-1.261-.855-1.7785a.8721.8721,0,0,1-.1782.0239c-.5889-.0006-1.1784-.0282-1.7647-.0829l-.8446-.2273a.75.75,0,0,1,.3947-1.4472l.7161.1983c.3739.0328.7493.05,1.1247.0562a9.2864,9.2864,0,0,1,.7257-3.3908,3.7092,3.7092,0,0,1-.6326-.5411l-.42-.35a.75.75,0,1,1,.9762-1.1388l.5729.5012.0266.0324a3.13,3.13,0,0,0,.0778-.7445v-.1419a.75.75,0,1,1,1.5,0v.1419a5.4892,5.4892,0,0,1-.2561,1.5549.7595.7595,0,0,1-.4534,1.2479q-.0387.1074-.0768.2163c.8-.1085,1.3586.3082,1.966-.7394l.2225-.5271a.75.75,0,0,1,1.3707.6092l-.3451.75c-1.5361,2.129-3.51.4355-3.4919,3.2729a.8018.8018,0,0,1-.0131.1251c.2226.38.5679.6906.8255,1.0886l.4978-.0453-.2133-.2181a.75.75,0,1,1,1.2719.795l-.9228.917-.3132.0284-.0075.0542a7.9437,7.9437,0,0,1-1.3011,3.0674l.6434.2376a.75.75,0,1,1-.5909,1.3787l-.2586-.1544-.5672-.0436a4.6091,4.6091,0,0,0-.3366,2.6578.75.75,0,1,1-1.4825.2281,6.1828,6.1828,0,0,1-.0715-1.1415c-.48-.0094-.9606-.0349-1.44-.0689l-.4484-.0836a.7345.7345,0,0,1-.5883-.8825Z" fill="#59b549"/><path d="M123.5564,231.12a.7345.7345,0,0,1,.9749.4178l.2017.5114a6.92,6.92,0,0,1,.6429,2.1846l.0019.0291q.7388-.5917,1.4778-1.1858a.6827.6827,0,0,1,.4664-.4856.9286.9286,0,0,1,.2066-.0529c.8354-.6667,1.6745-1.3289,2.5223-1.9765a43.3532,43.3532,0,0,0-1.8133-6.5776l-.16-.0478a.75.75,0,0,1,1.0607-1.0607l.5221.6341a49.91,49.91,0,0,1,1.73,6.0479,43.9061,43.9061,0,0,1,7.4473-4.5383,41.7866,41.7866,0,0,1-4.4895-5.8569l-.1659.0275a.75.75,0,0,1,.6708-1.3417l.7432.4821a37.5946,37.5946,0,0,0,4.7124,6.0539q.3471-.1386.6987-.2685a18.2521,18.2521,0,0,1,3.3737-.7834.7449.7449,0,0,1,.3338-.35.6932.6932,0,0,1,.9251.1482,14.3661,14.3661,0,0,0,3.38-.8792,9.4273,9.4273,0,0,0,1.1957-.6581c-1.69-2.0222-3.6444-3.8306-5.2652-5.9077-1.4641-1.8764-2.4359-4.0947-3.8783-5.9581a.6747.6747,0,0,1-.634-.4192.7346.7346,0,0,1,.3354-1.0063l1.1389.0771c1.629,1.9608,2.6418,4.3576,4.22,6.3824,1.6379,2.1019,3.6234,3.9275,5.3255,5.9793a25.98,25.98,0,0,0,4.3093-3.8829,5.7861,5.7861,0,0,0,.6436-1.0306.8722.8722,0,0,1-.4169-.4128c-1.9433-4.3743-5.9012-7.0167-9.2092-10.2762a.6825.6825,0,0,1-.5156-.7114.7345.7345,0,0,1,.75-.75l.6439.22c3.3162,3.3161,7.2265,5.9813,9.3817,10.2359.9329-3.2447.9317-7.1055,4.5115-7.4751q.0106-.07.023-.1393a.9267.9267,0,0,1-.3552-.2393,40.99,40.99,0,0,0-8.0293-7.4785l.53-1.3741a.7977.7977,0,0,1,.6667.3737,42.8684,42.8684,0,0,1,7.6842,7.1692c.322-.7282.7278-1.43,1.08-2.2134q.0934-.2079.1861-.4206a.69.69,0,0,1,.3578-.8353c.3521-.833.7092-1.6986,1.1-2.554-1.8541-1.8718-3.39-3.8614-5.7016-5.1962l-.07-1.2527a.7345.7345,0,0,1,1.0582.072c.0151.0172.0291.0344.0422.0515a29.2049,29.2049,0,0,1,5.3686,4.8953,12.18,12.18,0,0,1,3.0025-3.9l-.2629-.132-.7215-.4792a.75.75,0,1,1,.8321-1.2481l.6423.43.6408.3188a.9322.9322,0,0,1,.2971.2563,12.9122,12.9122,0,0,0,2.2473-1.0051l.52-.2011a.75.75,0,1,1,.4743,1.423l-.162.0262c-.9969.6646-2.35.9-3.2528,1.5378a7.3984,7.3984,0,0,0-1.128.9917c3.0125,1.04,4.3062,3.7376,5.9526,6.2042l.1259.757a.75.75,0,0,1-1.5,0l.126.0751c-1.412-2.12-2.5582-4.7778-5.182-5.6143a.9.9,0,0,1-.4131-.3122,30.33,30.33,0,0,0-2.749,5.6532c1.6475,3.0477,3.8477,4.8182,6.3163,7.2823l.22.644a.7345.7345,0,0,1-.75.75.6822.6822,0,0,1-.7106-.5134c-2.2282-2.2169-4.2306-3.9367-5.8325-6.4881a7.2462,7.2462,0,0,0-1.2308,3.388l0,.0193a.7153.7153,0,0,1-.7482.753l-.3328.0013a2.3254,2.3254,0,0,0-2.1045,1.4641.8912.8912,0,0,1,.0853.183c.9162,3.0949,2.97,5.0067,5.1535,7.186l.2541.4222a.75.75,0,0,1-1.3416.6708l.0268-.0323c-1.9981-2.0022-3.8442-3.8177-4.98-6.3464-.636,2.1872-1.0424,4.8135-2.0677,6.1085a16.6234,16.6234,0,0,1-1.6695,1.742,7.2106,7.2106,0,0,1,2.24,3.4419l-1.3652.6227a.8239.8239,0,0,1-.2254-.6621,5.9146,5.9146,0,0,0-1.7812-2.4048,22.3678,22.3678,0,0,1-4.52,3.0965,13.8146,13.8146,0,0,1-3.1689.8541c.9636,1.5957,1.9879,3.165,2.8273,4.8422l.0792.4491a.7345.7345,0,0,1-.75.75.7107.7107,0,0,1-.7443-.6741c-.897-1.7674-1.9894-3.4179-3-5.1079a18.1936,18.1936,0,0,0-3.34.7849,31.7927,31.7927,0,0,0-5.4977,2.693,42.0509,42.0509,0,0,1,3.3653,5.31l.2273.4545a.75.75,0,1,1-1.3417.6709l-.2272-.4546a40.77,40.77,0,0,0-3.2942-5.18c-1.0736.7017-2.1231,1.45-3.1572,2.2242a.6752.6752,0,0,1-.6135.5218q-.0452.0065-.0872.0088c-.8036.6147-1.5991,1.2432-2.3905,1.8765.4633,1.34.8334,2.7026,1.3632,4.0263l.0537.3922a.7345.7345,0,0,1-.75.75.7214.7214,0,0,1-.7485-.7169c-.4447-1.1367-.7792-2.3006-1.1615-3.4521-2.01,1.6211-4.0086,3.2419-6.0641,4.7112a.75.75,0,0,1-.8719-1.2206c1.3765-.9825,2.7261-2.0283,4.0694-3.0952a.7759.7759,0,0,1-.5148-.644,4.6861,4.6861,0,0,0-.4936-1.6795l-.2529-.6251a.7346.7346,0,0,1,.4179-.9749Z" fill="#59b549"/><path d="M177.4454,216.9234a.7345.7345,0,0,1,.15-1.05l.1834.053a14.0818,14.0818,0,0,0,.1984-3.999s0-.0131.0018-.0358c-.2656-1.4538-.5708-2.9112-.8422-4.3693a3.41,3.41,0,0,0-1.1227,1.6151l-.28.3655a.75.75,0,1,1-1.0606-1.0607l-.0524.1382a5.4166,5.4166,0,0,1,2.2277-2.7015,26.4035,26.4035,0,0,1-.3447-7.1039l.1476-.4953a.75.75,0,1,1,1.423.4744l-.08.1866a21.2449,21.2449,0,0,0-.035,4.0564,29.947,29.947,0,0,0,2.1809-2.265.8835.8835,0,0,1,.3295-.4526l.057.0407q.0825-.0859.1656-.17l.1868.4223.8818.63a31.48,31.48,0,0,1-3.6116,3.554c.1851,1.3826.4458,2.7674.7181,4.151.5846-.9479,1.1682-1.8407,1.6884-2.8844l.5951-.6495a.75.75,0,0,1,1.0606,1.0607l-.3141.26c-.7,1.3946-1.5314,2.5563-2.2926,3.9008a.9154.9154,0,0,1-.3406.3221q.0632.3242.1245.648a.9359.9359,0,0,1,.0876.3625l0,.1083a34.6125,34.6125,0,0,1,.6816,6.1424.75.75,0,0,1-1.5,0q.0018-.6186-.031-1.2392l-.1328.1345a.7345.7345,0,0,1-1.05-.15Z" fill="#59b549"/><path d="M133.3814,254.364a.9726.9726,0,0,1,.1518.0113,32.9755,32.9755,0,0,1,6.5279-1.8607c.0732-.9956.1593-2.3024-.4736-2.8643-1.1691-1.0379-2.9178-.5611-4.2407-1.8523l.0658-1.3726a.75.75,0,0,1,1.3927.5571l-.3887-.236c1.2205,1.3154,2.91.6275,4.1693,1.7844.9836.9037,1,2.3875.96,3.7077,4.6027-.821,9.32-1.4106,13.5052-3.681a4.2353,4.2353,0,0,1-2.627-2.9428c-.1667-.707.3987-4.5353.1009-4.7327-1.9934-1.3209-4.1589.2326-5.6378-1.7522a11.9812,11.9812,0,0,1-.163-1.8587l.1521-.5781a.75.75,0,1,1,1.423.4743l-.0751.1038a11.4219,11.4219,0,0,0,.0642,1.3234c.1543.4122,4.3094.2145,5.2725,1.2027,1.5445,1.5847-.568,4.3784.5746,6.2851a4.0445,4.0445,0,0,0,2.4458,1.5,12.6074,12.6074,0,0,0,2.4137-2.5933l.0078-.0723a.7854.7854,0,0,1,.4831-.6349c.72-1.0765,1.3763-2.2242,2.0636-3.3416-3.3858-1.12-1.7627-8.192-1.7593-11.0649.0007-.6176-.5768-.4642-1.0152-.5626a.7.7,0,0,1-.3961.4468.7345.7345,0,0,1-1.0062-.3354l-.2786-1.4559c5.3042-.6684,3.9553,3.6085,3.9939,7.4438.0145,1.4488-.5723,4.1834,1.3267,4.179a13.7931,13.7931,0,0,1,2.88-3.2351c1.8581-1.4459,3.94-.6532,5.76-1.0419-1.612-2.5617,1.0787-5.97,2.3093-8.3738.1276-.249,1.4461-2.2005,1.1694-2.63a7.2127,7.2127,0,0,0-1.7741-1.4263.6915.6915,0,0,1-.578-.7275.7345.7345,0,0,1,.75-.75l.5938.1738c3.2377,2.7,2.3278,3.7917.49,7.3791-.7175,1.4008-2.9249,4.1833-1.6054,5.7334,1.1119-.9561,2.2285-3.4158,2.6782-4.5472a12.8476,12.8476,0,0,1,2.91-4.2281l.4748-.21a.7468.7468,0,0,1,.3677-.0962l.0288.0005a.6749.6749,0,0,1,.6726.4833q.0108.0283.0193.0577a.6749.6749,0,0,1-.2477.7906.7471.7471,0,0,1-.3947.1639,11.2729,11.2729,0,0,0-2.4626,3.6526c-.6163,1.5315-2.0715,4.5838-3.59,5.4474-1.6209.922-3.501.21-5.2224.63a.92.92,0,0,1,.127.4346c0,3.408-.8149,4.3725,2.7937,3.9154l.94.2751a.75.75,0,1,1-.5571,1.3927l-.1966-.1794c-1.0715.1323-3.3158.5195-4.1731-.3555-.8071-.8238-.37-3.5559-.3126-4.8194l-.0408.0324c-2.515,2.0263-3.9513,5.081-5.7564,7.77-.1672,1.4852-.3116,2.9025-.4273,4.4136l.0022.17a.75.75,0,0,1-1.5,0l.0023-.2848c.0533-.69.1141-1.3653.18-2.0365q-.272.2969-.5618.5764a.6772.6772,0,0,1,.1463.7008.7345.7345,0,0,1-.9272.5151q-.2562-.0732-.5135-.1489-.3027.2108-.6263.4011a36.0284,36.0284,0,0,1-8.473,3.5046c-4.5092,1.2492-9.3153,1.0086-13.6384,2.68v.57l-.8636.75a.7446.7446,0,0,1-.7382-.5949q-.5152.2711-1.0185.5913a.75.75,0,0,1-.8053-1.2655,18.6087,18.6087,0,0,1,2.0212-1.11.6751.6751,0,0,1,.6544-.3713Z" fill="#59b549"/><path d="M146.4193,250.5634a.7345.7345,0,0,1,.15-1.05l.1724.0964c.1848-.8037,1.3543-1.4884,1.0331-2.2479-.6841-1.6173-5.3671.0943-6.4449-.7487-1.7583-1.3752.0916-5.0118.2856-6.5939a.75.75,0,0,1,1.4884.186c-.0853.6707-1.6452,4.7146-.8509,5.2256,1.5552,1,5.9164-1.6375,6.9656,1.5243.1813.5464-.8772,2.3434-1.0126,2.98l-.7368.7783a.7345.7345,0,0,1-1.05-.15Z" fill="#59b549"/><path d="M187.8192,238.7941a.7345.7345,0,0,1,.75.75v.6818c-.0379,5.3579-4.0075,4.8974-7.8565,6.0932-.4475.4724-1.0875.7867-1.4062,1.354-.3577.6365.0678,1.46.055,2.19-.0317,1.8159-.6761,5.03-2.4033,6.119-2.0157,1.2705-6.1816.5289-8.5989,1.2185-.97.2768-2.2832.0656-2.1789,1.3232a.75.75,0,0,1-1.5,0c.1487-3.4891,6.32-3.496,8.9468-3.5893.8532-.03,1.82.2089,2.5506-.2334,2.63-1.5929.734-5.5878,1.743-7.6021a23.52,23.52,0,0,1,2.0033-2.0555c3.1366-1.0915,7.1858-.32,7.1451-4.8172v-.6818A.7345.7345,0,0,1,187.8192,238.7941Z" fill="#59b549"/><path d="M107.0728,227.9423a.7345.7345,0,0,1-.6165.863l-.6991.1164c-3.4531.4931-2.7054,3.12-4.231,5.7716-1.4274,2.4811-3.1594,3.3073-3.766,6.2885.0206,6.0038-3.1129,8.7279-5.7617,13.6794-1.4918,2.7886-.94,6.5919-.94,9.6583a.75.75,0,0,1-1.5,0c0-3.3459-.5154-7.2978,1.1057-10.3438,1.3408-2.52,3.8712-4.57,4.8374-7.2768a17.224,17.224,0,0,0,.7658-5.8649c.643-3.2653,2.4463-4.2188,3.9621-6.8948,1.7627-3.1122,1.0841-5.8978,5.3155-6.5025l.6646-.1109a.7345.7345,0,0,1,.8631.6165Z" fill="#59b549"/><path d="M106.4356,238.2884a.7345.7345,0,0,1-1.0062.3354l-1.216-.6142c-2.0615-1.8371-.479-5.1044-2.1611-6.5725a.75.75,0,0,1,1.0606-1.0607c1.6468,1.7733.1119,4.933,1.93,6.3835l1.0571.5223a.7345.7345,0,0,1,.3354,1.0062Z" fill="#59b549"/><path d="M95.5734,237.9016a.71.71,0,0,1-.6734-.7441.7345.7345,0,0,1,.75-.75l.4491.0791a9.6137,9.6137,0,0,0,2.2331,1.08.75.75,0,0,1-.3638,1.4553,10.955,10.955,0,0,1-2.395-1.12Z" fill="#59b549"/><path d="M101.0918,245.7408a.7345.7345,0,0,1,.9765-.414l.7738.3179c.2415.26.3749.72.7247.78.2125.0362.0142-.4483.1213-.6354.2173-.38,1.0722-.8753.7021-1.1084-2.0183-1.2714-4.632-1.4315-6.9218-1.4315a.75.75,0,0,1,0-1.5c2.0943,0,6.6244.028,8.08,1.9781.7815,1.047-.44,4.0177-1.6768,4.1659-.6532.0783-1.1612-.6188-1.7418-.9282l-.6238-.2474a.7346.7346,0,0,1-.414-.9765Z" fill="#59b549"/><path d="M91.9452,245.2265a.7345.7345,0,0,1,.75-.75l.4339.0058a26.1717,26.1717,0,0,0,3.3165.1079.75.75,0,0,1,0,1.5,28.3265,28.3265,0,0,1-3.5025-.12l-.2479.0058a.7345.7345,0,0,1-.75-.75Z" fill="#59b549"/><path d="M100.6127,255.3033a.7345.7345,0,0,1-1.0607,0l-.5682-.5682c-1.616-1.6271-3.5493-1.1441-5.72-1.1441a.7345.7345,0,0,1-.75-.75l.0011-.0482c-.0294.0026-.0466.0026-.0466.0026H90.8768l-.644-.3333a.7345.7345,0,0,1,0-1.0606.6914.6914,0,0,1,.9228-.106h1.3123a.7345.7345,0,0,1,.75.75l-.0011.0481c.0294-.0026.0466-.0026.0466-.0026a16.3106,16.3106,0,0,1,4.5934.2532c-1.23-1.2784-2.3575-2.8-3.5326-3.9734a.75.75,0,0,1,1.0606-1.0607c1.6309,1.6325,3.2115,4.1232,5.1136,5.3615l.3339.7377a.7947.7947,0,0,1-.3821.671l.1625.1624a.7346.7346,0,0,1,0,1.0607Z" fill="#59b549"/><path d="M99.7869,260.0009q0-.0326.0019-.0633a17.3731,17.3731,0,0,0-8.1165-2.5962.75.75,0,1,1,0-1.5,19.4577,19.4577,0,0,1,9.9972,3.56l-.9192,1.0952.0178.1037-.0644-.0481-.1668.1987A.7345.7345,0,0,1,99.7869,260.0009Z" fill="#59b549"/><path d="M94.2483,262.2359a.7345.7345,0,0,1-1.0606,0l-.1137-.1136a4.9106,4.9106,0,0,0-3.561-1.8261.75.75,0,0,1,0-1.5,6.4844,6.4844,0,0,1,4.6217,2.2654l.1136.1136A.7345.7345,0,0,1,94.2483,262.2359Z" fill="#59b549"/><path d="M120.7209,251.5908a.7345.7345,0,0,1-.75.75l-.1343-.0057c-.8039.1-2.6989-.0764-2.4116.7332a.8569.8569,0,0,1-.2421.5746q.0143.5073.0148,1.0165a.75.75,0,0,1-1.5,0c0-1.5822-.1151-3.1475-.23-4.7092-.93.1035-.8242,1.3794-.8858,2.2664l.0935.2152a.75.75,0,0,1-1.4553.3638l-.1338-.694c.1566-1.8814.3861-3.3256,2.2775-3.6068-.0738-1.1072-.13-2.2146-.1263-3.3268-.9434-.6621-3.0414-.462-3.9113-.3355l.2907.0145a.75.75,0,0,1-1.2481-.832l.7453-.6674a8.7029,8.7029,0,0,1,4.1818.2642c.1366-1.8771.4345-3.9208-.2311-5.62l-.15-.1907a.75.75,0,0,1,1.2481-.8321l.3046.4912a7.593,7.593,0,0,1,.412,1.82,6.06,6.06,0,0,1,.4522-.4252l.5937-.1739a.7345.7345,0,0,1,.75.75.6879.6879,0,0,1-.5558.7223c-.93.8317-.9274,1.6013-.9216,2.9145a.7829.7829,0,0,1-.4172.6874c-.0175.3075-.0313.6133-.0375.9166l-.0014.072a3.0665,3.0665,0,0,1,.4561,1.5062s0,.0143-.002.0389a5.783,5.783,0,0,1,1.7523-.2207h.3409a.75.75,0,0,1,0,1.5h-.3409c-2.3362-.0059-1.8639.5019-1.8639,2.7731a.9356.9356,0,0,1-.066.313q.0223.3093.0435.6188a10.4414,10.4414,0,0,1,2.5889-.4259l.32-.0057a.7345.7345,0,0,1,.75.75Z" fill="#59b549"/></svg>