<svg id="b3a0edba-b3f9-41fe-9ff9-68c7c8507205" data-name="Layer 1" xmlns="http://www.w3.org/2000/svg" viewBox="0 0 290 357.9"><title>skin02</title><path d="M104.367,196.6191l1.555-7.552,9.162,4.587,7.261-3.058,2.42,3.058,3.976,1.529,5.186-2.718,8.47,1.189,5.877-3.058,8.0358,2.1061,5.7942-3.6351,5.531,4.587,4.668-4.587,3.63,2.379h7.26v15.735l-2.271,12.641-11.041,1.524-17.922,1.516H138.357l-12.209-1.516-11.064-2.379-9.162-3.907-1.555-6.652Z" fill="#f6f6f6"/><path d="M84.062,174.9861l.764-3.131h.51l4.588,2.379h4.843v6.263l2.039,9.268-2.039,4.509-4.843,7.014-2.039-3.131-3.059,1.878H81.513l-3.314-1.878-1.019-3.883-4.843.751-3.059-1.753-.892-2.63v-1.879l.892-1.753,14.784-10.271Z" fill="#fbfcfc"/><path d="M205.939,175.1441l-.765-3.131h-.51l-4.588,2.38h-4.843v6.262l-2.039,9.269,2.039,4.508,4.843,7.014,2.039-3.131,3.059,1.879h3.313l3.314-1.879,1.019-3.883,4.843.752,3.059-1.754.892-2.63v-1.878l-.892-1.754-14.783-10.27Z" fill="#fbfcfc"/><path d="M79.225,177.1481l14.173-13.604c49.376,9.225,103.343.724,105.818,0s9.743,10.403,9.743,10.403l2.544,6.402-2.544,5.202-7.268-2.401-7.268,10.803-5.451-3.201-5.451,3.201H171.165v2.401l-8.358-2.401-7.4486,2.7993-7.8134-2.7993-2.181,2.401-9.085-2.401-8.358,4.402-6.178-4.402-10.902,2.401v-5.602H98.849l-5.451-5.201-4.724,5.201V183.15Z" fill="#fff"/><path d="M89.192,166.5051l3.624-2.995c36.933,6.686,88.77,2.786,105.085,0l3.471,4.435C175.13,175.3131,112.043,169.5751,89.192,166.5051Z" fill="#9f2e29"/></svg>