<svg id="78cf0ecf-978f-45ec-80d7-4a1a8853be76" data-name="Layer 1" xmlns="http://www.w3.org/2000/svg" viewBox="0 0 290 357.9"><title>baby</title><path d="M101.65,196.4009c-2.7267.6846-5.1731.9045-7.7845,2.1311-2.4447,1.1483-8.3971,4.5988-11.0322,3.3436-1.5927-.7587-1.64-3.1244-2.49-4.67-1.6964-3.0834-6.2131-8.2015-5.6665-11.9594.5946-4.0875,6.2235-7.7687,8.65-10.8186,5.0209-5.6329,10.5452-10.81,15.6734-16.3643a68.4319,68.4319,0,0,1,6.1247-6.447l.1.1241a4.222,4.222,0,0,1,2.9784-1.3319c9.3345.0416,19.31,2.1514,28.61,3.42,12.0728,1.6473,24.2373,3.8022,35.4084-2.6886,2.1056-.83,7.1227-5.889,8.2554-5.7789.1835.0178,6.5173,7.4521,7.5806,8.5158a199.06,199.06,0,0,1,20.3484,23.1182c1.2257,1.6767,4.8952,4.8612,4.4372,6.9617-1.4687,6.7354-4.8471,4.5649-8.6841,4.7627-2.3662.1219-3.6057.8537-5.7823,1.7388-2.1142.9393-7.87,4.601-9.94,4.3415-1.753-.22-2.9954-1.878-4.4361-2.9007q-.3021-.2145-.5993-.4365c0,.5066-.0027.9516-.0023,1.2971.008,6.2271.3165,12.5317-.3285,18.7282,5.8026,3.97,10.05,10.1292,14.6272,15.36,6.1717,7.0532,12.6878,14.1043,17.3751,22.2922l1.3218,2.3131a3.7524,3.7524,0,0,1-4.1157,5.5609l-2.9685-.66.0263-.1187a187.4681,187.4681,0,0,1-35.225-1.1746c-4.4165-.5539-8.8612-2.096-13.3192-2.3494-5.2686-.2994-10.54-.2955-15.8153-.6723-6.0007-.0008-11.9512-.9794-17.9645-.6795-4.3068.2148-8.474,1.4236-12.6437,2.2994-6.4494,1.3545-13.1451,1.8337-19.7073,2.43-3.9088.3553-8.6127,1.4658-12.5322.6929-1.9877-.392-4.8468.08-5.8395-1.6857-1.1061-1.9678.76-4.45,1.14-6.6755,8.3348-7.2695,19.2968-12.2359,26.5542-20.8349,1.3554-1.6059,2.7895-3.1472,4.2758-4.6329a14.0129,14.0129,0,0,1,2.1545-2.1491c.2633-.1672.9864.5042.914.2008-.0989-.4148-.9408-.327-1.0428-.741-1.4478-5.8748.6448-13.55,1.3037-19.4786.2835-2.2684.6081-4.5175.806-6.78a82.5372,82.5372,0,0,0-10.745,2.3953Z" fill="#c9c9c9"/><path d="M135.864,176.5066a1.1243,1.1243,0,0,1-.6847,1.1217l-.2621.43a17.3124,17.3124,0,0,1-4.3665.3759,1.2262,1.2262,0,0,1-1.2481-1.1672,7.8954,7.8954,0,0,1-4.3019-2.3119c-.2043.7321-.4027,1.4986-.6555,2.3523-.2862.9663-.2708,2.4284-1.22,2.7662-.8836.3143-1.7091-.8386-2.3921-1.4813a12.6018,12.6018,0,0,1-2.4645-4.4886c-.3712,1.1552-.0173,1.9576-.741,3.4367-.0168.0343-.0341.0685-.0516.1024l.014.0056-.6664,1.666a1.2506,1.2506,0,0,1-2.3016.0976l-.5966-1.1932c-3.0354-2.9889-5.1959-6.7142-7.7385-10.1043a1.25,1.25,0,1,1,2-1.5c2.3364,3.1151,4.3762,6.4376,6.9946,9.322a9.0823,9.0823,0,0,1,1.3985-4.08l.9895-1.979a1.25,1.25,0,0,1,2.3492.257l.3323,1.3291-.1717.0429c.608,1.2916,1.14,2.5969,1.82,3.9018.3606-2.3114,1.627-4.2933,2.8158-6.2747l.655-1.312a1.25,1.25,0,1,1,2.236,1.1181l-.2973.5937c1.99-1.3305,5.041-1.6605,6.88-.5618,4.1549,2.4825.4856,4.8832-2.7771,6.1658,1.1758.1158,2.3367.12,3.2031.12a1.1919,1.1919,0,0,1,1.25,1.25Zm-7.6751-2.962a15.8352,15.8352,0,0,0,4.173-1.5422c.3647-.162,1.253-.2378,1.0474-.58-.8654-1.4406-6.5887-.2918-5.4285,1.8968a.8.8,0,0,0,.2081.2253Z" fill="#fff"/><path d="M140.37,179.45a1.2242,1.2242,0,0,1-1.25-1.25l.0373-1.319c.5883-2.28.3013-4.7958.3013-7.1462a1.25,1.25,0,0,1,2.5,0c0,2.5857.2375,5.2341-.376,7.7526l.0373.7126a1.2242,1.2242,0,0,1-1.25,1.25Z" fill="#fff"/><path d="M139.459,165.3324a1.25,1.25,0,1,1,1.25,1.25A1.25,1.25,0,0,1,139.459,165.3324Z" fill="#fff"/><path d="M155.1647,170.75a1.2242,1.2242,0,0,1-1.25,1.25l-.7126-.0373c-1.0437.2609-2.6978.3781-3.5656,1.1015-.6417.5349-.4829,1.6521-1.0267,2.2864q-.081.0945-.1671.1839l.0385.0289-1.0071,1.3428a1.25,1.25,0,0,1-2.2588-.7384v-6.7722a1.25,1.25,0,0,1,2.5,0v2.092a16.1183,16.1183,0,0,1,4.88-1.95l1.319-.0373a1.2242,1.2242,0,0,1,1.25,1.25Z" fill="#fff"/><path d="M167.822,178.893a1.2243,1.2243,0,0,1-1.7335.3467l-1.4405-1.1583a1.5285,1.5285,0,0,0-.2414-.3833,4.7769,4.7769,0,0,1-2.3085,1.6874c-3.2043,1.0584-8.5331-5.1653-5.2279-7.9275.8461-.7071,4.3608-.3114,5.6561-.2684a17.8929,17.8929,0,0,1,1.2848-6.0919l-.2735-.0684L163.87,163.7a1.25,1.25,0,0,1,2.438,0l.3323,1.3291-.0594.0148.0873.1356c.0158,2.5455.1118,7.0624-1.1166,10.3721a5.2951,5.2951,0,0,1,1.3326,1.4116l.5912.1962a1.2241,1.2241,0,0,1,.3467,1.7334Zm-5.2783-3.37c-.05-.52-.0612-1.2472-.0624-1.8432-.9066-.0643-3.9268-.3343-4.0726-.2514-.7931.4509,2.1536,3.9734,2.8988,3.5853a2.7836,2.7836,0,0,0,1.2362-1.4907Z" fill="#fff"/><path d="M129.8735,198.4117a1.2242,1.2242,0,0,1-1.25-1.25l.0093-1.5071c.6134-2.4533.3293-5.1126.3293-7.6353a1.25,1.25,0,0,1,2.5,0c0,2.6227.29,5.39-.348,7.9407l.0094,1.2017a1.2242,1.2242,0,0,1-1.25,1.25Z" fill="#fff"/><path d="M155.1372,200.4159a1.2243,1.2243,0,0,1-1.7678,0l-.3386-.3386c-.5649-.5649-.91-1.4067-1.6261-1.7607-.4442-.2195-1.2721.0924-1.9723.43a1.4171,1.4171,0,0,1-.39.9917l-1.0779-.2377c-1.6769.82-3.3588,1.5118-5.0981,2.2074a1.25,1.25,0,0,1-.9285-2.3212c1.2168-.4867,2.89-1.4933,4.632-2.3227v-7.3522a1.25,1.25,0,0,1,2.5,0v6.3613a5.0841,5.0841,0,0,1,3.2917-.0667,29.9563,29.9563,0,0,1,2.4372,2.3026l.3386.3386a1.2243,1.2243,0,0,1,0,1.7678Z" fill="#fff"/><path d="M141.62,212.0606c0,2.8713-1.1855,6.6562.2066,9.2606l.132.8977a1.5488,1.5488,0,0,1-.0865.4589c.7344-.0218.7715-1.2745,1.0677-1.9531,1.0564-2.42,1.5662-5.0169,2.5963-7.4774a1.3923,1.3923,0,0,1,.3835-1.0548l.0791.0373.0254-.051.1052.1126,2.1309,1.0054c-1.3542,2.7034-1.7954,5.6851-3.0107,8.3846-.4049.8994-1.78,3.2616-2.9863,3.4644-.7122.12-3.5012-1.5417-4.017-1.9417-3.5427-2.7472-3.84-5.7848-3.8645-9.7483-2.277.6717-4.38,1.4567-6.0761,2.1357a1.25,1.25,0,0,1-.9284-2.3212c8.1119-3.2421,21.2167-7.05,27.5371,1.0878l.25,1.4272a1.25,1.25,0,0,1-2.5,0l.25.0728c-2.4845-3.4823-6.7778-4.2772-11.2982-3.87.0038.0455.0038.0721.0038.0721Zm-4.7415.7283c-.0136,3.1825-.1459,5.53,2.0788,7.7223-.5273-2.6446.12-5.4506.1606-8.1866C138.3678,212.4563,137.619,212.6133,136.8789,212.7889Z" fill="#fff"/><path d="M97.7746,236.244c-4.23,4.0735-8.3384,8.3112-13.2084,11.58a2.4483,2.4483,0,0,1-3.4668-.6934,2.2563,2.2563,0,0,1-.2423-2.3845l-.1865-.2113a4.6324,4.6324,0,0,0-.3645.5234A9.2141,9.2141,0,0,0,78.68,249.744c.0184.9244.8157,1.6875.9677,2.6a9.9282,9.9282,0,0,1,.1344,2.816,23.7458,23.7458,0,0,1,2.6073-.7872c3.4231-1.1067,6.0208-.5137,9.39-1.096,1.0387-.1795,1.9594-.8322,3-1,2.9667-.4785,6.1324.4207,9.095-.0136,16.6359-2.4384,34.4153-1.0187,51.3055-1.0187h27c4.0085,0,8.34-.4154,12.3054.0187,1.3662.15,2.64.8007,4,1,3.9864.5843,8.4624.1543,12.6265.0186a2.2655,2.2655,0,0,1,2.0681-1.0373,2.4485,2.4485,0,0,1,2.5,2.5l-2.5,3.5c-4.939,0-10.4193.6626-15.3055-.0187-1.3612-.19-2.6343-.8459-4-1-3.7574-.4241-7.8959.0187-11.6945.0187h-59c-4.6615,0-10.0594-.6981-14.6946-.0187-1.36.1993-2.6388.81-4,1-6.7926.9472-13.963-.3789-20.5149,1.89-1.6735.5579-6.9761,2.5433-8.2523,1.6564-1.4053-.9767-.8145-3.3314-1.0382-5.0281-.6163-4.6731-1.29-8.8971,1.3733-13.3143.6912-1.1464,3.2707-3.1174,4.1933-4.2707,2.1981-2.7476,4.524-5.6665,7.619-7.5416.9016-.5462,2.123-.4153,3-1,1.1767-.7845,1.8212-2.2188,3-3,.9462-.627,2.1967-.62,3.216-1.1192,1.8724-.9173,3.002-2.9967,4.8666-3.93a11.38,11.38,0,0,1,2.8794-.8635c-.0479-.2053-.0864-.3938-.1154-.5606-.723-4.1592,1.3069-8.79,2-12.8009.6208-3.5917-.0323-7.944-.0323-11.6a2.48,2.48,0,0,1,1.9957-2.4626q.0076-.2688.0043-.5374l3.5-2.5a2.4485,2.4485,0,0,1,2.5,2.5,2.2564,2.2564,0,0,1-1.12,2.1178,20.2282,20.2282,0,0,1-.9123,4.2827c.0286,4.0774-.6976,9.1629,0,13.1991.3709,2.1465,1.3043,4.7147,1.3674,7.1535l.3743-.1248.7906,2.3717,1.7677,1.7678-2,2-.7913-.7913-.9458.3152c-.2521.1723-.496.3561-.7343.5475a2.7474,2.7474,0,0,1-1.722,1.5939q-.0584.0147-.1161.0272a14.29,14.29,0,0,1-2.1439,1.6663l-.003.0019c-.8056.4871-1.19,1.5137-1.997,1.9981-.9039.5424-2.0935.4621-3,1-2.1731,1.29-3.6445,3.21-5.7192,4.3734Z" fill="#c9c9c9"/><path d="M187.18,186.244a2.4485,2.4485,0,0,1,2.5,2.5v1c0,8.1954-1,15.8379-1,24a2.4485,2.4485,0,0,1-2.5,2.5,3.2611,3.2611,0,0,1-.5113-.0385,3.0736,3.0736,0,0,1-.7209,1.3063l-.2089-.5989c-.0428,1.9285-.0589,3.8689-.0589,5.8311v3a2.5,2.5,0,0,1-5,0v-3h0c-1.1625-1.6275,0-4,0-6l.0546-.0872a131.9664,131.9664,0,0,1,.9641-14.2183c.462-3.5868,2.0259-6.1077,1.9813-9.6945a2.48,2.48,0,0,1,1.9986-2.4631q.0014-.268.0014-.5369v-1a2.4485,2.4485,0,0,1,2.5-2.5Z" fill="#c9c9c9"/></svg>