<svg id="fde7d410-4364-4469-a33e-92bff2d9309d" data-name="Layer 1" xmlns="http://www.w3.org/2000/svg" viewBox="0 0 290 357.9"><title>baby</title><path d="M139.1447,201.6285a.323.323,0,1,1-.323-.323A.3235.3235,0,0,1,139.1447,201.6285Z" fill="#ddccb2"/><path d="M106.7313,172.5375a19.7766,19.7766,0,0,1,3.4734-.86,2.1319,2.1319,0,1,1,.603,4.221,13.9707,13.9707,0,0,0-3.7535,1.075l-2.04-3.773a2.4061,2.4061,0,0,1,1.7175-.663Z" fill="#ffecd0"/><path d="M96.5573,171.7775q1.2327-1.17,2.4654-2.344a2.3025,2.3025,0,0,1-.373-.081c-.704.791-1.3932,1.603-2.0924,2.425Z" fill="#fff"/><path d="M162.4427,172.7455a2.1582,2.1582,0,0,1-.594.084,2.1331,2.1331,0,0,1-2.056-1.566l-.917-3.057.023-.007c-.019-.041-.039-.082-.058-.123-.552-1.202-.437-2.609-.655-3.913l.013-.06-.021.002-.307-2.762a2.3311,2.3311,0,0,1-.016-.266,2.1321,2.1321,0,0,1,3.281-1.796,4.5967,4.5967,0,0,1,.853-1.943c3.024-3.813,10.859-1.526,13.601,1.755a5.1784,5.1784,0,0,1,1.065,1.838,1.6808,1.6808,0,0,1,1.515.191c1.179.84,1.494,2.58,1.369,4.282a3.8808,3.8808,0,0,1,1.841,1.43c.588,1.09.364,2.468.283,3.704-.268,4.075-2.635,4.695-6.067,5.891a7.28,7.28,0,0,1-2.886.333v.411h-2.173a2.125,2.125,0,0,1-1.499-.616c-.435.178-.885.385-1.334.556v.721a2.1316,2.1316,0,0,1-4.246.271l-.301-2.104c-.209-1.09-.442-2.178-.714-3.256Zm15.025-2.191a18.83,18.83,0,0,1-1.346,1.414,2.6145,2.6145,0,0,0,1.412-.706C177.7,171.0835,177.5577,170.8165,177.4677,170.5545Zm-3.342-4.13-.099.039c.036-.009.072-.018.109-.025Z" fill="#fff"/><path d="M176.9267,175.2785a2.6508,2.6508,0,0,1,.582-.513l1.591-.954,2.139-1.223a2.1323,2.1323,0,0,1,2.245,3.625l-1.834,1.223-.02-.03-.042.069q-1.1175.639-2.235,1.279a2.0869,2.0869,0,0,1-2.908-.793,1.9847,1.9847,0,0,1,.482-2.683Z" fill="#d0d1d1"/><path d="M176.0007,156.3875a2.0882,2.0882,0,0,1-2.636,1.464l-2.031-.585c-3.334-.509-6.782.79-10.115,1.267a2.1319,2.1319,0,0,1-.603-4.221c3.962-.566,7.601-1.763,11.607-1.216l2.314.656a2.0882,2.0882,0,0,1,1.464,2.635Z" fill="#d0d1d1"/><path d="M144.6107,229.8985a2.132,2.132,0,1,1,2.132,2.132A2.1317,2.1317,0,0,1,144.6107,229.8985Z" fill="#d0d1d1"/><path d="M140.9437,151.1675l-20.963-3.313-3,3.313-9.5,2.687c-2.8709,1.773-10.4735,3.366-12.5,6s-20.24,27.616-21,31.5l14.5,7,15-18.816v16.316l-8.5,86.024c15.402,8.106,68.261-.146,86.5-3.524v-56.5l2-33.5v-12l16.5,22,13-13.5-10.481-15-12.019-11.5-21.926-8.96-22.291,1.773-2.783,1.187Z" fill="#da3931"/><path d="M135.7867,170.1545l-1.266-.76-.254-2.027h1.267l.76.507v2.28l.507-2.027,1.013-1.266.507,1.266-.76,2.787-1.267-.76Z" fill="#ecaa41"/><path d="M133.2537,170.1545h2.027l1.266,1.266v.507l-2.786-.507Z" fill="#ecaa41"/><path d="M131.4807,172.4345h5.32l2.279,2.533-.759-4.813,2.026-3.8,1.52,3.04-1.52,2.533,1.013-.253-1.773,2.533-.507.76-2.786,1.52v-1.52h-2.533Z" fill="#ecaa41"/><path d="M142.7767,214.0015l-.528-1.379,1.051-1.751.997.781.286.868-1.407,1.794,1.649-1.282,1.579-.372-.383,1.309-2.317,1.724-.528-1.379Z" fill="#ecaa41"/><path d="M140.7837,212.4385l1.595,1.251.215,1.778-.313.399-1.88-2.118Z" fill="#ecaa41"/><path d="M137.9817,213.1385l4.186,3.283.231,3.4,2.372-4.257,3.939-1.74-.679,3.33-2.759,1.056.953.426-2.958.899-.868.286-3.13-.523.937-1.196-1.993-1.563Z" fill="#ecaa41"/><path d="M140.7137,253.1445l-1.102-2.88,2.194-3.656,2.081,1.632.596,1.811-2.936,3.746,3.442-2.677,3.297-.776-.799,2.734-4.838,3.599-1.102-2.88Z" fill="#ecaa41"/><path d="M136.5517,249.8815l3.33,2.611.449,3.712-.652.833-3.926-4.422Z" fill="#ecaa41"/><path d="M130.7017,251.3435l8.74,6.852.483,7.099,4.951-8.887,8.224-3.632-1.418,6.952-5.76,2.204,1.991.889-6.177,1.878-1.811.596-6.536-1.092,1.958-2.497-4.162-3.263Z" fill="#ecaa41"/><path d="M141.8617,230.39l-.751-1.963,1.495-2.492,1.418,1.112.406,1.235-2.001,2.552,2.346-1.824,2.246-.529-.544,1.863-3.297,2.453-.751-1.963Z" fill="#ecaa41"/><path d="M139.0247,228.1655l2.269,1.779.307,2.53-.445.567-2.675-3.013Z" fill="#ecaa41"/><path d="M135.0387,229.1615l5.956,4.67.329,4.837,3.374-6.056,5.604-2.475-.966,4.737-3.926,1.502,1.357.606-4.209,1.28-1.234.406-4.454-.744,1.334-1.702-2.836-2.224Z" fill="#ecaa41"/><path d="M135.4127,184.5935l-2.039-1.216-.407-3.243h2.038l1.224.811v3.648l.815-3.243,1.631-2.026.816,2.026-1.223,4.459-2.039-1.216Z" fill="#ecaa41"/><path d="M131.3347,184.5935h3.263l2.039,2.026v.811l-4.486-.811Z" fill="#ecaa41"/><path d="M128.4807,188.2405h8.563l3.67,4.053-1.223-7.7,3.262-6.08,2.447,4.864-2.447,4.053,1.631-.406-2.854,4.054-.816,1.215-4.485,2.432v-2.432h-4.078Z" fill="#ecaa41"/><path d="M159.5967,184.5935l2.039-1.216.407-3.243h-2.039l-1.223.811v3.648l-.815-3.243-1.632-2.026-.815,2.026,1.223,4.459,2.039-1.216Z" fill="#ecaa41"/><path d="M163.6737,184.5935h-3.262l-2.039,2.026v.811l4.486-.811Z" fill="#ecaa41"/><path d="M166.5287,188.2405h-8.563l-3.67,4.053,1.223-7.7-3.262-6.08-2.447,4.864,2.447,4.053-1.631-.406,2.854,4.054.816,1.215,4.485,2.432v-2.432h4.078Z" fill="#ecaa41"/><path d="M155.89,170.1545l1.266-.76.253-2.027h-1.266l-.76.507v2.28l-.507-2.027-1.013-1.266-.507,1.266.76,2.787,1.267-.76Z" fill="#ecaa41"/><path d="M158.4227,170.1545h-2.027l-1.266,1.266v.507l2.786-.507Z" fill="#ecaa41"/><path d="M160.1957,172.4345h-5.32l-2.28,2.533.76-4.813-2.026-3.8-1.52,3.04,1.52,2.533-1.013-.253,1.773,2.533.506.76,2.787,1.52v-1.52h2.533Z" fill="#ecaa41"/></svg>