<svg id="685589c7-eddb-4051-9724-66a001e8c11f" data-name="Layer 1" xmlns="http://www.w3.org/2000/svg" xmlns:xlink="http://www.w3.org/1999/xlink" viewBox="0 0 290 357.9"><defs><linearGradient id="9231eb6c-5bf4-463e-8011-48f057209721" x1="147.9897" y1="204.2715" x2="147.9897" y2="131.3415" gradientTransform="matrix(1, 0, 0, -1, 0, 359.276)" gradientUnits="userSpaceOnUse"><stop offset="0" stop-color="#e5e5e5"/><stop offset="1" stop-color="#1e1515"/></linearGradient></defs><title>skin02</title><path d="M166.4092,150.4375c-14.242,7.809-39.624,3.254-50.726,0L83.6409,166.986,60.1292,220.4685l16.079,3.446,27.564-45.94h2.872l-2.872,35.603h77.95v-35.603l38.623,49.96,15.505-4.02-24.693-39.623c-1.723-5.169-12.7875-18.6012-15.7859-21.987C193.0273,157.606,173.6822,151.7765,166.4092,150.4375Z" fill="url(#9231eb6c-5bf4-463e-8011-48f057209721)"/><path d="M130.2622,182.4305l1.387-6.728h2.724l-2.695,10.566h-2.363l-2.002-6.65-2.002,6.65h-2.354l-2.695-10.566h2.725l1.377,6.719,1.933-6.719h2.041Zm8.271-5.576a3.5247,3.5247,0,0,1,2.823-1.347q3.4365,0,3.486,3.994v6.767H142.02V179.58a1.9391,1.9391,0,0,0-.391-1.338,1.6625,1.6625,0,0,0-1.299-.439,1.9228,1.9228,0,0,0-1.797.957v7.509h-2.822v-15h2.822Zm7.999,4.033a6.258,6.258,0,0,1,.605-2.802,4.4468,4.4468,0,0,1,1.738-1.905,5.1151,5.1151,0,0,1,2.647-.673,4.794,4.794,0,0,1,3.486,1.308,5.2408,5.2408,0,0,1,1.514,3.555l.019.723a5.54,5.54,0,0,1-1.357,3.906,5.2732,5.2732,0,0,1-7.295,0,5.6337,5.6337,0,0,1-1.357-3.985Zm2.822.206a3.9669,3.9669,0,0,0,.566,2.304,2.045,2.045,0,0,0,3.223.01,4.3352,4.3352,0,0,0,.576-2.52,3.9015,3.9015,0,0,0-.576-2.285,1.8747,1.8747,0,0,0-1.621-.81,1.8415,1.8415,0,0,0-1.602.81A4.3644,4.3644,0,0,0,149.3542,181.0935Zm15.049,5.175a3.1179,3.1179,0,0,1-.284-.947,3.413,3.413,0,0,1-2.666,1.143,3.7709,3.7709,0,0,1-2.578-.899,2.8946,2.8946,0,0,1-1.015-2.265,2.9909,2.9909,0,0,1,1.24-2.579,6.1687,6.1687,0,0,1,3.603-.908h1.299v-.605a1.7272,1.7272,0,0,0-.381-1.172,1.4622,1.4622,0,0,0-1.181-.44,1.6985,1.6985,0,0,0-1.123.342,1.1691,1.1691,0,0,0-.401.938h-2.822a2.8361,2.8361,0,0,1,.566-1.699,3.7142,3.7142,0,0,1,1.602-1.221,5.7724,5.7724,0,0,1,2.324-.449,4.5762,4.5762,0,0,1,3.096.986,3.4124,3.4124,0,0,1,1.152,2.754v4.58a5.06,5.06,0,0,0,.42,2.275v.166Zm-2.334-1.963a2.4708,2.4708,0,0,0,1.152-.273,1.8507,1.8507,0,0,0,.781-.752v-1.816h-1.054q-2.12,0-2.256,1.464l-.01.167a1.1319,1.1319,0,0,0,.371.869A1.44,1.44,0,0,0,162.0692,184.3055Z" fill="#fff"/><line x1="116.8322" y1="189.6785" x2="169.6772" y2="189.6785" fill="none" stroke="#fff" stroke-width="2"/></svg>