<svg id="fd31d9a9-6e76-4e81-9ce2-b202b5f1bd90" data-name="Layer 1" xmlns="http://www.w3.org/2000/svg" viewBox="0 0 289.9976 357.9312"><title>Top</title><path d="M81.4946,182.4435s-2.5074,3.4634,1.037,5.9568C82.5316,188.4,84.5211,184.8584,81.4946,182.4435Z" fill="#8cc63f"/><path d="M75.6535,184.4477s3.84,1.88,5.6924-2.0382C81.3459,182.41,77.5166,181.0536,75.6535,184.4477Z" fill="#8cc63f"/><path d="M81.3664,182.3438s-4.02,1.4579-2.4866,5.5113C78.88,187.8551,82.5147,186.0414,81.3664,182.3438Z" fill="#3c6116"/><path d="M85.9021,185.0275s-2.5075,3.4634,1.037,5.9567C86.9391,190.9842,88.9285,187.4424,85.9021,185.0275Z" fill="#8cc63f"/><path d="M80.0609,187.0317s3.84,1.88,5.6924-2.0382C85.7533,184.9935,81.924,183.6376,80.0609,187.0317Z" fill="#8cc63f"/><path d="M85.7738,184.9277s-4.02,1.458-2.4866,5.5114C83.2872,190.4391,86.9221,188.6254,85.7738,184.9277Z" fill="#3c6116"/><path d="M90.31,188.1566s-2.5075,3.4633,1.037,5.9567C91.3465,194.1133,93.3359,190.5715,90.31,188.1566Z" fill="#8cc63f"/><path d="M84.4683,190.1608s3.8405,1.88,5.6925-2.0382C90.1608,188.1226,86.3314,186.7667,84.4683,190.1608Z" fill="#8cc63f"/><path d="M90.1812,188.0568s-4.02,1.458-2.4866,5.5114C87.6946,193.5682,91.33,191.7544,90.1812,188.0568Z" fill="#3c6116"/><path d="M200.9825,191.3318s2.0665,3.7432,5.8315,1.5973C206.814,192.9291,204.456,189.6212,200.9825,191.3318Z" fill="#8cc63f"/><path d="M200.31,197.47s3.3357-2.6749.5788-6.0185C200.8884,191.4519,198.0314,194.34,200.31,197.47Z" fill="#8cc63f"/><path d="M200.8377,191.4054s-.3919,4.2578,3.9285,4.5961C204.7662,196.0015,204.6724,191.94,200.8377,191.4054Z" fill="#3c6116"/><path d="M205.1969,188.4436s2.0665,3.7432,5.8315,1.5973C211.0284,190.0409,208.67,186.7331,205.1969,188.4436Z" fill="#8cc63f"/><path d="M204.5239,194.5822s3.3357-2.6749.5789-6.0185C205.1028,188.5637,202.2458,191.4516,204.5239,194.5822Z" fill="#8cc63f"/><path d="M205.052,188.5172s-.3918,4.2578,3.9285,4.5962C208.9805,193.1134,208.8867,189.0521,205.052,188.5172Z" fill="#3c6116"/><path d="M209.9045,185.7875s2.0665,3.7432,5.8315,1.5973C215.736,187.3848,213.378,184.0769,209.9045,185.7875Z" fill="#8cc63f"/><path d="M209.2315,191.9261s3.3358-2.6749.5789-6.0185C209.81,185.9076,206.9534,188.7954,209.2315,191.9261Z" fill="#8cc63f"/><path d="M209.76,185.8611s-.3918,4.2578,3.9285,4.5961C213.6881,190.4572,213.5943,186.396,209.76,185.8611Z" fill="#3c6116"/><path d="M121.1877,152.5277s-9.6839,13.3756,4.0049,23.0051C125.1926,175.5328,132.8759,161.8542,121.1877,152.5277Z" fill="#8cc63f"/><path d="M98.6291,160.2681s14.8318,7.26,21.9842-7.8717C120.6133,152.3964,105.8243,147.16,98.6291,160.2681Z" fill="#8cc63f"/><path d="M120.6923,152.1425s-15.5236,5.6306-9.6033,21.285C111.089,173.4275,125.1272,166.4228,120.6923,152.1425Z" fill="#3c6116"/><path d="M171.7175,151.8275s4.4047,15.9149,20.4725,11.2315C192.19,163.059,186.3,148.518,171.7175,151.8275Z" fill="#8cc63f"/><path d="M163.683,174.2831s14.93-7.0558,7.5734-22.0888C171.2564,152.1943,157.9338,160.4794,163.683,174.2831Z" fill="#8cc63f"/><path d="M171.1073,151.9741s-5.2913,15.6425,10.6342,20.7891C181.7415,172.7632,185.0321,157.4234,171.1073,151.9741Z" fill="#3c6116"/><path d="M157.9553,154.0264s4.4046,15.9149,20.4725,11.2315C178.4278,165.2579,172.5375,150.7169,157.9553,154.0264Z" fill="#8cc63f"/><path d="M149.9207,176.482s14.93-7.0558,7.5734-22.0888C157.4941,154.3932,144.1715,162.6783,149.9207,176.482Z" fill="#8cc63f"/><path d="M157.345,154.173s-5.2913,15.6425,10.6342,20.7891C167.9792,174.9621,171.27,159.6223,157.345,154.173Z" fill="#3c6116"/><path d="M133.3831,154.6032s-3.5778,16.1209,12.809,19.5243C146.1921,174.1275,147.8133,158.5228,133.3831,154.6032Z" fill="#8cc63f"/><path d="M115.7514,170.6634s16.4951.7745,17.0524-15.9527C132.8038,154.7107,117.1513,155.776,115.7514,170.6634Z" fill="#8cc63f"/><path d="M132.7754,154.4463s-12.0124,11.3309-.3636,23.3482C132.4118,177.7945,142.5153,165.7923,132.7754,154.4463Z" fill="#3c6116"/><path d="M147.3826,156.0055s-1.7253,16.4228,14.9419,17.9447C162.3245,173.95,162.1644,158.2623,147.3826,156.0055Z" fill="#8cc63f"/><path d="M131.6873,173.9628s16.4764-1.1023,15.1319-17.7847C146.8192,156.1781,131.3887,159.0127,131.6873,173.9628Z" fill="#8cc63f"/><path d="M146.7611,155.9186s-10.649,12.6208,2.2882,23.2386C149.0493,179.1572,157.7256,166.086,146.7611,155.9186Z" fill="#3c6116"/></svg>