<?xml version="1.0" encoding="utf-8"?>
<!-- Generator: Adobe Illustrator 22.0.1, SVG Export Plug-In . SVG Version: 6.00 Build 0)  -->
<svg version="1.1" xmlns="http://www.w3.org/2000/svg" xmlns:xlink="http://www.w3.org/1999/xlink" x="0px" y="0px"
	 viewBox="0 0 290 357.9" style="enable-background:new 0 0 290 357.9;" xml:space="preserve">
<style type="text/css">
	.st0{fill:#FF2458;}
	.st1{fill:#D12657;}
	.st2{fill:#F89200;}
	.st3{fill:#D1E4F6;}
	.st4{fill:#8CC63F;}
	.st5{fill:#29ABE2;}
	.st6{fill:#ED1C24;}
	.st7{fill:#662D91;}
	.st8{fill:#5ABA47;}
	.st9{fill:#53AD42;}
	.st10{fill:#006837;}
	.st11{fill:#BEE6F7;}
	.st12{fill:#CDDAE1;}
	.st13{fill:#45575F;}
	.st14{fill:#ACE0F0;}
	.st15{fill:#FFE0A2;}
	.st16{fill:#F69C88;}
	.st17{fill:#F79A51;}
	.st18{fill:#FCEE21;}
	.st19{fill:#FBB03B;}
</style>
<g id="Layer_1">
	<g>
		<path class="st0" d="M-621.5,153.4c0,0-12.1,23.5,28.9,56.1c0,0,24.8-18.8,29.9-56.3C-562.7,153.2-582.3,159.3-621.5,153.4z"/>
		<path class="st0" d="M-621.5,153.4c0,0-16.7,4-24.6-3.9C-646.1,149.5-623.8,145.4-621.5,153.4"/>
		<path class="st0" d="M-621.6,152.9c0,0-12.9,9-24.5,4.5C-646.1,157.4-628.1,146.5-621.6,152.9"/>
		<path class="st1" d="M-607.4,172.4c0,0,18.8-5.1,27.7-1.2C-579.7,171.2-588.7,173.4-607.4,172.4z"/>
		<path class="st1" d="M-604.8,164.1c0,0,18.8-5.1,27.7-1.2C-577.2,162.9-586.1,165-604.8,164.1z"/>
	</g>
	<path class="st2" d="M-264.4,151.8c0,0,24.6,12.4,54.9,1.9l2.7-2.5c0,0-11.5,5.8-59-0.6L-264.4,151.8z"/>
	<path class="st3" d="M-287.8,164.2c0,0,45.5,50.8,102.9,0.5c0,0-12.7-12.3-23.7-11.9c0,0-27.3,9.8-55.7-1.1
		C-264.4,151.8-282.6,154.4-287.8,164.2z"/>
	<path class="st4" d="M-273,153.2c0,0,29.1,26.3,73.9,1.7c0,0-3.7-3.5-10.1-2.4c0,0-6.7,2.4-22.6,3.9c-8.2,0.8-15.9-0.9-33.2-5
		C-264.9,151.4-269,151.5-273,153.2z"/>
	<path class="st5" d="M-278.7,156c0,0,36.1,28.1,88.7,3.5c0,0-3.7-6.4-11.1-5.2c0,0-10.6,3.5-29.2,5c-9.6,0.8-22.4-1.9-42.7-6.1
		C-273,153.2-275.8,153.2-278.7,156z"/>
	<path class="st6" d="M-286.9,162.7c0,0,42.2,26.6,102,2c0,0-3.9-7.9-12.4-6.8c0,0-12.4,2.9-33.6,4.5c-11,0.8-24.7-2.2-47.8-6.4
		C-278.7,156-285.6,159.1-286.9,162.7z"/>
	<path class="st7" d="M-291.2,163.7c0,0,42.7,26.3,108.2,1.7c0,0-5.5-3.5-14.7-2.4c0,0-9.9,2.4-33.1,3.9c-12,0.8-23.2-0.9-48.6-5
		C-279.3,161.9-285.4,162.1-291.2,163.7z"/>
	<g>
		<polygon class="st8" points="139.9,166.1 145,160.9 152.4,166.8 153.3,208 147.5,217.4 139.9,207.5 		"/>
	</g>
	<path class="st9" d="M139.6,154.2c0,0,10.8-1.4,13.2,0.5c2.6,2,1.2,4.2-6.8,11.2C146,165.9,132.2,155.7,139.6,154.2z"/>
	<g>
		<path class="st10" d="M140.9,155.4c0,0-0.2-1.2-1.1-0.7s1.1,2.2,1.1,2.2s1.7-1.7,1.3-2.1S140.9,155.4,140.9,155.4z"/>
		<path class="st10" d="M139.4,156.9c0,0-1.2,0.2-0.7,1.1c0.5,0.8,2.2-1.1,2.2-1.1s-1.7-1.7-2.1-1.3
			C138.5,156,139.4,156.9,139.4,156.9z"/>
		<path class="st10" d="M142.3,156.8c0,0,1.2-0.2,0.7-1.1s-2.2,1.1-2.2,1.1s1.7,1.7,2.1,1.3S142.3,156.8,142.3,156.8z"/>
		<g>
			<path class="st10" d="M142.4,159.3c-0.6,0-1.1-0.2-1.4-0.5c-0.6-0.7-0.3-1.9-0.3-2c0-0.1,0.1-0.1,0.2-0.1c0.1,0,0.1,0.1,0.1,0.2
				c0,0-0.3,1.1,0.2,1.7c0.3,0.3,0.8,0.5,1.5,0.4c0.1,0,0.1,0,0.2,0.1c0,0.1,0,0.1-0.1,0.2C142.6,159.3,142.5,159.3,142.4,159.3z"/>
		</g>
	</g>
	<g>
		<path class="st10" d="M147.2,159.8c0,0-1.2,0.2-0.8,1.1c0.4,0.9,2.2-1,2.2-1s-1.7-1.7-2-1.4S147.2,159.8,147.2,159.8z"/>
		<path class="st10" d="M148.7,161.3c0,0,0.2,1.2,1.1,0.8c0.9-0.4-1-2.2-1-2.2s-1.7,1.7-1.4,2S148.7,161.3,148.7,161.3z"/>
		<path class="st10" d="M148.7,158.4c0,0-0.2-1.2-1.1-0.8s1,2.2,1,2.2s1.7-1.7,1.4-2C149.6,157.5,148.7,158.4,148.7,158.4z"/>
		<g>
			<path class="st10" d="M151.2,158.4c0,0.6-0.2,1.1-0.6,1.3c-0.7,0.6-1.9,0.2-2,0.2c-0.1,0-0.1-0.1-0.1-0.2c0-0.1,0.1-0.1,0.2-0.1
				c0,0,1.1,0.3,1.7-0.2c0.4-0.3,0.5-0.8,0.5-1.5c0-0.1,0.1-0.1,0.1-0.2c0.1,0,0.1,0.1,0.2,0.1C151.2,158.2,151.2,158.3,151.2,158.4
				z"/>
		</g>
	</g>
	<g>
		<path class="st10" d="M143.4,171.1c0,0,0.2-1.2-0.7-1.1c-0.9,0.1,0.2,2.4,0.2,2.4s2.2-1,1.9-1.4
			C144.6,170.6,143.4,171.1,143.4,171.1z"/>
		<path class="st10" d="M141.5,172c0,0-1.2-0.2-1.1,0.7c0.1,0.9,2.4-0.2,2.4-0.2s-1-2.2-1.4-1.9C141,170.8,141.5,172,141.5,172z"/>
		<path class="st10" d="M144.3,173c0,0,1.2,0.2,1.1-0.7c-0.1-0.9-2.4,0.2-2.4,0.2s1,2.2,1.4,1.9C144.8,174.2,144.3,173,144.3,173z"
			/>
		<g>
			<path class="st10" d="M143.4,175.3c-0.6-0.2-0.9-0.6-1.1-1c-0.3-0.9,0.4-1.9,0.5-1.9c0-0.1,0.1-0.1,0.2,0c0.1,0,0.1,0.1,0,0.2
				c0,0-0.7,0.9-0.4,1.7c0.1,0.4,0.6,0.7,1.2,0.9c0.1,0,0.1,0.1,0.1,0.2c0,0.1-0.1,0.1-0.2,0.1C143.6,175.4,143.5,175.3,143.4,175.3
				z"/>
		</g>
	</g>
	<g>
		<path class="st10" d="M149,165.4c0,0,0.2-1.2-0.7-1.1c-0.9,0.1,0.2,2.4,0.2,2.4s2.2-1,1.9-1.4S149,165.4,149,165.4z"/>
		<path class="st10" d="M147.1,166.2c0,0-1.2-0.2-1.1,0.7c0.1,0.9,2.4-0.2,2.4-0.2s-1-2.2-1.4-1.9S147.1,166.2,147.1,166.2z"/>
		<path class="st10" d="M149.9,167.3c0,0,1.2,0.2,1.1-0.7c-0.1-0.9-2.4,0.2-2.4,0.2s1,2.2,1.4,1.9S149.9,167.3,149.9,167.3z"/>
		<g>
			<path class="st10" d="M149,169.6c-0.6-0.2-0.9-0.6-1.1-1c-0.3-0.9,0.4-1.9,0.5-1.9c0-0.1,0.1-0.1,0.2,0c0.1,0,0.1,0.1,0,0.2
				c0,0-0.7,0.9-0.4,1.7c0.1,0.4,0.6,0.7,1.2,0.9c0.1,0,0.1,0.1,0.1,0.2c0,0.1-0.1,0.1-0.2,0.1C149.2,169.7,149.1,169.6,149,169.6z"
				/>
		</g>
	</g>
	<g>
		<path class="st10" d="M148.6,180.2c0,0-0.9-0.9-1.3,0c-0.4,0.8,2.1,1.2,2.1,1.2s0.4-2.4-0.1-2.4
			C148.8,178.9,148.6,180.2,148.6,180.2z"/>
		<path class="st10" d="M148.2,182.2c0,0-0.9,0.9,0,1.3c0.8,0.4,1.2-2.1,1.2-2.1s-2.4-0.4-2.4,0.1
			C146.9,182,148.2,182.2,148.2,182.2z"/>
		<path class="st10" d="M150.6,180.5c0,0,0.9-0.9,0-1.3s-1.2,2.1-1.2,2.1s2.4,0.4,2.4-0.1C151.8,180.7,150.6,180.5,150.6,180.5z"/>
		<g>
			<path class="st10" d="M152,182.6c-0.5,0.3-1,0.4-1.4,0.3c-0.9-0.3-1.3-1.4-1.3-1.5c0-0.1,0-0.2,0.1-0.2c0.1,0,0.2,0,0.2,0.1
				c0,0,0.4,1.1,1.1,1.3c0.4,0.1,0.9,0,1.5-0.5c0.1,0,0.1,0,0.2,0c0.1,0.1,0,0.1,0,0.2C152.2,182.4,152.1,182.5,152,182.6z"/>
		</g>
	</g>
	<g>
		<path class="st10" d="M143.5,189.3c0,0,0.3-1.2-0.6-1.1c-1,0,0,2.4,0,2.4s2.3-0.8,2.1-1.3C144.7,188.9,143.5,189.3,143.5,189.3z"
			/>
		<path class="st10" d="M141.6,190c0,0-1.2-0.3-1.1,0.6c0,1,2.4,0,2.4,0s-0.8-2.3-1.3-2.1S141.6,190,141.6,190z"/>
		<path class="st10" d="M144.2,191.3c0,0,1.2,0.3,1.1-0.6s-2.4,0-2.4,0s0.8,2.3,1.3,2.1S144.2,191.3,144.2,191.3z"/>
		<g>
			<path class="st10" d="M143.1,193.5c-0.5-0.3-0.9-0.6-1-1.1c-0.2-0.9,0.6-1.8,0.6-1.9c0.1-0.1,0.1-0.1,0.2,0
				c0.1,0.1,0.1,0.1,0,0.2c0,0-0.8,0.8-0.6,1.6c0.1,0.4,0.5,0.8,1.1,1c0.1,0,0.1,0.1,0.1,0.2c0,0.1-0.1,0.1-0.2,0.1
				C143.4,193.6,143.2,193.5,143.1,193.5z"/>
		</g>
	</g>
	<g>
		<path class="st10" d="M148,198.1c0,0-1.2-0.1-1,0.8s2.4-0.3,2.4-0.3s-1.1-2.1-1.6-1.9C147.4,196.9,148,198.1,148,198.1z"/>
		<path class="st10" d="M148.9,199.9c0,0-0.1,1.2,0.8,1s-0.3-2.4-0.3-2.4s-2.1,1.1-1.9,1.6C147.8,200.5,148.9,199.9,148.9,199.9z"/>
		<path class="st10" d="M149.8,197.1c0,0,0.1-1.2-0.8-1c-0.9,0.2,0.3,2.4,0.3,2.4s2.1-1.1,1.9-1.6
			C150.9,196.5,149.8,197.1,149.8,197.1z"/>
		<g>
			<path class="st10" d="M152.1,197.8c-0.2,0.6-0.5,1-0.9,1.1c-0.9,0.4-1.9-0.3-1.9-0.4c-0.1,0-0.1-0.1,0-0.2c0-0.1,0.1-0.1,0.2,0
				c0,0,0.9,0.6,1.7,0.3c0.4-0.2,0.7-0.6,0.9-1.3c0-0.1,0.1-0.1,0.2-0.1c0.1,0,0.1,0.1,0.1,0.2C152.2,197.6,152.2,197.7,152.1,197.8
				z"/>
		</g>
	</g>
	<g>
		<path class="st10" d="M144.2,204.1c0,0,0.4-1.1-0.5-1.2c-1-0.1-0.2,2.4-0.2,2.4s2.3-0.6,2.2-1.1
			C145.4,203.8,144.2,204.1,144.2,204.1z"/>
		<path class="st10" d="M142.2,204.6c0,0-1.1-0.4-1.2,0.5s2.4,0.2,2.4,0.2s-0.6-2.3-1.1-2.2C141.9,203.4,142.2,204.6,142.2,204.6z"
			/>
		<path class="st10" d="M144.7,206.1c0,0,1.1,0.4,1.2-0.5c0.1-1-2.4-0.2-2.4-0.2s0.6,2.3,1.1,2.2C145,207.3,144.7,206.1,144.7,206.1
			z"/>
		<g>
			<path class="st10" d="M143.4,208.2c-0.5-0.3-0.8-0.7-0.9-1.2c-0.1-0.9,0.8-1.8,0.8-1.8c0.1-0.1,0.1,0,0.2,0c0.1,0.1,0,0.1,0,0.2
				c0,0-0.8,0.8-0.7,1.6c0.1,0.4,0.4,0.8,1,1.1c0.1,0,0.1,0.1,0.1,0.2c0,0.1-0.1,0.1-0.2,0.1C143.6,208.3,143.5,208.3,143.4,208.2z"
				/>
		</g>
	</g>
	<path class="st11" d="M523.4,151.8c0,0-20-9-24.7-5.8c-4.7,3.2-0.2,18.1-0.2,18.1S510.5,164.7,523.4,151.8z"/>
	<path class="st11" d="M523.4,151.8c0,0,20-9,24.7-5.8c4.7,3.2,0.2,18.1,0.2,18.1S536.4,164.7,523.4,151.8z"/>
	<path class="st12" d="M519.6,149c0,0-2,7.1,1.1,8.2c3.1,1.1,7.3,0,7.3,0s1.1-6.8,0-9.4C527.9,147.9,520.8,146.9,519.6,149z"/>
	<g>
		<path class="st13" d="M911.6,166.7c-0.2,0-0.5,0-0.7,0c-16.4-0.4-28.2-13.9-28.3-14c-0.2-0.2-0.2-0.5,0.1-0.7
			c0.2-0.2,0.5-0.2,0.7,0.1c0.1,0.1,11.7,13.3,27.6,13.7c9.8,0.2,19.2-4.4,28-13.7c0.2-0.2,0.5-0.2,0.7,0c0.2,0.2,0.2,0.5,0,0.7
			C930.9,162,921.4,166.7,911.6,166.7z"/>
	</g>
	<g>
		<path class="st13" d="M911.9,172.3c-0.3,0-0.5-0.2-0.5-0.5v-5.7c0-0.3,0.2-0.5,0.5-0.5s0.5,0.2,0.5,0.5v5.7
			C912.4,172.1,912.2,172.3,911.9,172.3z"/>
	</g>
	<g>
		<path class="st13" d="M911.9,182.5c-0.3,0-0.5-0.2-0.5-0.5v-5.7c0-0.3,0.2-0.5,0.5-0.5s0.5,0.2,0.5,0.5v5.7
			C912.4,182.3,912.2,182.5,911.9,182.5z"/>
	</g>
	<g>
		<path class="st13" d="M911.9,191.9c-0.3,0-0.5-0.2-0.5-0.5v-5.7c0-0.3,0.2-0.5,0.5-0.5s0.5,0.2,0.5,0.5v5.7
			C912.4,191.7,912.2,191.9,911.9,191.9z"/>
	</g>
	<circle class="st14" cx="912" cy="193.6" r="2.2"/>
	<circle class="st14" cx="912" cy="184.3" r="2.2"/>
	<circle class="st14" cx="912" cy="174" r="2.2"/>
	<g>
		<g>
			<path class="st13" d="M1391,201.4c-1.4,0-2.8-0.1-4.3-0.3c-11.2-1.5-19.2-7.4-23.9-17.5c-6.1-13.1-4.3-28.5-4.2-29.1
				c0.1-0.4,0.3-0.7,0.6-0.6c0.3,0.1,0.4,0.5,0.4,1c0,0.2-1.8,15.3,4,27.9c4.5,9.7,12.3,15.4,23.2,16.8c10.8,1.4,18.8-2.3,23.9-11.1
				c7.7-13.4,6-34.2,5.9-34.4c0-0.4,0.1-0.9,0.4-0.9c0.3-0.1,0.5,0.2,0.6,0.7c0,0.2,1.9,21.7-6.2,35.7
				C1406.8,197.4,1399.9,201.4,1391,201.4z"/>
		</g>
	</g>
	<g>
		<g>
			<path class="st13" d="M1392,191.6c-1.4,0-2.8-0.1-4.3-0.2c-11.2-1.2-19.2-6.1-23.9-14.4c-6.1-10.8-4.3-23.5-4.2-24
				c0.1-0.4,0.3-0.6,0.6-0.5c0.3,0.1,0.4,0.4,0.4,0.8c0,0.1-1.8,12.6,4,22.9c4.5,8,12.3,12.7,23.2,13.8c10.8,1.2,18.8-1.9,23.9-9.2
				c7.7-11,6-28.1,5.9-28.3c0-0.4,0.1-0.7,0.4-0.8c0.3-0.1,0.5,0.2,0.6,0.6c0,0.2,1.9,17.9-6.2,29.4
				C1407.7,188.3,1400.9,191.6,1392,191.6z"/>
		</g>
	</g>
	<g>
		<g>
			<path class="st13" d="M1392.3,181.6c-1.4,0-2.8-0.1-4.3-0.2c-11.2-0.9-19.2-4.5-23.9-10.8c-6.1-8.1-4.3-17.5-4.2-17.9
				c0.1-0.3,0.3-0.4,0.6-0.4c0.3,0.1,0.4,0.3,0.4,0.6c0,0.1-1.8,9.4,4,17.1c4.5,6,12.3,9.5,23.2,10.3c10.8,0.9,18.8-1.4,23.9-6.9
				c7.7-8.2,6-21,5.9-21.1c0-0.3,0.1-0.5,0.4-0.6c0.3,0,0.5,0.1,0.6,0.4c0,0.1,1.9,13.4-6.2,22
				C1408,179.1,1401.2,181.6,1392.3,181.6z"/>
		</g>
		<path class="st15" d="M1360.1,157.5l-0.4,0c-0.7,0-1.2-0.6-1.2-1.3l0.1-2.8c0-0.7,0.6-1.2,1.3-1.2l0.4,0c0.7,0,1.2,0.6,1.2,1.3
			l-0.1,2.8C1361.4,157,1360.8,157.5,1360.1,157.5z"/>
		<path class="st15" d="M1362.4,167l-0.4,0.1c-0.7,0.2-1.4-0.1-1.6-0.8l-0.9-2.7c-0.2-0.7,0.1-1.4,0.8-1.6l0.4-0.1
			c0.7-0.2,1.4,0.1,1.6,0.8l0.9,2.7C1363.4,166.1,1363,166.8,1362.4,167z"/>
		<path class="st15" d="M1367.8,174.2l-0.3,0.3c-0.6,0.4-1.4,0.3-1.8-0.2l-1.7-2.2c-0.4-0.6-0.3-1.4,0.2-1.8l0.3-0.3
			c0.6-0.4,1.4-0.3,1.8,0.2l1.7,2.2C1368.5,173,1368.4,173.8,1367.8,174.2z"/>
		<path class="st15" d="M1373.9,177.6l-0.2,0.4c-0.4,0.6-1.1,0.8-1.7,0.5l-2.5-1.4c-0.6-0.4-0.8-1.1-0.5-1.7l0.2-0.4
			c0.4-0.6,1.1-0.8,1.7-0.5l2.5,1.4C1374,176.2,1374.2,177,1373.9,177.6z"/>
		<path class="st15" d="M1381.3,180.2l-0.1,0.4c-0.2,0.7-0.9,1.1-1.6,0.9l-2.7-0.8c-0.7-0.2-1.1-0.9-0.9-1.6l0.1-0.4
			c0.2-0.7,0.9-1.1,1.6-0.9l2.7,0.8C1381.1,178.8,1381.5,179.5,1381.3,180.2z"/>
		<path class="st15" d="M1388.9,180.6l0,0.4c-0.1,0.7-0.7,1.2-1.4,1.1l-2.8-0.3c-0.7-0.1-1.2-0.7-1.1-1.4l0-0.4
			c0.1-0.7,0.7-1.2,1.4-1.1l2.8,0.3C1388.4,179.3,1388.9,179.9,1388.9,180.6z"/>
		<path class="st15" d="M1395.8,180.7l0,0.4c0,0.7-0.5,1.3-1.2,1.3l-2.8,0.1c-0.7,0-1.3-0.5-1.3-1.2l0-0.4c0-0.7,0.5-1.3,1.2-1.3
			l2.8-0.1C1395.1,179.5,1395.7,180,1395.8,180.7z"/>
		<path class="st15" d="M1402.9,179.5l0.1,0.4c0.2,0.7-0.3,1.4-1,1.5l-2.8,0.6c-0.7,0.2-1.4-0.3-1.5-1l-0.1-0.4
			c-0.2-0.7,0.3-1.4,1-1.5l2.8-0.6C1402,178.4,1402.7,178.9,1402.9,179.5z"/>
		<path class="st15" d="M1410.1,175.5l0.2,0.4c0.4,0.6,0.1,1.4-0.5,1.7l-2.5,1.4c-0.6,0.4-1.4,0.1-1.7-0.5l-0.2-0.4
			c-0.4-0.6-0.1-1.4,0.5-1.7l2.5-1.4C1409,174.7,1409.8,174.9,1410.1,175.5z"/>
		<path class="st15" d="M1416,169.1l0.3,0.3c0.5,0.5,0.5,1.3,0,1.8l-2,2c-0.5,0.5-1.3,0.5-1.8,0l-0.3-0.3c-0.5-0.5-0.5-1.3,0-1.8
			l2-2C1414.7,168.6,1415.5,168.6,1416,169.1z"/>
		<path class="st15" d="M1417.9,160.5l0.4,0c0.7,0.1,1.2,0.7,1.1,1.4l-0.3,2.8c-0.1,0.7-0.7,1.2-1.4,1.1l-0.4,0
			c-0.7-0.1-1.2-0.7-1.1-1.4l0.3-2.8C1416.5,160.9,1417.2,160.4,1417.9,160.5z"/>
		<path class="st15" d="M1418.4,152l0.4,0c0.7,0,1.3,0.6,1.2,1.3l-0.1,2.8c0,0.7-0.6,1.3-1.3,1.2l-0.4,0c-0.7,0-1.3-0.6-1.2-1.3
			l0.1-2.8C1417.1,152.5,1417.7,152,1418.4,152z"/>
	</g>
	<path class="st16" d="M1416.1,173.8l0.4,0.2c0.6,0.4,0.8,1.1,0.5,1.7l-1.4,2.5c-0.4,0.6-1.1,0.8-1.7,0.5l-0.4-0.2
		c-0.6-0.4-0.8-1.1-0.5-1.7l1.4-2.5C1414.7,173.7,1415.5,173.5,1416.1,173.8z"/>
	<path class="st16" d="M1412.1,181.1l0.3,0.3c0.5,0.5,0.6,1.3,0.2,1.8l-1.8,2.2c-0.5,0.5-1.3,0.6-1.8,0.2l-0.3-0.3
		c-0.5-0.5-0.6-1.3-0.2-1.8l1.8-2.2C1410.8,180.8,1411.6,180.7,1412.1,181.1z"/>
	<path class="st16" d="M1406.7,186.7l0.2,0.4c0.4,0.6,0.1,1.4-0.5,1.7l-2.5,1.4c-0.6,0.4-1.4,0.1-1.7-0.5l-0.2-0.4
		c-0.4-0.6-0.1-1.4,0.5-1.7l2.5-1.4C1405.6,185.9,1406.4,186.1,1406.7,186.7z"/>
	<path class="st16" d="M1399.3,190.5l0,0.4c0.1,0.7-0.5,1.3-1.2,1.4l-2.8,0.3c-0.7,0.1-1.3-0.5-1.4-1.2l0-0.4
		c-0.1-0.7,0.5-1.3,1.2-1.4l2.8-0.3C1398.6,189.3,1399.2,189.8,1399.3,190.5z"/>
	<path class="st16" d="M1390.7,191.2l-0.1,0.4c-0.1,0.7-0.8,1.2-1.5,1.1l-2.8-0.4c-0.7-0.1-1.2-0.8-1.1-1.5l0.1-0.4
		c0.1-0.7,0.8-1.2,1.5-1.1l2.8,0.4C1390.3,189.8,1390.8,190.5,1390.7,191.2z"/>
	<path class="st16" d="M1382.5,189.4l-0.1,0.4c-0.2,0.7-0.9,1.1-1.6,0.9l-2.7-0.8c-0.7-0.2-1.1-0.9-0.9-1.6l0.1-0.4
		c0.2-0.7,0.9-1.1,1.6-0.9l2.7,0.8C1382.3,188.1,1382.6,188.8,1382.5,189.4z"/>
	<path class="st16" d="M1375.5,187.2l-0.2,0.4c-0.4,0.6-1.2,0.8-1.8,0.4l-2.4-1.5c-0.6-0.4-0.8-1.2-0.4-1.8l0.2-0.4
		c0.4-0.6,1.2-0.8,1.8-0.4l2.4,1.5C1375.7,185.8,1375.9,186.6,1375.5,187.2z"/>
	<path class="st16" d="M1369.4,183.6l-0.3,0.3c-0.6,0.4-1.4,0.3-1.8-0.2l-1.7-2.2c-0.4-0.6-0.3-1.4,0.2-1.8l0.3-0.3
		c0.6-0.4,1.4-0.3,1.8,0.2l1.7,2.2C1370.1,182.3,1370,183.1,1369.4,183.6z"/>
	<path class="st16" d="M1365.1,177.5l-0.4,0.2c-0.6,0.4-1.4,0.1-1.7-0.5l-1.4-2.5c-0.4-0.6-0.1-1.4,0.5-1.7l0.4-0.2
		c0.6-0.4,1.4-0.1,1.7,0.5l1.4,2.5C1366,176.3,1365.8,177.1,1365.1,177.5z"/>
	<path class="st17" d="M1362.4,180.8l-0.4,0.1c-0.7,0.2-1.4-0.1-1.6-0.8l-0.9-2.7c-0.2-0.7,0.1-1.4,0.8-1.6l0.4-0.1
		c0.7-0.2,1.4,0.1,1.6,0.8l0.9,2.7C1363.4,179.9,1363,180.6,1362.4,180.8z"/>
	<path class="st17" d="M1366,187.8l-0.4,0.2c-0.6,0.4-1.4,0.1-1.7-0.5l-1.4-2.5c-0.4-0.6-0.1-1.4,0.5-1.7l0.4-0.2
		c0.6-0.4,1.4-0.1,1.7,0.5l1.4,2.5C1366.9,186.6,1366.7,187.4,1366,187.8z"/>
	<path class="st17" d="M1371.8,193.9l-0.3,0.3c-0.5,0.5-1.3,0.6-1.8,0.2l-2.2-1.8c-0.5-0.5-0.6-1.3-0.2-1.8l0.3-0.3
		c0.5-0.5,1.3-0.6,1.8-0.2l2.2,1.8C1372.1,192.6,1372.2,193.4,1371.8,193.9z"/>
	<path class="st17" d="M1378,197.5l-0.2,0.4c-0.3,0.6-1,1-1.7,0.7l-2.6-1.1c-0.6-0.3-1-1-0.7-1.7l0.2-0.4c0.3-0.6,1-1,1.7-0.7
		l2.6,1.1C1378,196.1,1378.3,196.9,1378,197.5z"/>
	<path class="st17" d="M1385.4,199.6l-0.1,0.4c-0.1,0.7-0.8,1.2-1.5,1.1l-2.8-0.4c-0.7-0.1-1.2-0.8-1.1-1.5l0.1-0.4
		c0.1-0.7,0.8-1.2,1.5-1.1l2.8,0.4C1385,198.3,1385.5,198.9,1385.4,199.6z"/>
	<path class="st17" d="M1393.7,200v0.4c0,0.7-0.6,1.3-1.3,1.3h-2.8c-0.7,0-1.3-0.6-1.3-1.3V200c0-0.7,0.6-1.3,1.3-1.3h2.8
		C1393.2,198.7,1393.7,199.3,1393.7,200z"/>
	<path class="st17" d="M1402.6,197.4l0.2,0.4c0.3,0.6,0,1.4-0.6,1.7l-2.6,1.2c-0.6,0.3-1.4,0-1.7-0.6l-0.2-0.4
		c-0.3-0.6,0-1.4,0.6-1.7l2.6-1.2C1401.6,196.4,1402.3,196.7,1402.6,197.4z"/>
	<path class="st17" d="M1408.7,191.6l0.3,0.3c0.5,0.5,0.6,1.3,0.2,1.8l-1.8,2.2c-0.5,0.5-1.3,0.6-1.8,0.2l-0.3-0.3
		c-0.5-0.5-0.6-1.3-0.2-1.8l1.8-2.2C1407.4,191.2,1408.2,191.1,1408.7,191.6z"/>
	<path class="st17" d="M1412.8,185.3l0.4,0.2c0.6,0.4,0.8,1.1,0.5,1.7l-1.4,2.5c-0.4,0.6-1.1,0.8-1.7,0.5l-0.4-0.2
		c-0.6-0.4-0.8-1.1-0.5-1.7l1.4-2.5C1411.4,185.2,1412.2,185,1412.8,185.3z"/>
	<g>
		<path class="st4" d="M1855.2,153.5c0,0,0.1,4.3,4.5,4.1C1859.7,157.6,1859.1,153.6,1855.2,153.5z"/>
		<path class="st4" d="M1851.9,158.7c0,0,4.2-0.9,3.2-5.1C1855.1,153.6,1851.2,154.9,1851.9,158.7z"/>
		<path class="st18" d="M1855,153.5c0,0-1.7,5.6,1.9,5.2C1860.5,158.4,1855,153.5,1855,153.5z"/>
		<path class="st18" d="M1855,153.6c0,0,4,4.2,5.5,1C1861.9,151.3,1855,153.6,1855,153.6z"/>
		<path class="st18" d="M1855.2,153.8c0,0,5-2.9,2.2-5.1S1855.2,153.8,1855.2,153.8z"/>
		<path class="st18" d="M1855.2,153.6c0,0-0.9-5.7-3.9-3.9C1848.2,151.5,1855.2,153.6,1855.2,153.6z"/>
		<path class="st18" d="M1855.2,153.5c0,0-5.7-1.2-5,2.3S1855.2,153.5,1855.2,153.5z"/>
		<path class="st19" d="M1855.1,153.1c0,0-1.1,0.7,0,1.2C1856.1,155,1856.1,152.9,1855.1,153.1z"/>
	</g>
	<g>
		<path class="st4" d="M1859.5,160.5c0,0,0.1,4.3,4.5,4.1C1864,164.6,1863.4,160.6,1859.5,160.5z"/>
		<path class="st4" d="M1856.2,165.7c0,0,4.2-0.9,3.2-5.1C1859.4,160.6,1855.5,161.9,1856.2,165.7z"/>
		<path class="st18" d="M1859.3,160.5c0,0-1.7,5.6,1.9,5.2C1864.8,165.4,1859.3,160.5,1859.3,160.5z"/>
		<path class="st18" d="M1859.3,160.6c0,0,4,4.2,5.5,1S1859.3,160.6,1859.3,160.6z"/>
		<path class="st18" d="M1859.5,160.8c0,0,5-2.9,2.2-5.1S1859.5,160.8,1859.5,160.8z"/>
		<path class="st18" d="M1859.5,160.6c0,0-0.9-5.7-3.9-3.9C1852.5,158.5,1859.5,160.6,1859.5,160.6z"/>
		<path class="st18" d="M1859.5,160.5c0,0-5.7-1.2-5,2.3S1859.5,160.5,1859.5,160.5z"/>
		<path class="st19" d="M1859.4,160.1c0,0-1.1,0.7,0,1.2C1860.5,162,1860.4,159.8,1859.4,160.1z"/>
	</g>
	<g>
		<path class="st4" d="M1866,166c0,0,1.7,3.9,5.7,2.1C1871.7,168.1,1869.6,164.6,1866,166z"/>
		<path class="st4" d="M1864.8,172.1c0,0,3.5-2.4,1.1-5.9C1865.9,166.1,1862.8,168.8,1864.8,172.1z"/>
		<path class="st18" d="M1865.8,166.1c0,0,0.5,5.8,3.7,4.1C1872.7,168.6,1865.8,166.1,1865.8,166.1z"/>
		<path class="st18" d="M1865.8,166.2c0,0,5.3,2.4,5.4-1.2C1871.4,161.5,1865.8,166.2,1865.8,166.2z"/>
		<path class="st18" d="M1866.1,166.3c0,0,3.5-4.6,0.1-5.5S1866.1,166.3,1866.1,166.3z"/>
		<path class="st18" d="M1866,166.1c0,0-3-5-5.1-2.1S1866,166.1,1866,166.1z"/>
		<path class="st18" d="M1866,166c0,0-5.7,1.1-3.8,4.1C1864.1,173.1,1866,166,1866,166z"/>
		<path class="st19" d="M1865.7,165.7c0,0-0.7,1,0.5,1.2C1867.4,167,1866.5,165.1,1865.7,165.7z"/>
	</g>
	<g>
		<path class="st4" d="M1874,170.8c0,0,0.1,4.3,4.5,4.1C1878.5,174.9,1877.9,170.8,1874,170.8z"/>
		<path class="st4" d="M1870.6,176c0,0,4.2-0.9,3.2-5.1C1873.9,170.9,1870,172.1,1870.6,176z"/>
		<path class="st18" d="M1873.8,170.8c0,0-1.7,5.6,1.9,5.2S1873.8,170.8,1873.8,170.8z"/>
		<path class="st18" d="M1873.7,170.9c0,0,4,4.2,5.5,1C1880.7,168.6,1873.7,170.9,1873.7,170.9z"/>
		<path class="st18" d="M1874,171c0,0,5-2.9,2.2-5.1S1874,171,1874,171z"/>
		<path class="st18" d="M1874,170.8c0,0-0.9-5.7-3.9-3.9C1867,168.8,1874,170.8,1874,170.8z"/>
		<path class="st18" d="M1874,170.8c0,0-5.7-1.2-5,2.3C1869.6,176.6,1874,170.8,1874,170.8z"/>
		<path class="st19" d="M1873.8,170.4c0,0-1.1,0.7,0,1.2C1874.9,172.2,1874.8,170.1,1873.8,170.4z"/>
	</g>
	<g>
		<path class="st4" d="M1883.5,172c0,0,0.1,4.3,4.5,4.1C1888,176.1,1887.4,172.1,1883.5,172z"/>
		<path class="st4" d="M1880.1,177.2c0,0,4.2-0.9,3.2-5.1C1883.4,172.1,1879.5,173.3,1880.1,177.2z"/>
		<path class="st18" d="M1883.3,172c0,0-1.7,5.6,1.9,5.2C1888.7,176.9,1883.3,172,1883.3,172z"/>
		<path class="st18" d="M1883.2,172.1c0,0,4,4.2,5.5,1C1890.2,169.8,1883.2,172.1,1883.2,172.1z"/>
		<path class="st18" d="M1883.5,172.3c0,0,5-2.9,2.2-5.1C1882.8,165,1883.5,172.3,1883.5,172.3z"/>
		<path class="st18" d="M1883.5,172.1c0,0-0.9-5.7-3.9-3.9C1876.5,170,1883.5,172.1,1883.5,172.1z"/>
		<path class="st18" d="M1883.5,172c0,0-5.7-1.2-5,2.3C1879.1,177.8,1883.5,172,1883.5,172z"/>
		<path class="st19" d="M1883.4,171.6c0,0-1.1,0.7,0,1.2C1884.4,173.4,1884.3,171.3,1883.4,171.6z"/>
	</g>
	<g>
		<path class="st4" d="M1893.4,171.6c0,0,0.1,4.3,4.5,4.1C1897.8,175.6,1897.2,171.6,1893.4,171.6z"/>
		<path class="st4" d="M1890,176.7c0,0,4.2-0.9,3.2-5.1C1893.2,171.6,1889.4,172.9,1890,176.7z"/>
		<path class="st18" d="M1893.2,171.6c0,0-1.7,5.6,1.9,5.2S1893.2,171.6,1893.2,171.6z"/>
		<path class="st18" d="M1893.1,171.6c0,0,4,4.2,5.5,1C1900.1,169.4,1893.1,171.6,1893.1,171.6z"/>
		<path class="st18" d="M1893.3,171.8c0,0,5-2.9,2.2-5.1S1893.3,171.8,1893.3,171.8z"/>
		<path class="st18" d="M1893.4,171.6c0,0-0.9-5.7-3.9-3.9C1886.4,169.5,1893.4,171.6,1893.4,171.6z"/>
		<path class="st18" d="M1893.4,171.5c0,0-5.7-1.2-5,2.3C1889,177.4,1893.4,171.5,1893.4,171.5z"/>
		<path class="st19" d="M1893.2,171.2c0,0-1.1,0.7,0,1.2C1894.3,173,1894.2,170.9,1893.2,171.2z"/>
	</g>
	<g>
		<path class="st4" d="M1901.8,167.2c0,0,0.1,4.3,4.5,4.1C1906.2,171.2,1905.6,167.2,1901.8,167.2z"/>
		<path class="st4" d="M1898.4,172.3c0,0,4.2-0.9,3.2-5.1C1901.6,167.2,1897.8,168.5,1898.4,172.3z"/>
		<path class="st18" d="M1901.6,167.2c0,0-1.7,5.6,1.9,5.2S1901.6,167.2,1901.6,167.2z"/>
		<path class="st18" d="M1901.5,167.2c0,0,4,4.2,5.5,1C1908.5,164.9,1901.5,167.2,1901.5,167.2z"/>
		<path class="st18" d="M1901.7,167.4c0,0,5-2.9,2.2-5.1C1901.1,160.1,1901.7,167.4,1901.7,167.4z"/>
		<path class="st18" d="M1901.8,167.2c0,0-0.9-5.7-3.9-3.9C1894.8,165.1,1901.8,167.2,1901.8,167.2z"/>
		<path class="st18" d="M1901.8,167.1c0,0-5.7-1.2-5,2.3C1897.4,173,1901.8,167.1,1901.8,167.1z"/>
		<path class="st19" d="M1901.6,166.7c0,0-1.1,0.7,0,1.2C1902.7,168.6,1902.6,166.5,1901.6,166.7z"/>
	</g>
	<g>
		<path class="st4" d="M1909.4,163c0,0,0.1,4.3,4.5,4.1C1913.9,167,1913.3,163,1909.4,163z"/>
		<path class="st4" d="M1906,168.1c0,0,4.2-0.9,3.2-5.1C1909.3,163,1905.4,164.3,1906,168.1z"/>
		<path class="st18" d="M1909.2,163c0,0-1.7,5.6,1.9,5.2S1909.2,163,1909.2,163z"/>
		<path class="st18" d="M1909.2,163c0,0,4,4.2,5.5,1C1916.1,160.7,1909.2,163,1909.2,163z"/>
		<path class="st18" d="M1909.4,163.2c0,0,5-2.9,2.2-5.1C1908.8,155.9,1909.4,163.2,1909.4,163.2z"/>
		<path class="st18" d="M1909.4,163c0,0-0.9-5.7-3.9-3.9S1909.4,163,1909.4,163z"/>
		<path class="st18" d="M1909.4,162.9c0,0-5.7-1.2-5,2.3C1905,168.8,1909.4,162.9,1909.4,162.9z"/>
		<path class="st19" d="M1909.3,162.6c0,0-1.1,0.7,0,1.2C1910.3,164.4,1910.3,162.3,1909.3,162.6z"/>
	</g>
	<g>
		<path class="st4" d="M1913.7,157c0,0,0.1,4.3,4.5,4.1C1918.2,161.1,1917.6,157,1913.7,157z"/>
		<path class="st4" d="M1910.3,162.2c0,0,4.2-0.9,3.2-5.1C1913.6,157.1,1909.7,158.3,1910.3,162.2z"/>
		<path class="st18" d="M1913.5,157c0,0-1.7,5.6,1.9,5.2S1913.5,157,1913.5,157z"/>
		<path class="st18" d="M1913.5,157.1c0,0,4,4.2,5.5,1S1913.5,157.1,1913.5,157.1z"/>
		<path class="st18" d="M1913.7,157.2c0,0,5-2.9,2.2-5.1S1913.7,157.2,1913.7,157.2z"/>
		<path class="st18" d="M1913.7,157.1c0,0-0.9-5.7-3.9-3.9C1906.7,155,1913.7,157.1,1913.7,157.1z"/>
		<path class="st18" d="M1913.7,157c0,0-5.7-1.2-5,2.3C1909.4,162.8,1913.7,157,1913.7,157z"/>
		<path class="st19" d="M1913.6,156.6c0,0-1.1,0.7,0,1.2C1914.6,158.4,1914.6,156.3,1913.6,156.6z"/>
	</g>
</g>
<g id="Layer_2">
</g>
</svg>
